<svg width="171" height="104" viewBox="0 0 171 104" fill="none" xmlns="http://www.w3.org/2000/svg">
<rect x="0.25" y="0.25" width="170.5" height="103.5" rx="11.75" fill="url(#paint0_linear_1_2)" stroke="url(#paint1_linear_1_2)" stroke-width="0.5"/>
<g opacity="0.6">
<path d="M132.672 33.5019C137.163 30.2676 143.244 30.2676 147.735 33.5019L158.038 40.9218C162.529 44.156 164.408 49.8889 162.692 55.122L158.757 67.1277C157.042 72.3609 152.122 75.904 146.571 75.904H133.836C128.285 75.904 123.365 72.3609 121.649 67.1277L117.714 55.1221C115.999 49.8889 117.878 44.156 122.369 40.9218L132.672 33.5019Z" fill="url(#paint2_linear_1_2)"/>
<path d="M132.778 33.2543C137.15 30.1053 143.073 30.1053 147.445 33.2543L158.191 40.9933C162.562 44.141 164.387 49.7159 162.72 54.8021L158.615 67.3241C156.948 72.4117 152.161 75.8633 146.753 75.8633H133.47C128.062 75.8633 123.275 72.4117 121.608 67.3241L117.503 54.8021C115.836 49.7159 117.661 44.141 122.032 40.9933L132.778 33.2543Z" stroke="url(#paint3_linear_1_2)" stroke-width="1.78508"/>
<path d="M132.911 34.302C137.207 31.2013 143.023 31.2013 147.318 34.302L157.257 41.476C161.552 44.5766 163.349 50.0722 161.708 55.0885L157.912 66.6962C156.272 71.7127 151.567 75.1096 146.257 75.1096H133.973C128.663 75.1096 123.958 71.7127 122.317 66.6962L118.521 55.0885C116.881 50.0722 118.678 44.5766 122.973 41.476L132.911 34.302Z" stroke="url(#paint4_linear_1_2)" stroke-width="0.208863"/>
<path d="M132.973 34.4809C137.231 31.4077 142.997 31.4077 147.255 34.4809L157.096 41.5833C161.354 44.6564 163.135 50.1033 161.509 55.0751L157.75 66.5672C156.124 71.5391 151.459 74.9059 146.196 74.9059H134.032C128.768 74.9059 124.104 71.5391 122.478 66.5672L118.719 55.0751C117.092 50.1033 118.874 44.6564 123.132 41.5833L132.973 34.4809Z" stroke="url(#paint5_linear_1_2)" stroke-width="0.180057"/>
<g style="mix-blend-mode:soft-light" opacity="0.6" clip-path="url(#clip0_1_2)">
<path d="M150.946 42.8435L150.944 59.8837L149.406 58.8313V47.8788L148.355 49.4397C148.41 49.5544 148.462 49.6703 148.511 49.785C148.982 50.8885 149.22 52.0602 149.22 53.2679C149.22 54.4756 148.982 55.6472 148.511 56.7508C148.109 57.6931 147.552 58.5528 146.855 59.3064L146.816 59.349H144.505L144.805 59.115C145.043 58.9303 145.272 58.7284 145.488 58.5148C146.902 57.1138 147.681 55.2501 147.681 53.2679C147.681 52.4822 147.559 51.7135 147.319 50.9776L141.348 59.8444V56.9965L141.37 56.9637L146.545 49.3335C146.246 48.8611 145.89 48.42 145.488 48.0203C144.27 46.8139 142.67 46.059 140.969 45.886L140.964 60.4158L140.202 61.5468L139.44 60.4158L139.439 57.9919L139.435 45.886C137.733 46.059 136.133 46.8139 134.916 48.0203C134.513 48.42 134.157 48.8617 133.859 49.3335L139.055 56.9965V59.8444L133.084 50.9776C132.844 51.7135 132.723 52.4822 132.723 53.2679C132.723 55.2501 133.502 57.1138 134.916 58.5148C135.131 58.7278 135.361 58.9296 135.598 59.115L135.899 59.349H133.587L133.548 59.3064C132.852 58.5528 132.294 57.6931 131.892 56.7508C131.422 55.6472 131.183 54.4756 131.183 53.2679C131.183 52.0602 131.422 50.8885 131.892 49.785C131.941 49.6697 131.994 49.5537 132.048 49.4397L130.998 47.8788V58.8313L129.46 59.8837L129.457 42.8435L132.934 47.9699C133.203 47.6081 133.502 47.2628 133.827 46.941C134.656 46.1193 135.621 45.4745 136.696 45.0237C137.569 44.6574 138.49 44.4319 139.434 44.3526V44.023C137.489 44.1108 135.595 44.5361 133.804 45.2871C133.271 45.5105 132.744 45.7648 132.24 46.0413L132.133 46.0997L131.273 44.8284L131.397 44.7589C131.98 44.4346 132.587 44.139 133.205 43.8808C135.423 42.9503 137.777 42.4785 140.202 42.4785C142.626 42.4785 144.98 42.9503 147.199 43.8808C147.816 44.139 148.424 44.4346 149.006 44.7589L149.131 44.8284L148.27 46.0997L148.164 46.0413C147.659 45.7648 147.132 45.5105 146.599 45.2871C144.81 44.5368 142.916 44.1115 140.969 44.023V44.3526C141.914 44.4319 142.834 44.6574 143.708 45.0237C144.782 45.4745 145.748 46.1193 146.577 46.941C146.901 47.2621 147.201 47.6081 147.47 47.9699L150.946 42.8435Z" fill="black"/>
</g>
<g style="mix-blend-mode:soft-light" opacity="0.4">
<path d="M127.577 66.1348H126.967V63.9596H127.792L128.116 64.8167L128.256 65.3783H128.298L128.448 64.8167L128.736 63.9596H129.561V66.1348H128.951V65.3394L128.986 64.8719H128.944L128.811 65.3719L128.636 65.9075H127.892L127.717 65.3719L127.581 64.8719H127.539L127.577 65.3394V66.1348ZM131.604 66.1672C130.913 66.1672 130.51 65.7257 130.51 65.0472C130.51 64.3687 130.913 63.9272 131.604 63.9272C132.292 63.9272 132.695 64.3687 132.695 65.0472C132.695 65.7257 132.292 66.1672 131.604 66.1672ZM131.604 65.5731C131.939 65.5731 132.039 65.466 132.039 65.0472C132.039 64.6284 131.939 64.5213 131.604 64.5213C131.267 64.5213 131.166 64.6284 131.166 65.0472C131.166 65.466 131.267 65.5731 131.604 65.5731ZM134.958 66.1348H134.117L133.374 63.9596H134.062L134.523 65.453H134.565L135.016 63.9596H135.705L134.958 66.1348ZM138.294 66.1348H136.538V63.9596H138.294V64.5083H137.148V64.7713H138.245V65.3167H137.148V65.5861H138.294V66.1348ZM140.283 66.1672C139.582 66.1672 139.202 65.7257 139.202 65.0472C139.202 64.3687 139.582 63.9272 140.283 63.9272C140.972 63.9272 141.306 64.2843 141.306 64.7907V64.8654H140.654V64.8557C140.654 64.6057 140.572 64.5213 140.27 64.5213C139.959 64.5213 139.858 64.5959 139.858 65.0472C139.858 65.4985 139.959 65.5731 140.27 65.5731C140.572 65.5731 140.654 65.4887 140.654 65.2387V65.229H141.306V65.3037C141.306 65.8101 140.972 66.1672 140.283 66.1672ZM143.321 66.1672C142.629 66.1672 142.227 65.7257 142.227 65.0472C142.227 64.3687 142.629 63.9272 143.321 63.9272C144.009 63.9272 144.411 64.3687 144.411 65.0472C144.411 65.7257 144.009 66.1672 143.321 66.1672ZM143.321 65.5731C143.655 65.5731 143.756 65.466 143.756 65.0472C143.756 64.6284 143.655 64.5213 143.321 64.5213C142.983 64.5213 142.882 64.6284 142.882 65.0472C142.882 65.466 142.983 65.5731 143.321 65.5731ZM145.964 66.1348H145.353V63.9596H145.964V66.1348ZM147.603 66.1348H146.992V63.9596H147.645L148.252 64.9368L148.395 65.203H148.437L148.404 64.9368V63.9596H149.012V66.1348H148.362L147.788 65.229L147.612 64.9206H147.57L147.603 65.229V66.1348ZM150.932 66.1672C150.309 66.1672 149.997 65.875 149.997 65.4205V65.3783H150.598V65.4043C150.598 65.5829 150.663 65.6186 150.955 65.6186C151.185 65.6186 151.234 65.5829 151.234 65.4887C151.234 65.3881 151.202 65.3556 151.052 65.3329L150.578 65.2582C150.137 65.19 149.955 64.9563 149.955 64.6187C149.955 64.2323 150.25 63.9272 150.89 63.9272C151.497 63.9272 151.786 64.2323 151.786 64.6382V64.6933H151.185V64.6544C151.185 64.5278 151.124 64.4758 150.851 64.4758C150.621 64.4758 150.562 64.5148 150.562 64.5959C150.562 64.6641 150.604 64.6933 150.731 64.7161L151.205 64.8005C151.666 64.8816 151.845 65.1219 151.845 65.4595C151.845 65.8393 151.585 66.1672 150.932 66.1672Z" fill="black"/>
</g>
</g>
<g opacity="0.5" filter="url(#filter0_f_1_2)">
<path d="M2.53935 -5.34295C5.91726 -7.79714 10.4913 -7.79714 13.8692 -5.34295L21.6187 0.287369C24.9966 2.74157 26.4101 7.09174 25.1198 11.0627L22.1598 20.1728C20.8695 24.1437 17.1691 26.8323 12.9937 26.8323H3.41486C-0.760473 26.8323 -4.46095 24.1437 -5.7512 20.1728L-8.71123 11.0627C-10.0015 7.09174 -8.58802 2.74157 -5.21011 0.287372L2.53935 -5.34295Z" fill="url(#paint6_linear_1_2)"/>
<path d="M2.63883 -5.51357C5.91655 -7.89497 10.3549 -7.89497 13.6327 -5.51357L21.7154 0.358912C24.9931 2.74032 26.3647 6.96146 25.1127 10.8147L22.0254 20.3165C20.7734 24.1697 17.1827 26.7785 13.1312 26.7785H3.14032C-0.911174 26.7785 -4.5019 24.1697 -5.75387 20.3165L-8.84122 10.8147C-10.0932 6.96147 -8.72167 2.74032 -5.44394 0.358914L2.63883 -5.51357Z" stroke="url(#paint7_linear_1_2)" stroke-width="1.40076"/>
<path d="M2.7212 -4.73322C5.95072 -7.08513 10.3238 -7.08513 13.5533 -4.73322L21.0283 0.710483C24.2578 3.06243 25.6093 7.23147 24.3757 11.0372L21.5205 19.8453C20.2869 23.6509 16.7489 26.2274 12.757 26.2274H3.51745C-0.474361 26.2274 -4.01236 23.6509 -5.24599 19.8453L-8.10118 11.0372C-9.33482 7.23147 -7.98334 3.06243 -4.75378 0.710485L2.7212 -4.73322Z" stroke="url(#paint8_linear_1_2)" stroke-width="0.163896"/>
<path d="M2.76811 -4.59798C5.96975 -6.92913 10.3051 -6.92914 13.5067 -4.59798L20.9086 0.791467C24.1103 3.12265 25.4501 7.25486 24.2271 11.0269L21.3999 19.7472C20.1769 23.5193 16.6694 26.073 12.7121 26.073H3.56276C-0.394617 26.073 -3.90207 23.5193 -5.12503 19.7472L-7.95232 11.0269C-9.1753 7.25487 -7.83551 3.12265 -4.63383 0.79147L2.76811 -4.59798Z" stroke="url(#paint9_linear_1_2)" stroke-width="0.141292"/>
<g style="mix-blend-mode:soft-light" opacity="0.6" clip-path="url(#clip1_1_2)">
<path d="M16.2864 1.74571L16.2844 14.676L15.1279 13.8774V5.56653L14.3372 6.75096C14.3785 6.83798 14.4178 6.92599 14.4546 7.01301C14.8086 7.85037 14.9881 8.73944 14.9881 9.65586C14.9881 10.5723 14.8086 11.4613 14.4546 12.2987C14.1523 13.0137 13.7331 13.6661 13.209 14.2379L13.1797 14.2703H11.4413L11.6675 14.0928C11.846 13.9525 12.0186 13.7994 12.1807 13.6373C13.2443 12.5742 13.83 11.16 13.83 9.65586C13.83 9.05966 13.7386 8.47639 13.5581 7.91799L9.06696 14.6462V12.4852L9.08386 12.4603L12.9758 6.67041C12.751 6.3119 12.4835 5.97725 12.1807 5.67393C11.2648 4.75851 10.0614 4.18569 8.78154 4.05441L8.77806 15.0798L8.20474 15.938L7.63191 15.0798L7.63092 13.2405L7.62794 4.05441C6.34803 4.18569 5.1447 4.75851 4.22878 5.67393C3.92596 5.97725 3.65845 6.31239 3.43369 6.67041L7.34252 12.4852V14.6462L2.85142 7.91799C2.67092 8.47639 2.57992 9.05966 2.57992 9.65586C2.57992 11.16 3.16568 12.5742 4.22878 13.6373C4.39088 13.7989 4.56343 13.952 4.74194 14.0928L4.96818 14.2703H3.22982L3.20048 14.2379C2.67639 13.6661 2.25721 13.0137 1.95489 12.2987C1.60085 11.4613 1.42135 10.5723 1.42135 9.65586C1.42135 8.73944 1.60085 7.85037 1.95489 7.01301C1.99169 6.92549 2.03147 6.83748 2.07224 6.75096L1.28212 5.56653V13.8774L0.125036 14.676L0.123047 1.74571L2.73805 5.63565C2.94043 5.36117 3.16568 5.09912 3.40982 4.85497C4.03337 4.23143 4.75934 3.74214 5.56786 3.40004C6.22472 3.12208 6.91738 2.95103 7.62744 2.89086V2.64075C6.16455 2.70738 4.73945 3.03009 3.39292 3.59993C2.99164 3.76949 2.59534 3.96242 2.21594 4.17226L2.13589 4.21651L1.48897 3.25186L1.58246 3.19916C2.02053 2.95302 2.47749 2.72876 2.94192 2.53285C4.61067 1.82676 6.38135 1.46875 8.20474 1.46875C10.0281 1.46875 11.7988 1.82676 13.4676 2.53285C13.932 2.72876 14.389 2.95302 14.827 3.19916L14.921 3.25186L14.2736 4.21651L14.1935 4.17226C13.8141 3.96242 13.4178 3.76949 13.0166 3.59993C11.671 3.03059 10.2464 2.70788 8.78204 2.64075V2.89086C9.4926 2.95103 10.1848 3.12208 10.8421 3.40004C11.6501 3.74214 12.3761 4.23143 12.9997 4.85497C13.2438 5.09862 13.4691 5.36117 13.6714 5.63565L16.2864 1.74571Z" fill="black"/>
</g>
<g style="mix-blend-mode:soft-light" opacity="0.4">
<path d="M-1.26784 19.1426H-1.74677V17.4357H-1.09971L-0.844958 18.1083L-0.735415 18.549H-0.702297L-0.585112 18.1083L-0.358384 17.4357H0.288683V19.1426H-0.190249V18.5184L-0.162226 18.1516H-0.195344L-0.299791 18.5439L-0.437357 18.9643H-1.02074L-1.1583 18.5439L-1.2653 18.1516H-1.29841L-1.26784 18.5184V19.1426ZM1.89196 19.1681C1.34935 19.1681 1.03346 18.8216 1.03346 18.2892C1.03346 17.7567 1.34935 17.4103 1.89196 17.4103C2.43204 17.4103 2.74793 17.7567 2.74793 18.2892C2.74793 18.8216 2.43204 19.1681 1.89196 19.1681ZM1.89196 18.7019C2.15436 18.7019 2.23333 18.6178 2.23333 18.2892C2.23333 17.9605 2.15436 17.8765 1.89196 17.8765C1.62702 17.8765 1.54805 17.9605 1.54805 18.2892C1.54805 18.6178 1.62702 18.7019 1.89196 18.7019ZM4.52358 19.1426H3.86378L3.2804 17.4357H3.82047L4.18222 18.6076H4.21534L4.56944 17.4357H5.10951L4.52358 19.1426ZM7.14139 19.1426H5.76319V17.4357H7.14139V17.8663H6.24212V18.0726H7.10318V18.5006H6.24212V18.712H7.14139V19.1426ZM8.70262 19.1681C8.15236 19.1681 7.8543 18.8216 7.8543 18.2892C7.8543 17.7567 8.15236 17.4103 8.70262 17.4103C9.24269 17.4103 9.50508 17.6905 9.50508 18.0879V18.1465H8.99303V18.1389C8.99303 17.9427 8.92935 17.8765 8.69243 17.8765C8.44787 17.8765 8.36889 17.9351 8.36889 18.2892C8.36889 18.6433 8.44787 18.7019 8.69243 18.7019C8.92935 18.7019 8.99303 18.6356 8.99303 18.4395V18.4318H9.50508V18.4904C9.50508 18.8878 9.24269 19.1681 8.70262 19.1681ZM11.0859 19.1681C10.5433 19.1681 10.2274 18.8216 10.2274 18.2892C10.2274 17.7567 10.5433 17.4103 11.0859 17.4103C11.626 17.4103 11.9419 17.7567 11.9419 18.2892C11.9419 18.8216 11.626 19.1681 11.0859 19.1681ZM11.0859 18.7019C11.3483 18.7019 11.4273 18.6178 11.4273 18.2892C11.4273 17.9605 11.3483 17.8765 11.0859 17.8765C10.821 17.8765 10.742 17.9605 10.742 18.2892C10.742 18.6178 10.821 18.7019 11.0859 18.7019ZM13.16 19.1426H12.6811V17.4357H13.16V19.1426ZM14.4459 19.1426H13.967V17.4357H14.4791L14.9554 18.2025L15.0675 18.4114H15.1007L15.0752 18.2025V17.4357H15.5516V19.1426H15.0421L14.5912 18.4318L14.4536 18.1898H14.4205L14.4459 18.4318V19.1426ZM17.0588 19.1681C16.5697 19.1681 16.3251 18.9388 16.3251 18.5821V18.549H16.7964V18.5694C16.7964 18.7095 16.8473 18.7375 17.0766 18.7375C17.2575 18.7375 17.2957 18.7095 17.2957 18.6356C17.2957 18.5567 17.2702 18.5312 17.153 18.5133L16.7811 18.4548C16.4346 18.4013 16.292 18.2178 16.292 17.9529C16.292 17.6497 16.5238 17.4103 17.0257 17.4103C17.502 17.4103 17.7288 17.6497 17.7288 17.9682V18.0115H17.2575V17.9809C17.2575 17.8816 17.2091 17.8408 16.9951 17.8408C16.8142 17.8408 16.7684 17.8714 16.7684 17.9351C16.7684 17.9886 16.8015 18.0115 16.9008 18.0293L17.2728 18.0956C17.6345 18.1592 17.7746 18.3478 17.7746 18.6127C17.7746 18.9108 17.5708 19.1681 17.0588 19.1681Z" fill="black"/>
</g>
</g>
<g opacity="0.2" filter="url(#filter1_f_1_2)">
<path d="M21.7288 34.6047C27.5824 30.3518 35.5088 30.3518 41.3624 34.6047L54.7914 44.3615C60.645 48.6144 63.0944 56.1528 60.8585 63.0341L55.7291 78.8209C53.4932 85.7023 47.0807 90.3613 39.8452 90.3613H23.246C16.0105 90.3613 9.59795 85.7023 7.36207 78.821L2.23262 63.0341C-0.00325227 56.1528 2.44613 48.6144 8.29972 44.3615L21.7288 34.6047Z" fill="url(#paint10_linear_1_2)"/>
<path d="M21.9019 34.3088C27.5818 30.182 35.2731 30.182 40.9531 34.3087L54.9598 44.4852C60.6397 48.6119 63.0165 55.9268 60.8469 62.604L55.4969 79.0698C53.3273 85.747 47.1049 90.2678 40.0841 90.2678H22.7709C15.7501 90.2678 9.52768 85.747 7.35813 79.0698L2.00805 62.604C-0.161504 55.9268 2.21523 48.6119 7.8952 44.4852L21.9019 34.3088Z" stroke="url(#paint11_linear_1_2)" stroke-width="2.42738"/>
<path d="M22.046 35.6597C27.6424 31.584 35.2205 31.584 40.8169 35.6597L53.7704 45.0931C59.3669 49.1688 61.7089 56.3933 59.5711 62.9882L54.6233 78.2518C52.4856 84.8467 46.3545 89.3114 39.4371 89.3114H23.4258C16.5084 89.3114 10.3774 84.8467 8.23961 78.2518L3.29184 62.9882C1.15407 56.3933 3.49604 49.1688 9.09256 45.0931L22.046 35.6597Z" stroke="url(#paint12_linear_1_2)" stroke-width="0.284016"/>
<path d="M22.1262 35.8973C27.6743 31.8576 35.187 31.8576 40.7351 35.8973L53.562 45.2367C59.1102 49.2764 61.4319 56.4371 59.3126 62.9737L54.4132 78.0852C52.2939 84.6218 46.2158 89.0472 39.3581 89.0472H23.5032C16.6455 89.0472 10.5674 84.6218 8.44811 78.0852L3.5487 62.9738C1.4294 56.4371 3.75112 49.2764 9.29932 45.2367L22.1262 35.8973Z" stroke="url(#paint13_linear_1_2)" stroke-width="0.244846"/>
<g style="mix-blend-mode:soft-light" opacity="0.6" clip-path="url(#clip2_1_2)">
<path d="M45.5506 46.8882L45.5472 69.2951L43.5429 67.9113V53.5093L42.1728 55.5618C42.2444 55.7126 42.3124 55.8651 42.3762 56.0159C42.9897 57.4669 43.3008 59.0076 43.3008 60.5957C43.3008 62.1837 42.9897 63.7244 42.3762 65.1755C41.8523 66.4146 41.1259 67.5451 40.2177 68.536L40.1669 68.592H37.1544L37.5465 68.2844C37.8558 68.0414 38.1549 67.776 38.4358 67.4951C40.2789 65.6528 41.2939 63.2022 41.2939 60.5957C41.2939 59.5625 41.1354 58.5518 40.8226 57.5841L33.04 69.2434V65.4986L33.0692 65.4555L39.8136 55.4222C39.4241 54.8009 38.9605 54.221 38.4358 53.6954C36.8486 52.109 34.7633 51.1164 32.5454 50.8889L32.5393 69.9948L31.5458 71.4821L30.5532 69.9948L30.5514 66.8075L30.5463 50.8889C28.3283 51.1164 26.2431 52.109 24.6559 53.6954C24.1311 54.221 23.6675 54.8018 23.278 55.4222L30.0517 65.4986V69.2434L22.269 57.5841C21.9562 58.5518 21.7985 59.5625 21.7985 60.5957C21.7985 63.2022 22.8136 65.6528 24.6559 67.4951C24.9368 67.7751 25.2358 68.0405 25.5451 68.2844L25.9372 68.592H22.9248L22.8739 68.536C21.9657 67.5451 21.2393 66.4146 20.7154 65.1755C20.1019 63.7244 19.7908 62.1837 19.7908 60.5957C19.7908 59.0076 20.1019 57.4669 20.7154 56.0159C20.7792 55.8642 20.8481 55.7117 20.9188 55.5618L19.5496 53.5093V67.9113L17.5445 69.2951L17.541 46.8882L22.0726 53.629C22.4233 53.1534 22.8136 52.6993 23.2367 52.2762C24.3172 51.1957 25.5753 50.3478 26.9763 49.7549C28.1146 49.2733 29.3149 48.9769 30.5454 48.8726V48.4392C28.0104 48.5546 25.5408 49.1139 23.2074 50.1013C22.512 50.3952 21.8253 50.7295 21.1678 51.0931L21.0291 51.1698L19.908 49.4982L20.07 49.4068C20.8292 48.9803 21.621 48.5917 22.4258 48.2522C25.3176 47.0286 28.386 46.4082 31.5458 46.4082C34.7056 46.4082 37.774 47.0286 40.6658 48.2522C41.4706 48.5917 42.2624 48.9803 43.0216 49.4068L43.1844 49.4982L42.0625 51.1698L41.9238 51.0931C41.2664 50.7295 40.5796 50.3952 39.8842 50.1013C37.5525 49.1147 35.0838 48.5555 32.5462 48.4392V48.8726C33.7775 48.9769 34.977 49.2733 36.1161 49.7549C37.5163 50.3478 38.7744 51.1957 39.8549 52.2762C40.278 52.6984 40.6684 53.1534 41.0191 53.629L45.5506 46.8882Z" fill="black"/>
</g>
<g style="mix-blend-mode:soft-light" opacity="0.4">
<path d="M15.1309 77.5703H14.301V74.6125H15.4223L15.8638 75.778L16.0536 76.5417H16.111L16.314 75.778L16.7069 74.6125H17.8282V77.5703H16.9983V76.4887L17.0469 75.853H16.9895L16.8085 76.5329L16.5701 77.2613H15.5592L15.3208 76.5329L15.1354 75.853H15.078L15.1309 76.4887V77.5703ZM20.6066 77.6145C19.6663 77.6145 19.1189 77.0141 19.1189 76.0914C19.1189 75.1688 19.6663 74.5684 20.6066 74.5684C21.5425 74.5684 22.0899 75.1688 22.0899 76.0914C22.0899 77.0141 21.5425 77.6145 20.6066 77.6145ZM20.6066 76.8066C21.0613 76.8066 21.1981 76.6609 21.1981 76.0914C21.1981 75.5219 21.0613 75.3763 20.6066 75.3763C20.1475 75.3763 20.0106 75.5219 20.0106 76.0914C20.0106 76.6609 20.1475 76.8066 20.6066 76.8066ZM25.1669 77.5703H24.0235L23.0126 74.6125H23.9485L24.5754 76.6433H24.6328L25.2464 74.6125H26.1823L25.1669 77.5703ZM29.7033 77.5703H27.315V74.6125H29.7033V75.3586H28.145V75.7162H29.6371V76.4578H28.145V76.8242H29.7033V77.5703ZM32.4088 77.6145C31.4552 77.6145 30.9387 77.0141 30.9387 76.0914C30.9387 75.1688 31.4552 74.5684 32.4088 74.5684C33.3447 74.5684 33.7994 75.054 33.7994 75.7427V75.8442H32.912V75.831C32.912 75.491 32.8017 75.3763 32.3911 75.3763C31.9673 75.3763 31.8305 75.4778 31.8305 76.0914C31.8305 76.7051 31.9673 76.8066 32.3911 76.8066C32.8017 76.8066 32.912 76.6918 32.912 76.3519V76.3386H33.7994V76.4402C33.7994 77.1289 33.3447 77.6145 32.4088 77.6145ZM36.5388 77.6145C35.5985 77.6145 35.0511 77.0141 35.0511 76.0914C35.0511 75.1688 35.5985 74.5684 36.5388 74.5684C37.4747 74.5684 38.0221 75.1688 38.0221 76.0914C38.0221 77.0141 37.4747 77.6145 36.5388 77.6145ZM36.5388 76.8066C36.9935 76.8066 37.1304 76.6609 37.1304 76.0914C37.1304 75.5219 36.9935 75.3763 36.5388 75.3763C36.0797 75.3763 35.9429 75.5219 35.9429 76.0914C35.9429 76.6609 36.0797 76.8066 36.5388 76.8066ZM40.133 77.5703H39.303V74.6125H40.133V77.5703ZM42.3614 77.5703H41.5315V74.6125H42.4188L43.2443 75.9413L43.4386 76.3033H43.496L43.4518 75.9413V74.6125H44.2773V77.5703H43.3944L42.613 76.3386L42.3747 75.9193H42.3173L42.3614 76.3386V77.5703ZM46.8892 77.6145C46.0416 77.6145 45.6178 77.2171 45.6178 76.5991V76.5417H46.4345V76.577C46.4345 76.8198 46.5228 76.8684 46.9201 76.8684C47.2335 76.8684 47.2998 76.8198 47.2998 76.6918C47.2998 76.555 47.2556 76.5108 47.0525 76.4799L46.408 76.3784C45.8076 76.2857 45.5604 75.9678 45.5604 75.5087C45.5604 74.9834 45.9621 74.5684 46.8318 74.5684C47.6573 74.5684 48.0502 74.9834 48.0502 75.5352V75.6102H47.2335V75.5573C47.2335 75.3851 47.1497 75.3145 46.7788 75.3145C46.4654 75.3145 46.3859 75.3674 46.3859 75.4778C46.3859 75.5705 46.4433 75.6102 46.6155 75.6411L47.26 75.7559C47.8869 75.8663 48.1297 76.193 48.1297 76.6521C48.1297 77.1686 47.7765 77.6145 46.8892 77.6145Z" fill="black"/>
</g>
</g>
<g opacity="0.5" filter="url(#filter2_f_1_2)">
<path d="M89.6679 7.47346C92.8111 5.18984 97.0672 5.18984 100.21 7.47346L107.421 12.7124C110.564 14.9961 111.88 19.0439 110.679 22.7389L107.925 31.2157C106.724 34.9107 103.281 37.4124 99.3957 37.4124H90.4826C86.5974 37.4124 83.1542 34.9107 81.9536 31.2157L79.1993 22.7389C77.9987 19.0439 79.3139 14.9961 82.4571 12.7124L89.6679 7.47346Z" fill="url(#paint14_linear_1_2)"/>
<path d="M89.7604 7.31362C92.8103 5.09773 96.9402 5.09773 99.9901 7.31362L107.511 12.7779C110.561 14.9938 111.837 18.9216 110.672 22.507L107.799 31.3484C106.635 34.9338 103.293 37.3613 99.5235 37.3613H90.227C86.4571 37.3613 83.116 34.9338 81.951 31.3484L79.0782 22.507C77.9133 18.9216 79.1895 14.9938 82.2394 12.7779L89.7604 7.31362Z" stroke="url(#paint15_linear_1_2)" stroke-width="1.3034"/>
<path d="M89.8382 8.03888C92.8432 5.85043 96.9123 5.85043 99.9174 8.03888L106.873 13.1042C109.878 15.2927 111.135 19.172 109.988 22.7132L107.331 30.9091C106.183 34.4502 102.891 36.8476 99.1765 36.8476H90.5791C86.8647 36.8476 83.5726 34.4502 82.4247 30.9091L79.768 22.7132C78.6201 19.172 79.8776 15.2927 82.8827 13.1042L89.8382 8.03888Z" stroke="url(#paint16_linear_1_2)" stroke-width="0.152505"/>
<path d="M89.8815 8.16622C92.8606 5.99709 96.8946 5.99708 99.8737 8.16622L106.761 13.1811C109.74 15.3502 110.987 19.1952 109.849 22.7051L107.218 30.8194C106.08 34.3292 102.817 36.7055 99.1343 36.7055H90.6209C86.9386 36.7055 83.6749 34.3292 82.537 30.8194L79.9062 22.7051C78.7682 19.1952 80.0149 15.3502 82.994 13.1811L89.8815 8.16622Z" stroke="url(#paint17_linear_1_2)" stroke-width="0.131472"/>
<g style="mix-blend-mode:soft-light" opacity="0.6" clip-path="url(#clip3_1_2)">
<path d="M102.458 14.0683L102.456 26.0999L101.38 25.3568V17.6235L100.644 18.7256C100.683 18.8066 100.719 18.8885 100.753 18.9695C101.083 19.7486 101.25 20.5759 101.25 21.4286C101.25 22.2813 101.083 23.1086 100.753 23.8878C100.472 24.5531 100.082 25.1602 99.5944 25.6922L99.5671 25.7223H97.9496L98.1601 25.5571C98.3262 25.4267 98.4867 25.2842 98.6376 25.1333C99.6272 24.1441 100.172 22.8282 100.172 21.4286C100.172 20.8739 100.087 20.3311 99.9192 19.8115L95.7402 26.0721V24.0613L95.756 24.0382L99.3774 18.6507C99.1683 18.3171 98.9193 18.0057 98.6376 17.7235C97.7853 16.8717 96.6656 16.3386 95.4747 16.2165L95.4714 26.4756L94.938 27.2742L94.4049 26.4756L94.404 24.7641L94.4012 16.2165C93.2103 16.3386 92.0906 16.8717 91.2383 17.7235C90.9566 18.0057 90.7076 18.3175 90.4985 18.6507L94.1357 24.0613V26.0721L89.9567 19.8115C89.7888 20.3311 89.7041 20.8739 89.7041 21.4286C89.7041 22.8282 90.2491 24.1441 91.2383 25.1333C91.3892 25.2837 91.5497 25.4262 91.7158 25.5571L91.9264 25.7223H90.3088L90.2815 25.6922C89.7938 25.1602 89.4038 24.5531 89.1225 23.8878C88.7931 23.1086 88.626 22.2813 88.626 21.4286C88.626 20.5759 88.7931 19.7486 89.1225 18.9695C89.1567 18.888 89.1937 18.8061 89.2317 18.7256L88.4965 17.6235V25.3568L87.4198 26.0999L87.418 14.0683L89.8512 17.6878C90.0395 17.4324 90.2491 17.1886 90.4763 16.9614C91.0565 16.3812 91.732 15.9259 92.4843 15.6076C93.0956 15.349 93.7401 15.1898 94.4008 15.1338V14.9011C93.0396 14.9631 91.7135 15.2634 90.4606 15.7936C90.0872 15.9514 89.7184 16.1309 89.3654 16.3262L89.2909 16.3673L88.689 15.4697L88.7759 15.4207C89.1836 15.1917 89.6088 14.983 90.0409 14.8007C91.5937 14.1437 93.2413 13.8105 94.938 13.8105C96.6346 13.8105 98.2822 14.1437 99.835 14.8007C100.267 14.983 100.692 15.1917 101.1 15.4207L101.187 15.4697L100.585 16.3673L100.511 16.3262C100.157 16.1309 99.7887 15.9514 99.4153 15.7936C98.1633 15.2638 96.8377 14.9636 95.4751 14.9011V15.1338C96.1363 15.1898 96.7804 15.349 97.392 15.6076C98.1439 15.9259 98.8194 16.3812 99.3996 16.9614C99.6268 17.1881 99.8364 17.4324 100.025 17.6878L102.458 14.0683Z" fill="black"/>
</g>
<g style="mix-blend-mode:soft-light" opacity="0.4">
<path d="M86.1243 30.3955H85.6787V28.8073H86.2808L86.5178 29.4331L86.6197 29.8432H86.6506L86.7596 29.4331L86.9706 28.8073H87.5727V30.3955H87.127V29.8147L87.1531 29.4734H87.1223L87.0251 29.8385L86.8971 30.2296H86.3542L86.2262 29.8385L86.1267 29.4734H86.0959L86.1243 29.8147V30.3955ZM89.0645 30.4192C88.5596 30.4192 88.2657 30.0968 88.2657 29.6014C88.2657 29.106 88.5596 28.7836 89.0645 28.7836C89.567 28.7836 89.861 29.106 89.861 29.6014C89.861 30.0968 89.567 30.4192 89.0645 30.4192ZM89.0645 29.9854C89.3087 29.9854 89.3821 29.9072 89.3821 29.6014C89.3821 29.2956 89.3087 29.2174 89.0645 29.2174C88.818 29.2174 88.7445 29.2956 88.7445 29.6014C88.7445 29.9072 88.818 29.9854 89.0645 29.9854ZM91.5132 30.3955H90.8993L90.3564 28.8073H90.859L91.1956 29.8977H91.2264L91.5559 28.8073H92.0584L91.5132 30.3955ZM93.9491 30.3955H92.6667V28.8073H93.9491V29.2079H93.1123V29.3999H93.9135V29.7982H93.1123V29.9949H93.9491V30.3955ZM95.4018 30.4192C94.8898 30.4192 94.6124 30.0968 94.6124 29.6014C94.6124 29.106 94.8898 28.7836 95.4018 28.7836C95.9043 28.7836 96.1485 29.0444 96.1485 29.4141V29.4687H95.672V29.4616C95.672 29.279 95.6128 29.2174 95.3923 29.2174C95.1647 29.2174 95.0913 29.2719 95.0913 29.6014C95.0913 29.9309 95.1647 29.9854 95.3923 29.9854C95.6128 29.9854 95.672 29.9238 95.672 29.7413V29.7342H96.1485V29.7887C96.1485 30.1585 95.9043 30.4192 95.4018 30.4192ZM97.6195 30.4192C97.1146 30.4192 96.8206 30.0968 96.8206 29.6014C96.8206 29.106 97.1146 28.7836 97.6195 28.7836C98.122 28.7836 98.4159 29.106 98.4159 29.6014C98.4159 30.0968 98.122 30.4192 97.6195 30.4192ZM97.6195 29.9854C97.8636 29.9854 97.9371 29.9072 97.9371 29.6014C97.9371 29.2956 97.8636 29.2174 97.6195 29.2174C97.3729 29.2174 97.2995 29.2956 97.2995 29.6014C97.2995 29.9072 97.3729 29.9854 97.6195 29.9854ZM99.5494 30.3955H99.1037V28.8073H99.5494V30.3955ZM100.746 30.3955H100.3V28.8073H100.777L101.22 29.5208L101.324 29.7152H101.355L101.331 29.5208V28.8073H101.775V30.3955H101.301L100.881 29.7342L100.753 29.509H100.722L100.746 29.7342V30.3955ZM103.177 30.4192C102.722 30.4192 102.494 30.2059 102.494 29.874V29.8432H102.933V29.8622C102.933 29.9925 102.98 30.0186 103.194 30.0186C103.362 30.0186 103.398 29.9925 103.398 29.9238C103.398 29.8503 103.374 29.8266 103.265 29.81L102.919 29.7555C102.596 29.7057 102.464 29.535 102.464 29.2885C102.464 29.0064 102.679 28.7836 103.146 28.7836C103.59 28.7836 103.801 29.0064 103.801 29.3027V29.343H103.362V29.3146C103.362 29.2221 103.317 29.1842 103.118 29.1842C102.95 29.1842 102.907 29.2127 102.907 29.2719C102.907 29.3217 102.938 29.343 103.03 29.3596L103.376 29.4213C103.713 29.4805 103.843 29.6559 103.843 29.9025C103.843 30.1798 103.654 30.4192 103.177 30.4192Z" fill="black"/>
</g>
</g>
<defs>
<filter id="filter0_f_1_2" x="-14" y="-12" width="44.2715" height="43.4785" filterUnits="userSpaceOnUse" color-interpolation-filters="sRGB">
<feFlood flood-opacity="0" result="BackgroundImageFix"/>
<feBlend mode="normal" in="SourceGraphic" in2="BackgroundImageFix" result="shape"/>
<feGaussianBlur stdDeviation="2" result="effect1_foregroundBlur_1_2"/>
</filter>
<filter id="filter1_f_1_2" x="-1.5" y="28.5" width="65.8555" height="64.4814" filterUnits="userSpaceOnUse" color-interpolation-filters="sRGB">
<feFlood flood-opacity="0" result="BackgroundImageFix"/>
<feBlend mode="normal" in="SourceGraphic" in2="BackgroundImageFix" result="shape"/>
<feGaussianBlur stdDeviation="0.75" result="effect1_foregroundBlur_1_2"/>
</filter>
<filter id="filter2_f_1_2" x="75.5" y="2.5" width="38.75" height="38.0127" filterUnits="userSpaceOnUse" color-interpolation-filters="sRGB">
<feFlood flood-opacity="0" result="BackgroundImageFix"/>
<feBlend mode="normal" in="SourceGraphic" in2="BackgroundImageFix" result="shape"/>
<feGaussianBlur stdDeviation="1.25" result="effect1_foregroundBlur_1_2"/>
</filter>
<linearGradient id="paint0_linear_1_2" x1="85.5" y1="0" x2="85.5" y2="104" gradientUnits="userSpaceOnUse">
<stop stop-color="#171717"/>
<stop offset="1" stop-color="#0F0F0F"/>
</linearGradient>
<linearGradient id="paint1_linear_1_2" x1="85.5" y1="0" x2="85.5" y2="104" gradientUnits="userSpaceOnUse">
<stop stop-color="#383838"/>
<stop offset="1" stop-color="#181818"/>
</linearGradient>
<linearGradient id="paint2_linear_1_2" x1="125.569" y1="72.4518" x2="163.158" y2="44.1649" gradientUnits="userSpaceOnUse">
<stop stop-color="#513E61"/>
<stop offset="0.442708" stop-color="#9274AA"/>
<stop offset="1" stop-color="#EBD2FF"/>
</linearGradient>
<linearGradient id="paint3_linear_1_2" x1="115.483" y1="70.7444" x2="160.729" y2="39.0534" gradientUnits="userSpaceOnUse">
<stop stop-color="#061116"/>
<stop offset="0.189073" stop-color="#4B5358"/>
<stop offset="0.517162" stop-color="#767A7D"/>
<stop offset="0.646318" stop-color="#E7F3F9"/>
<stop offset="1" stop-color="#2D363A"/>
</linearGradient>
<linearGradient id="paint4_linear_1_2" x1="120.542" y1="34.7615" x2="158.257" y2="76.2882" gradientUnits="userSpaceOnUse">
<stop stop-color="#D1D1D1"/>
<stop offset="1" stop-color="white"/>
</linearGradient>
<linearGradient id="paint5_linear_1_2" x1="123.553" y1="30.3793" x2="158.321" y2="80.573" gradientUnits="userSpaceOnUse">
<stop stop-color="#424242"/>
<stop offset="1" stop-color="#8E8E8E"/>
</linearGradient>
<linearGradient id="paint6_linear_1_2" x1="-2.80299" y1="24.2128" x2="25.6492" y2="2.98896" gradientUnits="userSpaceOnUse">
<stop stop-color="#513E61"/>
<stop offset="0.442708" stop-color="#9274AA"/>
<stop offset="1" stop-color="#EBD2FF"/>
</linearGradient>
<linearGradient id="paint7_linear_1_2" x1="-10.3886" y1="22.9173" x2="23.8403" y2="-0.846947" gradientUnits="userSpaceOnUse">
<stop stop-color="#061116"/>
<stop offset="0.189073" stop-color="#4B5358"/>
<stop offset="0.517162" stop-color="#767A7D"/>
<stop offset="0.646318" stop-color="#E7F3F9"/>
<stop offset="1" stop-color="#2D363A"/>
</linearGradient>
<linearGradient id="paint8_linear_1_2" x1="-6.58485" y1="-4.38654" x2="22.0574" y2="26.8734" gradientUnits="userSpaceOnUse">
<stop stop-color="#D1D1D1"/>
<stop offset="1" stop-color="white"/>
</linearGradient>
<linearGradient id="paint9_linear_1_2" x1="-4.31868" y1="-7.71202" x2="22.1446" y2="30.1574" gradientUnits="userSpaceOnUse">
<stop stop-color="#424242"/>
<stop offset="1" stop-color="#8E8E8E"/>
</linearGradient>
<linearGradient id="paint10_linear_1_2" x1="12.471" y1="85.8219" x2="61.776" y2="49.0431" gradientUnits="userSpaceOnUse">
<stop stop-color="#513E61"/>
<stop offset="0.442708" stop-color="#9274AA"/>
<stop offset="1" stop-color="#EBD2FF"/>
</linearGradient>
<linearGradient id="paint11_linear_1_2" x1="-0.673446" y1="83.5768" x2="58.642" y2="42.3956" gradientUnits="userSpaceOnUse">
<stop stop-color="#061116"/>
<stop offset="0.189073" stop-color="#4B5358"/>
<stop offset="0.517162" stop-color="#767A7D"/>
<stop offset="0.646318" stop-color="#E7F3F9"/>
<stop offset="1" stop-color="#2D363A"/>
</linearGradient>
<linearGradient id="paint12_linear_1_2" x1="5.91949" y1="36.2604" x2="55.5537" y2="90.4309" gradientUnits="userSpaceOnUse">
<stop stop-color="#D1D1D1"/>
<stop offset="1" stop-color="white"/>
</linearGradient>
<linearGradient id="paint13_linear_1_2" x1="9.84545" y1="30.501" x2="55.7037" y2="96.1251" gradientUnits="userSpaceOnUse">
<stop stop-color="#424242"/>
<stop offset="1" stop-color="#8E8E8E"/>
</linearGradient>
<linearGradient id="paint14_linear_1_2" x1="84.6969" y1="34.9749" x2="111.172" y2="15.2263" gradientUnits="userSpaceOnUse">
<stop stop-color="#513E61"/>
<stop offset="0.442708" stop-color="#9274AA"/>
<stop offset="1" stop-color="#EBD2FF"/>
</linearGradient>
<linearGradient id="paint15_linear_1_2" x1="77.6384" y1="33.7685" x2="109.488" y2="11.6559" gradientUnits="userSpaceOnUse">
<stop stop-color="#061116"/>
<stop offset="0.189073" stop-color="#4B5358"/>
<stop offset="0.517162" stop-color="#767A7D"/>
<stop offset="0.646318" stop-color="#E7F3F9"/>
<stop offset="1" stop-color="#2D363A"/>
</linearGradient>
<linearGradient id="paint16_linear_1_2" x1="81.1789" y1="8.36146" x2="107.83" y2="37.4487" gradientUnits="userSpaceOnUse">
<stop stop-color="#D1D1D1"/>
<stop offset="1" stop-color="white"/>
</linearGradient>
<linearGradient id="paint17_linear_1_2" x1="83.2873" y1="5.26862" x2="107.911" y2="40.506" gradientUnits="userSpaceOnUse">
<stop stop-color="#424242"/>
<stop offset="1" stop-color="#8E8E8E"/>
</linearGradient>
<clipPath id="clip0_1_2">
<rect width="21.4893" height="19.0683" fill="white" transform="translate(129.457 42.4785)"/>
</clipPath>
<clipPath id="clip1_1_2">
<rect width="16.1634" height="14.4693" fill="white" transform="translate(0.123047 1.46875)"/>
</clipPath>
<clipPath id="clip2_1_2">
<rect width="28.0096" height="25.0739" fill="white" transform="translate(17.541 46.4082)"/>
</clipPath>
<clipPath id="clip3_1_2">
<rect width="15.04" height="13.4636" fill="white" transform="translate(87.418 13.8105)"/>
</clipPath>
</defs>
</svg>
