<svg width="40" height="44" viewBox="0 0 40 44" fill="none" xmlns="http://www.w3.org/2000/svg">
<path fill-rule="evenodd" clip-rule="evenodd" d="M27.7157 42.3922C25.304 43.4379 22.7321 43.9607 20 43.9607C17.268 43.9607 14.6961 43.4379 12.2843 42.3922C9.87255 41.3464 7.7451 39.9019 5.90195 38.0589C4.05882 36.2157 2.61438 34.0882 1.56863 31.6765C0.522876 29.2647 0 26.6928 0 23.9608C0 21.2288 0.522876 18.6569 1.56863 16.2451C2.61438 13.8333 4.05556 11.7059 5.89216 9.86275C7.72876 8.01961 9.85294 6.57517 12.2647 5.52942C14.0496 4.7555 15.9221 4.26796 17.8824 4.06678V2.15687C17.8824 1.56863 18.0882 1.06209 18.5 0.637255C18.9118 0.212418 19.4052 0 19.9804 0C20.5686 0 21.0654 0.212418 21.4707 0.637255C21.8759 1.06209 22.0784 1.56863 22.0784 2.15687V4.06672C24.0402 4.26785 25.916 4.75542 27.7058 5.52942C29.6134 6.35428 31.3419 7.42718 32.8916 8.74813L34.3725 7.29411C34.817 6.86275 35.353 6.64707 35.9803 6.64707C36.5555 6.64707 37.0359 6.83987 37.4216 7.22548C37.8072 7.61111 38 8.07844 38 8.62746C38 9.21569 37.7647 9.7451 37.2941 10.2157L35.777 11.7604C36.8425 13.1264 37.7273 14.6213 38.4313 16.2451C39.4771 18.6569 40 21.2288 40 23.9608C40 26.6928 39.4771 29.2647 38.4313 31.6765C37.3856 34.0882 35.9412 36.2157 34.098 38.0589C32.2549 39.9019 30.1275 41.3464 27.7157 42.3922ZM13.5098 39.3332C15.5229 40.1961 17.6863 40.6275 20 40.6275C22.3138 40.6275 24.4804 40.1961 26.4999 39.3332C28.5195 38.4705 30.2908 37.2778 31.8137 35.7549C33.3366 34.232 34.5261 32.464 35.3824 30.451C36.2386 28.4379 36.6666 26.2745 36.6666 23.9608C36.6666 21.6471 36.2353 19.4837 35.3726 17.4706C34.5099 15.4575 33.3138 13.6863 31.7844 12.1569C30.2549 10.6275 28.4837 9.43464 26.4706 8.57843C24.4575 7.72222 22.2941 7.29411 19.9804 7.29411C17.6667 7.29411 15.5033 7.72222 13.4902 8.57843C11.4771 9.43464 9.71241 10.6275 8.19608 12.1569C6.67974 13.6863 5.49347 15.4575 4.63725 17.4706C3.78104 19.4837 3.35294 21.6471 3.35294 23.9608C3.35294 26.2745 3.78104 28.4379 4.63725 30.451C5.49347 32.464 6.683 34.232 8.20587 35.7549C9.72875 37.2778 11.4967 38.4705 13.5098 39.3332ZM22.2353 26.2156C21.6209 26.83 20.8758 27.1372 20 27.1372C19.1111 27.1372 18.3628 26.8268 17.7549 26.206C17.1471 25.585 16.8431 24.8432 16.8431 23.9805C16.8431 23.3661 17.0065 22.8072 17.3333 22.3039C17.6601 21.8006 18.0915 21.4052 18.6274 21.1177V11.3922C18.6274 11.0131 18.7582 10.6928 19.0196 10.4314C19.2811 10.1699 19.6013 10.0392 19.9804 10.0392C20.3725 10.0392 20.6993 10.1699 20.9609 10.4314C21.2223 10.6928 21.353 11.0131 21.353 11.3922V21.1372C21.902 21.3987 22.3399 21.7811 22.6667 22.2842C22.9935 22.7875 23.1569 23.353 23.1569 23.9805C23.1569 24.8563 22.8497 25.6013 22.2353 26.2156Z" fill="white" fill-opacity="0.23" style="mix-blend-mode:lighten"/>
<path fill-rule="evenodd" clip-rule="evenodd" d="M27.7157 42.3922C25.304 43.4379 22.7321 43.9607 20 43.9607C17.268 43.9607 14.6961 43.4379 12.2843 42.3922C9.87255 41.3464 7.7451 39.9019 5.90195 38.0589C4.05882 36.2157 2.61438 34.0882 1.56863 31.6765C0.522876 29.2647 0 26.6928 0 23.9608C0 21.2288 0.522876 18.6569 1.56863 16.2451C2.61438 13.8333 4.05556 11.7059 5.89216 9.86275C7.72876 8.01961 9.85294 6.57517 12.2647 5.52942C14.0496 4.7555 15.9221 4.26796 17.8824 4.06678V2.15687C17.8824 1.56863 18.0882 1.06209 18.5 0.637255C18.9118 0.212418 19.4052 0 19.9804 0C20.5686 0 21.0654 0.212418 21.4707 0.637255C21.8759 1.06209 22.0784 1.56863 22.0784 2.15687V4.06672C24.0402 4.26785 25.916 4.75542 27.7058 5.52942C29.6134 6.35428 31.3419 7.42718 32.8916 8.74813L34.3725 7.29411C34.817 6.86275 35.353 6.64707 35.9803 6.64707C36.5555 6.64707 37.0359 6.83987 37.4216 7.22548C37.8072 7.61111 38 8.07844 38 8.62746C38 9.21569 37.7647 9.7451 37.2941 10.2157L35.777 11.7604C36.8425 13.1264 37.7273 14.6213 38.4313 16.2451C39.4771 18.6569 40 21.2288 40 23.9608C40 26.6928 39.4771 29.2647 38.4313 31.6765C37.3856 34.0882 35.9412 36.2157 34.098 38.0589C32.2549 39.9019 30.1275 41.3464 27.7157 42.3922ZM13.5098 39.3332C15.5229 40.1961 17.6863 40.6275 20 40.6275C22.3138 40.6275 24.4804 40.1961 26.4999 39.3332C28.5195 38.4705 30.2908 37.2778 31.8137 35.7549C33.3366 34.232 34.5261 32.464 35.3824 30.451C36.2386 28.4379 36.6666 26.2745 36.6666 23.9608C36.6666 21.6471 36.2353 19.4837 35.3726 17.4706C34.5099 15.4575 33.3138 13.6863 31.7844 12.1569C30.2549 10.6275 28.4837 9.43464 26.4706 8.57843C24.4575 7.72222 22.2941 7.29411 19.9804 7.29411C17.6667 7.29411 15.5033 7.72222 13.4902 8.57843C11.4771 9.43464 9.71241 10.6275 8.19608 12.1569C6.67974 13.6863 5.49347 15.4575 4.63725 17.4706C3.78104 19.4837 3.35294 21.6471 3.35294 23.9608C3.35294 26.2745 3.78104 28.4379 4.63725 30.451C5.49347 32.464 6.683 34.232 8.20587 35.7549C9.72875 37.2778 11.4967 38.4705 13.5098 39.3332ZM22.2353 26.2156C21.6209 26.83 20.8758 27.1372 20 27.1372C19.1111 27.1372 18.3628 26.8268 17.7549 26.206C17.1471 25.585 16.8431 24.8432 16.8431 23.9805C16.8431 23.3661 17.0065 22.8072 17.3333 22.3039C17.6601 21.8006 18.0915 21.4052 18.6274 21.1177V11.3922C18.6274 11.0131 18.7582 10.6928 19.0196 10.4314C19.2811 10.1699 19.6013 10.0392 19.9804 10.0392C20.3725 10.0392 20.6993 10.1699 20.9609 10.4314C21.2223 10.6928 21.353 11.0131 21.353 11.3922V21.1372C21.902 21.3987 22.3399 21.7811 22.6667 22.2842C22.9935 22.7875 23.1569 23.353 23.1569 23.9805C23.1569 24.8563 22.8497 25.6013 22.2353 26.2156Z" fill="#545454" style="mix-blend-mode:color-dodge"/>
</svg>
