<svg width="15" height="15" viewBox="0 0 15 15" fill="none" xmlns="http://www.w3.org/2000/svg">
<path d="M4.3125 10.9375L4.3125 8.1875" stroke="#DDF988" stroke-linecap="round"/>
<path d="M7.75 10.9375L7.75 4.0625" stroke="#DDF988" stroke-linecap="round"/>
<path d="M11.1875 10.9375L11.1875 6.8125" stroke="#DDF988" stroke-linecap="round"/>
<path d="M1.21875 7.5C1.21875 4.42114 1.21875 2.88171 2.17523 1.92523C3.13171 0.96875 4.67114 0.96875 7.75 0.96875C10.8289 0.96875 12.3683 0.96875 13.3248 1.92523C14.2812 2.88171 14.2812 4.42114 14.2812 7.5C14.2812 10.5789 14.2812 12.1183 13.3248 13.0748C12.3683 14.0312 10.8289 14.0312 7.75 14.0312C4.67114 14.0312 3.13171 14.0312 2.17523 13.0748C1.21875 12.1183 1.21875 10.5789 1.21875 7.5Z" stroke="#DDF988" stroke-linejoin="round"/>
</svg>
