<svg width="16" height="61" viewBox="0 0 16 61" fill="none" xmlns="http://www.w3.org/2000/svg">
<path id="Vector 49" d="M4.5 59C3.94772 59 3.5 59.4477 3.5 60C3.5 60.5523 3.94772 61 4.5 61V59ZM0.292893 6.79289C-0.0976311 7.18342 -0.0976311 7.81658 0.292893 8.20711L6.65685 14.5711C7.04738 14.9616 7.68054 14.9616 8.07107 14.5711C8.46159 14.1805 8.46159 13.5474 8.07107 13.1569L2.41421 7.5L8.07107 1.84315C8.46159 1.45262 8.46159 0.819457 8.07107 0.428932C7.68054 0.0384078 7.04738 0.0384078 6.65685 0.428932L0.292893 6.79289ZM13.8284 58.8284L13.1213 58.1213L13.8284 58.8284ZM4.5 61H7V59H4.5V61ZM16 52V15.5H14V52H16ZM7 6.5H1V8.5H7V6.5ZM16 15.5C16 13.6427 16.0021 12.149 15.8446 10.9777C15.6833 9.77752 15.3381 8.76702 14.5355 7.96447L13.1213 9.37868C13.4903 9.7477 13.7309 10.2658 13.8625 11.2442C13.9979 12.2513 14 13.5861 14 15.5H16ZM7 8.5C8.91389 8.5 10.2487 8.50212 11.2558 8.63753C12.2342 8.76907 12.7523 9.00966 13.1213 9.37868L14.5355 7.96447C13.733 7.16191 12.7225 6.81672 11.5223 6.65536C10.351 6.49788 8.85735 6.5 7 6.5V8.5ZM7 61C8.85735 61 10.351 61.0021 11.5223 60.8446C12.7225 60.6833 13.733 60.3381 14.5355 59.5355L13.1213 58.1213C12.7523 58.4903 12.2342 58.7309 11.2558 58.8625C10.2487 58.9979 8.91389 59 7 59V61ZM14 52C14 53.9139 13.9979 55.2487 13.8625 56.2558C13.7309 57.2342 13.4903 57.7523 13.1213 58.1213L14.5355 59.5355C15.3381 58.733 15.6833 57.7225 15.8446 56.5223C16.0021 55.351 16 53.8573 16 52H14Z" fill="#5ECC7B"/>
</svg>
