<svg width="6" height="58" viewBox="0 0 6 58" fill="none" xmlns="http://www.w3.org/2000/svg">
<g id="Frame 611">
<path id="Vector" d="M3 6C3.40981 6 3.79559 5.92156 4.15734 5.76469C4.51912 5.60784 4.83823 5.39117 5.11469 5.11469C5.39117 4.83823 5.60784 4.51912 5.76469 4.15734C5.92156 3.79559 6 3.40981 6 3C6 2.59019 5.92156 2.20441 5.76469 1.84264C5.60784 1.48088 5.39117 1.16176 5.11469 0.885292C4.83823 0.608822 4.51863 0.392156 4.15587 0.235294C3.79313 0.0784313 3.40686 0 2.99705 0C2.58725 0 2.20147 0.0784313 1.8397 0.235294C1.47794 0.392156 1.15931 0.608822 0.883822 0.885292C0.608333 1.16176 0.392156 1.48088 0.235294 1.84264C0.0784313 2.20441 0 2.59019 0 3C0 3.40981 0.0784313 3.79559 0.235294 4.15734C0.392156 4.51912 0.608822 4.83823 0.885292 5.11469C1.16176 5.39117 1.48088 5.60784 1.84264 5.76469C2.20441 5.92156 2.59019 6 3 6Z" fill="#5ECC7B"/>
<path id="Vector_2" d="M3 32C3.40981 32 3.79559 31.9216 4.15734 31.7647C4.51912 31.6078 4.83823 31.3912 5.11469 31.1147C5.39117 30.8382 5.60784 30.5191 5.76469 30.1573C5.92156 29.7956 6 29.4098 6 29C6 28.5902 5.92156 28.2044 5.76469 27.8426C5.60784 27.4809 5.39117 27.1618 5.11469 26.8853C4.83823 26.6088 4.51863 26.3922 4.15587 26.2353C3.79313 26.0784 3.40686 26 2.99705 26C2.58725 26 2.20147 26.0784 1.8397 26.2353C1.47794 26.3922 1.15931 26.6088 0.883822 26.8853C0.608333 27.1618 0.392156 27.4809 0.235294 27.8426C0.0784313 28.2044 0 28.5902 0 29C0 29.4098 0.0784313 29.7956 0.235294 30.1573C0.392156 30.5191 0.608822 30.8382 0.885292 31.1147C1.16176 31.3912 1.48088 31.6078 1.84264 31.7647C2.20441 31.9216 2.59019 32 3 32Z" fill="#5ECC7B"/>
<path id="Vector_3" d="M3 58C3.40981 58 3.79559 57.9216 4.15734 57.7647C4.51912 57.6078 4.83823 57.3912 5.11469 57.1147C5.39117 56.8382 5.60784 56.5191 5.76469 56.1573C5.92156 55.7956 6 55.4098 6 55C6 54.5902 5.92156 54.2044 5.76469 53.8426C5.60784 53.4809 5.39117 53.1618 5.11469 52.8853C4.83823 52.6088 4.51863 52.3922 4.15587 52.2353C3.79313 52.0784 3.40686 52 2.99705 52C2.58725 52 2.20147 52.0784 1.8397 52.2353C1.47794 52.3922 1.15931 52.6088 0.883822 52.8853C0.608333 53.1618 0.392156 53.4809 0.235294 53.8426C0.0784313 54.2044 0 54.5902 0 55C0 55.4098 0.0784313 55.7956 0.235294 56.1573C0.392156 56.5191 0.608822 56.8382 0.885292 57.1147C1.16176 57.3912 1.48088 57.6078 1.84264 57.7647C2.20441 57.9216 2.59019 58 3 58Z" fill="#5ECC7B"/>
<line id="Line 111" x1="3.25" y1="9" x2="3.25" y2="23" stroke="#5ECC7B" stroke-width="0.5"/>
<line id="Line 112" x1="3.25" y1="35" x2="3.25" y2="49" stroke="#5ECC7B" stroke-width="0.5"/>
</g>
</svg>
