<svg width="17" height="17" viewBox="0 0 17 17" fill="none" xmlns="http://www.w3.org/2000/svg">
<path d="M12.3789 1.625C12.3789 2.0047 12.0711 2.3125 11.6914 2.3125C11.3117 2.3125 11.0039 2.0047 11.0039 1.625C11.0039 1.2453 11.3117 0.9375 11.6914 0.9375C12.0711 0.9375 12.3789 1.2453 12.3789 1.625Z" fill="#5ECC7B"/>
<path d="M2.12973 1.15805C2.20104 0.863983 2.61927 0.863983 2.69058 1.15805L2.88679 1.9672C2.91224 2.07219 2.99422 2.15416 3.09921 2.17962L3.90836 2.37583C4.20242 2.44713 4.20242 2.86537 3.90836 2.93667L3.09921 3.13288C3.08609 3.13606 3.07332 3.14013 3.06098 3.14501C2.97461 3.17919 2.90906 3.25344 2.88679 3.3453L2.69058 4.15445C2.68612 4.17283 2.68031 4.19006 2.67331 4.20614C2.56835 4.44737 2.19658 4.43014 2.12973 4.15445L1.93353 3.3453C1.93194 3.33874 1.93012 3.33227 1.9281 3.3259C1.89773 3.23029 1.81953 3.15675 1.7211 3.13288L0.911957 2.93667C0.893578 2.93222 0.876347 2.9264 0.860266 2.91941C0.619038 2.81444 0.636268 2.44268 0.911957 2.37583L1.7211 2.17962C1.82609 2.15416 1.90807 2.07219 1.93353 1.9672L2.12973 1.15805Z" fill="#5ECC7B"/>
<path d="M15.8164 3C15.8164 3.3797 15.5086 3.6875 15.1289 3.6875C14.7492 3.6875 14.4414 3.3797 14.4414 3C14.4414 2.6203 14.7492 2.3125 15.1289 2.3125C15.5086 2.3125 15.8164 2.6203 15.8164 3Z" fill="#5ECC7B"/>
<path d="M4.12891 12.9688C4.12891 13.3484 3.8211 13.6562 3.44141 13.6562C3.06171 13.6562 2.75391 13.3484 2.75391 12.9688C2.75391 12.5891 3.06171 12.2812 3.44141 12.2812C3.8211 12.2812 4.12891 12.5891 4.12891 12.9688Z" fill="#5ECC7B"/>
<path fill-rule="evenodd" clip-rule="evenodd" d="M11.6914 10.2188C11.6914 12.1172 10.1524 13.6562 8.25391 13.6562C6.35543 13.6562 4.81641 12.1172 4.81641 10.2188C4.81641 8.32027 6.35543 6.78125 8.25391 6.78125C10.1524 6.78125 11.6914 8.32027 11.6914 10.2188ZM10.5227 10.2188C10.5227 11.4717 9.5069 12.4875 8.25391 12.4875C7.00091 12.4875 5.98516 11.4717 5.98516 10.2188C5.98516 8.96575 7.00091 7.95 8.25391 7.95C9.5069 7.95 10.5227 8.96575 10.5227 10.2188Z" fill="#5ECC7B"/>
<path fill-rule="evenodd" clip-rule="evenodd" d="M5.94317 4.13349C6.27989 3.43881 6.96818 3 7.72109 3H8.78672C9.53963 3 10.2279 3.43881 10.5646 4.13349L10.8397 4.70106C10.9756 4.98137 11.2533 5.15843 11.5571 5.15843H13.4849C14.5827 5.15843 15.4727 6.07647 15.4727 7.20894V13.3245C15.4727 14.457 14.5827 15.375 13.4849 15.375H3.02293C1.92511 15.375 1.03516 14.457 1.03516 13.3245V7.20894C1.03516 6.07647 1.92511 5.15843 3.02293 5.15843H4.95067C5.25448 5.15843 5.53221 4.98136 5.66808 4.70106L5.94317 4.13349ZM7.72109 4.22311C7.41728 4.22311 7.13955 4.40018 7.00369 4.68048L6.72859 5.24805C6.39187 5.94273 5.70358 6.38154 4.95067 6.38154H3.02293C2.57995 6.38154 2.22084 6.75198 2.22084 7.20894V13.3245C2.22084 13.7815 2.57995 14.1519 3.02293 14.1519H13.4849C13.9279 14.1519 14.287 13.7815 14.287 13.3245V7.20894C14.287 6.75198 13.9279 6.38154 13.4849 6.38154H11.5571C10.8042 6.38154 10.1159 5.94273 9.77922 5.24805L9.50413 4.68048C9.36826 4.40018 9.09053 4.22311 8.78672 4.22311H7.72109Z" fill="#5ECC7B"/>
</svg>
