<svg xmlns="http://www.w3.org/2000/svg" width="17" height="30" viewBox="0 0 17 30" fill="none">
<path d="M17 14.7934C17 14.2251 16.7827 13.7403 16.3314 13.3057L3.29302 0.551517C2.94199 0.183769 2.47394 -0.000104904 1.93904 -0.000104904C0.852507 -0.000104904 0 0.835688 0 1.93893C0 2.47384 0.217306 2.9586 0.585054 3.32635L12.3363 14.7934L0.585054 26.2605C0.217306 26.6449 0 27.1297 0 27.6646C0 28.7511 0.852507 29.5869 1.93904 29.5869C2.47394 29.5869 2.94199 29.403 3.29302 29.0353L16.3314 16.2811C16.7827 15.8465 16.9833 15.3617 17 14.7934Z" fill="#5ECC7B"/>
</svg>