<svg width="10" height="18" viewBox="0 0 10 18" fill="none" xmlns="http://www.w3.org/2000/svg">
<path id="Icon / chevron.left" d="M0 8.99992C0 9.33423 0.127827 9.61938 0.393314 9.87504L8.06293 17.3775C8.26942 17.5938 8.54474 17.702 8.85939 17.702C9.49853 17.702 10 17.2103 10 16.5614C10 16.2467 9.87217 15.9616 9.65585 15.7452L2.74336 8.99992L9.65585 2.25459C9.87217 2.02843 10 1.74328 10 1.42863C10 0.789494 9.49853 0.297852 8.85939 0.297852C8.54474 0.297852 8.26942 0.406013 8.06293 0.622335L0.393314 8.12479C0.127827 8.38045 0.00983284 8.6656 0 8.99992Z" fill="#A3926F"/>
</svg>
