<svg xmlns="http://www.w3.org/2000/svg" width="17" height="30" viewBox="0 0 17 30" fill="none">
  <path d="M0 14.7934C0 15.3618 0.217306 15.8465 0.668633 16.2811L13.707 29.0353C14.058 29.403 14.5261 29.5869 15.061 29.5869C16.1475 29.5869 17 28.7511 17 27.6479C17 27.113 16.7827 26.6282 16.4149 26.2605L4.66372 14.7934L16.4149 3.32644C16.7827 2.94197 17 2.45722 17 1.92231C17 0.835788 16.1475 0 15.061 0C14.5261 0 14.058 0.183873 13.707 0.55162L0.668633 13.3057C0.217306 13.7404 0.0167158 14.2251 0 14.7934Z" fill="#5ECC7B"/>
</svg>