<svg width="48" height="48" viewBox="0 0 48 48" fill="none" xmlns="http://www.w3.org/2000/svg">
<g id="Frame 48095822">
<circle id="Ellipse 141" cx="23.9988" cy="23.5066" r="23.5066" fill="#A3926F"/>
<path id="Union" fill-rule="evenodd" clip-rule="evenodd" d="M15.1799 33.3195H19.0234V20.8963C18.7387 20.8044 18.435 20.7548 18.1197 20.7548C16.5274 20.7548 15.2307 22.0209 15.1814 23.6013H15.1799V23.6948V33.3195ZM18.1197 19.5303C18.435 19.5303 18.7387 19.4807 19.0234 19.3888V13.7919C18.7387 13.7 18.435 13.6504 18.1197 13.6504C16.4961 13.6504 15.1799 14.9667 15.1799 16.5904C15.1799 18.2141 16.4961 19.5303 18.1197 19.5303ZM28.973 33.3195H32.816V23.6948V23.6013H32.8145C32.7652 22.0209 31.4685 20.7548 29.8761 20.7548C29.561 20.7548 29.2576 20.8044 28.973 20.8961V33.3195ZM28.973 19.389C29.2576 19.4808 29.561 19.5303 29.8761 19.5303C31.4997 19.5303 32.816 18.2141 32.816 16.5904C32.816 14.9667 31.4997 13.6504 29.8761 13.6504C29.561 13.6504 29.2576 13.7 28.973 13.7917V19.389ZM26.9378 16.5908C26.9378 18.2145 25.6215 19.5308 23.9979 19.5308C22.3743 19.5308 21.0581 18.2145 21.0581 16.5908C21.0581 14.9671 22.3743 13.6508 23.9979 13.6508C25.6215 13.6508 26.9378 14.9671 26.9378 16.5908ZM21.0581 23.6952V33.32H26.9378V23.6952V23.6018H26.9363C26.887 22.0213 25.5903 20.7552 23.9979 20.7552C22.4055 20.7552 21.1089 22.0213 21.0595 23.6018H21.0581V23.6952ZM34.8492 33.1793H36.887V23.5545V23.461H36.8855C36.8459 22.1929 36.0033 21.1272 34.8492 20.7555V33.1793ZM34.8492 19.2491C36.0315 18.8683 36.887 17.7591 36.887 16.4501C36.887 15.1411 36.0315 14.0319 34.8492 13.6511V19.2491ZM11.1094 33.1788H13.1433V20.7563C11.9912 21.1291 11.1504 22.1939 11.1108 23.4606H11.1094V23.554V33.1788ZM11.1094 16.4496C11.1094 17.7572 11.963 18.8654 13.1433 19.2474V13.6519C11.963 14.0338 11.1094 15.142 11.1094 16.4496Z" fill="white"/>
</g>
</svg>
