<svg width="67" height="58" viewBox="0 0 67 58" fill="none" xmlns="http://www.w3.org/2000/svg">
<g opacity="0.4">
<g opacity="0.7" filter="url(#filter0_f_3459_7147)">
<path d="M13.1884 14.5606C16.2024 12.39 20.2836 12.39 23.2976 14.5606L30.2121 19.5402C33.2261 21.7108 34.4873 25.5583 33.336 29.0703L30.6949 37.1276C29.5437 40.6397 26.2419 43.0175 22.5164 43.0175H13.9696C10.2441 43.0175 6.94234 40.6397 5.7911 37.1276L3.14999 29.0703C1.99875 25.5583 3.25992 21.7108 6.27389 19.5402L13.1884 14.5606Z" fill="url(#paint0_linear_3459_7147)"/>
<path d="M13.2598 14.392C16.1944 12.2787 20.1692 12.2787 23.1037 14.392L30.3156 19.5859C33.2489 21.6983 34.4737 25.4398 33.3548 28.8532L30.6 37.2571C29.4808 40.6714 26.2686 42.9879 22.639 42.9879H13.7246C10.0949 42.9879 6.88272 40.6714 5.76351 37.2571L3.0088 28.8532C1.8899 25.4398 3.11466 21.6983 6.04792 19.5859L13.2598 14.392Z" stroke="url(#paint1_linear_3459_7147)" stroke-width="1.198"/>
<path d="M13.3472 15.0957C16.23 13.0147 20.1336 13.0147 23.0163 15.0957L29.6859 19.9103C32.5685 21.9911 33.7745 25.6794 32.6736 29.0459L30.126 36.8361C29.0251 40.2027 25.8673 42.4825 22.3038 42.4825H14.0597C10.4963 42.4825 7.33848 40.2027 6.23752 36.8361L3.68995 29.0459C2.58902 25.6794 3.795 21.9912 6.67762 19.9103L13.3472 15.0957Z" stroke="url(#paint2_linear_3459_7147)" stroke-width="0.140173"/>
<path d="M13.3934 15.2157C16.2511 13.1532 20.1208 13.1532 22.9785 15.2157L29.5829 19.9823C32.4405 22.0447 33.6361 25.7002 32.5447 29.0369L30.022 36.7495C28.9306 40.0863 25.8002 42.3458 22.2677 42.3458H14.1042C10.5717 42.3458 7.44127 40.0863 6.34986 36.7495L3.82718 29.037C2.73579 25.7002 3.93133 22.0447 6.78893 19.9823L13.3934 15.2157Z" stroke="url(#paint3_linear_3459_7147)" stroke-width="0.120841"/>
<g style="mix-blend-mode:soft-light" opacity="0.6" clip-path="url(#clip0_3459_7147)">
<path d="M25.4532 20.8289L25.4514 32.265L24.4194 31.5587V24.2082L23.714 25.2558C23.7508 25.3327 23.7859 25.4106 23.8187 25.4875C24.1346 26.2281 24.2948 27.0145 24.2948 27.825C24.2948 28.6355 24.1346 29.4218 23.8187 30.1624C23.5489 30.7948 23.1749 31.3718 22.7073 31.8775L22.6811 31.9061H21.1301L21.3319 31.7491C21.4912 31.6251 21.6452 31.4897 21.7898 31.3463C22.7388 30.406 23.2614 29.1553 23.2614 27.825C23.2614 27.2977 23.1798 26.7818 23.0188 26.2879L19.0115 32.2386V30.3273L19.0266 30.3053L22.4992 25.1845C22.2987 24.8674 22.06 24.5715 21.7898 24.3032C20.9726 23.4936 19.8989 22.9869 18.7569 22.8708L18.7538 32.6221L18.2422 33.3812L17.7311 32.6221L17.7302 30.9953L17.7276 22.8708C16.5855 22.9869 15.5119 23.4936 14.6946 24.3032C14.4244 24.5715 14.1857 24.8679 13.9852 25.1845L17.4729 30.3273V32.2386L13.4657 26.2879C13.3046 26.7818 13.2234 27.2977 13.2234 27.825C13.2234 29.1553 13.7461 30.406 14.6946 31.3463C14.8393 31.4892 14.9932 31.6247 15.1525 31.7491L15.3544 31.9061H13.8033L13.7771 31.8775C13.3095 31.3718 12.9355 30.7948 12.6657 30.1624C12.3498 29.4218 12.1897 28.6355 12.1897 27.825C12.1897 27.0145 12.3498 26.2281 12.6657 25.4875C12.6986 25.4101 12.7341 25.3323 12.7704 25.2558L12.0654 24.2082V31.5587L11.033 32.265L11.0312 20.8289L13.3645 24.2693C13.5451 24.0266 13.7461 23.7948 13.9639 23.5789C14.5203 23.0274 15.168 22.5947 15.8894 22.2921C16.4755 22.0463 17.0936 21.895 17.7271 21.8418V21.6205C16.4218 21.6795 15.1503 21.9649 13.9488 22.4689C13.5908 22.6188 13.2372 22.7895 12.8987 22.9751L12.8272 23.0142L12.25 22.161L12.3334 22.1144C12.7243 21.8967 13.132 21.6984 13.5464 21.5251C15.0354 20.9006 16.6153 20.584 18.2422 20.584C19.8691 20.584 21.4491 20.9006 22.938 21.5251C23.3524 21.6984 23.7601 21.8967 24.151 22.1144L24.2349 22.161L23.6572 23.0142L23.5858 22.9751C23.2472 22.7895 22.8936 22.6188 22.5356 22.4689C21.335 21.9653 20.0639 21.6799 18.7573 21.6205V21.8418C19.3913 21.895 20.0089 22.0463 20.5954 22.2921C21.3164 22.5947 21.9642 23.0274 22.5205 23.5789C22.7384 23.7944 22.9393 24.0266 23.1199 24.2693L25.4532 20.8289Z" fill="black"/>
</g>
<g style="mix-blend-mode:soft-light" opacity="0.4">
<path d="M9.76907 36.4473H9.35946V34.9875H9.91287L10.1307 35.5627L10.2244 35.9396H10.2528L10.353 35.5627L10.5469 34.9875H11.1003V36.4473H10.6907V35.9135L10.7147 35.5997H10.6863L10.597 35.9353L10.4793 36.2948H9.98041L9.86275 35.9353L9.77125 35.5997H9.74292L9.76907 35.9135V36.4473ZM12.4715 36.4691C12.0074 36.4691 11.7373 36.1727 11.7373 35.7174C11.7373 35.262 12.0074 34.9657 12.4715 34.9657C12.9334 34.9657 13.2036 35.262 13.2036 35.7174C13.2036 36.1727 12.9334 36.4691 12.4715 36.4691ZM12.4715 36.0703C12.6959 36.0703 12.7635 35.9984 12.7635 35.7174C12.7635 35.4363 12.6959 35.3644 12.4715 35.3644C12.2449 35.3644 12.1774 35.4363 12.1774 35.7174C12.1774 35.9984 12.2449 36.0703 12.4715 36.0703ZM14.7222 36.4473H14.1579L13.659 34.9875H14.1209L14.4303 35.9897H14.4586L14.7614 34.9875H15.2233L14.7222 36.4473ZM16.9611 36.4473H15.7824V34.9875H16.9611V35.3557H16.192V35.5322H16.9284V35.8982H16.192V36.0791H16.9611V36.4473ZM18.2963 36.4691C17.8257 36.4691 17.5708 36.1727 17.5708 35.7174C17.5708 35.262 17.8257 34.9657 18.2963 34.9657C18.7582 34.9657 18.9827 35.2054 18.9827 35.5453V35.5954H18.5447V35.5888C18.5447 35.4211 18.4903 35.3644 18.2876 35.3644C18.0785 35.3644 18.0109 35.4145 18.0109 35.7174C18.0109 36.0202 18.0785 36.0703 18.2876 36.0703C18.4903 36.0703 18.5447 36.0137 18.5447 35.8459V35.8394H18.9827V35.8895C18.9827 36.2294 18.7582 36.4691 18.2963 36.4691ZM20.3347 36.4691C19.8706 36.4691 19.6004 36.1727 19.6004 35.7174C19.6004 35.262 19.8706 34.9657 20.3347 34.9657C20.7966 34.9657 21.0667 35.262 21.0667 35.7174C21.0667 36.1727 20.7966 36.4691 20.3347 36.4691ZM20.3347 36.0703C20.5591 36.0703 20.6266 35.9984 20.6266 35.7174C20.6266 35.4363 20.5591 35.3644 20.3347 35.3644C20.1081 35.3644 20.0405 35.4363 20.0405 35.7174C20.0405 35.9984 20.1081 36.0703 20.3347 36.0703ZM22.1085 36.4473H21.6989V34.9875H22.1085V36.4473ZM23.2083 36.4473H22.7987V34.9875H23.2367L23.6441 35.6433L23.74 35.822H23.7683L23.7465 35.6433V34.9875H24.1539V36.4473H23.7182L23.3325 35.8394L23.2149 35.6324H23.1866L23.2083 35.8394V36.4473ZM25.443 36.4691C25.0247 36.4691 24.8155 36.273 24.8155 35.9679V35.9396H25.2186V35.957C25.2186 36.0769 25.2621 36.1008 25.4582 36.1008C25.6129 36.1008 25.6456 36.0769 25.6456 36.0137C25.6456 35.9462 25.6238 35.9244 25.5236 35.9091L25.2055 35.859C24.9092 35.8132 24.7872 35.6564 24.7872 35.4298C24.7872 35.1705 24.9854 34.9657 25.4147 34.9657C25.8221 34.9657 26.016 35.1705 26.016 35.4429V35.4799H25.6129V35.4537C25.6129 35.3688 25.5715 35.3339 25.3885 35.3339C25.2338 35.3339 25.1946 35.3601 25.1946 35.4145C25.1946 35.4603 25.2229 35.4799 25.3079 35.4951L25.626 35.5518C25.9354 35.6063 26.0552 35.7675 26.0552 35.9941C26.0552 36.249 25.8809 36.4691 25.443 36.4691Z" fill="black"/>
</g>
</g>
<g opacity="0.5" filter="url(#filter1_f_3459_7147)">
<path d="M54.7794 4.95944C57.2934 3.14894 60.6976 3.14893 63.2116 4.95944L68.9791 9.11303C71.493 10.9235 72.545 14.1327 71.5847 17.0622L69.3818 23.7829C68.4215 26.7123 65.6675 28.6957 62.56 28.6957H55.431C52.3235 28.6957 49.5695 26.7123 48.6092 23.7829L46.4062 17.0622C45.446 14.1327 46.4979 10.9235 49.0119 9.11304L54.7794 4.95944Z" fill="url(#paint4_linear_3459_7147)"/>
<path d="M54.8353 4.82172C57.283 3.05894 60.5985 3.05894 63.0462 4.82172L69.0617 9.15396C71.5084 10.916 72.53 14.0368 71.5967 16.884L69.299 23.8937C68.3654 26.7417 65.6861 28.6738 62.6586 28.6738H55.2229C52.1954 28.6738 49.5161 26.7417 48.5825 23.8937L46.2848 16.884C45.3515 14.0368 46.3731 10.916 48.8198 9.15396L54.8353 4.82172Z" stroke="url(#paint5_linear_3459_7147)" stroke-width="0.999269"/>
<path d="M54.9108 5.40813C57.3154 3.67237 60.5714 3.67237 62.9759 5.40812L68.5391 9.42405C70.9435 11.1597 71.9495 14.2361 71.0312 17.0442L68.9062 23.5421C67.9879 26.3502 65.3539 28.2518 62.3816 28.2518H55.5051C52.5328 28.2518 49.8989 26.3502 48.9806 23.5421L46.8556 17.0442C45.9373 14.2361 46.9432 11.1597 49.3476 9.42405L54.9108 5.40813Z" stroke="url(#paint6_linear_3459_7147)" stroke-width="0.116919"/>
<path d="M54.945 5.50765C57.3286 3.7873 60.5564 3.7873 62.94 5.50765L68.4489 9.48354C70.8324 11.2038 71.8296 14.2529 70.9193 17.0361L68.8151 23.4692C67.9047 26.2525 65.2936 28.1372 62.3471 28.1372H55.5379C52.5914 28.1372 49.9803 26.2525 49.0699 23.4693L46.9657 17.0361C46.0554 14.2529 47.0526 11.2038 49.4361 9.48355L54.945 5.50765Z" stroke="url(#paint7_linear_3459_7147)" stroke-width="0.100794"/>
<g style="mix-blend-mode:soft-light" opacity="0.6" clip-path="url(#clip1_3459_7147)">
<path d="M65.008 10.1907L65.0065 19.7296L64.1457 19.1405V13.0093L63.5573 13.8831C63.588 13.9473 63.6173 14.0122 63.6447 14.0764C63.9081 14.6942 64.0417 15.3501 64.0417 16.0261C64.0417 16.7022 63.9081 17.3581 63.6447 17.9758C63.4197 18.5033 63.1077 18.9846 62.7176 19.4064L62.6958 19.4303H61.402L61.5704 19.2993C61.7033 19.1959 61.8317 19.0829 61.9523 18.9633C62.7439 18.179 63.1799 17.1358 63.1799 16.0261C63.1799 15.5863 63.1118 15.156 62.9774 14.7441L59.635 19.7076V18.1134L59.6475 18.095L62.5441 13.8237C62.3768 13.5592 62.1777 13.3123 61.9523 13.0886C61.2707 12.4132 60.3751 11.9907 59.4225 11.8938L59.4199 20.0274L58.9933 20.6606L58.5669 20.0274L58.5662 18.6706L58.564 11.8938C57.6114 11.9907 56.7158 12.4132 56.0342 13.0886C55.8088 13.3123 55.6097 13.5596 55.4424 13.8237L58.3516 18.1134V19.7076L55.0091 14.7441C54.8748 15.156 54.807 15.5863 54.807 16.0261C54.807 17.1358 55.243 18.179 56.0342 18.9633C56.1548 19.0825 56.2832 19.1955 56.4161 19.2993L56.5845 19.4303H55.2907L55.2689 19.4064C54.8788 18.9846 54.5669 18.5033 54.3419 17.9758C54.0784 17.3581 53.9448 16.7022 53.9448 16.0261C53.9448 15.3501 54.0784 14.6942 54.3419 14.0764C54.3692 14.0119 54.3988 13.9469 54.4292 13.8831L53.8411 13.0093V19.1405L52.98 19.7296L52.9785 10.1907L54.9247 13.0603C55.0753 12.8578 55.243 12.6645 55.4247 12.4844C55.8887 12.0244 56.429 11.6635 57.0308 11.4111C57.5196 11.206 58.0351 11.0798 58.5636 11.0354V10.8509C57.4749 10.9001 56.4142 11.1382 55.4121 11.5585C55.1134 11.6836 54.8185 11.826 54.5361 11.9808L54.4766 12.0134L53.9951 11.3018L54.0647 11.2629C54.3907 11.0813 54.7308 10.9159 55.0764 10.7713C56.3184 10.2504 57.6362 9.98633 58.9933 9.98633C60.3503 9.98633 61.6681 10.2504 62.9101 10.7713C63.2557 10.9159 63.5958 11.0813 63.9218 11.2629L63.9918 11.3018L63.51 12.0134L63.4504 11.9808C63.168 11.826 62.8731 11.6836 62.5744 11.5585C61.573 11.1385 60.5128 10.9005 59.4229 10.8509V11.0354C59.9517 11.0798 60.4669 11.206 60.9561 11.4111C61.5575 11.6635 62.0978 12.0244 62.5618 12.4844C62.7435 12.6642 62.9112 12.8578 63.0618 13.0603L65.008 10.1907Z" fill="black"/>
</g>
<g style="mix-blend-mode:soft-light" opacity="0.4">
<path d="M51.9267 23.5488H51.5851V22.3312H52.0467L52.2284 22.811L52.3066 23.1254H52.3302L52.4138 22.811L52.5755 22.3312H53.0371V23.5488H52.6955V23.1036L52.7155 22.8419H52.6918L52.6173 23.1218L52.5192 23.4216H52.103L52.0049 23.1218L51.9286 22.8419H51.9049L51.9267 23.1036V23.5488ZM54.1809 23.567C53.7938 23.567 53.5684 23.3198 53.5684 22.94C53.5684 22.5602 53.7938 22.313 54.1809 22.313C54.5662 22.313 54.7915 22.5602 54.7915 22.94C54.7915 23.3198 54.5662 23.567 54.1809 23.567ZM54.1809 23.2344C54.3681 23.2344 54.4244 23.1745 54.4244 22.94C54.4244 22.7056 54.3681 22.6456 54.1809 22.6456C53.9919 22.6456 53.9355 22.7056 53.9355 22.94C53.9355 23.1745 53.9919 23.2344 54.1809 23.2344ZM56.0582 23.5488H55.5875L55.1714 22.3312H55.5566L55.8147 23.1672H55.8383L56.0909 22.3312H56.4762L56.0582 23.5488ZM57.9257 23.5488H56.9425V22.3312H57.9257V22.6383H57.2842V22.7855H57.8984V23.0909H57.2842V23.2417H57.9257V23.5488ZM59.0394 23.567C58.6469 23.567 58.4343 23.3198 58.4343 22.94C58.4343 22.5602 58.6469 22.313 59.0394 22.313C59.4247 22.313 59.6119 22.513 59.6119 22.7965V22.8383H59.2466V22.8328C59.2466 22.6929 59.2012 22.6456 59.0322 22.6456C58.8577 22.6456 58.8014 22.6874 58.8014 22.94C58.8014 23.1926 58.8577 23.2344 59.0322 23.2344C59.2012 23.2344 59.2466 23.1872 59.2466 23.0472V23.0418H59.6119V23.0836C59.6119 23.3671 59.4247 23.567 59.0394 23.567ZM60.7396 23.567C60.3525 23.567 60.1272 23.3198 60.1272 22.94C60.1272 22.5602 60.3525 22.313 60.7396 22.313C61.1249 22.313 61.3503 22.5602 61.3503 22.94C61.3503 23.3198 61.1249 23.567 60.7396 23.567ZM60.7396 23.2344C60.9268 23.2344 60.9832 23.1745 60.9832 22.94C60.9832 22.7056 60.9268 22.6456 60.7396 22.6456C60.5506 22.6456 60.4943 22.7056 60.4943 22.94C60.4943 23.1745 60.5506 23.2344 60.7396 23.2344ZM62.2192 23.5488H61.8776V22.3312H62.2192V23.5488ZM63.1366 23.5488H62.7949V22.3312H63.1602L63.5001 22.8782L63.58 23.0273H63.6036L63.5855 22.8782V22.3312H63.9253V23.5488H63.5618L63.2402 23.0418L63.142 22.8691H63.1184L63.1366 23.0418V23.5488ZM65.0005 23.567C64.6516 23.567 64.4771 23.4034 64.4771 23.149V23.1254H64.8133V23.1399C64.8133 23.2399 64.8497 23.2599 65.0132 23.2599C65.1423 23.2599 65.1695 23.2399 65.1695 23.1872C65.1695 23.1308 65.1514 23.1127 65.0678 23.0999L64.8024 23.0581C64.5553 23.02 64.4535 22.8891 64.4535 22.7001C64.4535 22.4839 64.6189 22.313 64.9769 22.313C65.3167 22.313 65.4785 22.4839 65.4785 22.711V22.7419H65.1423V22.7201C65.1423 22.6492 65.1077 22.6202 64.9551 22.6202C64.8261 22.6202 64.7933 22.642 64.7933 22.6874C64.7933 22.7256 64.817 22.7419 64.8878 22.7547L65.1532 22.8019C65.4112 22.8473 65.5112 22.9818 65.5112 23.1708C65.5112 23.3835 65.3658 23.567 65.0005 23.567Z" fill="black"/>
</g>
</g>
<path d="M32.0982 14.062C36.6298 10.7984 42.7662 10.7984 47.2979 14.062L57.6943 21.5492C62.226 24.8128 64.1222 30.5976 62.3913 35.8782L58.4202 47.9928C56.6892 53.2734 51.7248 56.8487 46.1234 56.8487H33.2727C27.6712 56.8487 22.7068 53.2734 20.9759 47.9928L17.0048 35.8783C15.2739 30.5976 17.1701 24.8128 21.7018 21.5492L32.0982 14.062Z" fill="url(#paint8_linear_3459_7147)"/>
<path d="M32.2091 13.8112C36.6213 10.6336 42.5977 10.6336 47.0099 13.8112L57.8535 21.6204C62.2638 24.7966 64.1053 30.4221 62.423 35.5544L58.2811 48.19C56.5983 53.3238 51.7686 56.8067 46.3112 56.8067H32.9079C27.4505 56.8067 22.6208 53.3238 20.938 48.19L16.7961 35.5544C15.1138 30.4221 16.9552 24.7966 21.3656 21.6204L32.2091 13.8112Z" stroke="url(#paint9_linear_3459_7147)" stroke-width="1.80127"/>
<path d="M32.345 14.869C36.6793 11.7402 42.5486 11.7402 46.883 14.869L56.9111 22.1081C61.2453 25.2368 63.0586 30.7822 61.4033 35.844L57.5729 47.557C55.9175 52.619 51.1696 56.0468 45.8117 56.0468H33.4162C28.0584 56.0468 23.3105 52.619 21.6551 47.5571L17.8247 35.844C16.1694 30.7822 17.9826 25.2368 22.3168 22.1081L32.345 14.869Z" stroke="url(#paint10_linear_3459_7147)" stroke-width="0.210757"/>
<path d="M32.407 15.0485C36.7037 11.9474 42.522 11.9474 46.8187 15.0485L56.7489 22.2154C61.0455 25.3163 62.843 30.8126 61.2021 35.8295L57.4091 47.4258C55.7681 52.4429 51.0613 55.8402 45.75 55.8402H33.4757C28.1644 55.8402 23.4577 52.4429 21.8166 47.4258L18.0237 35.8296C16.3827 30.8126 18.1802 25.3164 22.4768 22.2154L32.407 15.0485Z" stroke="url(#paint11_linear_3459_7147)" stroke-width="0.181691"/>
<g style="mix-blend-mode:soft-light" clip-path="url(#clip2_3459_7147)">
<path d="M50.5416 23.4894L50.5389 40.6842L48.9873 39.6222V28.5703L47.9267 30.1454C47.982 30.2611 48.0347 30.3782 48.0841 30.4939C48.559 31.6074 48.7999 32.7897 48.7999 34.0083C48.7999 35.227 48.559 36.4093 48.0841 37.5228C47.6785 38.4737 47.1161 39.3412 46.413 40.1016L46.3737 40.1446H44.0416L44.3451 39.9085C44.5846 39.7221 44.816 39.5184 45.0335 39.3028C46.4604 37.8891 47.2462 36.0086 47.2462 34.0083C47.2462 33.2155 47.1235 32.4399 46.8813 31.6973L40.8562 40.6445V37.7708L40.8789 37.7377L46.1002 30.0383C45.7987 29.5615 45.4398 29.1165 45.0335 28.7132C43.8047 27.4958 42.1904 26.7341 40.4733 26.5595L40.4687 41.2211L39.6995 42.3624L38.931 41.2211L38.9297 38.7752L38.9257 26.5595C37.2086 26.7341 35.5943 27.4958 34.3655 28.7132C33.9593 29.1165 33.6004 29.5622 33.2989 30.0383L38.5428 37.7708V40.6445L32.5177 31.6973C32.2756 32.4399 32.1535 33.2155 32.1535 34.0083C32.1535 36.0086 32.9393 37.8891 34.3655 39.3028C34.583 39.5177 34.8145 39.7214 35.054 39.9085L35.3575 40.1446H33.0254L32.986 40.1016C32.2829 39.3412 31.7205 38.4737 31.315 37.5228C30.84 36.4093 30.5992 35.227 30.5992 34.0083C30.5992 32.7897 30.84 31.6074 31.315 30.4939C31.3643 30.3775 31.4177 30.2605 31.4724 30.1454L30.4124 28.5703V39.6222L28.8601 40.6842L28.8574 23.4894L32.3656 28.6622C32.6371 28.2972 32.9393 27.9488 33.2668 27.6241C34.1034 26.7949 35.0773 26.1443 36.162 25.6893C37.0432 25.3197 37.9724 25.0922 38.925 25.0122V24.6796C36.9625 24.7682 35.0506 25.1974 33.2442 25.9551C32.7058 26.1806 32.1742 26.4372 31.6652 26.7162L31.5578 26.7751L30.6899 25.4923L30.8153 25.4222C31.403 25.0949 32.0161 24.7967 32.6391 24.5361C34.8778 23.5972 37.2533 23.1211 39.6995 23.1211C42.1457 23.1211 44.5212 23.5972 46.7599 24.5361C47.383 24.7967 47.996 25.0949 48.5837 25.4222L48.7098 25.4923L47.8413 26.7751L47.7339 26.7162C47.2249 26.4372 46.6932 26.1806 46.1549 25.9551C44.3498 25.198 42.4386 24.7689 40.474 24.6796V25.0122C41.4273 25.0922 42.3558 25.3197 43.2377 25.6893C44.3217 26.1443 45.2957 26.7949 46.1322 27.6241C46.4597 27.9481 46.7619 28.2972 47.0334 28.6622L50.5416 23.4894Z" fill="black"/>
</g>
<g style="mix-blend-mode:soft-light" opacity="0.9">
<path d="M26.9551 46.9639H26.3393V44.769H27.1713L27.4989 45.6339L27.6398 46.2006H27.6824L27.8331 45.6339L28.1246 44.769H28.9567V46.9639H28.3408V46.1613L28.3769 45.6895H28.3343L28.2 46.194L28.0231 46.7346H27.2729L27.096 46.194L26.9584 45.6895H26.9158L26.9551 46.1613V46.9639ZM31.0184 46.9966C30.3206 46.9966 29.9144 46.5511 29.9144 45.8664C29.9144 45.1818 30.3206 44.7363 31.0184 44.7363C31.7129 44.7363 32.1191 45.1818 32.1191 45.8664C32.1191 46.5511 31.7129 46.9966 31.0184 46.9966ZM31.0184 46.3971C31.3558 46.3971 31.4574 46.289 31.4574 45.8664C31.4574 45.4439 31.3558 45.3357 31.0184 45.3357C30.6777 45.3357 30.5762 45.4439 30.5762 45.8664C30.5762 46.289 30.6777 46.3971 31.0184 46.3971ZM34.4025 46.9639H33.554L32.8038 44.769H33.4983L33.9635 46.2759H34.0061L34.4614 44.769H35.1559L34.4025 46.9639ZM37.7688 46.9639H35.9965V44.769H37.7688V45.3226H36.6124V45.588H37.7196V46.1383H36.6124V46.4102H37.7688V46.9639ZM39.7764 46.9966C39.0688 46.9966 38.6855 46.5511 38.6855 45.8664C38.6855 45.1818 39.0688 44.7363 39.7764 44.7363C40.4709 44.7363 40.8083 45.0966 40.8083 45.6076V45.683H40.1498V45.6732C40.1498 45.4209 40.0679 45.3357 39.7633 45.3357C39.4488 45.3357 39.3472 45.4111 39.3472 45.8664C39.3472 46.3218 39.4488 46.3971 39.7633 46.3971C40.0679 46.3971 40.1498 46.312 40.1498 46.0597V46.0499H40.8083V46.1252C40.8083 46.6363 40.4709 46.9966 39.7764 46.9966ZM42.8411 46.9966C42.1434 46.9966 41.7372 46.5511 41.7372 45.8664C41.7372 45.1818 42.1434 44.7363 42.8411 44.7363C43.5356 44.7363 43.9418 45.1818 43.9418 45.8664C43.9418 46.5511 43.5356 46.9966 42.8411 46.9966ZM42.8411 46.3971C43.1786 46.3971 43.2801 46.289 43.2801 45.8664C43.2801 45.4439 43.1786 45.3357 42.8411 45.3357C42.5004 45.3357 42.3989 45.4439 42.3989 45.8664C42.3989 46.289 42.5004 46.3971 42.8411 46.3971ZM45.5082 46.9639H44.8923V44.769H45.5082V46.9639ZM47.1619 46.9639H46.546V44.769H47.2044L47.817 45.7551L47.9612 46.0237H48.0038L47.971 45.7551V44.769H48.5836V46.9639H47.9284L47.3486 46.0499L47.1717 45.7387H47.1291L47.1619 46.0499V46.9639ZM50.5218 46.9966C49.8928 46.9966 49.5783 46.7018 49.5783 46.2432V46.2006H50.1843V46.2268C50.1843 46.407 50.2499 46.443 50.5447 46.443C50.7773 46.443 50.8264 46.407 50.8264 46.312C50.8264 46.2104 50.7937 46.1777 50.643 46.1547L50.1647 46.0794C49.7192 46.0106 49.5357 45.7747 49.5357 45.434C49.5357 45.0442 49.8338 44.7363 50.4792 44.7363C51.0918 44.7363 51.3833 45.0442 51.3833 45.4537V45.5094H50.7773V45.4701C50.7773 45.3423 50.715 45.2899 50.4399 45.2899C50.2073 45.2899 50.1483 45.3292 50.1483 45.4111C50.1483 45.4799 50.1909 45.5094 50.3187 45.5323L50.7969 45.6175C51.2621 45.6994 51.4423 45.9418 51.4423 46.2825C51.4423 46.6658 51.1802 46.9966 50.5218 46.9966Z" fill="black"/>
</g>
</g>
<defs>
<filter id="filter0_f_3459_7147" x="0.879325" y="11.0873" width="34.6046" height="33.6203" filterUnits="userSpaceOnUse" color-interpolation-filters="sRGB">
<feFlood flood-opacity="0" result="BackgroundImageFix"/>
<feBlend mode="normal" in="SourceGraphic" in2="BackgroundImageFix" result="shape"/>
<feGaussianBlur stdDeviation="0.560337" result="effect1_foregroundBlur_3459_7147"/>
</filter>
<filter id="filter1_f_3459_7147" x="43.202" y="0.75865" width="31.4768" height="30.6565" filterUnits="userSpaceOnUse" color-interpolation-filters="sRGB">
<feFlood flood-opacity="0" result="BackgroundImageFix"/>
<feBlend mode="normal" in="SourceGraphic" in2="BackgroundImageFix" result="shape"/>
<feGaussianBlur stdDeviation="1.12067" result="effect1_foregroundBlur_3459_7147"/>
</filter>
<linearGradient id="paint0_linear_3459_7147" x1="8.42167" y1="40.7008" x2="33.6482" y2="21.7167" gradientUnits="userSpaceOnUse">
<stop stop-color="#513E61"/>
<stop offset="0.442708" stop-color="#9274AA"/>
<stop offset="1" stop-color="#EBD2FF"/>
</linearGradient>
<linearGradient id="paint1_linear_3459_7147" x1="1.65325" y1="39.5525" x2="32.0189" y2="18.284" gradientUnits="userSpaceOnUse">
<stop stop-color="#061116"/>
<stop offset="0.189073" stop-color="#4B5358"/>
<stop offset="0.517162" stop-color="#767A7D"/>
<stop offset="0.646318" stop-color="#E7F3F9"/>
<stop offset="1" stop-color="#2D363A"/>
</linearGradient>
<linearGradient id="paint2_linear_3459_7147" x1="5.04585" y1="15.404" x2="30.3577" y2="43.2735" gradientUnits="userSpaceOnUse">
<stop stop-color="#D1D1D1"/>
<stop offset="1" stop-color="white"/>
</linearGradient>
<linearGradient id="paint3_linear_3459_7147" x1="7.07187" y1="12.463" x2="30.4054" y2="46.1491" gradientUnits="userSpaceOnUse">
<stop stop-color="#424242"/>
<stop offset="1" stop-color="#8E8E8E"/>
</linearGradient>
<linearGradient id="paint4_linear_3459_7147" x1="50.8034" y1="26.7633" x2="71.8451" y2="10.9285" gradientUnits="userSpaceOnUse">
<stop stop-color="#513E61"/>
<stop offset="0.442708" stop-color="#9274AA"/>
<stop offset="1" stop-color="#EBD2FF"/>
</linearGradient>
<linearGradient id="paint5_linear_3459_7147" x1="45.1541" y1="25.8083" x2="70.4824" y2="8.06801" gradientUnits="userSpaceOnUse">
<stop stop-color="#061116"/>
<stop offset="0.189073" stop-color="#4B5358"/>
<stop offset="0.517162" stop-color="#767A7D"/>
<stop offset="0.646318" stop-color="#E7F3F9"/>
<stop offset="1" stop-color="#2D363A"/>
</linearGradient>
<linearGradient id="paint6_linear_3459_7147" x1="47.9866" y1="5.66535" x2="69.0994" y2="28.9116" gradientUnits="userSpaceOnUse">
<stop stop-color="#D1D1D1"/>
<stop offset="1" stop-color="white"/>
</linearGradient>
<linearGradient id="paint7_linear_3459_7147" x1="49.6721" y1="3.21163" x2="69.1349" y2="31.3096" gradientUnits="userSpaceOnUse">
<stop stop-color="#424242"/>
<stop offset="1" stop-color="#8E8E8E"/>
</linearGradient>
<linearGradient id="paint8_linear_3459_7147" x1="24.9311" y1="53.3652" x2="62.8606" y2="24.8217" gradientUnits="userSpaceOnUse">
<stop stop-color="#513E61"/>
<stop offset="0.442708" stop-color="#9274AA"/>
<stop offset="1" stop-color="#EBD2FF"/>
</linearGradient>
<linearGradient id="paint9_linear_3459_7147" x1="14.7579" y1="51.6413" x2="60.4144" y2="19.6629" gradientUnits="userSpaceOnUse">
<stop stop-color="#061116"/>
<stop offset="0.189073" stop-color="#4B5358"/>
<stop offset="0.517162" stop-color="#767A7D"/>
<stop offset="0.646318" stop-color="#E7F3F9"/>
<stop offset="1" stop-color="#2D363A"/>
</linearGradient>
<linearGradient id="paint10_linear_3459_7147" x1="19.8634" y1="15.3327" x2="57.9212" y2="57.236" gradientUnits="userSpaceOnUse">
<stop stop-color="#D1D1D1"/>
<stop offset="1" stop-color="white"/>
</linearGradient>
<linearGradient id="paint11_linear_3459_7147" x1="22.9022" y1="10.9097" x2="57.9856" y2="61.5587" gradientUnits="userSpaceOnUse">
<stop stop-color="#424242"/>
<stop offset="1" stop-color="#8E8E8E"/>
</linearGradient>
<clipPath id="clip0_3459_7147">
<rect width="14.4219" height="12.7972" fill="white" transform="translate(11.0312 20.584)"/>
</clipPath>
<clipPath id="clip1_3459_7147">
<rect width="12.0295" height="10.6743" fill="white" transform="translate(52.9785 9.98633)"/>
</clipPath>
<clipPath id="clip2_3459_7147">
<rect width="21.6842" height="19.2413" fill="white" transform="translate(28.8574 23.1211)"/>
</clipPath>
</defs>
</svg>
