<svg width="184" height="142" viewBox="0 0 184 142" fill="none" xmlns="http://www.w3.org/2000/svg">
<g opacity="0.7" filter="url(#filter0_f_3052_3035)">
<path d="M30.8148 34.7363C38.3072 29.3405 48.4527 29.3405 55.9452 34.7363L73.134 47.1153C80.6264 52.5111 83.7616 62.0755 80.8997 70.8062L74.3342 90.8358C71.4723 99.5665 63.2644 105.478 54.0033 105.478H32.7567C23.4955 105.478 15.2876 99.5665 12.4258 90.8358L5.86023 70.8062C2.99838 62.0755 6.13351 52.5112 13.6259 47.1153L30.8148 34.7363Z" fill="url(#paint0_linear_3052_3035)"/>
<path d="M30.9908 34.3228C38.2858 29.0692 48.1668 29.0692 55.4617 34.3228L73.3898 47.2342C80.6816 52.4856 83.7262 61.7865 80.9448 70.2719L74.0969 91.163C71.3146 99.6508 63.3294 105.409 54.3065 105.409H32.1461C23.1232 105.409 15.138 99.6508 12.3557 91.163L5.50778 70.2719C2.72631 61.7865 5.77092 52.4856 13.0627 47.2342L30.9908 34.3228Z" stroke="url(#paint1_linear_3052_3035)" stroke-width="2.97812"/>
<path d="M31.2145 36.0697C38.3807 30.8966 48.0847 30.8966 55.2508 36.0696L71.8309 48.0383C78.9968 53.2112 81.9947 62.3797 79.2579 70.7486L72.9249 90.1143C70.188 98.4834 62.3381 104.151 53.4797 104.151H32.9857C24.1273 104.151 16.2773 98.4834 13.5405 90.1143L7.20747 70.7486C4.47066 62.3797 7.4686 53.2112 14.6345 48.0383L31.2145 36.0697Z" stroke="url(#paint2_linear_3052_3035)" stroke-width="0.348455"/>
<path d="M31.3186 36.3686C38.4226 31.2415 48.0423 31.2415 55.1462 36.3686L71.5642 48.218C78.6679 53.3449 81.6399 62.4321 78.9268 70.7269L72.6557 89.8996C69.9426 98.1945 62.1607 103.811 53.3793 103.811H33.0856C24.3041 103.811 16.5223 98.1945 13.8091 89.8996L7.53803 70.7269C4.82494 62.4322 7.79692 53.3449 14.9006 48.218L31.3186 36.3686Z" stroke="url(#paint3_linear_3052_3035)" stroke-width="0.300397"/>
<g style="mix-blend-mode:soft-light" opacity="0.6" clip-path="url(#clip0_3052_3035)">
<path d="M61.3007 50.3218L61.2963 78.7507L58.7309 76.995V58.7224L56.9772 61.3265C57.0688 61.5178 57.1559 61.7113 57.2375 61.9026C58.0228 63.7437 58.421 65.6984 58.421 67.7133C58.421 69.7281 58.0228 71.6829 57.2375 73.5239C56.567 75.096 55.6372 76.5303 54.4747 77.7876L54.4096 77.8586H50.5538L51.0557 77.4683C51.4516 77.16 51.8343 76.8233 52.1939 76.4669C54.553 74.1295 55.8523 71.0203 55.8523 67.7133C55.8523 66.4025 55.6493 65.1201 55.249 63.8923L45.2874 78.6851V73.9339L45.3249 73.8792L53.9575 61.1494C53.4589 60.3611 52.8656 59.6254 52.1939 58.9585C50.1623 56.9458 47.4932 55.6864 44.6543 55.3978L44.6466 79.6384L43.3749 81.5254L42.1044 79.6384L42.1022 75.5945L42.0956 55.3978C39.2567 55.6864 36.5876 56.9458 34.556 58.9585C33.8843 59.6254 33.291 60.3622 32.7924 61.1494L41.4625 73.9339V78.6851L31.5009 63.8923C31.1006 65.1201 30.8987 66.4025 30.8987 67.7133C30.8987 71.0203 32.198 74.1295 34.556 76.4669C34.9156 76.8222 35.2983 77.1589 35.6942 77.4683L36.1961 77.8586H32.3403L32.2752 77.7876C31.1127 76.5303 30.1829 75.096 29.5124 73.5239C28.7271 71.6829 28.3289 69.7281 28.3289 67.7133C28.3289 65.6984 28.7271 63.7437 29.5124 61.9026C29.594 61.7102 29.6822 61.5167 29.7727 61.3265L28.0201 58.7224V76.995L25.4536 78.7507L25.4492 50.3218L31.2495 58.8743C31.6984 58.2709 32.198 57.6947 32.7395 57.1579C34.1226 55.787 35.7328 54.7112 37.5262 53.9591C38.9831 53.3479 40.5195 52.9719 42.0945 52.8396V52.2897C38.8497 52.4362 35.6887 53.1457 32.702 54.3986C31.812 54.7714 30.9329 55.1955 30.0914 55.6569L29.9138 55.7542L28.4789 53.6333L28.6863 53.5174C29.658 52.9762 30.6715 52.4832 31.7017 52.0524C35.4031 50.5 39.3305 49.7129 43.3749 49.7129C47.4193 49.7129 51.3468 50.5 55.0482 52.0524C56.0784 52.4832 57.0919 52.9762 58.0636 53.5174L58.2721 53.6333L56.8361 55.7542L56.6585 55.6569C55.817 55.1955 54.9379 54.7714 54.0479 54.3986C51.0634 53.1468 47.9035 52.4373 44.6554 52.2897V52.8396C46.2315 52.9719 47.7668 53.3479 49.2248 53.9591C51.0171 54.7112 52.6273 55.787 54.0104 57.1579C54.5519 57.6936 55.0515 58.2709 55.5004 58.8743L61.3007 50.3218Z" fill="black"/>
</g>
<g style="mix-blend-mode:soft-light" opacity="0.4">
<path d="M22.3094 89.1738H21.2911V85.545H22.6668L23.2085 86.9749L23.4414 87.9119H23.5118L23.7609 86.9749L24.243 85.545H25.6187V89.1738H24.6004V87.8469L24.66 87.0669H24.5896L24.3675 87.901L24.075 88.7947H22.8347L22.5423 87.901L22.3148 87.0669H22.2444L22.3094 87.8469V89.1738ZM29.0274 89.228C27.8737 89.228 27.2021 88.4914 27.2021 87.3594C27.2021 86.2274 27.8737 85.4908 29.0274 85.4908C30.1756 85.4908 30.8472 86.2274 30.8472 87.3594C30.8472 88.4914 30.1756 89.228 29.0274 89.228ZM29.0274 88.2368C29.5852 88.2368 29.7531 88.0581 29.7531 87.3594C29.7531 86.6607 29.5852 86.482 29.0274 86.482C28.4641 86.482 28.2962 86.6607 28.2962 87.3594C28.2962 88.0581 28.4641 88.2368 29.0274 88.2368ZM34.6224 89.1738H33.2196L31.9793 85.545H33.1275L33.8966 88.0364H33.967L34.7199 85.545H35.8681L34.6224 89.1738ZM40.188 89.1738H37.2579V85.545H40.188V86.4603H38.2761V86.899H40.1068V87.8089H38.2761V88.2585H40.188V89.1738ZM43.5073 89.228C42.3374 89.228 41.7037 88.4914 41.7037 87.3594C41.7037 86.2274 42.3374 85.4908 43.5073 85.4908C44.6556 85.4908 45.2134 86.0866 45.2134 86.9315V87.0561H44.1248V87.0399C44.1248 86.6228 43.9894 86.482 43.4857 86.482C42.9657 86.482 42.7978 86.6066 42.7978 87.3594C42.7978 88.1123 42.9657 88.2368 43.4857 88.2368C43.9894 88.2368 44.1248 88.096 44.1248 87.679V87.6627H45.2134V87.7873C45.2134 88.6322 44.6556 89.228 43.5073 89.228ZM48.5744 89.228C47.4208 89.228 46.7492 88.4914 46.7492 87.3594C46.7492 86.2274 47.4208 85.4908 48.5744 85.4908C49.7227 85.4908 50.3943 86.2274 50.3943 87.3594C50.3943 88.4914 49.7227 89.228 48.5744 89.228ZM48.5744 88.2368C49.1323 88.2368 49.3002 88.0581 49.3002 87.3594C49.3002 86.6607 49.1323 86.482 48.5744 86.482C48.0111 86.482 47.8432 86.6607 47.8432 87.3594C47.8432 88.0581 48.0111 88.2368 48.5744 88.2368ZM52.984 89.1738H51.9658V85.545H52.984V89.1738ZM55.7181 89.1738H54.6998V85.545H55.7885L56.8013 87.1753L57.0396 87.6194H57.11L57.0559 87.1753V85.545H58.0687V89.1738H56.9855L56.0268 87.6627L55.7343 87.1482H55.6639L55.7181 87.6627V89.1738ZM61.2731 89.228C60.2332 89.228 59.7133 88.7405 59.7133 87.9823V87.9119H60.7153V87.9552C60.7153 88.2531 60.8236 88.3127 61.3111 88.3127C61.6956 88.3127 61.7768 88.2531 61.7768 88.096C61.7768 87.9281 61.7227 87.8739 61.4735 87.836L60.6828 87.7115C59.9462 87.5977 59.6429 87.2078 59.6429 86.6445C59.6429 85.9999 60.1357 85.4908 61.2027 85.4908C62.2156 85.4908 62.6976 85.9999 62.6976 86.677V86.769H61.6956V86.704C61.6956 86.4928 61.5927 86.4062 61.1377 86.4062C60.7532 86.4062 60.6557 86.4712 60.6557 86.6066C60.6557 86.7203 60.7261 86.769 60.9373 86.807L61.7281 86.9478C62.4972 87.0832 62.7951 87.484 62.7951 88.0473C62.7951 88.681 62.3618 89.228 61.2731 89.228Z" fill="black"/>
</g>
</g>
<g opacity="0.5" filter="url(#filter1_f_3052_3035)">
<path d="M134.204 10.8736C140.454 6.37286 148.916 6.37286 155.166 10.8736L169.503 21.199C175.753 25.6998 178.368 33.6775 175.981 40.9599L170.504 57.6667C168.117 64.9491 161.271 69.8796 153.546 69.8796H135.824C128.099 69.8796 121.253 64.9491 118.866 57.6667L113.39 40.9599C111.002 33.6775 113.617 25.6998 119.867 21.199L134.204 10.8736Z" fill="url(#paint4_linear_3052_3035)"/>
<path d="M134.347 10.5286C140.432 6.14652 148.674 6.14651 154.759 10.5286L169.713 21.2981C175.795 25.6783 178.335 33.4364 176.015 40.5141L170.303 57.9396C167.982 65.0194 161.321 69.8226 153.795 69.8226H135.311C127.785 69.8226 121.124 65.0194 118.804 57.9396L113.092 40.5142C110.772 33.4364 113.311 25.6783 119.393 21.2981L134.347 10.5286Z" stroke="url(#paint5_linear_3052_3035)" stroke-width="2.48408"/>
<path d="M134.529 11.985C140.506 7.67012 148.601 7.67011 154.578 11.985L168.408 21.9682C174.385 26.2829 176.885 33.9305 174.603 40.9111L169.32 57.0642C167.037 64.045 160.49 68.7721 153.101 68.7721H136.006C128.618 68.7721 122.07 64.045 119.787 57.0642L114.505 40.9111C112.222 33.9305 114.722 26.2829 120.7 21.9682L134.529 11.985Z" stroke="url(#paint6_linear_3052_3035)" stroke-width="0.29065"/>
<path d="M134.625 12.2361C140.551 7.95945 148.575 7.95945 154.5 12.2361L168.195 22.1197C174.12 26.3962 176.599 33.9759 174.336 40.8947L169.105 56.8868C166.842 63.8057 160.351 68.4909 153.026 68.4909H136.099C128.775 68.4909 122.284 63.8057 120.021 56.8868L114.79 40.8947C112.527 33.9759 115.006 26.3962 120.931 22.1197L134.625 12.2361Z" stroke="url(#paint7_linear_3052_3035)" stroke-width="0.250565"/>
<g style="mix-blend-mode:soft-light" opacity="0.6" clip-path="url(#clip1_3052_3035)">
<path d="M159.635 23.8732L159.631 47.586L157.491 46.1215V30.8801L156.028 33.0523C156.105 33.2118 156.177 33.3732 156.245 33.5328C156.9 35.0685 157.233 36.6989 157.233 38.3795C157.233 40.0601 156.9 41.6906 156.245 43.2262C155.686 44.5375 154.911 45.7339 153.941 46.7826L153.887 46.8419H150.67L151.089 46.5163C151.419 46.2592 151.739 45.9783 152.038 45.681C154.006 43.7314 155.09 41.138 155.09 38.3795C155.09 37.2862 154.921 36.2165 154.587 35.1925L146.278 47.5313V43.5682L146.309 43.5226L153.509 32.9045C153.094 32.2471 152.599 31.6334 152.038 31.0771C150.344 29.3983 148.118 28.3478 145.75 28.1071L145.743 48.3264L144.683 49.9004L143.623 48.3264L143.621 44.9534L143.615 28.1071C141.247 28.3478 139.021 29.3983 137.327 31.0771C136.766 31.6334 136.271 32.248 135.856 32.9045L143.087 43.5682V47.5313L134.778 35.1925C134.444 36.2165 134.276 37.2862 134.276 38.3795C134.276 41.138 135.36 43.7314 137.327 45.681C137.626 45.9774 137.946 46.2583 138.276 46.5163L138.695 46.8419H135.478L135.424 46.7826C134.454 45.7339 133.679 44.5375 133.12 43.2262C132.465 41.6906 132.132 40.0601 132.132 38.3795C132.132 36.6989 132.465 35.0685 133.12 33.5328C133.188 33.3723 133.261 33.2109 133.337 33.0523L131.875 30.8801V46.1215L129.734 47.586L129.73 23.8732L134.569 31.0069C134.943 30.5035 135.36 30.023 135.811 29.5752C136.965 28.4317 138.308 27.5344 139.804 26.907C141.019 26.3973 142.301 26.0836 143.614 25.9732V25.5146C140.908 25.6368 138.271 26.2286 135.78 27.2736C135.038 27.5846 134.304 27.9384 133.603 28.3232L133.454 28.4043L132.258 26.6353L132.431 26.5386C133.241 26.0872 134.086 25.676 134.946 25.3167C138.033 24.0218 141.309 23.3652 144.683 23.3652C148.056 23.3652 151.332 24.0218 154.419 25.3167C155.279 25.676 156.124 26.0872 156.934 26.5386L157.108 26.6353L155.911 28.4043L155.762 28.3232C155.061 27.9384 154.327 27.5846 153.585 27.2736C151.096 26.2295 148.46 25.6377 145.751 25.5146V25.9732C147.065 26.0836 148.346 26.3973 149.562 26.907C151.057 27.5344 152.4 28.4317 153.554 29.5752C154.005 30.022 154.422 30.5035 154.797 31.0069L159.635 23.8732Z" fill="black"/>
</g>
<g style="mix-blend-mode:soft-light" opacity="0.4">
<path d="M127.109 56.1104H126.26V53.0835H127.407L127.859 54.2762L128.053 55.0577H128.112L128.32 54.2762L128.722 53.0835H129.869V56.1104H129.02V55.0035L129.07 54.353H129.011L128.826 55.0487L128.582 55.7941H127.547L127.303 55.0487L127.114 54.353H127.055L127.109 55.0035V56.1104ZM132.713 56.1555C131.75 56.1555 131.19 55.5411 131.19 54.5969C131.19 53.6527 131.75 53.0383 132.713 53.0383C133.67 53.0383 134.231 53.6527 134.231 54.5969C134.231 55.5411 133.67 56.1555 132.713 56.1555ZM132.713 55.3288C133.178 55.3288 133.318 55.1797 133.318 54.5969C133.318 54.0141 133.178 53.8651 132.713 53.8651C132.243 53.8651 132.103 54.0141 132.103 54.5969C132.103 55.1797 132.243 55.3288 132.713 55.3288ZM137.379 56.1104H136.209L135.175 53.0835H136.133L136.774 55.1616H136.833L137.461 53.0835H138.418L137.379 56.1104ZM142.022 56.1104H139.578V53.0835H142.022V53.847H140.427V54.2129H141.954V54.9719H140.427V55.3469H142.022V56.1104ZM144.79 56.1555C143.815 56.1555 143.286 55.5411 143.286 54.5969C143.286 53.6527 143.815 53.0383 144.79 53.0383C145.748 53.0383 146.214 53.5353 146.214 54.24V54.3439H145.305V54.3304C145.305 53.9825 145.193 53.8651 144.772 53.8651C144.339 53.8651 144.199 53.969 144.199 54.5969C144.199 55.2249 144.339 55.3288 144.772 55.3288C145.193 55.3288 145.305 55.2113 145.305 54.8635V54.8499H146.214V54.9538C146.214 55.6586 145.748 56.1555 144.79 56.1555ZM149.017 56.1555C148.055 56.1555 147.495 55.5411 147.495 54.5969C147.495 53.6527 148.055 53.0383 149.017 53.0383C149.975 53.0383 150.535 53.6527 150.535 54.5969C150.535 55.5411 149.975 56.1555 149.017 56.1555ZM149.017 55.3288C149.482 55.3288 149.622 55.1797 149.622 54.5969C149.622 54.0141 149.482 53.8651 149.017 53.8651C148.547 53.8651 148.407 54.0141 148.407 54.5969C148.407 55.1797 148.547 55.3288 149.017 55.3288ZM152.695 56.1104H151.846V53.0835H152.695V56.1104ZM154.976 56.1104H154.126V53.0835H155.034L155.879 54.4433L156.078 54.8138H156.137L156.091 54.4433V53.0835H156.936V56.1104H156.033L155.233 54.8499L154.989 54.4207H154.93L154.976 54.8499V56.1104ZM159.609 56.1555C158.742 56.1555 158.308 55.7489 158.308 55.1165V55.0577H159.144V55.0939C159.144 55.3423 159.234 55.392 159.641 55.392C159.961 55.392 160.029 55.3423 160.029 55.2113C160.029 55.0713 159.984 55.0261 159.776 54.9945L159.117 54.8906C158.502 54.7957 158.249 54.4704 158.249 54.0006C158.249 53.463 158.66 53.0383 159.55 53.0383C160.395 53.0383 160.797 53.463 160.797 54.0277V54.1045H159.961V54.0503C159.961 53.8741 159.876 53.8018 159.496 53.8018C159.175 53.8018 159.094 53.856 159.094 53.969C159.094 54.0638 159.153 54.1045 159.329 54.1361L159.989 54.2536C160.63 54.3665 160.879 54.7008 160.879 55.1707C160.879 55.6992 160.517 56.1555 159.609 56.1555Z" fill="black"/>
</g>
</g>
<path d="M77.8147 33.4988C89.08 25.3858 104.334 25.3858 115.6 33.4988L141.444 52.1113C152.709 60.2242 157.423 74.6048 153.12 87.7319L143.249 117.848C138.946 130.975 126.605 139.862 112.68 139.862H80.7345C66.8098 139.862 54.4687 130.975 50.1658 117.848L40.2941 87.7319C35.9911 74.6049 40.705 60.2242 51.9703 52.1113L77.8147 33.4988Z" fill="url(#paint8_linear_3052_3035)"/>
<path d="M78.0858 32.879C89.0542 24.9799 103.911 24.9799 114.879 32.879L141.835 52.292C152.799 60.1878 157.377 74.1723 153.194 86.9306L142.898 118.341C138.715 131.103 126.709 139.762 113.142 139.762H79.8228C66.2564 139.762 54.2501 131.103 50.0669 118.341L39.7706 86.9306C35.5885 74.1723 40.1662 60.1878 51.1299 52.292L78.0858 32.879Z" stroke="url(#paint9_linear_3052_3035)" stroke-width="4.47777"/>
<path d="M78.4192 35.5056C89.1939 27.7276 103.784 27.7276 114.559 35.5056L139.488 53.5012C150.263 61.2789 154.77 75.0643 150.655 87.6474L141.133 116.765C137.018 129.348 125.215 137.869 111.896 137.869H81.0822C67.7631 137.869 55.9603 129.348 51.8452 116.765L42.3232 87.6474C38.2082 75.0643 42.7158 61.2789 53.4902 53.5012L78.4192 35.5056Z" stroke="url(#paint10_linear_3052_3035)" stroke-width="0.523922"/>
<path d="M78.5803 35.9548C89.2615 28.2459 103.725 28.2459 114.406 35.9548L139.092 53.771C149.773 61.4797 154.241 75.1428 150.162 87.6144L140.733 116.442C136.654 128.914 124.953 137.359 111.75 137.359H81.237C68.0336 137.359 56.3331 128.914 52.2538 116.442L42.8248 87.6145C38.7455 75.1429 43.214 61.4797 53.8949 53.771L78.5803 35.9548Z" stroke="url(#paint11_linear_3052_3035)" stroke-width="0.451665"/>
<g style="mix-blend-mode:soft-light" clip-path="url(#clip2_3052_3035)">
<path d="M123.659 56.9341L123.652 99.6786L119.795 97.0387V69.5648L117.158 73.4803C117.296 73.7679 117.427 74.0589 117.549 74.3465C118.73 77.1146 119.329 80.0537 119.329 83.0831C119.329 86.1126 118.73 89.0516 117.549 91.8197C116.541 94.1835 115.143 96.3401 113.395 98.2304L113.298 98.3373H107.5L108.255 97.7504C108.85 97.2869 109.425 96.7806 109.966 96.2448C113.513 92.7304 115.467 88.0555 115.467 83.0831C115.467 81.1123 115.161 79.1841 114.56 77.3382L99.5818 99.58V92.4362L99.6381 92.354L112.618 73.214C111.868 72.0288 110.976 70.9226 109.966 69.9199C106.911 66.8937 102.898 65.0001 98.6299 64.5661L98.6183 101.013L96.7063 103.85L94.7959 101.013L94.7926 94.933L94.7826 64.5661C90.5142 65.0001 86.5011 66.8937 83.4465 69.9199C82.4366 70.9226 81.5444 72.0305 80.7949 73.214L93.8308 92.4362V99.58L78.853 77.3382C78.251 79.1841 77.9476 81.1123 77.9476 83.0831C77.9476 88.0555 79.901 92.7304 83.4465 96.2448C83.9871 96.779 84.5625 97.2853 85.1579 97.7504L85.9124 98.3373H80.115L80.0171 98.2304C78.2693 96.3401 76.8713 94.1835 75.8631 91.8197C74.6824 89.0516 74.0837 86.1126 74.0837 83.0831C74.0837 80.0537 74.6824 77.1146 75.8631 74.3465C75.9858 74.0572 76.1185 73.7663 76.2544 73.4803L73.6194 69.5648V97.0387L69.7605 99.6786L69.7539 56.9341L78.4749 69.7933C79.1498 68.8859 79.901 68.0197 80.7153 67.2126C82.7948 65.1513 85.2159 63.5338 87.9123 62.4029C90.1029 61.4841 92.4129 60.9186 94.781 60.7197V59.8929C89.9023 60.1132 85.1496 61.18 80.6589 63.0637C79.3206 63.6243 77.999 64.262 76.7337 64.9557L76.4667 65.102L74.3093 61.9131L74.621 61.7389C76.082 60.9252 77.606 60.1839 79.1548 59.5362C84.7201 57.2021 90.6253 56.0186 96.7063 56.0186C102.787 56.0186 108.692 57.2021 114.258 59.5362C115.807 60.1839 117.331 60.9252 118.792 61.7389L119.105 61.9131L116.946 65.102L116.679 64.9557C115.414 64.262 114.092 63.6243 112.754 63.0637C108.266 61.1816 103.515 60.1148 98.6316 59.8929V60.7197C101.001 60.9186 103.31 61.4841 105.502 62.4029C108.197 63.5338 110.618 65.1513 112.697 67.2126C113.511 68.018 114.263 68.8859 114.938 69.7933L123.659 56.9341Z" fill="black"/>
</g>
<g style="mix-blend-mode:soft-light" opacity="0.9">
<path d="M65.0309 115.832H63.4999V110.376H65.5683L66.3827 112.526L66.7329 113.935H66.8387L67.2133 112.526L67.9381 110.376H70.0066V115.832H68.4756V113.837L68.5652 112.664H68.4593L68.1254 113.918L67.6857 115.262H65.8208L65.381 113.918L65.039 112.664H64.9331L65.0309 113.837V115.832ZM75.1317 115.913C73.3972 115.913 72.3874 114.806 72.3874 113.104C72.3874 111.402 73.3972 110.294 75.1317 110.294C76.8582 110.294 77.868 111.402 77.868 113.104C77.868 114.806 76.8582 115.913 75.1317 115.913ZM75.1317 114.423C75.9705 114.423 76.223 114.154 76.223 113.104C76.223 112.053 75.9705 111.785 75.1317 111.785C74.2848 111.785 74.0324 112.053 74.0324 113.104C74.0324 114.154 74.2848 114.423 75.1317 114.423ZM83.5442 115.832H81.435L79.5701 110.376H81.2965L82.4529 114.122H82.5588L83.6908 110.376H85.4172L83.5442 115.832ZM91.9124 115.832H87.5068V110.376H91.9124V111.752H89.0378V112.412H91.7903V113.78H89.0378V114.456H91.9124V115.832ZM96.9032 115.913C95.1442 115.913 94.1914 114.806 94.1914 113.104C94.1914 111.402 95.1442 110.294 96.9032 110.294C98.6296 110.294 99.4684 111.19 99.4684 112.461V112.648H97.8315V112.623C97.8315 111.996 97.628 111.785 96.8706 111.785C96.0888 111.785 95.8364 111.972 95.8364 113.104C95.8364 114.236 96.0888 114.423 96.8706 114.423C97.628 114.423 97.8315 114.211 97.8315 113.584V113.56H99.4684V113.747C99.4684 115.018 98.6296 115.913 96.9032 115.913ZM104.522 115.913C102.787 115.913 101.777 114.806 101.777 113.104C101.777 111.402 102.787 110.294 104.522 110.294C106.248 110.294 107.258 111.402 107.258 113.104C107.258 114.806 106.248 115.913 104.522 115.913ZM104.522 114.423C105.361 114.423 105.613 114.154 105.613 113.104C105.613 112.053 105.361 111.785 104.522 111.785C103.675 111.785 103.422 112.053 103.422 113.104C103.422 114.154 103.675 114.423 104.522 114.423ZM111.152 115.832H109.621V110.376H111.152V115.832ZM115.263 115.832H113.732V110.376H115.369L116.891 112.827L117.25 113.495H117.356L117.274 112.827V110.376H118.797V115.832H117.168L115.727 113.56L115.287 112.786H115.181L115.263 113.56V115.832ZM123.615 115.913C122.052 115.913 121.27 115.181 121.27 114.04V113.935H122.776V114C122.776 114.448 122.939 114.537 123.672 114.537C124.25 114.537 124.372 114.448 124.372 114.211C124.372 113.959 124.291 113.878 123.916 113.821L122.727 113.633C121.62 113.462 121.164 112.876 121.164 112.029C121.164 111.06 121.905 110.294 123.509 110.294C125.032 110.294 125.757 111.06 125.757 112.078V112.216H124.25V112.119C124.25 111.801 124.096 111.671 123.412 111.671C122.833 111.671 122.687 111.768 122.687 111.972C122.687 112.143 122.793 112.216 123.11 112.273L124.299 112.485C125.456 112.689 125.903 113.291 125.903 114.138C125.903 115.091 125.252 115.913 123.615 115.913Z" fill="black"/>
</g>
<defs>
<filter id="filter0_f_3052_3035" x="0.214115" y="26.1077" width="86.0249" height="83.5767" filterUnits="userSpaceOnUse" color-interpolation-filters="sRGB">
<feFlood flood-opacity="0" result="BackgroundImageFix"/>
<feBlend mode="normal" in="SourceGraphic" in2="BackgroundImageFix" result="shape"/>
<feGaussianBlur stdDeviation="1.39294" result="effect1_foregroundBlur_3052_3035"/>
</filter>
<filter id="filter1_f_3052_3035" x="105.428" y="0.428229" width="78.249" height="76.208" filterUnits="userSpaceOnUse" color-interpolation-filters="sRGB">
<feFlood flood-opacity="0" result="BackgroundImageFix"/>
<feBlend mode="normal" in="SourceGraphic" in2="BackgroundImageFix" result="shape"/>
<feGaussianBlur stdDeviation="2.78589" result="effect1_foregroundBlur_3052_3035"/>
</filter>
<linearGradient id="paint0_linear_3052_3035" x1="18.9651" y1="99.7183" x2="81.6757" y2="52.5259" gradientUnits="userSpaceOnUse">
<stop stop-color="#513E61"/>
<stop offset="0.442708" stop-color="#9274AA"/>
<stop offset="1" stop-color="#EBD2FF"/>
</linearGradient>
<linearGradient id="paint1_linear_3052_3035" x1="2.13801" y1="96.8692" x2="77.6239" y2="43.9977" gradientUnits="userSpaceOnUse">
<stop stop-color="#061116"/>
<stop offset="0.189073" stop-color="#4B5358"/>
<stop offset="0.517162" stop-color="#767A7D"/>
<stop offset="0.646318" stop-color="#E7F3F9"/>
<stop offset="1" stop-color="#2D363A"/>
</linearGradient>
<linearGradient id="paint2_linear_3052_3035" x1="10.5781" y1="36.8362" x2="73.5008" y2="106.117" gradientUnits="userSpaceOnUse">
<stop stop-color="#D1D1D1"/>
<stop offset="1" stop-color="white"/>
</linearGradient>
<linearGradient id="paint3_linear_3052_3035" x1="15.604" y1="29.5258" x2="73.6089" y2="113.266" gradientUnits="userSpaceOnUse">
<stop stop-color="#424242"/>
<stop offset="1" stop-color="#8E8E8E"/>
</linearGradient>
<linearGradient id="paint4_linear_3052_3035" x1="124.32" y1="65.0757" x2="176.628" y2="25.712" gradientUnits="userSpaceOnUse">
<stop stop-color="#513E61"/>
<stop offset="0.442708" stop-color="#9274AA"/>
<stop offset="1" stop-color="#EBD2FF"/>
</linearGradient>
<linearGradient id="paint5_linear_3052_3035" x1="110.281" y1="62.6992" x2="173.245" y2="18.5986" gradientUnits="userSpaceOnUse">
<stop stop-color="#061116"/>
<stop offset="0.189073" stop-color="#4B5358"/>
<stop offset="0.517162" stop-color="#767A7D"/>
<stop offset="0.646318" stop-color="#E7F3F9"/>
<stop offset="1" stop-color="#2D363A"/>
</linearGradient>
<linearGradient id="paint6_linear_3052_3035" x1="117.316" y1="12.6244" x2="169.8" y2="70.4122" gradientUnits="userSpaceOnUse">
<stop stop-color="#D1D1D1"/>
<stop offset="1" stop-color="white"/>
</linearGradient>
<linearGradient id="paint7_linear_3052_3035" x1="121.518" y1="6.52838" x2="169.9" y2="76.377" gradientUnits="userSpaceOnUse">
<stop stop-color="#424242"/>
<stop offset="1" stop-color="#8E8E8E"/>
</linearGradient>
<linearGradient id="paint8_linear_3052_3035" x1="59.998" y1="131.203" x2="154.287" y2="60.2463" gradientUnits="userSpaceOnUse">
<stop stop-color="#513E61"/>
<stop offset="0.442708" stop-color="#9274AA"/>
<stop offset="1" stop-color="#EBD2FF"/>
</linearGradient>
<linearGradient id="paint9_linear_3052_3035" x1="34.7039" y1="126.921" x2="148.201" y2="47.4258" gradientUnits="userSpaceOnUse">
<stop stop-color="#061116"/>
<stop offset="0.189073" stop-color="#4B5358"/>
<stop offset="0.517162" stop-color="#767A7D"/>
<stop offset="0.646318" stop-color="#E7F3F9"/>
<stop offset="1" stop-color="#2D363A"/>
</linearGradient>
<linearGradient id="paint10_linear_3052_3035" x1="47.3911" y1="36.6582" x2="141.999" y2="140.826" gradientUnits="userSpaceOnUse">
<stop stop-color="#D1D1D1"/>
<stop offset="1" stop-color="white"/>
</linearGradient>
<linearGradient id="paint11_linear_3052_3035" x1="54.9524" y1="25.6662" x2="142.166" y2="151.575" gradientUnits="userSpaceOnUse">
<stop stop-color="#424242"/>
<stop offset="1" stop-color="#8E8E8E"/>
</linearGradient>
<clipPath id="clip0_3052_3035">
<rect width="35.8515" height="31.8125" fill="white" transform="translate(25.4492 49.7129)"/>
</clipPath>
<clipPath id="clip1_3052_3035">
<rect width="29.9041" height="26.5351" fill="white" transform="translate(129.73 23.3652)"/>
</clipPath>
<clipPath id="clip2_3052_3035">
<rect width="53.9047" height="47.8319" fill="white" transform="translate(69.7539 56.0186)"/>
</clipPath>
</defs>
</svg>
