
<svg width="51" height="35" viewBox="0 0 51 35" fill="none" xmlns="http://www.w3.org/2000/svg">
<path d="M34.774 18C35.5233 18 36.1193 17.5285 36.6545 16.8691C37.7499 15.5194 35.9513 14.4408 35.2654 13.9126C34.568 13.3756 33.7894 13.0714 33 13M32 11C33.3807 11 34.5 9.88071 34.5 8.5C34.5 7.11929 33.3807 6 32 6" stroke="#DDF988" stroke-width="1.8" stroke-linecap="round"/>
<path d="M17.226 18C16.4767 18 15.8807 17.5285 15.3455 16.8691C14.2501 15.5194 16.0487 14.4408 16.7346 13.9126C17.432 13.3756 18.2106 13.0714 19 13M19.5 11C18.1193 11 17 9.88071 17 8.5C17 7.11929 18.1193 6 19.5 6" stroke="#DDF988" stroke-width="1.8" stroke-linecap="round"/>
<path d="M22.0838 15.1112C21.062 15.743 18.383 17.0331 20.0147 18.6474C20.8118 19.436 21.6995 20 22.8156 20H29.1844C30.3005 20 31.1882 19.436 31.9853 18.6474C33.617 17.0331 30.938 15.743 29.9162 15.1112C27.5201 13.6296 24.4799 13.6296 22.0838 15.1112Z" stroke="#DDF988" stroke-width="1.8" stroke-linecap="round" stroke-linejoin="round"/>
<path d="M29.5 7.5C29.5 9.433 27.933 11 26 11C24.067 11 22.5 9.433 22.5 7.5C22.5 5.567 24.067 4 26 4C27.933 4 29.5 5.567 29.5 7.5Z" stroke="#DDF988" stroke-width="1.8"/>
<path d="M6.74822 28.663H5.55291C5.51882 28.467 5.45597 28.2933 5.36435 28.142C5.27273 27.9886 5.15874 27.8587 5.02237 27.7521C4.88601 27.6456 4.73047 27.5657 4.55575 27.5124C4.38317 27.457 4.19673 27.4293 3.99645 27.4293C3.64063 27.4293 3.32528 27.5188 3.05043 27.6978C2.77557 27.8746 2.56037 28.1346 2.40483 28.4776C2.24929 28.8185 2.17152 29.2351 2.17152 29.7273C2.17152 30.228 2.24929 30.6499 2.40483 30.9929C2.5625 31.3338 2.7777 31.5916 3.05043 31.7663C3.32528 31.9389 3.63956 32.0252 3.99325 32.0252C4.18928 32.0252 4.37251 31.9996 4.54297 31.9485C4.71555 31.8952 4.87003 31.8175 5.00639 31.7152C5.14489 31.6129 5.26101 31.4872 5.35476 31.3381C5.45064 31.1889 5.51669 31.0185 5.55291 30.8267L6.74822 30.8331C6.70348 31.1442 6.60653 31.4361 6.45739 31.7088C6.31037 31.9815 6.11754 32.2223 5.87891 32.4311C5.64027 32.6378 5.36115 32.7997 5.04155 32.9169C4.72195 33.032 4.36719 33.0895 3.97727 33.0895C3.40199 33.0895 2.88849 32.9563 2.43679 32.69C1.98509 32.4237 1.62926 32.0391 1.36932 31.5362C1.10938 31.0334 0.979403 30.4304 0.979403 29.7273C0.979403 29.022 1.11044 28.419 1.37251 27.9183C1.63459 27.4155 1.99148 27.0309 2.44318 26.7646C2.89489 26.4982 3.40625 26.3651 3.97727 26.3651C4.34162 26.3651 4.6804 26.4162 4.99361 26.5185C5.30682 26.6207 5.58594 26.771 5.83097 26.9691C6.07599 27.1651 6.27734 27.4059 6.43501 27.6914C6.59482 27.9748 6.69922 28.2987 6.74822 28.663ZM9.92427 33.0959C9.44487 33.0959 9.02939 32.9904 8.67782 32.7795C8.32626 32.5685 8.05353 32.2734 7.85964 31.8942C7.66788 31.5149 7.572 31.0717 7.572 30.5646C7.572 30.0575 7.66788 29.6133 7.85964 29.2319C8.05353 28.8505 8.32626 28.5543 8.67782 28.3434C9.02939 28.1325 9.44487 28.027 9.92427 28.027C10.4037 28.027 10.8192 28.1325 11.1707 28.3434C11.5223 28.5543 11.7939 28.8505 11.9857 29.2319C12.1796 29.6133 12.2765 30.0575 12.2765 30.5646C12.2765 31.0717 12.1796 31.5149 11.9857 31.8942C11.7939 32.2734 11.5223 32.5685 11.1707 32.7795C10.8192 32.9904 10.4037 33.0959 9.92427 33.0959ZM9.93066 32.169C10.1906 32.169 10.4079 32.0977 10.5827 31.9549C10.7574 31.81 10.8873 31.6161 10.9726 31.3732C11.0599 31.1303 11.1036 30.8597 11.1036 30.5614C11.1036 30.261 11.0599 29.9893 10.9726 29.7464C10.8873 29.5014 10.7574 29.3065 10.5827 29.1616C10.4079 29.0167 10.1906 28.9442 9.93066 28.9442C9.66433 28.9442 9.44274 29.0167 9.26589 29.1616C9.09118 29.3065 8.96014 29.5014 8.87278 29.7464C8.78755 29.9893 8.74494 30.261 8.74494 30.5614C8.74494 30.8597 8.78755 31.1303 8.87278 31.3732C8.96014 31.6161 9.09118 31.81 9.26589 31.9549C9.44274 32.0977 9.66433 32.169 9.93066 32.169ZM13.2585 33V28.0909H14.3643V28.9251H14.4219C14.5241 28.6438 14.6935 28.4244 14.93 28.2667C15.1665 28.1069 15.4489 28.027 15.777 28.027C16.1094 28.027 16.3896 28.108 16.6175 28.2699C16.8477 28.4297 17.0096 28.6481 17.1033 28.9251H17.1545C17.2631 28.6523 17.4464 28.435 17.7042 28.2731C17.9641 28.109 18.272 28.027 18.6278 28.027C19.0795 28.027 19.4482 28.1697 19.7337 28.4553C20.0192 28.7408 20.1619 29.1573 20.1619 29.7049V33H19.0018V29.8839C19.0018 29.5792 18.9208 29.3565 18.7589 29.2159C18.5969 29.0732 18.3988 29.0018 18.1644 29.0018C17.8853 29.0018 17.6669 29.0891 17.5092 29.2638C17.3537 29.4364 17.2759 29.6612 17.2759 29.9382V33H16.1413V29.8359C16.1413 29.5824 16.0646 29.38 15.9112 29.2287C15.7599 29.0774 15.5618 29.0018 15.3168 29.0018C15.1506 29.0018 14.9993 29.0444 14.8629 29.1296C14.7266 29.2127 14.6179 29.331 14.5369 29.4844C14.456 29.6357 14.4155 29.8125 14.4155 30.0149V33H13.2585ZM21.3357 33V28.0909H22.4415V28.9251H22.499C22.6013 28.6438 22.7707 28.4244 23.0072 28.2667C23.2437 28.1069 23.526 28.027 23.8541 28.027C24.1865 28.027 24.4667 28.108 24.6947 28.2699C24.9248 28.4297 25.0867 28.6481 25.1805 28.9251H25.2316C25.3403 28.6523 25.5235 28.435 25.7813 28.2731C26.0413 28.109 26.3492 28.027 26.705 28.027C27.1567 28.027 27.5253 28.1697 27.8108 28.4553C28.0963 28.7408 28.2391 29.1573 28.2391 29.7049V33H27.0789V29.8839C27.0789 29.5792 26.998 29.3565 26.836 29.2159C26.6741 29.0732 26.4759 29.0018 26.2416 29.0018C25.9624 29.0018 25.7441 29.0891 25.5864 29.2638C25.4308 29.4364 25.3531 29.6612 25.3531 29.9382V33H24.2185V29.8359C24.2185 29.5824 24.1418 29.38 23.9884 29.2287C23.8371 29.0774 23.6389 29.0018 23.3939 29.0018C23.2277 29.0018 23.0764 29.0444 22.9401 29.1296C22.8037 29.2127 22.695 29.331 22.6141 29.4844C22.5331 29.6357 22.4926 29.8125 22.4926 30.0149V33H21.3357ZM32.5417 30.9354V28.0909H33.6987V33H32.5769V32.1275H32.5257C32.415 32.4023 32.2328 32.6271 31.9792 32.8018C31.7278 32.9766 31.4178 33.0639 31.0492 33.0639C30.7275 33.0639 30.443 32.9925 30.1958 32.8498C29.9508 32.7049 29.7591 32.495 29.6206 32.2202C29.4821 31.9432 29.4128 31.6087 29.4128 31.2166V28.0909H30.5698V31.0376C30.5698 31.3487 30.655 31.5959 30.8255 31.7791C30.9959 31.9624 31.2196 32.054 31.4966 32.054C31.6671 32.054 31.8322 32.0124 31.992 31.9293C32.1518 31.8462 32.2828 31.7227 32.3851 31.5586C32.4895 31.3924 32.5417 31.1847 32.5417 30.9354ZM36.0454 30.1236V33H34.8884V28.0909H35.9942V28.9251H36.0518C36.1647 28.6502 36.3447 28.4318 36.5919 28.2699C36.8412 28.108 37.1491 28.027 37.5155 28.027C37.8543 28.027 38.1494 28.0994 38.4008 28.2443C38.6544 28.3892 38.8504 28.5991 38.9889 28.8739C39.1295 29.1488 39.1988 29.4822 39.1966 29.8743V33H38.0397V30.0533C38.0397 29.7251 37.9545 29.4684 37.784 29.283C37.6157 29.0977 37.3824 29.005 37.0841 29.005C36.8817 29.005 36.7016 29.0497 36.5439 29.1392C36.3884 29.2266 36.2659 29.3533 36.1764 29.5195C36.089 29.6857 36.0454 29.8871 36.0454 30.1236ZM40.3728 33V28.0909H41.5297V33H40.3728ZM40.9545 27.3942C40.7712 27.3942 40.6135 27.3335 40.4814 27.212C40.3493 27.0884 40.2833 26.9403 40.2833 26.7678C40.2833 26.593 40.3493 26.445 40.4814 26.3235C40.6135 26.1999 40.7712 26.1381 40.9545 26.1381C41.1398 26.1381 41.2975 26.1999 41.4275 26.3235C41.5596 26.445 41.6256 26.593 41.6256 26.7678C41.6256 26.9403 41.5596 27.0884 41.4275 27.212C41.2975 27.3335 41.1398 27.3942 40.9545 27.3942ZM45.1708 28.0909V28.9858H42.3487V28.0909H45.1708ZM43.0455 26.9148H44.2024V31.5234C44.2024 31.679 44.2259 31.7983 44.2727 31.8814C44.3217 31.9624 44.3857 32.0178 44.4645 32.0476C44.5433 32.0774 44.6307 32.0923 44.7266 32.0923C44.799 32.0923 44.8651 32.087 44.9247 32.0763C44.9865 32.0657 45.0334 32.0561 45.0653 32.0476L45.2603 32.9521C45.1985 32.9734 45.1101 32.9968 44.995 33.0224C44.8821 33.0479 44.7436 33.0629 44.5795 33.0671C44.2898 33.0756 44.0288 33.032 43.7965 32.9361C43.5643 32.8381 43.38 32.6868 43.2436 32.4822C43.1094 32.2777 43.0433 32.022 43.0455 31.7152V26.9148ZM46.8575 34.8409C46.6998 34.8409 46.5539 34.8281 46.4197 34.8026C46.2876 34.7791 46.1821 34.7514 46.1032 34.7195L46.3717 33.8182C46.54 33.8672 46.6903 33.8906 46.8224 33.8885C46.9545 33.8864 47.0706 33.8448 47.1707 33.7638C47.273 33.685 47.3593 33.5529 47.4296 33.3675L47.5287 33.1023L45.7485 28.0909H46.9758L48.1072 31.7983H48.1583L49.2929 28.0909H50.5233L48.5578 33.5945C48.4662 33.8544 48.3447 34.0771 48.1934 34.2624C48.0422 34.4499 47.8568 34.5927 47.6373 34.6907C47.42 34.7908 47.1601 34.8409 46.8575 34.8409Z" fill="#DDF988"/>
</svg>