<svg width="24" height="24" viewBox="0 0 24 24" fill="none" xmlns="http://www.w3.org/2000/svg">
<g id="Community">
<path id="Union" fill-rule="evenodd" clip-rule="evenodd" d="M1 23.4999H5.79465V9.60527C5.43933 9.50237 5.06029 9.44678 4.66678 9.44678C2.68096 9.44678 1.06384 10.8625 1.00184 12.6299H1V12.7352V23.4999ZM4.66678 8.0768C5.06029 8.0768 5.43933 8.02121 5.79465 7.91831V1.65849C5.43933 1.55559 5.06029 1.5 4.66678 1.5C2.64167 1.5 1 2.97227 1 4.7884C1 6.60454 2.64167 8.0768 4.66678 8.0768ZM18.2071 23.5001H23.0017V12.7354V12.6301H22.9999C22.9379 10.8627 21.3208 9.44702 19.335 9.44702C18.9414 9.44702 18.5624 9.50261 18.2071 9.60552V23.5001ZM18.2071 7.91831C18.5624 8.02121 18.9414 8.0768 19.335 8.0768C21.3601 8.0768 23.0017 6.60454 23.0017 4.7884C23.0017 2.97227 21.3601 1.5 19.335 1.5C18.9414 1.5 18.5624 1.55559 18.2071 1.65849V7.91831ZM15.6676 4.78865C15.6676 6.60478 14.0259 8.07705 12.0008 8.07705C9.97572 8.07705 8.33404 6.60478 8.33404 4.78865C8.33404 2.97251 9.97572 1.50024 12.0008 1.50024C14.0259 1.50024 15.6676 2.97251 15.6676 4.78865ZM15.6658 12.6301C15.6038 10.8627 13.9867 9.44702 12.0008 9.44702C10.015 9.44702 8.39788 10.8627 8.33589 12.6301H8.33404V12.7354V23.5001H15.6676V12.7354V12.6301H15.6658Z" fill="#4D4D4D"/>
</g>
</svg>
