<svg width="194" height="135" viewBox="0 0 194 135" fill="none" xmlns="http://www.w3.org/2000/svg">
<path d="M121.756 54.9043C121.111 58.5251 117.653 60.9373 114.032 60.2921C110.411 59.6469 107.999 56.1886 108.644 52.5678C109.289 48.947 112.748 46.5348 116.369 47.18C119.989 47.8252 122.402 51.2834 121.756 54.9043Z" stroke="black" stroke-width="6.65933"/>
<path d="M107.186 95.1474L111.736 93.4961C116.917 91.6156 119.508 90.6753 120.17 88.7955C120.274 88.5019 120.341 88.198 120.372 87.8889C120.566 85.9103 118.606 84.0094 114.686 80.2077L96.5872 62.6556C89.4789 55.7619 79.2804 42.7869 86.2756 36.4072" stroke="black" stroke-width="6.65933" stroke-linecap="round" stroke-linejoin="round"/>
<path d="M96.5922 62.6552C83.7184 71.6349 72.9719 100.92 70.3488 115.64M96.5922 62.6552C89.4839 55.7615 79.2734 42.7844 86.2686 36.4047M96.5922 62.6552L106.768 72.5243M107.191 95.1471L111.741 93.4957C116.923 91.6152 119.513 90.675 120.176 88.7952C120.279 88.5016 120.346 88.1977 120.377 87.8886C120.571 85.91 118.611 84.0091 114.691 80.2074L106.768 72.5243M105.315 121.871C101.945 116.15 98.7886 108.531 95.6478 101.468C93.4473 96.5195 92.3471 94.0452 92.5826 91.7017M106.768 72.5243C102.451 76.4407 99.2675 80.3001 96.7787 83.7956C94.1383 87.5041 92.8181 89.3583 92.5826 91.7017M92.5826 91.7017L80.1716 85.8229" stroke="black" stroke-width="6.65933" stroke-linecap="round" stroke-linejoin="round"/>
<path d="M95.9243 37.041C94.7745 36.9068 93.7955 36.3415 93.1152 35.3942C90.9304 32.3519 88.0069 30.4371 84.3449 29.6499C83.2047 29.4048 82.2954 28.7332 81.7129 27.7329" stroke="black" stroke-width="3.54536" stroke-linejoin="round"/>
<path d="M73.1855 22.1522L71.0538 20.756M104.45 42.6301L106.582 44.0263" stroke="black" stroke-width="3.54536" stroke-linecap="round" stroke-linejoin="round"/>
<path d="M84.1926 24.4475L85.1347 25.0645L84.1926 24.4475ZM79.6878 31.3252L78.7457 30.7082L79.6878 31.3252ZM75.5611 28.6223L76.5032 29.2394L75.5611 28.6223ZM75.1274 31.1371L74.1968 31.7714L75.1274 31.1371ZM74.8706 29.9051L73.7641 29.6955L74.8706 29.9051ZM78.7878 32.4708L79.4221 33.4014L79.4221 33.4014L78.7878 32.4708ZM77.5558 32.7277L77.3462 33.8342L77.3462 33.8342L77.5558 32.7277ZM84.6263 21.9327L85.5569 21.2984L85.5569 21.2984L84.6263 21.9327ZM84.8831 23.1647L85.9897 23.3743L85.9897 23.3743L84.8831 23.1647ZM82.1979 20.3421L82.4075 19.2356L82.1979 20.3421ZM80.9659 20.599L80.3317 19.6684L80.9659 20.599ZM74.1856 27.7214L73.5685 28.6635L73.5685 28.6635L74.1856 27.7214ZM73.2364 23.1684L72.2943 22.5513L72.2943 22.5513L73.2364 23.1684ZM74.1374 21.7928L75.0794 22.4099L75.0794 22.4099L74.1374 21.7928ZM72.1013 25.7805L73.2037 25.5506L73.2037 25.5506L72.1013 25.7805ZM97.9481 33.457L97.006 32.84L97.9481 33.457ZM93.4433 40.3348L94.3854 40.9519L93.4433 40.3348ZM97.57 43.0377L96.6279 42.4206L97.57 43.0377ZM95.438 44.4401L95.2284 45.5466L95.438 44.4401ZM96.67 44.1833L97.3043 45.1139L96.67 44.1833ZM92.7528 41.6176L91.6463 41.408L91.6463 41.408L92.7528 41.6176ZM93.0096 42.8496L92.079 43.4838L92.079 43.4838L93.0096 42.8496ZM100.08 32.0546L100.29 30.9481L100.29 30.9481L100.08 32.0546ZM98.8481 32.3114L98.2138 31.3808L98.2138 31.3808L98.8481 32.3114ZM102.508 33.6451L103.439 33.0109L102.508 33.6451ZM102.765 34.8772L103.872 35.0867L102.765 34.8772ZM98.9455 43.9386L98.3285 44.8807L98.3285 44.8807L98.9455 43.9386ZM103.499 42.9895L104.441 43.6065L104.441 43.6065L103.499 42.9895ZM104.4 41.6139L103.457 40.9968L103.457 40.9968L104.4 41.6139ZM101.558 45.0738L101.328 43.9713L101.328 43.9713L101.558 45.0738ZM83.2505 23.8304L78.7457 30.7082L80.6299 31.9423L85.1347 25.0645L83.2505 23.8304ZM76.5032 29.2394L81.008 22.3616L79.1238 21.1275L74.6191 28.0053L76.5032 29.2394ZM76.8901 31.095C76.5567 30.8767 76.3542 30.7433 76.2087 30.6332C76.0713 30.5291 76.0525 30.4948 76.058 30.5029L74.1968 31.7714C74.3865 32.0497 74.6201 32.2555 74.8492 32.429C75.0702 32.5963 75.3484 32.7777 75.656 32.9792L76.8901 31.095ZM74.6191 28.0053C74.4176 28.3129 74.2351 28.5904 74.0994 28.8321C73.9587 29.0826 73.8268 29.3646 73.7641 29.6955L75.9771 30.1147C75.9753 30.1242 75.9788 30.0853 76.0632 29.9351C76.1525 29.7759 76.2849 29.5727 76.5032 29.2394L74.6191 28.0053ZM76.058 30.5029C75.9806 30.3893 75.9515 30.2497 75.9771 30.1147L73.7641 29.6955C73.6273 30.4175 73.783 31.1642 74.1968 31.7714L76.058 30.5029ZM78.7457 30.7082C78.5274 31.0415 78.394 31.244 78.2838 31.3895C78.1798 31.527 78.1455 31.5457 78.1536 31.5402L79.4221 33.4014C79.7004 33.2117 79.9062 32.9781 80.0796 32.749C80.2469 32.528 80.4284 32.2498 80.6299 31.9423L78.7457 30.7082ZM75.656 32.9792C75.9636 33.1807 76.2411 33.3632 76.4828 33.4989C76.7333 33.6396 77.0153 33.7715 77.3462 33.8342L77.7653 31.6212C77.7749 31.623 77.736 31.6195 77.5857 31.5351C77.4266 31.4457 77.2234 31.3134 76.8901 31.095L75.656 32.9792ZM78.1536 31.5402C78.04 31.6176 77.9004 31.6467 77.7653 31.6212L77.3462 33.8342C78.0682 33.9709 78.8149 33.8152 79.4221 33.4014L78.1536 31.5402ZM82.8636 21.9748C83.197 22.1931 83.3995 22.3265 83.545 22.4366C83.6825 22.5407 83.7012 22.575 83.6957 22.5669L85.5569 21.2984C85.3672 21.0201 85.1336 20.8143 84.9045 20.6408C84.6835 20.4735 84.4053 20.2921 84.0977 20.0906L82.8636 21.9748ZM85.1347 25.0645C85.3361 24.7569 85.5186 24.4794 85.6544 24.2377C85.7951 23.9872 85.927 23.7052 85.9897 23.3743L83.7766 22.9551C83.7784 22.9456 83.775 22.9845 83.6906 23.1348C83.6012 23.2939 83.4688 23.4971 83.2505 23.8304L85.1347 25.0645ZM83.6957 22.5669C83.7731 22.6805 83.8022 22.8201 83.7766 22.9551L85.9897 23.3743C86.1264 22.6523 85.9707 21.9056 85.5569 21.2984L83.6957 22.5669ZM84.0977 20.0906C83.7902 19.8892 83.5126 19.7066 83.271 19.5709C83.0205 19.4302 82.7384 19.2983 82.4075 19.2356L81.9884 21.4487C81.9788 21.4468 82.0177 21.4503 82.168 21.5347C82.3271 21.6241 82.5303 21.7564 82.8636 21.9748L84.0977 20.0906ZM81.008 22.3616C81.2264 22.0283 81.3597 21.8258 81.4699 21.6803C81.5739 21.5428 81.6082 21.5241 81.6001 21.5296L80.3317 19.6684C80.0533 19.8581 79.8475 20.0917 79.6741 20.3208C79.5068 20.5418 79.3253 20.82 79.1238 21.1275L81.008 22.3616ZM82.4075 19.2356C81.6855 19.0989 80.9388 19.2546 80.3317 19.6684L81.6001 21.5296C81.7137 21.4522 81.8534 21.4231 81.9884 21.4487L82.4075 19.2356ZM78.0733 21.7857L79.4489 22.6867L80.683 20.8025L79.3074 19.9015L78.0733 21.7857ZM76.1782 27.6803L74.8026 26.7793L73.5685 28.6635L74.9441 29.5644L76.1782 27.6803ZM74.1785 23.7854L75.0794 22.4099L73.1953 21.1758L72.2943 22.5513L74.1785 23.7854ZM74.8026 26.7793C74.1276 26.3371 73.7173 26.0656 73.4463 25.831C73.3209 25.7224 73.261 25.651 73.2323 25.6091C73.2091 25.5752 73.2058 25.5605 73.2037 25.5506L70.9988 26.0103C71.1387 26.6817 71.5353 27.1557 71.9721 27.5339C72.3843 27.8907 72.9467 28.2562 73.5685 28.6635L74.8026 26.7793ZM72.2943 22.5513C71.887 23.1731 71.5175 23.7329 71.2823 24.2247C71.0329 24.7459 70.8588 25.3389 70.9988 26.0103L73.2037 25.5506C73.2017 25.5408 73.1988 25.526 73.2065 25.4856C73.2161 25.4357 73.2425 25.3464 73.3141 25.1967C73.4688 24.8733 73.7363 24.4605 74.1785 23.7854L72.2943 22.5513ZM79.3074 19.9015C78.6856 19.4943 78.1258 19.1247 77.6341 18.8895C77.1128 18.6401 76.5198 18.466 75.8484 18.606L76.3081 20.811C76.3179 20.8089 76.3328 20.806 76.3731 20.8138C76.423 20.8233 76.5124 20.8497 76.662 20.9213C76.9854 21.076 77.3983 21.3436 78.0733 21.7857L79.3074 19.9015ZM75.0794 22.4099C75.5216 21.7348 75.7932 21.3246 76.0278 21.0535C76.1364 20.9281 76.2077 20.8682 76.2496 20.8395C76.2835 20.8163 76.2983 20.813 76.3081 20.811L75.8484 18.606C75.1771 18.746 74.703 19.1425 74.3248 19.5794C73.9681 19.9915 73.6025 20.554 73.1953 21.1758L75.0794 22.4099ZM97.006 32.84L92.5012 39.7178L94.3854 40.9519L98.8902 34.0741L97.006 32.84ZM98.5121 43.6547L103.017 36.777L101.133 35.5429L96.6279 42.4206L98.5121 43.6547ZM93.5382 44.6917C93.8457 44.8931 94.1233 45.0756 94.3649 45.2114C94.6155 45.3521 94.8975 45.484 95.2284 45.5466L95.6475 43.3336C95.6571 43.3354 95.6182 43.332 95.4679 43.2475C95.3088 43.1582 95.1056 43.0258 94.7723 42.8075L93.5382 44.6917ZM96.6279 42.4206C96.4096 42.754 96.2762 42.9565 96.166 43.102C96.062 43.2394 96.0277 43.2582 96.0358 43.2527L97.3043 45.1139C97.5826 44.9242 97.7884 44.6906 97.9618 44.4615C98.1291 44.2405 98.3106 43.9623 98.5121 43.6547L96.6279 42.4206ZM95.2284 45.5466C95.9504 45.6834 96.6971 45.5277 97.3043 45.1139L96.0358 43.2527C95.9222 43.3301 95.7826 43.3592 95.6475 43.3336L95.2284 45.5466ZM92.5012 39.7178C92.2998 40.0253 92.1173 40.3029 91.9815 40.5445C91.8408 40.795 91.7089 41.0771 91.6463 41.408L93.8593 41.8271C93.8575 41.8367 93.8609 41.7978 93.9454 41.6475C94.0347 41.4884 94.1671 41.2852 94.3854 40.9519L92.5012 39.7178ZM94.7723 42.8075C94.4389 42.5891 94.2364 42.4558 94.0909 42.3456C93.9535 42.2416 93.9347 42.2073 93.9402 42.2154L92.079 43.4838C92.2687 43.7622 92.5023 43.968 92.7314 44.1414C92.9524 44.3087 93.2306 44.4902 93.5382 44.6917L94.7723 42.8075ZM91.6463 41.408C91.5095 42.13 91.6652 42.8767 92.079 43.4838L93.9402 42.2154C93.8628 42.1018 93.8337 41.9621 93.8593 41.8271L91.6463 41.408ZM101.98 31.8031C101.672 31.6016 101.395 31.4191 101.153 31.2834C100.903 31.1427 100.621 31.0108 100.29 30.9481L99.8706 33.1611C99.861 33.1593 99.8999 33.1628 100.05 33.2472C100.209 33.3366 100.412 33.4689 100.746 33.6872L101.98 31.8031ZM98.8902 34.0741C99.1085 33.7407 99.2419 33.5382 99.3521 33.3927C99.4561 33.2553 99.4904 33.2366 99.4823 33.242L98.2138 31.3808C97.9355 31.5705 97.7297 31.8042 97.5563 32.0332C97.389 32.2542 97.2075 32.5324 97.006 32.84L98.8902 34.0741ZM100.29 30.9481C99.5677 30.8114 98.821 30.967 98.2138 31.3808L99.4823 33.242C99.5959 33.1646 99.7355 33.1355 99.8706 33.1611L100.29 30.9481ZM100.746 33.6872C101.079 33.9056 101.282 34.0389 101.427 34.1491C101.565 34.2531 101.583 34.2874 101.578 34.2794L103.439 33.0109C103.249 32.7325 103.016 32.5267 102.787 32.3533C102.566 32.186 102.288 32.0045 101.98 31.8031L100.746 33.6872ZM103.017 36.777C103.218 36.4694 103.401 36.1919 103.537 35.9502C103.677 35.6997 103.809 35.4177 103.872 35.0867L101.659 34.6676C101.661 34.658 101.657 34.6969 101.573 34.8472C101.483 35.0063 101.351 35.2095 101.133 35.5429L103.017 36.777ZM101.578 34.2794C101.655 34.3929 101.684 34.5326 101.659 34.6676L103.872 35.0867C104.009 34.3648 103.853 33.6181 103.439 33.0109L101.578 34.2794ZM104.067 36.1188L102.692 35.2178L101.458 37.102L102.833 38.003L104.067 36.1188ZM96.9529 43.9798L98.3285 44.8807L99.5626 42.9966L98.187 42.0956L96.9529 43.9798ZM104.441 43.6065L105.342 42.2309L103.457 40.9968L102.556 42.3724L104.441 43.6065ZM98.3285 44.8807C98.9503 45.288 99.5101 45.6575 100.002 45.8928C100.523 46.1421 101.116 46.3162 101.787 46.1763L101.328 43.9713C101.318 43.9734 101.303 43.9762 101.263 43.9685C101.213 43.9589 101.124 43.9326 100.974 43.861C100.651 43.7063 100.238 43.4387 99.5626 42.9966L98.3285 44.8807ZM102.556 42.3724C102.114 43.0475 101.843 43.4577 101.608 43.7287C101.5 43.8542 101.428 43.914 101.386 43.9428C101.352 43.966 101.338 43.9693 101.328 43.9713L101.787 46.1763C102.459 46.0363 102.933 45.6398 103.311 45.2029C103.668 44.7907 104.033 44.2283 104.441 43.6065L102.556 42.3724ZM102.833 38.003C103.508 38.4451 103.919 38.7167 104.19 38.9513C104.315 39.0599 104.375 39.1312 104.404 39.1732C104.427 39.2071 104.43 39.2218 104.432 39.2316L106.637 38.772C106.497 38.1006 106.101 37.6265 105.664 37.2484C105.252 36.8916 104.689 36.5261 104.067 36.1188L102.833 38.003ZM105.342 42.2309C105.749 41.6091 106.118 41.0493 106.354 40.5576C106.603 40.0363 106.777 39.4433 106.637 38.772L104.432 39.2316C104.434 39.2415 104.437 39.2563 104.429 39.2967C104.42 39.3466 104.393 39.4359 104.322 39.5855C104.167 39.9089 103.9 40.3218 103.457 40.9968L105.342 42.2309Z" fill="black"/>
<path d="M63.0184 58.1885C62.6758 60.111 60.8394 61.3918 58.9166 61.0491C56.9939 60.7065 55.7129 58.8703 56.0555 56.9478C56.3981 55.0253 58.2345 53.7445 60.1572 54.0872C62.08 54.4298 63.3609 56.266 63.0184 58.1885Z" stroke="black" stroke-opacity="0.6" stroke-width="3.53605"/>
<path d="M51.5507 95.6511L51.0911 89.3057C50.939 87.2056 50.2109 85.1828 48.9846 83.4533L46.0743 79.3491M34.7342 69.0764C37.8697 64.9189 41.9106 62.9061 49.9634 64.243M49.9634 64.243C50.4719 64.3275 51.2283 64.4604 51.9837 64.5951C53.1554 64.8041 53.7412 64.9086 54.1691 65.2098C54.5971 65.511 54.9739 66.1683 55.7276 67.4828C55.9435 67.8595 56.1729 68.2034 56.3986 68.4451M49.9634 64.243L46.2082 68.2625C44.1435 70.4724 43.1112 71.5773 42.8459 72.8833C42.7278 73.465 42.7205 74.0638 42.8246 74.6482C43.0583 75.9603 44.0636 77.0899 46.0743 79.3491M56.3986 68.4451C58.7207 70.9322 62.7726 72.4892 68.4493 68.0106M56.3986 68.4451L46.0743 79.3491" stroke="black" stroke-opacity="0.6" stroke-width="3.53605" stroke-linecap="round" stroke-linejoin="round"/>
<path d="M27.3782 83.5153L28.8856 84.1703C32.7272 85.8394 37.2222 84.7575 39.6985 81.5679" stroke="black" stroke-opacity="0.6" stroke-width="3.53605" stroke-linecap="round" stroke-linejoin="round"/>
<path d="M131.541 75.5439C131.198 77.4664 129.362 78.7472 127.44 78.4047C125.517 78.0621 124.236 76.2258 124.579 74.3033C124.922 72.3808 126.758 71.1 128.68 71.4426C130.603 71.7851 131.884 73.6214 131.541 75.5439Z" stroke="black" stroke-opacity="0.6" stroke-width="3.53588"/>
<path d="M140.635 61.3469C140.668 60.3711 139.905 59.5528 138.929 59.5192C137.953 59.4855 137.135 60.2493 137.101 61.2252L140.635 61.3469ZM138.497 72.0572L136.73 71.9963L138.497 72.0572ZM134.776 82.6695L136.194 83.7253L136.194 83.7253L134.776 82.6695ZM127.433 89.5723C126.849 90.3555 127.012 91.463 127.795 92.0461C128.578 92.6292 129.686 92.467 130.269 91.6839L127.433 89.5723ZM154.202 86.4957L155.955 86.2674L155.955 86.2674L154.202 86.4957ZM155.199 107.836C155.325 108.804 156.212 109.487 157.18 109.361C158.149 109.234 158.831 108.347 158.705 107.379L155.199 107.836ZM137.87 77.7958L136.202 77.2109L137.87 77.7958ZM152.072 83.136L151.117 84.6243L151.117 84.6243L152.072 83.136ZM135.469 81.7374L134.047 80.6864L134.047 80.6864L135.469 81.7374ZM136.866 103.398C136.368 104.238 136.645 105.322 137.485 105.82C138.325 106.318 139.409 106.041 139.907 105.201L136.866 103.398ZM153.614 84.7555L155.147 83.8745L153.614 84.7555ZM137.101 61.2252L136.73 71.9963L140.264 72.118L140.635 61.3469L137.101 61.2252ZM133.358 81.6137L127.433 89.5723L130.269 91.6839L136.194 83.7253L133.358 81.6137ZM152.449 86.7241L155.199 107.836L158.705 107.379L155.955 86.2674L152.449 86.7241ZM136.73 71.9963C136.699 72.8976 136.673 73.6382 136.639 74.2786L140.17 74.4666C140.206 73.7861 140.233 73.0091 140.264 72.118L136.73 71.9963ZM136.639 74.2786C136.562 75.7324 136.445 76.516 136.202 77.2109L139.538 78.3807C139.954 77.1938 140.089 75.9967 140.17 74.4666L136.639 74.2786ZM137.45 75.8609L151.117 84.6243L153.026 81.6477L139.359 72.8843L137.45 75.8609ZM136.194 83.7253C136.441 83.3932 136.674 83.0805 136.89 82.7883L134.047 80.6864C133.835 80.9728 133.606 81.2805 133.358 81.6137L136.194 83.7253ZM136.89 82.7883C138.164 81.0655 139.029 79.8342 139.538 78.3807L136.202 77.2109C135.895 78.0865 135.359 78.9114 134.047 80.6864L136.89 82.7883ZM145.852 88.2383L136.866 103.398L139.907 105.201L148.894 90.0414L145.852 88.2383ZM134.535 83.2387L146.439 90.6412L148.307 87.6385L136.402 80.236L134.535 83.2387ZM155.955 86.2674C155.844 85.4145 155.566 84.603 155.147 83.8745L152.082 85.6365C152.272 85.9677 152.398 86.3363 152.449 86.7241L155.955 86.2674ZM155.147 83.8745C154.635 82.9834 153.912 82.2158 153.026 81.6477L151.117 84.6243C151.52 84.8825 151.849 85.2312 152.082 85.6365L155.147 83.8745ZM152.598 83.3088L146.357 87.6932L148.389 90.5865L154.631 86.2022L152.598 83.3088Z" fill="black" fill-opacity="0.6"/>
<path d="M167.747 93.0608C167.59 93.9397 166.751 94.5252 165.872 94.3686C164.993 94.212 164.407 93.3726 164.564 92.4937C164.721 91.6148 165.56 91.0293 166.439 91.1859C167.318 91.3425 167.903 92.1819 167.747 93.0608Z" stroke="black" stroke-opacity="0.4" stroke-width="1.6164"/>
<path d="M168.209 102.446L167.35 102.293C166.487 102.139 166.056 102.062 165.803 101.758C165.549 101.453 165.554 101.017 165.563 100.145L165.568 99.6445C165.573 99.1761 165.576 98.9418 165.67 98.7351C165.764 98.5283 165.94 98.3725 166.291 98.0608L167.915 96.6183M170.609 94.1171L169.171 95.5027L167.915 96.6183M170.609 94.1171L173.486 91.3459M170.609 94.1171L174.722 98.6809M174.722 98.6809L182.013 92.8653M174.722 98.6809L172.756 101.614M167.915 96.6183L172.756 101.614M172.756 101.614L171.149 110.632" stroke="black" stroke-opacity="0.4" stroke-width="1.6164" stroke-linecap="round" stroke-linejoin="round"/>
<path d="M16.9655 66.2346C16.8089 67.1135 15.9695 67.699 15.0906 67.5424C14.2117 67.3858 13.6262 66.5464 13.7828 65.6675C13.9395 64.7886 14.7789 64.2031 15.6577 64.3597C16.5366 64.5163 17.1221 65.3558 16.9655 66.2346Z" stroke="black" stroke-opacity="0.4" stroke-width="1.6164"/>
<path d="M20.9132 71.7435L15.6984 70.1584M18.624 84.5902L18.796 80.8228C18.8915 78.7295 18.9393 77.6828 18.3224 77.0165C17.7055 76.3502 16.6719 76.332 14.6047 76.2957L12.5997 76.2605M15.6984 70.1584L13.8764 69.6046C13.043 69.3512 12.6263 69.2246 12.2644 69.3853C11.9024 69.546 11.7101 69.943 11.3256 70.7371L10.1682 73.1272C9.50056 74.506 9.16673 75.1954 9.47197 75.7031C9.7772 76.2109 10.5334 76.2242 12.0459 76.2508L12.5997 76.2605M15.6984 70.1584L12.5997 76.2605" stroke="black" stroke-opacity="0.4" stroke-width="1.6164" stroke-linecap="round" stroke-linejoin="round"/>
<path d="M9.8318 78.6444L9.03635 79.7128C8.61863 80.2739 8.0302 80.6843 7.35939 80.8825L3.77117 81.9428" stroke="black" stroke-opacity="0.4" stroke-width="1.6164" stroke-linecap="round" stroke-linejoin="round"/>
</svg>
