<svg width="50" height="35" viewBox="0 0 50 35" fill="none" xmlns="http://www.w3.org/2000/svg">
<path d="M33.774 18C34.5233 18 35.1193 17.5285 35.6545 16.8691C36.7499 15.5194 34.9513 14.4408 34.2654 13.9126C33.568 13.3756 32.7894 13.0714 32 13M31 11C32.3807 11 33.5 9.88071 33.5 8.5C33.5 7.11929 32.3807 6 31 6" stroke="#929292" stroke-width="1.5" stroke-linecap="round"/>
<path d="M16.226 18C15.4767 18 14.8807 17.5285 14.3455 16.8691C13.2501 15.5194 15.0487 14.4408 15.7346 13.9126C16.432 13.3756 17.2106 13.0714 18 13M18.5 11C17.1193 11 16 9.88071 16 8.5C16 7.11929 17.1193 6 18.5 6" stroke="#929292" stroke-width="1.5" stroke-linecap="round"/>
<path d="M21.0838 15.1112C20.062 15.743 17.383 17.0331 19.0147 18.6474C19.8118 19.436 20.6995 20 21.8156 20H28.1844C29.3005 20 30.1882 19.436 30.9853 18.6474C32.617 17.0331 29.938 15.743 28.9162 15.1112C26.5201 13.6296 23.4799 13.6296 21.0838 15.1112Z" stroke="#929292" stroke-width="1.5" stroke-linecap="round" stroke-linejoin="round"/>
<path d="M28.5 7.5C28.5 9.433 26.933 11 25 11C23.067 11 21.5 9.433 21.5 7.5C21.5 5.567 23.067 4 25 4C26.933 4 28.5 5.567 28.5 7.5Z" stroke="#929292" stroke-width="1.5"/>
<path d="M6.15554 28.5831H5.15838C5.12003 28.37 5.04865 28.1825 4.94425 28.0206C4.83984 27.8587 4.712 27.7212 4.56072 27.6083C4.40945 27.4954 4.24006 27.4102 4.05256 27.3526C3.86719 27.2951 3.6701 27.2663 3.46129 27.2663C3.08416 27.2663 2.74645 27.3612 2.44815 27.5508C2.15199 27.7404 1.91761 28.0185 1.74503 28.3849C1.57457 28.7514 1.48935 29.1989 1.48935 29.7273C1.48935 30.2599 1.57457 30.7095 1.74503 31.076C1.91761 31.4425 2.15305 31.7195 2.45135 31.907C2.74965 32.0945 3.08523 32.1882 3.4581 32.1882C3.66477 32.1882 3.8608 32.1605 4.04616 32.1051C4.23366 32.0476 4.40305 31.9634 4.55433 31.8526C4.70561 31.7418 4.83345 31.6065 4.93786 31.4467C5.04439 31.2848 5.1179 31.0994 5.15838 30.8906L6.15554 30.8938C6.10227 31.2156 5.99893 31.5117 5.84553 31.7823C5.69425 32.0508 5.49929 32.283 5.26065 32.479C5.02415 32.6729 4.75355 32.8232 4.44886 32.9297C4.14418 33.0362 3.81179 33.0895 3.4517 33.0895C2.88494 33.0895 2.37997 32.9553 1.93679 32.6868C1.49361 32.4162 1.14418 32.0295 0.888494 31.5266C0.634943 31.0238 0.508168 30.424 0.508168 29.7273C0.508168 29.0284 0.636009 28.4286 0.89169 27.9279C1.14737 27.4251 1.4968 27.0394 1.93999 26.771C2.38317 26.5004 2.88707 26.3651 3.4517 26.3651C3.79901 26.3651 4.12287 26.4151 4.4233 26.5153C4.72585 26.6133 4.99751 26.7582 5.23828 26.9499C5.47905 27.1396 5.67827 27.3718 5.83594 27.6467C5.99361 27.9194 6.10014 28.2315 6.15554 28.5831ZM9.32839 33.0991C8.86816 33.0991 8.46653 32.9936 8.12349 32.7827C7.78045 32.5717 7.51412 32.2766 7.32449 31.8974C7.13485 31.5181 7.04004 31.0749 7.04004 30.5678C7.04004 30.0586 7.13485 29.6133 7.32449 29.2319C7.51412 28.8505 7.78045 28.5543 8.12349 28.3434C8.46653 28.1325 8.86816 28.027 9.32839 28.027C9.78862 28.027 10.1903 28.1325 10.5333 28.3434C10.8763 28.5543 11.1427 28.8505 11.3323 29.2319C11.5219 29.6133 11.6167 30.0586 11.6167 30.5678C11.6167 31.0749 11.5219 31.5181 11.3323 31.8974C11.1427 32.2766 10.8763 32.5717 10.5333 32.7827C10.1903 32.9936 9.78862 33.0991 9.32839 33.0991ZM9.33159 32.2969C9.62988 32.2969 9.87704 32.218 10.0731 32.0604C10.2691 31.9027 10.414 31.6928 10.5077 31.4308C10.6036 31.1687 10.6515 30.88 10.6515 30.5646C10.6515 30.2514 10.6036 29.9638 10.5077 29.7017C10.414 29.4375 10.2691 29.2255 10.0731 29.0657C9.87704 28.9059 9.62988 28.826 9.33159 28.826C9.03116 28.826 8.78187 28.9059 8.58372 29.0657C8.3877 29.2255 8.24174 29.4375 8.14586 29.7017C8.05211 29.9638 8.00524 30.2514 8.00524 30.5646C8.00524 30.88 8.05211 31.1687 8.14586 31.4308C8.24174 31.6928 8.3877 31.9027 8.58372 32.0604C8.78187 32.218 9.03116 32.2969 9.33159 32.2969ZM12.6834 33V28.0909H13.6007V28.8899H13.6614C13.7637 28.6193 13.9309 28.4084 14.1632 28.2571C14.3954 28.1037 14.6735 28.027 14.9973 28.027C15.3255 28.027 15.6003 28.1037 15.8219 28.2571C16.0456 28.4105 16.2108 28.6214 16.3173 28.8899H16.3684C16.4856 28.6278 16.6721 28.419 16.9277 28.2635C17.1834 28.1058 17.4881 28.027 17.8418 28.027C18.2871 28.027 18.6504 28.1665 18.9316 28.4457C19.215 28.7248 19.3567 29.1456 19.3567 29.7081V33H18.4011V29.7976C18.4011 29.4652 18.3105 29.2244 18.1294 29.0753C17.9483 28.9261 17.7321 28.8516 17.4806 28.8516C17.1696 28.8516 16.9277 28.9474 16.7551 29.1392C16.5826 29.3288 16.4963 29.5728 16.4963 29.8711V33H15.5439V29.7369C15.5439 29.4705 15.4608 29.2564 15.2946 29.0945C15.1284 28.9325 14.9121 28.8516 14.6458 28.8516C14.4647 28.8516 14.2974 28.8995 14.144 28.9954C13.9927 29.0891 13.8702 29.2202 13.7765 29.3885C13.6848 29.5568 13.639 29.7518 13.639 29.9734V33H12.6834ZM20.6375 33V28.0909H21.5548V28.8899H21.6155C21.7178 28.6193 21.885 28.4084 22.1173 28.2571C22.3495 28.1037 22.6276 28.027 22.9514 28.027C23.2796 28.027 23.5544 28.1037 23.776 28.2571C23.9997 28.4105 24.1649 28.6214 24.2714 28.8899H24.3225C24.4397 28.6278 24.6262 28.419 24.8818 28.2635C25.1375 28.1058 25.4422 28.027 25.7959 28.027C26.2412 28.027 26.6045 28.1665 26.8857 28.4457C27.1691 28.7248 27.3108 29.1456 27.3108 29.7081V33H26.3552V29.7976C26.3552 29.4652 26.2646 29.2244 26.0835 29.0753C25.9024 28.9261 25.6862 28.8516 25.4347 28.8516C25.1237 28.8516 24.8818 28.9474 24.7093 29.1392C24.5367 29.3288 24.4504 29.5728 24.4504 29.8711V33H23.498V29.7369C23.498 29.4705 23.4149 29.2564 23.2487 29.0945C23.0825 28.9325 22.8662 28.8516 22.5999 28.8516C22.4188 28.8516 22.2515 28.8995 22.0981 28.9954C21.9468 29.0891 21.8243 29.2202 21.7306 29.3885C21.6389 29.5568 21.5931 29.7518 21.5931 29.9734V33H20.6375ZM31.7013 30.9641V28.0909H32.6602V33H31.7205V32.1499H31.6694C31.5565 32.4119 31.3754 32.6303 31.1261 32.805C30.8789 32.9776 30.571 33.0639 30.2024 33.0639C29.8871 33.0639 29.608 32.9947 29.3651 32.8562C29.1243 32.7156 28.9347 32.5078 28.7962 32.233C28.6598 31.9581 28.5916 31.6183 28.5916 31.2134V28.0909H29.5472V31.0984C29.5472 31.4329 29.6399 31.6992 29.8253 31.8974C30.0107 32.0955 30.2514 32.1946 30.5476 32.1946C30.7266 32.1946 30.9045 32.1499 31.0813 32.0604C31.2603 31.9709 31.4084 31.8356 31.5256 31.6545C31.6449 31.4734 31.7035 31.2433 31.7013 30.9641ZM34.8998 30.0852V33H33.9442V28.0909H34.8614V28.8899H34.9221C35.0351 28.63 35.2119 28.4212 35.4527 28.2635C35.6956 28.1058 36.0013 28.027 36.3699 28.027C36.7045 28.027 36.9974 28.0973 37.2488 28.2379C37.5003 28.3764 37.6952 28.5831 37.8337 28.858C37.9722 29.1328 38.0415 29.4727 38.0415 29.8775V33H37.0858V29.9925C37.0858 29.6367 36.9932 29.3587 36.8078 29.1584C36.6224 28.956 36.3678 28.8548 36.0439 28.8548C35.8224 28.8548 35.6253 28.9027 35.4527 28.9986C35.2822 29.0945 35.1469 29.2351 35.0468 29.4205C34.9488 29.6037 34.8998 29.8253 34.8998 30.0852ZM39.3231 33V28.0909H40.2787V33H39.3231ZM39.8057 27.3335C39.6395 27.3335 39.4967 27.2781 39.3774 27.1673C39.2602 27.0543 39.2016 26.9201 39.2016 26.7646C39.2016 26.6069 39.2602 26.4727 39.3774 26.3619C39.4967 26.2489 39.6395 26.1925 39.8057 26.1925C39.9719 26.1925 40.1135 26.2489 40.2307 26.3619C40.3501 26.4727 40.4097 26.6069 40.4097 26.7646C40.4097 26.9201 40.3501 27.0543 40.2307 27.1673C40.1135 27.2781 39.9719 27.3335 39.8057 27.3335ZM43.8558 28.0909V28.858H41.1744V28.0909H43.8558ZM41.8935 26.9148H42.8491V31.5586C42.8491 31.744 42.8768 31.8835 42.9322 31.9773C42.9876 32.0689 43.0589 32.1317 43.1463 32.1658C43.2358 32.1978 43.3327 32.2138 43.4371 32.2138C43.5138 32.2138 43.581 32.2085 43.6385 32.1978C43.696 32.1871 43.7408 32.1786 43.7727 32.1722L43.9453 32.9616C43.8899 32.983 43.8111 33.0043 43.7088 33.0256C43.6065 33.049 43.4787 33.0618 43.3253 33.0639C43.0739 33.0682 42.8395 33.0234 42.6222 32.9297C42.4048 32.8359 42.229 32.6911 42.0948 32.495C41.9606 32.299 41.8935 32.0529 41.8935 31.7567V26.9148ZM45.517 34.8409C45.3742 34.8409 45.2442 34.8292 45.127 34.8058C45.0099 34.7844 44.9225 34.761 44.865 34.7354L45.0951 33.9524C45.2698 33.9993 45.4253 34.0195 45.5617 34.0131C45.6981 34.0067 45.8184 33.9556 45.9229 33.8597C46.0294 33.7638 46.1231 33.6072 46.2041 33.3899L46.3224 33.0639L44.5262 28.0909H45.5489L46.7922 31.9006H46.8433L48.0866 28.0909H49.1125L47.0894 33.6552C46.9957 33.9109 46.8763 34.1271 46.7314 34.304C46.5866 34.483 46.414 34.6172 46.2137 34.7067C46.0134 34.7962 45.7812 34.8409 45.517 34.8409Z" fill="#929292"/>
</svg>
