<svg width="287" height="143" viewBox="0 0 287 143" fill="none" xmlns="http://www.w3.org/2000/svg">
<path d="M38.0014 101.826C105.823 92.0906 209 100.089 250.379 109.415" stroke="white" stroke-opacity="0.26" stroke-width="3" style="mix-blend-mode:lighten"/>
<path d="M38.0014 101.826C105.823 92.0906 209 100.089 250.379 109.415" stroke="#B09400" stroke-width="3" style="mix-blend-mode:color-dodge"/>
<path d="M271.93 95C275.263 93.6667 282.63 89.6 285.43 84" stroke="white" stroke-opacity="0.26" stroke-width="3" style="mix-blend-mode:lighten"/>
<path d="M271.93 95C275.263 93.6667 282.63 89.6 285.43 84" stroke="#B09400" stroke-width="3" style="mix-blend-mode:color-dodge"/>
<path d="M267.614 91.5846C271.109 88.9065 278.464 81.6403 279.927 74.0005" stroke="white" stroke-opacity="0.26" stroke-width="3" style="mix-blend-mode:lighten"/>
<path d="M267.614 91.5846C271.109 88.9065 278.464 81.6403 279.927 74.0005" stroke="#B09400" stroke-width="3" style="mix-blend-mode:color-dodge"/>
<path d="M15.5 86C12.1667 84.6667 4.8 80.6 2 75" stroke="white" stroke-opacity="0.26" stroke-width="3" style="mix-blend-mode:lighten"/>
<path d="M15.5 86C12.1667 84.6667 4.8 80.6 2 75" stroke="#B09400" stroke-width="3" style="mix-blend-mode:color-dodge"/>
<path d="M19.8157 82.5846C16.3211 79.9065 8.96597 72.6403 7.50237 65.0005" stroke="white" stroke-opacity="0.26" stroke-width="3" style="mix-blend-mode:lighten"/>
<path d="M19.8157 82.5846C16.3211 79.9065 8.96597 72.6403 7.50237 65.0005" stroke="#B09400" stroke-width="3" style="mix-blend-mode:color-dodge"/>
<path d="M211.939 10.1416L199.14 53.4165L253.792 72.6166L274.686 34.5903L248.751 50.0058L246.016 20.8309L223.093 42.2741L211.939 10.1416Z" stroke="white" stroke-opacity="0.26" stroke-width="5.89853" style="mix-blend-mode:lighten"/>
<path d="M211.939 10.1416L199.14 53.4165L253.792 72.6166L274.686 34.5903L248.751 50.0058L246.016 20.8309L223.093 42.2741L211.939 10.1416Z" stroke="#B09400" stroke-width="5.89853" style="mix-blend-mode:color-dodge"/>
<g filter="url(#filter0_d_3118_7321)">
<path d="M38.7188 93.375C32.3281 93.375 28.2656 88.875 28.2656 81.7188V81.7031C28.2656 74.5469 32.3281 70.0781 38.7188 70.0781C43.6875 70.0781 47.4219 73.1406 48.125 77.5938L48.1562 77.7344H44.6875L44.5938 77.4219C43.8438 74.7812 41.75 73.1719 38.7188 73.1719C34.5312 73.1719 31.8438 76.4844 31.8438 81.7031V81.7188C31.8438 86.9375 34.5469 90.2812 38.7188 90.2812C41.7188 90.2812 43.7969 88.7188 44.6406 85.8594L44.6875 85.7188H48.1562L48.1406 85.875C47.4375 90.3594 43.7031 93.375 38.7188 93.375ZM57.9844 93.3281C53.2656 93.3281 50.1875 90.0625 50.1875 84.7812V84.75C50.1875 79.5 53.2969 76.25 57.9688 76.25C62.6562 76.25 65.7812 79.4844 65.7812 84.75V84.7812C65.7812 90.0781 62.6875 93.3281 57.9844 93.3281ZM58 90.5C60.6406 90.5 62.3281 88.4062 62.3281 84.7812V84.75C62.3281 81.1562 60.6094 79.0781 57.9688 79.0781C55.375 79.0781 53.6406 81.1562 53.6406 84.75V84.7812C53.6406 88.4219 55.3594 90.5 58 90.5ZM68.3906 93V76.5625H71.7656V79.0469H71.8438C72.7031 77.375 74.3906 76.25 76.875 76.25C80.4844 76.25 82.5625 78.5781 82.5625 82.3594V93H79.1719V83C79.1719 80.5312 78.0156 79.1406 75.6719 79.1406C73.2969 79.1406 71.7656 80.8594 71.7656 83.4219V93H68.3906ZM93.0312 98.7969C88.8125 98.7969 86.1406 96.8438 85.6406 94.3281L85.625 94.1875H88.9688L89.0312 94.3125C89.4844 95.3594 90.9062 96.0781 93.0156 96.0781C95.7031 96.0781 97.1875 94.6406 97.1875 92.3438V90.0938H97.1094C96.1719 91.875 94.2969 93.0156 91.9375 93.0156C87.8125 93.0156 85.0938 89.7812 85.0938 84.6562V84.6406C85.0938 79.4844 87.8438 76.25 92.0156 76.25C94.3281 76.25 96.1406 77.5 97.1094 79.3594H97.1875V76.5625H100.578V92.5469C100.578 96.2969 97.6719 98.7969 93.0312 98.7969ZM92.8906 90.2656C95.4688 90.2656 97.1875 88.0938 97.1875 84.7031V84.6875C97.1875 81.3125 95.4531 79.1406 92.8906 79.1406C90.2188 79.1406 88.5469 81.2969 88.5469 84.6875V84.7031C88.5469 88.1406 90.2188 90.2656 92.8906 90.2656ZM103.922 93V76.5625H107.297V79.375H107.375C107.906 77.4531 109.281 76.25 111.156 76.25C111.641 76.25 112.062 76.3281 112.328 76.375V79.5156C112.062 79.4062 111.469 79.3281 110.812 79.3281C108.641 79.3281 107.297 80.75 107.297 83.2031V93H103.922ZM118.906 93.2969C115.625 93.2969 113.422 91.2812 113.422 88.3281V88.2969C113.422 85.4375 115.641 83.6875 119.531 83.4531L124 83.1875V81.9531C124 80.1406 122.828 79.0469 120.734 79.0469C118.781 79.0469 117.578 79.9688 117.297 81.2812L117.266 81.4219H114.078L114.094 81.25C114.328 78.4219 116.781 76.25 120.828 76.25C124.844 76.25 127.391 78.375 127.391 81.6719V93H124V90.4062H123.938C122.984 92.1719 121.078 93.2969 118.906 93.2969ZM116.828 88.25C116.828 89.6875 118.016 90.5938 119.828 90.5938C122.203 90.5938 124 88.9844 124 86.8438V85.5625L119.984 85.8125C117.953 85.9375 116.828 86.8281 116.828 88.2188V88.25ZM136.438 93.3281C133.188 93.3281 131.625 91.9531 131.625 88.6719V79.25H129.266V76.5625H131.625V72.2812H135.078V76.5625H138.156V79.25H135.078V88.4688C135.078 90.1406 135.828 90.6406 137.25 90.6406C137.609 90.6406 137.906 90.6094 138.156 90.5781V93.1875C137.766 93.25 137.125 93.3281 136.438 93.3281ZM146.547 93.3281C142.938 93.3281 140.875 91 140.875 87.2188V76.5625H144.25V86.5625C144.25 89.0469 145.406 90.4219 147.75 90.4219C150.125 90.4219 151.656 88.7188 151.656 86.1562V76.5625H155.047V93H151.656V90.5312H151.578C150.719 92.1875 149.047 93.3281 146.547 93.3281ZM158.516 93V70.4531H161.891V93H158.516ZM170.188 93.2969C166.906 93.2969 164.703 91.2812 164.703 88.3281V88.2969C164.703 85.4375 166.922 83.6875 170.812 83.4531L175.281 83.1875V81.9531C175.281 80.1406 174.109 79.0469 172.016 79.0469C170.062 79.0469 168.859 79.9688 168.578 81.2812L168.547 81.4219H165.359L165.375 81.25C165.609 78.4219 168.062 76.25 172.109 76.25C176.125 76.25 178.672 78.375 178.672 81.6719V93H175.281V90.4062H175.219C174.266 92.1719 172.359 93.2969 170.188 93.2969ZM168.109 88.25C168.109 89.6875 169.297 90.5938 171.109 90.5938C173.484 90.5938 175.281 88.9844 175.281 86.8438V85.5625L171.266 85.8125C169.234 85.9375 168.109 86.8281 168.109 88.2188V88.25ZM187.719 93.3281C184.469 93.3281 182.906 91.9531 182.906 88.6719V79.25H180.547V76.5625H182.906V72.2812H186.359V76.5625H189.438V79.25H186.359V88.4688C186.359 90.1406 187.109 90.6406 188.531 90.6406C188.891 90.6406 189.188 90.6094 189.438 90.5781V93.1875C189.047 93.25 188.406 93.3281 187.719 93.3281ZM194.062 74.0312C192.969 74.0312 192.094 73.1562 192.094 72.0938C192.094 71.0156 192.969 70.1406 194.062 70.1406C195.172 70.1406 196.031 71.0156 196.031 72.0938C196.031 73.1562 195.172 74.0312 194.062 74.0312ZM192.375 93V76.5625H195.75V93H192.375ZM206.297 93.3281C201.578 93.3281 198.5 90.0625 198.5 84.7812V84.75C198.5 79.5 201.609 76.25 206.281 76.25C210.969 76.25 214.094 79.4844 214.094 84.75V84.7812C214.094 90.0781 211 93.3281 206.297 93.3281ZM206.312 90.5C208.953 90.5 210.641 88.4062 210.641 84.7812V84.75C210.641 81.1562 208.922 79.0781 206.281 79.0781C203.688 79.0781 201.953 81.1562 201.953 84.75V84.7812C201.953 88.4219 203.672 90.5 206.312 90.5ZM216.703 93V76.5625H220.078V79.0469H220.156C221.016 77.375 222.703 76.25 225.188 76.25C228.797 76.25 230.875 78.5781 230.875 82.3594V93H227.484V83C227.484 80.5312 226.328 79.1406 223.984 79.1406C221.609 79.1406 220.078 80.8594 220.078 83.4219V93H216.703ZM240.297 93.3281C236.188 93.3281 233.781 91.2969 233.438 88.2969L233.422 88.1562H236.766L236.797 88.3125C237.109 89.8281 238.234 90.7188 240.312 90.7188C242.344 90.7188 243.562 89.875 243.562 88.5469V88.5312C243.562 87.4688 242.969 86.8594 241.203 86.4375L238.516 85.8281C235.391 85.1094 233.844 83.6094 233.844 81.2188V81.2031C233.844 78.2656 236.406 76.25 240.188 76.25C244.078 76.25 246.422 78.4219 246.594 81.2188L246.609 81.4062H243.438L243.422 81.2969C243.219 79.8594 242.094 78.8594 240.188 78.8594C238.375 78.8594 237.234 79.7188 237.234 81.0312V81.0469C237.234 82.0625 237.906 82.75 239.672 83.1719L242.344 83.7812C245.703 84.5625 246.984 85.8906 246.984 88.25V88.2656C246.984 91.2656 244.172 93.3281 240.297 93.3281ZM251 85.4844L250.75 70.4531H254.234L253.984 85.4844H251ZM252.484 93.1719C251.344 93.1719 250.438 92.2812 250.438 91.1406C250.438 90 251.344 89.125 252.484 89.125C253.656 89.125 254.547 90 254.547 91.1406C254.547 92.2812 253.656 93.1719 252.484 93.1719Z" fill="url(#paint0_linear_3118_7321)"/>
</g>
<defs>
<filter id="filter0_d_3118_7321" x="25.2656" y="70.0781" width="232.281" height="34.7188" filterUnits="userSpaceOnUse" color-interpolation-filters="sRGB">
<feFlood flood-opacity="0" result="BackgroundImageFix"/>
<feColorMatrix in="SourceAlpha" type="matrix" values="0 0 0 0 0 0 0 0 0 0 0 0 0 0 0 0 0 0 127 0" result="hardAlpha"/>
<feOffset dy="3"/>
<feGaussianBlur stdDeviation="1.5"/>
<feComposite in2="hardAlpha" operator="out"/>
<feColorMatrix type="matrix" values="0 0 0 0 0 0 0 0 0 0 0 0 0 0 0 0 0 0 0.15 0"/>
<feBlend mode="normal" in2="BackgroundImageFix" result="effect1_dropShadow_3118_7321"/>
<feBlend mode="normal" in="SourceGraphic" in2="effect1_dropShadow_3118_7321" result="shape"/>
</filter>
<linearGradient id="paint0_linear_3118_7321" x1="26.475" y1="76.375" x2="208.492" y2="177.255" gradientUnits="userSpaceOnUse">
<stop stop-color="#D6B6F0"/>
<stop offset="0.76" stop-color="#848CE9"/>
</linearGradient>
</defs>
</svg>
