<svg width="285" height="110" viewBox="0 0 285 110" fill="none" xmlns="http://www.w3.org/2000/svg">
<path d="M68.2616 89.7147C134.762 73.2148 238.221 70.8067 280.328 75.9283" stroke="#F5C563" stroke-width="4px"/>
<path d="M44.9805 71.7842C38.5898 71.7842 34.5273 67.2842 34.5273 60.1279V60.1123C34.5273 52.9561 38.5898 48.4873 44.9805 48.4873C49.9492 48.4873 53.6836 51.5498 54.3867 56.0029L54.418 56.1436H50.9492L50.8555 55.8311C50.1055 53.1904 48.0117 51.5811 44.9805 51.5811C40.793 51.5811 38.1055 54.8936 38.1055 60.1123V60.1279C38.1055 65.3467 40.8086 68.6904 44.9805 68.6904C47.9805 68.6904 50.0586 67.1279 50.9023 64.2686L50.9492 64.1279H54.418L54.4023 64.2842C53.6992 68.7686 49.9648 71.7842 44.9805 71.7842ZM64.2461 71.7373C59.5273 71.7373 56.4492 68.4717 56.4492 63.1904V63.1592C56.4492 57.9092 59.5586 54.6592 64.2305 54.6592C68.918 54.6592 72.043 57.8936 72.043 63.1592V63.1904C72.043 68.4873 68.9492 71.7373 64.2461 71.7373ZM64.2617 68.9092C66.9023 68.9092 68.5898 66.8154 68.5898 63.1904V63.1592C68.5898 59.5654 66.8711 57.4873 64.2305 57.4873C61.6367 57.4873 59.9023 59.5654 59.9023 63.1592V63.1904C59.9023 66.8311 61.6211 68.9092 64.2617 68.9092ZM74.6523 71.4092V54.9717H78.0273V57.4561H78.1055C78.9648 55.7842 80.6523 54.6592 83.1367 54.6592C86.7461 54.6592 88.8242 56.9873 88.8242 60.7686V71.4092H85.4336V61.4092C85.4336 58.9404 84.2773 57.5498 81.9336 57.5498C79.5586 57.5498 78.0273 59.2686 78.0273 61.8311V71.4092H74.6523ZM99.293 77.2061C95.0742 77.2061 92.4023 75.2529 91.9023 72.7373L91.8867 72.5967H95.2305L95.293 72.7217C95.7461 73.7686 97.168 74.4873 99.2773 74.4873C101.965 74.4873 103.449 73.0498 103.449 70.7529V68.5029H103.371C102.434 70.2842 100.559 71.4248 98.1992 71.4248C94.0742 71.4248 91.3555 68.1904 91.3555 63.0654V63.0498C91.3555 57.8936 94.1055 54.6592 98.2773 54.6592C100.59 54.6592 102.402 55.9092 103.371 57.7686H103.449V54.9717H106.84V70.9561C106.84 74.7061 103.934 77.2061 99.293 77.2061ZM99.1523 68.6748C101.73 68.6748 103.449 66.5029 103.449 63.1123V63.0967C103.449 59.7217 101.715 57.5498 99.1523 57.5498C96.4805 57.5498 94.8086 59.7061 94.8086 63.0967V63.1123C94.8086 66.5498 96.4805 68.6748 99.1523 68.6748ZM110.184 71.4092V54.9717H113.559V57.7842H113.637C114.168 55.8623 115.543 54.6592 117.418 54.6592C117.902 54.6592 118.324 54.7373 118.59 54.7842V57.9248C118.324 57.8154 117.73 57.7373 117.074 57.7373C114.902 57.7373 113.559 59.1592 113.559 61.6123V71.4092H110.184ZM125.168 71.7061C121.887 71.7061 119.684 69.6904 119.684 66.7373V66.7061C119.684 63.8467 121.902 62.0967 125.793 61.8623L130.262 61.5967V60.3623C130.262 58.5498 129.09 57.4561 126.996 57.4561C125.043 57.4561 123.84 58.3779 123.559 59.6904L123.527 59.8311H120.34L120.355 59.6592C120.59 56.8311 123.043 54.6592 127.09 54.6592C131.105 54.6592 133.652 56.7842 133.652 60.0811V71.4092H130.262V68.8154H130.199C129.246 70.5811 127.34 71.7061 125.168 71.7061ZM123.09 66.6592C123.09 68.0967 124.277 69.0029 126.09 69.0029C128.465 69.0029 130.262 67.3936 130.262 65.2529V63.9717L126.246 64.2217C124.215 64.3467 123.09 65.2373 123.09 66.6279V66.6592ZM142.699 71.7373C139.449 71.7373 137.887 70.3623 137.887 67.0811V57.6592H135.527V54.9717H137.887V50.6904H141.34V54.9717H144.418V57.6592H141.34V66.8779C141.34 68.5498 142.09 69.0498 143.512 69.0498C143.871 69.0498 144.168 69.0186 144.418 68.9873V71.5967C144.027 71.6592 143.387 71.7373 142.699 71.7373ZM152.809 71.7373C149.199 71.7373 147.137 69.4092 147.137 65.6279V54.9717H150.512V64.9717C150.512 67.4561 151.668 68.8311 154.012 68.8311C156.387 68.8311 157.918 67.1279 157.918 64.5654V54.9717H161.309V71.4092H157.918V68.9404H157.84C156.98 70.5967 155.309 71.7373 152.809 71.7373ZM164.777 71.4092V48.8623H168.152V71.4092H164.777ZM176.449 71.7061C173.168 71.7061 170.965 69.6904 170.965 66.7373V66.7061C170.965 63.8467 173.184 62.0967 177.074 61.8623L181.543 61.5967V60.3623C181.543 58.5498 180.371 57.4561 178.277 57.4561C176.324 57.4561 175.121 58.3779 174.84 59.6904L174.809 59.8311H171.621L171.637 59.6592C171.871 56.8311 174.324 54.6592 178.371 54.6592C182.387 54.6592 184.934 56.7842 184.934 60.0811V71.4092H181.543V68.8154H181.48C180.527 70.5811 178.621 71.7061 176.449 71.7061ZM174.371 66.6592C174.371 68.0967 175.559 69.0029 177.371 69.0029C179.746 69.0029 181.543 67.3936 181.543 65.2529V63.9717L177.527 64.2217C175.496 64.3467 174.371 65.2373 174.371 66.6279V66.6592ZM193.98 71.7373C190.73 71.7373 189.168 70.3623 189.168 67.0811V57.6592H186.809V54.9717H189.168V50.6904H192.621V54.9717H195.699V57.6592H192.621V66.8779C192.621 68.5498 193.371 69.0498 194.793 69.0498C195.152 69.0498 195.449 69.0186 195.699 68.9873V71.5967C195.309 71.6592 194.668 71.7373 193.98 71.7373ZM200.324 52.4404C199.23 52.4404 198.355 51.5654 198.355 50.5029C198.355 49.4248 199.23 48.5498 200.324 48.5498C201.434 48.5498 202.293 49.4248 202.293 50.5029C202.293 51.5654 201.434 52.4404 200.324 52.4404ZM198.637 71.4092V54.9717H202.012V71.4092H198.637ZM212.559 71.7373C207.84 71.7373 204.762 68.4717 204.762 63.1904V63.1592C204.762 57.9092 207.871 54.6592 212.543 54.6592C217.23 54.6592 220.355 57.8936 220.355 63.1592V63.1904C220.355 68.4873 217.262 71.7373 212.559 71.7373ZM212.574 68.9092C215.215 68.9092 216.902 66.8154 216.902 63.1904V63.1592C216.902 59.5654 215.184 57.4873 212.543 57.4873C209.949 57.4873 208.215 59.5654 208.215 63.1592V63.1904C208.215 66.8311 209.934 68.9092 212.574 68.9092ZM222.965 71.4092V54.9717H226.34V57.4561H226.418C227.277 55.7842 228.965 54.6592 231.449 54.6592C235.059 54.6592 237.137 56.9873 237.137 60.7686V71.4092H233.746V61.4092C233.746 58.9404 232.59 57.5498 230.246 57.5498C227.871 57.5498 226.34 59.2686 226.34 61.8311V71.4092H222.965ZM246.559 71.7373C242.449 71.7373 240.043 69.7061 239.699 66.7061L239.684 66.5654H243.027L243.059 66.7217C243.371 68.2373 244.496 69.1279 246.574 69.1279C248.605 69.1279 249.824 68.2842 249.824 66.9561V66.9404C249.824 65.8779 249.23 65.2686 247.465 64.8467L244.777 64.2373C241.652 63.5186 240.105 62.0186 240.105 59.6279V59.6123C240.105 56.6748 242.668 54.6592 246.449 54.6592C250.34 54.6592 252.684 56.8311 252.855 59.6279L252.871 59.8154H249.699L249.684 59.7061C249.48 58.2686 248.355 57.2686 246.449 57.2686C244.637 57.2686 243.496 58.1279 243.496 59.4404V59.4561C243.496 60.4717 244.168 61.1592 245.934 61.5811L248.605 62.1904C251.965 62.9717 253.246 64.2998 253.246 66.6592V66.6748C253.246 69.6748 250.434 71.7373 246.559 71.7373ZM257.262 63.8936L257.012 48.8623H260.496L260.246 63.8936H257.262ZM258.746 71.5811C257.605 71.5811 256.699 70.6904 256.699 69.5498C256.699 68.4092 257.605 67.5342 258.746 67.5342C259.918 67.5342 260.809 68.4092 260.809 69.5498C260.809 70.6904 259.918 71.5811 258.746 71.5811ZM266.387 63.8936L266.137 48.8623H269.621L269.371 63.8936H266.387ZM267.871 71.5811C266.73 71.5811 265.824 70.6904 265.824 69.5498C265.824 68.4092 266.73 67.5342 267.871 67.5342C269.043 67.5342 269.934 68.4092 269.934 69.5498C269.934 70.6904 269.043 71.5811 267.871 71.5811Z" fill="url(#paint0_linear_2337_4179)"/>
<path d="M5.26658 21.6498L16.7357 51.7215L56.0272 38.9588L51.4185 8.35994L43.3855 28.3214L29.211 12.9649L25.4939 35.0402L5.26658 21.6498Z" stroke="#F5C563"  stroke-width="4px"/>
<path d="M269.262 43.4092C272.595 42.0758 279.962 38.0092 282.762 32.4092" stroke="#F5C563"  stroke-width="4px"/>
<path d="M264.95 39.9938C268.445 37.3157 275.8 30.0495 277.263 22.4096" stroke="#F5C563"  stroke-width="4px"/>
<defs>
<linearGradient id="paint0_linear_2337_4179" x1="32.7163" y1="54.7842" x2="218.359" y2="161.682" gradientUnits="userSpaceOnUse">
<stop stop-color="#D6B6F0"/>
<stop offset="1" stop-color="#7E87EF"/>
</linearGradient>
</defs>
</svg>
