<svg width="48" height="48" viewBox="0 0 48 48" fill="none" xmlns="http://www.w3.org/2000/svg">
<g id="Frame 48095820">
<circle id="Ellipse 139" cx="23.9988" cy="23.5066" r="23.5066" fill="#5ECC7B"/>
<g id="Group 10">
<path id="Ellipse 7" d="M35.5266 23.5234C35.5266 25.0769 35.2206 26.6152 34.6261 28.0505C34.0316 29.4857 33.1602 30.7898 32.0617 31.8883C30.9633 32.9868 29.6592 33.8582 28.2239 34.4527C26.7887 35.0472 25.2504 35.3531 23.6969 35.3531C22.1434 35.3531 20.6051 35.0472 19.1699 34.4527C17.7346 33.8582 16.4305 32.9868 15.332 31.8883C14.2335 30.7898 13.3622 29.4857 12.7677 28.0505C12.1732 26.6152 11.8672 25.0769 11.8672 23.5234L35.5266 23.5234Z" fill="white"/>
<path id="Ellipse 8" d="M31.8849 14.8379C31.8849 15.9243 31.6709 17 31.2552 18.0036C30.8394 19.0073 30.2301 19.9193 29.4619 20.6874C28.6937 21.4556 27.7818 22.065 26.7781 22.4807C25.7744 22.8964 24.6987 23.1104 23.6124 23.1104C22.526 23.1104 21.4503 22.8964 20.4466 22.4807C19.4429 22.065 18.531 21.4556 17.7628 20.6874C16.9946 19.9193 16.3853 19.0073 15.9696 18.0036C15.5538 17 15.3398 15.9243 15.3398 14.8379L31.8849 14.8379Z" fill="white"/>
<path id="Vector (Stroke)" fill-rule="evenodd" clip-rule="evenodd" d="M14.7103 12.1328L24.3065 18.4199L23.9438 18.9735L14.3477 12.6864L14.7103 12.1328ZM16.5303 12.1328L26.1264 18.4199L25.7637 18.9735L16.1676 12.6864L16.5303 12.1328ZM34.8635 20.2971L25.2674 26.5842L24.9047 26.0306L34.5008 19.7435L34.8635 20.2971ZM36.6835 20.2971L27.0873 26.5842L26.7246 26.0306L36.3208 19.7435L36.6835 20.2971Z" fill="white"/>
</g>
</g>
</svg>
