<svg width="18" height="10" viewBox="0 0 18 10" fill="none" xmlns="http://www.w3.org/2000/svg">
<path d="M9.20206 10C9.53638 10 9.82153 9.87217 10.0772 9.60669L17.5796 1.93707C17.796 1.73058 17.9041 1.45526 17.9041 1.14061C17.9041 0.501474 17.4125 -7.39268e-07 16.7635 -7.10901e-07C16.4489 -6.97147e-07 16.1637 0.127826 15.9474 0.344149L9.20206 7.25664L2.45673 0.34415C2.23058 0.127827 1.94543 -6.31817e-08 1.63078 -4.94278e-08C0.991642 -2.14904e-08 0.5 0.501474 0.5 1.14061C0.5 1.45526 0.608161 1.73058 0.824483 1.93707L8.32694 9.60669C8.5826 9.87217 8.86775 9.99017 9.20206 10Z" fill="#DEDEDE" fill-opacity="0.5" style="mix-blend-mode:plus-lighter"/>
</svg>
