<svg width="10" height="6" viewBox="0 0 10 6" fill="none" xmlns="http://www.w3.org/2000/svg">
<path d="M4.75 5.72852C4.93249 5.72852 5.08814 5.65874 5.22768 5.51383L9.32288 1.32739C9.44096 1.21467 9.5 1.06439 9.5 0.892639C9.5 0.543769 9.23164 0.27004 8.8774 0.27004C8.70565 0.27004 8.55 0.339814 8.43192 0.457893L4.75 4.23106L1.06808 0.457894C0.944633 0.339815 0.788983 0.27004 0.617231 0.27004C0.268361 0.270041 -2.26632e-07 0.543769 -2.11383e-07 0.89264C-2.03875e-07 1.06439 0.0590394 1.21467 0.177118 1.32739L4.27232 5.51383C4.41186 5.65874 4.56751 5.72315 4.75 5.72852Z" fill="black"/>
</svg>
