<svg width="21" height="21" viewBox="0 0 21 21" fill="none" xmlns="http://www.w3.org/2000/svg">
<g id="skipping-rope">
<g id="elements">
<path id="Ellipse 1698" d="M7.55112 6.07871C7.55112 7.50289 8.87058 8.65742 10.4982 8.65742C12.1259 8.65742 13.4453 7.50289 13.4453 6.07871C13.4453 4.65453 12.1259 3.5 10.4982 3.5C8.87058 3.5 7.55112 4.65453 7.55112 6.07871Z" stroke="#DDF988" stroke-width="1.33"/>
<path id="Vector" d="M3.90716 13.116L4.56745 13.195H4.56745L3.90716 13.116ZM6.03994 13.116L6.70023 13.037L6.03994 13.116ZM6.16784 12.1746L6.78126 12.4314L6.16784 12.1746ZM6.44352 16.5195L5.77965 16.5584L6.44352 16.5195ZM3.50358 16.5195L2.83972 16.4806L2.83972 16.4806L3.50358 16.5195ZM3.77926 12.1746L3.16584 12.4314L3.16584 12.4314L3.77926 12.1746ZM3.55354 11.2056L2.96463 10.8967L2.96293 10.8999L3.55354 11.2056ZM6.39355 11.2056L6.98418 10.8999L6.98246 10.8967L6.39355 11.2056ZM4.3079 10.8677C4.3079 11.235 4.60563 11.5327 4.9729 11.5327C5.34017 11.5327 5.6379 11.235 5.6379 10.8677H4.3079ZM10.4987 4.165C10.866 4.165 11.1637 3.86727 11.1637 3.5C11.1637 3.13273 10.866 2.835 10.4987 2.835V4.165ZM5.5464 5.31033C5.32579 5.60396 5.38498 6.02084 5.67861 6.24145C5.97224 6.46206 6.38912 6.40286 6.60973 6.10923L5.5464 5.31033ZM5.81258 7.72918C5.91029 7.37515 5.70251 7.00894 5.34847 6.91122C4.99444 6.81351 4.62823 7.0213 4.53052 7.37533L5.81258 7.72918ZM3.16584 12.4314C3.21421 12.547 3.24122 12.6125 3.25918 12.6628C3.26725 12.6854 3.27125 12.6989 3.2733 12.7067C3.27515 12.7138 3.27551 12.7165 3.27559 12.7171C3.27568 12.7178 3.27614 12.7211 3.27626 12.7295C3.2764 12.7387 3.27614 12.7541 3.27441 12.7796C3.2706 12.8357 3.26212 12.9095 3.24686 13.037L4.56745 13.195C4.59297 12.9816 4.62365 12.7601 4.59348 12.5381C4.56297 12.3135 4.47333 12.1105 4.39267 11.9178L3.16584 12.4314ZM6.70023 13.037C6.68498 12.9095 6.6765 12.8357 6.67269 12.7796C6.67096 12.7541 6.6707 12.7387 6.67083 12.7295C6.67096 12.7211 6.67141 12.7178 6.6715 12.7171C6.67159 12.7165 6.67195 12.7138 6.67379 12.7068C6.67585 12.6989 6.67985 12.6854 6.68791 12.6628C6.70588 12.6125 6.73289 12.547 6.78126 12.4314L5.55442 11.9178C5.47377 12.1105 5.38413 12.3135 5.35361 12.5381C5.32345 12.7601 5.35412 12.9816 5.37965 13.195L6.70023 13.037ZM7.10738 16.4806C7.03947 15.3215 6.82859 14.1102 6.70023 13.037L5.37965 13.195C5.52069 14.3741 5.71457 15.4476 5.77965 16.5584L7.10738 16.4806ZM3.24686 13.037C3.1185 14.1102 2.90763 15.3215 2.83972 16.4806L4.16744 16.5584C4.23253 15.4476 4.42641 14.3741 4.56745 13.195L3.24686 13.037ZM4.97355 17.5705C4.56821 17.5705 4.12787 17.2338 4.16744 16.5584L2.83972 16.4806C2.75747 17.8845 3.76816 18.9005 4.97355 18.9005V17.5705ZM4.97355 18.9005C6.17894 18.9005 7.18963 17.8845 7.10738 16.4806L5.77965 16.5584C5.81923 17.2338 5.37888 17.5705 4.97355 17.5705V18.9005ZM4.14244 11.5145C4.06127 11.6692 3.94737 11.7029 4.00257 11.6772C4.02905 11.6649 4.0898 11.643 4.19237 11.6197C4.39392 11.5738 4.67181 11.5413 4.9648 11.5342C5.25936 11.527 5.5333 11.5464 5.73116 11.587C5.83111 11.6076 5.88688 11.6286 5.90903 11.6395C5.94095 11.6552 5.86446 11.6285 5.80465 11.5145L6.98246 10.8967C6.85557 10.6548 6.64633 10.5201 6.4965 10.4463C6.33691 10.3677 6.16194 10.3178 5.99883 10.2842C5.67058 10.2168 5.28915 10.1959 4.93248 10.2046C4.57425 10.2133 4.20506 10.2527 3.8971 10.3228C3.74492 10.3575 3.58531 10.4046 3.4425 10.4709C3.32841 10.5239 3.09629 10.6457 2.96464 10.8967L4.14244 11.5145ZM4.39267 11.9178C4.36123 11.8427 4.31269 11.742 4.2847 11.6814C4.25005 11.6064 4.22239 11.5423 4.20236 11.4848C4.18155 11.4251 4.17733 11.3956 4.17688 11.3897C4.17652 11.385 4.18189 11.4383 4.14416 11.5112L2.96293 10.8999C2.753 11.3056 2.87919 11.7295 2.94643 11.9225C2.98817 12.0423 3.0376 12.1532 3.07727 12.2391C3.1236 12.3394 3.14661 12.3855 3.16584 12.4314L4.39267 11.9178ZM6.78126 12.4314C6.80049 12.3855 6.8235 12.3394 6.86983 12.2391C6.9095 12.1532 6.95893 12.0423 7.00066 11.9225C7.06791 11.7295 7.19409 11.3056 6.98417 10.9L5.80294 11.5112C5.76521 11.4383 5.77057 11.385 5.77022 11.3897C5.76977 11.3956 5.76554 11.4251 5.74474 11.4848C5.72471 11.5423 5.69705 11.6064 5.66239 11.6814C5.6344 11.742 5.58587 11.8427 5.55442 11.9178L6.78126 12.4314ZM4.3079 9.02581V10.8677H5.6379V9.02581H4.3079ZM10.4987 2.835C8.47314 2.835 6.67476 3.8085 5.5464 5.31033L6.60973 6.10923C7.49769 4.92736 8.90907 4.165 10.4987 4.165V2.835ZM4.53052 7.37533C4.38528 7.90154 4.3079 8.45517 4.3079 9.02581H5.6379C5.6379 8.57586 5.69886 8.14121 5.81258 7.72918L4.53052 7.37533Z" fill="#DDF988"/>
<path id="Vector_2" d="M14.9607 13.116L15.621 13.195L14.9607 13.116ZM17.0935 13.116L17.7538 13.037L17.0935 13.116ZM17.2214 12.1746L17.8348 12.4314L17.2214 12.1746ZM17.4971 16.5195L16.8332 16.5584L17.4971 16.5195ZM14.5571 16.5195L13.8933 16.4806L13.8933 16.4806L14.5571 16.5195ZM14.8328 12.1746L14.2194 12.4314L14.2194 12.4314L14.8328 12.1746ZM14.6071 11.2056L14.0182 10.8967L14.0165 10.8999L14.6071 11.2056ZM17.4471 11.2056L18.0377 10.8999L18.036 10.8967L17.4471 11.2056ZM15.3608 10.8677C15.3608 11.235 15.6585 11.5327 16.0258 11.5327C16.3931 11.5327 16.6908 11.235 16.6908 10.8677H15.3608ZM10.5 2.835C10.1327 2.835 9.835 3.13273 9.835 3.5C9.835 3.86727 10.1327 4.165 10.5 4.165V2.835ZM14.2194 12.4314C14.2678 12.547 14.2948 12.6125 14.3127 12.6628C14.3208 12.6854 14.3248 12.6989 14.3269 12.7067C14.3287 12.7138 14.3291 12.7165 14.3291 12.7171C14.3292 12.7178 14.3297 12.7211 14.3298 12.7295C14.33 12.7387 14.3297 12.7541 14.328 12.7796C14.3241 12.8357 14.3157 12.9095 14.3004 13.037L15.621 13.195C15.6465 12.9816 15.6772 12.7601 15.647 12.5381C15.6165 12.3135 15.5269 12.1105 15.4462 11.9178L14.2194 12.4314ZM17.7538 13.037C17.7385 12.9095 17.73 12.8357 17.7262 12.7796C17.7245 12.7541 17.7242 12.7387 17.7244 12.7295C17.7245 12.7211 17.725 12.7178 17.7251 12.7171C17.7251 12.7165 17.7255 12.7138 17.7273 12.7068C17.7294 12.6989 17.7334 12.6854 17.7415 12.6628C17.7594 12.6125 17.7864 12.547 17.8348 12.4314L16.608 11.9178C16.5273 12.1105 16.4377 12.3135 16.4072 12.5381C16.377 12.7601 16.4077 12.9816 16.4332 13.195L17.7538 13.037ZM18.1609 16.4806C18.093 15.3215 17.8821 14.1102 17.7538 13.037L16.4332 13.195C16.5742 14.3741 16.7681 15.4476 16.8332 16.5584L18.1609 16.4806ZM14.3004 13.037C14.1721 14.1102 13.9612 15.3215 13.8933 16.4806L15.221 16.5584C15.2861 15.4476 15.48 14.3741 15.621 13.195L14.3004 13.037ZM16.0271 17.5705C15.6218 17.5705 15.1814 17.2338 15.221 16.5584L13.8933 16.4806C13.811 17.8845 14.8217 18.9005 16.0271 18.9005V17.5705ZM16.0271 18.9005C17.2325 18.9005 18.2432 17.8845 18.1609 16.4806L16.8332 16.5584C16.8728 17.2338 16.4324 17.5705 16.0271 17.5705V18.9005ZM15.196 11.5145C15.1148 11.6692 15.0009 11.7029 15.0561 11.6772C15.0826 11.6649 15.1433 11.643 15.2459 11.6197C15.4475 11.5738 15.7254 11.5413 16.0183 11.5342C16.3129 11.527 16.5869 11.5464 16.7847 11.587C16.8847 11.6076 16.9404 11.6286 16.9626 11.6395C16.9945 11.6552 16.918 11.6285 16.8582 11.5145L18.036 10.8967C17.9091 10.6548 17.6999 10.5201 17.5501 10.4463C17.3905 10.3677 17.2155 10.3178 17.0524 10.2842C16.7241 10.2168 16.3427 10.1959 15.986 10.2046C15.6278 10.2133 15.2586 10.2527 14.9507 10.3228C14.7985 10.3575 14.6389 10.4046 14.496 10.4709C14.382 10.5239 14.1498 10.6457 14.0182 10.8967L15.196 11.5145ZM15.4462 11.9178C15.4148 11.8427 15.3662 11.742 15.3383 11.6814C15.3036 11.6064 15.2759 11.5423 15.2559 11.4848C15.2351 11.4251 15.2309 11.3956 15.2304 11.3897C15.2301 11.385 15.2354 11.4383 15.1977 11.5112L14.0165 10.8999C13.8066 11.3056 13.9327 11.7295 14 11.9225C14.0417 12.0423 14.0912 12.1532 14.1308 12.2391C14.1771 12.3394 14.2002 12.3855 14.2194 12.4314L15.4462 11.9178ZM17.8348 12.4314C17.854 12.3855 17.877 12.3394 17.9234 12.2391C17.963 12.1532 18.0125 12.0423 18.0542 11.9225C18.1215 11.7295 18.2476 11.3056 18.0377 10.9L16.8565 11.5112C16.8188 11.4383 16.8241 11.385 16.8238 11.3897C16.8233 11.3956 16.8191 11.4251 16.7983 11.4848C16.7783 11.5423 16.7506 11.6064 16.7159 11.6814C16.688 11.742 16.6394 11.8427 16.608 11.9178L17.8348 12.4314ZM15.3608 9.02581V10.8677H16.6908V9.02581H15.3608ZM10.5 4.165C13.1845 4.165 15.3608 6.34126 15.3608 9.02581H16.6908C16.6908 5.60672 13.9191 2.835 10.5 2.835V4.165Z" fill="#DDF988"/>
</g>
</g>
</svg>
