<svg width="194" height="80" viewBox="0 0 194 80" fill="none" xmlns="http://www.w3.org/2000/svg">
<path d="M29.5039 36.0233H44.273L52.5686 60.9335L88.9379 0H115.315L57.5044 79.1435H44.273L29.5039 36.0233Z" fill="url(#paint0_radial_7025_13645)"/>
<path fill-rule="evenodd" clip-rule="evenodd" d="M91.632 64.761C91.632 66.3755 91.8486 67.5569 92.2817 68.3051C92.7149 69.0336 93.4041 69.3979 94.3492 69.3979C95.1958 69.3979 95.9243 69.0631 96.5347 68.3937C97.1648 67.7243 97.7259 66.6512 98.2182 65.1745C98.8679 63.2646 99.3897 60.9609 99.7835 58.2634C100.197 55.5462 100.404 52.9669 100.404 50.5254C100.404 48.9108 100.197 47.7295 99.7835 46.9813C99.37 46.2134 98.7301 45.8294 97.8637 45.8294C96.9383 45.8294 96.1507 46.1641 95.501 46.8336C94.8709 47.4833 94.3295 48.5367 93.8766 49.9938C93.2268 51.9824 92.6854 54.3452 92.2522 57.082C91.8387 59.8189 91.632 62.3785 91.632 64.761ZM93.0792 80.0007C89.0034 80.0007 85.7251 78.524 83.2442 75.5706C80.7633 72.6171 79.5229 68.689 79.5229 63.7863C79.5229 59.7893 80.0348 55.9006 81.0587 52.1202C82.1022 48.3398 83.51 45.1698 85.2821 42.6102C87.0148 40.1293 89.0133 38.2785 91.2776 37.0577C93.5616 35.8369 96.1606 35.2266 99.0747 35.2266C103.229 35.2266 106.527 36.6836 108.969 39.5977C111.41 42.492 112.631 46.4398 112.631 51.441C112.631 55.4576 112.119 59.3365 111.095 63.0775C110.071 66.8185 108.663 69.9984 106.872 72.6171C105.198 75.0783 103.209 76.9291 100.906 78.1696C98.6218 79.3903 96.0129 80.0007 93.0792 80.0007ZM119.129 36.024L112.277 79.1442H133.216L134.9 68.4528H126.069L131.208 36.024H119.129ZM137.351 36.024H149.342L149.401 64.1998L158.35 36.024H170.341L153.624 79.1442H140.393L137.351 36.024ZM165.557 79.1442L172.409 36.024H193.762L192.108 46.4792H182.805L181.889 51.9726H190.306L188.741 62.0733H180.324L179.349 68.0098H188.682L186.91 79.1442H165.557ZM6.85198 36.024L0 79.1442H21.3534L23.1254 68.0098H13.7926L14.7672 62.0733H23.1845L24.7498 51.9726H16.3325L17.2481 46.4792H26.5514L28.2054 36.024H6.85198Z" fill="url(#paint1_linear_7025_13645)"/>
<path d="M1.14453 23.0742V22.3398H2.68359C3.0638 22.3398 3.35807 22.2422 3.56641 22.0469C3.77734 21.849 3.88281 21.5755 3.88281 21.2266V21.2188C3.88281 20.8646 3.77734 20.5898 3.56641 20.3945C3.35807 20.1992 3.0638 20.1016 2.68359 20.1016H1.14453V19.3633H2.90234C3.27214 19.3633 3.59635 19.4414 3.875 19.5977C4.15625 19.7513 4.3763 19.9674 4.53516 20.2461C4.69401 20.5221 4.77344 20.8438 4.77344 21.2109V21.2188C4.77344 21.5859 4.69401 21.9102 4.53516 22.1914C4.3763 22.4701 4.15625 22.6875 3.875 22.8438C3.59635 22.9974 3.27214 23.0742 2.90234 23.0742H1.14453ZM0.707031 25V19.3633H1.58203V25H0.707031ZM8.90234 25V19.3633H11.125C11.5104 19.3633 11.8438 19.4349 12.125 19.5781C12.4062 19.7188 12.6224 19.918 12.7734 20.1758C12.9271 20.431 13.0039 20.7331 13.0039 21.082V21.0898C13.0039 21.4701 12.9076 21.8047 12.7148 22.0938C12.5221 22.3802 12.2539 22.582 11.9102 22.6992L13.1719 25H12.1602L11.0117 22.832C11.0039 22.832 10.9961 22.832 10.9883 22.832C10.9805 22.832 10.9727 22.832 10.9648 22.832H9.77734V25H8.90234ZM9.77734 22.1211H11.0391C11.375 22.1211 11.6354 22.0339 11.8203 21.8594C12.0052 21.6823 12.0977 21.4336 12.0977 21.1133V21.1055C12.0977 20.793 12.0013 20.5469 11.8086 20.3672C11.6185 20.1875 11.3529 20.0977 11.0117 20.0977H9.77734V22.1211ZM19.6562 25.1367C19.1094 25.1367 18.6393 25.0169 18.2461 24.7773C17.8529 24.5352 17.5508 24.1927 17.3398 23.75C17.1289 23.3073 17.0234 22.7852 17.0234 22.1836V22.1758C17.0234 21.569 17.1302 21.0456 17.3438 20.6055C17.5573 20.1654 17.8607 19.8255 18.2539 19.5859C18.6497 19.3464 19.1172 19.2266 19.6562 19.2266C20.1979 19.2266 20.6654 19.3464 21.0586 19.5859C21.4518 19.8255 21.7539 20.1667 21.9648 20.6094C22.1784 21.0495 22.2852 21.5716 22.2852 22.1758V22.1836C22.2852 22.7852 22.1797 23.3073 21.9688 23.75C21.7578 24.1901 21.4544 24.5312 21.0586 24.7734C20.6654 25.0156 20.1979 25.1367 19.6562 25.1367ZM19.6562 24.3594C20.0104 24.3594 20.3177 24.2695 20.5781 24.0898C20.8385 23.9102 21.0391 23.6576 21.1797 23.332C21.3203 23.0039 21.3906 22.6211 21.3906 22.1836V22.1758C21.3906 21.7331 21.3203 21.349 21.1797 21.0234C21.0391 20.6979 20.8385 20.4466 20.5781 20.2695C20.3177 20.0924 20.0104 20.0039 19.6562 20.0039C19.3021 20.0039 18.9948 20.0924 18.7344 20.2695C18.4766 20.4466 18.276 20.6979 18.1328 21.0234C17.9896 21.349 17.918 21.7331 17.918 22.1758V22.1836C17.918 22.6211 17.987 23.0039 18.125 23.332C18.2656 23.6576 18.4648 23.9102 18.7227 24.0898C18.9831 24.2695 19.2943 24.3594 19.6562 24.3594ZM28.8516 25.1367C28.4479 25.1367 28.0859 25.069 27.7656 24.9336C27.4453 24.7956 27.1719 24.5977 26.9453 24.3398C26.7188 24.082 26.5443 23.7721 26.4219 23.4102C26.3021 23.0456 26.2422 22.6367 26.2422 22.1836V22.1758C26.2422 21.5768 26.349 21.0573 26.5625 20.6172C26.776 20.1745 27.0781 19.832 27.4688 19.5898C27.8594 19.3477 28.3164 19.2266 28.8398 19.2266C29.2669 19.2266 29.6484 19.3021 29.9844 19.4531C30.3203 19.6042 30.5964 19.8164 30.8125 20.0898C31.0286 20.3607 31.1706 20.6784 31.2383 21.043L31.2422 21.082H30.3633L30.3516 21.043C30.2526 20.7096 30.0716 20.4531 29.8086 20.2734C29.5482 20.0938 29.2253 20.0039 28.8398 20.0039C28.4935 20.0039 28.1927 20.0924 27.9375 20.2695C27.6823 20.4466 27.4844 20.6979 27.3438 21.0234C27.2057 21.3464 27.1367 21.7292 27.1367 22.1719V22.1797C27.1367 22.5156 27.1758 22.8177 27.2539 23.0859C27.3346 23.3542 27.4505 23.5833 27.6016 23.7734C27.7526 23.9609 27.9336 24.1055 28.1445 24.207C28.3555 24.3086 28.5938 24.3594 28.8594 24.3594C29.1667 24.3594 29.4362 24.2995 29.668 24.1797C29.9023 24.0573 30.0846 23.888 30.2148 23.6719C30.3451 23.4557 30.4115 23.2031 30.4141 22.9141L30.418 22.7891H28.9688V22.082H31.2852V22.7812C31.2852 23.138 31.2279 23.4609 31.1133 23.75C30.9987 24.0391 30.8346 24.2878 30.6211 24.4961C30.4076 24.7018 30.151 24.8607 29.8516 24.9727C29.5521 25.082 29.2188 25.1367 28.8516 25.1367ZM35.4883 25V19.3633H37.7109C38.0964 19.3633 38.4297 19.4349 38.7109 19.5781C38.9922 19.7188 39.2083 19.918 39.3594 20.1758C39.513 20.431 39.5898 20.7331 39.5898 21.082V21.0898C39.5898 21.4701 39.4935 21.8047 39.3008 22.0938C39.1081 22.3802 38.8398 22.582 38.4961 22.6992L39.7578 25H38.7461L37.5977 22.832C37.5898 22.832 37.582 22.832 37.5742 22.832C37.5664 22.832 37.5586 22.832 37.5508 22.832H36.3633V25H35.4883ZM36.3633 22.1211H37.625C37.9609 22.1211 38.2214 22.0339 38.4062 21.8594C38.5911 21.6823 38.6836 21.4336 38.6836 21.1133V21.1055C38.6836 20.793 38.5872 20.5469 38.3945 20.3672C38.2044 20.1875 37.9388 20.0977 37.5977 20.0977H36.3633V22.1211ZM43.4062 25L45.4414 19.3633H46.1484V20.3516H45.8828L44.3281 25H43.4062ZM44.3867 23.4766L44.6328 22.7734H47.1992L47.4453 23.4766H44.3867ZM47.5 25L45.9492 20.3516V19.3633H46.3906L48.4219 25H47.5ZM52.4023 25V19.3633H53.4141L55.207 23.8555H55.2734L57.0664 19.3633H58.0781V25H57.2773V20.8672H56.8438L57.7578 19.5195L55.5625 25H54.9141L52.7227 19.5195L53.6328 20.8672H53.2031V25H52.4023Z" fill="#DEDEDE" fill-opacity="0.5" style="mix-blend-mode:plus-lighter"/>
<defs>
<radialGradient id="paint0_radial_7025_13645" cx="0" cy="0" r="1" gradientUnits="userSpaceOnUse" gradientTransform="translate(72.55 -4.2954e-06) rotate(90.1016) scale(79.1436 85.8127)">
<stop stop-color="#97EBAD"/>
<stop offset="1" stop-color="#439258"/>
</radialGradient>
<linearGradient id="paint1_linear_7025_13645" x1="96.881" y1="35.2266" x2="96.881" y2="80.0007" gradientUnits="userSpaceOnUse">
<stop stop-color="white"/>
<stop offset="1" stop-color="#C8C8C8"/>
</linearGradient>
</defs>
</svg>
