<svg width="57" height="64" viewBox="0 0 57 64" fill="none" xmlns="http://www.w3.org/2000/svg">
<rect x="0.667969" y="0.165039" width="55.6667" height="63.6667" rx="8" fill="#1C1C1E"/>
<path d="M44.3346 31.9984C44.3346 40.7429 37.2458 47.8317 28.5013 47.8317C19.7568 47.8317 12.668 40.7429 12.668 31.9984M22.9596 17.1619C24.6844 16.5174 26.5517 16.165 28.5013 16.165C30.4509 16.165 32.3182 16.5174 34.043 17.1619" stroke="#5ECC7B" stroke-width="2.375" stroke-linecap="round" stroke-linejoin="round"/>
<path d="M21.4027 21.601L22.2386 23.2867C22.3526 23.5213 22.6565 23.7464 22.913 23.7895L24.4281 24.0433C25.397 24.2061 25.6249 24.9148 24.9268 25.614L23.7489 26.8016C23.5494 27.0027 23.4402 27.3906 23.5019 27.6683L23.8391 29.1385C24.1051 30.3021 23.4924 30.7523 22.4713 30.1441L21.0512 29.2965C20.7947 29.1433 20.372 29.1433 20.1108 29.2965L18.6907 30.1441C17.6743 30.7523 17.0569 30.2973 17.3229 29.1385L17.6601 27.6683C17.7218 27.3906 17.6126 27.0027 17.4131 26.8016L16.2352 25.614C15.5418 24.9148 15.765 24.2061 16.7339 24.0433L18.249 23.7895C18.5007 23.7464 18.8047 23.5213 18.9187 23.2867L19.7546 21.601C20.2105 20.6864 20.9515 20.6864 21.4027 21.601Z" stroke="#5ECC7B" stroke-width="2.375" stroke-linecap="round" stroke-linejoin="round"/>
<path d="M37.236 21.601L38.0719 23.2867C38.1859 23.5213 38.4899 23.7464 38.7463 23.7895L40.2614 24.0433C41.2303 24.2061 41.4583 24.9148 40.7601 25.614L39.5822 26.8016C39.3828 27.0027 39.2735 27.3906 39.3353 27.6683L39.6725 29.1385C39.9384 30.3021 39.3258 30.7523 38.3046 30.1441L36.8845 29.2965C36.6281 29.1433 36.2054 29.1433 35.9441 29.2965L34.524 30.1441C33.5077 30.7523 32.8902 30.2973 33.1562 29.1385L33.4934 27.6683C33.5551 27.3906 33.4459 27.0027 33.2464 26.8016L32.0686 25.614C31.3751 24.9148 31.5984 24.2061 32.5673 24.0433L34.0823 23.7895C34.3341 23.7464 34.638 23.5213 34.752 23.2867L35.5879 21.601C36.0439 20.6864 36.7848 20.6864 37.236 21.601Z" stroke="#5ECC7B" stroke-width="2.375" stroke-linecap="round" stroke-linejoin="round"/>
<path d="M22.168 36.748C23.6122 38.6709 25.9115 39.9147 28.5013 39.9147C31.0911 39.9147 33.3904 38.6709 34.8346 36.748" stroke="#5ECC7B" stroke-width="2.375" stroke-linecap="round" stroke-linejoin="round"/>
</svg>
