<svg width="56" height="64" viewBox="0 0 56 64" fill="none" xmlns="http://www.w3.org/2000/svg">
<rect x="0.167969" y="0.165039" width="55.6667" height="63.6667" rx="8" fill="black"/>
<path d="M43.8346 31.9984C43.8346 40.7429 36.7458 47.8317 28.0013 47.8317C19.2568 47.8317 12.168 40.7429 12.168 31.9984M22.4596 17.1619C24.1844 16.5174 26.0517 16.165 28.0013 16.165C29.9509 16.165 31.8182 16.5174 33.543 17.1619" stroke="#5ECC7B" stroke-width="2.375" stroke-linecap="round" stroke-linejoin="round"/>
<path d="M20.9027 21.601L21.7386 23.2867C21.8526 23.5213 22.1565 23.7464 22.413 23.7895L23.9281 24.0433C24.897 24.2061 25.1249 24.9148 24.4268 25.614L23.2489 26.8016C23.0494 27.0027 22.9402 27.3906 23.0019 27.6683L23.3391 29.1385C23.6051 30.3021 22.9924 30.7523 21.9713 30.1441L20.5512 29.2965C20.2947 29.1433 19.872 29.1433 19.6108 29.2965L18.1907 30.1441C17.1743 30.7523 16.5569 30.2973 16.8229 29.1385L17.1601 27.6683C17.2218 27.3906 17.1126 27.0027 16.9131 26.8016L15.7352 25.614C15.0418 24.9148 15.265 24.2061 16.2339 24.0433L17.749 23.7895C18.0007 23.7464 18.3047 23.5213 18.4187 23.2867L19.2546 21.601C19.7105 20.6864 20.4515 20.6864 20.9027 21.601Z" stroke="#5ECC7B" stroke-width="2.375" stroke-linecap="round" stroke-linejoin="round"/>
<path d="M36.736 21.601L37.5719 23.2867C37.6859 23.5213 37.9899 23.7464 38.2463 23.7895L39.7614 24.0433C40.7303 24.2061 40.9583 24.9148 40.2601 25.614L39.0822 26.8016C38.8828 27.0027 38.7735 27.3906 38.8353 27.6683L39.1725 29.1385C39.4384 30.3021 38.8258 30.7523 37.8046 30.1441L36.3845 29.2965C36.1281 29.1433 35.7054 29.1433 35.4441 29.2965L34.024 30.1441C33.0077 30.7523 32.3902 30.2973 32.6562 29.1385L32.9934 27.6683C33.0551 27.3906 32.9459 27.0027 32.7464 26.8016L31.5686 25.614C30.8751 24.9148 31.0984 24.2061 32.0673 24.0433L33.5823 23.7895C33.8341 23.7464 34.138 23.5213 34.252 23.2867L35.0879 21.601C35.5439 20.6864 36.2848 20.6864 36.736 21.601Z" stroke="#5ECC7B" stroke-width="2.375" stroke-linecap="round" stroke-linejoin="round"/>
<path d="M21.668 36.748C23.1122 38.6709 25.4115 39.9147 28.0013 39.9147C30.5911 39.9147 32.8904 38.6709 34.3346 36.748" stroke="#5ECC7B" stroke-width="2.375" stroke-linecap="round" stroke-linejoin="round"/>
</svg>
