<svg width="48" height="48" viewBox="0 0 48 48" fill="none" xmlns="http://www.w3.org/2000/svg">
<g id="Frame 48095821">
<circle id="Ellipse 140" cx="23.9988" cy="23.5066" r="23.5066" fill="#7E87EF"/>
<path id="Union" fill-rule="evenodd" clip-rule="evenodd" d="M13.9659 11.3431C15.101 11.3849 17.4764 11.5336 17.9007 11.7968C17.8589 11.5119 17.7334 10.877 17.5569 10.6215C16.6278 10.6138 14.7061 10.6107 14.4568 10.6633C14.2973 10.7872 13.9768 11.0954 13.9675 11.3431H13.9659ZM36.1173 17.8406C34.7747 17.7121 31.704 17.5309 30.1555 17.8406C30.0256 17.9538 29.8708 18.0938 29.7005 18.2547C26.0848 18.0184 25.8908 17.8013 25.654 14.1346C25.4156 17.8262 25.222 18.0213 21.5288 18.2598C25.2205 18.4983 25.4156 18.6918 25.654 22.385C25.8906 18.7237 26.0829 18.5017 29.6888 18.2657C28.8101 19.0967 27.5234 20.4723 27.0585 21.5571L29.7684 21.8668C28.7355 22.0479 26.5475 22.4707 26.052 22.7184C25.4326 23.0281 21.7936 25.8154 21.5613 26.28C21.3755 26.6516 20.8134 29.0673 20.5548 30.2287L20.0903 26.5897C19.3423 26.2026 17.783 25.3509 17.5352 25.0412C17.2875 24.7315 15.3673 19.8537 14.4382 17.4535L15.3673 16.2147L14.9028 15.4405L15.5996 15.8276L16.1416 15.1308L14.9028 13.892L16.761 14.9759L16.9933 13.7371L15.3673 12.7306L17.3804 13.5823L17.5352 12.0338C16.6325 11.7752 14.5466 11.306 13.4317 11.4918C12.6838 12.8854 11.1709 15.967 11.1089 17.1438C11.0315 18.6149 12.2703 30.7706 12.5026 31.39C12.7349 32.0094 16.219 36.0355 16.9933 36.0355C17.6127 36.0355 19.316 35.1064 20.0903 34.6419L19.0837 36.0355C20.5037 36.1641 23.4195 36.4072 23.7292 36.3452C24.1164 36.2678 31.1621 31.3126 31.4718 30.7706C31.7195 30.3371 32.1949 27.3903 32.4009 25.9703C32.582 26.7709 32.9428 28.4169 32.9428 28.6027C32.9428 28.835 35.5753 26.7445 35.7301 26.5897C35.885 26.4348 36.3495 18.5375 36.1173 17.8406ZM28.2951 17.9962C28.4144 16.1504 28.5119 16.0528 30.3577 15.9336C28.5119 15.8143 28.4144 15.7168 28.2951 13.871C28.1759 15.7168 28.0783 15.8143 26.2325 15.9336C28.0783 16.0528 28.1759 16.1504 28.2951 17.9962Z" fill="white"/>
</g>
</svg>
