<svg width="34" height="34" viewBox="0 0 34 34" fill="none" xmlns="http://www.w3.org/2000/svg">
<g clip-path="url(#clip0_3264_4970)">
<path fill-rule="evenodd" clip-rule="evenodd" d="M4.30357 0.988605C5.80045 1.04374 8.93307 1.23979 9.49262 1.58695C9.43748 1.2112 9.27207 0.373924 9.03927 0.0369722C7.81399 0.0267615 5.2797 0.0226772 4.95092 0.0921097C4.74058 0.25548 4.31786 0.661864 4.30561 0.988605H4.30357ZM33.5162 9.55738C31.7457 9.38789 27.6962 9.14896 25.654 9.55738C24.5983 10.4763 22.3049 12.7431 21.5698 14.4585L25.1435 14.8669C23.7814 15.1059 20.8959 15.6634 20.2424 15.9901C19.4255 16.3985 14.6265 20.0744 14.3202 20.687C14.0752 21.1771 13.3339 24.3628 12.9928 25.8944L12.3802 21.0954C11.3938 20.5849 9.33742 19.4617 9.01068 19.0533C8.68394 18.6449 6.15169 12.2122 4.92642 9.04685L6.15169 7.41315L5.53905 6.39208L6.45801 6.90261L7.17276 5.98365L5.53905 4.34995L7.98961 5.77944L8.29593 4.14574L6.15169 2.81835L8.80646 3.94152L9.01068 1.89939C7.82011 1.55836 5.06936 0.939594 3.59903 1.18465C2.61268 3.02257 0.617521 7.0864 0.535836 8.63842C0.433729 10.5784 2.06743 26.6092 2.37375 27.426C2.68007 28.2429 7.27487 33.5524 8.29593 33.5524C9.11278 33.5524 11.3591 32.3271 12.3802 31.7145L11.0528 33.5524C12.9254 33.7219 16.7708 34.0425 17.1792 33.9608C17.6897 33.8587 26.9814 27.3239 27.3898 26.6092C27.7166 26.0374 28.3435 22.1512 28.6151 20.2786C28.8541 21.3343 29.3299 23.5051 29.3299 23.7502C29.3299 24.0565 32.8015 21.2996 33.0057 21.0954C33.2099 20.8912 33.8226 10.4763 33.5162 9.55738Z" fill="#7E87EF"/>
<path fill-rule="evenodd" clip-rule="evenodd" d="M25.1578 10.1102C20.2873 10.4246 20.0321 10.682 19.7176 15.5504C19.4031 10.6799 19.1458 10.4246 14.2773 10.1102C19.1478 9.79567 19.4031 9.53836 19.7176 4.66992C20.0321 9.5404 20.2894 9.79567 25.1578 10.1102Z" fill="#7E87EF"/>
<path fill-rule="evenodd" clip-rule="evenodd" d="M25.9207 7.04238C23.4865 7.19963 23.3578 7.32828 23.2006 9.7625C23.0433 7.32828 22.9147 7.19963 20.4805 7.04238C22.9147 6.88514 23.0433 6.75648 23.2006 4.32227C23.3578 6.75648 23.4865 6.88514 25.9207 7.04238Z" fill="#7E87EF"/>
</g>
<defs>
<clipPath id="clip0_3264_4970">
<rect width="33.0682" height="33.9443" fill="white" transform="translate(0.53125 0.0292969)"/>
</clipPath>
</defs>
</svg>
