<svg width="35" height="28" viewBox="0 0 35 28" fill="none" xmlns="http://www.w3.org/2000/svg">
<path d="M15.9527 5.9668L17.4959 9.94663V23.7542L15.709 27.1655C14.6044 27.2954 12.1623 25.9743 11.0794 25.2974C10.8357 23.8625 10.4134 20.9927 10.6733 20.9927C10.9332 20.9927 13.5431 20.6137 14.8156 20.4241C13.489 20.2346 10.8032 19.7906 10.6733 19.5307C10.5109 19.2058 9.61742 15.226 10.0235 14.9823C10.3484 14.7874 13.137 14.2513 14.4907 14.0077L9.21131 13.764C8.88643 13.2442 8.31788 10.2986 8.07422 8.89076C8.72399 8.30596 13.5973 6.69779 15.9527 5.9668Z" fill="white"/>
<path d="M8.88597 6.61568L12.216 5.07248L7.42399 5.47859L6.693 4.91004H8.96719L8.15498 4.09783H5.5559L0.195312 0.199219L0.926302 6.37202L5.39346 11.2453L10.4292 24.9716L6.693 9.3772L8.88597 6.61568Z" fill="white"/>
<path d="M19.0395 5.9668L17.4963 9.94663V23.7542L19.2832 27.1655C20.3878 27.2954 22.8298 25.9743 23.9128 25.2974C24.1565 23.8625 24.5788 20.9927 24.3189 20.9927C24.059 20.9927 21.4491 20.6137 20.1766 20.4241C21.5032 20.2346 24.1889 19.7906 24.3189 19.5307C24.4813 19.2058 25.3748 15.226 24.9687 14.9823C24.6438 14.7874 21.8552 14.2513 20.5015 14.0077L25.7809 13.764C26.1058 13.2442 26.6743 10.2986 26.918 8.89076C26.2682 8.30596 21.3949 6.69779 19.0395 5.9668Z" fill="white"/>
<path d="M26.1062 6.61568L22.7762 5.07248L27.5682 5.47859L28.2992 4.91004H26.025L26.8372 4.09783H29.4363L34.7969 0.199219L34.0659 6.37202L29.5987 11.2453L24.563 24.9716L28.2992 9.3772L26.1062 6.61568Z" fill="white"/>
</svg>
