<svg width="37" height="37" viewBox="0 0 37 37" fill="none" xmlns="http://www.w3.org/2000/svg">
<path d="M34.3207 10.822L35.0266 11.5303L35.0266 11.5303L34.3207 10.822ZM34.4436 7.06287L35.1496 6.35458L34.4436 7.06287ZM30.1552 11.6333L30.4923 10.6919L30.1552 11.6333ZM10.2423 34.8198L9.53643 34.1115L9.53642 34.1115L10.2423 34.8198ZM6.47062 34.9424L7.17654 34.2341L6.47062 34.9424ZM11.0564 30.6682L10.1157 31.0074L11.0564 30.6682ZM33.7377 7.77116C34.333 8.36442 34.331 9.3998 33.6147 10.1137L35.0266 11.5303C36.4033 10.1581 36.6473 7.84733 35.1496 6.35458L33.7377 7.77116ZM24.9197 3.35352C27.9591 3.35352 31.113 5.15517 33.7377 7.77116L35.1496 6.35458C32.3474 3.56177 28.7137 1.35352 24.9197 1.35352V3.35352ZM25.3601 11.9198C26.9243 11.8568 28.4056 12.0689 29.818 12.5747L30.4923 10.6919C28.8208 10.0932 27.0816 9.84887 25.2797 9.92145L25.3601 11.9198ZM5.7647 35.6506C7.26002 37.141 9.57277 36.899 10.9483 35.5281L9.53642 34.1115C8.8189 34.8266 7.77423 34.8298 7.17654 34.2341L5.7647 35.6506ZM0.855469 26.2696C0.854064 28.5766 1.37402 30.2565 2.29794 31.726C3.18797 33.1415 4.44429 34.3347 5.7647 35.6506L7.17654 34.2341C5.78347 32.8457 4.73092 31.8381 3.99109 30.6614C3.28515 29.5386 2.85427 28.2346 2.85547 26.2708L0.855469 26.2696ZM9.33099 25.7608C9.25805 27.5596 9.51521 29.342 10.1157 31.0074L11.9971 30.329C11.4894 28.9209 11.2663 27.3978 11.3293 25.8418L9.33099 25.7608ZM29.818 12.5747C31.5822 13.2066 33.5945 12.9576 35.0266 11.5303L33.6147 10.1137C32.8194 10.9063 31.6568 11.1089 30.4923 10.6919L29.818 12.5747ZM10.1157 31.0074C10.5329 32.1646 10.3308 33.3198 9.53643 34.1115L10.9482 35.5281C12.3813 34.0999 12.6323 32.0907 11.9971 30.329L10.1157 31.0074Z" fill="#F8F8F8" fill-opacity="0.8" style="mix-blend-mode:plus-lighter"/>
<path d="M10.4562 5.27613L10.9413 6.15062L10.4562 5.27613ZM19.1767 11.8063L18.2786 12.246V12.246L19.1767 11.8063ZM17.4045 8.18697L18.3026 7.74721L17.4045 8.18697ZM18.0483 18.7051L17.3384 18.0009L18.0483 18.7051ZM14.3423 4.33345L14.0401 5.2867H14.0401L14.3423 4.33345ZM4.72816 11.051L3.85036 10.572L4.72816 11.051ZM15.4311 20.8325L15.7507 21.78H15.7507L15.4311 20.8325ZM14.3615 21.0103L14.3575 20.0103H14.3575L14.3615 21.0103ZM3.79312 14.9688L4.74777 14.6711L3.79312 14.9688ZM19.9391 2.15997L19.6798 1.19418V1.19418L19.9391 2.15997ZM25.318 12.6654L26.0966 13.2929L26.0966 13.2929L25.318 12.6654ZM25.1853 2.1721L25.806 1.38808L25.806 1.38807L25.1853 2.1721ZM1.63725 20.6113L0.67042 20.3559H0.67042L1.63725 20.6113ZM7.75919 26.9724L7.6855 25.9751L7.75919 26.9724ZM12.1473 25.9581L12.8072 26.7094L12.8072 26.7094L12.1473 25.9581ZM1.76304 26.0388L1.00723 26.6936L1.00724 26.6937L1.76304 26.0388ZM20.0748 11.3665L18.3026 7.74721L16.5064 8.62673L18.2786 12.246L20.0748 11.3665ZM10.9413 6.15062C11.8067 5.6706 12.3243 5.38946 12.7864 5.25193C13.1766 5.1358 13.5276 5.12426 14.0401 5.2867L14.6444 3.3802C13.7656 3.1016 13.0051 3.10016 12.2159 3.33501C11.4987 3.54847 10.7689 3.95919 9.97118 4.40165L10.9413 6.15062ZM18.3026 7.74721C17.7606 6.64032 17.3017 5.69529 16.787 4.98543C16.2356 4.22507 15.5834 3.67784 14.6444 3.3802L14.0401 5.2867C14.4924 5.4301 14.8144 5.67214 15.1678 6.15952C15.5579 6.69742 15.9344 7.45863 16.5064 8.62673L18.3026 7.74721ZM17.3384 18.0009C16.7081 18.6363 16.2786 19.0681 15.9141 19.3781C15.5619 19.6774 15.3275 19.8121 15.1114 19.8849L15.7507 21.78C16.2969 21.5958 16.7527 21.2901 17.2095 20.9018C17.6538 20.5241 18.1518 20.0208 18.7583 19.4094L17.3384 18.0009ZM15.1114 19.8849C14.8682 19.967 14.6137 20.0092 14.3575 20.0103L14.3655 22.0103C14.8366 22.0084 15.3042 21.9306 15.7507 21.78L15.1114 19.8849ZM3.85036 10.572C3.4111 11.3769 3.00479 12.1109 2.79376 12.8317C2.56213 13.6228 2.56339 14.3845 2.83847 15.2665L4.74777 14.6711C4.58539 14.1504 4.59667 13.7916 4.71318 13.3936C4.85028 12.9254 5.13022 12.4018 5.60597 11.53L3.85036 10.572ZM14.8185 5.21278C16.461 4.32323 18.4468 3.59608 20.1984 3.12576L19.6798 1.19418C17.8169 1.69437 15.6778 2.47292 13.866 3.45412L14.8185 5.21278ZM20.1984 3.12576C21.5411 2.76524 22.3993 2.54011 23.0876 2.50463C23.6886 2.47366 24.1039 2.59142 24.5646 2.95613L25.806 1.38807C24.9266 0.691801 24.0208 0.453882 22.9847 0.507279C22.036 0.556172 20.9412 0.855467 19.6798 1.19418L20.1984 3.12576ZM2.91058 14.4985C1.93799 16.3239 1.16623 18.4791 0.67042 20.3559L2.60408 20.8667C3.07092 19.0996 3.79266 17.0962 4.67566 15.439L2.91058 14.4985ZM7.6855 25.9751C6.02275 26.098 4.91039 26.1764 4.06879 26.0865C3.29497 26.0039 2.87106 25.7906 2.51883 25.384L1.00724 26.6937C1.77593 27.5809 2.72503 27.9545 3.85651 28.0752C4.92022 28.1888 6.24548 28.087 7.83288 27.9697L7.6855 25.9751ZM7.83288 27.9697C9.27746 27.863 10.4205 27.7844 11.3022 27.5229L10.7334 25.6055C10.109 25.7907 9.22859 25.8611 7.6855 25.9751L7.83288 27.9697ZM24.5646 2.95613C24.8206 3.15881 25.1129 3.63534 25.3281 4.46434C25.5348 5.26033 25.6341 6.24177 25.6243 7.26498C25.6147 8.28519 25.497 9.30833 25.2927 10.1798C25.0821 11.0775 24.8035 11.7101 24.5394 12.0379L26.0966 13.2929C26.64 12.6186 27.0042 11.641 27.2398 10.6364C27.4816 9.60546 27.6133 8.43415 27.6243 7.28397C27.6352 6.13678 27.5262 4.97187 27.2639 3.96169C27.0102 2.98452 26.5727 1.99506 25.806 1.38808L24.5646 2.95613ZM24.5394 12.0379C24.2314 12.42 23.4914 12.8624 22.4879 13.2745C21.5363 13.6654 20.5227 13.9607 19.8588 14.128L20.3476 16.0674C21.0676 15.8859 22.1792 15.5634 23.2478 15.1246C24.2646 14.707 25.44 14.1076 26.0966 13.2929L24.5394 12.0379ZM12.8072 26.7094C13.2928 26.2829 13.675 25.6951 13.9721 25.1282C14.2761 24.5483 14.5274 23.9191 14.7258 23.3505C14.9252 22.7792 15.0774 22.2512 15.1797 21.8668C15.231 21.674 15.2701 21.5159 15.2967 21.4047C15.31 21.3491 15.3201 21.3051 15.3271 21.2743C15.3306 21.259 15.3334 21.2469 15.3353 21.2382C15.3362 21.2339 15.337 21.2305 15.3376 21.2279C15.3378 21.2266 15.3381 21.2256 15.3383 21.2248C15.3384 21.2243 15.3384 21.224 15.3385 21.2237C15.3385 21.2235 15.3386 21.2234 15.3386 21.2233C15.3386 21.2231 15.3387 21.223 14.3615 21.0103C13.3844 20.7976 13.3844 20.7974 13.3845 20.7973C13.3845 20.7973 13.3845 20.7972 13.3845 20.7972C13.3845 20.7971 13.3845 20.7971 13.3845 20.7971C13.3845 20.7972 13.3844 20.7975 13.3843 20.798C13.3841 20.799 13.3837 20.8009 13.3831 20.8037C13.3818 20.8092 13.3798 20.8181 13.3771 20.8302C13.3716 20.8544 13.363 20.8914 13.3515 20.9397C13.3283 21.0364 13.2933 21.178 13.2469 21.3526C13.1537 21.7029 13.0159 22.1803 12.8375 22.6916C12.6581 23.2055 12.4437 23.7362 12.2007 24.1997C11.9509 24.6763 11.7048 25.0157 11.4874 25.2067L12.8072 26.7094ZM7.83288 27.9697C9.00906 27.8828 9.96655 27.8098 10.734 27.6554C11.5313 27.495 12.2131 27.2312 12.8072 26.7094L11.4874 25.2067C11.243 25.4214 10.9279 25.5763 10.3395 25.6947C9.72118 25.8191 8.90389 25.8851 7.6855 25.9751L7.83288 27.9697ZM0.67042 20.3559C0.456214 21.1667 0.111446 22.2625 0.0228056 23.3182C-0.0697517 24.4206 0.0957099 25.6415 1.00723 26.6936L2.51884 25.384C2.0805 24.8781 1.95021 24.2667 2.01579 23.4856C2.0853 22.6578 2.35257 21.8188 2.60408 20.8667L0.67042 20.3559ZM2.83847 15.2665C3.12998 16.2012 3.8883 17.0619 4.73128 17.7881C5.60229 18.5384 6.68896 19.2507 7.82017 19.8648C8.95397 20.4803 10.1592 21.0115 11.2804 21.3905C12.3828 21.7632 13.4769 22.0138 14.3655 22.0103L14.3575 20.0103C13.7935 20.0125 12.9434 19.8415 11.9208 19.4959C10.9169 19.1565 9.81636 18.6727 8.77434 18.1071C7.72974 17.54 6.7706 16.9051 6.03662 16.2728C5.27462 15.6164 4.86878 15.0591 4.74777 14.6711L2.83847 15.2665ZM18.7583 19.4094C19.9613 18.1966 20.8099 17.0584 21.0427 15.6976C21.2759 14.3341 20.8553 12.9604 20.0748 11.3665L18.2786 12.246C19.01 13.7399 19.1952 14.6361 19.0713 15.3603C18.947 16.0872 18.4755 16.8545 17.3384 18.0009L18.7583 19.4094ZM5.60597 11.53C6.83559 9.27676 8.70852 7.38905 10.9413 6.15062L9.97118 4.40165C7.40539 5.8248 5.26074 7.98749 3.85036 10.572L5.60597 11.53Z" fill="#F8F8F8" fill-opacity="0.8" style="mix-blend-mode:plus-lighter"/>
</svg>
