<svg width="24" height="24" viewBox="0 0 24 24" fill="none" xmlns="http://www.w3.org/2000/svg">
<g id="home">
<path id="Vector" d="M16.2478 3.59824C14.6426 2.31406 13.84 1.67197 12.9498 1.42572C12.1647 1.20851 11.3353 1.20851 10.5502 1.42572C9.66004 1.67197 8.85743 2.31406 7.2522 3.59824L4.60293 5.71766C3.27983 6.77614 2.61828 7.30538 2.14209 7.96228C1.72024 8.54423 1.40638 9.19725 1.21548 9.8902C1 10.6724 1 11.5196 1 13.214V20.5105C1 21.6306 1 22.1906 1.21799 22.6185C1.40973 22.9948 1.71569 23.3007 2.09202 23.4925C2.51984 23.7105 3.07989 23.7105 4.2 23.7105H7.15C7.71005 23.7105 7.99008 23.7105 8.20399 23.6015C8.39215 23.5056 8.54513 23.3526 8.64101 23.1645C8.75 22.9505 8.75 22.6705 8.75 22.1105V15.5604C8.75 15.0004 8.75 14.7204 8.85899 14.5065C8.95487 14.3183 9.10785 14.1653 9.29601 14.0694C9.50992 13.9604 9.78995 13.9604 10.35 13.9604H13.15C13.7101 13.9604 13.9901 13.9604 14.204 14.0694C14.3922 14.1653 14.5451 14.3183 14.641 14.5065C14.75 14.7204 14.75 15.0004 14.75 15.5604V22.1105C14.75 22.6705 14.75 22.9505 14.859 23.1645C14.9549 23.3526 15.1078 23.5056 15.296 23.6015C15.5099 23.7105 15.7899 23.7105 16.35 23.7105H19.3C20.4201 23.7105 20.9802 23.7105 21.408 23.4925C21.7843 23.3007 22.0903 22.9948 22.282 22.6185C22.5 22.1906 22.5 21.6306 22.5 20.5105V13.214C22.5 11.5196 22.5 10.6724 22.2845 9.8902C22.0936 9.19725 21.7798 8.54423 21.3579 7.96228C20.8817 7.30538 20.2202 6.77614 18.8971 5.71766L16.2478 3.59824Z" fill="white"/>
</g>
</svg>
