<!-- <svg width="100" height="100" viewBox="0 0 100 100" fill="none" xmlns="http://www.w3.org/2000/svg">
<path id="Subtract" fill-rule="evenodd" clip-rule="evenodd" d="M50 100C77.6142 100 100 77.6142 100 50C100 22.3858 77.6142 0 50 0C22.3858 0 0 22.3858 0 50C0 77.6142 22.3858 100 50 100ZM79.9926 72.0266L80 24.0281L70.2929 38.4679C69.5416 37.449 68.7055 36.4744 67.7992 35.57C65.4845 33.2553 62.7896 31.4391 59.7902 30.1691C57.35 29.1373 54.7807 28.5024 52.143 28.279V27.3506C57.5789 27.5998 62.8672 28.7977 67.8619 30.9112C69.3515 31.5406 70.8226 32.2568 72.231 33.0357L72.5281 33.2L74.9314 29.6191L74.5825 29.4234C72.9564 28.5098 71.2601 27.6773 69.5361 26.95C63.3415 24.329 56.7686 23 50 23C43.2314 23 36.6585 24.329 30.4639 26.95C28.7399 27.6773 27.0436 28.5098 25.4175 29.4234L25.0704 29.6191L27.4719 33.2L27.769 33.0357C29.1774 32.2568 30.6485 31.5406 32.1381 30.9112C37.1365 28.7959 42.4266 27.5979 47.857 27.3506V28.279C45.2212 28.5024 42.65 29.1373 40.2117 30.1691C37.2104 31.4391 34.5155 33.2553 32.2008 35.57C31.2945 36.4763 30.4584 37.449 29.7071 38.4679L20 24.0281L20.0074 72.0266L24.3026 69.0623V38.2113L27.2356 42.6081C27.0842 42.9292 26.9366 43.2559 26.8 43.5808C25.4858 46.6892 24.8194 49.9895 24.8194 53.3913C24.8194 56.7931 25.4858 60.0935 26.8 63.2018C27.9222 65.8561 29.4782 68.2778 31.4237 70.4005L31.5326 70.5204H37.9856L37.1458 69.8615C36.4831 69.3391 35.8426 68.7706 35.2409 68.1707C31.2945 64.2244 29.1202 58.9749 29.1202 53.3913C29.1202 51.1782 29.4579 49.013 30.128 46.9402L46.7994 71.9159V63.894L32.2894 42.309C33.1237 40.9801 34.1168 39.736 35.2409 38.61C38.6409 35.2119 43.1077 33.0855 47.8589 32.5982L47.8699 66.6978L47.8736 73.5254L50 76.7113L52.1282 73.5254L52.1411 32.5982C56.8923 33.0855 61.3591 35.2119 64.7591 38.61C65.8832 39.736 66.8763 40.9782 67.7106 42.309L53.2634 63.8017L53.2006 63.894V71.9159L69.872 46.9402C70.5421 49.013 70.8817 51.1782 70.8817 53.3913C70.8817 58.9749 68.7073 64.2244 64.7591 68.1707C64.1574 68.7725 63.5169 69.341 62.8542 69.8615L62.0144 70.5204H68.4674L68.5763 70.4005C70.5218 68.2778 72.0778 65.8561 73.2 63.2018C74.5142 60.0935 75.1806 56.7931 75.1806 53.3913C75.1806 49.9895 74.5142 46.6892 73.2 43.5808C73.0634 43.2578 72.9176 42.9311 72.7644 42.6081L75.6993 38.2113V69.0623L79.9926 72.0266Z" fill="#5ECC7B"/>
</svg> -->


<svg xmlns="http://www.w3.org/2000/svg" width="100" height="100" viewBox="0 0 100 100" fill="none">
  <path fill-rule="evenodd" clip-rule="evenodd" d="M50 100C77.6142 100 100 77.6142 100 50C100 22.3858 77.6142 0 50 0C22.3858 0 0 22.3858 0 50C0 77.6142 22.3858 100 50 100ZM79.9926 72.0266L80 24.0281L70.2929 38.4679C69.5416 37.449 68.7055 36.4744 67.7992 35.57C65.4845 33.2553 62.7896 31.4391 59.7902 30.1691C57.35 29.1373 54.7807 28.5024 52.143 28.279V27.3506C57.5789 27.5998 62.8672 28.7977 67.8619 30.9112C69.3515 31.5406 70.8226 32.2568 72.231 33.0357L72.5281 33.2L74.9314 29.6191L74.5825 29.4234C72.9564 28.5098 71.2601 27.6773 69.5361 26.95C63.3415 24.329 56.7686 23 50 23C43.2314 23 36.6585 24.329 30.4639 26.95C28.7399 27.6773 27.0436 28.5098 25.4175 29.4234L25.0704 29.6191L27.4719 33.2L27.769 33.0357C29.1774 32.2568 30.6485 31.5406 32.1381 30.9112C37.1365 28.7959 42.4266 27.5979 47.857 27.3506V28.279C45.2212 28.5024 42.65 29.1373 40.2117 30.1691C37.2104 31.4391 34.5155 33.2553 32.2008 35.57C31.2945 36.4763 30.4584 37.449 29.7071 38.4679L20 24.0281L20.0074 72.0266L24.3026 69.0623V38.2113L27.2356 42.6081C27.0842 42.9292 26.9366 43.2559 26.8 43.5808C25.4858 46.6892 24.8194 49.9895 24.8194 53.3913C24.8194 56.7931 25.4858 60.0935 26.8 63.2018C27.9222 65.8561 29.4782 68.2778 31.4237 70.4005L31.5326 70.5204H37.9856L37.1458 69.8615C36.4831 69.3391 35.8426 68.7706 35.2409 68.1707C31.2945 64.2244 29.1202 58.9749 29.1202 53.3913C29.1202 51.1782 29.4579 49.013 30.128 46.9402L46.7994 71.9159V63.894L32.2894 42.309C33.1237 40.9801 34.1168 39.736 35.2409 38.61C38.6409 35.2119 43.1077 33.0855 47.8589 32.5982L47.8699 66.6978L47.8736 73.5254L50 76.7113L52.1282 73.5254L52.1411 32.5982C56.8923 33.0855 61.3591 35.2119 64.7591 38.61C65.8832 39.736 66.8763 40.9782 67.7106 42.309L53.2634 63.8017L53.2006 63.894V71.9159L69.872 46.9402C70.5421 49.013 70.8817 51.1782 70.8817 53.3913C70.8817 58.9749 68.7073 64.2244 64.7591 68.1707C64.1574 68.7725 63.5169 69.341 62.8542 69.8615L62.0144 70.5204H68.4674L68.5763 70.4005C70.5218 68.2778 72.0778 65.8561 73.2 63.2018C74.5142 60.0935 75.1806 56.7931 75.1806 53.3913C75.1806 49.9895 74.5142 46.6892 73.2 43.5808C73.0634 43.2578 72.9176 42.9311 72.7644 42.6081L75.6993 38.2113V69.0623L79.9926 72.0266Z" fill="url(#paint0_linear_1099_1820)"/>
  <defs>
    <linearGradient id="paint0_linear_1099_1820" x1="-2.28572" y1="38.75" x2="108.915" y2="50.0283" gradientUnits="userSpaceOnUse">
      <stop stop-color="#9BF2C0"/>
      <stop offset="1" stop-color="#91BDF6"/>
    </linearGradient>
  </defs>
</svg>
