<svg xmlns="http://www.w3.org/2000/svg" width="163" height="75" viewBox="0 0 163 75" fill="none">
  <rect width="9.57444" height="74.9998" rx="4.78722" fill="#323232"/>
  <rect y="33.1729" width="9.57444" height="41.8268" rx="4.78722" fill="#5ECC7B"/>
  <rect x="19.1484" width="9.57444" height="74.9998" rx="4.78722" fill="#323232"/>
  <rect x="19.1484" y="50.4805" width="9.57444" height="24.5192" rx="4.78722" fill="#FA5757"/>
  <rect x="38.3008" width="9.57444" height="74.9998" rx="4.78722" fill="#323232"/>
  <rect x="38.3008" y="18.75" width="9.57444" height="56.2498" rx="4.78722" fill="#5ECC7B"/>
  <rect x="57.4492" width="9.57444" height="74.9998" rx="4.78722" fill="#323232"/>
  <rect x="57.4492" y="12.9805" width="9.57444" height="62.019" rx="4.78722" fill="#5ECC7B"/>
  <rect x="76.5938" width="9.57444" height="74.9998" rx="4.78722" fill="#323232"/>
  <rect x="76.5938" y="59.1338" width="9.57444" height="15.8653" rx="4.78722" fill="#FA5757"/>
  <rect x="95.7461" width="9.57444" height="74.9998" rx="4.78722" fill="#323232"/>
  <rect x="95.7461" y="36.0566" width="9.57444" height="38.9422" rx="4.78722" fill="#F5C563"/>
  <rect x="114.895" width="9.57444" height="74.9998" rx="4.78722" fill="#323232"/>
  <rect x="114.895" y="36.0566" width="9.57444" height="38.9422" rx="4.78722" fill="#F5C563"/>
  <rect x="134.047" width="9.57444" height="74.9998" rx="4.78722" fill="#323232"/>
  <rect x="134.047" y="12.9805" width="9.57444" height="62.019" rx="4.78722" fill="#5ECC7B"/>
  <rect x="153.188" width="9.57444" height="74.9998" rx="4.78722" fill="#323232"/>
  <rect x="153.188" y="21.6338" width="9.57444" height="53.3652" rx="4.78722" fill="#5ECC7B"/>
</svg>