<svg width="56" height="27" viewBox="0 0 56 27" fill="none" xmlns="http://www.w3.org/2000/svg">
<g id="Frame 48096120">
<g id="Vector" style="mix-blend-mode:plus-lighter">
<path fill-rule="evenodd" clip-rule="evenodd" d="M12.2017 13.638C6.78874 13.9875 6.50504 14.2734 6.15553 19.6841C5.80601 14.2712 5.52005 13.9875 0.109375 13.638C5.52232 13.2884 5.80601 13.0025 6.15553 7.5918C6.50504 13.0047 6.79101 13.2884 12.2017 13.638Z" fill="#1F1F1F"/>
</g>
<g id="Vector_2" style="mix-blend-mode:plus-lighter">
<path fill-rule="evenodd" clip-rule="evenodd" d="M55.5281 13.6381C43.8001 14.3954 43.1854 15.015 42.4281 26.7381C41.6708 15.01 41.0512 14.3954 29.3281 13.6381C41.0562 12.8808 41.6708 12.2612 42.4281 0.538086C43.1854 12.2661 43.805 12.8808 55.5281 13.6381Z" fill="#1F1F1F"/>
</g>
<g id="Vector_3" style="mix-blend-mode:plus-lighter">
<path fill-rule="evenodd" clip-rule="evenodd" d="M30.3415 13.6385C21.771 14.1919 21.3218 14.6447 20.7684 23.2116C20.215 14.6411 19.7622 14.1919 11.1953 13.6385C19.7658 13.0851 20.215 12.6323 20.7684 4.06543C21.3218 12.6359 21.7746 13.0851 30.3415 13.6385Z" fill="#1F1F1F"/>
</g>
</g>
</svg>
