<svg width="56" height="27" viewBox="0 0 56 27" fill="none" xmlns="http://www.w3.org/2000/svg">
<g style="mix-blend-mode:plus-lighter">
<path fill-rule="evenodd" clip-rule="evenodd" d="M43.7983 13.638C49.2113 13.9875 49.495 14.2734 49.8445 19.6841C50.194 14.2712 50.48 13.9875 55.8906 13.638C50.4777 13.2884 50.194 13.0025 49.8445 7.5918C49.495 13.0047 49.209 13.2884 43.7983 13.638Z" fill="#1F1F1F"/>
</g>
<g style="mix-blend-mode:plus-lighter">
<path fill-rule="evenodd" clip-rule="evenodd" d="M0.471874 13.6381C12.1999 14.3954 12.8146 15.015 13.5719 26.7381C14.3292 15.01 14.9488 14.3954 26.6719 13.6381C14.9438 12.8808 14.3292 12.2612 13.5719 0.538086C12.8146 12.2661 12.195 12.8808 0.471874 13.6381Z" fill="#1F1F1F"/>
</g>
<g style="mix-blend-mode:plus-lighter">
<path fill-rule="evenodd" clip-rule="evenodd" d="M25.6585 13.6385C34.229 14.1919 34.6782 14.6447 35.2316 23.2116C35.785 14.6411 36.2378 14.1919 44.8047 13.6385C36.2342 13.0851 35.785 12.6323 35.2316 4.06543C34.6782 12.6359 34.2254 13.0851 25.6585 13.6385Z" fill="#1F1F1F"/>
</g>
</svg>
