<svg width="12" height="13" viewBox="0 0 12 13" fill="none" xmlns="http://www.w3.org/2000/svg">
<path d="M5.06655 7.65137L5.06229 7.31088C5.04952 6.73205 5.30064 6.34899 5.88373 5.99999C6.39872 5.68929 6.58173 5.44244 6.58173 5.00831V5.00405C6.58173 4.51885 6.19868 4.16985 5.61985 4.16985C5.0325 4.16985 4.66647 4.52736 4.61965 5.04661L4.6154 5.08492H3.73438L3.73863 5.03385C3.79396 4.11878 4.43238 3.38672 5.66666 3.38672C6.78603 3.38672 7.54788 4.05068 7.54788 4.96575V4.97C7.54788 5.62545 7.2159 6.08937 6.65409 6.4256C6.10505 6.74907 5.94757 6.9789 5.94757 7.40877V7.65137H5.06655ZM5.51344 9.62622C5.20274 9.62622 4.95589 9.38362 4.95589 9.07293C4.95589 8.76223 5.20274 8.52388 5.51344 8.52388C5.83265 8.52388 6.07525 8.76223 6.07525 9.07293C6.07525 9.38362 5.83265 9.62622 5.51344 9.62622Z" fill="#DEDEDE" fill-opacity="0.5" style="mix-blend-mode:plus-lighter"/>
<circle cx="5.60352" cy="6.5" r="5.29221" stroke="#DEDEDE" stroke-opacity="0.5" stroke-width="0.622613" style="mix-blend-mode:plus-lighter"/>
</svg>
