<svg width="122" height="128" viewBox="0 0 122 128" fill="none" xmlns="http://www.w3.org/2000/svg">
<g filter="url(#filter0_iii_7536_11822)">
<path fill-rule="evenodd" clip-rule="evenodd" d="M25.2927 0C27.7578 0 29.7561 1.99834 29.7561 4.46341V6.64093C36.517 5.95104 44.8366 5.95112 54.9848 5.95122L55.3463 5.95122H66.6537L67.0152 5.95122C77.1634 5.95112 85.4829 5.95104 92.2439 6.64093V4.46341C92.2439 1.99834 94.2422 0 96.7073 0C99.1724 0 101.171 1.99834 101.171 4.46341V8.24118C105.96 9.5986 109.999 11.8048 113.362 15.4396C117.991 20.4445 120.049 26.7681 121.034 34.6927C122 42.4578 122 52.4092 122 65.1065V65.4232V68.4792V68.7959C122 81.4933 122 91.4446 121.034 99.2098C120.049 107.134 117.991 113.458 113.362 118.463C108.686 123.517 102.702 125.809 95.2119 126.898C87.9631 127.951 78.7015 127.951 67.0151 127.951H66.6537H55.3463H54.9849C43.2985 127.951 34.0369 127.951 26.7881 126.898C19.2984 125.809 13.3137 123.517 8.63846 118.463C4.00894 113.458 1.9511 107.134 0.965575 99.2098C-0.000119209 91.4446 -6.7234e-05 81.4932 0 68.7959V68.4792V65.4232V65.1066C-6.7234e-05 52.4092 -0.000119209 42.4578 0.965575 34.6927C1.9511 26.7681 4.00894 20.4445 8.63846 15.4396C12.0006 11.8048 16.04 9.5986 20.8293 8.24118V4.46341C20.8293 1.99834 22.8276 0 25.2927 0ZM20.9995 17.5909C18.5755 18.5554 16.735 19.8328 15.1916 21.5013C12.3811 24.5397 10.7153 28.7049 9.83505 35.7073H10.4146H111.585H112.165C111.285 28.7049 109.619 24.5397 106.808 21.5013C105.265 19.8328 103.425 18.5554 101.001 17.5909C100.468 19.4603 98.7476 20.8293 96.7073 20.8293C94.2422 20.8293 92.2439 18.8309 92.2439 16.3659V15.6195C85.9296 14.8873 77.7683 14.878 66.6537 14.878H55.3463C44.2317 14.878 36.0704 14.8873 29.7561 15.6195V16.3659C29.7561 18.8309 27.7578 20.8293 25.2927 20.8293C23.2524 20.8293 21.5319 19.4603 20.9995 17.5909ZM8.92683 65.4232C8.92683 57.1365 8.93009 50.3288 9.15846 44.6341H10.4146H111.585H112.842C113.07 50.3288 113.073 57.1365 113.073 65.4232V68.4792C113.073 81.5618 113.065 90.958 112.176 98.1081C111.298 105.163 109.63 109.35 106.808 112.401C104.032 115.403 100.294 117.138 93.9279 118.064C87.3951 119.013 78.783 119.024 66.6537 119.024H55.3463C43.217 119.024 34.6049 119.013 28.0721 118.064C21.7058 117.138 17.968 115.403 15.1916 112.401C12.3695 109.35 10.7015 105.163 9.82416 98.1081C8.93496 90.958 8.92683 81.5618 8.92683 68.4792V65.4232ZM84.9943 67.1228C86.7324 65.3748 86.7244 62.5488 84.9765 60.8106C83.2285 59.0725 80.4024 59.0804 78.6643 60.8284L50.761 88.8894L43.3357 81.4221C41.5976 79.6741 38.7715 79.6662 37.0235 81.4043C35.2756 83.1425 35.2676 85.9685 37.0057 87.7165L47.596 98.3667C48.4338 99.2092 49.5729 99.6829 50.761 99.6829C51.9492 99.6829 53.0883 99.2092 53.926 98.3667L84.9943 67.1228Z" fill="url(#paint0_radial_7536_11822)"/>
</g>
<defs>
<filter id="filter0_iii_7536_11822" x="-2.67857" y="-2.67857" width="128.429" height="132.773" filterUnits="userSpaceOnUse" color-interpolation-filters="sRGB">
<feFlood flood-opacity="0" result="BackgroundImageFix"/>
<feBlend mode="normal" in="SourceGraphic" in2="BackgroundImageFix" result="shape"/>
<feColorMatrix in="SourceAlpha" type="matrix" values="0 0 0 0 0 0 0 0 0 0 0 0 0 0 0 0 0 0 127 0" result="hardAlpha"/>
<feOffset dx="-2.67857" dy="2.14286"/>
<feGaussianBlur stdDeviation="2.54464"/>
<feComposite in2="hardAlpha" operator="arithmetic" k2="-1" k3="1"/>
<feColorMatrix type="matrix" values="0 0 0 0 1 0 0 0 0 1 0 0 0 0 1 0 0 0 0.37 0"/>
<feBlend mode="normal" in2="shape" result="effect1_innerShadow_7536_11822"/>
<feColorMatrix in="SourceAlpha" type="matrix" values="0 0 0 0 0 0 0 0 0 0 0 0 0 0 0 0 0 0 127 0" result="hardAlpha"/>
<feOffset dx="-1.07143" dy="1.07143"/>
<feGaussianBlur stdDeviation="0.669643"/>
<feComposite in2="hardAlpha" operator="arithmetic" k2="-1" k3="1"/>
<feColorMatrix type="matrix" values="0 0 0 0 1 0 0 0 0 1 0 0 0 0 1 0 0 0 0.52 0"/>
<feBlend mode="normal" in2="effect1_innerShadow_7536_11822" result="effect2_innerShadow_7536_11822"/>
<feColorMatrix in="SourceAlpha" type="matrix" values="0 0 0 0 0 0 0 0 0 0 0 0 0 0 0 0 0 0 127 0" result="hardAlpha"/>
<feOffset dx="3.75" dy="-2.67857"/>
<feGaussianBlur stdDeviation="2.67857"/>
<feComposite in2="hardAlpha" operator="arithmetic" k2="-1" k3="1"/>
<feColorMatrix type="matrix" values="0 0 0 0 0.893636 0 0 0 0 0.717341 0 0 0 0 0.452898 0 0 0 0.35 0"/>
<feBlend mode="normal" in2="effect2_innerShadow_7536_11822" result="effect3_innerShadow_7536_11822"/>
</filter>
<radialGradient id="paint0_radial_7536_11822" cx="0" cy="0" r="1" gradientUnits="userSpaceOnUse" gradientTransform="translate(113.286 29.703) rotate(142.665) scale(105.489 85.1222)">
<stop stop-color="#FFDD98"/>
<stop offset="1" stop-color="#61450B"/>
</radialGradient>
</defs>
</svg>
