<svg width="136" height="138" viewBox="0 0 136 138" fill="none" xmlns="http://www.w3.org/2000/svg">
<path fill-rule="evenodd" clip-rule="evenodd" d="M48.3359 13.3582C50.2931 13.6902 51.6105 15.546 51.2785 17.5033L50.9852 19.2322C56.4462 19.5951 63.0518 20.7159 71.1092 22.0829L71.1092 22.0829L71.3963 22.1316L80.3741 23.6547L80.6612 23.7034C88.7186 25.0703 95.3243 26.1909 100.599 27.6494L100.893 25.9205C101.225 23.9633 103.081 22.6458 105.038 22.9779C106.995 23.3099 108.313 25.1657 107.98 27.123L107.472 30.1225C111.091 31.8454 114.001 34.1412 116.181 37.48C119.183 42.0774 119.965 47.3755 119.68 53.8002C119.401 60.0956 118.06 67.9968 116.35 78.0783L116.35 78.0784L116.307 78.3297L115.895 80.7562L115.853 81.0075L115.853 81.0076C114.142 91.0891 112.802 98.9903 110.989 105.026C109.139 111.185 106.654 115.928 102.304 119.279C97.9108 122.662 92.8504 123.676 86.757 123.531C80.8598 123.391 73.5065 122.144 64.2279 120.569L64.2278 120.569L64.2277 120.569L64.2276 120.569L63.9404 120.521L54.9626 118.997L54.6755 118.949L54.6753 118.949L54.6752 118.949L54.6751 118.949C45.3965 117.375 38.0432 116.127 32.4298 114.314C26.6297 112.441 22.1867 109.815 19.1555 105.172C16.1539 100.575 15.3718 95.2768 15.6568 88.852C15.936 82.5566 17.2765 74.6554 18.9869 64.5739L19.0296 64.3225L19.4413 61.8961L19.4839 61.6446C21.1942 51.5632 22.5346 43.6619 24.3474 37.6266C26.1973 31.4674 28.683 26.7238 33.0329 23.3736C36.1921 20.9405 39.6964 19.7329 43.6819 19.3003L44.1907 16.3008C44.5228 14.3436 46.3786 13.0261 48.3359 13.3582ZM42.5576 26.7467C40.5031 27.186 38.8697 27.9523 37.4195 29.0692C34.7788 31.103 32.8951 34.1857 31.2529 39.627L31.7131 39.705L112.041 53.333L112.501 53.411C112.745 47.7326 111.984 44.2011 110.162 41.4102C109.161 39.8775 107.872 38.6153 106.077 37.523C105.402 38.9356 103.852 39.7908 102.232 39.5159C100.275 39.1839 98.9574 37.3281 99.2894 35.3708L99.39 34.7782C94.4752 33.3464 87.9965 32.2397 79.1716 30.7425L70.1938 29.2194C61.369 27.7222 54.8878 26.6302 49.7757 26.361L49.6752 26.9536C49.3432 28.9108 47.4873 30.2283 45.5301 29.8962C43.9102 29.6214 42.7285 28.3027 42.5576 26.7467ZM26.529 63.0985C27.6452 56.519 28.5648 51.1143 29.5132 46.6236L30.5106 46.7928L110.838 60.4207L111.836 60.5899C111.25 65.1421 110.336 70.5478 109.219 77.1273L108.808 79.5537C107.045 89.941 105.773 97.4004 104.104 102.958C102.457 108.441 100.569 111.541 97.9172 113.583C95.3085 115.592 92.107 116.467 86.9275 116.344C81.6127 116.218 74.7734 115.067 65.1429 113.433L56.1651 111.91C46.5346 110.276 39.6982 109.107 34.6392 107.473C29.7091 105.881 26.9752 103.999 25.1751 101.242C23.3454 98.4395 22.585 94.8904 22.8387 89.1706C23.0959 83.3738 24.3551 75.9123 26.1173 65.525L26.529 63.0985ZM86.6963 74.6944C88.3118 73.5407 88.6861 71.2958 87.5324 69.6803C86.3787 68.0647 84.1337 67.6904 82.5182 68.8441L56.5837 87.3654L51.694 80.4363C50.5494 78.8143 48.3066 78.4273 46.6846 79.5719C45.0626 80.7165 44.6756 82.9593 45.8202 84.5813L52.7941 94.4639C53.3458 95.2457 54.1864 95.7753 55.1298 95.9353C56.0731 96.0953 57.0414 95.8727 57.82 95.3166L86.6963 74.6944Z" fill="url(#paint0_linear_5996_5149)"/>
<defs>
<linearGradient id="paint0_linear_5996_5149" x1="76.6868" y1="18.168" x2="59.4515" y2="119.759" gradientUnits="userSpaceOnUse">
<stop/>
<stop offset="1" stop-opacity="0.21"/>
</linearGradient>
</defs>
</svg>
