<svg width="45" height="35" viewBox="0 0 45 35" fill="none" xmlns="http://www.w3.org/2000/svg">
<path d="M28.5 2V4M16.5 2V4" stroke="#929292" stroke-width="1.5" stroke-linecap="round" stroke-linejoin="round"/>
<path d="M22.4955 13H22.5045M22.4955 17H22.5045M26.491 13H26.5M18.5 13H18.509M18.5 17H18.509" stroke="#929292" stroke-width="2" stroke-linecap="round" stroke-linejoin="round"/>
<path d="M14 8H31" stroke="#929292" stroke-width="1.5" stroke-linecap="round" stroke-linejoin="round"/>
<path d="M13 12.2432C13 7.88594 13 5.70728 14.2521 4.35364C15.5042 3 17.5195 3 21.55 3H23.45C27.4805 3 29.4958 3 30.7479 4.35364C32 5.70728 32 7.88594 32 12.2432V12.7568C32 17.1141 32 19.2927 30.7479 20.6464C29.4958 22 27.4805 22 23.45 22H21.55C17.5195 22 15.5042 22 14.2521 20.6464C13 19.2927 13 17.1141 13 12.7568V12.2432Z" stroke="#929292" stroke-width="1.5" stroke-linecap="round" stroke-linejoin="round"/>
<path d="M13.5 8H31.5" stroke="#929292" stroke-width="1.5" stroke-linecap="round" stroke-linejoin="round"/>
<path d="M4.71911 33V26.4545H5.70668V32.1499H8.67259V33H4.71911ZM9.72248 33V28.0909H10.6781V33H9.72248ZM10.2051 27.3335C10.0389 27.3335 9.89613 27.2781 9.77681 27.1673C9.65962 27.0543 9.60103 26.9201 9.60103 26.7646C9.60103 26.6069 9.65962 26.4727 9.77681 26.3619C9.89613 26.2489 10.0389 26.1925 10.2051 26.1925C10.3713 26.1925 10.513 26.2489 10.6301 26.3619C10.7495 26.4727 10.8091 26.6069 10.8091 26.7646C10.8091 26.9201 10.7495 27.0543 10.6301 27.1673C10.513 27.2781 10.3713 27.3335 10.2051 27.3335ZM14.3 28.0909V28.858H11.5258V28.0909H14.3ZM12.2865 33V27.522C12.2865 27.2152 12.3536 26.9606 12.4878 26.7582C12.6221 26.5536 12.8 26.4013 13.0216 26.3011C13.2432 26.1989 13.4839 26.1477 13.7439 26.1477C13.9356 26.1477 14.0997 26.1637 14.2361 26.1957C14.3724 26.2255 14.4736 26.2532 14.5397 26.2788L14.316 27.0522C14.2712 27.0394 14.2137 27.0245 14.1434 27.0075C14.0731 26.9883 13.9878 26.9787 13.8877 26.9787C13.6555 26.9787 13.4893 27.0362 13.3891 27.1513C13.2911 27.2663 13.2421 27.4325 13.2421 27.6499V33H12.2865ZM17.2084 33.0991C16.7247 33.0991 16.3081 32.9957 15.9587 32.7891C15.6114 32.5803 15.343 32.2873 15.1533 31.9102C14.9658 31.5309 14.8721 31.0866 14.8721 30.5774C14.8721 30.0746 14.9658 29.6314 15.1533 29.2479C15.343 28.8643 15.6072 28.565 15.9459 28.3498C16.2868 28.1346 16.6853 28.027 17.1412 28.027C17.4182 28.027 17.6867 28.0728 17.9466 28.1644C18.2066 28.256 18.4399 28.3999 18.6466 28.5959C18.8532 28.7919 19.0162 29.0465 19.1356 29.3597C19.2549 29.6708 19.3145 30.049 19.3145 30.4943V30.8331H15.4122V30.1172H18.3781C18.3781 29.8658 18.327 29.6431 18.2247 29.4492C18.1224 29.2532 17.9786 29.0987 17.7932 28.9858C17.61 28.8729 17.3948 28.8164 17.1476 28.8164C16.8792 28.8164 16.6448 28.8825 16.4445 29.0146C16.2464 29.1445 16.093 29.315 15.9843 29.5259C15.8778 29.7347 15.8245 29.9616 15.8245 30.2067V30.766C15.8245 31.0941 15.882 31.3732 15.9971 31.6033C16.1143 31.8335 16.2773 32.0092 16.4861 32.1307C16.6949 32.25 16.9388 32.3097 17.218 32.3097C17.3991 32.3097 17.5642 32.2841 17.7133 32.233C17.8625 32.1797 17.9914 32.1009 18.1001 31.9964C18.2087 31.892 18.2918 31.7631 18.3493 31.6097L19.2538 31.7727C19.1814 32.0391 19.0514 32.2724 18.8639 32.4727C18.6785 32.6708 18.4452 32.8253 18.164 32.9361C17.8849 33.0447 17.5663 33.0991 17.2084 33.0991ZM24.0534 29.2894L23.1873 29.4428C23.1511 29.332 23.0936 29.2266 23.0147 29.1264C22.938 29.0263 22.8336 28.9442 22.7015 28.8803C22.5694 28.8164 22.4043 28.7844 22.2061 28.7844C21.9355 28.7844 21.7097 28.8452 21.5286 28.9666C21.3475 29.0859 21.2569 29.2404 21.2569 29.43C21.2569 29.5941 21.3176 29.7262 21.4391 29.8263C21.5605 29.9265 21.7566 30.0085 22.0272 30.0724L22.807 30.2514C23.2587 30.3558 23.5953 30.5167 23.8169 30.734C24.0385 30.9513 24.1493 31.2337 24.1493 31.581C24.1493 31.875 24.0641 32.1371 23.8936 32.3672C23.7253 32.5952 23.4899 32.7741 23.1873 32.9041C22.8869 33.0341 22.5385 33.0991 22.1422 33.0991C21.5925 33.0991 21.144 32.9819 20.7967 32.7475C20.4494 32.511 20.2363 32.1754 20.1575 31.7408L21.0811 31.6001C21.1387 31.8409 21.2569 32.0231 21.4359 32.1467C21.6149 32.2681 21.8482 32.3288 22.1358 32.3288C22.449 32.3288 22.6994 32.2638 22.8869 32.1339C23.0744 32.0018 23.1681 31.8409 23.1681 31.6513C23.1681 31.4979 23.1106 31.369 22.9956 31.2646C22.8826 31.1602 22.709 31.0813 22.4746 31.0281L21.6436 30.8459C21.1855 30.7415 20.8468 30.5753 20.6273 30.3473C20.41 30.1193 20.3013 29.8306 20.3013 29.4812C20.3013 29.1914 20.3823 28.9379 20.5442 28.7205C20.7061 28.5032 20.9299 28.3338 21.2154 28.2124C21.5009 28.0888 21.8279 28.027 22.1966 28.027C22.7271 28.027 23.1447 28.142 23.4494 28.3722C23.7541 28.6001 23.9554 28.9059 24.0534 29.2894ZM27.4916 28.0909V28.858H24.8101V28.0909H27.4916ZM25.5292 26.9148H26.4848V31.5586C26.4848 31.744 26.5125 31.8835 26.5679 31.9773C26.6233 32.0689 26.6947 32.1317 26.782 32.1658C26.8715 32.1978 26.9685 32.2138 27.0729 32.2138C27.1496 32.2138 27.2167 32.2085 27.2742 32.1978C27.3318 32.1871 27.3765 32.1786 27.4085 32.1722L27.5811 32.9616C27.5257 32.983 27.4468 33.0043 27.3445 33.0256C27.2423 33.049 27.1144 33.0618 26.961 33.0639C26.7096 33.0682 26.4752 33.0234 26.2579 32.9297C26.0406 32.8359 25.8648 32.6911 25.7306 32.495C25.5963 32.299 25.5292 32.0529 25.5292 31.7567V26.9148ZM29.1527 34.8409C29.0099 34.8409 28.88 34.8292 28.7628 34.8058C28.6456 34.7844 28.5582 34.761 28.5007 34.7354L28.7308 33.9524C28.9055 33.9993 29.0611 34.0195 29.1974 34.0131C29.3338 34.0067 29.4542 33.9556 29.5586 33.8597C29.6651 33.7638 29.7589 33.6072 29.8398 33.3899L29.9581 33.0639L28.1619 28.0909H29.1847L30.4279 31.9006H30.479L31.7223 28.0909H32.7482L30.7251 33.6552C30.6314 33.9109 30.5121 34.1271 30.3672 34.304C30.2223 34.483 30.0497 34.6172 29.8494 34.7067C29.6491 34.7962 29.4169 34.8409 29.1527 34.8409ZM34.6019 26.4545V33H33.6463V26.4545H34.6019ZM38.0033 33.0991C37.5196 33.0991 37.1031 32.9957 36.7536 32.7891C36.4063 32.5803 36.1379 32.2873 35.9482 31.9102C35.7607 31.5309 35.667 31.0866 35.667 30.5774C35.667 30.0746 35.7607 29.6314 35.9482 29.2479C36.1379 28.8643 36.4021 28.565 36.7409 28.3498C37.0818 28.1346 37.4802 28.027 37.9362 28.027C38.2132 28.027 38.4816 28.0728 38.7416 28.1644C39.0015 28.256 39.2348 28.3999 39.4415 28.5959C39.6482 28.7919 39.8112 29.0465 39.9305 29.3597C40.0498 29.6708 40.1095 30.049 40.1095 30.4943V30.8331H36.2071V30.1172H39.173C39.173 29.8658 39.1219 29.6431 39.0196 29.4492C38.9173 29.2532 38.7735 29.0987 38.5882 28.9858C38.4049 28.8729 38.1897 28.8164 37.9426 28.8164C37.6741 28.8164 37.4397 28.8825 37.2394 29.0146C37.0413 29.1445 36.8879 29.315 36.7792 29.5259C36.6727 29.7347 36.6194 29.9616 36.6194 30.2067V30.766C36.6194 31.0941 36.6769 31.3732 36.792 31.6033C36.9092 31.8335 37.0722 32.0092 37.281 32.1307C37.4898 32.25 37.7338 32.3097 38.0129 32.3097C38.194 32.3097 38.3591 32.2841 38.5083 32.233C38.6574 32.1797 38.7863 32.1009 38.895 31.9964C39.0036 31.892 39.0867 31.7631 39.1443 31.6097L40.0487 31.7727C39.9763 32.0391 39.8463 32.2724 39.6588 32.4727C39.4735 32.6708 39.2401 32.8253 38.9589 32.9361C38.6798 33.0447 38.3612 33.0991 38.0033 33.0991Z" fill="#929292"/>
</svg>
