<svg width="45" height="35" viewBox="0 0 45 35" fill="none" xmlns="http://www.w3.org/2000/svg">
<path d="M28.5 2V4M16.5 2V4" stroke="#DDF988" stroke-width="1.8" stroke-linecap="round" stroke-linejoin="round"/>
<path d="M22.4955 13H22.5045M22.4955 17H22.5045M26.491 13H26.5M18.5 13H18.509M18.5 17H18.509" stroke="#DDF988" stroke-width="1.8" stroke-linecap="round" stroke-linejoin="round"/>
<path d="M14 8H31" stroke="#DDF988" stroke-width="1.8" stroke-linecap="round" stroke-linejoin="round"/>
<path d="M13 12.2432C13 7.88594 13 5.70728 14.2521 4.35364C15.5042 3 17.5195 3 21.55 3H23.45C27.4805 3 29.4958 3 30.7479 4.35364C32 5.70728 32 7.88594 32 12.2432V12.7568C32 17.1141 32 19.2927 30.7479 20.6464C29.4958 22 27.4805 22 23.45 22H21.55C17.5195 22 15.5042 22 14.2521 20.6464C13 19.2927 13 17.1141 13 12.7568V12.2432Z" stroke="#DDF988" stroke-width="1.8" stroke-linecap="round" stroke-linejoin="round"/>
<path d="M13.5 8H31.5" stroke="#DDF988" stroke-width="1.8" stroke-linecap="round" stroke-linejoin="round"/>
<path d="M4.1456 33V26.4545H5.33132V32.006H8.21413V33H4.1456ZM9.19212 33V28.0909H10.3491V33H9.19212ZM9.77379 27.3942C9.59055 27.3942 9.43288 27.3335 9.30078 27.212C9.16868 27.0884 9.10263 26.9403 9.10263 26.7678C9.10263 26.593 9.16868 26.445 9.30078 26.3235C9.43288 26.1999 9.59055 26.1381 9.77379 26.1381C9.95916 26.1381 10.1168 26.1999 10.2468 26.3235C10.3789 26.445 10.445 26.593 10.445 26.7678C10.445 26.9403 10.3789 27.0884 10.2468 27.212C10.1168 27.3335 9.95916 27.3942 9.77379 27.3942ZM14.0253 28.0909V28.9858H11.1233V28.0909H14.0253ZM11.8488 33V27.6275C11.8488 27.2972 11.917 27.0224 12.0534 26.8029C12.1919 26.5835 12.3772 26.4194 12.6095 26.3107C12.8417 26.2021 13.0995 26.1477 13.3829 26.1477C13.5832 26.1477 13.7611 26.1637 13.9166 26.1957C14.0722 26.2276 14.1872 26.2564 14.2618 26.282L14.0317 27.1768C13.9827 27.1619 13.9209 27.147 13.8463 27.1321C13.7718 27.1151 13.6887 27.1065 13.597 27.1065C13.3818 27.1065 13.2295 27.1587 13.14 27.2631C13.0526 27.3654 13.009 27.5124 13.009 27.7042V33H11.8488ZM16.9201 33.0959C16.4279 33.0959 16.0028 32.9936 15.6449 32.7891C15.2891 32.5824 15.0153 32.2905 14.8235 31.9134C14.6317 31.5341 14.5359 31.0877 14.5359 30.5742C14.5359 30.0692 14.6317 29.6261 14.8235 29.2447C15.0174 28.8612 15.288 28.5629 15.6353 28.3498C15.9826 28.1346 16.3906 28.027 16.8594 28.027C17.1619 28.027 17.4474 28.076 17.7159 28.174C17.9865 28.2699 18.2251 28.419 18.4318 28.6214C18.6406 28.8239 18.8047 29.0817 18.924 29.3949C19.0433 29.706 19.103 30.0767 19.103 30.5071V30.8619H15.0792V30.082H17.994C17.9918 29.8604 17.9439 29.6634 17.8501 29.4908C17.7564 29.3161 17.6254 29.1786 17.457 29.0785C17.2908 28.9783 17.0969 28.9283 16.8754 28.9283C16.6388 28.9283 16.4311 28.9858 16.2521 29.1009C16.0732 29.2138 15.9336 29.3629 15.8335 29.5483C15.7354 29.7315 15.6854 29.9329 15.6832 30.1523V30.8331C15.6832 31.1186 15.7354 31.3636 15.8398 31.5682C15.9442 31.7706 16.0902 31.9261 16.2777 32.0348C16.4652 32.1413 16.6847 32.1946 16.9361 32.1946C17.1044 32.1946 17.2567 32.1712 17.3931 32.1243C17.5295 32.0753 17.6477 32.0039 17.7479 31.9102C17.848 31.8164 17.9237 31.7003 17.9748 31.5618L19.055 31.6832C18.9869 31.9687 18.8569 32.218 18.6651 32.4311C18.4755 32.642 18.2326 32.8061 17.9364 32.9233C17.6403 33.0384 17.3015 33.0959 16.9201 33.0959ZM23.9617 29.3885L22.907 29.5036C22.8772 29.397 22.825 29.2969 22.7504 29.2031C22.678 29.1094 22.58 29.0337 22.4564 28.9762C22.3328 28.9187 22.1816 28.8899 22.0026 28.8899C21.7618 28.8899 21.5594 28.9421 21.3953 29.0465C21.2334 29.1509 21.1535 29.2862 21.1556 29.4524C21.1535 29.5952 21.2057 29.7113 21.3122 29.8008C21.4209 29.8903 21.5999 29.9638 21.8492 30.0213L22.6865 30.2003C23.151 30.3004 23.4962 30.4592 23.722 30.6765C23.95 30.8938 24.0651 31.1783 24.0672 31.5298C24.0651 31.8388 23.9745 32.1115 23.7955 32.348C23.6187 32.5824 23.3726 32.7656 23.0573 32.8977C22.7419 33.0298 22.3797 33.0959 21.9706 33.0959C21.3698 33.0959 20.8861 32.9702 20.5196 32.7188C20.1531 32.4652 19.9347 32.1126 19.8644 31.6609L20.9926 31.5522C21.0438 31.7738 21.1524 31.9411 21.3186 32.054C21.4848 32.1669 21.7011 32.2234 21.9674 32.2234C22.2423 32.2234 22.4628 32.1669 22.629 32.054C22.7973 31.9411 22.8815 31.8015 22.8815 31.6353C22.8815 31.4947 22.8271 31.3786 22.7185 31.2869C22.6119 31.1953 22.4458 31.125 22.2199 31.076L21.3825 30.9002C20.9117 30.8022 20.5633 30.6371 20.3374 30.4048C20.1116 30.1705 19.9997 29.8743 20.0019 29.5163C19.9997 29.2138 20.0818 28.9517 20.248 28.7301C20.4163 28.5064 20.6496 28.3338 20.9479 28.2124C21.2483 28.0888 21.5945 28.027 21.9866 28.027C22.5619 28.027 23.0146 28.1495 23.3449 28.3945C23.6773 28.6396 23.8829 28.9709 23.9617 29.3885ZM27.4726 28.0909V28.9858H24.6505V28.0909H27.4726ZM25.3472 26.9148H26.5042V31.5234C26.5042 31.679 26.5276 31.7983 26.5745 31.8814C26.6235 31.9624 26.6874 32.0178 26.7662 32.0476C26.8451 32.0774 26.9324 32.0923 27.0283 32.0923C27.1008 32.0923 27.1668 32.087 27.2265 32.0763C27.2883 32.0657 27.3351 32.0561 27.3671 32.0476L27.5621 32.9521C27.5003 32.9734 27.4118 32.9968 27.2968 33.0224C27.1839 33.0479 27.0454 33.0629 26.8813 33.0671C26.5915 33.0756 26.3305 33.032 26.0983 32.9361C25.866 32.8381 25.6817 32.6868 25.5454 32.4822C25.4111 32.2777 25.3451 32.022 25.3472 31.7152V26.9148ZM29.1593 34.8409C29.0016 34.8409 28.8556 34.8281 28.7214 34.8026C28.5893 34.7791 28.4838 34.7514 28.405 34.7195L28.6735 33.8182C28.8418 33.8672 28.992 33.8906 29.1241 33.8885C29.2562 33.8864 29.3723 33.8448 29.4725 33.7638C29.5748 33.685 29.661 33.5529 29.7314 33.3675L29.8304 33.1023L28.0502 28.0909H29.2775L30.4089 31.7983H30.46L31.5946 28.0909H32.8251L30.8596 33.5945C30.7679 33.8544 30.6465 34.0771 30.4952 34.2624C30.3439 34.4499 30.1586 34.5927 29.9391 34.6907C29.7218 34.7908 29.4618 34.8409 29.1593 34.8409ZM34.7827 26.4545V33H33.6257V26.4545H34.7827ZM38.1457 33.0959C37.6535 33.0959 37.2284 32.9936 36.8705 32.7891C36.5146 32.5824 36.2409 32.2905 36.0491 31.9134C35.8573 31.5341 35.7615 31.0877 35.7615 30.5742C35.7615 30.0692 35.8573 29.6261 36.0491 29.2447C36.243 28.8612 36.5136 28.5629 36.8609 28.3498C37.2082 28.1346 37.6162 28.027 38.085 28.027C38.3875 28.027 38.673 28.076 38.9415 28.174C39.2121 28.2699 39.4507 28.419 39.6574 28.6214C39.8662 28.8239 40.0303 29.0817 40.1496 29.3949C40.2689 29.706 40.3286 30.0767 40.3286 30.5071V30.8619H36.3048V30.082H39.2195C39.2174 29.8604 39.1695 29.6634 39.0757 29.4908C38.982 29.3161 38.8509 29.1786 38.6826 29.0785C38.5164 28.9783 38.3225 28.9283 38.1009 28.9283C37.8644 28.9283 37.6567 28.9858 37.4777 29.1009C37.2987 29.2138 37.1592 29.3629 37.059 29.5483C36.961 29.7315 36.911 29.9329 36.9088 30.1523V30.8331C36.9088 31.1186 36.961 31.3636 37.0654 31.5682C37.1698 31.7706 37.3158 31.9261 37.5033 32.0348C37.6908 32.1413 37.9102 32.1946 38.1617 32.1946C38.33 32.1946 38.4823 32.1712 38.6187 32.1243C38.7551 32.0753 38.8733 32.0039 38.9735 31.9102C39.0736 31.8164 39.1492 31.7003 39.2004 31.5618L40.2806 31.6832C40.2124 31.9687 40.0825 32.218 39.8907 32.4311C39.7011 32.642 39.4582 32.8061 39.162 32.9233C38.8659 33.0384 38.5271 33.0959 38.1457 33.0959Z" fill="#DDF988"/>
</svg>
