<svg width="14" height="14" viewBox="0 0 14 14" fill="none" xmlns="http://www.w3.org/2000/svg">
<g id="link-external">
<g id="Icon">
<path d="M6.30039 1.40039H3.50039C2.34059 1.40039 1.40039 2.34059 1.40039 3.50039V10.5005C1.40039 11.6603 2.34059 12.6005 3.50039 12.6005H10.5004C11.6602 12.6005 12.6004 11.6603 12.6004 10.5005V7.70039M9.10005 1.40056L12.6004 1.40039M12.6004 1.40039V4.55048M12.6004 1.40039L6.64988 7.35022" stroke="white" stroke-opacity="0.23" stroke-width="1.16667" stroke-linecap="round" stroke-linejoin="round" style="mix-blend-mode:lighten"/>
<path d="M6.30039 1.40039H3.50039C2.34059 1.40039 1.40039 2.34059 1.40039 3.50039V10.5005C1.40039 11.6603 2.34059 12.6005 3.50039 12.6005H10.5004C11.6602 12.6005 12.6004 11.6603 12.6004 10.5005V7.70039M9.10005 1.40056L12.6004 1.40039M12.6004 1.40039V4.55048M12.6004 1.40039L6.64988 7.35022" stroke="#545454" stroke-width="1.16667" stroke-linecap="round" stroke-linejoin="round" style="mix-blend-mode:color-dodge"/>
</g>
</g>
</svg>
