<svg xmlns="http://www.w3.org/2000/svg" width="118" height="26" viewBox="0 0 118 26" fill="none">
  <path d="M10.2921 2.69976C9.85461 1.84075 9.23035 1.17381 8.42469 0.704287C7.61903 0.234762 6.66398 0 5.55953 0C4.45508 0 3.50536 0.234762 2.69436 0.698951C1.88337 1.16848 1.25912 1.83008 0.816268 2.69443C0.373422 3.55878 0.154663 4.5832 0.154663 5.77301V5.78902C0.154663 6.97884 0.373422 8.00325 0.816268 8.86761C1.25378 9.73196 1.87803 10.3989 2.68903 10.8684C3.50002 11.3379 4.45508 11.5727 5.55953 11.5727C6.66398 11.5727 7.6297 11.3379 8.43003 10.8684C9.23036 10.3989 9.85461 9.73196 10.2921 8.86761C10.7296 8.00325 10.9537 6.97884 10.9537 5.78902V5.77301C10.9537 4.5832 10.735 3.55878 10.2921 2.69976ZM8.55808 5.78902C8.55808 6.55733 8.43536 7.22961 8.19527 7.79517C7.94983 8.36607 7.60836 8.80358 7.16018 9.11837C6.712 9.43317 6.17845 9.5879 5.55953 9.5879C4.94061 9.5879 4.41239 9.43317 3.96421 9.12371C3.51603 8.81425 3.16922 8.37674 2.92379 7.80584C2.67836 7.23494 2.55564 6.568 2.55564 5.78902V5.77301C2.55564 4.99403 2.67836 4.32176 2.92379 3.75619C3.16922 3.19063 3.52137 2.75312 3.96955 2.44366C4.42307 2.13954 4.95128 1.98481 5.56486 1.98481C6.17845 1.98481 6.70666 2.13954 7.15484 2.44366C7.60303 2.75312 7.94983 3.19063 8.19527 3.75619C8.4407 4.32709 8.56342 4.99403 8.56342 5.77301V5.78902H8.55808Z" fill="#5ECC7B"/>
  <path d="M21.0325 0.191895V7.46418H20.9792L15.9318 0.191895H13.8883V11.3751H16.2199V4.0548H16.2679L21.3367 11.3751H23.3642V0.191895H21.0325Z" fill="#5ECC7B"/>
  <path d="M30.6577 0.192347V2.1238H33.8964V11.3756H36.2387V2.11846H39.4773V0.187012H30.6577V0.192347Z" fill="#5ECC7B"/>
  <path d="M49.5829 0.191895V4.73241H44.5461V0.191895H42.2039V11.3751H44.5461V6.6692H49.5829V11.3751H51.9251V0.191895H49.5829Z" fill="#5ECC7B"/>
  <path d="M62.6228 2.11846V0.187012H55.2118V11.3756H62.6228V9.44411H57.5541V6.63764H62.3347V4.80222H57.5541V2.11846H62.6228Z" fill="#5ECC7B"/>
  <path d="M79.4083 0.191895L76.239 8.2325H76.191L73.011 0.191895H70.3059V11.3751H72.3921V3.8147H72.4615L75.4814 11.3751H76.9539L79.9685 3.8147H80.0272V11.3751H82.1187V0.191895H79.4029H79.4083Z" fill="#5ECC7B"/>
  <path d="M95.1907 2.69976C94.7532 1.84075 94.1289 1.17381 93.3233 0.704287C92.5176 0.234762 91.5625 0 90.4581 0C89.3536 0 88.4039 0.234762 87.5929 0.698951C86.7819 1.16848 86.1577 1.83008 85.7148 2.69443C85.272 3.55878 85.0532 4.5832 85.0532 5.77301V5.78902C85.0532 6.97884 85.272 8.00325 85.7148 8.86761C86.1523 9.73196 86.7766 10.3989 87.5876 10.8684C88.3986 11.3379 89.3536 11.5727 90.4581 11.5727C91.5625 11.5727 92.5229 11.3379 93.3286 10.8684C94.1342 10.3989 94.7532 9.73196 95.1907 8.86761C95.6282 8.00325 95.8523 6.97884 95.8523 5.78902V5.77301C95.8523 4.5832 95.6335 3.55878 95.1907 2.69976ZM93.4513 5.78902C93.4513 6.55733 93.3286 7.22961 93.0885 7.79517C92.8484 8.36607 92.5016 8.80358 92.0534 9.11837C91.6052 9.43317 91.0717 9.5879 90.4527 9.5879C89.8338 9.5879 89.3056 9.43317 88.8574 9.12371C88.4092 8.81425 88.0571 8.37674 87.817 7.80584C87.5716 7.23494 87.4489 6.568 87.4489 5.78902V5.77301C87.4489 4.99403 87.5716 4.32176 87.817 3.75619C88.0624 3.19063 88.4093 2.75312 88.8628 2.44366C89.3163 2.13954 89.8445 1.98481 90.4581 1.98481C91.0717 1.98481 91.5999 2.13954 92.0481 2.44366C92.4962 2.75312 92.8484 3.19063 93.0885 3.75619C93.3339 4.32709 93.4566 4.99403 93.4566 5.77301V5.78902H93.4513Z" fill="#5ECC7B"/>
  <path d="M105.424 0.191895L102.874 8.97947H102.826L100.265 0.191895H97.677L101.412 11.3751H104.272L108.017 0.191895H105.419H105.424Z" fill="#5ECC7B"/>
  <path d="M118 2.11846V0.187012H110.589V11.3756H118V9.44411H112.931V6.63764H117.712V4.80222H112.931V2.11846H118Z" fill="#5ECC7B"/>
  <g opacity="0.8">
    <path d="M10.3989 13.1362H7.8005C7.88587 13.275 7.96057 13.419 8.02993 13.5791C8.27536 14.15 8.39808 14.8169 8.39808 15.5959V15.6119C8.39808 16.3802 8.27536 17.0525 8.03527 17.6181C7.78983 18.189 7.44836 18.6265 7.00018 18.9413C6.552 19.2561 6.01845 19.4108 5.39953 19.4108C4.78061 19.4108 4.25239 19.2561 3.80421 18.9466C3.35603 18.6371 3.00922 18.1996 2.76379 17.6287C2.51835 17.0578 2.39564 16.3909 2.39564 15.6119V15.5959C2.39564 14.8169 2.51835 14.1393 2.76379 13.5791C2.83315 13.4243 2.90785 13.2803 2.99321 13.1416H0.394826C0.133386 13.8619 0 14.6835 0 15.5959V15.6119C0 16.8017 0.218755 17.8261 0.661601 18.6958C1.09911 19.5602 1.72337 20.2271 2.53436 20.6966C3.34536 21.1662 4.30041 21.3956 5.40486 21.3956C6.50931 21.3956 7.47504 21.1608 8.27536 20.6913C9.07569 20.2218 9.69994 19.5548 10.1375 18.6905C10.575 17.8261 10.7991 16.8017 10.7991 15.6119V15.5959C10.7991 14.6782 10.671 13.8619 10.4042 13.1416L10.3989 13.1362Z" fill="#5ECC7B"/>
    <path d="M20.8671 13.1362V17.2819H20.8137L17.9326 13.1362H13.7175V21.1982H16.0491V13.8779H16.0972L21.1659 21.1982H23.1934V13.1362H20.8618H20.8671Z" fill="#5ECC7B"/>
    <path d="M33.731 13.1362V21.1982H36.0732V13.1362H33.731Z" fill="#5ECC7B"/>
    <path d="M49.4175 13.1362V14.5555H44.3807V13.1362H42.0385V21.1982H44.3807V16.4923H49.4175V21.1982H51.7597V13.1362H49.4175Z" fill="#5ECC7B"/>
    <path d="M57.3887 19.2667V16.4602H62.1693V14.6248H57.3887V13.1362H55.0464V21.1982H62.4574V19.2667H57.3887Z" fill="#5ECC7B"/>
    <path d="M78.0104 13.1362L76.0736 18.0502H76.0256L74.0834 13.1362H70.1405V21.1982H72.2267V13.6378H72.2961L75.3106 21.1982H76.7832L79.7978 13.6378H79.8565V21.1982H81.948V13.1362H78.005H78.0104Z" fill="#5ECC7B"/>
    <path d="M95.2974 13.1362H92.699C92.7844 13.275 92.8591 13.419 92.9284 13.5791C93.1739 14.15 93.2966 14.8169 93.2966 15.5959V15.6119C93.2966 16.3802 93.1739 17.0525 92.9338 17.6181C92.6937 18.189 92.3469 18.6265 91.8987 18.9413C91.4505 19.2561 90.9169 19.4108 90.298 19.4108C89.6791 19.4108 89.1509 19.2561 88.6974 18.9466C88.2492 18.6371 87.9024 18.1996 87.6569 17.6287C87.4115 17.0578 87.2888 16.3909 87.2888 15.6119V15.5959C87.2888 14.8169 87.4115 14.1393 87.6569 13.5791C87.721 13.4243 87.801 13.2803 87.881 13.1416H85.2826C85.0212 13.8619 84.8878 14.6835 84.8878 15.5959V15.6119C84.8878 16.8017 85.1066 17.8261 85.5494 18.6958C85.9869 19.5602 86.6112 20.2271 87.4222 20.6966C88.2332 21.1662 89.1882 21.3956 90.2927 21.3956C91.3971 21.3956 92.3575 21.1608 93.1632 20.6913C93.9688 20.2218 94.5878 19.5548 95.0253 18.6905C95.4628 17.8261 95.6869 16.8017 95.6869 15.6119V15.5959C95.6869 14.6782 95.5588 13.8619 95.2921 13.1416L95.2974 13.1362Z" fill="#5ECC7B"/>
    <path d="M104.357 13.1362L102.714 18.8025H102.666L101.017 13.1362H98.5627L101.257 21.1982H104.117L106.817 13.1362H104.357Z" fill="#5ECC7B"/>
    <path d="M112.771 19.2667V16.4602H117.552V14.6248H112.771V13.1362H110.429V21.1982H117.84V19.2667H112.771Z" fill="#5ECC7B"/>
  </g>
  <g opacity="0.6">
    <path d="M7.81121 22.2173C7.57111 22.7135 7.25098 23.0976 6.84548 23.3858C6.3973 23.7006 5.86375 23.8553 5.24483 23.8553C4.62591 23.8553 4.0977 23.7006 3.64952 23.3911C3.23868 23.1083 2.91322 22.7188 2.67312 22.2226H0.133423C0.229462 22.5481 0.352176 22.8522 0.50157 23.1403C0.939081 24.0047 1.56334 24.6716 2.37433 25.1411C3.18533 25.6107 4.14038 25.8401 5.24483 25.8401C6.34928 25.8401 7.31501 25.6053 8.11533 25.1358C8.91566 24.6663 9.53991 23.9993 9.97742 23.135C10.1215 22.8469 10.2442 22.5428 10.3402 22.2226H7.80587L7.81121 22.2173Z" fill="#5ECC7B"/>
    <path d="M13.5789 22.2173V25.6427H15.9105V22.2173H13.5789ZM18.6583 22.2173L21.0326 25.6427H23.06V22.2173H18.6583Z" fill="#5ECC7B"/>
    <path d="M33.587 22.2173V25.6427H35.9293V22.2173H33.587Z" fill="#5ECC7B"/>
    <path d="M41.889 22.2173V25.6427H44.2313V22.2173H41.889ZM49.268 22.2173V25.6427H51.6103V22.2173H49.268Z" fill="#5ECC7B"/>
    <path d="M57.2446 23.7112V22.2173H54.9023V25.6427H62.3134V23.7112H57.2446Z" fill="#5ECC7B"/>
    <path d="M69.9965 22.2173V25.6427H72.0826V22.2173H69.9965ZM76.0362 22.2173L75.9242 22.4947H75.8762L75.7641 22.2173H73.7953L75.1612 25.6427H76.6338L77.9997 22.2173H76.0309H76.0362ZM79.7177 22.2173V25.6427H81.8093V22.2173H79.7177Z" fill="#5ECC7B"/>
    <path d="M92.7097 22.2173C92.4749 22.7135 92.1494 23.0976 91.7439 23.3858C91.2957 23.7006 90.7622 23.8553 90.1433 23.8553C89.5244 23.8553 88.9961 23.7006 88.5426 23.3911C88.1318 23.1083 87.8063 22.7188 87.5716 22.2226H85.0319C85.1279 22.5481 85.2506 22.8522 85.4 23.1403C85.8375 24.0047 86.4618 24.6716 87.2728 25.1411C88.0838 25.6107 89.0388 25.8401 90.1433 25.8401C91.2477 25.8401 92.2081 25.6053 93.0138 25.1358C93.8194 24.6663 94.4384 23.9993 94.8759 23.135C95.0199 22.8469 95.1426 22.5428 95.2387 22.2226H92.7043L92.7097 22.2173Z" fill="#5ECC7B"/>
    <path d="M102.863 22.2173L102.564 23.247H102.516L102.218 22.2173H99.9607L101.102 25.6427H103.962L105.109 22.2173H102.858H102.863Z" fill="#5ECC7B"/>
    <path d="M112.622 23.7112V22.2173H110.28V25.6427H117.691V23.7112H112.622Z" fill="#5ECC7B"/>
  </g>
</svg>