<svg width="28" height="29" viewBox="0 0 28 29" fill="none" xmlns="http://www.w3.org/2000/svg">
<path d="M5.83406 8.66602L4.41213 9.61397C3.39279 10.2935 2.88312 10.6333 2.60692 11.1515C2.33071 11.6697 2.33276 12.2787 2.33685 13.4967C2.34177 14.9631 2.35541 16.4573 2.39315 17.9692C2.48268 21.5562 2.52745 23.3497 3.84625 24.6685C5.16505 25.9874 6.98279 26.0328 10.6183 26.1236C12.8799 26.1801 15.1216 26.1801 17.3832 26.1236C21.0187 26.0328 22.8365 25.9874 24.1553 24.6685C25.4741 23.3497 25.5188 21.5562 25.6083 17.9692C25.6461 16.4573 25.6597 14.9631 25.6646 13.4967C25.6687 12.2787 25.6707 11.6697 25.3945 11.1515C25.1183 10.6333 24.6087 10.2935 23.5893 9.61397L22.1674 8.66602" stroke="#D6B6F0" stroke-width="1.75" stroke-linejoin="round"/>
<path d="M2.33594 12.166L10.4011 17.0051C12.1558 18.0579 13.0332 18.5843 14.0026 18.5843C14.972 18.5843 15.8494 18.0579 17.6041 17.0051L25.6693 12.166" stroke="#D6B6F0" stroke-width="1.75" stroke-linejoin="round"/>
<path d="M5.83594 14.4987V7.4987C5.83594 5.29881 5.83594 4.19887 6.51936 3.51545C7.20277 2.83203 8.30272 2.83203 10.5026 2.83203H17.5026C19.7025 2.83203 20.8024 2.83203 21.4859 3.51545C22.1693 4.19887 22.1693 5.29881 22.1693 7.4987V14.4987" stroke="#D6B6F0" stroke-width="1.75"/>
<path d="M11.392 7.82023C12.3306 7.28715 13.1498 7.50197 13.6419 7.84416C13.8437 7.98447 13.9445 8.05462 14.0039 8.05462C14.0633 8.05462 14.1642 7.98447 14.3659 7.84416C14.858 7.50197 15.6772 7.28715 16.6158 7.82023C17.8476 8.51983 18.1263 10.8279 15.2851 12.7751C14.7439 13.1459 14.4733 13.3314 14.0039 13.3314C13.5345 13.3314 13.2639 13.1459 12.7227 12.7751C9.88151 10.8279 10.1602 8.51983 11.392 7.82023Z" stroke="#D6B6F0" stroke-linecap="round"/>
</svg>
