<svg width="154" height="78" viewBox="0 0 154 78" fill="none" xmlns="http://www.w3.org/2000/svg">
<g opacity="0.5" filter="url(#filter0_f_2999_3031)">
<path d="M21.1659 -14.7989C25.7903 -17.7558 32.0522 -17.7558 36.6766 -14.7989L47.2856 -8.01523C51.91 -5.0583 53.845 0.182991 52.0786 4.96741L48.0264 15.9436C46.26 20.728 41.194 23.9673 35.478 23.9673H22.3645C16.6485 23.9673 11.5825 20.728 9.81615 15.9436L5.76385 4.96741C3.9975 0.182997 5.93252 -5.0583 10.5569 -8.01523L21.1659 -14.7989Z" fill="url(#paint0_linear_2999_3031)"/>
<path d="M21.0798 -15.154C25.6953 -18.1053 31.9605 -18.1053 36.576 -15.154L47.6413 -8.07856C52.2416 -5.13705 54.1164 0.0286274 52.3879 4.71047L48.1613 16.1588C46.4244 20.8634 41.4056 24.1141 35.6666 24.1141H21.9891C16.2502 24.1141 11.2313 20.8634 9.49447 16.1588L5.26788 4.71048C3.5394 0.0286331 5.41418 -5.13705 10.0144 -8.07856L21.0798 -15.154Z" stroke="url(#paint1_linear_2999_3031)" stroke-width="1.2651"/>
<path d="M21.3913 -14.0816C25.8276 -16.9249 31.8365 -16.9249 36.2727 -14.0816L46.506 -7.52275C50.9404 -4.68056 52.7903 0.35182 51.0997 4.94169L47.191 15.5541C45.4995 20.1466 40.6439 23.2634 35.1565 23.2634H22.5075C17.0201 23.2634 12.1646 20.1466 10.4731 15.5541L6.56431 4.9417C4.87376 0.351826 6.72359 -4.68055 11.1581 -7.52275L21.3913 -14.0816Z" stroke="url(#paint2_linear_2999_3031)" stroke-width="0.148023"/>
<path d="M21.4572 -13.9153C25.8532 -16.7322 31.8074 -16.7322 36.2034 -13.9153L46.3367 -7.42179C50.7312 -4.60578 52.565 0.380939 50.8893 4.92966L47.0188 15.4363C45.3422 19.9873 40.5301 23.075 35.093 23.075H22.5676C17.1305 23.075 12.3184 19.9873 10.6419 15.4363L6.77129 4.92966C5.09557 0.380943 6.92945 -4.60578 11.3239 -7.42179L21.4572 -13.9153Z" stroke="url(#paint3_linear_2999_3031)" stroke-width="0.127608"/>
<g style="mix-blend-mode:soft-light" opacity="0.6" clip-path="url(#clip0_2999_3031)">
<path d="M39.9871 -6.2581L39.9844 9.32095L38.401 8.35879V-1.6546L37.3186 -0.227537C37.3751 -0.122694 37.4289 -0.0166536 37.4793 0.0881892C37.964 1.09708 38.2097 2.16827 38.2097 3.27242C38.2097 4.37656 37.964 5.44775 37.4793 6.45664C37.0654 7.31815 36.4916 8.10417 35.7741 8.79314L35.7339 8.83208H33.3541L33.6638 8.6182C33.9082 8.44926 34.1444 8.26473 34.3663 8.06942C35.8224 6.78854 36.6243 5.0847 36.6243 3.27242C36.6243 2.55409 36.499 1.85135 36.2519 1.17855L30.1036 9.285V6.68131L30.1268 6.65135L35.4548 -0.324592C35.1471 -0.756544 34.7809 -1.15974 34.3663 -1.52519C33.1124 -2.62814 31.4651 -3.3183 29.7129 -3.47647L29.7081 9.80742L28.9232 10.8415L28.139 9.80742L28.1377 7.59134L28.1336 -3.47647C26.3814 -3.3183 24.734 -2.62814 23.4801 -1.52519C23.0656 -1.15974 22.6993 -0.755945 22.3917 -0.324592L27.7429 6.68131V9.285L21.5945 1.17855C21.3474 1.85135 21.2228 2.55409 21.2228 3.27242C21.2228 5.0847 22.0247 6.78854 23.4801 8.06942C23.7021 8.26413 23.9383 8.44866 24.1827 8.6182L24.4924 8.83208H22.1126L22.0724 8.79314C21.3549 8.10417 20.7811 7.31815 20.3672 6.45664C19.8825 5.44775 19.6368 4.37656 19.6368 3.27242C19.6368 2.16827 19.8825 1.09708 20.3672 0.0881892C20.4175 -0.0172527 20.472 -0.123294 20.5278 -0.227537L19.4462 -1.6546V8.35879L17.8621 9.32095L17.8594 -6.2581L21.4393 -1.57132C21.7164 -1.90203 22.0247 -2.21775 22.359 -2.51191C23.2126 -3.26319 24.2065 -3.8527 25.3133 -4.26489C26.2126 -4.59978 27.1608 -4.80587 28.1329 -4.87837V-5.17971C26.1302 -5.09943 24.1792 -4.71062 22.3358 -4.02405C21.7865 -3.81975 21.244 -3.5873 20.7246 -3.33448L20.615 -3.28116L19.7293 -4.44342L19.8573 -4.50692C20.457 -4.80348 21.0826 -5.07367 21.7184 -5.30972C24.0029 -6.16044 26.427 -6.5918 28.9232 -6.5918C31.4195 -6.5918 33.8435 -6.16044 36.1281 -5.30972C36.7639 -5.07367 37.3894 -4.80348 37.9892 -4.50692L38.1178 -4.44342L37.2315 -3.28116L37.1219 -3.33448C36.6025 -3.5873 36.06 -3.81975 35.5106 -4.02405C33.6686 -4.71002 31.7183 -5.09883 29.7136 -5.17971V-4.87837C30.6863 -4.80587 31.6339 -4.59978 32.5338 -4.26489C33.64 -3.8527 34.6339 -3.26319 35.4875 -2.51191C35.8217 -2.21835 36.1301 -1.90203 36.4072 -1.57132L39.9871 -6.2581Z" fill="black"/>
</g>
<g style="mix-blend-mode:soft-light" opacity="0.4">
<path d="M15.6889 14.293H15.2563V12.7514H15.8407L16.0708 13.3588L16.1697 13.7569H16.1996L16.3055 13.3588L16.5102 12.7514H17.0946V14.293H16.6621V13.7293L16.6874 13.398H16.6575L16.5632 13.7523L16.4389 14.1319H15.912L15.7878 13.7523L15.6912 13.398H15.6612L15.6889 13.7293V14.293ZM18.5426 14.316C18.0526 14.316 17.7673 14.0031 17.7673 13.5222C17.7673 13.0413 18.0526 12.7284 18.5426 12.7284C19.0304 12.7284 19.3157 13.0413 19.3157 13.5222C19.3157 14.0031 19.0304 14.316 18.5426 14.316ZM18.5426 13.8949C18.7796 13.8949 18.851 13.819 18.851 13.5222C18.851 13.2254 18.7796 13.1495 18.5426 13.1495C18.3034 13.1495 18.232 13.2254 18.232 13.5222C18.232 13.819 18.3034 13.8949 18.5426 13.8949ZM20.9194 14.293H20.3235L19.7966 12.7514H20.2844L20.6111 13.8098H20.641L20.9608 12.7514H21.4486L20.9194 14.293ZM23.2837 14.293H22.039V12.7514H23.2837V13.1403H22.4715V13.3266H23.2492V13.7132H22.4715V13.9041H23.2837V14.293ZM24.6937 14.316C24.1967 14.316 23.9275 14.0031 23.9275 13.5222C23.9275 13.0413 24.1967 12.7284 24.6937 12.7284C25.1815 12.7284 25.4185 12.9815 25.4185 13.3404V13.3934H24.956V13.3865C24.956 13.2093 24.8985 13.1495 24.6845 13.1495C24.4636 13.1495 24.3923 13.2024 24.3923 13.5222C24.3923 13.842 24.4636 13.8949 24.6845 13.8949C24.8985 13.8949 24.956 13.8351 24.956 13.658V13.651H25.4185V13.704C25.4185 14.0629 25.1815 14.316 24.6937 14.316ZM26.8462 14.316C26.3561 14.316 26.0708 14.0031 26.0708 13.5222C26.0708 13.0413 26.3561 12.7284 26.8462 12.7284C27.334 12.7284 27.6193 13.0413 27.6193 13.5222C27.6193 14.0031 27.334 14.316 26.8462 14.316ZM26.8462 13.8949C27.0832 13.8949 27.1545 13.819 27.1545 13.5222C27.1545 13.2254 27.0832 13.1495 26.8462 13.1495C26.6069 13.1495 26.5356 13.2254 26.5356 13.5222C26.5356 13.819 26.6069 13.8949 26.8462 13.8949ZM28.7194 14.293H28.2869V12.7514H28.7194V14.293ZM29.8808 14.293H29.4483V12.7514H29.9107L30.341 13.444L30.4422 13.6326H30.4721L30.4491 13.444V12.7514H30.8794V14.293H30.4192L30.012 13.651L29.8877 13.4325H29.8578L29.8808 13.651V14.293ZM32.2406 14.316C31.7989 14.316 31.578 14.1089 31.578 13.7868V13.7569H32.0036V13.7753C32.0036 13.9018 32.0496 13.9271 32.2567 13.9271C32.4201 13.9271 32.4546 13.9018 32.4546 13.8351C32.4546 13.7638 32.4316 13.7408 32.3257 13.7247L31.9898 13.6718C31.6769 13.6234 31.5481 13.4578 31.5481 13.2185C31.5481 12.9447 31.7574 12.7284 32.2107 12.7284C32.6409 12.7284 32.8457 12.9447 32.8457 13.2323V13.2714H32.4201V13.2438C32.4201 13.1541 32.3763 13.1173 32.1831 13.1173C32.0197 13.1173 31.9783 13.1449 31.9783 13.2024C31.9783 13.2507 32.0082 13.2714 32.098 13.2875L32.4339 13.3473C32.7606 13.4049 32.8871 13.5751 32.8871 13.8144C32.8871 14.0836 32.7031 14.316 32.2406 14.316Z" fill="black"/>
</g>
</g>
<g opacity="0.2" filter="url(#filter1_f_2999_3031)">
<path d="M105.204 -11.9627C114.149 -18.4617 126.261 -18.4617 135.206 -11.9627L155.728 2.94697C164.673 9.44594 168.416 20.9656 164.999 31.4812L157.161 55.6055C153.744 66.1211 143.945 73.2407 132.888 73.2407H107.522C96.4655 73.2407 86.6662 66.1211 83.2495 55.6055L75.411 31.4812C71.9943 20.9657 75.7373 9.44594 84.6823 2.94698L105.204 -11.9627Z" fill="url(#paint4_linear_2999_3031)"/>
<path d="M105.469 -12.4157C114.149 -18.7219 125.902 -18.7219 134.582 -12.4157L155.986 3.13527C164.665 9.44147 168.297 20.6195 164.982 30.8232L156.806 55.9851C153.491 66.1888 143.983 73.0972 133.254 73.0972H106.797C96.0682 73.0972 86.5595 66.1888 83.2442 55.9851L75.0686 30.8232C71.7532 20.6195 75.3852 9.44148 84.0649 3.13527L105.469 -12.4157Z" stroke="url(#paint5_linear_2999_3031)" stroke-width="3.70936"/>
<path d="M105.689 -10.3512C114.241 -16.5793 125.821 -16.5793 134.373 -10.3512L154.168 4.06432C162.72 10.2925 166.299 21.3326 163.032 31.4104L155.471 54.7352C152.205 64.813 142.836 71.6357 132.265 71.6357H107.798C97.2268 71.6357 87.8578 64.813 84.591 54.7352L77.0302 31.4105C73.7634 21.3326 77.3422 10.2925 85.8944 4.06432L105.689 -10.3512Z" stroke="url(#paint6_linear_2999_3031)" stroke-width="0.434013"/>
<path d="M105.812 -9.98872C114.291 -16.1619 125.771 -16.1619 134.249 -9.98873L153.85 4.28308C162.329 10.4563 165.877 21.3988 162.638 31.3876L155.151 54.4799C151.913 64.4687 142.624 71.2312 132.145 71.2312H107.917C97.4371 71.2312 88.149 64.4687 84.9105 54.4799L77.4235 31.3877C74.1849 21.3988 77.7328 10.4563 86.2112 4.28309L105.812 -9.98872Z" stroke="url(#paint7_linear_2999_3031)" stroke-width="0.374156"/>
<g style="mix-blend-mode:soft-light" opacity="0.6" clip-path="url(#clip1_2999_3031)">
<path d="M141.603 6.80765L141.598 41.0484L138.535 38.9337V16.9256L136.441 20.0621C136.551 20.2925 136.655 20.5256 136.752 20.756C137.69 22.9734 138.165 25.3278 138.165 27.7545C138.165 30.1813 137.69 32.5356 136.752 34.7531C135.952 36.6465 134.842 38.3741 133.454 39.8884L133.376 39.974H128.773L129.372 39.5039C129.845 39.1326 130.301 38.727 130.731 38.2977C133.547 35.4825 135.098 31.7377 135.098 27.7545C135.098 26.1757 134.856 24.6312 134.378 23.1525L122.485 40.9694V35.2468L122.53 35.181L132.836 19.8488C132.241 18.8994 131.533 18.0132 130.731 17.21C128.305 14.7858 125.119 13.2689 121.729 12.9213L121.72 42.1176L120.202 44.3904L118.685 42.1176L118.682 37.247L118.675 12.9213C115.285 13.2689 112.099 14.7858 109.673 17.21C108.871 18.0132 108.163 18.9007 107.568 19.8488L117.919 35.2468V40.9694L106.026 23.1525C105.548 24.6312 105.307 26.1757 105.307 27.7545C105.307 31.7377 106.858 35.4825 109.673 38.2977C110.102 38.7257 110.559 39.1313 111.032 39.5039L111.631 39.974H107.028L106.95 39.8884C105.562 38.3741 104.452 36.6465 103.652 34.7531C102.714 32.5356 102.239 30.1813 102.239 27.7545C102.239 25.3278 102.714 22.9734 103.652 20.756C103.749 20.5242 103.854 20.2912 103.962 20.0621L101.87 16.9256V38.9337L98.806 41.0484L98.8008 6.80765L105.726 17.1086C106.261 16.3817 106.858 15.6878 107.505 15.0413C109.156 13.3901 111.078 12.0944 113.219 11.1885C114.959 10.4524 116.793 9.99945 118.673 9.84013V9.1778C114.799 9.35425 111.026 10.2088 107.46 11.7178C106.397 12.1668 105.348 12.6777 104.343 13.2334L104.131 13.3506L102.418 10.7961L102.665 10.6565C103.826 10.0047 105.036 9.41087 106.265 8.89207C110.684 7.02228 115.373 6.07422 120.202 6.07422C125.03 6.07422 129.719 7.02228 134.138 8.89207C135.368 9.41087 136.578 10.0047 137.738 10.6565L137.987 10.7961L136.273 13.3506L136.061 13.2334C135.056 12.6777 134.007 12.1668 132.944 11.7178C129.381 10.2101 125.609 9.35556 121.731 9.1778V9.84013C123.612 9.99945 125.445 10.4524 127.186 11.1885C129.326 12.0944 131.248 13.3901 132.899 15.0413C133.546 15.6865 134.142 16.3817 134.678 17.1086L141.603 6.80765Z" fill="black"/>
</g>
<g style="mix-blend-mode:soft-light" opacity="0.4">
<path d="M95.1216 53.5811H93.8533V49.0612H95.5668L96.2414 50.8422L96.5315 52.0092H96.6192L96.9295 50.8422L97.5299 49.0612H99.2434V53.5811H97.9751V51.9283L98.0493 50.9568H97.9617L97.6851 51.9957L97.3208 53.1088H95.7759L95.4116 51.9957L95.1283 50.9568H95.0406L95.1216 51.9283V53.5811ZM103.489 53.6485C102.052 53.6485 101.216 52.7311 101.216 51.3211C101.216 49.9112 102.052 48.9937 103.489 48.9937C104.919 48.9937 105.756 49.9112 105.756 51.3211C105.756 52.7311 104.919 53.6485 103.489 53.6485ZM103.489 52.414C104.184 52.414 104.393 52.1914 104.393 51.3211C104.393 50.4509 104.184 50.2283 103.489 50.2283C102.787 50.2283 102.578 50.4509 102.578 51.3211C102.578 52.1914 102.787 52.414 103.489 52.414ZM110.458 53.5811H108.711L107.166 49.0612H108.596L109.554 52.1644H109.642L110.579 49.0612H112.009L110.458 53.5811ZM117.39 53.5811H113.74V49.0612H117.39V50.2013H115.009V50.7477H117.289V51.881H115.009V52.441H117.39V53.5811ZM121.524 53.6485C120.067 53.6485 119.278 52.7311 119.278 51.3211C119.278 49.9112 120.067 48.9937 121.524 48.9937C122.955 48.9937 123.649 49.7358 123.649 50.7882V50.9433H122.293V50.9231C122.293 50.4037 122.125 50.2283 121.497 50.2283C120.85 50.2283 120.641 50.3834 120.641 51.3211C120.641 52.2588 120.85 52.414 121.497 52.414C122.125 52.414 122.293 52.2386 122.293 51.7191V51.6989H123.649V51.8541C123.649 52.9064 122.955 53.6485 121.524 53.6485ZM127.836 53.6485C126.399 53.6485 125.562 52.7311 125.562 51.3211C125.562 49.9112 126.399 48.9937 127.836 48.9937C129.266 48.9937 130.102 49.9112 130.102 51.3211C130.102 52.7311 129.266 53.6485 127.836 53.6485ZM127.836 52.414C128.53 52.414 128.74 52.1914 128.74 51.3211C128.74 50.4509 128.53 50.2283 127.836 50.2283C127.134 50.2283 126.925 50.4509 126.925 51.3211C126.925 52.1914 127.134 52.414 127.836 52.414ZM133.328 53.5811H132.06V49.0612H133.328V53.5811ZM136.733 53.5811H135.465V49.0612H136.821L138.083 51.0918L138.379 51.6449H138.467L138.4 51.0918V49.0612H139.661V53.5811H138.312L137.118 51.6989L136.754 51.058H136.666L136.733 51.6989V53.5811ZM143.652 53.6485C142.357 53.6485 141.709 53.0414 141.709 52.0969V52.0092H142.958V52.0632C142.958 52.4342 143.092 52.5084 143.7 52.5084C144.179 52.5084 144.28 52.4342 144.28 52.2386C144.28 52.0295 144.212 51.962 143.902 51.9148L142.917 51.7596C142 51.618 141.622 51.1322 141.622 50.4306C141.622 49.6279 142.236 48.9937 143.565 48.9937C144.826 48.9937 145.427 49.6279 145.427 50.4711V50.5858H144.179V50.5049C144.179 50.2418 144.05 50.1338 143.484 50.1338C143.005 50.1338 142.883 50.2148 142.883 50.3834C142.883 50.5251 142.971 50.5858 143.234 50.633L144.219 50.8084C145.177 50.9771 145.548 51.4763 145.548 52.1779C145.548 52.9672 145.008 53.6485 143.652 53.6485Z" fill="black"/>
</g>
</g>
<g opacity="0.6">
<path d="M49.7061 15.1369C56.0923 10.5377 64.7398 10.5377 71.126 15.1369L85.7769 25.6881C92.1631 30.2873 94.8354 38.4395 92.3961 45.8811L86.7999 62.9533C84.3606 70.3949 77.3646 75.4333 69.4708 75.4333H51.3613C43.4675 75.4333 36.4715 70.395 34.0322 62.9534L28.436 45.8811C25.9967 38.4395 28.6689 30.2873 35.0551 25.6881L49.7061 15.1369Z" fill="url(#paint8_linear_2999_3031)"/>
<path d="M49.8581 14.7849C56.0759 10.3069 64.498 10.3069 70.7158 14.7849L85.9969 25.7899C92.2121 30.2659 94.8072 38.1936 92.4364 45.4262L86.5995 63.2327C84.2281 70.4673 77.4219 75.3756 69.7312 75.3756H50.8427C43.1521 75.3756 36.3458 70.4673 33.9744 63.2327L28.1375 45.4262C25.7667 38.1936 28.3618 30.2659 34.577 25.7899L49.8581 14.7849Z" stroke="url(#paint9_linear_2999_3031)" stroke-width="2.53841"/>
<path d="M50.047 16.2738C56.1551 11.8645 64.4264 11.8645 70.5345 16.2738L84.6665 26.4753C90.7743 30.8844 93.3296 38.6992 90.9969 45.8325L85.599 62.3389C83.2662 69.4723 76.5753 74.3028 69.0248 74.3028H51.5567C44.0062 74.3028 37.3153 69.4723 34.9825 62.3389L29.5846 45.8325C27.2519 38.6992 29.8072 30.8844 35.915 26.4753L50.047 16.2738Z" stroke="url(#paint10_linear_2999_3031)" stroke-width="0.297006"/>
<path d="M50.1386 16.5287C56.1937 12.1585 64.3931 12.1585 70.4481 16.5287L84.442 26.6285C90.4969 30.9985 93.0301 38.744 90.7176 45.814L85.3724 62.1559C83.0598 69.2261 76.427 74.0137 68.9421 74.0137H51.6447C44.1598 74.0137 37.527 69.2261 35.2144 62.1559L29.8692 45.814C27.5567 38.744 30.0899 30.9985 36.1447 26.6285L50.1386 16.5287Z" stroke="url(#paint11_linear_2999_3031)" stroke-width="0.256044"/>
<g style="mix-blend-mode:soft-light" opacity="0.6" clip-path="url(#clip2_2999_3031)">
<path d="M75.6948 28.4214L75.691 52.6528L73.5044 51.1563V35.5816L72.0097 37.8012C72.0877 37.9643 72.162 38.1292 72.2315 38.2923C72.9009 39.8615 73.2402 41.5276 73.2402 43.245C73.2402 44.9624 72.9009 46.6285 72.2315 48.1977C71.66 49.5377 70.8675 50.7602 69.8767 51.8318L69.8212 51.8924H66.5347L66.9624 51.5597C67.2999 51.297 67.6261 51.01 67.9326 50.7062C69.9434 48.7139 71.0508 46.0638 71.0508 43.245C71.0508 42.1277 70.8778 41.0347 70.5366 39.9882L62.0458 52.5969V48.5471L62.0778 48.5005L69.4358 37.6503C69.0109 36.9784 68.5051 36.3513 67.9326 35.7829C66.201 34.0674 63.926 32.9939 61.5062 32.7479L61.4997 53.4094L60.4157 55.0178L59.3328 53.4094L59.3309 49.9626L59.3253 32.7479C56.9055 32.9939 54.6305 34.0674 52.8989 35.7829C52.3264 36.3513 51.8206 36.9793 51.3957 37.6503L58.7857 48.5471V52.5969L50.2949 39.9882C49.9537 41.0347 49.7816 42.1277 49.7816 43.245C49.7816 46.0638 50.889 48.7139 52.8989 50.7062C53.2054 51.009 53.5316 51.296 53.8691 51.5597L54.2968 51.8924H51.0103L50.9548 51.8318C49.964 50.7602 49.1715 49.5377 48.6 48.1977C47.9306 46.6285 47.5913 44.9624 47.5913 43.245C47.5913 41.5276 47.9306 39.8615 48.6 38.2923C48.6695 38.1283 48.7447 37.9634 48.8218 37.8012L47.328 35.5816V51.1563L45.1405 52.6528L45.1367 28.4214L50.0806 35.7111C50.4632 35.1967 50.889 34.7057 51.3506 34.2481C52.5295 33.0796 53.902 32.1627 55.4305 31.5216C56.6724 31.0007 57.9819 30.6801 59.3243 30.5674V30.0987C56.5586 30.2235 53.8644 30.8283 51.3186 31.8962C50.56 32.2139 49.8108 32.5755 49.0935 32.9687L48.9421 33.0517L47.7191 31.2439L47.8958 31.1451C48.724 30.6839 49.588 30.2636 50.466 29.8965C53.6209 28.5733 56.9685 27.9023 60.4157 27.9023C63.863 27.9023 67.2106 28.5733 70.3655 29.8965C71.2435 30.2636 72.1075 30.6839 72.9357 31.1451L73.1133 31.2439L71.8894 33.0517L71.738 32.9687C71.0207 32.5755 70.2715 32.2139 69.5128 31.8962C66.969 30.8292 64.2757 30.2245 61.5072 30.0987V30.5674C62.8505 30.6801 64.1591 31.0007 65.4019 31.5216C66.9295 32.1627 68.302 33.0796 69.4809 34.2481C69.9425 34.7047 70.3683 35.1967 70.7509 35.7111L75.6948 28.4214Z" fill="black"/>
</g>
<g style="mix-blend-mode:soft-light" opacity="0.4">
<path d="M42.4592 61.2754H41.5913V58.1823H42.7639L43.2255 59.4011L43.424 60.1997H43.484L43.6964 59.4011L44.1073 58.1823H45.2798V61.2754H44.4119V60.1443L44.4627 59.4796H44.4027L44.2134 60.1905L43.9641 60.9522H42.907L42.6577 60.1905L42.4638 59.4796H42.4038L42.4592 60.1443V61.2754ZM48.1853 61.3216C47.2019 61.3216 46.6295 60.6937 46.6295 59.7289C46.6295 58.764 47.2019 58.1362 48.1853 58.1362C49.164 58.1362 49.7364 58.764 49.7364 59.7289C49.7364 60.6937 49.164 61.3216 48.1853 61.3216ZM48.1853 60.4767C48.6608 60.4767 48.8039 60.3244 48.8039 59.7289C48.8039 59.1333 48.6608 58.981 48.1853 58.981C47.7051 58.981 47.562 59.1333 47.562 59.7289C47.562 60.3244 47.7051 60.4767 48.1853 60.4767ZM52.9542 61.2754H51.7585L50.7013 58.1823H51.68L52.3356 60.3059H52.3956L53.0373 58.1823H54.016L52.9542 61.2754ZM57.6981 61.2754H55.2006V58.1823H57.6981V58.9625H56.0685V59.3365H57.6288V60.112H56.0685V60.4952H57.6981V61.2754ZM60.5273 61.3216C59.5301 61.3216 58.99 60.6937 58.99 59.7289C58.99 58.764 59.5301 58.1362 60.5273 58.1362C61.506 58.1362 61.9815 58.644 61.9815 59.3642V59.4703H61.0536V59.4565C61.0536 59.101 60.9381 58.981 60.5088 58.981C60.0656 58.981 59.9225 59.0872 59.9225 59.7289C59.9225 60.3706 60.0656 60.4767 60.5088 60.4767C60.9381 60.4767 61.0536 60.3567 61.0536 60.0012V59.9874H61.9815V60.0936C61.9815 60.8137 61.506 61.3216 60.5273 61.3216ZM64.8462 61.3216C63.8629 61.3216 63.2905 60.6937 63.2905 59.7289C63.2905 58.764 63.8629 58.1362 64.8462 58.1362C65.8249 58.1362 66.3974 58.764 66.3974 59.7289C66.3974 60.6937 65.8249 61.3216 64.8462 61.3216ZM64.8462 60.4767C65.3217 60.4767 65.4648 60.3244 65.4648 59.7289C65.4648 59.1333 65.3217 58.981 64.8462 58.981C64.3661 58.981 64.223 59.1333 64.223 59.7289C64.223 60.3244 64.3661 60.4767 64.8462 60.4767ZM68.6048 61.2754H67.7369V58.1823H68.6048V61.2754ZM70.9351 61.2754H70.0672V58.1823H70.9951L71.8584 59.5719L72.0616 59.9505H72.1216L72.0754 59.5719V58.1823H72.9387V61.2754H72.0154L71.1983 59.9874L70.949 59.5488H70.889L70.9351 59.9874V61.2754ZM75.67 61.3216C74.7836 61.3216 74.3405 60.9061 74.3405 60.2598V60.1997H75.1945V60.2367C75.1945 60.4906 75.2868 60.5414 75.7023 60.5414C76.0301 60.5414 76.0993 60.4906 76.0993 60.3567C76.0993 60.2136 76.0532 60.1674 75.8408 60.1351L75.1668 60.0289C74.539 59.932 74.2804 59.5996 74.2804 59.1195C74.2804 58.5701 74.7005 58.1362 75.61 58.1362C76.4733 58.1362 76.8841 58.5701 76.8841 59.1472V59.2257H76.0301V59.1703C76.0301 58.9902 75.9424 58.9164 75.5546 58.9164C75.2268 58.9164 75.1437 58.9718 75.1437 59.0872C75.1437 59.1841 75.2037 59.2257 75.3838 59.258L76.0578 59.378C76.7133 59.4934 76.9672 59.835 76.9672 60.3152C76.9672 60.8553 76.5979 61.3216 75.67 61.3216Z" fill="black"/>
</g>
</g>
<defs>
<filter id="filter0_f_2999_3031" x="0.387388" y="-21.6126" width="56.8815" height="49.9723" filterUnits="userSpaceOnUse" color-interpolation-filters="sRGB">
<feFlood flood-opacity="0" result="BackgroundImageFix"/>
<feBlend mode="normal" in="SourceGraphic" in2="BackgroundImageFix" result="shape"/>
<feGaussianBlur stdDeviation="1.80631" result="effect1_foregroundBlur_2999_3031"/>
</filter>
<filter id="filter1_f_2999_3031" x="69.7078" y="-21.2922" width="100.635" height="98.5365" filterUnits="userSpaceOnUse" color-interpolation-filters="sRGB">
<feFlood flood-opacity="0" result="BackgroundImageFix"/>
<feBlend mode="normal" in="SourceGraphic" in2="BackgroundImageFix" result="shape"/>
<feGaussianBlur stdDeviation="1.1461" result="effect1_foregroundBlur_2999_3031"/>
</filter>
<linearGradient id="paint0_linear_2999_3031" x1="13.8523" y1="20.8112" x2="49.1324" y2="-9.09143" gradientUnits="userSpaceOnUse">
<stop stop-color="#513E61"/>
<stop offset="0.442708" stop-color="#9274AA"/>
<stop offset="1" stop-color="#EBD2FF"/>
</linearGradient>
<linearGradient id="paint1_linear_2999_3031" x1="3.46797" y1="19.2507" x2="46.2752" y2="-14.5185" gradientUnits="userSpaceOnUse">
<stop stop-color="#061116"/>
<stop offset="0.189073" stop-color="#4B5358"/>
<stop offset="0.517162" stop-color="#767A7D"/>
<stop offset="0.646318" stop-color="#E7F3F9"/>
<stop offset="1" stop-color="#2D363A"/>
</linearGradient>
<linearGradient id="paint2_linear_2999_3031" x1="8.67743" y1="-13.6464" x2="42.5321" y2="28.3366" gradientUnits="userSpaceOnUse">
<stop stop-color="#D1D1D1"/>
<stop offset="1" stop-color="white"/>
</linearGradient>
<linearGradient id="paint3_linear_2999_3031" x1="11.7779" y1="-17.6521" x2="42.0802" y2="31.6193" gradientUnits="userSpaceOnUse">
<stop stop-color="#424242"/>
<stop offset="1" stop-color="#8E8E8E"/>
</linearGradient>
<linearGradient id="paint4_linear_2999_3031" x1="91.0567" y1="66.3039" x2="166.401" y2="10.1011" gradientUnits="userSpaceOnUse">
<stop stop-color="#513E61"/>
<stop offset="0.442708" stop-color="#9274AA"/>
<stop offset="1" stop-color="#EBD2FF"/>
</linearGradient>
<linearGradient id="paint5_linear_2999_3031" x1="70.9709" y1="62.8723" x2="161.613" y2="-0.0579711" gradientUnits="userSpaceOnUse">
<stop stop-color="#061116"/>
<stop offset="0.189073" stop-color="#4B5358"/>
<stop offset="0.517162" stop-color="#767A7D"/>
<stop offset="0.646318" stop-color="#E7F3F9"/>
<stop offset="1" stop-color="#2D363A"/>
</linearGradient>
<linearGradient id="paint6_linear_2999_3031" x1="81.0456" y1="-9.43313" x2="156.893" y2="73.3464" gradientUnits="userSpaceOnUse">
<stop stop-color="#D1D1D1"/>
<stop offset="1" stop-color="white"/>
</linearGradient>
<linearGradient id="paint7_linear_2999_3031" x1="87.0458" y1="-18.235" x2="157.123" y2="82.0472" gradientUnits="userSpaceOnUse">
<stop stop-color="#424242"/>
<stop offset="1" stop-color="#8E8E8E"/>
</linearGradient>
<linearGradient id="paint8_linear_2999_3031" x1="39.606" y1="70.5243" x2="93.0575" y2="30.2998" gradientUnits="userSpaceOnUse">
<stop stop-color="#513E61"/>
<stop offset="0.442708" stop-color="#9274AA"/>
<stop offset="1" stop-color="#EBD2FF"/>
</linearGradient>
<linearGradient id="paint9_linear_2999_3031" x1="25.2653" y1="68.0964" x2="89.6058" y2="23.0313" gradientUnits="userSpaceOnUse">
<stop stop-color="#061116"/>
<stop offset="0.189073" stop-color="#4B5358"/>
<stop offset="0.517162" stop-color="#767A7D"/>
<stop offset="0.646318" stop-color="#E7F3F9"/>
<stop offset="1" stop-color="#2D363A"/>
</linearGradient>
<linearGradient id="paint10_linear_2999_3031" x1="32.4575" y1="16.9272" x2="86.0898" y2="75.9788" gradientUnits="userSpaceOnUse">
<stop stop-color="#D1D1D1"/>
<stop offset="1" stop-color="white"/>
</linearGradient>
<linearGradient id="paint11_linear_2999_3031" x1="36.7442" y1="10.6962" x2="86.1848" y2="82.0723" gradientUnits="userSpaceOnUse">
<stop stop-color="#424242"/>
<stop offset="1" stop-color="#8E8E8E"/>
</linearGradient>
<clipPath id="clip0_2999_3031">
<rect width="22.1277" height="17.4333" fill="white" transform="translate(17.8594 -6.5918)"/>
</clipPath>
<clipPath id="clip1_2999_3031">
<rect width="42.8023" height="38.3161" fill="white" transform="translate(98.8008 6.07422)"/>
</clipPath>
<clipPath id="clip2_2999_3031">
<rect width="30.5581" height="27.1154" fill="white" transform="translate(45.1367 27.9023)"/>
</clipPath>
</defs>
</svg>
