<svg width="19" height="19" viewBox="0 0 19 19" fill="none" xmlns="http://www.w3.org/2000/svg">
<path d="M5.91928 13.0756C5.46422 12.6206 5.53987 10.6873 5.53987 10.6873M5.91928 13.0756C6.37433 13.5307 8.30748 13.4549 8.30748 13.4549M5.91928 13.0756L8.70182 10.293M13.0678 5.92702C12.6128 5.47196 10.6796 5.54769 10.6796 5.54769M13.0678 5.92702C13.5229 6.38208 13.4471 8.31525 13.4471 8.31525M13.0678 5.92702L10.2852 8.70964" stroke="#848CE9" stroke-linecap="round" stroke-linejoin="round"/>
<path d="M1.97266 9.50207C1.97266 5.95636 1.97266 4.1835 3.07417 3.08198C4.17568 1.98047 5.94854 1.98047 9.49426 1.98047C13.04 1.98047 14.8128 1.98047 15.9144 3.08198C17.0159 4.1835 17.0159 5.95636 17.0159 9.50207C17.0159 13.0478 17.0159 14.8207 15.9144 15.9222C14.8128 17.0237 13.04 17.0237 9.49426 17.0237C5.94854 17.0237 4.17568 17.0237 3.07417 15.9222C1.97266 14.8207 1.97266 13.0478 1.97266 9.50207Z" stroke="#848CE9"/>
</svg>
