<svg width="358" height="406" viewBox="0 0 358 406" fill="none" xmlns="http://www.w3.org/2000/svg">
<g clip-path="url(#clip0_5732_5607)">
<path d="M0 24C0 12.6863 0 7.02944 3.51472 3.51472C7.02944 0 12.6863 0 24 0H334C345.314 0 350.971 0 354.485 3.51472C358 7.02944 358 12.6863 358 24V382C358 393.314 358 398.971 354.485 402.485C350.971 406 345.314 406 334 406H24C12.6863 406 7.02944 406 3.51472 402.485C0 398.971 0 393.314 0 382V24Z" fill="#1C1C1E"/>
<g style="mix-blend-mode:lighten" opacity="0.5" filter="url(#filter0_f_5732_5607)">
<circle cx="178.753" cy="392.882" r="179.654" transform="rotate(67.9938 178.753 392.882)" fill="url(#paint0_linear_5732_5607)"/>
</g>
<path d="M24.6885 58V39.6807H31.7979C35.543 39.6807 37.9043 41.8516 37.9043 45.292V45.3174C37.9043 47.8057 36.5459 49.7861 34.3496 50.5352L38.4502 58H35.1748L31.4424 50.9668H27.5322V58H24.6885ZM27.5322 48.6309H31.5186C33.7148 48.6309 34.9717 47.4248 34.9717 45.3428V45.3174C34.9717 43.2861 33.626 42.0674 31.4424 42.0674H27.5322V48.6309ZM45.9785 58.2666C42.0557 58.2666 39.6816 55.5879 39.6816 51.373V51.3604C39.6816 47.1836 42.0938 44.3906 45.8389 44.3906C49.584 44.3906 51.8818 47.082 51.8818 51.0937V52.0205H42.4238C42.4746 54.5469 43.8584 56.0195 46.042 56.0195C47.667 56.0195 48.7461 55.1816 49.0889 54.1787L49.127 54.0771H51.7295L51.7041 54.2168C51.2725 56.3369 49.2158 58.2666 45.9785 58.2666ZM45.8516 46.6377C44.0742 46.6377 42.7031 47.8437 42.4619 50.0781H49.165C48.9365 47.7676 47.6416 46.6377 45.8516 46.6377ZM54.0147 62.4434V44.6445H56.7568V46.9424H56.8203C57.6201 45.3555 59.0928 44.3906 60.9971 44.3906C64.3994 44.3906 66.583 47.0566 66.583 51.3223V51.335C66.583 55.5879 64.3867 58.2666 61.0352 58.2666C59.1436 58.2666 57.6074 57.3018 56.8203 55.7529H56.7568V62.4434H54.0147ZM60.2861 55.9053C62.4443 55.9053 63.79 54.1533 63.79 51.335V51.3223C63.79 48.4785 62.4316 46.7393 60.2861 46.7393C58.2041 46.7393 56.7441 48.542 56.7441 51.3223V51.335C56.7441 54.1025 58.2168 55.9053 60.2861 55.9053ZM68.8174 58V39.6807H71.5596V58H68.8174ZM78.3008 58.2412C75.6348 58.2412 73.8447 56.6035 73.8447 54.2041V54.1787C73.8447 51.8555 75.6475 50.4336 78.8086 50.2432L82.4395 50.0273V49.0244C82.4395 47.5518 81.4873 46.6631 79.7861 46.6631C78.1992 46.6631 77.2217 47.4121 76.9932 48.4785L76.9678 48.5928H74.3779L74.3906 48.4531C74.5811 46.1553 76.5742 44.3906 79.8623 44.3906C83.125 44.3906 85.1943 46.1172 85.1943 48.7959V58H82.4395V55.8926H82.3887C81.6143 57.3271 80.0654 58.2412 78.3008 58.2412ZM76.6123 54.1406C76.6123 55.3086 77.5772 56.0449 79.0498 56.0449C80.9795 56.0449 82.4395 54.7373 82.4395 52.998V51.957L79.1768 52.1602C77.5264 52.2617 76.6123 52.9854 76.6123 54.1152V54.1406ZM93.5986 58.2666C89.7012 58.2666 87.2637 55.5879 87.2637 51.3096V51.2969C87.2637 47.0693 89.752 44.3906 93.5606 44.3906C97.001 44.3906 99.083 46.5996 99.3115 49.1133L99.3242 49.2021H96.709L96.6836 49.1006C96.3916 47.793 95.376 46.6885 93.5859 46.6885C91.4531 46.6885 90.0693 48.4658 90.0693 51.3223V51.335C90.0693 54.2549 91.4785 55.9687 93.5986 55.9687C95.2871 55.9687 96.3662 54.9912 96.6963 53.5439L96.709 53.4424H99.3496L99.3369 53.5312C99.0449 56.21 96.8106 58.2666 93.5986 58.2666ZM106.992 58.2666C103.069 58.2666 100.695 55.5879 100.695 51.373V51.3604C100.695 47.1836 103.107 44.3906 106.853 44.3906C110.598 44.3906 112.896 47.082 112.896 51.0937V52.0205H103.438C103.488 54.5469 104.872 56.0195 107.056 56.0195C108.681 56.0195 109.76 55.1816 110.103 54.1787L110.141 54.0771H112.743L112.718 54.2168C112.286 56.3369 110.23 58.2666 106.992 58.2666ZM106.865 46.6377C105.088 46.6377 103.717 47.8437 103.476 50.0781H110.179C109.95 47.7676 108.655 46.6377 106.865 46.6377ZM119.281 58L125.946 39.6807H129.019L135.671 58H132.688L131.012 53.0488H123.953L122.265 58H119.281ZM127.457 42.7148L124.715 50.7637H130.237L127.508 42.7148H127.457ZM137.372 58V44.6445H140.114V46.6631H140.178C140.876 45.3047 142.247 44.3906 144.266 44.3906C147.198 44.3906 148.887 46.2822 148.887 49.3545V58H146.132V49.875C146.132 47.8691 145.192 46.7393 143.288 46.7393C141.358 46.7393 140.114 48.1357 140.114 50.2178V58H137.372ZM153.089 62.4561C152.556 62.4561 151.984 62.3926 151.654 62.3291V60.1836C151.87 60.2344 152.188 60.2852 152.556 60.2852C153.851 60.2852 154.562 59.9424 155.019 58.6475L155.247 58.0127L150.385 44.6445H153.355L156.72 55.5117H156.809L160.173 44.6445H163.067L158.091 58.6221C157.101 61.3896 155.704 62.4561 153.089 62.4561ZM170.278 58V39.6807H173.566L179.495 54.3057H179.571L185.513 39.6807H188.788V58H186.198V44.4795H186.109L180.587 58H178.48L172.957 44.4795H172.868V58H170.278ZM197.535 58.2666C193.612 58.2666 191.238 55.5879 191.238 51.373V51.3604C191.238 47.1836 193.65 44.3906 197.396 44.3906C201.141 44.3906 203.438 47.082 203.438 51.0937V52.0205H193.98C194.031 54.5469 195.415 56.0195 197.599 56.0195C199.224 56.0195 200.303 55.1816 200.646 54.1787L200.684 54.0771H203.286L203.261 54.2168C202.829 56.3369 200.772 58.2666 197.535 58.2666ZM197.408 46.6377C195.631 46.6377 194.26 47.8437 194.019 50.0781H200.722C200.493 47.7676 199.198 46.6377 197.408 46.6377ZM209.494 58.2412C206.828 58.2412 205.038 56.6035 205.038 54.2041V54.1787C205.038 51.8555 206.841 50.4336 210.002 50.2432L213.633 50.0273V49.0244C213.633 47.5518 212.681 46.6631 210.98 46.6631C209.393 46.6631 208.415 47.4121 208.187 48.4785L208.161 48.5928H205.571L205.584 48.4531C205.774 46.1553 207.768 44.3906 211.056 44.3906C214.318 44.3906 216.388 46.1172 216.388 48.7959V58H213.633V55.8926H213.582C212.808 57.3271 211.259 58.2412 209.494 58.2412ZM207.806 54.1406C207.806 55.3086 208.771 56.0449 210.243 56.0449C212.173 56.0449 213.633 54.7373 213.633 52.998V51.957L210.37 52.1602C208.72 52.2617 207.806 52.9854 207.806 54.1152V54.1406ZM219.155 58V39.6807H221.897V58H219.155ZM235.418 58V50.4971L228.969 39.6807H232.13L236.802 47.7676H236.891L241.563 39.6807H244.724L238.262 50.4971V58H235.418ZM249.599 58.2666C245.765 58.2666 243.264 55.6133 243.264 51.3223V51.2969C243.264 47.0312 245.79 44.3906 249.586 44.3906C253.395 44.3906 255.934 47.0186 255.934 51.2969V51.3223C255.934 55.626 253.42 58.2666 249.599 58.2666ZM249.611 55.9687C251.757 55.9687 253.128 54.2676 253.128 51.3223V51.2969C253.128 48.377 251.731 46.6885 249.586 46.6885C247.479 46.6885 246.069 48.377 246.069 51.2969V51.3223C246.069 54.2803 247.466 55.9687 249.611 55.9687ZM262.599 58.2666C259.666 58.2666 257.99 56.375 257.99 53.3027V44.6445H260.732V52.7695C260.732 54.7881 261.672 55.9053 263.576 55.9053C265.506 55.9053 266.75 54.5215 266.75 52.4395V44.6445H269.505V58H266.75V55.9941H266.687C265.988 57.3398 264.63 58.2666 262.599 58.2666ZM24.6885 100V81.6807H31.1504C36.584 81.6807 39.8213 85.0195 39.8213 90.7832V90.8086C39.8213 96.5977 36.6094 100 31.1504 100H24.6885ZM27.5322 97.5371H30.8838C34.7686 97.5371 36.9141 95.1631 36.9141 90.834V90.8086C36.9141 86.5049 34.7432 84.1309 30.8838 84.1309H27.5322V97.5371ZM47.9463 100.267C44.1123 100.267 41.6113 97.6133 41.6113 93.3223V93.2969C41.6113 89.0312 44.1377 86.3906 47.9336 86.3906C51.7422 86.3906 54.2813 89.0186 54.2813 93.2969V93.3223C54.2813 97.626 51.7676 100.267 47.9463 100.267ZM47.959 97.9687C50.1045 97.9687 51.4756 96.2676 51.4756 93.3223V93.2969C51.4756 90.377 50.0791 88.6885 47.9336 88.6885C45.8262 88.6885 44.417 90.377 44.417 93.2969V93.3223C44.417 96.2803 45.8135 97.9687 47.959 97.9687ZM56.4014 100V86.6445H59.1436V88.6631H59.207C59.9053 87.3047 61.2764 86.3906 63.2949 86.3906C66.2275 86.3906 67.916 88.2822 67.916 91.3545V100H65.1611V91.875C65.1611 89.8691 64.2217 88.7393 62.3174 88.7393C60.3877 88.7393 59.1436 90.1357 59.1436 92.2178V100H56.4014ZM71.1787 88.3838L70.8867 81.6807H73.4258L73.1338 88.3838H71.1787ZM81.5762 100.267C78.9356 100.267 77.666 99.1494 77.666 96.4834V88.8281H75.749V86.6445H77.666V83.166H80.4717V86.6445H82.9727V88.8281H80.4717V96.3184C80.4717 97.6768 81.0811 98.083 82.2363 98.083C82.5283 98.083 82.7695 98.0576 82.9727 98.0322V100.152C82.6553 100.203 82.1348 100.267 81.5762 100.267ZM90.8565 100V81.6807H93.7002V97.5498H102.231V100H90.8565ZM105.824 84.5879C104.936 84.5879 104.225 83.877 104.225 83.0137C104.225 82.1377 104.936 81.4268 105.824 81.4268C106.726 81.4268 107.424 82.1377 107.424 83.0137C107.424 83.877 106.726 84.5879 105.824 84.5879ZM104.453 100V86.6445H107.195V100H104.453ZM110.179 100V81.6807H112.921V92.3447H112.984L118.342 86.6445H121.566L116.082 92.4082L121.782 100H118.596L114.063 94.0586L112.921 95.1885V100H110.179ZM128.219 100.267C124.296 100.267 121.922 97.5879 121.922 93.373V93.3604C121.922 89.1836 124.334 86.3906 128.079 86.3906C131.824 86.3906 134.122 89.082 134.122 93.0937V94.0205H124.664C124.715 96.5469 126.099 98.0195 128.282 98.0195C129.907 98.0195 130.986 97.1816 131.329 96.1787L131.367 96.0771H133.97L133.944 96.2168C133.513 98.3369 131.456 100.267 128.219 100.267ZM128.092 88.6377C126.314 88.6377 124.943 89.8437 124.702 92.0781H131.405C131.177 89.7676 129.882 88.6377 128.092 88.6377Z" fill="#929292"/>
<g opacity="0.4">
<path d="M290.712 311.87H329.545C333.936 311.87 335.544 312.886 334.449 317.299C332.516 325.085 327.045 327.019 321.99 332.101C320.762 333.336 322.673 335.162 322.674 336.52C322.676 339.078 320.244 339.261 318.306 339.261H301.951C300.014 339.261 297.581 339.078 297.583 336.52C297.584 335.19 299.438 333.279 298.267 332.101C293.212 327.019 287.741 325.085 285.809 317.299C284.713 312.886 286.322 311.87 290.712 311.87Z" stroke="#F8F8F8" stroke-width="4.1087" stroke-linejoin="round"/>
<path d="M330.673 311.87C330.673 306.964 325.469 303.62 321.086 305.549M289.586 311.87C289.586 308.328 292.239 305.409 295.653 305.019C293.424 299.978 298.149 294.323 303.388 295.482M324.625 304.975C326.765 300.043 322.232 294.296 316.871 295.482C315.566 288.115 304.693 288.115 303.388 295.482M303.388 295.482C305.014 295.842 306.424 296.784 307.39 298.079" stroke="#F8F8F8" stroke-width="4.1087" stroke-linecap="round" stroke-linejoin="round"/>
<path d="M326.562 303.653L340.258 287.218" stroke="#F8F8F8" stroke-width="4.1087" stroke-linecap="round" stroke-linejoin="round"/>
<path d="M323.828 295.435L329.306 284.479" stroke="#F8F8F8" stroke-width="4.1087" stroke-linecap="round" stroke-linejoin="round"/>
</g>
<g opacity="0.4">
<path d="M72.305 311.867C72.305 308.085 69.2392 305.02 65.4572 305.02C61.6753 305.02 58.6094 308.085 58.6094 311.867" stroke="#F8F8F8" stroke-width="4.1087" stroke-linecap="round"/>
<path d="M39.4375 287.215V311.867M46.2853 285.845V299.541M53.1332 284.476V299.541" stroke="#F8F8F8" stroke-width="4.1087" stroke-linecap="round" stroke-linejoin="round"/>
<path d="M33.9609 291.323L39.4392 290.467M77.787 284.476L59.9827 287.258M33.9609 298.171L39.4392 297.829M77.787 295.432L59.9827 296.545" stroke="#F8F8F8" stroke-width="4.1087" stroke-linecap="round" stroke-linejoin="round"/>
<path d="M36.4545 311.867H75.2874C79.6779 311.867 81.2863 312.883 80.1909 317.296C78.2585 325.082 72.7876 327.016 67.7325 332.098C66.5039 333.333 68.4156 335.159 68.4166 336.517C68.4187 339.075 65.9861 339.258 64.0483 339.258H47.6935C45.7558 339.258 43.3232 339.075 43.3252 336.517C43.3263 335.187 45.1806 333.276 44.0093 332.098C38.9543 327.016 33.4833 325.082 31.551 317.296C30.4555 312.883 32.064 311.867 36.4545 311.867Z" stroke="#F8F8F8" stroke-width="4.1087" stroke-linejoin="round"/>
</g>
<path fill-rule="evenodd" clip-rule="evenodd" d="M198.101 241.56C196.478 241.229 194.893 242.276 194.561 243.899C194.23 245.522 195.277 247.107 196.9 247.439C221.24 252.412 240.806 270.69 247.754 294.42L235.867 289.018C234.358 288.333 232.58 289 231.894 290.509C231.209 292.017 231.876 293.795 233.385 294.481L246.145 300.279L246.205 300.306L246.266 300.331L246.425 300.395C247.325 300.758 248.302 301.152 249.137 301.345C250.062 301.558 251.74 301.746 253.159 300.463C254.549 299.207 254.568 297.561 254.459 296.605C254.363 295.762 254.085 294.762 253.831 293.852L253.785 293.687C246.47 267.393 224.978 247.052 198.101 241.56ZM248.501 297.326C248.501 297.326 248.501 297.323 248.501 297.315C248.501 297.323 248.501 297.326 248.501 297.326ZM250.524 295.506C250.532 295.508 250.536 295.508 250.536 295.508C250.536 295.508 250.535 295.508 250.534 295.508C250.532 295.507 250.529 295.507 250.524 295.506ZM161.019 260.134L166.421 248.246C142.691 255.194 124.413 274.76 119.44 299.1C119.108 300.723 117.523 301.771 115.9 301.439C114.277 301.107 113.23 299.522 113.561 297.899C119.053 271.022 139.394 249.53 165.688 242.215L165.853 242.169C166.763 241.916 167.763 241.637 168.606 241.541C169.562 241.432 171.208 241.451 172.464 242.841C173.747 244.26 173.559 245.938 173.346 246.863C173.153 247.698 172.759 248.675 172.396 249.575L172.332 249.735L172.307 249.795L172.28 249.855L166.482 262.616C165.796 264.124 164.018 264.791 162.51 264.106C161.001 263.42 160.334 261.642 161.019 260.134ZM167.509 245.464C167.509 245.464 167.509 245.468 167.507 245.476C167.508 245.469 167.509 245.464 167.509 245.464ZM169.327 247.499C169.327 247.499 169.323 247.499 169.316 247.5C169.324 247.499 169.327 247.499 169.327 247.499ZM254.44 326.1C254.772 324.477 253.724 322.892 252.101 322.56C250.478 322.229 248.893 323.276 248.561 324.899C243.588 349.239 225.31 368.805 201.58 375.754L206.982 363.866C207.667 362.357 207 360.579 205.492 359.893C203.983 359.208 202.205 359.875 201.519 361.384L195.721 374.144L195.694 374.204L195.67 374.265L195.605 374.424C195.242 375.324 194.849 376.301 194.656 377.136C194.442 378.061 194.255 379.739 195.537 381.158C196.793 382.548 198.44 382.567 199.395 382.458C200.238 382.362 201.238 382.084 202.148 381.83L202.313 381.784C228.607 374.469 248.948 352.977 254.44 326.1ZM198.674 376.5C198.674 376.5 198.678 376.5 198.685 376.5C198.677 376.5 198.673 376.5 198.674 376.5ZM200.492 378.533C200.492 378.534 200.492 378.535 200.492 378.535C200.492 378.534 200.493 378.53 200.494 378.523C200.493 378.528 200.493 378.531 200.492 378.533ZM121.736 323.669L121.576 323.604L121.576 323.604C120.676 323.241 119.699 322.848 118.864 322.655C117.939 322.441 116.261 322.254 114.842 323.536C113.452 324.792 113.433 326.439 113.542 327.394C113.638 328.237 113.917 329.237 114.17 330.147L114.216 330.312C121.531 356.606 143.023 376.947 169.9 382.439C171.523 382.771 173.108 381.723 173.44 380.1C173.772 378.477 172.724 376.892 171.101 376.56C146.761 371.587 127.195 353.309 120.247 329.579L132.135 334.981C133.643 335.666 135.421 334.999 136.107 333.491C136.792 331.982 136.125 330.204 134.617 329.518L121.856 323.72L121.796 323.693L121.736 323.669ZM119.5 326.673C119.5 326.673 119.5 326.677 119.501 326.684C119.5 326.677 119.5 326.673 119.5 326.673ZM117.465 328.491C117.465 328.491 117.469 328.491 117.477 328.493C117.47 328.492 117.465 328.491 117.465 328.491ZM202.15 284.707C202.812 284.67 203.328 284.641 203.772 284.629C204.146 284.62 204.407 284.625 204.595 284.639C204.649 285.148 204.627 285.886 204.571 287.299C204.132 298.317 201.709 310.878 195.96 318.845C193.147 322.743 189.628 325.422 185.213 326.436C181.386 327.315 176.581 327.014 170.558 324.737C175.115 317.207 180.743 311.789 185.697 308.391C187.063 307.454 187.411 305.587 186.474 304.221C185.537 302.854 183.67 302.506 182.303 303.443C177.252 306.908 171.673 312.158 166.937 319.252C165.449 314.163 165.242 309.885 165.892 306.301C166.767 301.476 169.244 297.624 172.8 294.542C180.055 288.253 191.685 285.298 202.15 284.707ZM186.557 332.284C181.118 333.533 174.851 332.894 167.701 330.065C165.875 333.935 164.355 338.251 163.305 343.019C162.949 344.637 161.349 345.661 159.731 345.305C158.113 344.948 157.09 343.348 157.446 341.73C158.727 335.908 160.652 330.69 162.974 326.066C159.764 318.146 158.902 311.224 159.988 305.231C161.141 298.871 164.436 293.851 168.87 290.008C177.592 282.447 190.804 279.339 201.812 278.717L201.986 278.707C203.129 278.642 204.318 278.574 205.331 278.682C206.559 278.813 207.845 279.224 208.935 280.33C210.021 281.431 210.417 282.722 210.554 283.934C210.67 284.958 210.621 286.17 210.573 287.366L210.566 287.537C210.114 298.901 207.629 312.928 200.826 322.356C197.363 327.154 192.694 330.874 186.557 332.284Z" fill="url(#paint1_radial_5732_5607)"/>
</g>
<defs>
<filter id="filter0_f_5732_5607" x="-90.4653" y="123.661" width="538.438" height="538.443" filterUnits="userSpaceOnUse" color-interpolation-filters="sRGB">
<feFlood flood-opacity="0" result="BackgroundImageFix"/>
<feBlend mode="normal" in="SourceGraphic" in2="BackgroundImageFix" result="shape"/>
<feGaussianBlur stdDeviation="44.76" result="effect1_foregroundBlur_5732_5607"/>
</filter>
<linearGradient id="paint0_linear_5732_5607" x1="282.503" y1="213.229" x2="160.338" y2="583.315" gradientUnits="userSpaceOnUse">
<stop stop-color="#DDF988"/>
<stop offset="1" stop-color="#F5C563"/>
</linearGradient>
<radialGradient id="paint1_radial_5732_5607" cx="0" cy="0" r="1" gradientUnits="userSpaceOnUse" gradientTransform="translate(184.001 312) rotate(90) scale(70.5006)">
<stop stop-color="#F8F8F8"/>
<stop offset="1" stop-color="white" stop-opacity="0.46"/>
</radialGradient>
<clipPath id="clip0_5732_5607">
<path d="M0 24C0 12.6863 0 7.02944 3.51472 3.51472C7.02944 0 12.6863 0 24 0H334C345.314 0 350.971 0 354.485 3.51472C358 7.02944 358 12.6863 358 24V382C358 393.314 358 398.971 354.485 402.485C350.971 406 345.314 406 334 406H24C12.6863 406 7.02944 406 3.51472 402.485C0 398.971 0 393.314 0 382V24Z" fill="white"/>
</clipPath>
</defs>
</svg>
