<svg width="17" height="17" viewBox="0 0 17 17" fill="none" xmlns="http://www.w3.org/2000/svg">
<path d="M15.0789 9.20703H1.91588C0.839496 9.20703 1.75685 10.7923 2.24239 11.0353L3.9147 11.8721C4.08185 11.9558 4.16543 11.9976 4.23468 12.0588C4.85658 12.6082 4.97009 13.5768 5.75605 13.9977C6.069 14.1654 6.43984 14.1654 7.18151 14.1654H9.81329C10.555 14.1654 10.9258 14.1654 11.2387 13.9977C12.0247 13.5768 12.1382 12.6082 12.7601 12.0588C12.8294 11.9976 12.9129 11.9558 13.0801 11.8721L14.7524 11.0353C15.2379 10.7923 16.1553 9.20703 15.0789 9.20703Z" stroke="#5ECC7B" stroke-width="1.0625" stroke-linecap="round" stroke-linejoin="round"/>
<path d="M10.6211 9.20703C10.6211 6.85982 8.7183 4.95703 6.37109 4.95703C4.02388 4.95703 2.12109 6.85982 2.12109 9.20703" stroke="#5ECC7B" stroke-width="1.0625" stroke-linecap="round" stroke-linejoin="round"/>
<path d="M14.8711 9.20768C14.8711 7.25167 13.295 5.66602 11.3507 5.66602C10.6962 5.66602 10.0835 5.84581 9.55859 6.15884" stroke="#5ECC7B" stroke-width="1.0625" stroke-linecap="round" stroke-linejoin="round"/>
<path d="M4.95703 8.65611C4.95703 7.78677 5.59129 7.08203 6.3737 7.08203C7.1561 7.08203 7.79036 7.78677 7.79036 8.65611V9.91536" stroke="#5ECC7B" stroke-width="1.0625" stroke-linecap="round" stroke-linejoin="round"/>
<path d="M6.37109 4.64225C6.67656 3.39177 8.02021 2.60708 9.37223 2.88961C10.7242 3.17213 11.5726 4.41488 11.2672 5.66536" stroke="#5ECC7B" stroke-width="1.0625" stroke-linecap="round" stroke-linejoin="round"/>
</svg>
