<svg width="358" height="406" viewBox="0 0 358 406" fill="none" xmlns="http://www.w3.org/2000/svg">
<g clip-path="url(#clip0_5732_5713)">
<path d="M0 24C0 12.6863 0 7.02944 3.51472 3.51472C7.02944 0 12.6863 0 24 0H334C345.314 0 350.971 0 354.485 3.51472C358 7.02944 358 12.6863 358 24V382C358 393.314 358 398.971 354.485 402.485C350.971 406 345.314 406 334 406H24C12.6863 406 7.02944 406 3.51472 402.485C0 398.971 0 393.314 0 382V24Z" fill="#1C1C1E"/>
<g style="mix-blend-mode:lighten" opacity="0.5" filter="url(#filter0_f_5732_5713)">
<circle cx="178.753" cy="392.882" r="179.654" transform="rotate(67.9938 178.753 392.882)" fill="url(#paint0_linear_5732_5713)"/>
</g>
<path d="M30.9346 58.3047C26.8213 58.3047 24.1045 56.3496 23.876 53.125L23.8633 52.9346H26.6309L26.6563 53.0996C26.9102 54.7881 28.5986 55.8418 31.0488 55.8418C33.499 55.8418 35.0479 54.7373 35.0479 53.0234V53.0107C35.0479 51.5381 34.0449 50.7383 31.6201 50.2051L29.627 49.7861C26.0342 49.0244 24.2949 47.374 24.2949 44.6572V44.6445C24.3076 41.5215 27.0625 39.376 30.9346 39.376C34.7559 39.376 37.3711 41.458 37.5615 44.5303L37.5742 44.7461H34.8066L34.7939 44.5684C34.54 42.8672 33.0674 41.8389 30.8965 41.8389C28.624 41.8516 27.1768 42.9307 27.1768 44.5303V44.543C27.1768 45.9141 28.2178 46.752 30.5029 47.2471L32.5088 47.666C36.292 48.4658 37.917 50.002 37.917 52.833V52.8457C37.917 56.1846 35.2764 58.3047 30.9346 58.3047ZM45.8516 58.2666C41.9287 58.2666 39.5547 55.5879 39.5547 51.373V51.3604C39.5547 47.1836 41.9668 44.3906 45.7119 44.3906C49.457 44.3906 51.7549 47.082 51.7549 51.0937V52.0205H42.2969C42.3477 54.5469 43.7314 56.0195 45.915 56.0195C47.54 56.0195 48.6191 55.1816 48.9619 54.1787L49 54.0771H51.6025L51.5772 54.2168C51.1455 56.3369 49.0889 58.2666 45.8516 58.2666ZM45.7246 46.6377C43.9473 46.6377 42.5762 47.8437 42.335 50.0781H49.0381C48.8096 47.7676 47.5147 46.6377 45.7246 46.6377ZM58.5723 58.2666C55.9316 58.2666 54.6621 57.1494 54.6621 54.4834V46.8281H52.7451V44.6445H54.6621V41.166H57.4678V44.6445H59.9688V46.8281H57.4678V54.3184C57.4678 55.6768 58.0772 56.083 59.2324 56.083C59.5244 56.083 59.7656 56.0576 59.9688 56.0322V58.1523C59.6514 58.2031 59.1309 58.2666 58.5723 58.2666ZM72.9434 58V50.4971L66.4941 39.6807H69.6553L74.3272 47.7676H74.416L79.0879 39.6807H82.249L75.7871 50.4971V58H72.9434ZM87.124 58.2666C83.29 58.2666 80.7891 55.6133 80.7891 51.3223V51.2969C80.7891 47.0312 83.3154 44.3906 87.1113 44.3906C90.9199 44.3906 93.459 47.0186 93.459 51.2969V51.3223C93.459 55.626 90.9453 58.2666 87.124 58.2666ZM87.1367 55.9687C89.2822 55.9687 90.6533 54.2676 90.6533 51.3223V51.2969C90.6533 48.377 89.2568 46.6885 87.1113 46.6885C85.0039 46.6885 83.5947 48.377 83.5947 51.2969V51.3223C83.5947 54.2803 84.9912 55.9687 87.1367 55.9687ZM100.124 58.2666C97.1914 58.2666 95.5156 56.375 95.5156 53.3027V44.6445H98.2578V52.7695C98.2578 54.7881 99.1973 55.9053 101.102 55.9053C103.031 55.9053 104.275 54.5215 104.275 52.4395V44.6445H107.03V58H104.275V55.9941H104.212C103.514 57.3398 102.155 58.2666 100.124 58.2666ZM109.747 58V44.6445H112.489V46.9297H112.553C112.984 45.3682 114.102 44.3906 115.625 44.3906C116.019 44.3906 116.361 44.4541 116.577 44.4922V47.0439C116.361 46.9551 115.879 46.8916 115.346 46.8916C113.581 46.8916 112.489 48.0469 112.489 50.04V58H109.747ZM123.89 58V39.6807H126.518L135.938 53.2266H136.014V39.6807H138.832V58H136.217L126.784 44.4287H126.708V58H123.89ZM146.437 58.2666C143.504 58.2666 141.828 56.375 141.828 53.3027V44.6445H144.57V52.7695C144.57 54.7881 145.51 55.9053 147.414 55.9053C149.344 55.9053 150.588 54.5215 150.588 52.4395V44.6445H153.343V58H150.588V55.9941H150.524C149.826 57.3398 148.468 58.2666 146.437 58.2666ZM160.744 58.2666C158.104 58.2666 156.834 57.1494 156.834 54.4834V46.8281H154.917V44.6445H156.834V41.166H159.64V44.6445H162.141V46.8281H159.64V54.3184C159.64 55.6768 160.249 56.083 161.404 56.083C161.696 56.083 161.938 56.0576 162.141 56.0322V58.1523C161.823 58.2031 161.303 58.2666 160.744 58.2666ZM164.413 58V44.6445H167.155V46.9297H167.219C167.65 45.3682 168.768 44.3906 170.291 44.3906C170.685 44.3906 171.027 44.4541 171.243 44.4922V47.0439C171.027 46.9551 170.545 46.8916 170.012 46.8916C168.247 46.8916 167.155 48.0469 167.155 50.04V58H164.413ZM174.43 42.5879C173.541 42.5879 172.83 41.877 172.83 41.0137C172.83 40.1377 173.541 39.4268 174.43 39.4268C175.331 39.4268 176.029 40.1377 176.029 41.0137C176.029 41.877 175.331 42.5879 174.43 42.5879ZM173.059 58V44.6445H175.801V58H173.059ZM183.316 58.2666C180.676 58.2666 179.406 57.1494 179.406 54.4834V46.8281H177.489V44.6445H179.406V41.166H182.212V44.6445H184.713V46.8281H182.212V54.3184C182.212 55.6768 182.821 56.083 183.977 56.083C184.269 56.083 184.51 56.0576 184.713 56.0322V58.1523C184.396 58.2031 183.875 58.2666 183.316 58.2666ZM188.471 42.5879C187.582 42.5879 186.871 41.877 186.871 41.0137C186.871 40.1377 187.582 39.4268 188.471 39.4268C189.372 39.4268 190.07 40.1377 190.07 41.0137C190.07 41.877 189.372 42.5879 188.471 42.5879ZM187.1 58V44.6445H189.842V58H187.1ZM198.411 58.2666C194.577 58.2666 192.076 55.6133 192.076 51.3223V51.2969C192.076 47.0312 194.603 44.3906 198.398 44.3906C202.207 44.3906 204.746 47.0186 204.746 51.2969V51.3223C204.746 55.626 202.232 58.2666 198.411 58.2666ZM198.424 55.9687C200.569 55.9687 201.94 54.2676 201.94 51.3223V51.2969C201.94 48.377 200.544 46.6885 198.398 46.6885C196.291 46.6885 194.882 48.377 194.882 51.2969V51.3223C194.882 54.2803 196.278 55.9687 198.424 55.9687ZM206.866 58V44.6445H209.608V46.6631H209.672C210.37 45.3047 211.741 44.3906 213.76 44.3906C216.692 44.3906 218.381 46.2822 218.381 49.3545V58H215.626V49.875C215.626 47.8691 214.687 46.7393 212.782 46.7393C210.853 46.7393 209.608 48.1357 209.608 50.2178V58H206.866ZM224.957 58.2412C222.291 58.2412 220.501 56.6035 220.501 54.2041V54.1787C220.501 51.8555 222.304 50.4336 225.465 50.2432L229.096 50.0273V49.0244C229.096 47.5518 228.144 46.6631 226.442 46.6631C224.855 46.6631 223.878 47.4121 223.649 48.4785L223.624 48.5928H221.034L221.047 48.4531C221.237 46.1553 223.23 44.3906 226.519 44.3906C229.781 44.3906 231.851 46.1172 231.851 48.7959V58H229.096V55.8926H229.045C228.271 57.3271 226.722 58.2412 224.957 58.2412ZM223.269 54.1406C223.269 55.3086 224.233 56.0449 225.706 56.0449C227.636 56.0449 229.096 54.7373 229.096 52.998V51.957L225.833 52.1602C224.183 52.2617 223.269 52.9854 223.269 54.1152V54.1406ZM234.618 58V39.6807H237.36V58H234.618ZM32.5723 100.305C27.3291 100.305 24.0283 96.6484 24.0283 90.7578V90.7451C24.0283 84.9687 27.3291 81.376 32.5342 81.376C36.8252 81.376 39.5166 83.8516 40.2783 87.1523L40.3291 87.3809H37.4092L37.3711 87.2412C36.5967 85.1211 34.9336 83.8896 32.5469 83.8896C29.043 83.8896 26.9229 86.4414 26.9229 90.7324V90.7451C26.9229 95.125 29.1064 97.791 32.5977 97.791C35.5684 97.791 37.625 95.9121 37.6631 93.1318V92.8271H32.8516V90.5039H40.4688V92.3828C40.4688 97.3467 37.5361 100.305 32.5723 100.305ZM48.6572 100.267C44.8232 100.267 42.3223 97.6133 42.3223 93.3223V93.2969C42.3223 89.0312 44.8486 86.3906 48.6445 86.3906C52.4531 86.3906 54.9922 89.0186 54.9922 93.2969V93.3223C54.9922 97.626 52.4785 100.267 48.6572 100.267ZM48.6699 97.9687C50.8154 97.9687 52.1865 96.2676 52.1865 93.3223V93.2969C52.1865 90.377 50.79 88.6885 48.6445 88.6885C46.5371 88.6885 45.1279 90.377 45.1279 93.2969V93.3223C45.1279 96.2803 46.5244 97.9687 48.6699 97.9687ZM61.0352 100.241C58.3691 100.241 56.5791 98.6035 56.5791 96.2041V96.1787C56.5791 93.8555 58.3818 92.4336 61.543 92.2432L65.1738 92.0273V91.0244C65.1738 89.5518 64.2217 88.6631 62.5205 88.6631C60.9336 88.6631 59.9561 89.4121 59.7275 90.4785L59.7022 90.5928H57.1123L57.125 90.4531C57.3154 88.1553 59.3086 86.3906 62.5967 86.3906C65.8594 86.3906 67.9287 88.1172 67.9287 90.7959V100H65.1738V97.8926H65.1231C64.3486 99.3271 62.7998 100.241 61.0352 100.241ZM59.3467 96.1406C59.3467 97.3086 60.3115 98.0449 61.7842 98.0449C63.7139 98.0449 65.1738 96.7373 65.1738 94.998V93.957L61.9111 94.1602C60.2607 94.2617 59.3467 94.9854 59.3467 96.1152V96.1406ZM70.6963 100V81.6807H73.4385V100H70.6963ZM81.2588 100.267C77.9199 100.267 75.9648 98.6162 75.6856 96.1787L75.6729 96.0645H78.3897L78.415 96.1914C78.6689 97.4229 79.583 98.1465 81.2715 98.1465C82.9219 98.1465 83.9121 97.4609 83.9121 96.3818V96.3691C83.9121 95.5059 83.4297 95.0107 81.9951 94.668L79.8115 94.1729C77.2725 93.5889 76.0156 92.3701 76.0156 90.4277V90.415C76.0156 88.0283 78.0977 86.3906 81.1699 86.3906C84.3311 86.3906 86.2354 88.1553 86.375 90.4277L86.3877 90.5801H83.8106L83.7979 90.4912C83.6328 89.3232 82.7188 88.5107 81.1699 88.5107C79.6973 88.5107 78.7705 89.209 78.7705 90.2754V90.2881C78.7705 91.1133 79.3164 91.6719 80.751 92.0146L82.9219 92.5098C85.6514 93.1445 86.6924 94.2236 86.6924 96.1406V96.1533C86.6924 98.5908 84.4072 100.267 81.2588 100.267Z" fill="#929292"/>
<path fill-rule="evenodd" clip-rule="evenodd" d="M352.089 218C351.491 218 351.006 218.485 351.006 219.083V410.585C351.006 411.183 351.491 411.668 352.089 411.668C352.687 411.668 353.172 411.183 353.172 410.585V219.083C353.172 218.485 352.687 218 352.089 218ZM342.511 231.845C342.511 231.247 342.996 230.762 343.594 230.762C344.192 230.762 344.677 231.247 344.677 231.845V410.349C344.677 410.948 344.192 411.432 343.594 411.432C342.996 411.432 342.511 410.948 342.511 410.349V231.845ZM335.359 242.027C334.761 242.027 334.276 242.512 334.276 243.11V410.35C334.276 410.948 334.761 411.433 335.359 411.433C335.957 411.433 336.442 410.948 336.442 410.35V243.11C336.442 242.512 335.957 242.027 335.359 242.027ZM309.583 246.576C309.583 245.978 310.068 245.493 310.666 245.493C311.264 245.493 311.749 245.978 311.749 246.576V410.349C311.749 410.947 311.264 411.432 310.666 411.432C310.068 411.432 309.583 410.947 309.583 410.349V246.576ZM302.435 251.125C301.837 251.125 301.352 251.61 301.352 252.208V410.349C301.352 410.947 301.837 411.432 302.435 411.432C303.033 411.432 303.518 410.947 303.518 410.349V252.208C303.518 251.61 303.033 251.125 302.435 251.125ZM293.121 257.408C293.121 256.81 293.606 256.325 294.204 256.325C294.802 256.325 295.287 256.81 295.287 257.408V410.35C295.287 410.948 294.802 411.433 294.204 411.433C293.606 411.433 293.121 410.948 293.121 410.35V257.408ZM285.969 266.723C285.371 266.723 284.886 267.208 284.886 267.806V410.349C284.886 410.947 285.371 411.432 285.969 411.432C286.567 411.432 287.052 410.947 287.052 410.349V267.806C287.052 267.208 286.567 266.723 285.969 266.723ZM276.655 274.738C276.655 274.14 277.14 273.655 277.738 273.655C278.336 273.655 278.821 274.14 278.821 274.738V410.349C278.821 410.947 278.336 411.432 277.738 411.432C277.14 411.432 276.655 410.947 276.655 410.349V274.738ZM269.507 277.988C268.909 277.988 268.424 278.473 268.424 279.071V410.349C268.424 410.948 268.909 411.432 269.507 411.432C270.105 411.432 270.59 410.948 270.59 410.349V279.071C270.59 278.473 270.105 277.988 269.507 277.988ZM260.189 282.104C260.189 281.506 260.674 281.021 261.272 281.021C261.87 281.021 262.355 281.506 262.355 282.104V410.35C262.355 410.948 261.87 411.433 261.272 411.433C260.674 411.433 260.189 410.948 260.189 410.35V282.104ZM253.041 284.053C252.443 284.053 251.958 284.538 251.958 285.136V410.349C251.958 410.947 252.443 411.432 253.041 411.432C253.639 411.432 254.124 410.947 254.124 410.349V285.136C254.124 284.538 253.639 284.053 253.041 284.053ZM243.727 287.303C243.727 286.705 244.212 286.22 244.81 286.22C245.408 286.22 245.893 286.705 245.893 287.303V410.349C245.893 410.948 245.408 411.432 244.81 411.432C244.212 411.432 243.727 410.948 243.727 410.349V287.303ZM236.579 294.019C235.981 294.019 235.496 294.503 235.496 295.102V410.35C235.496 410.948 235.981 411.433 236.579 411.433C237.177 411.433 237.662 410.948 237.662 410.35V295.102C237.662 294.503 237.177 294.019 236.579 294.019ZM227.265 297.268C227.265 296.669 227.75 296.184 228.348 296.184C228.946 296.184 229.431 296.669 229.431 297.268V410.349C229.431 410.947 228.946 411.432 228.348 411.432C227.75 411.432 227.265 410.947 227.265 410.349V297.268ZM220.113 298.351C219.515 298.351 219.03 298.836 219.03 299.434V410.349C219.03 410.947 219.515 411.432 220.113 411.432C220.711 411.432 221.196 410.947 221.196 410.349V299.434C221.196 298.836 220.711 298.351 220.113 298.351ZM210.799 300.734C210.799 300.135 211.284 299.651 211.882 299.651C212.48 299.651 212.965 300.136 212.965 300.734V410.349C212.965 410.947 212.48 411.432 211.882 411.432C211.284 411.432 210.799 410.947 210.799 410.349V300.734ZM203.651 301.384C203.053 301.384 202.568 301.869 202.568 302.467V410.349C202.568 410.948 203.053 411.433 203.651 411.433C204.249 411.433 204.734 410.948 204.734 410.349V302.467C204.734 301.869 204.249 301.384 203.651 301.384ZM194.333 304.633C194.333 304.035 194.818 303.55 195.416 303.55C196.014 303.55 196.499 304.035 196.499 304.633V410.35C196.499 410.948 196.014 411.433 195.416 411.433C194.818 411.433 194.333 410.948 194.333 410.349V304.633ZM187.185 304.85C186.587 304.85 186.102 305.335 186.102 305.933V410.349C186.102 410.948 186.587 411.433 187.185 411.433C187.783 411.433 188.268 410.948 188.268 410.349V305.933C188.268 305.335 187.783 304.85 187.185 304.85ZM177.871 309.832C177.871 309.234 178.356 308.749 178.954 308.749C179.552 308.749 180.037 309.234 180.037 309.832V410.349C180.037 410.947 179.552 411.432 178.954 411.432C178.356 411.432 177.871 410.947 177.871 410.349V309.832ZM170.723 310.049C170.125 310.049 169.64 310.534 169.64 311.132V410.349C169.64 410.947 170.125 411.432 170.723 411.432C171.321 411.432 171.806 410.947 171.806 410.349V311.132C171.806 310.534 171.321 310.049 170.723 310.049ZM161.409 314.598C161.409 314 161.894 313.515 162.492 313.515C163.09 313.515 163.575 314 163.575 314.598V410.349C163.575 410.947 163.09 411.432 162.492 411.432C161.894 411.432 161.409 410.947 161.409 410.349V314.598ZM154.257 317.848C153.659 317.848 153.174 318.333 153.174 318.931V410.349C153.174 410.948 153.659 411.433 154.257 411.433C154.855 411.433 155.34 410.948 155.34 410.349V318.931C155.34 318.333 154.855 317.848 154.257 317.848ZM144.943 327.596C144.943 326.998 145.428 326.513 146.026 326.513C146.624 326.513 147.109 326.998 147.109 327.596V410.349C147.109 410.947 146.624 411.432 146.026 411.432C145.428 411.432 144.943 410.947 144.943 410.349V327.596ZM137.795 340.377C137.197 340.377 136.712 340.862 136.712 341.461V410.349C136.712 410.948 137.197 411.433 137.795 411.433C138.393 411.433 138.878 410.948 138.878 410.349V341.461C138.878 340.862 138.393 340.377 137.795 340.377ZM128.477 344.927C128.477 344.329 128.962 343.844 129.56 343.844C130.158 343.844 130.643 344.329 130.643 344.927V410.349C130.643 410.948 130.158 411.433 129.56 411.433C128.962 411.433 128.477 410.948 128.477 410.349V344.927ZM121.329 349.043C120.731 349.043 120.246 349.527 120.246 350.126V410.349C120.246 410.947 120.731 411.432 121.329 411.432C121.927 411.432 122.412 410.947 122.412 410.349V350.126C122.412 349.527 121.927 349.043 121.329 349.043ZM112.015 354.025C112.015 353.427 112.5 352.942 113.098 352.942C113.696 352.942 114.181 353.427 114.181 354.025V410.35C114.181 410.948 113.696 411.433 113.098 411.433C112.5 411.433 112.015 410.948 112.015 410.35V354.025ZM104.867 356.408C104.269 356.408 103.784 356.893 103.784 357.491V410.349C103.784 410.947 104.269 411.432 104.867 411.432C105.465 411.432 105.95 410.947 105.95 410.349V357.491C105.95 356.893 105.465 356.408 104.867 356.408ZM95.553 360.957C95.553 360.359 96.038 359.874 96.6362 359.874C97.2344 359.874 97.7193 360.359 97.7193 360.957V410.349C97.7193 410.947 97.2344 411.432 96.6362 411.432C96.038 411.432 95.553 410.947 95.553 410.349V360.957ZM88.4011 363.774C87.8029 363.774 87.3179 364.259 87.3179 364.857V410.349C87.3179 410.948 87.8029 411.433 88.4011 411.433C88.9993 411.433 89.4842 410.948 89.4842 410.349V364.857C89.4842 364.259 88.9993 363.774 88.4011 363.774ZM79.087 367.456C79.087 366.858 79.5719 366.373 80.1701 366.373C80.7683 366.373 81.2533 366.858 81.2533 367.456V410.349C81.2533 410.948 80.7683 411.433 80.1701 411.433C79.5719 411.433 79.087 410.948 79.087 410.349V367.456ZM71.9391 368.106C71.3409 368.106 70.856 368.591 70.856 369.189V410.349C70.856 410.947 71.3409 411.432 71.9391 411.432C72.5374 411.432 73.0223 410.947 73.0223 410.349V369.189C73.0223 368.591 72.5374 368.106 71.9391 368.106ZM55.4731 370.706C54.8749 370.706 54.3899 371.191 54.3899 371.789V410.35C54.3899 410.948 54.8749 411.433 55.4731 411.433C56.0713 411.433 56.5563 410.948 56.5563 410.35V371.789C56.5563 371.191 56.0713 370.706 55.4731 370.706ZM46.159 382.187C46.159 381.589 46.6439 381.104 47.2421 381.104C47.8403 381.104 48.3253 381.589 48.3253 382.187V410.349C48.3253 410.947 47.8403 411.432 47.2421 411.432C46.6439 411.432 46.159 410.947 46.159 410.349V382.187ZM39.0112 383.27C38.4129 383.27 37.928 383.755 37.928 384.353V410.349C37.928 410.947 38.4129 411.432 39.0112 411.432C39.6094 411.432 40.0943 410.947 40.0943 410.349V384.353C40.0943 383.755 39.6094 383.27 39.0112 383.27ZM22.5451 385.87C21.9469 385.87 21.4619 386.355 21.4619 386.953V410.349C21.4619 410.947 21.9469 411.432 22.5451 411.432C23.1433 411.432 23.6283 410.947 23.6283 410.349V386.953C23.6283 386.355 23.1433 385.87 22.5451 385.87ZM13.231 393.885C13.231 393.287 13.7159 392.802 14.3141 392.802C14.9123 392.802 15.3973 393.287 15.3973 393.885V410.349C15.3973 410.947 14.9123 411.432 14.3141 411.432C13.7159 411.432 13.231 410.947 13.231 410.349V393.885ZM5 402.551C5 401.953 5.48495 401.468 6.08316 401.468C6.68137 401.468 7.16631 401.953 7.16631 402.551V410.35C7.16631 410.948 6.68137 411.433 6.08316 411.433C5.48495 411.433 5 410.948 5 410.35V402.551ZM29.697 386.953C29.697 386.355 30.182 385.87 30.7802 385.87C31.3784 385.87 31.8633 386.355 31.8633 386.953V410.349C31.8633 410.947 31.3784 411.432 30.7802 411.432C30.182 411.432 29.697 410.947 29.697 410.349V386.953ZM62.6209 371.789C62.6209 371.191 63.1059 370.706 63.7041 370.706C64.3023 370.706 64.7872 371.191 64.7872 371.789V410.35C64.7872 410.948 64.3023 411.433 63.7041 411.433C63.1059 411.433 62.6209 410.948 62.6209 410.35V371.789ZM318.897 245.493C318.299 245.493 317.814 245.978 317.814 246.576V410.349C317.814 410.947 318.299 411.432 318.897 411.432C319.495 411.432 319.98 410.947 319.98 410.349V246.576C319.98 245.978 319.495 245.493 318.897 245.493ZM326.045 246.576C326.045 245.978 326.53 245.493 327.128 245.493C327.726 245.493 328.211 245.978 328.211 246.576V410.349C328.211 410.947 327.726 411.432 327.128 411.432C326.53 411.432 326.045 410.947 326.045 410.349V246.576Z" fill="url(#paint1_linear_5732_5713)" fill-opacity="0.3" style="mix-blend-mode:plus-lighter"/>
<g clip-path="url(#clip1_5732_5713)">
<path d="M24.165 258.821C23.9337 259.054 23.9347 259.43 24.1672 259.661C24.3996 259.892 24.7756 259.891 25.0069 259.659L24.165 258.821ZM32.0513 250.651L32.2108 250.079L32.0513 250.651ZM33.9408 251.178L34.1003 250.606V250.606L33.9408 251.178ZM34.7563 251.719L34.295 252.093V252.093L34.7563 251.719ZM39.3094 258.755L38.769 259.001V259.001L39.3094 258.755ZM29.845 251.809L29.4083 251.407V251.407L29.845 251.809ZM31.6165 254.335L31.5198 253.749H31.5198L31.6165 254.335ZM33.876 255.379L34.347 255.017L34.347 255.017L33.876 255.379ZM34.6501 258.211L34.06 258.276V258.276L34.6501 258.211ZM35.2446 259.743L34.9113 260.234C35.1608 260.403 35.4976 260.359 35.6944 260.13C35.8913 259.902 35.8856 259.562 35.6813 259.34L35.2446 259.743ZM29.0394 260.265C28.8361 260.522 28.88 260.895 29.1374 261.099C29.3947 261.302 29.7681 261.258 29.9713 261.001L29.0394 260.265ZM29.0249 253.249L28.44 253.351L29.0249 253.249ZM40.2437 262.937L40.7951 263.157V263.157L40.2437 262.937ZM36.8855 265.028L37.0712 265.592L36.8855 265.028ZM32.8676 254.245L33.0936 253.696L33.0936 253.696L32.8676 254.245ZM31.0811 265.15L31.5074 265.563L31.5074 265.563L31.0811 265.15ZM25.0226 264.68C24.8004 264.439 24.4248 264.423 24.1836 264.646C23.9425 264.868 23.9271 265.243 24.1492 265.485L25.0226 264.68ZM31.2198 264.956L31.436 264.403C31.165 264.297 30.8571 264.403 30.7088 264.654L31.2198 264.956ZM31.1926 265.002L30.6817 264.7L30.6817 264.7L31.1926 265.002ZM31.5371 259.156L31.7186 259.722L31.5371 259.156ZM31.8917 251.223L33.7812 251.75L34.1003 250.606L32.2108 250.079L31.8917 251.223ZM34.295 252.093C36.3424 254.619 37.6542 256.551 38.769 259.001L39.8499 258.509C38.6781 255.934 37.3003 253.915 35.2175 251.345L34.295 252.093ZM34.06 258.276C34.1279 258.89 34.3265 259.622 34.808 260.145L35.6813 259.34C35.4491 259.088 35.2964 258.653 35.2403 258.145L34.06 258.276ZM33.4051 255.741C33.5605 255.943 33.6685 256.084 33.7442 256.189C33.8284 256.306 33.837 256.331 33.8301 256.314L34.9337 255.876C34.8799 255.74 34.7884 255.607 34.708 255.495C34.6189 255.372 34.4975 255.213 34.347 255.017L33.4051 255.741ZM35.2403 258.145C35.1667 257.481 35.111 256.978 35.0677 256.626C35.0461 256.45 35.0268 256.306 35.0094 256.195C34.996 256.111 34.9744 255.978 34.9337 255.876L33.8301 256.314C33.813 256.271 33.8182 256.266 33.8365 256.381C33.8507 256.471 33.8679 256.598 33.889 256.77C33.9312 257.114 33.9861 257.609 34.06 258.276L35.2403 258.145ZM29.4083 251.407C29.1231 251.717 28.8536 252.006 28.6782 252.282C28.4814 252.592 28.368 252.938 28.44 253.351L29.6099 253.147C29.6013 253.098 29.5977 253.05 29.6809 252.918C29.7856 252.753 29.9664 252.554 30.2816 252.212L29.4083 251.407ZM38.769 259.001C39.2395 260.034 39.5608 260.745 39.7197 261.336C39.8697 261.895 39.86 262.296 39.6922 262.717L40.7951 263.157C41.0801 262.443 41.0656 261.769 40.8665 261.028C40.6763 260.32 40.3041 259.507 39.8499 258.509L38.769 259.001ZM37.0712 265.592C38.0183 265.281 38.8083 265.023 39.4101 264.688C40.0503 264.331 40.5103 263.871 40.7951 263.157L39.6922 262.717C39.5242 263.138 39.2736 263.405 38.8322 263.651C38.3523 263.918 37.6897 264.139 36.6999 264.465L37.0712 265.592ZM31.7133 254.921C32.0724 254.862 32.3098 254.823 32.4837 254.807C32.672 254.789 32.684 254.811 32.6415 254.794L33.0936 253.696C32.8499 253.595 32.5863 253.605 32.3743 253.624C32.148 253.645 31.8606 253.693 31.5198 253.749L31.7133 254.921ZM30.6549 264.737C29.9584 265.455 28.9068 265.833 27.8237 265.823C26.7407 265.813 25.7003 265.416 25.0226 264.68L24.1492 265.485C25.0903 266.506 26.4676 266.998 27.8126 267.011C29.1575 267.023 30.5441 266.557 31.5074 265.563L30.6549 264.737ZM36.6999 264.465C34.8539 265.072 33.2893 265.128 31.436 264.403L31.0036 265.509C33.1543 266.35 35.007 266.272 37.0712 265.592L36.6999 264.465ZM31.7035 265.305L31.7307 265.259L30.7088 264.654L30.6817 264.7L31.7035 265.305ZM31.5074 265.563C31.588 265.48 31.6522 265.391 31.7035 265.305L30.6817 264.7C30.6699 264.72 30.6604 264.731 30.6549 264.737L31.5074 265.563ZM35.578 259.251C34.742 258.684 33.0749 258.039 31.3557 258.591L31.7186 259.722C32.9746 259.319 34.2604 259.792 34.9113 260.234L35.578 259.251ZM31.3557 258.591C30.5371 258.854 29.7378 259.38 29.0394 260.265L29.9713 261.001C30.5321 260.29 31.1375 259.908 31.7186 259.722L31.3557 258.591ZM31.9445 258.725C30.916 257.754 29.4503 257.305 28.0347 257.32C26.6193 257.336 25.1649 257.816 24.165 258.821L25.0069 259.659C25.738 258.924 26.8665 258.521 28.0474 258.508C29.2283 258.495 30.3726 258.874 31.1297 259.588L31.9445 258.725ZM32.6415 254.794C32.7031 254.819 32.8045 254.9 32.9552 255.099C33.0254 255.192 33.0933 255.293 33.1685 255.404C33.2397 255.51 33.3215 255.632 33.4051 255.741L34.347 255.017C34.29 254.943 34.2297 254.854 34.1532 254.741C34.0808 254.633 33.9954 254.506 33.9028 254.384C33.7279 254.152 33.4656 253.849 33.0936 253.696L32.6415 254.794ZM33.7812 251.75C33.9072 251.785 33.978 251.805 34.0299 251.823C34.0531 251.831 34.0659 251.837 34.0725 251.84C34.0757 251.842 34.0775 251.842 34.0782 251.843C34.0785 251.843 34.0787 251.843 34.0788 251.843C34.0788 251.843 34.0788 251.843 34.0789 251.843C34.0789 251.843 34.0789 251.843 34.0789 251.843C34.0789 251.843 34.0789 251.843 34.0789 251.843C34.0789 251.843 34.079 251.843 34.0791 251.843C34.0792 251.844 34.0795 251.844 34.08 251.844C34.081 251.845 34.0829 251.846 34.086 251.849C34.0926 251.855 34.1037 251.866 34.1216 251.885C34.1611 251.929 34.2103 251.989 34.295 252.093L35.2175 251.345C35.0773 251.172 34.932 250.984 34.7362 250.854C34.5374 250.722 34.3088 250.664 34.1003 250.606L33.7812 251.75ZM32.2108 250.079C31.4914 249.878 30.9196 250.037 30.4496 250.369C30.0443 250.656 29.6842 251.107 29.4083 251.407L30.2816 252.212C30.656 251.805 30.8665 251.529 31.1355 251.339C31.3397 251.194 31.5459 251.126 31.8917 251.223L32.2108 250.079ZM28.44 253.351C28.5857 254.186 29.3337 254.593 29.9185 254.775C30.5344 254.967 31.2329 255 31.7133 254.921L31.5198 253.749C31.2266 253.798 30.715 253.779 30.2712 253.641C29.7964 253.494 29.6354 253.293 29.6099 253.147L28.44 253.351Z" fill="#F5C563"/>
</g>
<path d="M47.9092 263V253.136H51.8467C53.5967 253.136 54.7451 254.113 54.7451 255.604V255.617C54.7451 256.656 53.959 257.62 52.9199 257.771V257.798C54.3213 257.941 55.2305 258.905 55.2305 260.204V260.218C55.2305 261.947 53.9658 263 51.8672 263H47.9092ZM51.4775 254.387H49.4404V257.34H51.1357C52.4893 257.34 53.2207 256.793 53.2207 255.802V255.788C53.2207 254.886 52.585 254.387 51.4775 254.387ZM51.4502 258.522H49.4404V261.749H51.5527C52.9268 261.749 53.665 261.195 53.665 260.143V260.129C53.665 259.069 52.9131 258.522 51.4502 258.522ZM59.4619 263.144C57.3975 263.144 56.0508 261.715 56.0508 259.404V259.391C56.0508 257.094 57.4111 255.672 59.4551 255.672C61.5059 255.672 62.873 257.087 62.873 259.391V259.404C62.873 261.722 61.5195 263.144 59.4619 263.144ZM59.4688 261.906C60.624 261.906 61.3623 260.99 61.3623 259.404V259.391C61.3623 257.818 60.6104 256.909 59.4551 256.909C58.3203 256.909 57.5615 257.818 57.5615 259.391V259.404C57.5615 260.997 58.3135 261.906 59.4688 261.906ZM66.7012 263.144C64.8691 263.144 63.6934 261.694 63.6934 259.404V259.397C63.6934 257.107 64.8828 255.672 66.6875 255.672C67.7061 255.672 68.5264 256.185 68.957 257.032H68.9844V253.136H70.4678V263H68.9844V261.783H68.957C68.5264 262.624 67.7334 263.144 66.7012 263.144ZM67.0908 261.872C68.2051 261.872 68.9912 260.901 68.9912 259.404V259.397C68.9912 257.907 68.1982 256.937 67.0908 256.937C65.9287 256.937 65.2041 257.88 65.2041 259.397V259.404C65.2041 260.936 65.9219 261.872 67.0908 261.872ZM72.833 265.399C72.5459 265.399 72.2383 265.365 72.0605 265.331V264.176C72.1768 264.203 72.3477 264.23 72.5459 264.23C73.2432 264.23 73.626 264.046 73.8721 263.349L73.9951 263.007L71.377 255.809H72.9766L74.7881 261.66H74.8359L76.6475 255.809H78.2061L75.5264 263.335C74.9932 264.825 74.2412 265.399 72.833 265.399ZM82.0889 263V253.136H83.8594L87.0518 261.011H87.0928L90.292 253.136H92.0557V263H90.6611V255.72H90.6133L87.6396 263H86.5049L83.5312 255.72H83.4834V263H82.0889ZM96.1436 263.144C94.5645 263.144 93.6621 262.125 93.6621 260.471V255.809H95.1387V260.184C95.1387 261.271 95.6445 261.872 96.6699 261.872C97.709 261.872 98.3789 261.127 98.3789 260.006V255.809H99.8623V263H98.3789V261.92H98.3447C97.9688 262.645 97.2373 263.144 96.1436 263.144ZM104.019 263.144C102.221 263.144 101.168 262.255 101.018 260.942L101.011 260.881H102.474L102.487 260.949C102.624 261.612 103.116 262.002 104.025 262.002C104.914 262.002 105.447 261.633 105.447 261.052V261.045C105.447 260.58 105.188 260.313 104.415 260.129L103.239 259.862C101.872 259.548 101.195 258.892 101.195 257.846V257.839C101.195 256.554 102.316 255.672 103.971 255.672C105.673 255.672 106.698 256.622 106.773 257.846L106.78 257.928H105.393L105.386 257.88C105.297 257.251 104.805 256.813 103.971 256.813C103.178 256.813 102.679 257.189 102.679 257.764V257.771C102.679 258.215 102.973 258.516 103.745 258.7L104.914 258.967C106.384 259.309 106.944 259.89 106.944 260.922V260.929C106.944 262.241 105.714 263.144 104.019 263.144ZM111.183 263.144C109.084 263.144 107.771 261.701 107.771 259.397V259.391C107.771 257.114 109.111 255.672 111.162 255.672C113.015 255.672 114.136 256.861 114.259 258.215L114.266 258.263H112.857L112.844 258.208C112.687 257.504 112.14 256.909 111.176 256.909C110.027 256.909 109.282 257.866 109.282 259.404V259.411C109.282 260.983 110.041 261.906 111.183 261.906C112.092 261.906 112.673 261.38 112.851 260.601L112.857 260.546H114.279L114.272 260.594C114.115 262.036 112.912 263.144 111.183 263.144ZM115.38 263V253.136H116.856V263H115.38ZM121.443 263.144C119.331 263.144 118.053 261.701 118.053 259.432V259.425C118.053 257.176 119.352 255.672 121.368 255.672C123.385 255.672 124.622 257.121 124.622 259.281V259.78H119.529C119.557 261.141 120.302 261.934 121.478 261.934C122.353 261.934 122.934 261.482 123.118 260.942L123.139 260.888H124.54L124.526 260.963C124.294 262.104 123.187 263.144 121.443 263.144ZM121.375 256.882C120.418 256.882 119.68 257.531 119.55 258.734H123.159C123.036 257.49 122.339 256.882 121.375 256.882Z" fill="#F8F8F8"/>
<rect x="23" y="272" width="119" height="18.5857" rx="9.29283" fill="#1F1F1F"/>
<path d="M38.9116 276.364L34.4959 281.473C34.3611 281.724 34.5892 282.016 34.8654 281.945L36.5848 281.506L37.5166 284.463C37.9412 285.809 39.8464 285.809 40.2706 284.463L41.2028 281.506L42.9607 281.948C43.2366 282.018 43.4639 281.726 43.3291 281.476L38.9116 276.364Z" fill="#5ECC7B"/>
<path d="M48.8598 284.918C47.7626 284.918 47.0171 284.492 46.6467 283.816C46.5541 283.645 46.5125 283.483 46.5125 283.316C46.5125 283.038 46.6884 282.858 46.9801 282.858C47.2023 282.858 47.332 282.96 47.4385 283.2C47.6653 283.733 48.1005 284.052 48.8645 284.052C49.6747 284.052 50.221 283.589 50.2257 282.941C50.2303 282.177 49.6793 281.751 48.7858 281.751H48.3413C48.0774 281.751 47.9107 281.589 47.9107 281.348C47.9107 281.108 48.0774 280.946 48.3413 280.946H48.758C49.5219 280.946 50.0405 280.492 50.0405 279.871C50.0405 279.251 49.6423 278.839 48.8506 278.839C48.1746 278.839 47.795 279.121 47.5635 279.677C47.4523 279.945 47.3412 280.043 47.0958 280.043C46.8042 280.043 46.6467 279.876 46.6467 279.598C46.6467 279.418 46.6838 279.265 46.7717 279.094C47.1051 278.431 47.832 277.987 48.8506 277.987C50.2118 277.987 51.0498 278.732 51.0498 279.728C51.0498 280.561 50.4618 281.126 49.6423 281.297V281.321C50.6238 281.408 51.2813 282.006 51.2813 282.941C51.2813 284.117 50.2534 284.918 48.8598 284.918ZM55.4251 284.881C55.226 284.881 55.0593 284.756 55.0593 284.561C55.0593 284.46 55.0917 284.381 55.1473 284.302L57.2539 281.26L59.3235 278.251C59.4438 278.075 59.5318 278.024 59.6939 278.024C59.8837 278.024 60.0411 278.158 60.0411 278.343C60.0411 278.436 60.0179 278.515 59.9578 278.598L57.916 281.557L55.7816 284.659C55.6658 284.825 55.5779 284.881 55.4251 284.881ZM55.3371 281.492C54.4806 281.492 53.9574 280.834 53.9574 279.756C53.9574 278.681 54.4898 278.033 55.3371 278.033C56.189 278.033 56.7168 278.681 56.7168 279.756C56.7168 280.83 56.1936 281.492 55.3371 281.492ZM55.3371 280.89C55.7168 280.89 55.939 280.496 55.939 279.756C55.939 279.019 55.7121 278.64 55.3371 278.64C54.9621 278.64 54.7352 279.024 54.7352 279.76C54.7352 280.496 54.9574 280.89 55.3371 280.89ZM59.7679 284.872C58.916 284.872 58.3882 284.21 58.3882 283.135C58.3882 282.061 58.9207 281.413 59.7679 281.413C60.6198 281.413 61.1476 282.057 61.1476 283.135C61.1476 284.205 60.6245 284.872 59.7679 284.872ZM59.7679 284.265C60.1476 284.265 60.3744 283.876 60.3744 283.135C60.3744 282.399 60.1476 282.015 59.7679 282.015C59.3929 282.015 59.166 282.399 59.166 283.135C59.166 283.876 59.3929 284.265 59.7679 284.265ZM65.6433 284.886C64.6849 284.886 63.9812 284.492 63.7497 283.895C63.7172 283.821 63.708 283.751 63.708 283.686C63.708 283.436 63.8886 283.288 64.1386 283.288C64.3052 283.288 64.4488 283.367 64.5738 283.552C64.8238 283.946 65.1155 284.122 65.6942 284.122C66.2637 284.122 66.648 283.876 66.648 283.473C66.648 283.154 66.4582 282.983 65.935 282.858L65.1664 282.677C64.2219 282.455 63.7589 281.992 63.7589 281.297C63.7589 280.418 64.5229 279.834 65.6803 279.834C66.56 279.834 67.2823 280.283 67.4212 280.858C67.4304 280.913 67.4397 280.959 67.4397 281.006C67.4397 281.228 67.3008 281.376 67.0508 281.376C66.8887 281.376 66.7452 281.321 66.648 281.163C66.4304 280.793 66.1341 280.598 65.6433 280.598C65.1062 280.598 64.7358 280.862 64.7358 281.242C64.7358 281.547 64.972 281.76 65.4859 281.881L66.2406 282.057C67.2638 282.293 67.6573 282.659 67.6573 283.381C67.6573 284.284 66.8471 284.886 65.6433 284.886ZM68.9629 279.186C68.6435 279.186 68.3842 278.927 68.3842 278.612C68.3842 278.293 68.6435 278.043 68.9629 278.043C69.287 278.043 69.5463 278.293 69.5463 278.612C69.5463 278.927 69.287 279.186 68.9629 279.186ZM68.9629 284.881C68.662 284.881 68.4629 284.673 68.4629 284.353V280.367C68.4629 280.043 68.662 279.834 68.9629 279.834C69.2639 279.834 69.463 280.043 69.463 280.367V284.353C69.463 284.673 69.2639 284.881 68.9629 284.881ZM70.9862 284.881C70.6899 284.881 70.4862 284.682 70.4862 284.353V280.339C70.4862 280.033 70.6714 279.834 70.9631 279.834C71.2501 279.834 71.4492 280.033 71.4492 280.344V280.728H71.4724C71.7363 280.172 72.2456 279.839 72.9956 279.839C74.0697 279.839 74.6855 280.524 74.6855 281.64V284.353C74.6855 284.682 74.4772 284.881 74.1809 284.881C73.8892 284.881 73.6808 284.682 73.6808 284.353V281.834C73.6808 281.103 73.3382 280.7 72.6437 280.7C71.94 280.7 71.4863 281.2 71.4863 281.955V284.353C71.4863 284.682 71.2779 284.881 70.9862 284.881ZM77.7366 284.886C76.343 284.886 75.4356 283.918 75.4356 282.367C75.4356 280.825 76.3384 279.834 77.7274 279.834C78.6673 279.834 79.4729 280.334 79.6858 281.015C79.7136 281.094 79.7321 281.177 79.7321 281.246C79.7321 281.501 79.5516 281.659 79.3062 281.659C79.0932 281.659 78.9728 281.575 78.8525 281.353C78.6024 280.89 78.2598 280.668 77.7459 280.668C76.9634 280.668 76.4542 281.321 76.4542 282.358C76.4542 283.418 76.9727 284.048 77.7459 284.048C78.2876 284.048 78.6163 283.807 78.8525 283.385C78.9913 283.145 79.0978 283.061 79.3154 283.061C79.5608 283.061 79.7414 283.228 79.7414 283.478C79.7414 283.557 79.7229 283.64 79.6858 283.737C79.4312 284.409 78.6395 284.886 77.7366 284.886ZM82.6629 284.886C81.1952 284.886 80.334 283.955 80.334 282.381C80.334 280.834 81.2137 279.834 82.5934 279.834C83.8898 279.834 84.7834 280.77 84.7834 282.098C84.7834 282.422 84.5982 282.608 84.288 282.608H81.3433V282.631C81.3433 283.52 81.8434 284.075 82.6397 284.075C83.1861 284.075 83.5287 283.886 83.8991 283.381C84.0055 283.256 84.1074 283.205 84.2509 283.205C84.4917 283.205 84.6676 283.362 84.6676 283.612C84.6676 283.691 84.6398 283.784 84.5982 283.881C84.2787 284.52 83.5703 284.886 82.6629 284.886ZM81.348 281.909H83.7833C83.7602 281.145 83.2833 280.64 82.5888 280.64C81.8989 280.64 81.3989 281.149 81.348 281.909ZM88.0243 284.881C87.7326 284.881 87.5243 284.682 87.5243 284.353V278.552C87.5243 278.223 87.7326 278.024 88.0243 278.024C88.316 278.024 88.5243 278.223 88.5243 278.552V284.353C88.5243 284.682 88.316 284.881 88.0243 284.881ZM90.9782 284.876C90.0244 284.876 89.3531 284.284 89.3531 283.409C89.3531 282.557 90.0106 282.034 91.1634 281.969L92.5014 281.89V281.515C92.5014 280.973 92.1357 280.649 91.5245 280.649C91.043 280.649 90.7236 280.82 90.4458 281.265C90.3439 281.413 90.2143 281.478 90.0383 281.478C89.7883 281.478 89.6077 281.311 89.6077 281.061C89.6077 280.959 89.6355 280.848 89.6957 280.737C89.9504 280.186 90.6865 279.834 91.5616 279.834C92.7422 279.834 93.4969 280.459 93.4969 281.436V284.376C93.4969 284.691 93.2978 284.881 93.0154 284.881C92.7376 284.881 92.5477 284.7 92.5385 284.404V283.992H92.5153C92.2329 284.534 91.6125 284.876 90.9782 284.876ZM91.2514 284.085C91.9505 284.085 92.5014 283.603 92.5014 282.969V282.584L91.2977 282.659C90.7004 282.7 90.3624 282.964 90.3624 283.381C90.3624 283.807 90.7189 284.085 91.2514 284.085ZM96.2656 284.886C95.3072 284.886 94.6034 284.492 94.3719 283.895C94.3395 283.821 94.3303 283.751 94.3303 283.686C94.3303 283.436 94.5108 283.288 94.7608 283.288C94.9275 283.288 95.0711 283.367 95.1961 283.552C95.4461 283.946 95.7378 284.122 96.3165 284.122C96.886 284.122 97.2703 283.876 97.2703 283.473C97.2703 283.154 97.0804 282.983 96.5573 282.858L95.7887 282.677C94.8442 282.455 94.3812 281.992 94.3812 281.297C94.3812 280.418 95.1451 279.834 96.3026 279.834C97.1823 279.834 97.9046 280.283 98.0435 280.858C98.0527 280.913 98.062 280.959 98.062 281.006C98.062 281.228 97.9231 281.376 97.6731 281.376C97.511 281.376 97.3675 281.321 97.2703 281.163C97.0527 280.793 96.7563 280.598 96.2656 280.598C95.7285 280.598 95.3581 280.862 95.3581 281.242C95.3581 281.547 95.5942 281.76 96.1082 281.881L96.8628 282.057C97.886 282.293 98.2796 282.659 98.2796 283.381C98.2796 284.284 97.4694 284.886 96.2656 284.886ZM99.3445 283.626V280.714H98.9926C98.7333 280.714 98.5759 280.566 98.5759 280.32C98.5759 280.07 98.7333 279.922 98.9926 279.922H99.3445V279.2C99.3445 278.881 99.5436 278.668 99.8491 278.668C100.15 278.668 100.349 278.881 100.349 279.2V279.922H100.919C101.178 279.922 101.335 280.075 101.335 280.32C101.335 280.566 101.178 280.714 100.919 280.714H100.349V283.404C100.349 283.793 100.483 283.969 100.845 283.997L100.923 284.001C101.21 284.029 101.354 284.145 101.354 284.381C101.354 284.682 101.122 284.835 100.632 284.835H100.581C99.7612 284.835 99.3445 284.432 99.3445 283.626ZM104.525 284.881C104.224 284.881 104.025 284.673 104.025 284.353V280.344C104.025 280.029 104.22 279.834 104.502 279.834C104.78 279.834 104.979 280.024 104.979 280.344V280.742H105.002C105.22 280.2 105.729 279.839 106.387 279.839C107.063 279.839 107.553 280.186 107.748 280.793H107.771C108.021 280.2 108.595 279.839 109.29 279.839C110.253 279.839 110.882 280.478 110.882 281.446V284.353C110.882 284.673 110.679 284.881 110.378 284.881C110.077 284.881 109.878 284.673 109.878 284.353V281.686C109.878 281.057 109.54 280.695 108.947 280.695C108.354 280.695 107.942 281.135 107.942 281.751V284.353C107.942 284.673 107.752 284.881 107.451 284.881C107.151 284.881 106.961 284.673 106.961 284.353V281.612C106.961 281.052 106.604 280.695 106.039 280.695C105.447 280.695 105.025 281.158 105.025 281.784V284.353C105.025 284.673 104.826 284.881 104.525 284.881ZM113.943 284.886C112.549 284.886 111.632 283.927 111.632 282.358C111.632 280.793 112.554 279.834 113.943 279.834C115.332 279.834 116.253 280.793 116.253 282.358C116.253 283.927 115.336 284.886 113.943 284.886ZM113.943 284.061C114.73 284.061 115.234 283.441 115.234 282.358C115.234 281.279 114.725 280.658 113.943 280.658C113.16 280.658 112.651 281.279 112.651 282.358C112.651 283.441 113.16 284.061 113.943 284.061ZM117.526 284.881C117.23 284.881 117.026 284.682 117.026 284.353V280.339C117.026 280.033 117.211 279.834 117.503 279.834C117.79 279.834 117.989 280.033 117.989 280.344V280.728H118.012C118.276 280.172 118.785 279.839 119.536 279.839C120.61 279.839 121.225 280.524 121.225 281.64V284.353C121.225 284.682 121.017 284.881 120.721 284.881C120.429 284.881 120.221 284.682 120.221 284.353V281.834C120.221 281.103 119.878 280.7 119.184 280.7C118.48 280.7 118.026 281.2 118.026 281.955V284.353C118.026 284.682 117.818 284.881 117.526 284.881ZM122.485 283.626V280.714H122.133C121.874 280.714 121.716 280.566 121.716 280.32C121.716 280.07 121.874 279.922 122.133 279.922H122.485V279.2C122.485 278.881 122.684 278.668 122.989 278.668C123.29 278.668 123.489 278.881 123.489 279.2V279.922H124.059C124.318 279.922 124.476 280.075 124.476 280.32C124.476 280.566 124.318 280.714 124.059 280.714H123.489V283.404C123.489 283.793 123.624 283.969 123.985 283.997L124.064 284.001C124.351 284.029 124.494 284.145 124.494 284.381C124.494 284.682 124.263 284.835 123.772 284.835H123.721C122.901 284.835 122.485 284.432 122.485 283.626ZM125.777 284.881C125.485 284.881 125.277 284.682 125.277 284.353V278.543C125.277 278.228 125.466 278.024 125.772 278.024C126.082 278.024 126.267 278.228 126.267 278.543V280.737H126.291C126.559 280.168 127.092 279.839 127.832 279.839C128.902 279.839 129.541 280.552 129.541 281.654V284.353C129.541 284.682 129.332 284.881 129.036 284.881C128.744 284.881 128.536 284.682 128.536 284.353V281.848C128.536 281.131 128.175 280.7 127.471 280.7C126.73 280.7 126.277 281.209 126.277 281.978V284.353C126.277 284.682 126.068 284.881 125.777 284.881Z" fill="#5ECC7B"/>
</g>
<defs>
<filter id="filter0_f_5732_5713" x="-90.4653" y="123.661" width="538.438" height="538.443" filterUnits="userSpaceOnUse" color-interpolation-filters="sRGB">
<feFlood flood-opacity="0" result="BackgroundImageFix"/>
<feBlend mode="normal" in="SourceGraphic" in2="BackgroundImageFix" result="shape"/>
<feGaussianBlur stdDeviation="44.76" result="effect1_foregroundBlur_5732_5713"/>
</filter>
<linearGradient id="paint0_linear_5732_5713" x1="282.503" y1="213.229" x2="160.338" y2="583.315" gradientUnits="userSpaceOnUse">
<stop stop-color="#5ECC7B"/>
<stop offset="1" stop-color="#DDF988" stop-opacity="0.26"/>
</linearGradient>
<linearGradient id="paint1_linear_5732_5713" x1="179.086" y1="285" x2="179.086" y2="411.668" gradientUnits="userSpaceOnUse">
<stop stop-color="#EAEAEA" stop-opacity="0.86"/>
<stop offset="1" stop-color="white" stop-opacity="0"/>
</linearGradient>
<clipPath id="clip0_5732_5713">
<path d="M0 24C0 12.6863 0 7.02944 3.51472 3.51472C7.02944 0 12.6863 0 24 0H334C345.314 0 350.971 0 354.485 3.51472C358 7.02944 358 12.6863 358 24V382C358 393.314 358 398.971 354.485 402.485C350.971 406 345.314 406 334 406H24C12.6863 406 7.02944 406 3.51472 402.485C0 398.971 0 393.314 0 382V24Z" fill="white"/>
</clipPath>
<clipPath id="clip1_5732_5713">
<rect width="19" height="19" fill="white" transform="translate(23 249)"/>
</clipPath>
</defs>
</svg>
