<svg width="358" height="406" viewBox="0 0 358 406" fill="none" xmlns="http://www.w3.org/2000/svg">
<g clip-path="url(#clip0_5732_5594)">
<path d="M0 24C0 12.6863 0 7.02944 3.51472 3.51472C7.02944 0 12.6863 0 24 0H334C345.314 0 350.971 0 354.485 3.51472C358 7.02944 358 12.6863 358 24V382C358 393.314 358 398.971 354.485 402.485C350.971 406 345.314 406 334 406H24C12.6863 406 7.02944 406 3.51472 402.485C0 398.971 0 393.314 0 382V24Z" fill="#1C1C1E"/>
<g style="mix-blend-mode:lighten" opacity="0.5" filter="url(#filter0_f_5732_5594)">
<circle cx="178.753" cy="392.882" r="179.654" transform="rotate(67.9938 178.753 392.882)" fill="url(#paint0_linear_5732_5594)"/>
</g>
<path d="M32.5215 58.3047C27.3291 58.3047 24.0283 54.6484 24.0283 48.834V48.8213C24.0283 43.0068 27.3291 39.376 32.5215 39.376C36.5586 39.376 39.5928 41.8643 40.1641 45.4824L40.1895 45.5967H37.3711L37.2949 45.3428C36.6855 43.1973 34.9844 41.8896 32.5215 41.8896C29.1191 41.8896 26.9355 44.5811 26.9355 48.8213V48.834C26.9355 53.0742 29.1318 55.791 32.5215 55.791C34.959 55.791 36.6475 54.5215 37.333 52.1982L37.3711 52.084H40.1895L40.1768 52.2109C39.6055 55.8545 36.5713 58.3047 32.5215 58.3047ZM46.9814 58.2666C44.0488 58.2666 42.373 56.375 42.373 53.3027V44.6445H45.1152V52.7695C45.1152 54.7881 46.0547 55.9053 47.959 55.9053C49.8887 55.9053 51.1328 54.5215 51.1328 52.4395V44.6445H53.8877V58H51.1328V55.9941H51.0693C50.3711 57.3398 49.0127 58.2666 46.9814 58.2666ZM61.6064 58.2666C58.2676 58.2666 56.3125 56.6162 56.0332 54.1787L56.0205 54.0645H58.7373L58.7627 54.1914C59.0166 55.4229 59.9307 56.1465 61.6191 56.1465C63.2695 56.1465 64.2598 55.4609 64.2598 54.3818V54.3691C64.2598 53.5059 63.7773 53.0107 62.3428 52.668L60.1592 52.1729C57.6201 51.5889 56.3633 50.3701 56.3633 48.4277V48.415C56.3633 46.0283 58.4453 44.3906 61.5176 44.3906C64.6787 44.3906 66.583 46.1553 66.7227 48.4277L66.7354 48.5801H64.1582L64.1455 48.4912C63.9805 47.3232 63.0664 46.5107 61.5176 46.5107C60.0449 46.5107 59.1182 47.209 59.1182 48.2754V48.2881C59.1182 49.1133 59.6641 49.6719 61.0986 50.0146L63.2695 50.5098C65.999 51.1445 67.04 52.2236 67.04 54.1406V54.1533C67.04 56.5908 64.7549 58.2666 61.6064 58.2666ZM73.8574 58.2666C71.2168 58.2666 69.9473 57.1494 69.9473 54.4834V46.8281H68.0303V44.6445H69.9473V41.166H72.7529V44.6445H75.2539V46.8281H72.7529V54.3184C72.7529 55.6768 73.3623 56.083 74.5176 56.083C74.8096 56.083 75.0508 56.0576 75.2539 56.0322V58.1523C74.9365 58.2031 74.416 58.2666 73.8574 58.2666ZM82.9346 58.2666C79.1006 58.2666 76.5996 55.6133 76.5996 51.3223V51.2969C76.5996 47.0312 79.126 44.3906 82.9219 44.3906C86.7305 44.3906 89.2695 47.0186 89.2695 51.2969V51.3223C89.2695 55.626 86.7559 58.2666 82.9346 58.2666ZM82.9473 55.9687C85.0928 55.9687 86.4639 54.2676 86.4639 51.3223V51.2969C86.4639 48.377 85.0674 46.6885 82.9219 46.6885C80.8145 46.6885 79.4053 48.377 79.4053 51.2969V51.3223C79.4053 54.2803 80.8018 55.9687 82.9473 55.9687ZM91.3897 58V44.6445H94.1318V46.7139H94.1953C94.7666 45.3174 96.125 44.3906 97.877 44.3906C99.7178 44.3906 101.063 45.3428 101.597 47.0186H101.66C102.346 45.3936 103.92 44.3906 105.824 44.3906C108.465 44.3906 110.191 46.1426 110.191 48.8213V58H107.437V49.4814C107.437 47.7422 106.51 46.7393 104.885 46.7393C103.26 46.7393 102.13 47.958 102.13 49.6465V58H99.4385V49.2783C99.4385 47.7295 98.4609 46.7393 96.9121 46.7393C95.2871 46.7393 94.1318 48.0215 94.1318 49.748V58H91.3897ZM114.33 42.5879C113.441 42.5879 112.73 41.877 112.73 41.0137C112.73 40.1377 113.441 39.4268 114.33 39.4268C115.231 39.4268 115.93 40.1377 115.93 41.0137C115.93 41.877 115.231 42.5879 114.33 42.5879ZM112.959 58V44.6445H115.701V58H112.959ZM123.534 58.2666C120.195 58.2666 118.24 56.6162 117.961 54.1787L117.948 54.0645H120.665L120.69 54.1914C120.944 55.4229 121.858 56.1465 123.547 56.1465C125.197 56.1465 126.188 55.4609 126.188 54.3818V54.3691C126.188 53.5059 125.705 53.0107 124.271 52.668L122.087 52.1729C119.548 51.5889 118.291 50.3701 118.291 48.4277V48.415C118.291 46.0283 120.373 44.3906 123.445 44.3906C126.606 44.3906 128.511 46.1553 128.65 48.4277L128.663 48.5801H126.086L126.073 48.4912C125.908 47.3232 124.994 46.5107 123.445 46.5107C121.973 46.5107 121.046 47.209 121.046 48.2754V48.2881C121.046 49.1133 121.592 49.6719 123.026 50.0146L125.197 50.5098C127.927 51.1445 128.968 52.2236 128.968 54.1406V54.1533C128.968 56.5908 126.683 58.2666 123.534 58.2666ZM136.801 58.2666C132.878 58.2666 130.504 55.5879 130.504 51.373V51.3604C130.504 47.1836 132.916 44.3906 136.661 44.3906C140.406 44.3906 142.704 47.082 142.704 51.0937V52.0205H133.246C133.297 54.5469 134.681 56.0195 136.864 56.0195C138.489 56.0195 139.568 55.1816 139.911 54.1787L139.949 54.0771H142.552L142.526 54.2168C142.095 56.3369 140.038 58.2666 136.801 58.2666ZM136.674 46.6377C134.896 46.6377 133.525 47.8437 133.284 50.0781H139.987C139.759 47.7676 138.464 46.6377 136.674 46.6377ZM155.539 58V50.4971L149.09 39.6807H152.251L156.923 47.7676H157.012L161.684 39.6807H164.845L158.383 50.4971V58H155.539ZM169.72 58.2666C165.886 58.2666 163.385 55.6133 163.385 51.3223V51.2969C163.385 47.0312 165.911 44.3906 169.707 44.3906C173.516 44.3906 176.055 47.0186 176.055 51.2969V51.3223C176.055 55.626 173.541 58.2666 169.72 58.2666ZM169.732 55.9687C171.878 55.9687 173.249 54.2676 173.249 51.3223V51.2969C173.249 48.377 171.853 46.6885 169.707 46.6885C167.6 46.6885 166.19 48.377 166.19 51.2969V51.3223C166.19 54.2803 167.587 55.9687 169.732 55.9687ZM182.72 58.2666C179.787 58.2666 178.111 56.375 178.111 53.3027V44.6445H180.854V52.7695C180.854 54.7881 181.793 55.9053 183.697 55.9053C185.627 55.9053 186.871 54.5215 186.871 52.4395V44.6445H189.626V58H186.871V55.9941H186.808C186.109 57.3398 184.751 58.2666 182.72 58.2666ZM192.343 58V44.6445H195.085V46.9297H195.148C195.58 45.3682 196.697 44.3906 198.221 44.3906C198.614 44.3906 198.957 44.4541 199.173 44.4922V47.0439C198.957 46.9551 198.475 46.8916 197.941 46.8916C196.177 46.8916 195.085 48.0469 195.085 50.04V58H192.343ZM24.6885 100V81.6807H27.5322V100H24.6885ZM30.5791 100V86.6445H33.3213V88.6631H33.3848C34.083 87.3047 35.4541 86.3906 37.4727 86.3906C40.4053 86.3906 42.0938 88.2822 42.0938 91.3545V100H39.3389V91.875C39.3389 89.8691 38.3994 88.7393 36.4951 88.7393C34.5654 88.7393 33.3213 90.1357 33.3213 92.2178V100H30.5791ZM50.5996 104.71C47.1719 104.71 45.001 103.123 44.5947 101.079L44.582 100.965H47.2988L47.3496 101.066C47.7178 101.917 48.873 102.501 50.5869 102.501C52.7705 102.501 53.9766 101.333 53.9766 99.4668V97.6387H53.9131C53.1514 99.0859 51.6279 100.013 49.7109 100.013C46.3594 100.013 44.1504 97.3848 44.1504 93.2207V93.208C44.1504 89.0186 46.3848 86.3906 49.7744 86.3906C51.6533 86.3906 53.126 87.4062 53.9131 88.917H53.9766V86.6445H56.7314V99.6318C56.7314 102.679 54.3701 104.71 50.5996 104.71ZM50.4854 97.7783C52.5801 97.7783 53.9766 96.0137 53.9766 93.2588V93.2461C53.9766 90.5039 52.5674 88.7393 50.4854 88.7393C48.3145 88.7393 46.9561 90.4912 46.9561 93.2461V93.2588C46.9561 96.0518 48.3145 97.7783 50.4854 97.7783ZM59.4482 100V86.6445H62.1904V88.9297H62.2539C62.6856 87.3682 63.8027 86.3906 65.3262 86.3906C65.7197 86.3906 66.0625 86.4541 66.2783 86.4922V89.0439C66.0625 88.9551 65.5801 88.8916 65.0469 88.8916C63.2822 88.8916 62.1904 90.0469 62.1904 92.04V100H59.4482ZM73.0957 100.267C69.1729 100.267 66.7988 97.5879 66.7988 93.373V93.3604C66.7988 89.1836 69.2109 86.3906 72.9561 86.3906C76.7012 86.3906 78.999 89.082 78.999 93.0937V94.0205H69.541C69.5918 96.5469 70.9756 98.0195 73.1592 98.0195C74.7842 98.0195 75.8633 97.1816 76.2061 96.1787L76.2441 96.0771H78.8467L78.8213 96.2168C78.3897 98.3369 76.333 100.267 73.0957 100.267ZM72.9688 88.6377C71.1914 88.6377 69.8203 89.8437 69.5791 92.0781H76.2822C76.0537 89.7676 74.7588 88.6377 72.9688 88.6377ZM86.1211 100.267C82.7188 100.267 80.5352 97.5752 80.5352 93.3223V93.3096C80.5352 89.0566 82.7441 86.3906 86.0957 86.3906C87.9873 86.3906 89.5107 87.3428 90.3106 88.917H90.3613V81.6807H93.1162V100H90.3613V97.7402H90.3106C89.5107 99.3018 88.0381 100.267 86.1211 100.267ZM86.8447 97.9053C88.9141 97.9053 90.374 96.1025 90.374 93.3223V93.3096C90.374 90.542 88.9014 88.7393 86.8447 88.7393C84.6865 88.7393 83.3408 90.4912 83.3408 93.3096V93.3223C83.3408 96.166 84.6738 97.9053 86.8447 97.9053ZM97.4199 84.5879C96.5313 84.5879 95.8203 83.877 95.8203 83.0137C95.8203 82.1377 96.5313 81.4268 97.4199 81.4268C98.3213 81.4268 99.0195 82.1377 99.0195 83.0137C99.0195 83.877 98.3213 84.5879 97.4199 84.5879ZM96.0488 100V86.6445H98.791V100H96.0488ZM107.322 100.267C103.399 100.267 101.025 97.5879 101.025 93.373V93.3604C101.025 89.1836 103.438 86.3906 107.183 86.3906C110.928 86.3906 113.226 89.082 113.226 93.0937V94.0205H103.768C103.818 96.5469 105.202 98.0195 107.386 98.0195C109.011 98.0195 110.09 97.1816 110.433 96.1787L110.471 96.0771H113.073L113.048 96.2168C112.616 98.3369 110.56 100.267 107.322 100.267ZM107.195 88.6377C105.418 88.6377 104.047 89.8437 103.806 92.0781H110.509C110.28 89.7676 108.985 88.6377 107.195 88.6377ZM115.358 100V86.6445H118.101V88.6631H118.164C118.862 87.3047 120.233 86.3906 122.252 86.3906C125.185 86.3906 126.873 88.2822 126.873 91.3545V100H124.118V91.875C124.118 89.8691 123.179 88.7393 121.274 88.7393C119.345 88.7393 118.101 90.1357 118.101 92.2178V100H115.358ZM134.211 100.267C131.57 100.267 130.301 99.1494 130.301 96.4834V88.8281H128.384V86.6445H130.301V83.166H133.106V86.6445H135.607V88.8281H133.106V96.3184C133.106 97.6768 133.716 98.083 134.871 98.083C135.163 98.083 135.404 98.0576 135.607 98.0322V100.152C135.29 100.203 134.77 100.267 134.211 100.267ZM143.491 100V81.6807H146.335V97.5498H154.866V100H143.491ZM158.459 84.5879C157.57 84.5879 156.859 83.877 156.859 83.0137C156.859 82.1377 157.57 81.4268 158.459 81.4268C159.36 81.4268 160.059 82.1377 160.059 83.0137C160.059 83.877 159.36 84.5879 158.459 84.5879ZM157.088 100V86.6445H159.83V100H157.088ZM167.663 100.267C164.324 100.267 162.369 98.6162 162.09 96.1787L162.077 96.0645H164.794L164.819 96.1914C165.073 97.4229 165.987 98.1465 167.676 98.1465C169.326 98.1465 170.316 97.4609 170.316 96.3818V96.3691C170.316 95.5059 169.834 95.0107 168.399 94.668L166.216 94.1729C163.677 93.5889 162.42 92.3701 162.42 90.4277V90.415C162.42 88.0283 164.502 86.3906 167.574 86.3906C170.735 86.3906 172.64 88.1553 172.779 90.4277L172.792 90.5801H170.215L170.202 90.4912C170.037 89.3232 169.123 88.5107 167.574 88.5107C166.102 88.5107 165.175 89.209 165.175 90.2754V90.2881C165.175 91.1133 165.721 91.6719 167.155 92.0146L169.326 92.5098C172.056 93.1445 173.097 94.2236 173.097 96.1406V96.1533C173.097 98.5908 170.812 100.267 167.663 100.267ZM179.914 100.267C177.273 100.267 176.004 99.1494 176.004 96.4834V88.8281H174.087V86.6445H176.004V83.166H178.81V86.6445H181.311V88.8281H178.81V96.3184C178.81 97.6768 179.419 98.083 180.574 98.083C180.866 98.083 181.107 98.0576 181.311 98.0322V100.152C180.993 100.203 180.473 100.267 179.914 100.267Z" fill="#929292"/>
<g opacity="0.8">
<path d="M89.4253 194.012C84.4485 194.012 80.4141 199.443 80.4141 204.875C80.4141 211.212 81.3152 215.739 84.9197 221.171C87.6599 224.841 91.3181 225.761 95.2176 223.191C96.0497 222.642 97.2187 222.642 98.0509 223.191C101.95 225.761 105.609 224.841 108.349 221.171C111.953 215.739 112.854 211.212 112.854 204.875C112.854 199.443 108.82 194.012 103.843 194.012C101.274 194.012 98.9563 195.426 97.3148 196.954C96.9334 197.309 96.335 197.309 95.9536 196.954C94.3121 195.426 91.9942 194.012 89.4253 194.012Z" stroke="#F8F8F8" stroke-width="2.70336" stroke-linejoin="round"/>
<path d="M85.8203 206.629C85.8203 203.685 87.3031 200.741 89.4248 199.42" stroke="#F8F8F8" stroke-width="2.70336" stroke-linecap="round" stroke-linejoin="round"/>
<path d="M96.6328 195.814C96.6328 193.411 97.7142 188.605 102.04 188.605" stroke="#F8F8F8" stroke-width="2.70336" stroke-linecap="round" stroke-linejoin="round"/>
<path d="M103.16 246.791L90.4453 259.505M103.16 259.505L90.4453 246.791" stroke="#F8F8F8" stroke-width="3.08955" stroke-linecap="round"/>
<path d="M167.703 206.625L167.687 206.625" stroke="#F8F8F8" stroke-width="3.60448" stroke-linecap="round" stroke-linejoin="round"/>
<path d="M176.697 213.91C177.532 214.186 178.332 214.503 179.058 215.011M179.058 215.011C180.933 216.324 182.103 218.478 182.103 220.836C182.103 220.951 182.007 221.044 181.891 221.044C176.633 221.021 174.279 220.131 173.289 218.662L171.29 215.379C166.8 214.472 162.672 211.605 160.477 206.776C165.883 194.886 183.005 194.886 188.411 206.776M179.058 215.011C182.969 213.821 186.456 211.076 188.411 206.776M179.058 198.541C180.933 197.228 182.103 195.074 182.103 192.717C182.103 191.227 174.339 193.333 173.289 194.891L171.29 198.173M188.411 206.776C189.012 205.587 192.196 201.426 196.521 201.426C195.019 202.912 192.556 208.56 194.719 212.127C192.556 212.127 189.312 207.965 188.411 206.776Z" stroke="#F8F8F8" stroke-width="2.70336" stroke-linecap="round" stroke-linejoin="round"/>
<path d="M185.035 246.791L172.32 259.505M185.035 259.505L172.32 246.791" stroke="#F8F8F8" stroke-width="3.08955" stroke-linecap="round"/>
<path d="M257.261 208.429C260.368 213.835 254.381 216.327 255.007 219.737C255.74 223.728 259.898 225.805 263.034 223.982C267.481 221.396 265.585 211.678 263.813 208.464" stroke="#F8F8F8" stroke-width="2.70336" stroke-linecap="round"/>
<path d="M260.396 188.604C251.975 188.604 245.119 193.377 244.184 201.277C242.877 212.326 277.769 209.278 276.558 200.894C275.45 193.223 268.68 188.604 260.396 188.604Z" stroke="#F8F8F8" stroke-width="2.70336"/>
<path d="M267.575 195.812C269.377 195.812 271.18 197.615 271.18 199.417" stroke="#F8F8F8" stroke-width="2.70336" stroke-linecap="round" stroke-linejoin="round"/>
<path d="M267.791 247.409L256.731 258.532L252.961 254.74" stroke="#F8F8F8" stroke-width="3.08955" stroke-linecap="round" stroke-linejoin="round"/>
<path d="M90.3396 293.721C84.1094 293.721 78.625 296.592 78.625 300.134C78.625 302.593 81.5855 304.423 81.2083 306.734L80.7682 314.947C80.577 318.517 80.4813 320.301 81.5084 321.429C82.5354 322.557 84.2568 322.557 87.6994 322.557H92.9797C96.4224 322.557 98.1437 322.557 99.1707 321.429C100.198 320.301 100.102 318.517 99.9109 314.947L99.4708 306.734C99.0936 304.423 102.054 302.593 102.054 300.134C102.054 296.592 96.5697 293.721 90.3396 293.721Z" stroke="#F8F8F8" stroke-width="2.70336"/>
<path d="M94.8598 322.558H106.005C109.298 322.558 110.944 322.558 111.926 321.431C112.909 320.303 112.817 318.519 112.634 314.949L112.214 306.736C111.853 304.425 114.684 302.595 114.684 300.136C114.684 296.594 109.439 293.723 103.479 293.723H89.4531" stroke="#F8F8F8" stroke-width="2.70336"/>
<path d="M104.049 348.917L92.9887 360.039L89.2188 356.248" stroke="#F8F8F8" stroke-width="3.08955" stroke-linecap="round" stroke-linejoin="round"/>
<path d="M196.521 304.529V311.218C196.521 316.053 196.521 318.47 195.123 320.076C193.874 321.511 191.893 321.856 188.182 322.256C187.734 322.304 187.33 322.006 187.136 321.599C186.546 320.365 185.321 319.517 183.906 319.517C182.232 319.517 180.824 320.704 180.419 322.312C180.31 322.743 179.978 323.111 179.535 323.157L172.366 323.902C166.811 324.479 164.034 324.768 162.255 323.095C160.477 321.421 160.477 318.52 160.477 312.717V306.403" stroke="#F8F8F8" stroke-width="2.70336" stroke-linecap="round" stroke-linejoin="round"/>
<path d="M169.361 307.986L190.158 307.116C195.098 306.909 198.088 305.46 195.663 300.312C193.977 296.736 190.946 293.873 187.191 292.322C184.76 291.319 182.846 292.342 180.835 293.53C180.148 293.936 180.443 294.723 180.443 295.358C180.443 297.374 178.816 299.009 176.809 299.009C175.925 299.009 175.115 298.692 174.485 298.165C172.768 296.73 159.886 305.111 160.498 307.042C160.909 308.34 163.726 308.222 169.361 307.986Z" stroke="#F8F8F8" stroke-width="2.70336" stroke-linejoin="round"/>
<path d="M185.727 301.306L185.712 301.306" stroke="#F8F8F8" stroke-width="3.60448" stroke-linecap="round" stroke-linejoin="round"/>
<path d="M187.523 313.921L187.509 313.921" stroke="#F8F8F8" stroke-width="3.60448" stroke-linecap="round" stroke-linejoin="round"/>
<path d="M169.507 315.723C169.507 317.216 170.718 318.426 172.211 318.426C173.704 318.426 174.914 317.216 174.914 315.723C174.914 314.23 173.704 313.02 172.211 313.02C170.718 313.02 169.507 314.23 169.507 315.723Z" stroke="#F8F8F8" stroke-width="2.70336"/>
<path d="M185.924 348.917L174.864 360.039L171.094 356.248" stroke="#F8F8F8" stroke-width="3.08955" stroke-linecap="round" stroke-linejoin="round"/>
<path d="M247.872 307.662C251.329 308.087 254.49 305.52 254.932 301.928C255.374 298.335 251.26 294.873 252.755 290.104C245.36 291.176 242.811 297.135 242.411 300.388C241.969 303.98 244.414 307.237 247.872 307.662Z" stroke="#F8F8F8" stroke-width="2.70336" stroke-linejoin="round"/>
<path d="M251.386 322.539C247.917 314.112 247.367 306.669 248.021 300.912" stroke="#F8F8F8" stroke-width="2.70336" stroke-linecap="round" stroke-linejoin="round"/>
<path d="M255.884 318.345C258.001 322.656 263.116 323.845 267.307 321C271.499 318.155 272.158 310.274 278.398 307.526C271.739 300.15 263.434 302.813 259.639 305.388C255.448 308.233 253.767 314.034 255.884 318.345Z" stroke="#F8F8F8" stroke-width="2.70336" stroke-linejoin="round"/>
<path d="M249.562 326.152C253.848 318.771 259.05 314.312 263.98 311.734" stroke="#F8F8F8" stroke-width="2.70336" stroke-linecap="round" stroke-linejoin="round"/>
<path d="M266.91 348.298L254.195 361.012M266.91 361.012L254.195 348.298" stroke="#F8F8F8" stroke-width="3.08955" stroke-linecap="round"/>
</g>
</g>
<defs>
<filter id="filter0_f_5732_5594" x="-90.4653" y="123.661" width="538.438" height="538.443" filterUnits="userSpaceOnUse" color-interpolation-filters="sRGB">
<feFlood flood-opacity="0" result="BackgroundImageFix"/>
<feBlend mode="normal" in="SourceGraphic" in2="BackgroundImageFix" result="shape"/>
<feGaussianBlur stdDeviation="44.76" result="effect1_foregroundBlur_5732_5594"/>
</filter>
<linearGradient id="paint0_linear_5732_5594" x1="282.503" y1="213.229" x2="160.338" y2="583.315" gradientUnits="userSpaceOnUse">
<stop stop-color="#BF2CF2"/>
<stop offset="1" stop-color="#58E3F6"/>
</linearGradient>
<clipPath id="clip0_5732_5594">
<path d="M0 24C0 12.6863 0 7.02944 3.51472 3.51472C7.02944 0 12.6863 0 24 0H334C345.314 0 350.971 0 354.485 3.51472C358 7.02944 358 12.6863 358 24V382C358 393.314 358 398.971 354.485 402.485C350.971 406 345.314 406 334 406H24C12.6863 406 7.02944 406 3.51472 402.485C0 398.971 0 393.314 0 382V24Z" fill="white"/>
</clipPath>
</defs>
</svg>
