<svg width="358" height="406" viewBox="0 0 358 406" fill="none" xmlns="http://www.w3.org/2000/svg">
<g clip-path="url(#clip0_5732_5660)">
<path d="M0 24C0 12.6863 0 7.02944 3.51472 3.51472C7.02944 0 12.6863 0 24 0H334C345.314 0 350.971 0 354.485 3.51472C358 7.02944 358 12.6863 358 24V382C358 393.314 358 398.971 354.485 402.485C350.971 406 345.314 406 334 406H24C12.6863 406 7.02944 406 3.51472 402.485C0 398.971 0 393.314 0 382V24Z" fill="#1C1C1E"/>
<g style="mix-blend-mode:lighten" opacity="0.5" filter="url(#filter0_f_5732_5660)">
<circle cx="178.753" cy="392.882" r="179.654" transform="rotate(67.9938 178.753 392.882)" fill="url(#paint0_linear_5732_5660)"/>
</g>
<path d="M32.5723 58.3047C27.3291 58.3047 24.0283 54.6484 24.0283 48.7578V48.7451C24.0283 42.9687 27.3291 39.376 32.5342 39.376C36.8252 39.376 39.5166 41.8516 40.2783 45.1523L40.3291 45.3809H37.4092L37.3711 45.2412C36.5967 43.1211 34.9336 41.8896 32.5469 41.8896C29.043 41.8896 26.9229 44.4414 26.9229 48.7324V48.7451C26.9229 53.125 29.1064 55.791 32.5977 55.791C35.5684 55.791 37.625 53.9121 37.6631 51.1318V50.8271H32.8516V48.5039H40.4688V50.3828C40.4688 55.3467 37.5361 58.3047 32.5723 58.3047ZM48.6191 58.2666C44.6963 58.2666 42.3223 55.5879 42.3223 51.373V51.3604C42.3223 47.1836 44.7344 44.3906 48.4795 44.3906C52.2246 44.3906 54.5225 47.082 54.5225 51.0937V52.0205H45.0645C45.1152 54.5469 46.499 56.0195 48.6826 56.0195C50.3076 56.0195 51.3867 55.1816 51.7295 54.1787L51.7676 54.0771H54.3701L54.3447 54.2168C53.9131 56.3369 51.8564 58.2666 48.6191 58.2666ZM48.4922 46.6377C46.7148 46.6377 45.3438 47.8437 45.1025 50.0781H51.8057C51.5772 47.7676 50.2822 46.6377 48.4922 46.6377ZM56.6553 58V44.6445H59.3975V46.6631H59.4609C60.1592 45.3047 61.5303 44.3906 63.5488 44.3906C66.4814 44.3906 68.1699 46.2822 68.1699 49.3545V58H65.415V49.875C65.415 47.8691 64.4756 46.7393 62.5713 46.7393C60.6416 46.7393 59.3975 48.1357 59.3975 50.2178V58H56.6553ZM76.5234 58.2666C72.6006 58.2666 70.2266 55.5879 70.2266 51.373V51.3604C70.2266 47.1836 72.6387 44.3906 76.3838 44.3906C80.1289 44.3906 82.4268 47.082 82.4268 51.0937V52.0205H72.9688C73.0195 54.5469 74.4033 56.0195 76.5869 56.0195C78.2119 56.0195 79.291 55.1816 79.6338 54.1787L79.6719 54.0771H82.2744L82.249 54.2168C81.8174 56.3369 79.7607 58.2666 76.5234 58.2666ZM76.3965 46.6377C74.6191 46.6377 73.2481 47.8437 73.0068 50.0781H79.71C79.4814 47.7676 78.1865 46.6377 76.3965 46.6377ZM84.5596 58V44.6445H87.3018V46.9297H87.3652C87.7969 45.3682 88.9141 44.3906 90.4375 44.3906C90.8311 44.3906 91.1738 44.4541 91.3897 44.4922V47.0439C91.1738 46.9551 90.6914 46.8916 90.1582 46.8916C88.3936 46.8916 87.3018 48.0469 87.3018 50.04V58H84.5596ZM96.7344 58.2412C94.0684 58.2412 92.2783 56.6035 92.2783 54.2041V54.1787C92.2783 51.8555 94.0811 50.4336 97.2422 50.2432L100.873 50.0273V49.0244C100.873 47.5518 99.9209 46.6631 98.2197 46.6631C96.6328 46.6631 95.6553 47.4121 95.4268 48.4785L95.4014 48.5928H92.8115L92.8242 48.4531C93.0147 46.1553 95.0078 44.3906 98.2959 44.3906C101.559 44.3906 103.628 46.1172 103.628 48.7959V58H100.873V55.8926H100.822C100.048 57.3271 98.499 58.2412 96.7344 58.2412ZM95.0459 54.1406C95.0459 55.3086 96.0108 56.0449 97.4834 56.0449C99.4131 56.0449 100.873 54.7373 100.873 52.998V51.957L97.6104 52.1602C95.96 52.2617 95.0459 52.9854 95.0459 54.1152V54.1406ZM110.979 58.2666C108.338 58.2666 107.068 57.1494 107.068 54.4834V46.8281H105.151V44.6445H107.068V41.166H109.874V44.6445H112.375V46.8281H109.874V54.3184C109.874 55.6768 110.483 56.083 111.639 56.083C111.931 56.083 112.172 56.0576 112.375 56.0322V58.1523C112.058 58.2031 111.537 58.2666 110.979 58.2666ZM120.018 58.2666C116.095 58.2666 113.721 55.5879 113.721 51.373V51.3604C113.721 47.1836 116.133 44.3906 119.878 44.3906C123.623 44.3906 125.921 47.082 125.921 51.0937V52.0205H116.463C116.514 54.5469 117.897 56.0195 120.081 56.0195C121.706 56.0195 122.785 55.1816 123.128 54.1787L123.166 54.0771H125.769L125.743 54.2168C125.312 56.3369 123.255 58.2666 120.018 58.2666ZM119.891 46.6377C118.113 46.6377 116.742 47.8437 116.501 50.0781H123.204C122.976 47.7676 121.681 46.6377 119.891 46.6377ZM133.665 58V39.6807H140.127C145.561 39.6807 148.798 43.0195 148.798 48.7832V48.8086C148.798 54.5977 145.586 58 140.127 58H133.665ZM136.509 55.5371H139.86C143.745 55.5371 145.891 53.1631 145.891 48.834V48.8086C145.891 44.5049 143.72 42.1309 139.86 42.1309H136.509V55.5371ZM155.082 58.2412C152.416 58.2412 150.626 56.6035 150.626 54.2041V54.1787C150.626 51.8555 152.429 50.4336 155.59 50.2432L159.221 50.0273V49.0244C159.221 47.5518 158.269 46.6631 156.567 46.6631C154.98 46.6631 154.003 47.4121 153.774 48.4785L153.749 48.5928H151.159L151.172 48.4531C151.362 46.1553 153.355 44.3906 156.644 44.3906C159.906 44.3906 161.976 46.1172 161.976 48.7959V58H159.221V55.8926H159.17C158.396 57.3271 156.847 58.2412 155.082 58.2412ZM153.394 54.1406C153.394 55.3086 154.358 56.0449 155.831 56.0449C157.761 56.0449 159.221 54.7373 159.221 52.998V51.957L155.958 52.1602C154.308 52.2617 153.394 52.9854 153.394 54.1152V54.1406ZM166.127 42.5879C165.238 42.5879 164.527 41.877 164.527 41.0137C164.527 40.1377 165.238 39.4268 166.127 39.4268C167.028 39.4268 167.727 40.1377 167.727 41.0137C167.727 41.877 167.028 42.5879 166.127 42.5879ZM164.756 58V44.6445H167.498V58H164.756ZM170.431 58V39.6807H173.173V58H170.431ZM177.565 62.4561C177.032 62.4561 176.461 62.3926 176.131 62.3291V60.1836C176.347 60.2344 176.664 60.2852 177.032 60.2852C178.327 60.2852 179.038 59.9424 179.495 58.6475L179.724 58.0127L174.861 44.6445H177.832L181.196 55.5117H181.285L184.649 44.6445H187.544L182.567 58.6221C181.577 61.3896 180.181 62.4561 177.565 62.4561ZM193.396 58L200.062 39.6807H203.134L209.786 58H206.803L205.127 53.0488H198.068L196.38 58H193.396ZM201.572 42.7148L198.83 50.7637H204.353L201.623 42.7148H201.572ZM211.487 58V44.6445H214.23V46.6631H214.293C214.991 45.3047 216.362 44.3906 218.381 44.3906C221.313 44.3906 223.002 46.2822 223.002 49.3545V58H220.247V49.875C220.247 47.8691 219.308 46.7393 217.403 46.7393C215.474 46.7393 214.23 48.1357 214.23 50.2178V58H211.487ZM230.645 58.2666C227.242 58.2666 225.059 55.5752 225.059 51.3223V51.3096C225.059 47.0566 227.268 44.3906 230.619 44.3906C232.511 44.3906 234.034 45.3428 234.834 46.917H234.885V39.6807H237.64V58H234.885V55.7402H234.834C234.034 57.3018 232.562 58.2666 230.645 58.2666ZM231.368 55.9053C233.438 55.9053 234.897 54.1025 234.897 51.3223V51.3096C234.897 48.542 233.425 46.7393 231.368 46.7393C229.21 46.7393 227.864 48.4912 227.864 51.3096V51.3223C227.864 54.166 229.197 55.9053 231.368 55.9053ZM28.4971 100L23.5586 81.6807H26.5166L29.9316 96.0391H29.9824L33.8545 81.6807H36.5459L40.418 96.0391H40.4814L43.8965 81.6807H46.8545L41.9033 100H39.1738L35.2383 86.1875H35.1748L31.2266 100H28.4971ZM53.0371 100.267C49.1143 100.267 46.7402 97.5879 46.7402 93.373V93.3604C46.7402 89.1836 49.1523 86.3906 52.8975 86.3906C56.6426 86.3906 58.9404 89.082 58.9404 93.0937V94.0205H49.4824C49.5332 96.5469 50.917 98.0195 53.1006 98.0195C54.7256 98.0195 55.8047 97.1816 56.1475 96.1787L56.1855 96.0771H58.7881L58.7627 96.2168C58.3311 98.3369 56.2744 100.267 53.0371 100.267ZM52.9102 88.6377C51.1328 88.6377 49.7617 89.8437 49.5205 92.0781H56.2236C55.9951 89.7676 54.7002 88.6377 52.9102 88.6377ZM66.7734 100.267C62.8506 100.267 60.4766 97.5879 60.4766 93.373V93.3604C60.4766 89.1836 62.8887 86.3906 66.6338 86.3906C70.3789 86.3906 72.6768 89.082 72.6768 93.0937V94.0205H63.2188C63.2695 96.5469 64.6533 98.0195 66.8369 98.0195C68.4619 98.0195 69.541 97.1816 69.8838 96.1787L69.9219 96.0771H72.5244L72.499 96.2168C72.0674 98.3369 70.0107 100.267 66.7734 100.267ZM66.6465 88.6377C64.8691 88.6377 63.4981 89.8437 63.2568 92.0781H69.96C69.7314 89.7676 68.4365 88.6377 66.6465 88.6377ZM74.9619 100V81.6807H77.7041V92.3447H77.7676L83.125 86.6445H86.3496L80.8652 92.4082L86.5654 100H83.3789L78.8467 94.0586L77.7041 95.1885V100H74.9619ZM88.0381 100V81.6807H90.7803V100H88.0381ZM95.1729 104.456C94.6397 104.456 94.0684 104.393 93.7383 104.329V102.184C93.9541 102.234 94.2715 102.285 94.6397 102.285C95.9346 102.285 96.6455 101.942 97.1025 100.647L97.3311 100.013L92.4688 86.6445H95.4395L98.8037 97.5117H98.8926L102.257 86.6445H105.151L100.175 100.622C99.1846 103.39 97.7881 104.456 95.1729 104.456ZM112.362 100V81.6807H115.65L121.579 96.3057H121.655L127.597 81.6807H130.872V100H128.282V86.4795H128.193L122.671 100H120.563L115.041 86.4795H114.952V100H112.362ZM139.619 100.267C135.696 100.267 133.322 97.5879 133.322 93.373V93.3604C133.322 89.1836 135.734 86.3906 139.48 86.3906C143.225 86.3906 145.522 89.082 145.522 93.0937V94.0205H136.064C136.115 96.5469 137.499 98.0195 139.683 98.0195C141.308 98.0195 142.387 97.1816 142.73 96.1787L142.768 96.0771H145.37L145.345 96.2168C144.913 98.3369 142.856 100.267 139.619 100.267ZM139.492 88.6377C137.715 88.6377 136.344 89.8437 136.103 92.0781H142.806C142.577 89.7676 141.282 88.6377 139.492 88.6377ZM151.578 100.241C148.912 100.241 147.122 98.6035 147.122 96.2041V96.1787C147.122 93.8555 148.925 92.4336 152.086 92.2432L155.717 92.0273V91.0244C155.717 89.5518 154.765 88.6631 153.063 88.6631C151.477 88.6631 150.499 89.4121 150.271 90.4785L150.245 90.5928H147.655L147.668 90.4531C147.858 88.1553 149.852 86.3906 153.14 86.3906C156.402 86.3906 158.472 88.1172 158.472 90.7959V100H155.717V97.8926H155.666C154.892 99.3271 153.343 100.241 151.578 100.241ZM149.89 96.1406C149.89 97.3086 150.855 98.0449 152.327 98.0449C154.257 98.0449 155.717 96.7373 155.717 94.998V93.957L152.454 94.1602C150.804 94.2617 149.89 94.9854 149.89 96.1152V96.1406ZM161.239 100V81.6807H163.981V100H161.239ZM172.411 100V81.6807H179.229C182.821 81.6807 185.31 84.0928 185.31 87.6855V87.7109C185.31 91.291 182.821 93.7412 179.229 93.7412H175.255V100H172.411ZM178.518 84.0801H175.255V91.3545H178.518C180.993 91.3545 182.415 90.0215 182.415 87.7236V87.6982C182.415 85.4131 180.993 84.0801 178.518 84.0801ZM187.569 100V81.6807H190.312V100H187.569ZM197.053 100.241C194.387 100.241 192.597 98.6035 192.597 96.2041V96.1787C192.597 93.8555 194.399 92.4336 197.561 92.2432L201.191 92.0273V91.0244C201.191 89.5518 200.239 88.6631 198.538 88.6631C196.951 88.6631 195.974 89.4121 195.745 90.4785L195.72 90.5928H193.13L193.143 90.4531C193.333 88.1553 195.326 86.3906 198.614 86.3906C201.877 86.3906 203.946 88.1172 203.946 90.7959V100H201.191V97.8926H201.141C200.366 99.3271 198.817 100.241 197.053 100.241ZM195.364 96.1406C195.364 97.3086 196.329 98.0449 197.802 98.0449C199.731 98.0449 201.191 96.7373 201.191 94.998V93.957L197.929 94.1602C196.278 94.2617 195.364 94.9854 195.364 96.1152V96.1406ZM206.612 100V86.6445H209.355V88.6631H209.418C210.116 87.3047 211.487 86.3906 213.506 86.3906C216.438 86.3906 218.127 88.2822 218.127 91.3545V100H215.372V91.875C215.372 89.8691 214.433 88.7393 212.528 88.7393C210.599 88.7393 209.355 90.1357 209.355 92.2178V100H206.612Z" fill="#929292"/>
<path opacity="0.6" fill-rule="evenodd" clip-rule="evenodd" d="M87.099 159C90.6865 159 93.5947 161.908 93.5947 165.496V176.707C111.609 174.316 134.556 174.316 163.903 174.316L164.45 174.316H193.55L194.097 174.316C223.44 174.316 246.385 174.316 264.398 176.706V165.496C264.398 161.908 267.306 159 270.894 159C274.481 159 277.39 161.908 277.39 165.496V179.069C290.723 182.28 301.405 187.739 310.095 197.133C320.999 208.921 326.077 224.001 328.553 243.91C331 263.586 331 288.941 331 321.908V322.383V330.248V330.723C331 363.69 331 389.045 328.553 408.721C326.077 428.63 320.999 443.71 310.095 455.498C299.124 467.358 284.978 472.946 266.331 475.657C248.035 478.316 224.5 478.316 194.097 478.316H194.096H193.55H164.45H163.904H163.903C133.5 478.316 109.965 478.316 91.6693 475.657C73.0216 472.946 58.8756 467.358 47.905 455.498C37.0009 443.71 31.9228 428.63 29.4469 408.721C26.9999 389.045 26.9999 363.69 27 330.723V330.248V322.383V321.908C26.9999 288.941 26.9999 263.586 29.4469 243.91C31.9228 224.001 37.0009 208.921 47.905 197.133C56.5932 187.741 67.2731 182.282 80.6033 179.071V165.496C80.6033 161.908 83.5115 159 87.099 159ZM80.6033 196.128V192.493C70.6383 195.304 63.3489 199.569 57.442 205.955C49.1683 214.9 44.6575 226.87 42.339 245.513C42.1221 247.258 41.9253 249.051 41.7466 250.898H316.253C316.075 249.051 315.878 247.258 315.661 245.513C313.342 226.87 308.832 214.9 300.558 205.955C294.65 199.568 287.358 195.302 277.39 192.491V196.128C277.39 199.716 274.481 202.624 270.894 202.624C267.306 202.624 264.398 199.716 264.398 196.128V189.822C247.151 187.323 224.576 187.307 193.55 187.307H164.45C133.419 187.307 110.842 187.323 93.5947 189.823V196.128C93.5947 199.716 90.6865 202.624 87.099 202.624C83.5115 202.624 80.6033 199.716 80.6033 196.128ZM317.189 263.88C317.076 263.886 316.962 263.889 316.848 263.889H41.1553C41.0398 263.889 40.9251 263.886 40.8112 263.88C39.9973 279.688 39.9915 298.816 39.9915 322.383V330.248C39.9915 363.787 40.0033 388.336 42.339 407.118C44.6575 425.761 49.1683 437.732 57.442 446.676C65.6491 455.549 76.5251 460.327 93.5379 462.8C110.793 465.308 133.385 465.324 164.45 465.324H193.55C224.615 465.324 247.207 465.308 264.462 462.8C281.475 460.327 292.351 455.549 300.558 446.676C308.832 437.732 313.342 425.761 315.661 407.118C317.997 388.336 318.009 363.787 318.009 330.248V322.383C318.009 298.816 318.003 279.688 317.189 263.88Z" fill="url(#paint1_linear_5732_5660)"/>
<path d="M142.261 288V279.653H142.227L139.649 281.431V279.981L142.247 278.136H143.758V288H142.261ZM149.876 288.164C147.859 288.164 146 286.763 146 283.215V283.201C146 279.913 147.47 277.972 149.938 277.972C151.694 277.972 153.014 278.977 153.328 280.446L153.349 280.528H151.811L151.79 280.46C151.51 279.722 150.867 279.257 149.924 279.257C148.229 279.257 147.538 280.891 147.477 282.846C147.47 282.935 147.47 283.023 147.47 283.112H147.504C147.894 282.224 148.892 281.526 150.231 281.526C152.118 281.526 153.479 282.9 153.479 284.767V284.78C153.479 286.749 151.954 288.164 149.876 288.164ZM147.771 284.787C147.771 285.956 148.687 286.879 149.855 286.879C151.024 286.879 151.954 285.97 151.954 284.821V284.808C151.954 283.618 151.079 282.771 149.876 282.771C148.68 282.771 147.771 283.611 147.771 284.78V284.787ZM160.301 288.164C158.476 288.164 157.409 287.05 157.327 285.478L157.32 285.396H158.831L158.838 285.457C158.899 286.209 159.371 286.797 160.287 286.797C161.299 286.797 161.846 286.195 161.846 285.067V278.136H163.377V285.081C163.377 287.022 162.235 288.164 160.301 288.164ZM167.485 288.144C165.906 288.144 165.004 287.125 165.004 285.471V280.809H166.48V285.184C166.48 286.271 166.986 286.872 168.012 286.872C169.051 286.872 169.721 286.127 169.721 285.006V280.809H171.204V288H169.721V286.92H169.687C169.311 287.645 168.579 288.144 167.485 288.144ZM172.722 288V278.136H174.198V288H172.722ZM176.563 290.399C176.276 290.399 175.969 290.365 175.791 290.331V289.176C175.907 289.203 176.078 289.23 176.276 289.23C176.974 289.23 177.356 289.046 177.603 288.349L177.726 288.007L175.107 280.809H176.707L178.519 286.66H178.566L180.378 280.809H181.937L179.257 288.335C178.724 289.825 177.972 290.399 176.563 290.399ZM185.676 288V286.947L189.148 283.454C190.461 282.142 190.755 281.622 190.755 280.856V280.843C190.748 279.906 190.037 279.236 189.039 279.236C187.884 279.236 187.057 280.016 187.043 281.014V281.055H185.594V281.014C185.594 279.25 187.091 277.972 189.019 277.972C190.912 277.972 192.266 279.161 192.266 280.754V280.768C192.266 281.896 191.739 282.695 189.969 284.445L187.727 286.646V286.708H192.423V288H185.676ZM197.372 288.164C195.014 288.164 193.605 286.202 193.605 283.071V283.058C193.605 279.927 195.014 277.972 197.372 277.972C199.724 277.972 201.139 279.927 201.139 283.058V283.071C201.139 286.202 199.724 288.164 197.372 288.164ZM197.372 286.886C198.773 286.886 199.594 285.437 199.594 283.071V283.058C199.594 280.692 198.773 279.257 197.372 279.257C195.964 279.257 195.15 280.692 195.15 283.058V283.071C195.15 285.437 195.964 286.886 197.372 286.886ZM202.396 288V286.947L205.869 283.454C207.182 282.142 207.476 281.622 207.476 280.856V280.843C207.469 279.906 206.758 279.236 205.76 279.236C204.604 279.236 203.777 280.016 203.764 281.014V281.055H202.314V281.014C202.314 279.25 203.812 277.972 205.739 277.972C207.633 277.972 208.986 279.161 208.986 280.754V280.768C208.986 281.896 208.46 282.695 206.689 284.445L204.447 286.646V286.708H209.144V288H202.396ZM214.906 288V286.038H209.971V284.705L214.161 278.136H216.376V284.753H217.736V286.038H216.376V288H214.906ZM211.393 284.773H214.92V279.346H214.879L211.393 284.732V284.773Z" fill="#F8F8F8"/>
<path opacity="0.5" d="M163.466 302V295.745H161.244V294.954H166.566V295.745H164.345V302H163.466ZM167.992 302.098C166.879 302.098 166.234 301.375 166.234 300.218V296.922H167.084V300.066C167.084 300.892 167.47 301.346 168.251 301.346C169.052 301.346 169.574 300.774 169.574 299.91V296.922H170.424V302H169.574V301.277H169.555C169.281 301.751 168.764 302.098 167.992 302.098ZM173.622 302.098C172.162 302.098 171.283 301.077 171.283 299.48V299.476C171.283 297.903 172.182 296.824 173.568 296.824C174.955 296.824 175.8 297.854 175.8 299.378V299.69H172.143C172.162 300.735 172.738 301.346 173.642 301.346C174.286 301.346 174.74 301.023 174.887 300.589L174.901 300.545H175.736L175.727 300.594C175.561 301.434 174.73 302.098 173.622 302.098ZM173.563 297.576C172.826 297.576 172.25 298.079 172.157 299.026H174.936C174.853 298.04 174.306 297.576 173.563 297.576ZM178.461 302.098C177.265 302.098 176.542 301.487 176.439 300.579L176.435 300.535H177.284L177.294 300.584C177.396 301.092 177.772 301.39 178.466 301.39C179.154 301.39 179.564 301.102 179.564 300.643V300.638C179.564 300.271 179.374 300.066 178.798 299.925L177.992 299.729C177.035 299.5 176.571 299.056 176.571 298.323V298.318C176.571 297.444 177.338 296.824 178.437 296.824C179.55 296.824 180.258 297.474 180.321 298.323L180.326 298.387H179.516L179.511 298.353C179.442 297.859 179.066 297.532 178.437 297.532C177.821 297.532 177.44 297.83 177.44 298.279V298.284C177.44 298.631 177.67 298.87 178.231 299.007L179.037 299.202C180.062 299.451 180.434 299.856 180.434 300.579V300.584C180.434 301.473 179.594 302.098 178.461 302.098ZM183.227 302.098C181.928 302.098 181.068 301.062 181.068 299.461V299.456C181.068 297.854 181.938 296.824 183.212 296.824C183.93 296.824 184.521 297.186 184.838 297.771H184.857V294.954H185.707V302H184.857V301.141H184.838C184.521 301.731 183.954 302.098 183.227 302.098ZM183.393 301.346C184.252 301.346 184.862 300.599 184.862 299.461V299.456C184.862 298.323 184.247 297.576 183.393 297.576C182.494 297.576 181.938 298.299 181.938 299.456V299.461C181.938 300.628 182.494 301.346 183.393 301.346ZM188.339 302.098C187.328 302.098 186.649 301.487 186.649 300.564V300.555C186.649 299.69 187.323 299.148 188.49 299.08L189.945 298.997V298.572C189.945 297.952 189.54 297.576 188.832 297.576C188.178 297.576 187.768 297.889 187.67 298.343L187.66 298.387H186.84L186.845 298.333C186.918 297.498 187.646 296.824 188.842 296.824C190.043 296.824 190.795 297.474 190.795 298.489V302H189.945V301.175H189.926C189.628 301.731 189.018 302.098 188.339 302.098ZM187.519 300.564C187.519 301.053 187.919 301.36 188.529 301.36C189.33 301.36 189.945 300.809 189.945 300.071V299.656L188.588 299.739C187.909 299.778 187.519 300.081 187.519 300.555V300.564ZM192.362 303.709C192.196 303.709 192.016 303.689 191.908 303.67V302.977C191.981 302.991 192.079 303.006 192.182 303.006C192.719 303.006 193.017 302.869 193.222 302.293L193.324 302.005L191.439 296.922H192.348L193.749 301.15H193.769L195.175 296.922H196.068L194.086 302.317C193.725 303.289 193.28 303.709 192.362 303.709Z" fill="#F8F8F8"/>
<g clip-path="url(#clip1_5732_5660)">
<path d="M131.588 337.317C132.947 337.484 134.19 336.475 134.363 335.063C134.537 333.651 132.92 332.29 133.508 330.416C130.601 330.837 129.599 333.179 129.442 334.458C129.269 335.869 130.229 337.15 131.588 337.317Z" stroke="#5ECC7B" stroke-width="1.0625" stroke-linejoin="round" style="mix-blend-mode:color-dodge"/>
<path d="M132.964 343.166C131.6 339.854 131.384 336.929 131.641 334.666" stroke="#5ECC7B" stroke-width="1.0625" stroke-linecap="round" stroke-linejoin="round" style="mix-blend-mode:color-dodge"/>
<path d="M134.743 341.514C135.575 343.208 137.585 343.676 139.232 342.558C140.88 341.44 141.139 338.342 143.591 337.262C140.974 334.363 137.71 335.409 136.219 336.422C134.571 337.54 133.91 339.82 134.743 341.514Z" stroke="#5ECC7B" stroke-width="1.0625" stroke-linejoin="round" style="mix-blend-mode:color-dodge"/>
<path d="M132.258 344.583C133.942 341.682 135.987 339.929 137.924 338.916" stroke="#5ECC7B" stroke-width="1.0625" stroke-linecap="round" stroke-linejoin="round" style="mix-blend-mode:color-dodge"/>
</g>
<path d="M150.909 342V332.136H152.44V340.681H157.034V342H150.909ZM161.061 342.144C158.948 342.144 157.67 340.701 157.67 338.432V338.425C157.67 336.176 158.969 334.672 160.985 334.672C163.002 334.672 164.239 336.121 164.239 338.281V338.78H159.146C159.174 340.141 159.919 340.934 161.095 340.934C161.97 340.934 162.551 340.482 162.735 339.942L162.756 339.888H164.157L164.144 339.963C163.911 341.104 162.804 342.144 161.061 342.144ZM160.992 335.882C160.035 335.882 159.297 336.531 159.167 337.734H162.776C162.653 336.49 161.956 335.882 160.992 335.882ZM167.5 342.13C166.064 342.13 165.101 341.248 165.101 339.956V339.942C165.101 338.691 166.071 337.926 167.773 337.823L169.729 337.707V337.167C169.729 336.374 169.216 335.896 168.3 335.896C167.445 335.896 166.919 336.299 166.796 336.873L166.782 336.935H165.388L165.395 336.859C165.497 335.622 166.57 334.672 168.341 334.672C170.098 334.672 171.212 335.602 171.212 337.044V342H169.729V340.865H169.701C169.284 341.638 168.45 342.13 167.5 342.13ZM166.591 339.922C166.591 340.551 167.11 340.947 167.903 340.947C168.942 340.947 169.729 340.243 169.729 339.307V338.746L167.972 338.855C167.083 338.91 166.591 339.3 166.591 339.908V339.922ZM173.078 342V335.984H172.087V334.809H173.078V334.043C173.078 332.648 173.734 331.992 175.197 331.992C175.498 331.992 175.826 332.02 176.024 332.054V333.147C175.881 333.127 175.696 333.113 175.512 333.113C174.849 333.113 174.534 333.435 174.534 334.07V334.809H175.997V335.984H174.562V342H173.078ZM178.007 344.399C177.72 344.399 177.412 344.365 177.234 344.331V343.176C177.351 343.203 177.521 343.23 177.72 343.23C178.417 343.23 178.8 343.046 179.046 342.349L179.169 342.007L176.551 334.809H178.15L179.962 340.66H180.01L181.821 334.809H183.38L180.7 342.335C180.167 343.825 179.415 344.399 178.007 344.399ZM191.508 342.164C188.685 342.164 186.907 340.195 186.907 337.023V337.017C186.907 333.906 188.685 331.972 191.487 331.972C193.798 331.972 195.247 333.305 195.657 335.082L195.685 335.205H194.112L194.092 335.13C193.675 333.988 192.779 333.325 191.494 333.325C189.607 333.325 188.466 334.699 188.466 337.01V337.017C188.466 339.375 189.642 340.811 191.521 340.811C193.121 340.811 194.229 339.799 194.249 338.302V338.138H191.658V336.887H195.76V337.898C195.76 340.571 194.181 342.164 191.508 342.164ZM197.079 342V334.809H198.556V336.039H198.59C198.822 335.198 199.424 334.672 200.244 334.672C200.456 334.672 200.641 334.706 200.757 334.727V336.101C200.641 336.053 200.381 336.019 200.094 336.019C199.144 336.019 198.556 336.641 198.556 337.714V342H197.079ZM204.428 342.144C202.315 342.144 201.037 340.701 201.037 338.432V338.425C201.037 336.176 202.336 334.672 204.353 334.672C206.369 334.672 207.606 336.121 207.606 338.281V338.78H202.514C202.541 340.141 203.286 340.934 204.462 340.934C205.337 340.934 205.918 340.482 206.103 339.942L206.123 339.888H207.524L207.511 339.963C207.278 341.104 206.171 342.144 204.428 342.144ZM204.359 335.882C203.402 335.882 202.664 336.531 202.534 337.734H206.144C206.021 336.49 205.323 335.882 204.359 335.882ZM211.824 342.144C209.712 342.144 208.434 340.701 208.434 338.432V338.425C208.434 336.176 209.732 334.672 211.749 334.672C213.766 334.672 215.003 336.121 215.003 338.281V338.78H209.91C209.938 340.141 210.683 340.934 211.858 340.934C212.733 340.934 213.314 340.482 213.499 339.942L213.52 339.888H214.921L214.907 339.963C214.675 341.104 213.567 342.144 211.824 342.144ZM211.756 335.882C210.799 335.882 210.061 336.531 209.931 337.734H213.54C213.417 336.49 212.72 335.882 211.756 335.882ZM216.151 342V334.809H217.628V335.896H217.662C218.038 335.164 218.776 334.672 219.863 334.672C221.442 334.672 222.352 335.69 222.352 337.345V342H220.868V337.625C220.868 336.545 220.362 335.937 219.337 335.937C218.298 335.937 217.628 336.688 217.628 337.81V342H216.151ZM226.474 342.144C224.676 342.144 223.623 341.255 223.473 339.942L223.466 339.881H224.929L224.942 339.949C225.079 340.612 225.571 341.002 226.48 341.002C227.369 341.002 227.902 340.633 227.902 340.052V340.045C227.902 339.58 227.643 339.313 226.87 339.129L225.694 338.862C224.327 338.548 223.65 337.892 223.65 336.846V336.839C223.65 335.554 224.771 334.672 226.426 334.672C228.128 334.672 229.153 335.622 229.229 336.846L229.235 336.928H227.848L227.841 336.88C227.752 336.251 227.26 335.813 226.426 335.813C225.633 335.813 225.134 336.189 225.134 336.764V336.771C225.134 337.215 225.428 337.516 226.2 337.7L227.369 337.967C228.839 338.309 229.399 338.89 229.399 339.922V339.929C229.399 341.241 228.169 342.144 226.474 342.144Z" fill="#5ECC7B" style="mix-blend-mode:color-dodge"/>
<g style="mix-blend-mode:color-dodge">
<path d="M159.753 372.499C159.753 371.521 158.96 370.729 157.982 370.729C157.004 370.729 156.211 371.521 156.211 372.499" stroke="#F5C563" stroke-width="1.0625" stroke-linecap="round"/>
<path d="M151.25 366.124V372.499M153.021 365.77V369.312M154.792 365.416V369.312" stroke="#F5C563" stroke-width="1.0625" stroke-linecap="round" stroke-linejoin="round"/>
<path d="M149.836 367.187L151.253 366.965M161.169 365.416L156.565 366.135M149.836 368.958L151.253 368.869M161.169 368.249L156.565 368.537" stroke="#F5C563" stroke-width="1.0625" stroke-linecap="round" stroke-linejoin="round"/>
<path d="M150.479 372.499H160.521C161.656 372.499 162.072 372.762 161.789 373.903C161.289 375.916 159.875 376.417 158.567 377.731C158.25 378.05 158.744 378.522 158.744 378.873C158.745 379.535 158.116 379.582 157.615 379.582H153.385C152.884 379.582 152.255 379.535 152.256 378.873C152.256 378.53 152.736 378.035 152.433 377.731C151.125 376.417 149.711 375.916 149.211 373.903C148.928 372.762 149.344 372.499 150.479 372.499Z" stroke="#F5C563" stroke-width="1.0625" stroke-linejoin="round"/>
<path d="M169.909 377V367.136H173.737C175.754 367.136 177.025 368.305 177.025 370.157V370.171C177.025 371.511 176.294 372.577 175.111 372.98L177.319 377H175.556L173.546 373.213H171.44V377H169.909ZM171.44 371.955H173.587C174.77 371.955 175.446 371.306 175.446 370.185V370.171C175.446 369.077 174.722 368.421 173.546 368.421H171.44V371.955ZM180.279 377.13C178.844 377.13 177.88 376.248 177.88 374.956V374.942C177.88 373.691 178.851 372.926 180.553 372.823L182.508 372.707V372.167C182.508 371.374 181.995 370.896 181.079 370.896C180.225 370.896 179.698 371.299 179.575 371.873L179.562 371.935H178.167L178.174 371.859C178.276 370.622 179.35 369.672 181.12 369.672C182.877 369.672 183.991 370.602 183.991 372.044V377H182.508V375.865H182.48C182.063 376.638 181.229 377.13 180.279 377.13ZM179.37 374.922C179.37 375.551 179.89 375.947 180.683 375.947C181.722 375.947 182.508 375.243 182.508 374.307V373.746L180.751 373.855C179.862 373.91 179.37 374.3 179.37 374.908V374.922ZM185.427 377V369.809H186.903V370.923H186.938C187.245 370.171 187.977 369.672 188.92 369.672C189.911 369.672 190.636 370.185 190.923 371.087H190.957C191.326 370.212 192.174 369.672 193.199 369.672C194.621 369.672 195.551 370.615 195.551 372.058V377H194.067V372.413C194.067 371.477 193.568 370.937 192.693 370.937C191.818 370.937 191.21 371.593 191.21 372.502V377H189.761V372.304C189.761 371.47 189.234 370.937 188.4 370.937C187.525 370.937 186.903 371.627 186.903 372.557V377H185.427ZM200.049 377.144C197.937 377.144 196.658 375.701 196.658 373.432V373.425C196.658 371.176 197.957 369.672 199.974 369.672C201.99 369.672 203.228 371.121 203.228 373.281V373.78H198.135C198.162 375.141 198.907 375.934 200.083 375.934C200.958 375.934 201.539 375.482 201.724 374.942L201.744 374.888H203.146L203.132 374.963C202.899 376.104 201.792 377.144 200.049 377.144ZM199.98 370.882C199.023 370.882 198.285 371.531 198.155 372.734H201.765C201.642 371.49 200.944 370.882 199.98 370.882ZM204.376 377V369.809H205.853V370.896H205.887C206.263 370.164 207.001 369.672 208.088 369.672C209.667 369.672 210.576 370.69 210.576 372.345V377H209.093V372.625C209.093 371.545 208.587 370.937 207.562 370.937C206.522 370.937 205.853 371.688 205.853 372.81V377H204.376Z" fill="#F5C563"/>
</g>
</g>
<defs>
<filter id="filter0_f_5732_5660" x="-90.4653" y="123.661" width="538.438" height="538.443" filterUnits="userSpaceOnUse" color-interpolation-filters="sRGB">
<feFlood flood-opacity="0" result="BackgroundImageFix"/>
<feBlend mode="normal" in="SourceGraphic" in2="BackgroundImageFix" result="shape"/>
<feGaussianBlur stdDeviation="44.76" result="effect1_foregroundBlur_5732_5660"/>
</filter>
<linearGradient id="paint0_linear_5732_5660" x1="282.503" y1="213.229" x2="160.338" y2="583.315" gradientUnits="userSpaceOnUse">
<stop stop-color="#FA5757"/>
<stop offset="1" stop-color="#58E3F6"/>
</linearGradient>
<linearGradient id="paint1_linear_5732_5660" x1="179" y1="159" x2="179" y2="508.333" gradientUnits="userSpaceOnUse">
<stop stop-color="white"/>
<stop offset="1" stop-color="white" stop-opacity="0"/>
</linearGradient>
<clipPath id="clip0_5732_5660">
<path d="M0 24C0 12.6863 0 7.02944 3.51472 3.51472C7.02944 0 12.6863 0 24 0H334C345.314 0 350.971 0 354.485 3.51472C358 7.02944 358 12.6863 358 24V382C358 393.314 358 398.971 354.485 402.485C350.971 406 345.314 406 334 406H24C12.6863 406 7.02944 406 3.51472 402.485C0 398.971 0 393.314 0 382V24Z" fill="white"/>
</clipPath>
<clipPath id="clip1_5732_5660">
<rect width="17" height="17" fill="white" transform="translate(128 329)"/>
</clipPath>
</defs>
</svg>
