<svg width="13" height="13" viewBox="0 0 13 13" fill="none" xmlns="http://www.w3.org/2000/svg">
<path fill-rule="evenodd" clip-rule="evenodd" d="M1.00292 1.26219C0.976562 1.40368 0.976562 1.57351 0.976562 1.91318C0.976562 2.24642 0.976562 2.41305 0.995933 2.56755C1.08051 3.24218 1.43679 3.85209 1.98119 4.25419C2.10587 4.34628 2.25047 4.4272 2.53968 4.58904L4.12007 5.47342C5.28722 6.12656 5.87079 6.45312 6.50781 6.45312C7.14483 6.45312 7.7284 6.12656 8.89555 5.47343L8.89556 5.47342L10.4759 4.58904L10.476 4.58904C10.7652 4.4272 10.9098 4.34628 11.0344 4.25419C11.5788 3.85209 11.9351 3.24218 12.0197 2.56755C12.0391 2.41305 12.0391 2.24642 12.0391 1.91318C12.0391 1.57351 12.0391 1.40368 12.0127 1.26219C11.8958 0.634936 11.4087 0.144264 10.786 0.0265525C10.6455 0 10.4769 0 10.1397 0H2.87592C2.53871 0 2.3701 0 2.22963 0.0265525C1.60691 0.144264 1.11978 0.634936 1.00292 1.26219ZM4.51042 1.84375C4.51042 1.58918 4.30405 1.38281 4.04948 1.38281C3.79491 1.38281 3.58854 1.58918 3.58854 1.84375V2.45833C3.58854 2.7129 3.79491 2.91927 4.04948 2.91927C4.30405 2.91927 4.51042 2.7129 4.51042 2.45833V1.84375ZM6.96875 1.84375C6.96875 1.58918 6.76238 1.38281 6.50781 1.38281C6.25324 1.38281 6.04688 1.58918 6.04688 1.84375V3.6875C6.04688 3.94207 6.25324 4.14844 6.50781 4.14844C6.76238 4.14844 6.96875 3.94207 6.96875 3.6875V1.84375ZM9.42708 1.84375C9.42708 1.58918 9.22071 1.38281 8.96615 1.38281C8.71158 1.38281 8.50521 1.58918 8.50521 1.84375V2.45833C8.50521 2.7129 8.71158 2.91927 8.96615 2.91927C9.22071 2.91927 9.42708 2.7129 9.42708 2.45833V1.84375Z" fill="black" fill-opacity="0.8"/>
<path d="M6.98561 7.15917L7.47231 8.14061C7.53868 8.27723 7.71566 8.40827 7.86498 8.43337L8.74712 8.58114C9.31125 8.67594 9.44398 9.08859 9.03748 9.49566L8.35168 10.1871C8.23554 10.3042 8.17193 10.5301 8.20788 10.6918L8.40422 11.5478C8.55908 12.2253 8.20235 12.4874 7.60781 12.1333L6.78098 11.6398C6.63165 11.5505 6.38554 11.5505 6.23345 11.6398L5.40661 12.1333C4.81484 12.4874 4.45534 12.2225 4.6102 11.5478L4.80654 10.6918C4.84249 10.5301 4.77889 10.3042 4.66274 10.1871L3.97694 9.49566C3.57321 9.08859 3.70318 8.67594 4.2673 8.58114L5.14944 8.43337C5.296 8.40827 5.47298 8.27723 5.53935 8.14061L6.02605 7.15917C6.29152 6.62663 6.72291 6.62663 6.98561 7.15917Z" fill="black" fill-opacity="0.8"/>
</svg>
