<svg width="302" height="58" viewBox="0 0 302 58" fill="none" xmlns="http://www.w3.org/2000/svg">
<path d="M63.3856 2.86881V52.1578L59.5744 49.5344V15.441L55.5849 21.4103C55.7829 21.8162 55.9611 22.2221 56.1393 22.6378C57.5252 25.9145 58.2281 29.3892 58.2281 32.9728C58.2281 36.5564 57.5252 40.0409 56.1393 43.3077C54.9514 46.1092 53.318 48.6534 51.2688 50.8906H45.6856C46.4082 50.3264 47.1012 49.7126 47.7545 49.0494C52.0509 44.753 54.4168 39.0411 54.4168 32.9629C54.4168 30.2703 53.9515 27.6469 53.0606 25.182L35.509 51.4747V44.3175L51.1005 21.1232C50.17 19.5987 49.0514 18.1732 47.7545 16.8764C43.9136 13.0355 38.9441 10.7388 33.5886 10.2933V47.3071L33.5688 54.3851L31.6879 57.2064L29.807 54.3851V47.2081L29.7872 10.3032C24.4316 10.7487 19.4622 13.0454 15.6212 16.8863C14.3244 18.1831 13.2058 19.6086 12.2752 21.1331L27.8667 44.3274V51.4846L10.325 25.2018C9.4341 27.6667 8.96883 30.2901 8.96883 32.9827C8.96883 39.0609 11.3348 44.7728 15.6311 49.0692C16.2944 49.7324 16.9774 50.3363 17.7001 50.9104H12.1168C10.0677 48.6732 8.42436 46.1191 7.24634 43.3275C5.86043 40.0508 5.15757 36.5762 5.15757 32.9926C5.15757 29.409 5.86043 25.9244 7.24634 22.6576C7.42453 22.2419 7.60271 21.836 7.8007 21.4301L3.81126 15.441V49.5344L0 52.1578V2.86881L3.90035 8.67974L6.02871 11.8475L9.96866 17.7179C10.8497 16.4705 11.8297 15.3024 12.9286 14.2036C15.3638 11.7683 18.2049 9.84787 21.3727 8.51145C24.0555 7.37302 26.8867 6.69987 29.7971 6.49198V4.71999C23.7882 4.94768 17.9575 6.2445 12.4435 8.58075C10.8299 9.2638 9.25591 10.0261 7.73141 10.8774L5.60304 7.6997C7.33543 6.72957 9.11732 5.84852 10.9586 5.07637C17.5219 2.27485 24.491 0.869141 31.6879 0.869141C38.8847 0.869141 45.8539 2.27485 52.427 5.06647C54.2683 5.84852 56.0502 6.71967 57.7826 7.6898L55.6542 10.8675C54.1297 10.0261 52.5557 9.2638 50.9421 8.57085C45.4282 6.2346 39.5975 4.93778 33.5886 4.7101V6.48208C36.499 6.68997 39.3203 7.36313 42.003 8.50155C45.1708 9.83797 48.002 11.7584 50.4472 14.1937C51.5361 15.2826 52.526 16.4606 53.4071 17.708L57.347 11.8376L59.4754 8.66984L63.3757 2.85891L63.3856 2.86881Z" fill="white" fill-opacity="0.23" style="mix-blend-mode:lighten"/>
<path d="M63.3856 2.86881V52.1578L59.5744 49.5344V15.441L55.5849 21.4103C55.7829 21.8162 55.9611 22.2221 56.1393 22.6378C57.5252 25.9145 58.2281 29.3892 58.2281 32.9728C58.2281 36.5564 57.5252 40.0409 56.1393 43.3077C54.9514 46.1092 53.318 48.6534 51.2688 50.8906H45.6856C46.4082 50.3264 47.1012 49.7126 47.7545 49.0494C52.0509 44.753 54.4168 39.0411 54.4168 32.9629C54.4168 30.2703 53.9515 27.6469 53.0606 25.182L35.509 51.4747V44.3175L51.1005 21.1232C50.17 19.5987 49.0514 18.1732 47.7545 16.8764C43.9136 13.0355 38.9441 10.7388 33.5886 10.2933V47.3071L33.5688 54.3851L31.6879 57.2064L29.807 54.3851V47.2081L29.7872 10.3032C24.4316 10.7487 19.4622 13.0454 15.6212 16.8863C14.3244 18.1831 13.2058 19.6086 12.2752 21.1331L27.8667 44.3274V51.4846L10.325 25.2018C9.4341 27.6667 8.96883 30.2901 8.96883 32.9827C8.96883 39.0609 11.3348 44.7728 15.6311 49.0692C16.2944 49.7324 16.9774 50.3363 17.7001 50.9104H12.1168C10.0677 48.6732 8.42436 46.1191 7.24634 43.3275C5.86043 40.0508 5.15757 36.5762 5.15757 32.9926C5.15757 29.409 5.86043 25.9244 7.24634 22.6576C7.42453 22.2419 7.60271 21.836 7.8007 21.4301L3.81126 15.441V49.5344L0 52.1578V2.86881L3.90035 8.67974L6.02871 11.8475L9.96866 17.7179C10.8497 16.4705 11.8297 15.3024 12.9286 14.2036C15.3638 11.7683 18.2049 9.84787 21.3727 8.51145C24.0555 7.37302 26.8867 6.69987 29.7971 6.49198V4.71999C23.7882 4.94768 17.9575 6.2445 12.4435 8.58075C10.8299 9.2638 9.25591 10.0261 7.73141 10.8774L5.60304 7.6997C7.33543 6.72957 9.11732 5.84852 10.9586 5.07637C17.5219 2.27485 24.491 0.869141 31.6879 0.869141C38.8847 0.869141 45.8539 2.27485 52.427 5.06647C54.2683 5.84852 56.0502 6.71967 57.7826 7.6898L55.6542 10.8675C54.1297 10.0261 52.5557 9.2638 50.9421 8.57085C45.4282 6.2346 39.5975 4.93778 33.5886 4.7101V6.48208C36.499 6.68997 39.3203 7.36313 42.003 8.50155C45.1708 9.83797 48.002 11.7584 50.4472 14.1937C51.5361 15.2826 52.526 16.4606 53.4071 17.708L57.347 11.8376L59.4754 8.66984L63.3757 2.85891L63.3856 2.86881Z" fill="#545454" style="mix-blend-mode:color-dodge"/>
<path d="M102.162 10.0853C101.35 8.49145 100.192 7.25403 98.697 6.38289C97.2022 5.51174 95.4302 5.07617 93.381 5.07617C91.3319 5.07617 89.5698 5.51174 88.0651 6.37299C86.5604 7.24413 85.4021 8.47166 84.5805 10.0754C83.7588 11.6791 83.353 13.5797 83.353 15.7873V15.817C83.353 18.0245 83.7588 19.9252 84.5805 21.5289C85.3922 23.1326 86.5505 24.37 88.0552 25.2412C89.5599 26.1123 91.3319 26.5479 93.381 26.5479C95.4302 26.5479 97.222 26.1123 98.7069 25.2412C100.192 24.37 101.35 23.1326 102.162 21.5289C102.974 19.9252 103.389 18.0245 103.389 15.817V15.7873C103.389 13.5797 102.983 11.6791 102.162 10.0853ZM98.9445 15.817C98.9445 17.2425 98.7168 18.4898 98.2713 19.5391C97.8159 20.5984 97.1824 21.4101 96.3508 21.9942C95.5193 22.5783 94.5294 22.8653 93.381 22.8653C92.2327 22.8653 91.2527 22.5783 90.4211 22.0041C89.5896 21.4299 88.9461 20.6182 88.4907 19.5589C88.0354 18.4997 87.8077 17.2623 87.8077 15.817V15.7873C87.8077 14.342 88.0354 13.0947 88.4907 12.0453C88.9461 10.996 89.5995 10.1842 90.431 9.61008C91.2725 9.04582 92.2525 8.75874 93.3909 8.75874C94.5294 8.75874 95.5094 9.04582 96.3409 9.61008C97.1725 10.1842 97.8159 10.996 98.2713 12.0453C98.7267 13.1046 98.9544 14.342 98.9544 15.7873V15.817H98.9445Z" fill="white" fill-opacity="0.23" style="mix-blend-mode:lighten"/>
<path d="M102.162 10.0853C101.35 8.49145 100.192 7.25403 98.697 6.38289C97.2022 5.51174 95.4302 5.07617 93.381 5.07617C91.3319 5.07617 89.5698 5.51174 88.0651 6.37299C86.5604 7.24413 85.4021 8.47166 84.5805 10.0754C83.7588 11.6791 83.353 13.5797 83.353 15.7873V15.817C83.353 18.0245 83.7588 19.9252 84.5805 21.5289C85.3922 23.1326 86.5505 24.37 88.0552 25.2412C89.5599 26.1123 91.3319 26.5479 93.381 26.5479C95.4302 26.5479 97.222 26.1123 98.7069 25.2412C100.192 24.37 101.35 23.1326 102.162 21.5289C102.974 19.9252 103.389 18.0245 103.389 15.817V15.7873C103.389 13.5797 102.983 11.6791 102.162 10.0853ZM98.9445 15.817C98.9445 17.2425 98.7168 18.4898 98.2713 19.5391C97.8159 20.5984 97.1824 21.4101 96.3508 21.9942C95.5193 22.5783 94.5294 22.8653 93.381 22.8653C92.2327 22.8653 91.2527 22.5783 90.4211 22.0041C89.5896 21.4299 88.9461 20.6182 88.4907 19.5589C88.0354 18.4997 87.8077 17.2623 87.8077 15.817V15.7873C87.8077 14.342 88.0354 13.0947 88.4907 12.0453C88.9461 10.996 89.5995 10.1842 90.431 9.61008C91.2725 9.04582 92.2525 8.75874 93.3909 8.75874C94.5294 8.75874 95.5094 9.04582 96.3409 9.61008C97.1725 10.1842 97.8159 10.996 98.2713 12.0453C98.7267 13.1046 98.9544 14.342 98.9544 15.7873V15.817H98.9445Z" fill="#545454" style="mix-blend-mode:color-dodge"/>
<path d="M122.089 5.43262V18.9255H121.99L112.626 5.43262H108.834V26.1817H113.16V12.5998H113.249L122.654 26.1817H126.415V5.43262H122.089Z" fill="white" fill-opacity="0.23" style="mix-blend-mode:lighten"/>
<path d="M122.089 5.43262V18.9255H121.99L112.626 5.43262H108.834V26.1817H113.16V12.5998H113.249L122.654 26.1817H126.415V5.43262H122.089Z" fill="#545454" style="mix-blend-mode:color-dodge"/>
<path d="M139.948 5.43275V9.01632H145.956V26.1818H150.302V9.00642H156.311V5.42285H139.948V5.43275Z" fill="white" fill-opacity="0.23" style="mix-blend-mode:lighten"/>
<path d="M139.948 5.43275V9.01632H145.956V26.1818H150.302V9.00642H156.311V5.42285H139.948V5.43275Z" fill="#545454" style="mix-blend-mode:color-dodge"/>
<path d="M175.061 5.43262V13.857H165.716V5.43262H161.37V26.1817H165.716V17.4504H175.061V26.1817H179.407V5.43262H175.061Z" fill="white" fill-opacity="0.23" style="mix-blend-mode:lighten"/>
<path d="M175.061 5.43262V13.857H165.716V5.43262H161.37V26.1817H165.716V17.4504H175.061V26.1817H179.407V5.43262H175.061Z" fill="#545454" style="mix-blend-mode:color-dodge"/>
<path d="M199.255 9.00642V5.42285H185.504V26.1818H199.255V22.5983H189.85V17.3912H198.72V13.9858H189.85V9.00642H199.255Z" fill="white" fill-opacity="0.23" style="mix-blend-mode:lighten"/>
<path d="M199.255 9.00642V5.42285H185.504V26.1818H199.255V22.5983H189.85V17.3912H198.72V13.9858H189.85V9.00642H199.255Z" fill="#545454" style="mix-blend-mode:color-dodge"/>
<path d="M230.398 5.43262L224.518 20.351H224.429L218.529 5.43262H213.51V26.1817H217.38V12.1543H217.509L223.112 26.1817H225.844L231.438 12.1543H231.546V26.1817H235.427V5.43262H230.388H230.398Z" fill="white" fill-opacity="0.23" style="mix-blend-mode:lighten"/>
<path d="M230.398 5.43262L224.518 20.351H224.429L218.529 5.43262H213.51V26.1817H217.38V12.1543H217.509L223.112 26.1817H225.844L231.438 12.1543H231.546V26.1817H235.427V5.43262H230.388H230.398Z" fill="#545454" style="mix-blend-mode:color-dodge"/>
<path d="M259.681 10.0853C258.869 8.49145 257.711 7.25403 256.216 6.38289C254.721 5.51174 252.949 5.07617 250.9 5.07617C248.851 5.07617 247.089 5.51174 245.584 6.37299C244.079 7.24413 242.921 8.47166 242.099 10.0754C241.278 11.6791 240.872 13.5797 240.872 15.7873V15.817C240.872 18.0245 241.278 19.9252 242.099 21.5289C242.911 23.1326 244.069 24.37 245.574 25.2412C247.079 26.1123 248.851 26.5479 250.9 26.5479C252.949 26.5479 254.731 26.1123 256.226 25.2412C257.72 24.37 258.869 23.1326 259.681 21.5289C260.492 19.9252 260.908 18.0245 260.908 15.817V15.7873C260.908 13.5797 260.502 11.6791 259.681 10.0853ZM256.453 15.817C256.453 17.2425 256.226 18.4898 255.78 19.5391C255.335 20.5984 254.691 21.4101 253.86 21.9942C253.028 22.5783 252.038 22.8653 250.89 22.8653C249.742 22.8653 248.762 22.5783 247.93 22.0041C247.098 21.4299 246.445 20.6182 246 19.5589C245.544 18.4997 245.317 17.2623 245.317 15.817V15.7873C245.317 14.342 245.544 13.0947 246 12.0453C246.455 10.996 247.098 10.1842 247.94 9.61008C248.781 9.04582 249.761 8.75874 250.9 8.75874C252.038 8.75874 253.018 9.04582 253.85 9.61008C254.681 10.1842 255.335 10.996 255.78 12.0453C256.236 13.1046 256.463 14.342 256.463 15.7873V15.817H256.453Z" fill="white" fill-opacity="0.23" style="mix-blend-mode:lighten"/>
<path d="M259.681 10.0853C258.869 8.49145 257.711 7.25403 256.216 6.38289C254.721 5.51174 252.949 5.07617 250.9 5.07617C248.851 5.07617 247.089 5.51174 245.584 6.37299C244.079 7.24413 242.921 8.47166 242.099 10.0754C241.278 11.6791 240.872 13.5797 240.872 15.7873V15.817C240.872 18.0245 241.278 19.9252 242.099 21.5289C242.911 23.1326 244.069 24.37 245.574 25.2412C247.079 26.1123 248.851 26.5479 250.9 26.5479C252.949 26.5479 254.731 26.1123 256.226 25.2412C257.72 24.37 258.869 23.1326 259.681 21.5289C260.492 19.9252 260.908 18.0245 260.908 15.817V15.7873C260.908 13.5797 260.502 11.6791 259.681 10.0853ZM256.453 15.817C256.453 17.2425 256.226 18.4898 255.78 19.5391C255.335 20.5984 254.691 21.4101 253.86 21.9942C253.028 22.5783 252.038 22.8653 250.89 22.8653C249.742 22.8653 248.762 22.5783 247.93 22.0041C247.098 21.4299 246.445 20.6182 246 19.5589C245.544 18.4997 245.317 17.2623 245.317 15.817V15.7873C245.317 14.342 245.544 13.0947 246 12.0453C246.455 10.996 247.098 10.1842 247.94 9.61008C248.781 9.04582 249.761 8.75874 250.9 8.75874C252.038 8.75874 253.018 9.04582 253.85 9.61008C254.681 10.1842 255.335 10.996 255.78 12.0453C256.236 13.1046 256.463 14.342 256.463 15.7873V15.817H256.453Z" fill="#545454" style="mix-blend-mode:color-dodge"/>
<path d="M278.667 5.43262L273.935 21.7369H273.846L269.095 5.43262H264.293L271.223 26.1817H276.529L283.478 5.43262H278.657H278.667Z" fill="white" fill-opacity="0.23" style="mix-blend-mode:lighten"/>
<path d="M278.667 5.43262L273.935 21.7369H273.846L269.095 5.43262H264.293L271.223 26.1817H276.529L283.478 5.43262H278.657H278.667Z" fill="#545454" style="mix-blend-mode:color-dodge"/>
<path d="M302 9.00642V5.42285H288.25V26.1818H302V22.5983H292.596V17.3912H301.466V13.9858H292.596V9.00642H302Z" fill="white" fill-opacity="0.23" style="mix-blend-mode:lighten"/>
<path d="M302 9.00642V5.42285H288.25V26.1818H302V22.5983H292.596V17.3912H301.466V13.9858H292.596V9.00642H302Z" fill="#545454" style="mix-blend-mode:color-dodge"/>
<g opacity="0.8">
<path d="M102.36 29.4482H97.5387C97.6971 29.7056 97.8357 29.9729 97.9644 30.2699C98.4198 31.3291 98.6475 32.5665 98.6475 34.0118V34.0415C98.6475 35.4671 98.4198 36.7144 97.9743 37.7637C97.5189 38.8229 96.8854 39.6347 96.0538 40.2188C95.2223 40.8028 94.2323 41.0899 93.084 41.0899C91.9357 41.0899 90.9557 40.8028 90.1241 40.2287C89.2926 39.6545 88.6491 38.8427 88.1937 37.7835C87.7384 36.7243 87.5107 35.4869 87.5107 34.0415V34.0118C87.5107 32.5665 87.7384 31.3093 88.1937 30.2699C88.3224 29.9828 88.461 29.7155 88.6194 29.4581H83.7984C83.3133 30.7946 83.0659 32.3191 83.0659 34.0118V34.0415C83.0659 36.2491 83.4717 38.1498 84.2934 39.7634C85.1051 41.3671 86.2634 42.6045 87.7681 43.4756C89.2728 44.3468 91.0447 44.7725 93.0939 44.7725C95.1431 44.7725 96.9349 44.3369 98.4198 43.4657C99.9047 42.5946 101.063 41.3572 101.875 39.7535C102.686 38.1498 103.102 36.2491 103.102 34.0415V34.0118C103.102 32.3092 102.865 30.7946 102.37 29.4581L102.36 29.4482Z" fill="white" fill-opacity="0.23" style="mix-blend-mode:lighten"/>
<path d="M102.36 29.4482H97.5387C97.6971 29.7056 97.8357 29.9729 97.9644 30.2699C98.4198 31.3291 98.6475 32.5665 98.6475 34.0118V34.0415C98.6475 35.4671 98.4198 36.7144 97.9743 37.7637C97.5189 38.8229 96.8854 39.6347 96.0538 40.2188C95.2223 40.8028 94.2323 41.0899 93.084 41.0899C91.9357 41.0899 90.9557 40.8028 90.1241 40.2287C89.2926 39.6545 88.6491 38.8427 88.1937 37.7835C87.7384 36.7243 87.5107 35.4869 87.5107 34.0415V34.0118C87.5107 32.5665 87.7384 31.3093 88.1937 30.2699C88.3224 29.9828 88.461 29.7155 88.6194 29.4581H83.7984C83.3133 30.7946 83.0659 32.3191 83.0659 34.0118V34.0415C83.0659 36.2491 83.4717 38.1498 84.2934 39.7634C85.1051 41.3671 86.2634 42.6045 87.7681 43.4756C89.2728 44.3468 91.0447 44.7725 93.0939 44.7725C95.1431 44.7725 96.9349 44.3369 98.4198 43.4657C99.9047 42.5946 101.063 41.3572 101.875 39.7535C102.686 38.1498 103.102 36.2491 103.102 34.0415V34.0118C103.102 32.3092 102.865 30.7946 102.37 29.4581L102.36 29.4482Z" fill="#545454" style="mix-blend-mode:color-dodge"/>
<path d="M121.782 29.4482V37.14H121.683L116.338 29.4482H108.517V44.4062H112.843V30.8243H112.932L122.337 44.4062H126.098V29.4482H121.772H121.782Z" fill="white" fill-opacity="0.23" style="mix-blend-mode:lighten"/>
<path d="M121.782 29.4482V37.14H121.683L116.338 29.4482H108.517V44.4062H112.843V30.8243H112.932L122.337 44.4062H126.098V29.4482H121.772H121.782Z" fill="#545454" style="mix-blend-mode:color-dodge"/>
<path d="M145.65 29.4482V44.4062H149.996V29.4482H145.65Z" fill="white" fill-opacity="0.23" style="mix-blend-mode:lighten"/>
<path d="M145.65 29.4482V44.4062H149.996V29.4482H145.65Z" fill="#545454" style="mix-blend-mode:color-dodge"/>
<path d="M174.754 29.4482V32.0815H165.409V29.4482H161.063V44.4062H165.409V35.6749H174.754V44.4062H179.1V29.4482H174.754Z" fill="white" fill-opacity="0.23" style="mix-blend-mode:lighten"/>
<path d="M174.754 29.4482V32.0815H165.409V29.4482H161.063V44.4062H165.409V35.6749H174.754V44.4062H179.1V29.4482H174.754Z" fill="#545454" style="mix-blend-mode:color-dodge"/>
<path d="M189.543 40.8226V35.6155H198.413V32.2102H189.543V29.4482H185.198V44.4062H198.948V40.8226H189.543Z" fill="white" fill-opacity="0.23" style="mix-blend-mode:lighten"/>
<path d="M189.543 40.8226V35.6155H198.413V32.2102H189.543V29.4482H185.198V44.4062H198.948V40.8226H189.543Z" fill="#545454" style="mix-blend-mode:color-dodge"/>
<path d="M227.805 29.4482L224.211 38.5656H224.122L220.519 29.4482H213.203V44.4062H217.074V30.3788H217.202L222.795 44.4062H225.528L231.121 30.3788H231.23V44.4062H235.11V29.4482H227.795H227.805Z" fill="white" fill-opacity="0.23" style="mix-blend-mode:lighten"/>
<path d="M227.805 29.4482L224.211 38.5656H224.122L220.519 29.4482H213.203V44.4062H217.074V30.3788H217.202L222.795 44.4062H225.528L231.121 30.3788H231.23V44.4062H235.11V29.4482H227.795H227.805Z" fill="#545454" style="mix-blend-mode:color-dodge"/>
<path d="M259.879 29.4482H255.058C255.216 29.7056 255.355 29.9729 255.483 30.2699C255.939 31.3291 256.166 32.5665 256.166 34.0118V34.0415C256.166 35.4671 255.939 36.7144 255.493 37.7637C255.048 38.8229 254.404 39.6347 253.573 40.2188C252.741 40.8028 251.751 41.0899 250.603 41.0899C249.455 41.0899 248.475 40.8028 247.633 40.2287C246.802 39.6545 246.158 38.8427 245.703 37.7835C245.247 36.7243 245.02 35.4869 245.02 34.0415V34.0118C245.02 32.5665 245.247 31.3093 245.703 30.2699C245.822 29.9828 245.97 29.7155 246.119 29.4581H241.298C240.812 30.7946 240.565 32.3191 240.565 34.0118V34.0415C240.565 36.2491 240.971 38.1498 241.793 39.7634C242.604 41.3671 243.762 42.6045 245.267 43.4756C246.772 44.3468 248.544 44.7725 250.593 44.7725C252.642 44.7725 254.424 44.3369 255.919 43.4657C257.414 42.5946 258.562 41.3572 259.374 39.7535C260.186 38.1498 260.601 36.2491 260.601 34.0415V34.0118C260.601 32.3092 260.364 30.7946 259.869 29.4581L259.879 29.4482Z" fill="white" fill-opacity="0.23" style="mix-blend-mode:lighten"/>
<path d="M259.879 29.4482H255.058C255.216 29.7056 255.355 29.9729 255.483 30.2699C255.939 31.3291 256.166 32.5665 256.166 34.0118V34.0415C256.166 35.4671 255.939 36.7144 255.493 37.7637C255.048 38.8229 254.404 39.6347 253.573 40.2188C252.741 40.8028 251.751 41.0899 250.603 41.0899C249.455 41.0899 248.475 40.8028 247.633 40.2287C246.802 39.6545 246.158 38.8427 245.703 37.7835C245.247 36.7243 245.02 35.4869 245.02 34.0415V34.0118C245.02 32.5665 245.247 31.3093 245.703 30.2699C245.822 29.9828 245.97 29.7155 246.119 29.4581H241.298C240.812 30.7946 240.565 32.3191 240.565 34.0118V34.0415C240.565 36.2491 240.971 38.1498 241.793 39.7634C242.604 41.3671 243.762 42.6045 245.267 43.4756C246.772 44.3468 248.544 44.7725 250.593 44.7725C252.642 44.7725 254.424 44.3369 255.919 43.4657C257.414 42.5946 258.562 41.3572 259.374 39.7535C260.186 38.1498 260.601 36.2491 260.601 34.0415V34.0118C260.601 32.3092 260.364 30.7946 259.869 29.4581L259.879 29.4482Z" fill="#545454" style="mix-blend-mode:color-dodge"/>
<path d="M276.688 29.4482L273.639 39.9614H273.55L270.491 29.4482H265.937L270.936 44.4062H276.242L281.251 29.4482H276.688Z" fill="white" fill-opacity="0.23" style="mix-blend-mode:lighten"/>
<path d="M276.688 29.4482L273.639 39.9614H273.55L270.491 29.4482H265.937L270.936 44.4062H276.242L281.251 29.4482H276.688Z" fill="#545454" style="mix-blend-mode:color-dodge"/>
<path d="M292.299 40.8226V35.6155H301.169V32.2102H292.299V29.4482H287.953V44.4062H301.704V40.8226H292.299Z" fill="white" fill-opacity="0.23" style="mix-blend-mode:lighten"/>
<path d="M292.299 40.8226V35.6155H301.169V32.2102H292.299V29.4482H287.953V44.4062H301.704V40.8226H292.299Z" fill="#545454" style="mix-blend-mode:color-dodge"/>
</g>
<g opacity="0.6">
<path d="M97.5585 46.2969C97.1131 47.2175 96.5191 47.9303 95.7668 48.4648C94.9352 49.0489 93.9453 49.336 92.7969 49.336C91.6486 49.336 90.6686 49.0489 89.837 48.4747C89.0748 47.9501 88.4709 47.2274 88.0254 46.3068H83.3134C83.4915 46.9106 83.7192 47.4749 83.9964 48.0095C84.8082 49.6132 85.9664 50.8506 87.4711 51.7217C88.9758 52.5929 90.7478 53.0185 92.7969 53.0185C94.8461 53.0185 96.6379 52.583 98.1228 51.7118C99.6077 50.8407 100.766 49.6033 101.578 47.9996C101.845 47.465 102.073 46.9007 102.251 46.3068H97.5486L97.5585 46.2969Z" fill="white" fill-opacity="0.23" style="mix-blend-mode:lighten"/>
<path d="M97.5585 46.2969C97.1131 47.2175 96.5191 47.9303 95.7668 48.4648C94.9352 49.0489 93.9453 49.336 92.7969 49.336C91.6486 49.336 90.6686 49.0489 89.837 48.4747C89.0748 47.9501 88.4709 47.2274 88.0254 46.3068H83.3134C83.4915 46.9106 83.7192 47.4749 83.9964 48.0095C84.8082 49.6132 85.9664 50.8506 87.4711 51.7217C88.9758 52.5929 90.7478 53.0185 92.7969 53.0185C94.8461 53.0185 96.6379 52.583 98.1228 51.7118C99.6077 50.8407 100.766 49.6033 101.578 47.9996C101.845 47.465 102.073 46.9007 102.251 46.3068H97.5486L97.5585 46.2969Z" fill="#545454" style="mix-blend-mode:color-dodge"/>
<path d="M108.26 46.2969V52.6523H112.586V46.2969H108.26ZM117.684 46.2969L122.089 52.6523H125.851V46.2969H117.684Z" fill="white" fill-opacity="0.23" style="mix-blend-mode:lighten"/>
<path d="M108.26 46.2969V52.6523H112.586V46.2969H108.26ZM117.684 46.2969L122.089 52.6523H125.851V46.2969H117.684Z" fill="#545454" style="mix-blend-mode:color-dodge"/>
<path d="M145.383 46.2969V52.6523H149.728V46.2969H145.383Z" fill="white" fill-opacity="0.23" style="mix-blend-mode:lighten"/>
<path d="M145.383 46.2969V52.6523H149.728V46.2969H145.383Z" fill="#545454" style="mix-blend-mode:color-dodge"/>
<path d="M160.786 46.2969V52.6523H165.131V46.2969H160.786ZM174.476 46.2969V52.6523H178.822V46.2969H174.476Z" fill="white" fill-opacity="0.23" style="mix-blend-mode:lighten"/>
<path d="M160.786 46.2969V52.6523H165.131V46.2969H160.786ZM174.476 46.2969V52.6523H178.822V46.2969H174.476Z" fill="#545454" style="mix-blend-mode:color-dodge"/>
<path d="M189.276 49.0687V46.2969H184.93V52.6523H198.68V49.0687H189.276Z" fill="white" fill-opacity="0.23" style="mix-blend-mode:lighten"/>
<path d="M189.276 49.0687V46.2969H184.93V52.6523H198.68V49.0687H189.276Z" fill="#545454" style="mix-blend-mode:color-dodge"/>
<path d="M212.936 46.2969V52.6523H216.806V46.2969H212.936ZM224.142 46.2969L223.934 46.8116H223.845L223.637 46.2969H219.984L222.518 52.6523H225.25L227.785 46.2969H224.132H224.142ZM230.972 46.2969V52.6523H234.853V46.2969H230.972Z" fill="white" fill-opacity="0.23" style="mix-blend-mode:lighten"/>
<path d="M212.936 46.2969V52.6523H216.806V46.2969H212.936ZM224.142 46.2969L223.934 46.8116H223.845L223.637 46.2969H219.984L222.518 52.6523H225.25L227.785 46.2969H224.132H224.142ZM230.972 46.2969V52.6523H234.853V46.2969H230.972Z" fill="#545454" style="mix-blend-mode:color-dodge"/>
<path d="M255.077 46.2969C254.642 47.2175 254.038 47.9303 253.286 48.4648C252.454 49.0489 251.464 49.336 250.316 49.336C249.167 49.336 248.187 49.0489 247.346 48.4747C246.584 47.9501 245.98 47.2274 245.544 46.3068H240.832C241.01 46.9106 241.238 47.4749 241.515 48.0095C242.327 49.6132 243.485 50.8506 244.99 51.7217C246.495 52.5929 248.267 53.0185 250.316 53.0185C252.365 53.0185 254.147 52.583 255.642 51.7118C257.136 50.8407 258.285 49.6033 259.097 47.9996C259.364 47.465 259.591 46.9007 259.77 46.3068H255.067L255.077 46.2969Z" fill="white" fill-opacity="0.23" style="mix-blend-mode:lighten"/>
<path d="M255.077 46.2969C254.642 47.2175 254.038 47.9303 253.286 48.4648C252.454 49.0489 251.464 49.336 250.316 49.336C249.167 49.336 248.187 49.0489 247.346 48.4747C246.584 47.9501 245.98 47.2274 245.544 46.3068H240.832C241.01 46.9106 241.238 47.4749 241.515 48.0095C242.327 49.6132 243.485 50.8506 244.99 51.7217C246.495 52.5929 248.267 53.0185 250.316 53.0185C252.365 53.0185 254.147 52.583 255.642 51.7118C257.136 50.8407 258.285 49.6033 259.097 47.9996C259.364 47.465 259.591 46.9007 259.77 46.3068H255.067L255.077 46.2969Z" fill="#545454" style="mix-blend-mode:color-dodge"/>
<path d="M273.916 46.2969L273.361 48.2075H273.272L272.718 46.2969H268.531L270.649 52.6523H275.955L278.083 46.2969H273.906H273.916Z" fill="white" fill-opacity="0.23" style="mix-blend-mode:lighten"/>
<path d="M273.916 46.2969L273.361 48.2075H273.272L272.718 46.2969H268.531L270.649 52.6523H275.955L278.083 46.2969H273.906H273.916Z" fill="#545454" style="mix-blend-mode:color-dodge"/>
<path d="M292.022 49.0687V46.2969H287.676V52.6523H301.426V49.0687H292.022Z" fill="white" fill-opacity="0.23" style="mix-blend-mode:lighten"/>
<path d="M292.022 49.0687V46.2969H287.676V52.6523H301.426V49.0687H292.022Z" fill="#545454" style="mix-blend-mode:color-dodge"/>
</g>
</svg>
