<svg width="358" height="167" viewBox="0 0 358 167" fill="none" xmlns="http://www.w3.org/2000/svg">
<g filter="url(#filter0_d_7254_10146)">
<path fill-rule="evenodd" clip-rule="evenodd" d="M178.875 45.526C182.194 45.526 184.885 48.2166 184.885 51.5356C184.885 54.8546 182.194 57.5452 178.875 57.5452C175.556 57.5452 172.866 54.8546 172.866 51.5356C172.866 48.2166 175.556 45.526 178.875 45.526ZM192.097 51.5356C192.097 44.2338 186.177 38.3145 178.875 38.3145C171.574 38.3145 165.654 44.2338 165.654 51.5356C165.654 58.8375 171.574 64.7568 178.875 64.7568C186.177 64.7568 192.097 58.8375 192.097 51.5356ZM158.144 86.6424C158.044 87.0422 157.952 87.467 157.868 87.9178C156.974 92.6852 155.101 98.712 151.717 103.645C148.288 108.644 143.047 112.835 135.606 112.835C133.614 112.835 132 111.22 132 109.229C132 107.238 133.614 105.623 135.606 105.623C139.923 105.623 143.201 103.312 145.771 99.5654C148.386 95.753 149.992 90.7921 150.78 86.5894C151.253 84.0636 152.109 80.9571 154.301 78.418C160.246 71.5303 169.052 67.1617 178.875 67.1617C188.698 67.1617 197.504 71.5303 203.449 78.418C205.641 80.9571 206.497 84.0636 206.97 86.5894C207.758 90.7921 209.364 95.753 211.979 99.5654C214.549 103.312 217.827 105.623 222.144 105.623C224.136 105.623 225.75 107.238 225.75 109.229C225.75 111.22 224.136 112.835 222.144 112.835C214.703 112.835 209.462 108.644 206.033 103.645C202.649 98.712 200.776 92.6852 199.882 87.9178C199.745 87.1862 199.589 86.5229 199.408 85.9242C196.841 91.1285 195.047 95.5354 195.606 100.738C196.097 105.312 199.147 108.76 204.042 111.971C206.468 113.561 209.184 114.986 212.008 116.412C212.489 116.655 212.975 116.899 213.464 117.144L213.467 117.146C215.781 118.306 218.152 119.495 220.272 120.729C225.103 123.539 226.492 128.87 225.385 133.244C224.26 137.689 220.431 141.68 214.602 141.68C204.881 141.68 195.736 140.931 186.412 136.638C186.291 136.583 186.173 136.52 186.058 136.451L178.439 131.86L171.007 136.434C170.892 136.505 170.773 136.569 170.651 136.626C161.496 140.93 152.516 141.68 142.988 141.68C137.188 141.68 133.443 137.63 132.352 133.227C131.279 128.897 132.61 123.574 137.37 120.746C139.448 119.51 141.774 118.319 144.039 117.159C144.519 116.913 144.996 116.669 145.467 116.426C148.232 115 150.888 113.577 153.259 111.99C158.032 108.793 161.031 105.347 161.515 100.746C162.037 95.7746 160.465 91.5282 158.144 86.6424ZM162.946 80.0333C163.017 80.1766 163.089 80.3204 163.161 80.4648L163.161 80.4648L163.161 80.4648L163.161 80.4649C166.147 86.4562 169.551 93.2836 168.687 101.5L165.101 101.123L168.687 101.5C167.87 109.268 162.719 114.334 157.271 117.982C154.531 119.817 151.558 121.399 148.772 122.835C148.261 123.099 147.759 123.357 147.265 123.61L147.254 123.615C144.995 124.773 142.919 125.837 141.053 126.945C139.53 127.851 138.893 129.642 139.352 131.493C139.792 133.271 141.077 134.468 142.988 134.468C152.088 134.468 159.748 133.738 167.403 130.184L171.487 127.671L169.377 126.399C168.546 126.078 167.227 126.064 165.58 126.608C163.689 127.232 161.65 126.205 161.026 124.314C160.401 122.424 161.428 120.384 163.319 119.76C165.976 118.883 169.412 118.47 172.536 119.908C172.657 119.964 172.775 120.027 172.889 120.096L178.4 123.417L183.768 120.113C183.883 120.042 184.002 119.978 184.124 119.921C187.787 118.199 191.884 119.078 194.761 120.356C196.581 121.164 197.401 123.295 196.592 125.115C195.783 126.935 193.653 127.755 191.833 126.946C189.916 126.095 188.288 126.016 187.334 126.386L185.352 127.606L189.606 130.169C197.45 133.737 205.298 134.468 214.602 134.468C216.647 134.468 217.954 133.212 218.394 131.475C218.851 129.668 218.232 127.885 216.645 126.962C214.738 125.852 212.614 124.786 210.307 123.629L210.307 123.629L210.307 123.628L210.306 123.628C209.798 123.373 209.282 123.114 208.757 122.849C205.914 121.413 202.881 119.833 200.088 118.001C194.545 114.367 189.273 109.304 188.436 101.508C187.551 93.2696 191.035 86.4257 194.083 80.4393L194.084 80.4366C194.203 80.2034 194.321 79.9714 194.438 79.7407C190.149 76.3758 184.747 74.3733 178.875 74.3733C172.835 74.3733 167.292 76.4921 162.946 80.0333Z" fill="url(#paint0_linear_7254_10146)"/>
</g>
<g filter="url(#filter1_iii_7254_10146)">
<circle cx="82.001" cy="127.314" r="30" transform="rotate(22.7062 82.001 127.314)" fill="url(#paint1_radial_7254_10146)"/>
</g>
<g opacity="0.64" filter="url(#filter2_iiif_7254_10146)">
<circle cx="89.5" cy="68.8145" r="18.5" fill="url(#paint2_radial_7254_10146)"/>
</g>
<g opacity="0.7" filter="url(#filter3_iiif_7254_10146)">
<circle cx="255.5" cy="46.8145" r="33.5" fill="url(#paint3_radial_7254_10146)"/>
</g>
<g filter="url(#filter4_iii_7254_10146)">
<circle cx="269.999" cy="111.315" r="24" transform="rotate(18.4359 269.999 111.315)" fill="url(#paint4_radial_7254_10146)"/>
</g>
<g opacity="0.6" filter="url(#filter5_iiif_7254_10146)">
<circle cx="352" cy="61.3145" r="26" fill="url(#paint5_radial_7254_10146)"/>
</g>
<g filter="url(#filter6_iiif_7254_10146)">
<circle cx="150.999" cy="20.3148" r="15" transform="rotate(28.2655 150.999 20.3148)" fill="url(#paint6_radial_7254_10146)"/>
</g>
<g opacity="0.8" filter="url(#filter7_iiif_7254_10146)">
<circle cx="340" cy="129.314" r="28" fill="url(#paint7_radial_7254_10146)"/>
</g>
<g opacity="0.5" filter="url(#filter8_iiif_7254_10146)">
<circle cx="16" cy="53.3145" r="23" fill="url(#paint8_radial_7254_10146)"/>
</g>
<defs>
<filter id="filter0_d_7254_10146" x="132" y="38.3145" width="95.75" height="105.865" filterUnits="userSpaceOnUse" color-interpolation-filters="sRGB">
<feFlood flood-opacity="0" result="BackgroundImageFix"/>
<feColorMatrix in="SourceAlpha" type="matrix" values="0 0 0 0 0 0 0 0 0 0 0 0 0 0 0 0 0 0 127 0" result="hardAlpha"/>
<feOffset dx="2" dy="2.5"/>
<feComposite in2="hardAlpha" operator="out"/>
<feColorMatrix type="matrix" values="0 0 0 0 0.0227114 0 0 0 0 0.0091571 0 0 0 0 0.105973 0 0 0 1 0"/>
<feBlend mode="normal" in2="BackgroundImageFix" result="effect1_dropShadow_7254_10146"/>
<feBlend mode="normal" in="SourceGraphic" in2="effect1_dropShadow_7254_10146" result="shape"/>
</filter>
<filter id="filter1_iii_7254_10146" x="49.3136" y="94.6281" width="66.4442" height="64.8371" filterUnits="userSpaceOnUse" color-interpolation-filters="sRGB">
<feFlood flood-opacity="0" result="BackgroundImageFix"/>
<feBlend mode="normal" in="SourceGraphic" in2="BackgroundImageFix" result="shape"/>
<feColorMatrix in="SourceAlpha" type="matrix" values="0 0 0 0 0 0 0 0 0 0 0 0 0 0 0 0 0 0 127 0" result="hardAlpha"/>
<feOffset dx="-2.67857" dy="2.14286"/>
<feGaussianBlur stdDeviation="2.54464"/>
<feComposite in2="hardAlpha" operator="arithmetic" k2="-1" k3="1"/>
<feColorMatrix type="matrix" values="0 0 0 0 1 0 0 0 0 1 0 0 0 0 1 0 0 0 0.37 0"/>
<feBlend mode="normal" in2="shape" result="effect1_innerShadow_7254_10146"/>
<feColorMatrix in="SourceAlpha" type="matrix" values="0 0 0 0 0 0 0 0 0 0 0 0 0 0 0 0 0 0 127 0" result="hardAlpha"/>
<feOffset dx="-1.07143" dy="1.07143"/>
<feGaussianBlur stdDeviation="0.669643"/>
<feComposite in2="hardAlpha" operator="arithmetic" k2="-1" k3="1"/>
<feColorMatrix type="matrix" values="0 0 0 0 1 0 0 0 0 1 0 0 0 0 1 0 0 0 0.52 0"/>
<feBlend mode="normal" in2="effect1_innerShadow_7254_10146" result="effect2_innerShadow_7254_10146"/>
<feColorMatrix in="SourceAlpha" type="matrix" values="0 0 0 0 0 0 0 0 0 0 0 0 0 0 0 0 0 0 127 0" result="hardAlpha"/>
<feOffset dx="3.75" dy="-2.67857"/>
<feGaussianBlur stdDeviation="2.67857"/>
<feComposite in2="hardAlpha" operator="arithmetic" k2="-1" k3="1"/>
<feColorMatrix type="matrix" values="0 0 0 0 0.452898 0 0 0 0 0.487466 0 0 0 0 0.893636 0 0 0 0.35 0"/>
<feBlend mode="normal" in2="effect2_innerShadow_7254_10146" result="effect3_innerShadow_7254_10146"/>
</filter>
<filter id="filter2_iiif_7254_10146" x="68.5" y="47.8145" width="42.375" height="42" filterUnits="userSpaceOnUse" color-interpolation-filters="sRGB">
<feFlood flood-opacity="0" result="BackgroundImageFix"/>
<feBlend mode="normal" in="SourceGraphic" in2="BackgroundImageFix" result="shape"/>
<feColorMatrix in="SourceAlpha" type="matrix" values="0 0 0 0 0 0 0 0 0 0 0 0 0 0 0 0 0 0 127 0" result="hardAlpha"/>
<feOffset dx="-2.05357" dy="1.64286"/>
<feGaussianBlur stdDeviation="1.95089"/>
<feComposite in2="hardAlpha" operator="arithmetic" k2="-1" k3="1"/>
<feColorMatrix type="matrix" values="0 0 0 0 1 0 0 0 0 1 0 0 0 0 1 0 0 0 0.37 0"/>
<feBlend mode="normal" in2="shape" result="effect1_innerShadow_7254_10146"/>
<feColorMatrix in="SourceAlpha" type="matrix" values="0 0 0 0 0 0 0 0 0 0 0 0 0 0 0 0 0 0 127 0" result="hardAlpha"/>
<feOffset dx="-0.821429" dy="0.821429"/>
<feGaussianBlur stdDeviation="0.513393"/>
<feComposite in2="hardAlpha" operator="arithmetic" k2="-1" k3="1"/>
<feColorMatrix type="matrix" values="0 0 0 0 1 0 0 0 0 1 0 0 0 0 1 0 0 0 0.52 0"/>
<feBlend mode="normal" in2="effect1_innerShadow_7254_10146" result="effect2_innerShadow_7254_10146"/>
<feColorMatrix in="SourceAlpha" type="matrix" values="0 0 0 0 0 0 0 0 0 0 0 0 0 0 0 0 0 0 127 0" result="hardAlpha"/>
<feOffset dx="2.875" dy="-2.05357"/>
<feGaussianBlur stdDeviation="2.05357"/>
<feComposite in2="hardAlpha" operator="arithmetic" k2="-1" k3="1"/>
<feColorMatrix type="matrix" values="0 0 0 0 0.452898 0 0 0 0 0.487466 0 0 0 0 0.893636 0 0 0 0.35 0"/>
<feBlend mode="normal" in2="effect2_innerShadow_7254_10146" result="effect3_innerShadow_7254_10146"/>
<feGaussianBlur stdDeviation="1.25" result="effect4_foregroundBlur_7254_10146"/>
</filter>
<filter id="filter3_iiif_7254_10146" x="210.5" y="1.81445" width="90" height="90" filterUnits="userSpaceOnUse" color-interpolation-filters="sRGB">
<feFlood flood-opacity="0" result="BackgroundImageFix"/>
<feBlend mode="normal" in="SourceGraphic" in2="BackgroundImageFix" result="shape"/>
<feColorMatrix in="SourceAlpha" type="matrix" values="0 0 0 0 0 0 0 0 0 0 0 0 0 0 0 0 0 0 127 0" result="hardAlpha"/>
<feOffset dx="-2.99107" dy="2.39286"/>
<feGaussianBlur stdDeviation="2.84152"/>
<feComposite in2="hardAlpha" operator="arithmetic" k2="-1" k3="1"/>
<feColorMatrix type="matrix" values="0 0 0 0 1 0 0 0 0 1 0 0 0 0 1 0 0 0 0.37 0"/>
<feBlend mode="normal" in2="shape" result="effect1_innerShadow_7254_10146"/>
<feColorMatrix in="SourceAlpha" type="matrix" values="0 0 0 0 0 0 0 0 0 0 0 0 0 0 0 0 0 0 127 0" result="hardAlpha"/>
<feOffset dx="-1.19643" dy="1.19643"/>
<feGaussianBlur stdDeviation="0.747768"/>
<feComposite in2="hardAlpha" operator="arithmetic" k2="-1" k3="1"/>
<feColorMatrix type="matrix" values="0 0 0 0 1 0 0 0 0 1 0 0 0 0 1 0 0 0 0.52 0"/>
<feBlend mode="normal" in2="effect1_innerShadow_7254_10146" result="effect2_innerShadow_7254_10146"/>
<feColorMatrix in="SourceAlpha" type="matrix" values="0 0 0 0 0 0 0 0 0 0 0 0 0 0 0 0 0 0 127 0" result="hardAlpha"/>
<feOffset dx="4.1875" dy="-2.99107"/>
<feGaussianBlur stdDeviation="2.99107"/>
<feComposite in2="hardAlpha" operator="arithmetic" k2="-1" k3="1"/>
<feColorMatrix type="matrix" values="0 0 0 0 0.452898 0 0 0 0 0.487466 0 0 0 0 0.893636 0 0 0 0.35 0"/>
<feBlend mode="normal" in2="effect2_innerShadow_7254_10146" result="effect3_innerShadow_7254_10146"/>
<feGaussianBlur stdDeviation="5.75" result="effect4_foregroundBlur_7254_10146"/>
</filter>
<filter id="filter4_iii_7254_10146" x="243.849" y="85.1657" width="53.1546" height="51.8708" filterUnits="userSpaceOnUse" color-interpolation-filters="sRGB">
<feFlood flood-opacity="0" result="BackgroundImageFix"/>
<feBlend mode="normal" in="SourceGraphic" in2="BackgroundImageFix" result="shape"/>
<feColorMatrix in="SourceAlpha" type="matrix" values="0 0 0 0 0 0 0 0 0 0 0 0 0 0 0 0 0 0 127 0" result="hardAlpha"/>
<feOffset dx="-2.14286" dy="1.71429"/>
<feGaussianBlur stdDeviation="2.03571"/>
<feComposite in2="hardAlpha" operator="arithmetic" k2="-1" k3="1"/>
<feColorMatrix type="matrix" values="0 0 0 0 1 0 0 0 0 1 0 0 0 0 1 0 0 0 0.37 0"/>
<feBlend mode="normal" in2="shape" result="effect1_innerShadow_7254_10146"/>
<feColorMatrix in="SourceAlpha" type="matrix" values="0 0 0 0 0 0 0 0 0 0 0 0 0 0 0 0 0 0 127 0" result="hardAlpha"/>
<feOffset dx="-0.857143" dy="0.857143"/>
<feGaussianBlur stdDeviation="0.535714"/>
<feComposite in2="hardAlpha" operator="arithmetic" k2="-1" k3="1"/>
<feColorMatrix type="matrix" values="0 0 0 0 1 0 0 0 0 1 0 0 0 0 1 0 0 0 0.52 0"/>
<feBlend mode="normal" in2="effect1_innerShadow_7254_10146" result="effect2_innerShadow_7254_10146"/>
<feColorMatrix in="SourceAlpha" type="matrix" values="0 0 0 0 0 0 0 0 0 0 0 0 0 0 0 0 0 0 127 0" result="hardAlpha"/>
<feOffset dx="3" dy="-2.14286"/>
<feGaussianBlur stdDeviation="2.14286"/>
<feComposite in2="hardAlpha" operator="arithmetic" k2="-1" k3="1"/>
<feColorMatrix type="matrix" values="0 0 0 0 0.452898 0 0 0 0 0.487466 0 0 0 0 0.893636 0 0 0 0.35 0"/>
<feBlend mode="normal" in2="effect2_innerShadow_7254_10146" result="effect3_innerShadow_7254_10146"/>
</filter>
<filter id="filter5_iiif_7254_10146" x="319.34" y="28.6545" width="65.32" height="65.32" filterUnits="userSpaceOnUse" color-interpolation-filters="sRGB">
<feFlood flood-opacity="0" result="BackgroundImageFix"/>
<feBlend mode="normal" in="SourceGraphic" in2="BackgroundImageFix" result="shape"/>
<feColorMatrix in="SourceAlpha" type="matrix" values="0 0 0 0 0 0 0 0 0 0 0 0 0 0 0 0 0 0 127 0" result="hardAlpha"/>
<feOffset dx="-2.32143" dy="1.85714"/>
<feGaussianBlur stdDeviation="2.20536"/>
<feComposite in2="hardAlpha" operator="arithmetic" k2="-1" k3="1"/>
<feColorMatrix type="matrix" values="0 0 0 0 1 0 0 0 0 1 0 0 0 0 1 0 0 0 0.37 0"/>
<feBlend mode="normal" in2="shape" result="effect1_innerShadow_7254_10146"/>
<feColorMatrix in="SourceAlpha" type="matrix" values="0 0 0 0 0 0 0 0 0 0 0 0 0 0 0 0 0 0 127 0" result="hardAlpha"/>
<feOffset dx="-0.928571" dy="0.928571"/>
<feGaussianBlur stdDeviation="0.580357"/>
<feComposite in2="hardAlpha" operator="arithmetic" k2="-1" k3="1"/>
<feColorMatrix type="matrix" values="0 0 0 0 1 0 0 0 0 1 0 0 0 0 1 0 0 0 0.52 0"/>
<feBlend mode="normal" in2="effect1_innerShadow_7254_10146" result="effect2_innerShadow_7254_10146"/>
<feColorMatrix in="SourceAlpha" type="matrix" values="0 0 0 0 0 0 0 0 0 0 0 0 0 0 0 0 0 0 127 0" result="hardAlpha"/>
<feOffset dx="3.25" dy="-2.32143"/>
<feGaussianBlur stdDeviation="2.32143"/>
<feComposite in2="hardAlpha" operator="arithmetic" k2="-1" k3="1"/>
<feColorMatrix type="matrix" values="0 0 0 0 0.452898 0 0 0 0 0.487466 0 0 0 0 0.893636 0 0 0 0.35 0"/>
<feBlend mode="normal" in2="effect2_innerShadow_7254_10146" result="effect3_innerShadow_7254_10146"/>
<feGaussianBlur stdDeviation="3.33" result="effect4_foregroundBlur_7254_10146"/>
</filter>
<filter id="filter6_iiif_7254_10146" x="134.657" y="3.97321" width="33.2182" height="32.4166" filterUnits="userSpaceOnUse" color-interpolation-filters="sRGB">
<feFlood flood-opacity="0" result="BackgroundImageFix"/>
<feBlend mode="normal" in="SourceGraphic" in2="BackgroundImageFix" result="shape"/>
<feColorMatrix in="SourceAlpha" type="matrix" values="0 0 0 0 0 0 0 0 0 0 0 0 0 0 0 0 0 0 127 0" result="hardAlpha"/>
<feOffset dx="-1.33929" dy="1.07143"/>
<feGaussianBlur stdDeviation="1.27232"/>
<feComposite in2="hardAlpha" operator="arithmetic" k2="-1" k3="1"/>
<feColorMatrix type="matrix" values="0 0 0 0 1 0 0 0 0 1 0 0 0 0 1 0 0 0 0.37 0"/>
<feBlend mode="normal" in2="shape" result="effect1_innerShadow_7254_10146"/>
<feColorMatrix in="SourceAlpha" type="matrix" values="0 0 0 0 0 0 0 0 0 0 0 0 0 0 0 0 0 0 127 0" result="hardAlpha"/>
<feOffset dx="-0.535714" dy="0.535714"/>
<feGaussianBlur stdDeviation="0.334821"/>
<feComposite in2="hardAlpha" operator="arithmetic" k2="-1" k3="1"/>
<feColorMatrix type="matrix" values="0 0 0 0 1 0 0 0 0 1 0 0 0 0 1 0 0 0 0.52 0"/>
<feBlend mode="normal" in2="effect1_innerShadow_7254_10146" result="effect2_innerShadow_7254_10146"/>
<feColorMatrix in="SourceAlpha" type="matrix" values="0 0 0 0 0 0 0 0 0 0 0 0 0 0 0 0 0 0 127 0" result="hardAlpha"/>
<feOffset dx="1.875" dy="-1.33929"/>
<feGaussianBlur stdDeviation="1.33929"/>
<feComposite in2="hardAlpha" operator="arithmetic" k2="-1" k3="1"/>
<feColorMatrix type="matrix" values="0 0 0 0 0.452898 0 0 0 0 0.487466 0 0 0 0 0.893636 0 0 0 0.35 0"/>
<feBlend mode="normal" in2="effect2_innerShadow_7254_10146" result="effect3_innerShadow_7254_10146"/>
<feGaussianBlur stdDeviation="0.335821" result="effect4_foregroundBlur_7254_10146"/>
</filter>
<filter id="filter7_iiif_7254_10146" x="305.25" y="94.5645" width="69.5" height="69.5" filterUnits="userSpaceOnUse" color-interpolation-filters="sRGB">
<feFlood flood-opacity="0" result="BackgroundImageFix"/>
<feBlend mode="normal" in="SourceGraphic" in2="BackgroundImageFix" result="shape"/>
<feColorMatrix in="SourceAlpha" type="matrix" values="0 0 0 0 0 0 0 0 0 0 0 0 0 0 0 0 0 0 127 0" result="hardAlpha"/>
<feOffset dx="-2.5" dy="2"/>
<feGaussianBlur stdDeviation="2.375"/>
<feComposite in2="hardAlpha" operator="arithmetic" k2="-1" k3="1"/>
<feColorMatrix type="matrix" values="0 0 0 0 1 0 0 0 0 1 0 0 0 0 1 0 0 0 0.37 0"/>
<feBlend mode="normal" in2="shape" result="effect1_innerShadow_7254_10146"/>
<feColorMatrix in="SourceAlpha" type="matrix" values="0 0 0 0 0 0 0 0 0 0 0 0 0 0 0 0 0 0 127 0" result="hardAlpha"/>
<feOffset dx="-1" dy="1"/>
<feGaussianBlur stdDeviation="0.625"/>
<feComposite in2="hardAlpha" operator="arithmetic" k2="-1" k3="1"/>
<feColorMatrix type="matrix" values="0 0 0 0 1 0 0 0 0 1 0 0 0 0 1 0 0 0 0.52 0"/>
<feBlend mode="normal" in2="effect1_innerShadow_7254_10146" result="effect2_innerShadow_7254_10146"/>
<feColorMatrix in="SourceAlpha" type="matrix" values="0 0 0 0 0 0 0 0 0 0 0 0 0 0 0 0 0 0 127 0" result="hardAlpha"/>
<feOffset dx="3.5" dy="-2.5"/>
<feGaussianBlur stdDeviation="2.5"/>
<feComposite in2="hardAlpha" operator="arithmetic" k2="-1" k3="1"/>
<feColorMatrix type="matrix" values="0 0 0 0 0.452898 0 0 0 0 0.487466 0 0 0 0 0.893636 0 0 0 0.35 0"/>
<feBlend mode="normal" in2="effect2_innerShadow_7254_10146" result="effect3_innerShadow_7254_10146"/>
<feGaussianBlur stdDeviation="3.375" result="effect4_foregroundBlur_7254_10146"/>
</filter>
<filter id="filter8_iiif_7254_10146" x="-11" y="26.3145" width="54" height="54" filterUnits="userSpaceOnUse" color-interpolation-filters="sRGB">
<feFlood flood-opacity="0" result="BackgroundImageFix"/>
<feBlend mode="normal" in="SourceGraphic" in2="BackgroundImageFix" result="shape"/>
<feColorMatrix in="SourceAlpha" type="matrix" values="0 0 0 0 0 0 0 0 0 0 0 0 0 0 0 0 0 0 127 0" result="hardAlpha"/>
<feOffset dx="-2.05357" dy="1.64286"/>
<feGaussianBlur stdDeviation="1.95089"/>
<feComposite in2="hardAlpha" operator="arithmetic" k2="-1" k3="1"/>
<feColorMatrix type="matrix" values="0 0 0 0 1 0 0 0 0 1 0 0 0 0 1 0 0 0 0.37 0"/>
<feBlend mode="normal" in2="shape" result="effect1_innerShadow_7254_10146"/>
<feColorMatrix in="SourceAlpha" type="matrix" values="0 0 0 0 0 0 0 0 0 0 0 0 0 0 0 0 0 0 127 0" result="hardAlpha"/>
<feOffset dx="-0.821429" dy="0.821429"/>
<feGaussianBlur stdDeviation="0.513393"/>
<feComposite in2="hardAlpha" operator="arithmetic" k2="-1" k3="1"/>
<feColorMatrix type="matrix" values="0 0 0 0 1 0 0 0 0 1 0 0 0 0 1 0 0 0 0.52 0"/>
<feBlend mode="normal" in2="effect1_innerShadow_7254_10146" result="effect2_innerShadow_7254_10146"/>
<feColorMatrix in="SourceAlpha" type="matrix" values="0 0 0 0 0 0 0 0 0 0 0 0 0 0 0 0 0 0 127 0" result="hardAlpha"/>
<feOffset dx="2.875" dy="-2.05357"/>
<feGaussianBlur stdDeviation="2.05357"/>
<feComposite in2="hardAlpha" operator="arithmetic" k2="-1" k3="1"/>
<feColorMatrix type="matrix" values="0 0 0 0 0.452898 0 0 0 0 0.487466 0 0 0 0 0.893636 0 0 0 0.35 0"/>
<feBlend mode="normal" in2="effect2_innerShadow_7254_10146" result="effect3_innerShadow_7254_10146"/>
<feGaussianBlur stdDeviation="2" result="effect4_foregroundBlur_7254_10146"/>
</filter>
<linearGradient id="paint0_linear_7254_10146" x1="131.787" y1="75.4614" x2="227.622" y2="83.8033" gradientUnits="userSpaceOnUse">
<stop stop-color="#D6B6F0"/>
<stop offset="0.76" stop-color="#848CE9"/>
</linearGradient>
<radialGradient id="paint1_radial_7254_10146" cx="0" cy="0" r="1" gradientUnits="userSpaceOnUse" gradientTransform="translate(107.715 111.242) rotate(143.973) scale(51.0055 40.6004)">
<stop stop-color="#ACB1ED"/>
<stop offset="1" stop-color="#2C3383"/>
</radialGradient>
<radialGradient id="paint2_radial_7254_10146" cx="0" cy="0" r="1" gradientUnits="userSpaceOnUse" gradientTransform="translate(105.357 58.9037) rotate(143.973) scale(31.4534 25.0369)">
<stop stop-color="#ACB1ED"/>
<stop offset="1" stop-color="#2C3383"/>
</radialGradient>
<radialGradient id="paint3_radial_7254_10146" cx="0" cy="0" r="1" gradientUnits="userSpaceOnUse" gradientTransform="translate(284.214 28.868) rotate(143.973) scale(56.9562 45.3371)">
<stop stop-color="#ACB1ED"/>
<stop offset="1" stop-color="#2C3383"/>
</radialGradient>
<radialGradient id="paint4_radial_7254_10146" cx="0" cy="0" r="1" gradientUnits="userSpaceOnUse" gradientTransform="translate(290.57 98.458) rotate(143.973) scale(40.8044 32.4803)">
<stop stop-color="#ACB1ED"/>
<stop offset="1" stop-color="#2C3383"/>
</radialGradient>
<radialGradient id="paint5_radial_7254_10146" cx="0" cy="0" r="1" gradientUnits="userSpaceOnUse" gradientTransform="translate(374.286 47.3859) rotate(143.973) scale(44.2048 35.187)">
<stop stop-color="#ACB1ED"/>
<stop offset="1" stop-color="#2C3383"/>
</radialGradient>
<radialGradient id="paint6_radial_7254_10146" cx="0" cy="0" r="1" gradientUnits="userSpaceOnUse" gradientTransform="translate(163.856 12.2791) rotate(143.973) scale(25.5028 20.3002)">
<stop stop-color="#ACB1ED"/>
<stop offset="1" stop-color="#2C3383"/>
</radialGradient>
<radialGradient id="paint7_radial_7254_10146" cx="0" cy="0" r="1" gradientUnits="userSpaceOnUse" gradientTransform="translate(364 114.314) rotate(143.973) scale(47.6051 37.8937)">
<stop stop-color="#ACB1ED"/>
<stop offset="1" stop-color="#2C3383"/>
</radialGradient>
<radialGradient id="paint8_radial_7254_10146" cx="0" cy="0" r="1" gradientUnits="userSpaceOnUse" gradientTransform="translate(35.7143 40.993) rotate(143.973) scale(39.1042 31.127)">
<stop stop-color="#ACB1ED"/>
<stop offset="1" stop-color="#2C3383"/>
</radialGradient>
</defs>
</svg>
