<svg width="49" height="48" viewBox="0 0 49 48" fill="none" xmlns="http://www.w3.org/2000/svg">
<path d="M17.0982 4.06196C21.6298 0.79836 27.7662 0.798357 32.2979 4.06195L42.6943 11.5492C47.226 14.8128 49.1222 20.5976 47.3913 25.8782L43.4202 37.9928C41.6892 43.2734 36.7248 46.8487 31.1234 46.8487H18.2727C12.6712 46.8487 7.70682 43.2734 5.97587 37.9928L2.0048 25.8783C0.27385 20.5976 2.17009 14.8128 6.70177 11.5492L17.0982 4.06196Z" fill="url(#paint0_linear_3459_7164)"/>
<path d="M17.2091 3.81116C21.6213 0.633588 27.5977 0.633585 32.0099 3.81115L42.8535 11.6204C47.2638 14.7966 49.1053 20.4221 47.423 25.5544L43.2811 38.19C41.5983 43.3238 36.7686 46.8067 31.3112 46.8067H17.9079C12.4505 46.8067 7.62075 43.3238 5.93795 38.19L1.79609 25.5544C0.113761 20.4221 1.95525 14.7966 6.36557 11.6204L17.2091 3.81116Z" stroke="url(#paint1_linear_3459_7164)" stroke-width="1.80127"/>
<path d="M17.345 4.86901C21.6793 1.74016 27.5486 1.74016 31.883 4.869L41.9111 12.1081C46.2453 15.2368 48.0586 20.7822 46.4033 25.844L42.5729 37.557C40.9175 42.619 36.1696 46.0468 30.8117 46.0468H18.4162C13.0584 46.0468 8.31047 42.619 6.65512 37.5571L2.8247 25.844C1.16938 20.7822 2.98264 15.2368 7.31682 12.1081L17.345 4.86901Z" stroke="url(#paint2_linear_3459_7164)" stroke-width="0.210757"/>
<path d="M17.407 5.04848C21.7037 1.94742 27.522 1.94741 31.8187 5.04848L41.7489 12.2154C46.0455 15.3163 47.843 20.8126 46.2021 25.8295L42.4091 37.4258C40.7681 42.4429 36.0613 45.8402 30.75 45.8402H18.4757C13.1644 45.8402 8.45765 42.4429 6.81665 37.4258L3.02366 25.8296C1.38269 20.8126 3.18025 15.3164 7.47681 12.2154L17.407 5.04848Z" stroke="url(#paint3_linear_3459_7164)" stroke-width="0.181691"/>
<g style="mix-blend-mode:soft-light" clip-path="url(#clip0_3459_7164)">
<path d="M35.5416 13.4894L35.5389 30.6842L33.9873 29.6222V18.5703L32.9267 20.1454C32.982 20.2611 33.0347 20.3782 33.0841 20.4939C33.559 21.6074 33.7999 22.7897 33.7999 24.0083C33.7999 25.227 33.559 26.4093 33.0841 27.5228C32.6785 28.4737 32.1161 29.3412 31.413 30.1016L31.3737 30.1446H29.0416L29.3451 29.9085C29.5846 29.7221 29.816 29.5184 30.0335 29.3028C31.4604 27.8891 32.2462 26.0086 32.2462 24.0083C32.2462 23.2155 32.1235 22.4399 31.8813 21.6973L25.8562 30.6445V27.7708L25.8789 27.7377L31.1002 20.0383C30.7987 19.5615 30.4398 19.1165 30.0335 18.7132C28.8047 17.4958 27.1904 16.7341 25.4733 16.5595L25.4687 31.2211L24.6995 32.3624L23.931 31.2211L23.9297 28.7752L23.9257 16.5595C22.2086 16.7341 20.5943 17.4958 19.3655 18.7132C18.9593 19.1165 18.6004 19.5622 18.2989 20.0383L23.5428 27.7708V30.6445L17.5177 21.6973C17.2756 22.4399 17.1535 23.2155 17.1535 24.0083C17.1535 26.0086 17.9393 27.8891 19.3655 29.3028C19.583 29.5177 19.8145 29.7214 20.054 29.9085L20.3575 30.1446H18.0254L17.986 30.1016C17.2829 29.3412 16.7205 28.4737 16.315 27.5228C15.84 26.4093 15.5992 25.227 15.5992 24.0083C15.5992 22.7897 15.84 21.6074 16.315 20.4939C16.3643 20.3775 16.4177 20.2605 16.4724 20.1454L15.4124 18.5703V29.6222L13.8601 30.6842L13.8574 13.4894L17.3656 18.6622C17.6371 18.2972 17.9393 17.9488 18.2668 17.6241C19.1034 16.7949 20.0773 16.1443 21.162 15.6893C22.0432 15.3197 22.9724 15.0922 23.925 15.0122V14.6796C21.9625 14.7682 20.0506 15.1974 18.2442 15.9551C17.7058 16.1806 17.1742 16.4372 16.6652 16.7162L16.5578 16.7751L15.6899 15.4923L15.8153 15.4222C16.403 15.0949 17.0161 14.7967 17.6391 14.5361C19.8778 13.5972 22.2533 13.1211 24.6995 13.1211C27.1457 13.1211 29.5212 13.5972 31.7599 14.5361C32.383 14.7967 32.996 15.0949 33.5837 15.4222L33.7098 15.4923L32.8413 16.7751L32.7339 16.7162C32.2249 16.4372 31.6932 16.1806 31.1549 15.9551C29.3498 15.198 27.4386 14.7689 25.474 14.6796V15.0122C26.4273 15.0922 27.3558 15.3197 28.2377 15.6893C29.3217 16.1443 30.2957 16.7949 31.1322 17.6241C31.4597 17.9481 31.7619 18.2972 32.0334 18.6622L35.5416 13.4894Z" fill="black"/>
</g>
<g style="mix-blend-mode:soft-light" opacity="0.9">
<path d="M11.9551 36.9639H11.3393V34.769H12.1713L12.4989 35.6339L12.6398 36.2006H12.6824L12.8331 35.6339L13.1246 34.769H13.9567V36.9639H13.3408V36.1613L13.3769 35.6895H13.3343L13.2 36.194L13.0231 36.7346H12.2729L12.096 36.194L11.9584 35.6895H11.9158L11.9551 36.1613V36.9639ZM16.0184 36.9966C15.3206 36.9966 14.9144 36.5511 14.9144 35.8664C14.9144 35.1818 15.3206 34.7363 16.0184 34.7363C16.7129 34.7363 17.1191 35.1818 17.1191 35.8664C17.1191 36.5511 16.7129 36.9966 16.0184 36.9966ZM16.0184 36.3971C16.3558 36.3971 16.4574 36.289 16.4574 35.8664C16.4574 35.4439 16.3558 35.3357 16.0184 35.3357C15.6777 35.3357 15.5762 35.4439 15.5762 35.8664C15.5762 36.289 15.6777 36.3971 16.0184 36.3971ZM19.4025 36.9639H18.554L17.8038 34.769H18.4983L18.9635 36.2759H19.0061L19.4614 34.769H20.1559L19.4025 36.9639ZM22.7688 36.9639H20.9965V34.769H22.7688V35.3226H21.6124V35.588H22.7196V36.1383H21.6124V36.4102H22.7688V36.9639ZM24.7764 36.9966C24.0688 36.9966 23.6855 36.5511 23.6855 35.8664C23.6855 35.1818 24.0688 34.7363 24.7764 34.7363C25.4709 34.7363 25.8083 35.0966 25.8083 35.6076V35.683H25.1498V35.6732C25.1498 35.4209 25.0679 35.3357 24.7633 35.3357C24.4488 35.3357 24.3472 35.4111 24.3472 35.8664C24.3472 36.3218 24.4488 36.3971 24.7633 36.3971C25.0679 36.3971 25.1498 36.312 25.1498 36.0597V36.0499H25.8083V36.1252C25.8083 36.6363 25.4709 36.9966 24.7764 36.9966ZM27.8411 36.9966C27.1434 36.9966 26.7372 36.5511 26.7372 35.8664C26.7372 35.1818 27.1434 34.7363 27.8411 34.7363C28.5356 34.7363 28.9418 35.1818 28.9418 35.8664C28.9418 36.5511 28.5356 36.9966 27.8411 36.9966ZM27.8411 36.3971C28.1786 36.3971 28.2801 36.289 28.2801 35.8664C28.2801 35.4439 28.1786 35.3357 27.8411 35.3357C27.5004 35.3357 27.3989 35.4439 27.3989 35.8664C27.3989 36.289 27.5004 36.3971 27.8411 36.3971ZM30.5082 36.9639H29.8923V34.769H30.5082V36.9639ZM32.1619 36.9639H31.546V34.769H32.2044L32.817 35.7551L32.9612 36.0237H33.0038L32.971 35.7551V34.769H33.5836V36.9639H32.9284L32.3486 36.0499L32.1717 35.7387H32.1291L32.1619 36.0499V36.9639ZM35.5218 36.9966C34.8928 36.9966 34.5783 36.7018 34.5783 36.2432V36.2006H35.1843V36.2268C35.1843 36.407 35.2499 36.443 35.5447 36.443C35.7773 36.443 35.8264 36.407 35.8264 36.312C35.8264 36.2104 35.7937 36.1777 35.643 36.1547L35.1647 36.0794C34.7192 36.0106 34.5357 35.7747 34.5357 35.434C34.5357 35.0442 34.8338 34.7363 35.4792 34.7363C36.0918 34.7363 36.3833 35.0442 36.3833 35.4537V35.5094H35.7773V35.4701C35.7773 35.3423 35.715 35.2899 35.4399 35.2899C35.2073 35.2899 35.1483 35.3292 35.1483 35.4111C35.1483 35.4799 35.1909 35.5094 35.3187 35.5323L35.7969 35.6175C36.2621 35.6994 36.4423 35.9418 36.4423 36.2825C36.4423 36.6658 36.1802 36.9966 35.5218 36.9966Z" fill="black"/>
</g>
<defs>
<linearGradient id="paint0_linear_3459_7164" x1="9.93108" y1="43.3652" x2="47.8606" y2="14.8217" gradientUnits="userSpaceOnUse">
<stop stop-color="#513E61"/>
<stop offset="0.442708" stop-color="#9274AA"/>
<stop offset="1" stop-color="#EBD2FF"/>
</linearGradient>
<linearGradient id="paint1_linear_3459_7164" x1="-0.242065" y1="41.6413" x2="45.4144" y2="9.66288" gradientUnits="userSpaceOnUse">
<stop stop-color="#061116"/>
<stop offset="0.189073" stop-color="#4B5358"/>
<stop offset="0.517162" stop-color="#767A7D"/>
<stop offset="0.646318" stop-color="#E7F3F9"/>
<stop offset="1" stop-color="#2D363A"/>
</linearGradient>
<linearGradient id="paint2_linear_3459_7164" x1="4.86337" y1="5.33267" x2="42.9212" y2="47.236" gradientUnits="userSpaceOnUse">
<stop stop-color="#D1D1D1"/>
<stop offset="1" stop-color="white"/>
</linearGradient>
<linearGradient id="paint3_linear_3459_7164" x1="7.90224" y1="0.909707" x2="42.9856" y2="51.5587" gradientUnits="userSpaceOnUse">
<stop stop-color="#424242"/>
<stop offset="1" stop-color="#8E8E8E"/>
</linearGradient>
<clipPath id="clip0_3459_7164">
<rect width="21.6842" height="19.2413" fill="white" transform="translate(13.8574 13.1211)"/>
</clipPath>
</defs>
</svg>
