<svg width="19" height="15" viewBox="0 0 19 15" fill="#5ECC7B" xmlns="http://www.w3.org/2000/svg">
<path id="Vector" d="M0 11.6154C0 11.8135 0.0682513 11.9741 0.204754 12.0972C0.341257 12.2203 0.519247 12.2819 0.738722 12.2819H2.56947C3.23325 12.2819 3.78863 12.1721 4.23561 11.9526C4.68259 11.7332 5.14964 11.3425 5.63677 10.7804L10.5027 5.10345C10.7329 4.83579 10.9564 4.62167 11.1732 4.46109C11.39 4.30049 11.6175 4.18406 11.8556 4.11179C12.0939 4.03953 12.3602 4.0034 12.6546 4.0034H14.2926V5.81808C14.2926 5.97868 14.3368 6.10314 14.4251 6.19146C14.5135 6.27978 14.6406 6.32394 14.8065 6.32394C14.8815 6.32394 14.9551 6.31056 15.0274 6.2838C15.0996 6.25703 15.1652 6.21956 15.2241 6.17138L18.2592 3.65812C18.3877 3.55106 18.452 3.42527 18.452 3.28073C18.452 3.1362 18.3877 3.00773 18.2592 2.89531L15.2241 0.374024C15.1652 0.325847 15.0996 0.289714 15.0274 0.265625C14.9551 0.241537 14.8815 0.229492 14.8065 0.229492C14.6406 0.229492 14.5135 0.272317 14.4251 0.357965C14.3368 0.443614 14.2926 0.566735 14.2926 0.727326V2.66246H12.6145C11.9453 2.66246 11.386 2.7722 10.9363 2.99167C10.4867 3.21115 10.0209 3.60192 9.53917 4.16399L4.68125 9.84091C4.3333 10.2478 4.00274 10.5341 3.68959 10.7001C3.37644 10.866 3.01645 10.949 2.60962 10.949H0.738722C0.519247 10.949 0.341257 11.0105 0.204754 11.1336C0.0682513 11.2568 0 11.4174 0 11.6154ZM0 3.33694C0 3.53501 0.0682513 3.6956 0.204754 3.81872C0.341257 3.94184 0.519247 4.0034 0.738722 4.0034H2.60962C3.0218 4.0034 3.38313 4.08637 3.69361 4.25231C4.00408 4.41826 4.3333 4.70464 4.68125 5.11148L9.53917 10.7884C10.0209 11.3504 10.4867 11.7399 10.9363 11.9567C11.386 12.1735 11.9453 12.2819 12.6145 12.2819H14.2926V14.2732C14.2926 14.4338 14.3368 14.5569 14.4251 14.6426C14.5135 14.7282 14.6406 14.7711 14.8065 14.7711C14.8815 14.7711 14.9551 14.759 15.0274 14.7349C15.0996 14.7108 15.1652 14.6747 15.2241 14.6265L18.2592 12.1133C18.3877 12.0062 18.452 11.8804 18.452 11.7359C18.452 11.5914 18.3877 11.4629 18.2592 11.3504L15.2241 8.82916C15.1652 8.78098 15.0996 8.74351 15.0274 8.71676C14.9551 8.69001 14.8815 8.67664 14.8065 8.67664C14.6406 8.67664 14.5135 8.72079 14.4251 8.8091C14.3368 8.89741 14.2926 9.02186 14.2926 9.18247V10.949H12.6546C12.2156 10.949 11.8342 10.866 11.5104 10.7001C11.1865 10.5341 10.8506 10.2478 10.5027 9.84091L5.63677 4.16399C5.14964 3.60192 4.68259 3.21248 4.23561 2.99568C3.78863 2.77888 3.23325 2.67048 2.56947 2.67048H0.738722C0.519247 2.67048 0.341257 2.73071 0.204754 2.85115C0.0682513 2.97159 0 3.13352 0 3.33694Z" fill="#5ECC7B"/>
</svg>
