<svg width="45" height="35" viewBox="0 0 45 35" fill="none" xmlns="http://www.w3.org/2000/svg">
<path d="M27.3031 3.99922C27.3031 4.99333 26.4972 5.79922 25.5031 5.79922C24.509 5.79922 23.7031 4.99333 23.7031 3.99922C23.7031 3.00511 24.509 2.19922 25.5031 2.19922C26.4972 2.19922 27.3031 3.00511 27.3031 3.99922Z" stroke="#929292" stroke-width="1.5"/>
<path d="M25.3346 15.4L26.467 14.7448C27.7566 13.9987 28.4014 13.6257 28.4886 13.094C28.5022 13.011 28.5057 12.9269 28.4991 12.8432C28.4569 12.3075 27.8452 11.8946 26.6218 11.0689L20.9734 7.25631C18.755 5.75892 18.2445 3.02936 19.8035 1" stroke="#929292" stroke-width="1.5" stroke-linecap="round" stroke-linejoin="round"/>
<path d="M20.9711 7.25631C17.9711 10.2563 16.5 18.5588 16.5 22.6004M20.9711 7.25631C18.7526 5.75892 18.2422 3.02936 19.8012 1M20.9711 7.25631L24.147 9.4M25.3322 15.4L26.4647 14.7448C27.7543 13.9987 28.3991 13.6257 28.4862 13.094C28.4998 13.011 28.5034 12.9269 28.4968 12.8432C28.4546 12.3075 27.8429 11.8946 26.6195 11.0689L24.147 9.4M26.1002 22.6004C24.9322 21.2377 23.7309 19.36 22.5602 17.6294C21.74 16.4169 21.3299 15.8107 21.2814 15.1759M24.147 9.4C23.1837 10.6469 22.5197 11.8249 22.0231 12.8731C21.4963 13.9851 21.2329 14.5411 21.2814 15.1759M21.2814 15.1759L17.7 14.2" stroke="#929292" stroke-width="1.5" stroke-linecap="round" stroke-linejoin="round"/>
<path d="M0.219105 26.4545H1.41761L3.50142 31.5426H3.57812L5.66193 26.4545H6.86044V33H5.92081V28.2635H5.86009L3.92969 32.9904H3.14986L1.21946 28.2603H1.15874V33H0.219105V26.4545ZM10.2874 33.0991C9.82715 33.0991 9.42551 32.9936 9.08248 32.7827C8.73944 32.5717 8.4731 32.2766 8.28347 31.8974C8.09384 31.5181 7.99902 31.0749 7.99902 30.5678C7.99902 30.0586 8.09384 29.6133 8.28347 29.2319C8.4731 28.8505 8.73944 28.5543 9.08248 28.3434C9.42551 28.1325 9.82715 28.027 10.2874 28.027C10.7476 28.027 11.1492 28.1325 11.4923 28.3434C11.8353 28.5543 12.1017 28.8505 12.2913 29.2319C12.4809 29.6133 12.5757 30.0586 12.5757 30.5678C12.5757 31.0749 12.4809 31.5181 12.2913 31.8974C12.1017 32.2766 11.8353 32.5717 11.4923 32.7827C11.1492 32.9936 10.7476 33.0991 10.2874 33.0991ZM10.2906 32.2969C10.5889 32.2969 10.836 32.218 11.032 32.0604C11.2281 31.9027 11.373 31.6928 11.4667 31.4308C11.5626 31.1687 11.6105 30.88 11.6105 30.5646C11.6105 30.2514 11.5626 29.9638 11.4667 29.7017C11.373 29.4375 11.2281 29.2255 11.032 29.0657C10.836 28.9059 10.5889 28.826 10.2906 28.826C9.99015 28.826 9.74086 28.9059 9.5427 29.0657C9.34668 29.2255 9.20073 29.4375 9.10485 29.7017C9.0111 29.9638 8.96422 30.2514 8.96422 30.5646C8.96422 30.88 9.0111 31.1687 9.10485 31.4308C9.20073 31.6928 9.34668 31.9027 9.5427 32.0604C9.74086 32.218 9.99015 32.2969 10.2906 32.2969ZM17.675 28.0909L15.8948 33H14.8721L13.0887 28.0909H14.1146L15.3579 31.8686H15.409L16.6491 28.0909H17.675ZM20.5218 33.0991C20.0382 33.0991 19.6216 32.9957 19.2722 32.7891C18.9249 32.5803 18.6564 32.2873 18.4668 31.9102C18.2793 31.5309 18.1855 31.0866 18.1855 30.5774C18.1855 30.0746 18.2793 29.6314 18.4668 29.2479C18.6564 28.8643 18.9206 28.565 19.2594 28.3498C19.6003 28.1346 19.9988 28.027 20.4547 28.027C20.7317 28.027 21.0002 28.0728 21.2601 28.1644C21.5201 28.256 21.7534 28.3999 21.96 28.5959C22.1667 28.7919 22.3297 29.0465 22.449 29.3597C22.5684 29.6708 22.628 30.049 22.628 30.4943V30.8331H18.7257V30.1172H21.6916C21.6916 29.8658 21.6404 29.6431 21.5382 29.4492C21.4359 29.2532 21.2921 29.0987 21.1067 28.9858C20.9235 28.8729 20.7083 28.8164 20.4611 28.8164C20.1926 28.8164 19.9583 28.8825 19.758 29.0146C19.5598 29.1445 19.4064 29.315 19.2978 29.5259C19.1912 29.7347 19.138 29.9616 19.138 30.2067V30.766C19.138 31.0941 19.1955 31.3732 19.3105 31.6033C19.4277 31.8335 19.5907 32.0092 19.7995 32.1307C20.0083 32.25 20.2523 32.3097 20.5314 32.3097C20.7125 32.3097 20.8777 32.2841 21.0268 32.233C21.176 32.1797 21.3049 32.1009 21.4135 31.9964C21.5222 31.892 21.6053 31.7631 21.6628 31.6097L22.5673 31.7727C22.4949 32.0391 22.3649 32.2724 22.1774 32.4727C21.992 32.6708 21.7587 32.8253 21.4775 32.9361C21.1983 33.0447 20.8798 33.0991 20.5218 33.0991ZM23.6883 33V28.0909H24.6056V28.8899H24.6663C24.7686 28.6193 24.9358 28.4084 25.1681 28.2571C25.4003 28.1037 25.6784 28.027 26.0022 28.027C26.3303 28.027 26.6052 28.1037 26.8268 28.2571C27.0505 28.4105 27.2156 28.6214 27.3222 28.8899H27.3733C27.4905 28.6278 27.6769 28.419 27.9326 28.2635C28.1883 28.1058 28.493 28.027 28.8467 28.027C29.292 28.027 29.6553 28.1665 29.9365 28.4457C30.2199 28.7248 30.3616 29.1456 30.3616 29.7081V33H29.406V29.7976C29.406 29.4652 29.3154 29.2244 29.1343 29.0753C28.9532 28.9261 28.7369 28.8516 28.4855 28.8516C28.1744 28.8516 27.9326 28.9474 27.76 29.1392C27.5874 29.3288 27.5012 29.5728 27.5012 29.8711V33H26.5487V29.7369C26.5487 29.4705 26.4656 29.2564 26.2994 29.0945C26.1333 28.9325 25.917 28.8516 25.6507 28.8516C25.4695 28.8516 25.3023 28.8995 25.1489 28.9954C24.9976 29.0891 24.8751 29.2202 24.7813 29.3885C24.6897 29.5568 24.6439 29.7518 24.6439 29.9734V33H23.6883ZM33.7582 33.0991C33.2745 33.0991 32.858 32.9957 32.5085 32.7891C32.1612 32.5803 31.8928 32.2873 31.7031 31.9102C31.5156 31.5309 31.4219 31.0866 31.4219 30.5774C31.4219 30.0746 31.5156 29.6314 31.7031 29.2479C31.8928 28.8643 32.157 28.565 32.4957 28.3498C32.8366 28.1346 33.2351 28.027 33.6911 28.027C33.968 28.027 34.2365 28.0728 34.4964 28.1644C34.7564 28.256 34.9897 28.3999 35.1964 28.5959C35.4031 28.7919 35.5661 29.0465 35.6854 29.3597C35.8047 29.6708 35.8643 30.049 35.8643 30.4943V30.8331H31.962V30.1172H34.9279C34.9279 29.8658 34.8768 29.6431 34.7745 29.4492C34.6722 29.2532 34.5284 29.0987 34.343 28.9858C34.1598 28.8729 33.9446 28.8164 33.6974 28.8164C33.429 28.8164 33.1946 28.8825 32.9943 29.0146C32.7962 29.1445 32.6428 29.315 32.5341 29.5259C32.4276 29.7347 32.3743 29.9616 32.3743 30.2067V30.766C32.3743 31.0941 32.4318 31.3732 32.5469 31.6033C32.6641 31.8335 32.8271 32.0092 33.0359 32.1307C33.2447 32.25 33.4886 32.3097 33.7678 32.3097C33.9489 32.3097 34.114 32.2841 34.2631 32.233C34.4123 32.1797 34.5412 32.1009 34.6499 31.9964C34.7585 31.892 34.8416 31.7631 34.8991 31.6097L35.8036 31.7727C35.7312 32.0391 35.6012 32.2724 35.4137 32.4727C35.2283 32.6708 34.995 32.8253 34.7138 32.9361C34.4347 33.0447 34.1161 33.0991 33.7582 33.0991ZM37.8802 30.0852V33H36.9246V28.0909H37.8419V28.8899H37.9026C38.0155 28.63 38.1924 28.4212 38.4331 28.2635C38.676 28.1058 38.9818 28.027 39.3504 28.027C39.6849 28.027 39.9779 28.0973 40.2293 28.2379C40.4807 28.3764 40.6757 28.5831 40.8142 28.858C40.9527 29.1328 41.0219 29.4727 41.0219 29.8775V33H40.0663V29.9925C40.0663 29.6367 39.9736 29.3587 39.7883 29.1584C39.6029 28.956 39.3483 28.8548 39.0244 28.8548C38.8028 28.8548 38.6057 28.9027 38.4331 28.9986C38.2627 29.0945 38.1274 29.2351 38.0273 29.4205C37.9292 29.6037 37.8802 29.8253 37.8802 30.0852ZM44.5951 28.0909V28.858H41.9136V28.0909H44.5951ZM42.6327 26.9148H43.5883V31.5586C43.5883 31.744 43.616 31.8835 43.6714 31.9773C43.7268 32.0689 43.7982 32.1317 43.8856 32.1658C43.9751 32.1978 44.072 32.2138 44.1764 32.2138C44.2531 32.2138 44.3202 32.2085 44.3778 32.1978C44.4353 32.1871 44.48 32.1786 44.512 32.1722L44.6846 32.9616C44.6292 32.983 44.5503 33.0043 44.4481 33.0256C44.3458 33.049 44.218 33.0618 44.0645 33.0639C43.8131 33.0682 43.5787 33.0234 43.3614 32.9297C43.1441 32.8359 42.9683 32.6911 42.8341 32.495C42.6998 32.299 42.6327 32.0529 42.6327 31.7567V26.9148Z" fill="#929292"/>
</svg>
