<svg width="46" height="35" viewBox="0 0 46 35" fill="none" xmlns="http://www.w3.org/2000/svg">
<path d="M28.3031 3.99922C28.3031 4.99333 27.4972 5.79922 26.5031 5.79922C25.509 5.79922 24.7031 4.99333 24.7031 3.99922C24.7031 3.00511 25.509 2.19922 26.5031 2.19922C27.4972 2.19922 28.3031 3.00511 28.3031 3.99922Z" stroke="#DDF988" stroke-width="1.8"/>
<path d="M26.3346 15.4L27.467 14.7448C28.7566 13.9987 29.4014 13.6257 29.4886 13.094C29.5022 13.011 29.5057 12.9269 29.4991 12.8432C29.4569 12.3075 28.8452 11.8946 27.6218 11.0689L21.9734 7.25631C19.755 5.75892 19.2445 3.02936 20.8035 1" stroke="#DDF988" stroke-width="1.8" stroke-linecap="round" stroke-linejoin="round"/>
<path d="M21.9711 7.25631C18.9711 10.2563 17.5 18.5588 17.5 22.6004M21.9711 7.25631C19.7526 5.75892 19.2422 3.02936 20.8012 1M21.9711 7.25631L25.147 9.4M26.3322 15.4L27.4647 14.7448C28.7543 13.9987 29.3991 13.6257 29.4862 13.094C29.4998 13.011 29.5034 12.9269 29.4968 12.8432C29.4546 12.3075 28.8429 11.8946 27.6195 11.0689L25.147 9.4M27.1002 22.6004C25.9322 21.2377 24.7309 19.36 23.5602 17.6294C22.74 16.4169 22.3299 15.8107 22.2814 15.1759M25.147 9.4C24.1837 10.6469 23.5197 11.8249 23.0231 12.8731C22.4963 13.9851 22.2329 14.5411 22.2814 15.1759M22.2814 15.1759L18.7 14.2" stroke="#DDF988" stroke-width="1.8" stroke-linecap="round" stroke-linejoin="round"/>
<path d="M0.645597 26.4545H2.09659L4.03977 31.1974H4.11648L6.05966 26.4545H7.51065V33H6.37287V28.5032H6.31214L4.5032 32.9808H3.65305L1.84411 28.4936H1.78338V33H0.645597V26.4545ZM10.892 33.0959C10.4126 33.0959 9.99716 32.9904 9.6456 32.7795C9.29403 32.5685 9.02131 32.2734 8.82741 31.8942C8.63565 31.5149 8.53977 31.0717 8.53977 30.5646C8.53977 30.0575 8.63565 29.6133 8.82741 29.2319C9.02131 28.8505 9.29403 28.5543 9.6456 28.3434C9.99716 28.1325 10.4126 28.027 10.892 28.027C11.3714 28.027 11.7869 28.1325 12.1385 28.3434C12.4901 28.5543 12.7617 28.8505 12.9535 29.2319C13.1474 29.6133 13.2443 30.0575 13.2443 30.5646C13.2443 31.0717 13.1474 31.5149 12.9535 31.8942C12.7617 32.2734 12.4901 32.5685 12.1385 32.7795C11.7869 32.9904 11.3714 33.0959 10.892 33.0959ZM10.8984 32.169C11.1584 32.169 11.3757 32.0977 11.5504 31.9549C11.7251 31.81 11.8551 31.6161 11.9403 31.3732C12.0277 31.1303 12.0714 30.8597 12.0714 30.5614C12.0714 30.261 12.0277 29.9893 11.9403 29.7464C11.8551 29.5014 11.7251 29.3065 11.5504 29.1616C11.3757 29.0167 11.1584 28.9442 10.8984 28.9442C10.6321 28.9442 10.4105 29.0167 10.2337 29.1616C10.0589 29.3065 9.92791 29.5014 9.84055 29.7464C9.75533 29.9893 9.71271 30.261 9.71271 30.5614C9.71271 30.8597 9.75533 31.1303 9.84055 31.3732C9.92791 31.6161 10.0589 31.81 10.2337 31.9549C10.4105 32.0977 10.6321 32.169 10.8984 32.169ZM18.4442 28.0909L16.696 33H15.4176L13.6694 28.0909H14.9031L16.0312 31.7376H16.0824L17.2138 28.0909H18.4442ZM21.2512 33.0959C20.759 33.0959 20.3339 32.9936 19.9759 32.7891C19.6201 32.5824 19.3463 32.2905 19.1546 31.9134C18.9628 31.5341 18.8669 31.0877 18.8669 30.5742C18.8669 30.0692 18.9628 29.6261 19.1546 29.2447C19.3485 28.8612 19.6191 28.5629 19.9664 28.3498C20.3137 28.1346 20.7217 28.027 21.1904 28.027C21.493 28.027 21.7785 28.076 22.047 28.174C22.3176 28.2699 22.5562 28.419 22.7629 28.6214C22.9717 28.8239 23.1357 29.0817 23.2551 29.3949C23.3744 29.706 23.434 30.0767 23.434 30.5071V30.8619H19.4102V30.082H22.325C22.3229 29.8604 22.2749 29.6634 22.1812 29.4908C22.0874 29.3161 21.9564 29.1786 21.7881 29.0785C21.6219 28.9783 21.428 28.9283 21.2064 28.9283C20.9699 28.9283 20.7622 28.9858 20.5832 29.1009C20.4042 29.2138 20.2646 29.3629 20.1645 29.5483C20.0665 29.7315 20.0164 29.9329 20.0143 30.1523V30.8331C20.0143 31.1186 20.0665 31.3636 20.1709 31.5682C20.2753 31.7706 20.4213 31.9261 20.6088 32.0348C20.7963 32.1413 21.0157 32.1946 21.2671 32.1946C21.4355 32.1946 21.5878 32.1712 21.7242 32.1243C21.8605 32.0753 21.9788 32.0039 22.0789 31.9102C22.1791 31.8164 22.2547 31.7003 22.3058 31.5618L23.3861 31.6832C23.3179 31.9687 23.1879 32.218 22.9962 32.4311C22.8066 32.642 22.5637 32.8061 22.2675 32.9233C21.9713 33.0384 21.6325 33.0959 21.2512 33.0959ZM24.4128 33V28.0909H25.5186V28.9251H25.5762C25.6784 28.6438 25.8478 28.4244 26.0843 28.2667C26.3208 28.1069 26.6032 28.027 26.9313 28.027C27.2637 28.027 27.5439 28.108 27.7718 28.2699C28.002 28.4297 28.1639 28.6481 28.2576 28.9251H28.3088C28.4174 28.6523 28.6007 28.435 28.8585 28.2731C29.1184 28.109 29.4263 28.027 29.7821 28.027C30.2338 28.027 30.6025 28.1697 30.888 28.4553C31.1735 28.7408 31.3162 29.1573 31.3162 29.7049V33H30.1561V29.8839C30.1561 29.5792 30.0751 29.3565 29.9132 29.2159C29.7512 29.0732 29.5531 29.0018 29.3187 29.0018C29.0396 29.0018 28.8212 29.0891 28.6635 29.2638C28.508 29.4364 28.4302 29.6612 28.4302 29.9382V33H27.2956V29.8359C27.2956 29.5824 27.2189 29.38 27.0655 29.2287C26.9142 29.0774 26.7161 29.0018 26.4711 29.0018C26.3049 29.0018 26.1536 29.0444 26.0172 29.1296C25.8809 29.2127 25.7722 29.331 25.6912 29.4844C25.6103 29.6357 25.5698 29.8125 25.5698 30.0149V33H24.4128ZM34.6633 33.0959C34.1711 33.0959 33.746 32.9936 33.3881 32.7891C33.0322 32.5824 32.7584 32.2905 32.5667 31.9134C32.3749 31.5341 32.279 31.0877 32.279 30.5742C32.279 30.0692 32.3749 29.6261 32.5667 29.2447C32.7606 28.8612 33.0312 28.5629 33.3785 28.3498C33.7258 28.1346 34.1338 28.027 34.6025 28.027C34.9051 28.027 35.1906 28.076 35.4591 28.174C35.7297 28.2699 35.9683 28.419 36.175 28.6214C36.3838 28.8239 36.5479 29.0817 36.6672 29.3949C36.7865 29.706 36.8461 30.0767 36.8461 30.5071V30.8619H32.8224V30.082H35.7371C35.735 29.8604 35.6871 29.6634 35.5933 29.4908C35.4996 29.3161 35.3685 29.1786 35.2002 29.0785C35.034 28.9783 34.8401 28.9283 34.6185 28.9283C34.382 28.9283 34.1743 28.9858 33.9953 29.1009C33.8163 29.2138 33.6768 29.3629 33.5766 29.5483C33.4786 29.7315 33.4285 29.9329 33.4264 30.1523V30.8331C33.4264 31.1186 33.4786 31.3636 33.583 31.5682C33.6874 31.7706 33.8334 31.9261 34.0209 32.0348C34.2084 32.1413 34.4278 32.1946 34.6792 32.1946C34.8476 32.1946 34.9999 32.1712 35.1363 32.1243C35.2726 32.0753 35.3909 32.0039 35.491 31.9102C35.5912 31.8164 35.6668 31.7003 35.718 31.5618L36.7982 31.6832C36.73 31.9687 36.6001 32.218 36.4083 32.4311C36.2187 32.642 35.9758 32.8061 35.6796 32.9233C35.3834 33.0384 35.0447 33.0959 34.6633 33.0959ZM38.9819 30.1236V33H37.8249V28.0909H38.9308V28.9251H38.9883C39.1012 28.6502 39.2813 28.4318 39.5284 28.2699C39.7777 28.108 40.0856 28.027 40.4521 28.027C40.7908 28.027 41.0859 28.0994 41.3374 28.2443C41.5909 28.3892 41.7869 28.5991 41.9254 28.8739C42.0661 29.1488 42.1353 29.4822 42.1332 29.8743V33H40.9762V30.0533C40.9762 29.7251 40.891 29.4684 40.7205 29.283C40.5522 29.0977 40.3189 29.005 40.0206 29.005C39.8182 29.005 39.6381 29.0497 39.4805 29.1392C39.3249 29.2266 39.2024 29.3533 39.1129 29.5195C39.0256 29.6857 38.9819 29.8871 38.9819 30.1236ZM45.7607 28.0909V28.9858H42.9386V28.0909H45.7607ZM43.6353 26.9148H44.7923V31.5234C44.7923 31.679 44.8157 31.7983 44.8626 31.8814C44.9116 31.9624 44.9755 32.0178 45.0543 32.0476C45.1332 32.0774 45.2205 32.0923 45.3164 32.0923C45.3888 32.0923 45.4549 32.087 45.5146 32.0763C45.5763 32.0657 45.6232 32.0561 45.6552 32.0476L45.8501 32.9521C45.7884 32.9734 45.6999 32.9968 45.5849 33.0224C45.4719 33.0479 45.3335 33.0629 45.1694 33.0671C44.8796 33.0756 44.6186 33.032 44.3864 32.9361C44.1541 32.8381 43.9698 32.6868 43.8335 32.4822C43.6992 32.2777 43.6332 32.022 43.6353 31.7152V26.9148Z" fill="#DDF988"/>
</svg>
