<svg width="78" height="110" viewBox="0 0 78 110" fill="none" xmlns="http://www.w3.org/2000/svg">
<path fill-rule="evenodd" clip-rule="evenodd" d="M48.3655 6.31466C48.4682 5.51395 48.277 4.67394 47.7643 3.96982C46.6993 2.50713 44.6502 2.18475 43.1875 3.24977C33.5073 10.2981 31.5439 22.6703 37.6206 32.6303C29.789 38.1713 22.413 48.071 16.4088 58.258C9.53251 69.9247 4.06606 82.6487 1.48591 91.4101C0.974779 93.1457 1.96745 94.9671 3.7031 95.4783C5.43876 95.9894 7.26014 94.9967 7.77128 93.2611C10.0671 85.4653 14.9323 73.9791 21.141 63.1545L30.3829 68.8516C30.3911 70.0462 30.5705 71.2496 30.847 72.4981C31.2919 74.507 32.0575 76.9104 32.9889 79.8342L33.0348 79.9784C33.5168 81.4916 34.0012 83.0388 34.4904 84.6014L34.4905 84.6017L34.4905 84.6017C36.7637 91.8625 39.1412 99.4562 41.8673 105.525C42.6087 107.175 44.5477 107.912 46.1982 107.171C47.8487 106.429 48.5856 104.49 47.8441 102.84C45.2943 97.1634 43.0646 90.0477 40.7922 82.7957L40.791 82.7918C40.29 81.1931 39.787 79.5877 39.278 77.9897C38.2894 74.8861 37.6173 72.7659 37.2442 71.0813C36.8815 69.4434 36.8773 68.5227 37.0296 67.8088C37.3881 66.1287 38.4183 64.8304 42.2192 60.5729C44.952 57.5116 48.2624 54.231 52.4305 50.9603L58.7361 58.5899C60.8492 61.1468 62.2243 62.8207 63.052 64.1308C63.1409 64.2716 63.2186 64.4007 63.2863 64.519L63.6329 65.8708L63.6309 65.8735C63.6295 65.8754 63.6269 65.8786 63.623 65.8832C63.6084 65.9 63.5648 65.9463 63.4674 66.0176C63.2553 66.1727 62.8644 66.3916 62.1565 66.6604C60.6857 67.2188 58.5551 67.7423 55.3041 68.5313L49.7503 69.8793C47.992 70.306 46.9125 72.0774 47.3393 73.8357C47.7661 75.594 49.5374 76.6734 51.2957 76.2467L56.8495 74.8987L57.0604 74.8475L57.0606 74.8475C60.0426 74.1239 62.5803 73.5081 64.4823 72.786C66.4207 72.05 68.467 70.9339 69.5361 68.714C69.8097 68.146 70.0137 67.5478 70.1439 66.9304C70.6553 64.5048 69.6945 62.3774 68.5914 60.6313C67.5125 58.9234 65.8609 56.9253 63.927 54.5855L63.927 54.5855L63.7867 54.4158L59.3069 48.9953L48.3655 6.31466ZM63.2866 64.5194C63.2865 64.5193 63.2864 64.5191 63.2863 64.519L59.3067 48.9951L59.3069 48.9953L63.2866 64.5194ZM63.2866 64.5194C63.5219 64.9303 63.6383 65.211 63.6932 65.3954C63.7254 65.5038 63.7306 65.5601 63.7316 65.5759L63.7318 65.5822C63.7107 65.6812 63.6778 65.7775 63.633 65.8707L63.2866 64.5194ZM59.3067 48.9951L48.3655 6.31466C48.2548 7.1773 47.8029 7.99433 47.0443 8.54667C39.6557 13.9264 38.4801 23.7953 44.8231 31.4703L55.4858 44.3719L59.3067 48.9951ZM24.5255 57.5437C29.9294 49.0379 35.862 41.8262 41.592 37.8459L48.2551 45.9082C43.7962 49.4213 40.2484 52.9417 37.3313 56.2093C37.1756 56.3837 37.0217 56.5558 36.8695 56.7259C35.0346 58.7776 33.4662 60.5313 32.3285 62.3538L24.5255 57.5437ZM60.8983 24.21C61.6139 21.7801 64.1638 20.3904 66.5938 21.106C69.0237 21.8216 70.4134 24.3715 69.6978 26.8014C68.9822 29.2313 66.4323 30.6211 64.0024 29.9055C61.5725 29.1899 60.1827 26.64 60.8983 24.21ZM68.4447 14.8206C62.5435 13.0827 56.3508 16.4578 54.613 22.3591C52.8751 28.2603 56.2502 34.453 62.1514 36.1908C68.0526 37.9287 74.2453 34.5536 75.9832 28.6524C77.721 22.7512 74.346 16.5585 68.4447 14.8206Z" fill="url(#paint0_linear_5996_5147)"/>
<defs>
<linearGradient id="paint0_linear_5996_5147" x1="42.8656" y1="2.45614" x2="35.5459" y2="106.814" gradientUnits="userSpaceOnUse">
<stop/>
<stop offset="1" stop-opacity="0.23"/>
</linearGradient>
</defs>
</svg>
