<svg width="15" height="15" viewBox="0 0 15 15" fill="none" xmlns="http://www.w3.org/2000/svg">
<path d="M15 1.0995L14.9982 12.9939L13.9248 12.2594V4.61423L13.1911 5.70378C13.2294 5.78382 13.2659 5.86478 13.3 5.94483C13.6286 6.71511 13.7951 7.53295 13.7951 8.37595C13.7951 9.21896 13.6286 10.0368 13.3 10.8071C13.0194 11.4648 12.6304 12.065 12.1441 12.591L12.1168 12.6207H10.5036L10.7136 12.4574C10.8792 12.3284 11.0393 12.1875 11.1898 12.0384C12.1768 11.0605 12.7204 9.75961 12.7204 8.37595C12.7204 7.82752 12.6355 7.29098 12.468 6.77731L8.30016 12.9665V10.9786L8.31585 10.9557L11.9276 5.62967C11.7191 5.29988 11.4708 4.99205 11.1898 4.71303C10.3398 3.87094 9.22307 3.34401 8.03529 3.22325L8.03206 13.3654L7.5 14.1549L6.96841 13.3654L6.96748 11.6734L6.96471 3.22325C5.77693 3.34401 4.66022 3.87094 3.81022 4.71303C3.52919 4.99205 3.28093 5.30034 3.07236 5.62967L6.69984 10.9786V12.9665L2.53199 6.77731C2.36449 7.29098 2.28004 7.82752 2.28004 8.37595C2.28004 9.75961 2.82363 11.0605 3.81022 12.0384C3.96065 12.1871 4.12078 12.328 4.28644 12.4574L4.4964 12.6207H2.88316L2.85593 12.591C2.36956 12.065 1.98056 11.4648 1.69999 10.8071C1.37144 10.0368 1.20485 9.21896 1.20485 8.37595C1.20485 7.53295 1.37144 6.71511 1.69999 5.94483C1.73414 5.86433 1.77106 5.78336 1.8089 5.70378L1.07565 4.61423V12.2594L0.00184581 12.9939L0 1.0995L2.42678 4.67781C2.61459 4.42532 2.82363 4.18426 3.05021 3.95968C3.62887 3.38609 4.30259 2.936 5.05291 2.6213C5.66249 2.36561 6.3053 2.20826 6.96425 2.15291V1.92284C5.60666 1.98413 4.28413 2.28099 3.03452 2.80518C2.66212 2.96115 2.29435 3.13863 1.94226 3.33166L1.86796 3.37236L1.26761 2.48499L1.35437 2.43651C1.76091 2.21009 2.18498 2.0038 2.61598 1.82358C4.16462 1.17406 5.80785 0.844727 7.5 0.844727C9.19215 0.844727 10.8354 1.17406 12.384 1.82358C12.815 2.0038 13.2391 2.21009 13.6456 2.43651L13.7329 2.48499L13.132 3.37236L13.0577 3.33166C12.7057 3.13863 12.3379 2.96115 11.9655 2.80518C10.7168 2.28145 9.39473 1.98459 8.03575 1.92284V2.15291C8.69516 2.20826 9.33751 2.36561 9.94755 2.6213C10.6974 2.936 11.3711 3.38609 11.9498 3.95968C12.1764 4.18381 12.3854 4.42532 12.5732 4.67781L15 1.0995Z" fill="url(#paint0_linear_3459_7176)"/>
<defs>
<linearGradient id="paint0_linear_3459_7176" x1="-0.0340909" y1="5.62805" x2="15.2371" y2="7.27973" gradientUnits="userSpaceOnUse">
<stop stop-color="#D6B6F0"/>
<stop offset="0.76" stop-color="#848CE9"/>
</linearGradient>
</defs>
</svg>
