<svg width="223" height="218" viewBox="0 0 223 218" fill="none" xmlns="http://www.w3.org/2000/svg">
<path d="M76.8025 16.2739C97.4921 1.24205 125.508 1.24203 146.197 16.2739L193.663 50.7593C214.352 65.7912 223.01 92.4358 215.107 116.758L196.977 172.556C189.074 196.878 166.409 213.346 140.835 213.346H82.1649C56.5912 213.346 33.926 196.878 26.0233 172.556L7.8932 116.758C-0.00950623 92.4358 8.64784 65.7912 29.3374 50.7593L76.8025 16.2739Z" fill="url(#paint0_linear_1997_6520)"/>
<path d="M77.4123 15.2293C97.4882 0.643303 124.673 0.643288 144.749 15.2293L194.256 51.198C214.331 65.784 222.732 91.6383 215.064 115.239L196.154 173.437C188.486 197.038 166.493 213.017 141.677 213.017H80.4838C55.6687 213.017 33.6756 197.038 26.0073 173.438L7.09748 115.239C-0.570837 91.6383 7.82973 65.784 27.9056 51.198L77.4123 15.2293Z" stroke="url(#paint1_linear_1997_6520)" stroke-width="8.57959"/>
<path d="M77.92 20.0062C97.7007 5.60079 124.485 5.60077 144.266 20.0061L190.05 53.3486C209.831 67.7541 218.109 93.2893 210.553 116.599L193.065 170.548C185.509 193.858 163.839 209.638 139.389 209.638H82.797C58.3473 209.638 36.6772 193.858 29.1213 170.548L11.6334 116.599C4.07746 93.2893 12.3552 67.7542 32.1361 53.3486L77.92 20.0062Z" stroke="url(#paint2_linear_1997_6520)" stroke-width="1.00385"/>
<path d="M78.2064 20.8455C97.8163 6.56725 124.37 6.56724 143.98 20.8455L189.316 53.8556C208.926 68.134 217.133 93.4436 209.642 116.547L192.325 169.959C184.834 193.062 163.351 208.704 139.113 208.704H83.0736C58.8348 208.704 37.3518 193.062 29.8612 169.959L12.5442 116.547C5.05354 93.4436 13.2597 68.134 32.8698 53.8556L78.2064 20.8455Z" stroke="url(#paint3_linear_1997_6520)" stroke-width="0.865408"/>
<g style="mix-blend-mode:soft-light" opacity="0.6" clip-path="url(#clip0_1997_6520)">
<path d="M161 59.6964L160.988 138.894L153.904 134.003V83.0987L149.061 90.3533C149.314 90.8863 149.555 91.4254 149.78 91.9583C151.949 97.0871 153.048 102.533 153.048 108.146C153.048 113.759 151.949 119.204 149.78 124.333C147.928 128.713 145.361 132.708 142.151 136.211L141.971 136.409H131.324L132.71 135.321C133.803 134.463 134.86 133.525 135.853 132.532C142.367 126.02 145.955 117.359 145.955 108.146C145.955 104.494 145.394 100.922 144.289 97.5013L116.781 138.711V125.475L116.885 125.323L140.722 89.8599C139.346 87.6641 137.707 85.6144 135.853 83.7566C130.243 78.1496 122.872 74.6411 115.033 73.8371L115.012 141.367L111.5 146.624L107.991 141.367L107.985 130.101L107.967 73.8371C100.128 74.6411 92.7574 78.1496 87.1475 83.7566C85.2927 85.6144 83.6542 87.6671 82.2775 89.8599L106.219 125.475V138.711L78.7112 97.5013C77.6056 100.922 77.0483 104.494 77.0483 108.146C77.0483 117.359 80.636 126.02 87.1475 132.532C88.1403 133.522 89.1971 134.46 90.2905 135.321L91.6762 136.409H81.0289L80.8492 136.211C77.6391 132.708 75.0717 128.713 73.22 124.333C71.0515 119.204 69.952 113.759 69.952 108.146C69.952 102.533 71.0515 97.0871 73.22 91.9583C73.4453 91.4223 73.689 90.8832 73.9387 90.3533L69.0993 83.0987V134.003L62.0122 138.894L62 59.6964L78.0168 83.5221C79.2563 81.8409 80.636 80.2359 82.1314 78.7405C85.9505 74.9213 90.3971 71.9244 95.3492 69.8291C99.3725 68.1266 103.615 67.0789 107.964 66.7104V65.1785C99.0039 65.5866 90.2753 67.5632 82.0278 71.0534C79.57 72.092 77.1427 73.2736 74.8189 74.5589L74.3286 74.8299L70.3662 68.9215L70.9388 68.5987C73.622 67.0911 76.4209 65.7175 79.2655 64.5176C89.4865 60.1928 100.332 58 111.5 58C122.668 58 133.514 60.1928 143.735 64.5176C146.579 65.7175 149.378 67.0911 152.061 68.5987L152.637 68.9215L148.671 74.8299L148.181 74.5589C145.857 73.2736 143.43 72.092 140.972 71.0534C132.731 67.5662 124.005 65.5896 115.036 65.1785V66.7104C119.388 67.0789 123.628 68.1266 127.654 69.8291C132.603 71.9244 137.049 74.9213 140.869 78.7405C142.364 80.2328 143.744 81.8409 144.983 83.5221L161 59.6964Z" fill="black"/>
</g>
<g style="mix-blend-mode:soft-light" opacity="0.4">
<path d="M53.4795 168H50.5461V157.546H54.5094L56.0697 161.665L56.7407 164.364H56.9435L57.6613 161.665L59.05 157.546H63.0132V168H60.0798V164.177L60.2514 161.93H60.0486L59.4088 164.333L58.5662 166.908H54.9931L54.1505 164.333L53.4952 161.93H53.2923L53.4795 164.177V168ZM72.8332 168.156C69.5097 168.156 67.5749 166.034 67.5749 162.773C67.5749 159.512 69.5097 157.39 72.8332 157.39C76.1411 157.39 78.076 159.512 78.076 162.773C78.076 166.034 76.1411 168.156 72.8332 168.156ZM72.8332 165.301C74.4404 165.301 74.9241 164.786 74.9241 162.773C74.9241 160.76 74.4404 160.245 72.8332 160.245C71.2105 160.245 70.7268 160.76 70.7268 162.773C70.7268 164.786 71.2105 165.301 72.8332 165.301ZM88.9518 168H84.9105L81.3373 157.546H84.6453L86.8609 164.723H87.0638L89.2326 157.546H92.5406L88.9518 168ZM104.986 168H96.5443V157.546H104.986V160.183H99.4777V161.447H104.752V164.068H99.4777V165.363H104.986V168ZM114.548 168.156C111.178 168.156 109.352 166.034 109.352 162.773C109.352 159.512 111.178 157.39 114.548 157.39C117.856 157.39 119.463 159.106 119.463 161.54V161.899H116.327V161.852C116.327 160.651 115.937 160.245 114.486 160.245C112.988 160.245 112.504 160.604 112.504 162.773C112.504 164.942 112.988 165.301 114.486 165.301C115.937 165.301 116.327 164.895 116.327 163.693V163.647H119.463V164.006C119.463 166.44 117.856 168.156 114.548 168.156ZM129.146 168.156C125.822 168.156 123.888 166.034 123.888 162.773C123.888 159.512 125.822 157.39 129.146 157.39C132.454 157.39 134.389 159.512 134.389 162.773C134.389 166.034 132.454 168.156 129.146 168.156ZM129.146 165.301C130.753 165.301 131.237 164.786 131.237 162.773C131.237 160.76 130.753 160.245 129.146 160.245C127.523 160.245 127.039 160.76 127.039 162.773C127.039 164.786 127.523 165.301 129.146 165.301ZM141.849 168H138.916V157.546H141.849V168ZM149.726 168H146.792V157.546H149.929L152.846 162.242L153.533 163.522H153.736L153.58 162.242V157.546H156.498V168H153.377L150.615 163.647L149.773 162.164H149.57L149.726 163.647V168ZM165.729 168.156C162.733 168.156 161.236 166.752 161.236 164.567V164.364H164.122V164.489C164.122 165.347 164.434 165.519 165.839 165.519C166.946 165.519 167.18 165.347 167.18 164.895C167.18 164.411 167.024 164.255 166.307 164.146L164.029 163.787C161.906 163.459 161.033 162.336 161.033 160.713C161.033 158.856 162.453 157.39 165.526 157.39C168.444 157.39 169.833 158.856 169.833 160.807V161.072H166.946V160.885C166.946 160.276 166.65 160.027 165.339 160.027C164.231 160.027 163.951 160.214 163.951 160.604C163.951 160.932 164.153 161.072 164.762 161.181L167.04 161.587C169.256 161.977 170.114 163.132 170.114 164.755C170.114 166.58 168.866 168.156 165.729 168.156Z" fill="black"/>
</g>
<defs>
<linearGradient id="paint0_linear_1997_6520" x1="44.0809" y1="197.301" x2="218.349" y2="67.3065" gradientUnits="userSpaceOnUse">
<stop stop-color="#513E61"/>
<stop offset="0.442708" stop-color="#9274AA"/>
<stop offset="1" stop-color="#EBD2FF"/>
</linearGradient>
<linearGradient id="paint1_linear_1997_6520" x1="-2.3803" y1="189.367" x2="207.27" y2="43.8121" gradientUnits="userSpaceOnUse">
<stop stop-color="#061116"/>
<stop offset="0.189073" stop-color="#4B5358"/>
<stop offset="0.517162" stop-color="#767A7D"/>
<stop offset="0.646318" stop-color="#E7F3F9"/>
<stop offset="1" stop-color="#2D363A"/>
</linearGradient>
<linearGradient id="paint2_linear_1997_6520" x1="20.9209" y1="22.1295" x2="196.353" y2="213.595" gradientUnits="userSpaceOnUse">
<stop stop-color="#D1D1D1"/>
<stop offset="1" stop-color="white"/>
</linearGradient>
<linearGradient id="paint3_linear_1997_6520" x1="34.8001" y1="1.77213" x2="196.886" y2="233.721" gradientUnits="userSpaceOnUse">
<stop stop-color="#424242"/>
<stop offset="1" stop-color="#8E8E8E"/>
</linearGradient>
<clipPath id="clip0_1997_6520">
<rect width="99" height="88.6236" fill="white" transform="translate(62 58)"/>
</clipPath>
</defs>
</svg>
