<svg width="33" height="31" viewBox="0 0 33 31" fill="none" xmlns="http://www.w3.org/2000/svg">
<path d="M31.2015 15.0215C31.2015 17.0702 30.798 19.0989 30.0139 20.9916C29.2299 22.8844 28.0808 24.6042 26.6321 26.0529C25.1835 27.5015 23.4636 28.6507 21.5709 29.4347C19.6781 30.2187 17.6495 30.6222 15.6007 30.6222C13.552 30.6222 11.5234 30.2187 9.63059 29.4347C7.73782 28.6507 6.01801 27.5015 4.56935 26.0529C3.12069 24.6042 1.97155 22.8844 1.18754 20.9916C0.403525 19.0989 -1.79105e-07 17.0702 0 15.0215L31.2015 15.0215Z" fill="#5ECC7B"/>
<path d="M26.4012 3.56641C26.4012 4.99908 26.1191 6.41772 25.5708 7.74133C25.0225 9.06495 24.2189 10.2676 23.2059 11.2807C22.1928 12.2937 20.9902 13.0973 19.6666 13.6456C18.3429 14.1938 16.9243 14.476 15.4916 14.476C14.059 14.476 12.6403 14.1938 11.3167 13.6456C9.9931 13.0973 8.79043 12.2937 7.77738 11.2807C6.76433 10.2676 5.96073 9.06495 5.41248 7.74133C4.86422 6.41772 4.58203 4.99908 4.58203 3.56641L26.4012 3.56641Z" fill="#5ECC7B"/>
<path fill-rule="evenodd" clip-rule="evenodd" d="M3.75174 0L16.4069 8.2913L15.9286 9.02134L3.27344 0.730037L3.75174 0ZM6.15185 0L18.807 8.2913L18.3287 9.02134L5.67355 0.730037L6.15185 0ZM30.3293 10.7669L17.6741 19.0582L17.1958 18.3281L29.851 10.0368L30.3293 10.7669ZM32.7294 10.7669L20.0742 19.0582L19.5959 18.3281L32.2511 10.0368L32.7294 10.7669Z" fill="#5ECC7B"/>
</svg>
