<svg width="46" height="35" viewBox="0 0 46 35" fill="none" xmlns="http://www.w3.org/2000/svg">
<path d="M14.9114 12H29.0886C30.6914 12 31.2786 12.3707 30.8787 13.9821C30.1733 16.8246 28.1759 17.5306 26.3304 19.3859C25.8819 19.8369 26.5798 20.5032 26.5802 20.9992C26.5809 21.933 25.6928 22 24.9854 22H19.0146C18.3072 22 17.4191 21.933 17.4198 20.9992C17.4202 20.5137 18.0972 19.8159 17.6696 19.3859C15.8241 17.5306 13.8267 16.8246 13.1213 13.9821C12.7214 12.3707 13.3086 12 14.9114 12Z" stroke="#DDF988" stroke-width="1.8" stroke-linejoin="round"/>
<path d="M29.5 12C29.5 10.2089 27.6001 8.98823 26 9.69218M14.5 12C14.5 10.7067 15.4685 9.64127 16.7151 9.49889C15.901 7.65834 17.6263 5.59405 19.5389 6.01716M27.292 9.48272C28.0733 7.68217 26.4185 5.58415 24.4611 6.01716C23.9848 3.32761 20.0152 3.32761 19.5389 6.01716M19.5389 6.01716C20.1325 6.14848 20.6471 6.49221 21 6.96519" stroke="#DDF988" stroke-width="1.8" stroke-linecap="round" stroke-linejoin="round"/>
<path d="M28 9L33 3" stroke="#DDF988" stroke-width="1.8" stroke-linecap="round" stroke-linejoin="round"/>
<path d="M27 6L29 2" stroke="#DDF988" stroke-width="1.8" stroke-linecap="round" stroke-linejoin="round"/>
<path d="M9.5245 26.4545V33H8.46982L5.38565 28.5415H5.33132V33H4.1456V26.4545H5.20668L8.28764 30.9162H8.34517V26.4545H9.5245ZM13.8943 30.9354V28.0909H15.0512V33H13.9294V32.1275H13.8783C13.7675 32.4023 13.5853 32.6271 13.3318 32.8018C13.0803 32.9766 12.7703 33.0639 12.4017 33.0639C12.08 33.0639 11.7955 32.9925 11.5484 32.8498C11.3034 32.7049 11.1116 32.495 10.9731 32.2202C10.8346 31.9432 10.7654 31.6087 10.7654 31.2166V28.0909H11.9223V31.0376C11.9223 31.3487 12.0075 31.5959 12.178 31.7791C12.3485 31.9624 12.5722 32.054 12.8492 32.054C13.0196 32.054 13.1847 32.0124 13.3445 31.9293C13.5044 31.8462 13.6354 31.7227 13.7377 31.5586C13.8421 31.3924 13.8943 31.1847 13.8943 30.9354ZM18.6923 28.0909V28.9858H15.8702V28.0909H18.6923ZM16.5669 26.9148H17.7239V31.5234C17.7239 31.679 17.7473 31.7983 17.7942 31.8814C17.8432 31.9624 17.9071 32.0178 17.986 32.0476C18.0648 32.0774 18.1522 32.0923 18.248 32.0923C18.3205 32.0923 18.3865 32.087 18.4462 32.0763C18.508 32.0657 18.5549 32.0561 18.5868 32.0476L18.7818 32.9521C18.72 32.9734 18.6316 32.9968 18.5165 33.0224C18.4036 33.0479 18.2651 33.0629 18.101 33.0671C17.8113 33.0756 17.5502 33.032 17.318 32.9361C17.0858 32.8381 16.9015 32.6868 16.7651 32.4822C16.6309 32.2777 16.5648 32.022 16.5669 31.7152V26.9148ZM19.6599 33V28.0909H20.7817V28.9091H20.8328C20.9223 28.6257 21.0757 28.4073 21.2931 28.2539C21.5125 28.0984 21.7629 28.0206 22.0441 28.0206C22.108 28.0206 22.1794 28.0238 22.2583 28.0302C22.3392 28.0344 22.4063 28.0419 22.4596 28.0526V29.1168C22.4106 29.0998 22.3328 29.0849 22.2263 29.0721C22.1219 29.0572 22.0207 29.0497 21.9227 29.0497C21.7117 29.0497 21.5221 29.0955 21.3538 29.1871C21.1876 29.2766 21.0566 29.4013 20.9607 29.5611C20.8648 29.7209 20.8169 29.9052 20.8169 30.114V33H19.6599ZM23.2282 33V28.0909H24.3852V33H23.2282ZM23.8099 27.3942C23.6267 27.3942 23.469 27.3335 23.3369 27.212C23.2048 27.0884 23.1388 26.9403 23.1388 26.7678C23.1388 26.593 23.2048 26.445 23.3369 26.3235C23.469 26.1999 23.6267 26.1381 23.8099 26.1381C23.9953 26.1381 24.153 26.1999 24.2829 26.3235C24.415 26.445 24.4811 26.593 24.4811 26.7678C24.4811 26.9403 24.415 27.0884 24.2829 27.212C24.153 27.3335 23.9953 27.3942 23.8099 27.3942ZM28.0263 28.0909V28.9858H25.2042V28.0909H28.0263ZM25.9009 26.9148H27.0579V31.5234C27.0579 31.679 27.0813 31.7983 27.1282 31.8814C27.1772 31.9624 27.2411 32.0178 27.32 32.0476C27.3988 32.0774 27.4862 32.0923 27.582 32.0923C27.6545 32.0923 27.7205 32.087 27.7802 32.0763C27.842 32.0657 27.8888 32.0561 27.9208 32.0476L28.1158 32.9521C28.054 32.9734 27.9656 32.9968 27.8505 33.0224C27.7376 33.0479 27.5991 33.0629 27.435 33.0671C27.1452 33.0756 26.8842 33.032 26.652 32.9361C26.4197 32.8381 26.2354 32.6868 26.0991 32.4822C25.9648 32.2777 25.8988 32.022 25.9009 31.7152V26.9148ZM28.9939 33V28.0909H30.1508V33H28.9939ZM29.5756 27.3942C29.3923 27.3942 29.2346 27.3335 29.1025 27.212C28.9704 27.0884 28.9044 26.9403 28.9044 26.7678C28.9044 26.593 28.9704 26.445 29.1025 26.3235C29.2346 26.1999 29.3923 26.1381 29.5756 26.1381C29.7609 26.1381 29.9186 26.1999 30.0486 26.3235C30.1807 26.445 30.2467 26.593 30.2467 26.7678C30.2467 26.9403 30.1807 27.0884 30.0486 27.212C29.9186 27.3335 29.7609 27.3942 29.5756 27.3942ZM33.4819 33.0959C33.0025 33.0959 32.587 32.9904 32.2354 32.7795C31.8839 32.5685 31.6112 32.2734 31.4173 31.8942C31.2255 31.5149 31.1296 31.0717 31.1296 30.5646C31.1296 30.0575 31.2255 29.6133 31.4173 29.2319C31.6112 28.8505 31.8839 28.5543 32.2354 28.3434C32.587 28.1325 33.0025 28.027 33.4819 28.027C33.9613 28.027 34.3768 28.1325 34.7283 28.3434C35.0799 28.5543 35.3516 28.8505 35.5433 29.2319C35.7372 29.6133 35.8342 30.0575 35.8342 30.5646C35.8342 31.0717 35.7372 31.5149 35.5433 31.8942C35.3516 32.2734 35.0799 32.5685 34.7283 32.7795C34.3768 32.9904 33.9613 33.0959 33.4819 33.0959ZM33.4883 32.169C33.7482 32.169 33.9656 32.0977 34.1403 31.9549C34.315 31.81 34.445 31.6161 34.5302 31.3732C34.6175 31.1303 34.6612 30.8597 34.6612 30.5614C34.6612 30.261 34.6175 29.9893 34.5302 29.7464C34.445 29.5014 34.315 29.3065 34.1403 29.1616C33.9656 29.0167 33.7482 28.9442 33.4883 28.9442C33.2219 28.9442 33.0004 29.0167 32.8235 29.1616C32.6488 29.3065 32.5178 29.5014 32.4304 29.7464C32.3452 29.9893 32.3026 30.261 32.3026 30.5614C32.3026 30.8597 32.3452 31.1303 32.4304 31.3732C32.5178 31.6161 32.6488 31.81 32.8235 31.9549C33.0004 32.0977 33.2219 32.169 33.4883 32.169ZM37.9731 30.1236V33H36.8161V28.0909H37.922V28.9251H37.9795C38.0924 28.6502 38.2725 28.4318 38.5196 28.2699C38.7689 28.108 39.0768 28.027 39.4433 28.027C39.782 28.027 40.0771 28.0994 40.3286 28.2443C40.5821 28.3892 40.7781 28.5991 40.9166 28.8739C41.0573 29.1488 41.1265 29.4822 41.1244 29.8743V33H39.9674V30.0533C39.9674 29.7251 39.8822 29.4684 39.7117 29.283C39.5434 29.0977 39.3101 29.005 39.0118 29.005C38.8094 29.005 38.6294 29.0497 38.4717 29.1392C38.3161 29.2266 38.1936 29.3533 38.1041 29.5195C38.0168 29.6857 37.9731 29.8871 37.9731 30.1236Z" fill="#DDF988"/>
</svg>
