<svg width="46" height="35" viewBox="0 0 46 35" fill="none" xmlns="http://www.w3.org/2000/svg">
<path d="M14.9114 12H29.0886C30.6914 12 31.2786 12.3707 30.8787 13.9821C30.1733 16.8246 28.1759 17.5306 26.3304 19.3859C25.8819 19.8369 26.5798 20.5032 26.5802 20.9992C26.5809 21.933 25.6928 22 24.9854 22H19.0146C18.3072 22 17.4191 21.933 17.4198 20.9992C17.4202 20.5137 18.0972 19.8159 17.6696 19.3859C15.8241 17.5306 13.8267 16.8246 13.1213 13.9821C12.7214 12.3707 13.3086 12 14.9114 12Z" stroke="#929292" stroke-width="1.5" stroke-linejoin="round"/>
<path d="M29.5 12C29.5 10.2089 27.6001 8.98823 26 9.69218M14.5 12C14.5 10.7067 15.4685 9.64127 16.7151 9.49889C15.901 7.65834 17.6263 5.59405 19.5389 6.01716M27.292 9.48272C28.0733 7.68217 26.4185 5.58415 24.4611 6.01716C23.9848 3.32761 20.0152 3.32761 19.5389 6.01716M19.5389 6.01716C20.1325 6.14848 20.6471 6.49221 21 6.96519" stroke="#929292" stroke-width="1.5" stroke-linecap="round" stroke-linejoin="round"/>
<path d="M28 9L33 3" stroke="#929292" stroke-width="1.5" stroke-linecap="round" stroke-linejoin="round"/>
<path d="M27 6L29 2" stroke="#929292" stroke-width="1.5" stroke-linecap="round" stroke-linejoin="round"/>
<path d="M10.0021 26.4545V33H9.09446L5.7674 28.1996H5.70668V33H4.71911V26.4545H5.63317L8.96342 31.2614H9.02415V26.4545H10.0021ZM14.4758 30.9641V28.0909H15.4346V33H14.4949V32.1499H14.4438C14.3309 32.4119 14.1498 32.6303 13.9005 32.805C13.6533 32.9776 13.3454 33.0639 12.9768 33.0639C12.6615 33.0639 12.3824 32.9947 12.1395 32.8562C11.8987 32.7156 11.7091 32.5078 11.5706 32.233C11.4342 31.9581 11.366 31.6183 11.366 31.2134V28.0909H12.3216V31.0984C12.3216 31.4329 12.4143 31.6992 12.5997 31.8974C12.7851 32.0955 13.0258 32.1946 13.322 32.1946C13.501 32.1946 13.6789 32.1499 13.8557 32.0604C14.0347 31.9709 14.1828 31.8356 14.3 31.6545C14.4193 31.4734 14.4779 31.2433 14.4758 30.9641ZM19.0101 28.0909V28.858H16.3287V28.0909H19.0101ZM17.0478 26.9148H18.0034V31.5586C18.0034 31.744 18.0311 31.8835 18.0865 31.9773C18.1419 32.0689 18.2132 32.1317 18.3006 32.1658C18.3901 32.1978 18.487 32.2138 18.5914 32.2138C18.6681 32.2138 18.7353 32.2085 18.7928 32.1978C18.8503 32.1871 18.8951 32.1786 18.927 32.1722L19.0996 32.9616C19.0442 32.983 18.9654 33.0043 18.8631 33.0256C18.7608 33.049 18.633 33.0618 18.4796 33.0639C18.2282 33.0682 17.9938 33.0234 17.7765 32.9297C17.5591 32.8359 17.3833 32.6911 17.2491 32.495C17.1149 32.299 17.0478 32.0529 17.0478 31.7567V26.9148ZM20.0672 33V28.0909H20.9909V28.8707H21.042C21.1315 28.6065 21.2892 28.3988 21.515 28.2475C21.743 28.0941 22.0008 28.0174 22.2884 28.0174C22.3481 28.0174 22.4184 28.0195 22.4994 28.0238C22.5825 28.0281 22.6475 28.0334 22.6943 28.0398V28.9538C22.656 28.9432 22.5878 28.9315 22.4898 28.9187C22.3918 28.9038 22.2938 28.8963 22.1958 28.8963C21.9699 28.8963 21.7686 28.9442 21.5917 29.0401C21.417 29.1339 21.2785 29.2649 21.1762 29.4332C21.074 29.5994 21.0228 29.7891 21.0228 30.0021V33H20.0672ZM23.5213 33V28.0909H24.4769V33H23.5213ZM24.0039 27.3335C23.8377 27.3335 23.695 27.2781 23.5756 27.1673C23.4585 27.0543 23.3999 26.9201 23.3999 26.7646C23.3999 26.6069 23.4585 26.4727 23.5756 26.3619C23.695 26.2489 23.8377 26.1925 24.0039 26.1925C24.1701 26.1925 24.3118 26.2489 24.429 26.3619C24.5483 26.4727 24.608 26.6069 24.608 26.7646C24.608 26.9201 24.5483 27.0543 24.429 27.1673C24.3118 27.2781 24.1701 27.3335 24.0039 27.3335ZM28.0541 28.0909V28.858H25.3726V28.0909H28.0541ZM26.0917 26.9148H27.0473V31.5586C27.0473 31.744 27.075 31.8835 27.1304 31.9773C27.1858 32.0689 27.2572 32.1317 27.3445 32.1658C27.434 32.1978 27.531 32.2138 27.6354 32.2138C27.7121 32.2138 27.7792 32.2085 27.8367 32.1978C27.8943 32.1871 27.939 32.1786 27.971 32.1722L28.1436 32.9616C28.0882 32.983 28.0093 33.0043 27.907 33.0256C27.8048 33.049 27.6769 33.0618 27.5235 33.0639C27.2721 33.0682 27.0377 33.0234 26.8204 32.9297C26.6031 32.8359 26.4273 32.6911 26.2931 32.495C26.1588 32.299 26.0917 32.0529 26.0917 31.7567V26.9148ZM29.1112 33V28.0909H30.0668V33H29.1112ZM29.5938 27.3335C29.4276 27.3335 29.2848 27.2781 29.1655 27.1673C29.0483 27.0543 28.9897 26.9201 28.9897 26.7646C28.9897 26.6069 29.0483 26.4727 29.1655 26.3619C29.2848 26.2489 29.4276 26.1925 29.5938 26.1925C29.7599 26.1925 29.9016 26.2489 30.0188 26.3619C30.1381 26.4727 30.1978 26.6069 30.1978 26.7646C30.1978 26.9201 30.1381 27.0543 30.0188 27.1673C29.9016 27.2781 29.7599 27.3335 29.5938 27.3335ZM33.4202 33.0991C32.96 33.0991 32.5583 32.9936 32.2153 32.7827C31.8722 32.5717 31.6059 32.2766 31.4163 31.8974C31.2267 31.5181 31.1318 31.0749 31.1318 30.5678C31.1318 30.0586 31.2267 29.6133 31.4163 29.2319C31.6059 28.8505 31.8722 28.5543 32.2153 28.3434C32.5583 28.1325 32.96 28.027 33.4202 28.027C33.8804 28.027 34.282 28.1325 34.6251 28.3434C34.9681 28.5543 35.2345 28.8505 35.4241 29.2319C35.6137 29.6133 35.7085 30.0586 35.7085 30.5678C35.7085 31.0749 35.6137 31.5181 35.4241 31.8974C35.2345 32.2766 34.9681 32.5717 34.6251 32.7827C34.282 32.9936 33.8804 33.0991 33.4202 33.0991ZM33.4234 32.2969C33.7217 32.2969 33.9688 32.218 34.1649 32.0604C34.3609 31.9027 34.5058 31.6928 34.5995 31.4308C34.6954 31.1687 34.7433 30.88 34.7433 30.5646C34.7433 30.2514 34.6954 29.9638 34.5995 29.7017C34.5058 29.4375 34.3609 29.2255 34.1649 29.0657C33.9688 28.9059 33.7217 28.826 33.4234 28.826C33.123 28.826 32.8737 28.9059 32.6755 29.0657C32.4795 29.2255 32.3335 29.4375 32.2377 29.7017C32.1439 29.9638 32.097 30.2514 32.097 30.5646C32.097 30.88 32.1439 31.1687 32.2377 31.4308C32.3335 31.6928 32.4795 31.9027 32.6755 32.0604C32.8737 32.218 33.123 32.2969 33.4234 32.2969ZM37.7308 30.0852V33H36.7752V28.0909H37.6925V28.8899H37.7532C37.8661 28.63 38.043 28.4212 38.2837 28.2635C38.5266 28.1058 38.8324 28.027 39.201 28.027C39.5355 28.027 39.8285 28.0973 40.0799 28.2379C40.3313 28.3764 40.5263 28.5831 40.6648 28.858C40.8033 29.1328 40.8725 29.4727 40.8725 29.8775V33H39.9169V29.9925C39.9169 29.6367 39.8242 29.3587 39.6388 29.1584C39.4535 28.956 39.1989 28.8548 38.875 28.8548C38.6534 28.8548 38.4563 28.9027 38.2837 28.9986C38.1133 29.0945 37.978 29.2351 37.8778 29.4205C37.7798 29.6037 37.7308 29.8253 37.7308 30.0852Z" fill="#929292"/>
</svg>
