<svg width="101" height="113" viewBox="0 0 101 113" fill="none" xmlns="http://www.w3.org/2000/svg">
<path fill-rule="evenodd" clip-rule="evenodd" d="M62.0573 11.9722C40.2468 3.78227 18.8891 9.69022 9.33556 28.1781C7.993 30.7762 7.93554 33.2206 8.85025 35.7047C9.81892 38.3354 11.9546 41.1762 15.2989 44.0747C21.9938 49.8772 32.5727 55.0858 44.0836 58.7509C55.5665 62.4072 67.5067 64.378 76.7194 64.028C81.3462 63.8522 84.9949 63.1003 87.5061 61.9089C89.9357 60.7562 90.9859 59.3732 91.3157 57.869C95.6541 38.0791 83.5171 20.0305 62.0573 11.9722ZM2.28391 24.5342C14.1748 1.52301 40.3643 -4.65228 64.8476 4.54132C88.9287 13.5839 104.477 34.9027 99.069 59.5687C98.0671 64.1388 94.8567 67.2071 90.9084 69.0803C87.0416 70.9147 82.195 71.7632 77.0208 71.9598C70.8614 72.1938 63.8248 71.517 56.6006 70.1262C56.6909 76.1824 55.6094 84.2614 53.2212 91.5908C51.6991 96.2623 49.5667 100.885 46.6603 104.583C43.7406 108.298 39.8508 111.302 34.8637 112.145C21.2306 114.449 10.0993 101.574 12.6132 87.5776C13.2937 83.789 15.5895 81.1255 17.8626 79.1224C19.0017 78.1186 20.2383 77.1928 21.3927 76.344C21.5965 76.1942 21.7974 76.0469 21.996 75.9014L21.9964 75.9012L22.0009 75.8978L22.001 75.8978C22.9656 75.1909 23.8731 74.5259 24.7627 73.8163C26.8958 72.1148 28.5372 70.4496 29.5546 68.4376C30.3361 66.8921 30.8527 64.9344 30.7048 62.2624C22.7636 58.8908 15.5064 54.7584 10.1003 50.0728C6.18409 46.6787 3.00016 42.7885 1.40168 38.4475C-0.250775 33.9599 -0.122929 29.1919 2.28391 24.5342ZM41.6753 66.3143C43.9554 67.0403 46.2646 67.7075 48.5804 68.3096C48.9596 73.2122 48.1546 81.5194 45.6742 89.1318C44.3241 93.2754 42.5566 96.9589 40.4197 99.6777C38.2961 102.38 35.9993 103.903 33.5411 104.318C26.1692 105.564 18.7273 98.4367 20.4257 88.9809C20.645 87.7602 21.4023 86.5828 23.1104 85.0777C23.9618 84.3274 24.9478 83.5823 26.0948 82.7389C26.277 82.6049 26.4638 82.4681 26.6544 82.3285C27.621 81.6205 28.6835 80.8422 29.7123 80.0216C32.191 78.0445 34.8639 75.528 36.638 72.0194C37.6555 70.0073 38.3247 67.7761 38.5664 65.2817C39.5987 65.6389 40.6357 65.9833 41.6753 66.3143ZM77.1379 31.7652C80.8232 33.1491 83.5197 36.2214 85.0054 39.494C86.4912 42.7665 87.0294 46.8188 85.6455 50.5041C84.875 52.5561 82.5869 53.5949 80.5349 52.8244C78.4829 52.0538 77.4441 49.7657 78.2147 47.7138C78.691 46.4452 78.6124 44.6134 77.778 42.7753C76.9435 40.9373 75.6161 39.6725 74.3475 39.1961C72.2955 38.4256 71.2567 36.1375 72.0273 34.0855C72.7978 32.0335 75.0859 30.9947 77.1379 31.7652Z" fill="url(#paint0_linear_5996_5148)"/>
<defs>
<linearGradient id="paint0_linear_5996_5148" x1="50.2204" y1="0.455078" x2="50.2204" y2="112.413" gradientUnits="userSpaceOnUse">
<stop/>
<stop offset="1" stop-opacity="0.07"/>
</linearGradient>
</defs>
</svg>
