<svg width="90" height="45" viewBox="0 0 90 45" fill="none" xmlns="http://www.w3.org/2000/svg">
<g id="Rectangle 788" filter="url(#filter0_dd_2920_3045)">
<path d="M8.5 11C8.5 7.22876 8.5 5.34315 9.67157 4.17157C10.8431 3 12.7288 3 16.5 3H73.5C77.2712 3 79.1569 3 80.3284 4.17157C81.5 5.34315 81.5 7.22876 81.5 11V13C81.5 16.7712 81.5 18.6569 80.3284 19.8284C79.1569 21 77.2712 21 73.5 21H51.6531C51.0903 21 50.8089 21 50.5771 21.1337C50.3452 21.2674 50.2042 21.5109 49.9223 21.9979L46.7309 27.5103C45.9613 28.8395 45.5766 29.5041 45 29.5041C44.4234 29.5041 44.0387 28.8395 43.2691 27.5103L40.0777 21.9979C39.7958 21.5109 39.6548 21.2674 39.4229 21.1337C39.1911 21 38.9097 21 38.3469 21H16.5C12.7288 21 10.8431 21 9.67157 19.8284C8.5 18.6569 8.5 16.7712 8.5 13V11Z" fill="#F5C563"/>
</g>
<defs>
<filter id="filter0_dd_2920_3045" x="0.903015" y="0.467672" width="88.194" height="44.2302" filterUnits="userSpaceOnUse" color-interpolation-filters="sRGB">
<feFlood flood-opacity="0" result="BackgroundImageFix"/>
<feColorMatrix in="SourceAlpha" type="matrix" values="0 0 0 0 0 0 0 0 0 0 0 0 0 0 0 0 0 0 127 0" result="hardAlpha"/>
<feOffset dy="1.68822"/>
<feGaussianBlur stdDeviation="2.11027"/>
<feColorMatrix type="matrix" values="0 0 0 0 0 0 0 0 0 0 0 0 0 0 0 0 0 0 0.39 0"/>
<feBlend mode="normal" in2="BackgroundImageFix" result="effect1_dropShadow_2920_3045"/>
<feColorMatrix in="SourceAlpha" type="matrix" values="0 0 0 0 0 0 0 0 0 0 0 0 0 0 0 0 0 0 127 0" result="hardAlpha"/>
<feOffset dy="7.59698"/>
<feGaussianBlur stdDeviation="3.79849"/>
<feColorMatrix type="matrix" values="0 0 0 0 0 0 0 0 0 0 0 0 0 0 0 0 0 0 0.34 0"/>
<feBlend mode="normal" in2="effect1_dropShadow_2920_3045" result="effect2_dropShadow_2920_3045"/>
<feBlend mode="normal" in="SourceGraphic" in2="effect2_dropShadow_2920_3045" result="shape"/>
</filter>
</defs>
</svg>
