<?xml version="1.0" encoding="UTF-8" standalone="no" ?>
<!DOCTYPE svg PUBLIC "-//W3C//DTD SVG 1.1//EN" "http://www.w3.org/Graphics/SVG/1.1/DTD/svg11.dtd">
<svg xmlns="http://www.w3.org/2000/svg" xmlns:xlink="http://www.w3.org/1999/xlink" version="1.1" width="1080" height="1080" viewBox="0 0 1080 1080" xml:space="preserve">
<desc>Created with Fabric.js 5.2.4</desc>
<defs>
</defs>
<rect x="0" y="0" width="100%" height="100%" fill="transparent"></rect>
<g transform="matrix(Infinity NaN NaN Infinity 0 0)" id="6e5491b8-693d-484c-a4d9-cd80f06af093"  >
</g>
<g transform="matrix(1 0 0 1 540 540)" id="8871936a-c5f2-4091-84da-9a81c160ad5b"  >
<rect style="stroke: none; stroke-width: 1; stroke-dasharray: none; stroke-linecap: butt; stroke-dashoffset: 0; stroke-linejoin: miter; stroke-miterlimit: 4; fill: rgb(255,255,255); fill-rule: nonzero; opacity: 1; visibility: hidden;" vector-effect="non-scaling-stroke"  x="-540" y="-540" rx="0" ry="0" width="1080" height="1080" />
</g>
<g transform="matrix(46.66 0 0 52.84 540 540)"  >
<path style="stroke: rgb(0,0,0); stroke-width: 0; stroke-dasharray: none; stroke-linecap: butt; stroke-dashoffset: 0; stroke-linejoin: miter; stroke-miterlimit: 4; fill: rgb(94,204,123); fill-rule: nonzero; opacity: 1;" vector-effect="non-scaling-stroke"  transform=" translate(-14.16, -10.5)" d="M 25.3241 1.28338 L 25.3241 18.6427 L 23.9818 17.7188 L 23.9818 5.71124 L 22.5767 7.8136 C 22.6465 7.95655 22.7092 8.0995 22.772 8.24593 C 23.2601 9.39996 23.5076 10.6237 23.5076 11.8858 C 23.5076 13.148 23.2601 14.3752 22.772 15.5258 C 22.3536 16.5124 21.7783 17.4085 21.0566 18.1964 L 19.0902 18.1964 C 19.3447 17.9977 19.5888 17.7815 19.8189 17.5479 C 21.3321 16.0348 22.1653 14.0231 22.1653 11.8824 C 22.1653 10.934 22.0015 10.0101 21.6877 9.14196 L 15.5061 18.4021 L 15.5061 15.8814 L 20.9973 7.71249 C 20.6696 7.17557 20.2756 6.67352 19.8189 6.21678 C 18.4661 4.86402 16.7159 4.05515 14.8297 3.89826 L 14.8297 16.9343 L 14.8227 19.4272 L 14.1603 20.4208 L 13.4979 19.4272 L 13.4979 16.8994 L 13.4909 3.90174 C 11.6047 4.05864 9.85447 4.86751 8.50171 6.22027 C 8.04498 6.677 7.651 7.17906 7.32327 7.71598 L 12.8145 15.8849 L 12.8145 18.4056 L 6.63643 9.14894 C 6.32264 10.0171 6.15878 10.941 6.15878 11.8893 C 6.15878 14.03 6.99205 16.0418 8.50519 17.5549 C 8.73879 17.7885 8.97936 18.0012 9.23387 18.2034 L 7.26748 18.2034 C 6.54578 17.4154 5.96702 16.5159 5.55212 15.5327 C 5.06401 14.3787 4.81647 13.1549 4.81647 11.8928 C 4.81647 10.6307 5.06401 9.40345 5.55212 8.2529 C 5.61488 8.10647 5.67764 7.96352 5.74737 7.82058 L 4.34231 5.71124 L 4.34231 17.7188 L 3 18.6427 L 3 1.28338 L 4.37368 3.32996 L 5.12328 4.44564 L 6.51091 6.51314 C 6.82121 6.07384 7.16638 5.66243 7.55338 5.27543 C 8.41106 4.41775 9.41169 3.74136 10.5274 3.27068 C 11.4722 2.86974 12.4694 2.63265 13.4944 2.55944 L 13.4944 1.93535 C 11.3781 2.01554 9.32452 2.47228 7.38254 3.29509 C 6.81424 3.53566 6.25988 3.80412 5.72296 4.10396 L 4.97336 2.98479 C 5.5835 2.64311 6.21107 2.33281 6.85956 2.06087 C 9.17112 1.07419 11.6256 0.579102 14.1603 0.579102 C 16.695 0.579102 19.1495 1.07419 21.4645 2.05738 C 22.113 2.33281 22.7406 2.63963 23.3507 2.9813 L 22.6011 4.10047 C 22.0642 3.80412 21.5099 3.53566 20.9416 3.2916 C 18.9996 2.46879 16.946 2.01206 14.8297 1.93187 L 14.8297 2.55595 C 15.8548 2.62917 16.8484 2.86625 17.7932 3.2672 C 18.9089 3.73788 19.9061 4.41426 20.7672 5.27194 C 21.1508 5.65546 21.4994 6.07035 21.8097 6.50965 L 23.1973 4.44215 L 23.9469 3.32647 L 25.3206 1.27989 L 25.3241 1.28338 Z" stroke-linecap="round" />
</g>
</svg>