<svg width="74" height="14" viewBox="0 0 74 14" fill="none" xmlns="http://www.w3.org/2000/svg">
<path d="M15.5316 0.489986V12.5674L14.5977 11.9246V3.57059L13.6202 5.03327C13.6687 5.13272 13.7123 5.23218 13.756 5.33405C14.0956 6.13695 14.2678 6.98836 14.2678 7.86646C14.2678 8.74455 14.0956 9.59839 13.756 10.3989C13.4649 11.0853 13.0647 11.7087 12.5626 12.2569H11.1945C11.3716 12.1187 11.5414 11.9683 11.7014 11.8057C12.7542 10.753 13.3339 9.35339 13.3339 7.86403C13.3339 7.20425 13.2199 6.56144 13.0016 5.95745L8.70089 12.4V10.6463L12.5213 4.96293C12.2933 4.58937 12.0192 4.24008 11.7014 3.92231C10.7603 2.98115 9.5426 2.4184 8.23031 2.30924V11.3788L8.22546 13.1132L7.76458 13.8045L7.3037 13.1132V11.3546L7.29885 2.31167C5.98656 2.42082 4.76887 2.98358 3.82771 3.92474C3.50995 4.2425 3.23585 4.5918 3.00783 4.96535L6.82827 10.6487V12.4025L2.52998 5.9623C2.31167 6.5663 2.19766 7.2091 2.19766 7.86888C2.19766 9.35824 2.7774 10.7579 3.83014 11.8106C3.99266 11.9731 4.16003 12.1211 4.3371 12.2618H2.96902C2.46691 11.7136 2.06425 11.0877 1.77559 10.4037C1.436 9.60081 1.26378 8.7494 1.26378 7.87131C1.26378 6.99321 1.436 6.13938 1.77559 5.33891C1.81925 5.23703 1.86292 5.13757 1.91143 5.03812L0.933884 3.57059V11.9246L0 12.5674V0.489986L0.955715 1.91386L1.47723 2.69007L2.44265 4.1285C2.65854 3.82286 2.89868 3.53663 3.16793 3.26738C3.76464 2.67067 4.46081 2.20009 5.23703 1.87262C5.89438 1.59367 6.58813 1.42872 7.30127 1.37778V0.943587C5.82889 0.999377 4.40017 1.31714 3.04907 1.8896C2.65369 2.05697 2.268 2.24375 1.89445 2.45235L1.37293 1.67371C1.79742 1.436 2.23404 1.22011 2.68522 1.03091C4.29344 0.344446 6.00111 0 7.76458 0C9.52804 0 11.2357 0.344445 12.8464 1.02849C13.2975 1.22011 13.7342 1.43357 14.1587 1.67129L13.6371 2.44993C13.2636 2.24375 12.8779 2.05697 12.4825 1.88717C11.1314 1.31471 9.70269 0.996952 8.23031 0.941161V1.37536C8.94346 1.4263 9.63477 1.59124 10.2921 1.87019C11.0683 2.19766 11.7621 2.66824 12.3612 3.26496C12.6281 3.53178 12.8706 3.82043 13.0865 4.12607L14.0519 2.68765L14.5734 1.91143L15.5292 0.48756L15.5316 0.489986Z" fill="#3F4A8D"/>
<path d="M25.0307 2.25669C24.8317 1.86615 24.5479 1.56294 24.1817 1.34949C23.8154 1.13603 23.3812 1.0293 22.8791 1.0293C22.377 1.0293 21.9452 1.13603 21.5765 1.34706C21.2078 1.56052 20.924 1.8613 20.7227 2.25426C20.5213 2.64722 20.4219 3.11295 20.4219 3.65387V3.66115C20.4219 4.20208 20.5213 4.66781 20.7227 5.06077C20.9216 5.45372 21.2054 5.75693 21.5741 5.97039C21.9428 6.18385 22.377 6.29058 22.8791 6.29058C23.3812 6.29058 23.8202 6.18385 24.1841 5.97039C24.5479 5.75693 24.8317 5.45372 25.0307 5.06077C25.2296 4.66781 25.3314 4.20208 25.3314 3.66115V3.65387C25.3314 3.11295 25.232 2.64722 25.0307 2.25669ZM24.2423 3.66115C24.2423 4.01045 24.1865 4.31608 24.0774 4.5732C23.9658 4.83275 23.8105 5.03166 23.6068 5.17477C23.403 5.31789 23.1605 5.38823 22.8791 5.38823C22.5977 5.38823 22.3576 5.31789 22.1538 5.1772C21.95 5.03651 21.7924 4.8376 21.6808 4.57806C21.5692 4.31851 21.5134 4.0153 21.5134 3.66115V3.65387C21.5134 3.29973 21.5692 2.99409 21.6808 2.73697C21.7924 2.47985 21.9525 2.28094 22.1562 2.14025C22.3624 2.00199 22.6026 1.93165 22.8815 1.93165C23.1605 1.93165 23.4006 2.00199 23.6044 2.14025C23.8081 2.28094 23.9658 2.47985 24.0774 2.73697C24.1889 2.99652 24.2447 3.29973 24.2447 3.65387V3.66115H24.2423Z" fill="#3F4A8D"/>
<path d="M29.912 1.11719V4.42338H29.8878L27.5931 1.11719H26.6641V6.2014H27.7241V2.87337H27.7459L30.0503 6.2014H30.9721V1.11719H29.912Z" fill="#3F4A8D"/>
<path d="M34.2891 1.11766V1.99575H35.7614V6.20187H36.8263V1.99333H38.2987V1.11523H34.2891V1.11766Z" fill="#3F4A8D"/>
<path d="M42.8938 1.11719V3.18143H40.6039V1.11719H39.5391V6.2014H40.6039V4.06195H42.8938V6.2014H43.9586V1.11719H42.8938Z" fill="#3F4A8D"/>
<path d="M48.8224 1.99333V1.11523H45.4531V6.20187H48.8224V5.32378H46.518V4.04787H48.6914V3.21344H46.518V1.99333H48.8224Z" fill="#3F4A8D"/>
<path d="M56.4546 1.11719L55.0138 4.77268H54.9919L53.5462 1.11719H52.3164V6.2014H53.2648V2.76422H53.2964L54.6693 6.2014H55.3388L56.7093 2.76422H56.736V6.2014H57.6868V1.11719H56.4522H56.4546Z" fill="#3F4A8D"/>
<path d="M63.6283 2.25669C63.4294 1.86615 63.1456 1.56294 62.7793 1.34949C62.413 1.13603 61.9788 1.0293 61.4767 1.0293C60.9746 1.0293 60.5429 1.13603 60.1742 1.34706C59.8054 1.56052 59.5216 1.8613 59.3203 2.25426C59.119 2.64722 59.0195 3.11295 59.0195 3.65387V3.66115C59.0195 4.20208 59.119 4.66781 59.3203 5.06077C59.5192 5.45372 59.803 5.75693 60.1717 5.97039C60.5404 6.18385 60.9746 6.29058 61.4767 6.29058C61.9788 6.29058 62.4155 6.18385 62.7817 5.97039C63.148 5.75693 63.4294 5.45372 63.6283 5.06077C63.8272 4.66781 63.9291 4.20208 63.9291 3.66115V3.65387C63.9291 3.11295 63.8296 2.64722 63.6283 2.25669ZM62.8375 3.66115C62.8375 4.01045 62.7817 4.31608 62.6726 4.5732C62.5634 4.83275 62.4058 5.03166 62.202 5.17477C61.9983 5.31789 61.7557 5.38823 61.4743 5.38823C61.1929 5.38823 60.9528 5.31789 60.749 5.1772C60.5453 5.03651 60.3852 4.8376 60.276 4.57806C60.1644 4.31851 60.1087 4.0153 60.1087 3.66115V3.65387C60.1087 3.29973 60.1644 2.99409 60.276 2.73697C60.3876 2.47985 60.5453 2.28094 60.7515 2.14025C60.9576 2.00199 61.1978 1.93165 61.4767 1.93165C61.7557 1.93165 61.9958 2.00199 62.1996 2.14025C62.4033 2.28094 62.5634 2.47985 62.6726 2.73697C62.7842 2.99652 62.84 3.29973 62.84 3.65387V3.66115H62.8375Z" fill="#3F4A8D"/>
<path d="M68.2799 1.11719L67.1204 5.11227H67.0986L65.9343 1.11719H64.7578L66.4558 6.2014H67.7559L69.4588 1.11719H68.2775H68.2799Z" fill="#3F4A8D"/>
<path d="M73.9982 1.99333V1.11523H70.6289V6.20187H73.9982V5.32378H71.6938V4.04787H73.8672V3.21344H71.6938V1.99333H73.9982Z" fill="#3F4A8D"/>
<g opacity="0.8">
<path d="M25.0792 7.00195H23.8979C23.9367 7.06502 23.9707 7.13051 24.0022 7.20328C24.1138 7.46283 24.1696 7.76604 24.1696 8.12019V8.12746C24.1696 8.47676 24.1138 8.7824 24.0046 9.03952C23.893 9.29907 23.7378 9.49797 23.534 9.64108C23.3303 9.7842 23.0877 9.85454 22.8063 9.85454C22.525 9.85454 22.2848 9.7842 22.0811 9.64351C21.8773 9.50282 21.7196 9.30392 21.6081 9.04437C21.4965 8.78482 21.4407 8.48161 21.4407 8.12746V8.12019C21.4407 7.76604 21.4965 7.45798 21.6081 7.20328C21.6396 7.13294 21.6736 7.06745 21.7124 7.00438H20.5311C20.4122 7.33184 20.3516 7.7054 20.3516 8.12019V8.12746C20.3516 8.66839 20.451 9.13412 20.6523 9.5295C20.8513 9.92246 21.1351 10.2257 21.5038 10.4391C21.8725 10.6526 22.3067 10.7569 22.8088 10.7569C23.3109 10.7569 23.7499 10.6502 24.1138 10.4367C24.4776 10.2232 24.7614 9.92004 24.9603 9.52708C25.1592 9.13412 25.2611 8.66839 25.2611 8.12746V8.12019C25.2611 7.70297 25.2029 7.33184 25.0816 7.00438L25.0792 7.00195Z" fill="#3F4A8D"/>
<path d="M29.8402 7.00195V8.8867H29.816L28.5061 7.00195H26.5898V10.6671H27.6499V7.33912H27.6717L29.9761 10.6671H30.8978V7.00195H29.8378H29.8402Z" fill="#3F4A8D"/>
<path d="M35.6875 7.00195V10.6671H36.7524V7.00195H35.6875Z" fill="#3F4A8D"/>
<path d="M42.8195 7.00195V7.64718H40.5297V7.00195H39.4648V10.6671H40.5297V8.5277H42.8195V10.6671H43.8844V7.00195H42.8195Z" fill="#3F4A8D"/>
<path d="M46.4438 9.78905V8.51315H48.6172V7.67872H46.4438V7.00195H45.3789V10.6671H48.7482V9.78905H46.4438Z" fill="#3F4A8D"/>
<path d="M55.8161 7.00195L54.9356 9.236H54.9138L54.0309 7.00195H52.2383V10.6671H53.1867V7.22997H53.2183L54.5888 10.6671H55.2582L56.6288 7.22997H56.6554V10.6671H57.6063V7.00195H55.8137H55.8161Z" fill="#3F4A8D"/>
<path d="M63.6778 7.00195H62.4965C62.5353 7.06502 62.5693 7.13051 62.6008 7.20328C62.7124 7.46283 62.7682 7.76604 62.7682 8.12019V8.12746C62.7682 8.47676 62.7124 8.7824 62.6032 9.03952C62.4941 9.29907 62.3364 9.49797 62.1326 9.64108C61.9289 9.7842 61.6863 9.85454 61.4049 9.85454C61.1236 9.85454 60.8834 9.7842 60.6772 9.64351C60.4735 9.50282 60.3158 9.30392 60.2042 9.04437C60.0927 8.78482 60.0369 8.48161 60.0369 8.12746V8.12019C60.0369 7.76604 60.0927 7.45798 60.2042 7.20328C60.2333 7.13294 60.2697 7.06745 60.3061 7.00438H59.1248C59.006 7.33184 58.9453 7.7054 58.9453 8.12019V8.12746C58.9453 8.66839 59.0448 9.13412 59.2461 9.5295C59.445 9.92246 59.7288 10.2257 60.0975 10.4391C60.4662 10.6526 60.9004 10.7569 61.4025 10.7569C61.9046 10.7569 62.3413 10.6502 62.7075 10.4367C63.0738 10.2232 63.3552 9.92004 63.5541 9.52708C63.753 9.13412 63.8549 8.66839 63.8549 8.12746V8.12019C63.8549 7.70297 63.7967 7.33184 63.6754 7.00438L63.6778 7.00195Z" fill="#3F4A8D"/>
<path d="M67.7944 7.00195L67.0473 9.57802H67.0255L66.276 7.00195H65.1602L66.3851 10.6671H67.6853L68.9127 7.00195H67.7944Z" fill="#3F4A8D"/>
<path d="M71.6196 9.78905V8.51315H73.793V7.67872H71.6196V7.00195H70.5547V10.6671H73.9239V9.78905H71.6196Z" fill="#3F4A8D"/>
</g>
<g opacity="0.6">
<path d="M23.9046 11.1309C23.7955 11.3564 23.6499 11.5311 23.4656 11.6621C23.2618 11.8052 23.0192 11.8755 22.7379 11.8755C22.4565 11.8755 22.2163 11.8052 22.0126 11.6645C21.8258 11.5359 21.6778 11.3589 21.5687 11.1333H20.4141C20.4577 11.2813 20.5135 11.4195 20.5814 11.5505C20.7803 11.9435 21.0641 12.2467 21.4328 12.4601C21.8015 12.6736 22.2357 12.7779 22.7379 12.7779C23.24 12.7779 23.679 12.6712 24.0429 12.4577C24.4067 12.2442 24.6905 11.941 24.8894 11.5481C24.9549 11.4171 25.0107 11.2788 25.0544 11.1333H23.9022L23.9046 11.1309Z" fill="#3F4A8D"/>
<path d="M26.5273 11.1309V12.6881H27.5874V11.1309H26.5273ZM28.8366 11.1309L29.916 12.6881H30.8378V11.1309H28.8366Z" fill="#3F4A8D"/>
<path d="M35.625 11.1309V12.6881H36.6899V11.1309H35.625Z" fill="#3F4A8D"/>
<path d="M39.3984 11.1309V12.6881H40.4633V11.1309H39.3984ZM42.7531 11.1309V12.6881H43.818V11.1309H42.7531Z" fill="#3F4A8D"/>
<path d="M46.3774 11.81V11.1309H45.3125V12.6881H48.6818V11.81H46.3774Z" fill="#3F4A8D"/>
<path d="M52.1758 11.1309V12.6881H53.1242V11.1309H52.1758ZM54.9216 11.1309L54.8707 11.257H54.8489L54.7979 11.1309H53.9029L54.5238 12.6881H55.1933L55.8143 11.1309H54.9192H54.9216ZM56.5954 11.1309V12.6881H57.5462V11.1309H56.5954Z" fill="#3F4A8D"/>
<path d="M62.5023 11.1309C62.3955 11.3564 62.2476 11.5311 62.0632 11.6621C61.8595 11.8052 61.6169 11.8755 61.3355 11.8755C61.0541 11.8755 60.814 11.8052 60.6078 11.6645C60.421 11.5359 60.2731 11.3589 60.1663 11.1333H59.0117C59.0554 11.2813 59.1112 11.4195 59.1791 11.5505C59.378 11.9435 59.6618 12.2467 60.0305 12.4601C60.3992 12.6736 60.8334 12.7779 61.3355 12.7779C61.8376 12.7779 62.2742 12.6712 62.6405 12.4577C63.0068 12.2442 63.2882 11.941 63.4871 11.5481C63.5526 11.4171 63.6084 11.2788 63.652 11.1333H62.4998L62.5023 11.1309Z" fill="#3F4A8D"/>
<path d="M67.1164 11.1309L66.9806 11.599H66.9588L66.8229 11.1309H65.7969L66.316 12.6881H67.6161L68.1376 11.1309H67.114H67.1164Z" fill="#3F4A8D"/>
<path d="M71.5531 11.81V11.1309H70.4883V12.6881H73.8575V11.81H71.5531Z" fill="#3F4A8D"/>
</g>
</svg>
