<svg width="109" height="21" viewBox="0 0 109 21" fill="none" xmlns="http://www.w3.org/2000/svg">
<g clip-path="url(#clip0_3264_4741)">
<path d="M22.694 0.388867L22.6912 18.5435L21.0673 17.4222V5.75342L19.9572 7.41641C20.0152 7.53858 20.0703 7.66215 20.122 7.78433C20.6191 8.96001 20.8711 10.2083 20.8711 11.495C20.8711 12.7817 20.6191 14.0299 20.122 15.2056C19.6975 16.2096 19.109 17.1255 18.3731 17.9284L18.3319 17.9738H15.8912L16.2089 17.7245C16.4595 17.5277 16.7018 17.3126 16.9294 17.085C18.4227 15.5924 19.2451 13.6069 19.2451 11.495C19.2451 10.6579 19.1167 9.83897 18.8632 9.05496L12.5576 18.5016V15.4674L12.5813 15.4325L18.0457 7.30331C17.7301 6.79994 17.3545 6.33009 16.9294 5.90422C15.6434 4.61894 13.9539 3.81467 12.1568 3.63036L12.1519 19.1104L11.347 20.3154L10.5427 19.1104L10.5413 16.5279L10.5371 3.63036C8.7401 3.81467 7.05059 4.61894 5.7646 5.90422C5.33943 6.33009 4.96383 6.80064 4.64826 7.30331L10.1364 15.4674V18.5016L3.83073 9.05496C3.57731 9.83897 3.44954 10.6579 3.44954 11.495C3.44954 13.6069 4.27196 15.5924 5.7646 17.085C5.9922 17.3119 6.23445 17.527 6.48509 17.7245L6.80274 17.9738H4.36202L4.32083 17.9284C3.58499 17.1255 2.99645 16.2096 2.57197 15.2056C2.07489 14.0299 1.82286 12.7817 1.82286 11.495C1.82286 10.2083 2.07489 8.96001 2.57197 7.78433C2.62364 7.66146 2.67949 7.53789 2.73674 7.41641L1.62738 5.75342V17.4222L0.00279259 18.5435L0 0.388867L3.67156 5.85047C3.9557 5.46509 4.27196 5.09717 4.61475 4.75438C5.49023 3.8789 6.50952 3.19192 7.64471 2.7116C8.56696 2.32134 9.53948 2.08117 10.5364 1.9967V1.64553C8.48249 1.73908 6.4816 2.19218 4.59102 2.99225C4.02761 3.23032 3.47119 3.5012 2.9385 3.79582L2.8261 3.85796L1.91781 2.50355L2.04906 2.42955C2.66413 2.08397 3.30573 1.7691 3.9578 1.49403C6.30078 0.502665 8.78688 0 11.347 0C13.9071 0 16.3932 0.502665 18.7362 1.49403C19.3882 1.7691 20.0298 2.08397 20.6449 2.42955L20.7769 2.50355L19.8679 3.85796L19.7555 3.79582C19.2228 3.5012 18.6664 3.23032 18.103 2.99225C16.2138 2.19288 14.2136 1.73978 12.1575 1.64553V1.9967C13.1552 2.08117 14.127 2.32134 15.05 2.7116C16.1844 3.19192 17.2037 3.8789 18.0792 4.75438C18.422 5.09647 18.7383 5.46509 19.0224 5.85047L22.694 0.388867Z" fill="#1F1F1F"/>
</g>
<path d="M36.7389 3.30155C36.4454 2.72522 36.0265 2.27776 35.486 1.96275C34.9455 1.64774 34.3047 1.49023 33.5637 1.49023C32.8227 1.49023 32.1855 1.64774 31.6414 1.95917C31.0973 2.27418 30.6785 2.71806 30.3814 3.29797C30.0843 3.87788 29.9375 4.56518 29.9375 5.36345V5.37419C29.9375 6.17246 30.0843 6.85975 30.3814 7.43966C30.6749 8.01957 31.0937 8.46703 31.6378 8.78204C32.182 9.09705 32.8227 9.25456 33.5637 9.25456C34.3047 9.25456 34.9526 9.09705 35.4896 8.78204C36.0265 8.46703 36.4454 8.01957 36.7389 7.43966C37.0324 6.85975 37.1828 6.17246 37.1828 5.37419V5.36345C37.1828 4.56518 37.036 3.87788 36.7389 3.30155ZM35.5755 5.37419C35.5755 5.88966 35.4932 6.3407 35.3321 6.72015C35.1674 7.10317 34.9383 7.39671 34.6376 7.60791C34.3369 7.81911 33.979 7.92292 33.5637 7.92292C33.1485 7.92292 32.7941 7.81911 32.4934 7.61149C32.1927 7.40387 31.96 7.11033 31.7954 6.72731C31.6307 6.34428 31.5484 5.89682 31.5484 5.37419V5.36345C31.5484 4.84081 31.6307 4.38978 31.7954 4.01033C31.96 3.63088 32.1963 3.33735 32.497 3.12973C32.8012 2.92569 33.1556 2.82188 33.5673 2.82188C33.979 2.82188 34.3333 2.92569 34.634 3.12973C34.9347 3.33735 35.1674 3.63088 35.3321 4.01033C35.4967 4.39335 35.5791 4.84081 35.5791 5.36345V5.37419H35.5755Z" fill="#1F1F1F"/>
<path d="M43.9455 1.61914V6.49824H43.9097L40.5234 1.61914H39.1523V9.12215H40.7167V4.21083H40.7489L44.1496 9.12215H45.5099V1.61914H43.9455Z" fill="#1F1F1F"/>
<path d="M50.4023 1.61881V2.91466H52.5752V9.12182H54.1467V2.91108H56.3196V1.61523H50.4023V1.61881Z" fill="#1F1F1F"/>
<path d="M63.0991 1.61914V4.66545H59.7199V1.61914H58.1484V9.12215H59.7199V5.96487H63.0991V9.12215H64.6706V1.61914H63.0991Z" fill="#1F1F1F"/>
<path d="M71.8472 2.91108V1.61523H66.875V9.12182H71.8472V7.82598H68.4465V5.94307H71.6539V4.71166H68.4465V2.91108H71.8472Z" fill="#1F1F1F"/>
<path d="M83.1108 1.61914L80.9845 7.01372H80.9523L78.8188 1.61914H77.0039V9.12215H78.4036V4.04974H78.4501L80.4762 9.12215H81.4642L83.4867 4.04974H83.5261V9.12215H84.9293V1.61914H83.1073H83.1108Z" fill="#1F1F1F"/>
<path d="M93.6998 3.30155C93.4063 2.72522 92.9875 2.27776 92.4469 1.96275C91.9064 1.64774 91.2656 1.49023 90.5246 1.49023C89.7837 1.49023 89.1465 1.64774 88.6024 1.95917C88.0583 2.27418 87.6394 2.71806 87.3423 3.29797C87.0452 3.87788 86.8984 4.56518 86.8984 5.36345V5.37419C86.8984 6.17246 87.0452 6.85975 87.3423 7.43966C87.6358 8.01957 88.0547 8.46703 88.5988 8.78204C89.1429 9.09705 89.7837 9.25456 90.5246 9.25456C91.2656 9.25456 91.91 9.09705 92.4505 8.78204C92.991 8.46703 93.4063 8.01957 93.6998 7.43966C93.9934 6.85975 94.1437 6.17246 94.1437 5.37419V5.36345C94.1437 4.56518 93.9969 3.87788 93.6998 3.30155ZM92.5329 5.37419C92.5329 5.88966 92.4505 6.3407 92.2894 6.72015C92.1283 7.10317 91.8957 7.39671 91.595 7.60791C91.2943 7.81911 90.9363 7.92292 90.5211 7.92292C90.1058 7.92292 89.7514 7.81911 89.4507 7.61149C89.1501 7.40387 88.9138 7.11033 88.7527 6.72731C88.588 6.34428 88.5057 5.89682 88.5057 5.37419V5.36345C88.5057 4.84081 88.588 4.38978 88.7527 4.01033C88.9174 3.63088 89.1501 3.33735 89.4543 3.12973C89.7586 2.92569 90.113 2.82188 90.5246 2.82188C90.9363 2.82188 91.2907 2.92569 91.5914 3.12973C91.8921 3.33735 92.1283 3.63088 92.2894 4.01033C92.4541 4.39335 92.5364 4.84081 92.5364 5.36345V5.37419H92.5329Z" fill="#1F1F1F"/>
<path d="M100.565 1.61914L98.8538 7.51487H98.8216L97.1033 1.61914H95.3672L97.873 9.12215H99.7917L102.305 1.61914H100.561H100.565Z" fill="#1F1F1F"/>
<path d="M109.003 2.91108V1.61523H104.031V9.12182H109.003V7.82598H105.603V5.94307H108.81V4.71166H105.603V2.91108H109.003Z" fill="#1F1F1F"/>
<g opacity="0.8">
<path d="M36.8088 10.3027H35.0655C35.1228 10.3958 35.1729 10.4925 35.2194 10.5998C35.3841 10.9829 35.4664 11.4303 35.4664 11.953V11.9637C35.4664 12.4792 35.3841 12.9302 35.223 13.3097C35.0584 13.6927 34.8293 13.9862 34.5286 14.1974C34.2279 14.4086 33.8699 14.5124 33.4547 14.5124C33.0394 14.5124 32.685 14.4086 32.3843 14.201C32.0836 13.9934 31.851 13.6999 31.6863 13.3168C31.5216 12.9338 31.4393 12.4863 31.4393 11.9637V11.953C31.4393 11.4303 31.5216 10.9757 31.6863 10.5998C31.7328 10.496 31.783 10.3994 31.8402 10.3063H30.0969C29.9215 10.7896 29.832 11.3408 29.832 11.953V11.9637C29.832 12.762 29.9788 13.4493 30.2759 14.0328C30.5694 14.6127 30.9883 15.0601 31.5324 15.3751C32.0765 15.6902 32.7173 15.8441 33.4582 15.8441C34.1992 15.8441 34.8472 15.6866 35.3841 15.3716C35.9211 15.0565 36.3399 14.6091 36.6334 14.0292C36.927 13.4493 37.0773 12.762 37.0773 11.9637V11.953C37.0773 11.3373 36.9914 10.7896 36.8124 10.3063L36.8088 10.3027Z" fill="#1F1F1F"/>
<path d="M43.8319 10.3027V13.0841H43.7961L41.8631 10.3027H39.0352V15.7116H40.5995V10.8003H40.6317L44.0324 15.7116H45.3927V10.3027H43.8283H43.8319Z" fill="#1F1F1F"/>
<path d="M52.4609 10.3027V15.7116H54.0324V10.3027H52.4609Z" fill="#1F1F1F"/>
<path d="M62.9859 10.3027V11.2549H59.6066V10.3027H58.0352V15.7116H59.6066V12.5544H62.9859V15.7116H64.5573V10.3027H62.9859Z" fill="#1F1F1F"/>
<path d="M68.3332 14.4158V12.5329H71.5406V11.3015H68.3332V10.3027H66.7617V15.7116H71.7339V14.4158H68.3332Z" fill="#1F1F1F"/>
<path d="M82.1707 10.3027L80.8712 13.5996H80.839L79.536 10.3027H76.8906V15.7116H78.2903V10.6392H78.3368L80.3593 15.7116H81.3473L83.3698 10.6392H83.4092V15.7116H84.8125V10.3027H82.1671H82.1707Z" fill="#1F1F1F"/>
<path d="M93.7691 10.3027H92.0258C92.0831 10.3958 92.1332 10.4925 92.1797 10.5998C92.3444 10.9829 92.4267 11.4303 92.4267 11.953V11.9637C92.4267 12.4792 92.3444 12.9302 92.1833 13.3097C92.0222 13.6927 91.7895 13.9862 91.4889 14.1974C91.1882 14.4086 90.8302 14.5124 90.415 14.5124C89.9997 14.5124 89.6453 14.4086 89.341 14.201C89.0404 13.9934 88.8077 13.6999 88.643 13.3168C88.4783 12.9338 88.396 12.4863 88.396 11.9637V11.953C88.396 11.4303 88.4783 10.9757 88.643 10.5998C88.686 10.496 88.7397 10.3994 88.7934 10.3063H87.0501C86.8747 10.7896 86.7852 11.3408 86.7852 11.953V11.9637C86.7852 12.762 86.9319 13.4493 87.229 14.0328C87.5226 14.6127 87.9414 15.0601 88.4855 15.3751C89.0296 15.6902 89.6704 15.8441 90.4114 15.8441C91.1524 15.8441 91.7967 15.6866 92.3372 15.3716C92.8778 15.0565 93.293 14.6091 93.5866 14.0292C93.8801 13.4493 94.0304 12.762 94.0304 11.9637V11.953C94.0304 11.3373 93.9445 10.7896 93.7655 10.3063L93.7691 10.3027Z" fill="#1F1F1F"/>
<path d="M99.8485 10.3027L98.7459 14.1044H98.7137L97.6076 10.3027H95.9609L97.7687 15.7116H99.6874L101.499 10.3027H99.8485Z" fill="#1F1F1F"/>
<path d="M105.493 14.4158V12.5329H108.701V11.3015H105.493V10.3027H103.922V15.7116H108.894V14.4158H105.493Z" fill="#1F1F1F"/>
</g>
<g opacity="0.6">
<path d="M35.073 16.3965C34.9119 16.7294 34.6972 16.9871 34.4251 17.1804C34.1244 17.3916 33.7664 17.4954 33.3512 17.4954C32.936 17.4954 32.5816 17.3916 32.2809 17.184C32.0052 16.9943 31.7869 16.733 31.6258 16.4001H29.9219C29.9863 16.6184 30.0686 16.8225 30.1689 17.0158C30.4624 17.5957 30.8812 18.0431 31.4253 18.3581C31.9695 18.6732 32.6102 18.8271 33.3512 18.8271C34.0922 18.8271 34.7401 18.6696 35.2771 18.3546C35.814 18.0396 36.2328 17.5921 36.5264 17.0122C36.623 16.8189 36.7054 16.6148 36.7698 16.4001H35.0695L35.073 16.3965Z" fill="#1F1F1F"/>
<path d="M38.9414 16.3965V18.6946H40.5057V16.3965H38.9414ZM42.3493 16.3965L43.9422 18.6946H45.3025V16.3965H42.3493Z" fill="#1F1F1F"/>
<path d="M52.3672 16.3965V18.6946H53.9387V16.3965H52.3672Z" fill="#1F1F1F"/>
<path d="M57.9375 16.3965V18.6946H59.509V16.3965H57.9375ZM62.8882 16.3965V18.6946H64.4597V16.3965H62.8882Z" fill="#1F1F1F"/>
<path d="M68.2394 17.3988V16.3965H66.668V18.6946H71.6401V17.3988H68.2394Z" fill="#1F1F1F"/>
<path d="M76.793 16.3965V18.6946H78.1926V16.3965H76.793ZM80.8452 16.3965L80.77 16.5826H80.7378L80.6626 16.3965H79.3417L80.2581 18.6946H81.2461L82.1625 16.3965H80.8416H80.8452ZM83.3151 16.3965V18.6946H84.7184V16.3965H83.3151Z" fill="#1F1F1F"/>
<path d="M92.034 16.3965C91.8765 16.7294 91.6581 16.9871 91.3861 17.1804C91.0854 17.3916 90.7274 17.4954 90.3121 17.4954C89.8969 17.4954 89.5425 17.3916 89.2382 17.184C88.9626 16.9943 88.7442 16.733 88.5867 16.4001H86.8828C86.9472 16.6184 87.0296 16.8225 87.1298 17.0158C87.4233 17.5957 87.8422 18.0431 88.3863 18.3581C88.9304 18.6732 89.5712 18.8271 90.3121 18.8271C91.0531 18.8271 91.6975 18.6696 92.238 18.3546C92.7785 18.0396 93.1938 17.5921 93.4873 17.0122C93.584 16.8189 93.6663 16.6148 93.7307 16.4001H92.0304L92.034 16.3965Z" fill="#1F1F1F"/>
<path d="M98.8458 16.3965L98.6453 17.0874H98.6131L98.4126 16.3965H96.8984L97.6645 18.6946H99.5832L100.353 16.3965H98.8422H98.8458Z" fill="#1F1F1F"/>
<path d="M105.392 17.3988V16.3965H103.82V18.6946H108.792V17.3988H105.392Z" fill="#1F1F1F"/>
</g>
<defs>
<clipPath id="clip0_3264_4741">
<rect width="22.694" height="20.3154" fill="white"/>
</clipPath>
</defs>
</svg>
