<svg width="108" height="20" viewBox="0 0 108 20" fill="none" xmlns="http://www.w3.org/2000/svg">
<path d="M22.5022 0.709893V18.2077L21.1492 17.2764V5.17308L19.7329 7.29222C19.8032 7.4363 19.8665 7.58039 19.9297 7.72799C20.4217 8.89123 20.6712 10.1248 20.6712 11.3969C20.6712 12.6691 20.4217 13.9062 19.9297 15.0659C19.508 16.0604 18.9281 16.9636 18.2007 17.7579H16.2186C16.4751 17.5575 16.7211 17.3397 16.9531 17.1042C18.4783 15.579 19.3182 13.5512 19.3182 11.3934C19.3182 10.4375 19.153 9.50624 18.8368 8.63117L12.6059 17.9652V15.4244L18.1409 7.1903C17.8106 6.6491 17.4135 6.14303 16.9531 5.68266C15.5895 4.3191 13.8253 3.50378 11.9241 3.34563V16.4857L11.9171 18.9984L11.2493 20L10.5816 18.9984V16.4505L10.5746 3.34915C8.67334 3.50729 6.90916 4.32262 5.5456 5.68617C5.08522 6.14655 4.6881 6.65261 4.35776 7.19382L9.89281 15.4279V17.9687L3.66544 8.6382C3.34915 9.51327 3.18398 10.4446 3.18398 11.4005C3.18398 13.5583 4.0239 15.586 5.54911 17.1112C5.78457 17.3467 6.02706 17.5611 6.28361 17.7649H4.30153C3.57406 16.9707 2.99069 16.064 2.57248 15.0729C2.08048 13.9097 1.83096 12.6762 1.83096 11.404C1.83096 10.1318 2.08048 8.89475 2.57248 7.73502C2.63574 7.58742 2.699 7.44333 2.76929 7.29925L1.35301 5.17308V17.2764L0 18.2077V0.709893L1.38464 2.7728L2.14022 3.89738L3.53892 5.98137C3.8517 5.53857 4.19961 5.12388 4.5897 4.73379C5.45423 3.86927 6.46284 3.18749 7.58742 2.71306C8.5398 2.30891 9.5449 2.06994 10.5781 1.99613V1.36707C8.44491 1.4479 6.37498 1.90828 4.4175 2.73766C3.84467 2.98014 3.28589 3.25075 2.74468 3.55298L1.98911 2.42488C2.60411 2.08048 3.23669 1.7677 3.89035 1.49359C6.22035 0.499034 8.69443 0 11.2493 0C13.8043 0 16.2783 0.499034 18.6118 1.49007C19.2655 1.7677 19.8981 2.07696 20.5131 2.42137L19.7575 3.54946C19.2163 3.25075 18.6575 2.98014 18.0847 2.73414C16.1272 1.90476 14.0573 1.44439 11.9241 1.36356V1.99262C12.9573 2.06642 13.9589 2.30539 14.9113 2.70954C16.0358 3.18397 17.0409 3.86575 17.909 4.73028C18.2956 5.11685 18.647 5.53506 18.9598 5.97786L20.3585 3.89387L21.114 2.76929L22.4987 0.706379L22.5022 0.709893Z" fill="#DEDEDE" fill-opacity="0.5" style="mix-blend-mode:plus-lighter"/>
<path d="M36.271 3.27043C35.9828 2.70463 35.5716 2.26534 35.0409 1.95608C34.5103 1.64682 33.8812 1.49219 33.1538 1.49219C32.4263 1.49219 31.8007 1.64682 31.2666 1.95256C30.7324 2.26182 30.3212 2.6976 30.0295 3.26692C29.7378 3.83624 29.5938 4.51099 29.5938 5.29468V5.30523C29.5938 6.08892 29.7378 6.76367 30.0295 7.33299C30.3177 7.90231 30.7289 8.3416 31.2631 8.65086C31.7972 8.96012 32.4263 9.11475 33.1538 9.11475C33.8812 9.11475 34.5173 8.96012 35.0445 8.65086C35.5716 8.3416 35.9828 7.90231 36.271 7.33299C36.5591 6.76367 36.7067 6.08892 36.7067 5.30523V5.29468C36.7067 4.51099 36.5626 3.83624 36.271 3.27043V3.27043ZM35.1288 5.30523C35.1288 5.81129 35.048 6.25409 34.8898 6.62661C34.7282 7.00264 34.5033 7.29082 34.2081 7.49816C33.9129 7.70551 33.5614 7.80742 33.1538 7.80742C32.7461 7.80742 32.3982 7.70551 32.103 7.50168C31.8078 7.29785 31.5793 7.00967 31.4177 6.63364C31.256 6.25761 31.1752 5.81832 31.1752 5.30523V5.29468C31.1752 4.78159 31.256 4.33879 31.4177 3.96627C31.5793 3.59375 31.8113 3.30558 32.1065 3.10175C32.4052 2.90143 32.7531 2.79951 33.1573 2.79951C33.5614 2.79951 33.9093 2.90143 34.2045 3.10175C34.4997 3.30558 34.7282 3.59375 34.8898 3.96627C35.0515 4.3423 35.1323 4.78159 35.1323 5.29468V5.30523H35.1288Z" fill="#DEDEDE" fill-opacity="0.5" style="mix-blend-mode:plus-lighter"/>
<path d="M43.3463 1.61914V6.40916H43.3112L39.9866 1.61914H38.6406V8.98516H40.1764V4.16351H40.208L43.5466 8.98516H44.8821V1.61914H43.3463V1.61914Z" fill="#DEDEDE" fill-opacity="0.5" style="mix-blend-mode:plus-lighter"/>
<path d="M49.6875 1.61875V2.89093H51.8207V8.98477H53.3635V2.88742H55.4967V1.61523H49.6875V1.61875Z" fill="#DEDEDE" fill-opacity="0.5" style="mix-blend-mode:plus-lighter"/>
<path d="M62.1494 1.61914V4.60983H58.8318V1.61914H57.2891V8.98516H58.8318V5.88553H62.1494V8.98516H63.6922V1.61914H62.1494Z" fill="#DEDEDE" fill-opacity="0.5" style="mix-blend-mode:plus-lighter"/>
<path d="M70.7408 2.88742V1.61523H65.8594V8.98477H70.7408V7.71258H67.4022V5.86405H70.551V4.65512H67.4022V2.88742H70.7408V2.88742Z" fill="#DEDEDE" fill-opacity="0.5" style="mix-blend-mode:plus-lighter"/>
<path d="M81.7962 1.61914L79.7087 6.91522H79.6771L77.5825 1.61914H75.8008V8.98516H77.1749V4.00536H77.2206L79.2097 8.98516H80.1796L82.1652 4.00536H82.2039V8.98516H83.5815V1.61914H81.7927H81.7962Z" fill="#DEDEDE" fill-opacity="0.5" style="mix-blend-mode:plus-lighter"/>
<path d="M92.1928 3.27043C91.9047 2.70463 91.4935 2.26534 90.9628 1.95608C90.4322 1.64682 89.8031 1.49219 89.0756 1.49219C88.3482 1.49219 87.7226 1.64682 87.1884 1.95256C86.6543 2.26182 86.2431 2.6976 85.9514 3.26692C85.6597 3.83624 85.5156 4.51099 85.5156 5.29468V5.30523C85.5156 6.08892 85.6597 6.76367 85.9514 7.33299C86.2396 7.90231 86.6508 8.3416 87.1849 8.65086C87.7191 8.96012 88.3482 9.11475 89.0756 9.11475C89.8031 9.11475 90.4357 8.96012 90.9663 8.65086C91.497 8.3416 91.9047 7.90231 92.1928 7.33299C92.481 6.76367 92.6286 6.08892 92.6286 5.30523V5.29468C92.6286 4.51099 92.4845 3.83624 92.1928 3.27043V3.27043ZM91.0472 5.30523C91.0472 5.81129 90.9663 6.25409 90.8082 6.62661C90.65 7.00264 90.4216 7.29082 90.1264 7.49816C89.8312 7.70551 89.4798 7.80742 89.0721 7.80742C88.6645 7.80742 88.3165 7.70551 88.0213 7.50168C87.7261 7.29785 87.4942 7.00967 87.336 6.63364C87.1744 6.25761 87.0936 5.81832 87.0936 5.30523V5.29468C87.0936 4.78159 87.1744 4.33879 87.336 3.96627C87.4977 3.59375 87.7261 3.30558 88.0249 3.10175C88.3236 2.90143 88.6715 2.79951 89.0756 2.79951C89.4798 2.79951 89.8277 2.90143 90.1229 3.10175C90.4181 3.30558 90.65 3.59375 90.8082 3.96627C90.9699 4.3423 91.0507 4.78159 91.0507 5.29468V5.30523H91.0472Z" fill="#DEDEDE" fill-opacity="0.5" style="mix-blend-mode:plus-lighter"/>
<path d="M98.9309 1.61914L97.2511 7.40723H97.2194L95.5326 1.61914H93.8281L96.2881 8.98516H98.1718L100.639 1.61914H98.9274H98.9309Z" fill="#DEDEDE" fill-opacity="0.5" style="mix-blend-mode:plus-lighter"/>
<path d="M107.213 2.88742V1.61523H102.332V8.98477H107.213V7.71258H103.875V5.86405H107.024V4.65512H103.875V2.88742H107.213V2.88742Z" fill="#DEDEDE" fill-opacity="0.5" style="mix-blend-mode:plus-lighter"/>
<g opacity="0.8">
<path d="M36.3416 10.1445H34.6301C34.6864 10.2359 34.7356 10.3308 34.7812 10.4362C34.9429 10.8123 35.0237 11.2515 35.0237 11.7646V11.7752C35.0237 12.2812 34.9429 12.724 34.7848 13.0966C34.6231 13.4726 34.3982 13.7608 34.103 13.9681C33.8078 14.1755 33.4563 14.2774 33.0487 14.2774C32.641 14.2774 32.2931 14.1755 31.9979 13.9716C31.7027 13.7678 31.4743 13.4796 31.3126 13.1036C31.1509 12.7276 31.0701 12.2883 31.0701 11.7752V11.7646C31.0701 11.2515 31.1509 10.8052 31.3126 10.4362C31.3583 10.3343 31.4075 10.2394 31.4637 10.148H29.7522C29.58 10.6225 29.4922 11.1637 29.4922 11.7646V11.7752C29.4922 12.5589 29.6363 13.2336 29.928 13.8065C30.2161 14.3758 30.6273 14.8151 31.1615 15.1243C31.6957 15.4336 32.3247 15.5847 33.0522 15.5847C33.7797 15.5847 34.4157 15.4301 34.9429 15.1208C35.47 14.8115 35.8812 14.3723 36.1694 13.8029C36.4576 13.2336 36.6052 12.5589 36.6052 11.7752V11.7646C36.6052 11.1602 36.5208 10.6225 36.3451 10.148L36.3416 10.1445Z" fill="#DEDEDE" fill-opacity="0.5" style="mix-blend-mode:plus-lighter"/>
<path d="M43.2365 10.1445V12.8752H43.2014L41.3037 10.1445H38.5273V15.4547H40.0631V10.633H40.0947L43.4333 15.4547H44.7688V10.1445H43.233H43.2365Z" fill="#DEDEDE" fill-opacity="0.5" style="mix-blend-mode:plus-lighter"/>
<path d="M51.7109 10.1445V15.4547H53.2537V10.1445H51.7109V10.1445Z" fill="#DEDEDE" fill-opacity="0.5" style="mix-blend-mode:plus-lighter"/>
<path d="M62.04 10.1445V11.0793H58.7225V10.1445H57.1797V15.4547H58.7225V12.355H62.04V15.4547H63.5828V10.1445H62.04V10.1445Z" fill="#DEDEDE" fill-opacity="0.5" style="mix-blend-mode:plus-lighter"/>
<path d="M67.2928 14.1825V12.334H70.4416V11.125H67.2928V10.1445H65.75V15.4547H70.6314V14.1825H67.2928V14.1825Z" fill="#DEDEDE" fill-opacity="0.5" style="mix-blend-mode:plus-lighter"/>
<path d="M80.875 10.1445L79.5993 13.3812H79.5677L78.2885 10.1445H75.6914V15.4547H77.0655V10.4749H77.1112L79.0968 15.4547H80.0667L82.0523 10.4749H82.091V15.4547H83.4686V10.1445H80.8715H80.875Z" fill="#DEDEDE" fill-opacity="0.5" style="mix-blend-mode:plus-lighter"/>
<path d="M92.2627 10.1445H90.5512C90.6074 10.2359 90.6566 10.3308 90.7023 10.4362C90.864 10.8123 90.9448 11.2515 90.9448 11.7646V11.7752C90.9448 12.2812 90.864 12.724 90.7058 13.0966C90.5477 13.4726 90.3193 13.7608 90.0241 13.9681C89.7289 14.1755 89.3774 14.2774 88.9698 14.2774C88.5621 14.2774 88.2142 14.1755 87.9155 13.9716C87.6203 13.7678 87.3918 13.4796 87.2302 13.1036C87.0685 12.7276 86.9877 12.2883 86.9877 11.7752V11.7646C86.9877 11.2515 87.0685 10.8052 87.2302 10.4362C87.2724 10.3343 87.3251 10.2394 87.3778 10.148H85.6663C85.4941 10.6225 85.4062 11.1637 85.4062 11.7646V11.7752C85.4062 12.5589 85.5503 13.2336 85.842 13.8065C86.1302 14.3758 86.5414 14.8151 87.0756 15.1243C87.6097 15.4336 88.2388 15.5847 88.9663 15.5847C89.6937 15.5847 90.3263 15.4301 90.857 15.1208C91.3876 14.8115 91.7953 14.3723 92.0835 13.8029C92.3716 13.2336 92.5192 12.5589 92.5192 11.7752V11.7646C92.5192 11.1602 92.4349 10.6225 92.2592 10.148L92.2627 10.1445Z" fill="#DEDEDE" fill-opacity="0.5" style="mix-blend-mode:plus-lighter"/>
<path d="M98.2306 10.1445L97.1482 13.8767H97.1166L96.0306 10.1445H94.4141L96.1888 15.4547H98.0725L99.8507 10.1445H98.2306V10.1445Z" fill="#DEDEDE" fill-opacity="0.5" style="mix-blend-mode:plus-lighter"/>
<path d="M103.773 14.1825V12.334H106.922V11.125H103.773V10.1445H102.23V15.4547H107.112V14.1825H103.773V14.1825Z" fill="#DEDEDE" fill-opacity="0.5" style="mix-blend-mode:plus-lighter"/>
</g>
<g opacity="0.6">
<path d="M34.6352 16.127C34.4771 16.4538 34.2662 16.7068 33.9991 16.8966C33.7039 17.1039 33.3525 17.2058 32.9448 17.2058C32.5372 17.2058 32.1893 17.1039 31.8941 16.9001C31.6235 16.7138 31.4091 16.4573 31.2509 16.1305H29.5781C29.6414 16.3448 29.7222 16.5452 29.8206 16.7349C30.1088 17.3043 30.52 17.7435 31.0541 18.0528C31.5883 18.3621 32.2174 18.5132 32.9448 18.5132C33.6723 18.5132 34.3084 18.3585 34.8355 18.0493C35.3627 17.74 35.7739 17.3007 36.062 16.7314C36.1569 16.5416 36.2378 16.3413 36.301 16.1305H34.6317L34.6352 16.127Z" fill="#DEDEDE" fill-opacity="0.5" style="mix-blend-mode:plus-lighter"/>
<path d="M38.4336 16.127V18.3831H39.9694V16.127H38.4336ZM41.7792 16.127L43.3431 18.3831H44.6785V16.127H41.7792Z" fill="#DEDEDE" fill-opacity="0.5" style="mix-blend-mode:plus-lighter"/>
<path d="M51.6133 16.127V18.3831H53.1561V16.127H51.6133Z" fill="#DEDEDE" fill-opacity="0.5" style="mix-blend-mode:plus-lighter"/>
<path d="M57.082 16.127V18.3831H58.6248V16.127H57.082ZM61.9423 16.127V18.3831H63.4851V16.127H61.9423Z" fill="#DEDEDE" fill-opacity="0.5" style="mix-blend-mode:plus-lighter"/>
<path d="M67.1951 17.111V16.127H65.6523V18.3831H70.5337V17.111H67.1951V17.111Z" fill="#DEDEDE" fill-opacity="0.5" style="mix-blend-mode:plus-lighter"/>
<path d="M75.5938 16.127V18.3831H76.9678V16.127H75.5938ZM79.572 16.127L79.4982 16.3097H79.4665L79.3927 16.127H78.0959L78.9956 18.3831H79.9656L80.8652 16.127H79.5684H79.572ZM81.9968 16.127V18.3831H83.3745V16.127H81.9968Z" fill="#DEDEDE" fill-opacity="0.5" style="mix-blend-mode:plus-lighter"/>
<path d="M90.5571 16.127C90.4025 16.4538 90.1881 16.7068 89.921 16.8966C89.6258 17.1039 89.2744 17.2058 88.8667 17.2058C88.4591 17.2058 88.1111 17.1039 87.8124 16.9001C87.5418 16.7138 87.3274 16.4573 87.1728 16.1305H85.5C85.5633 16.3448 85.6441 16.5452 85.7425 16.7349C86.0307 17.3043 86.4418 17.7435 86.976 18.0528C87.5102 18.3621 88.1393 18.5132 88.8667 18.5132C89.5942 18.5132 90.2268 18.3585 90.7574 18.0493C91.2881 17.74 91.6958 17.3007 91.9839 16.7314C92.0788 16.5416 92.1596 16.3413 92.2229 16.1305H90.5536L90.5571 16.127Z" fill="#DEDEDE" fill-opacity="0.5" style="mix-blend-mode:plus-lighter"/>
<path d="M97.2438 16.127L97.047 16.8052H97.0154L96.8186 16.127H95.332L96.0841 18.3831H97.9678L98.7233 16.127H97.2403H97.2438Z" fill="#DEDEDE" fill-opacity="0.5" style="mix-blend-mode:plus-lighter"/>
<path d="M103.672 17.111V16.127H102.129V18.3831H107.01V17.111H103.672V17.111Z" fill="#DEDEDE" fill-opacity="0.5" style="mix-blend-mode:plus-lighter"/>
</g>
</svg>
