<svg width="103" height="20" viewBox="0 0 103 20" fill="none" xmlns="http://www.w3.org/2000/svg">
<g clip-path="url(#clip0_7540_12204)">
<path d="M21.4448 0.367462L21.4421 17.5227L19.9076 16.4632V5.43672L18.8587 7.00817C18.9134 7.12362 18.9655 7.24039 19.0144 7.35584C19.4841 8.4668 19.7222 9.64637 19.7222 10.8622C19.7222 12.0781 19.4841 13.2577 19.0144 14.3686C18.6133 15.3173 18.0571 16.1828 17.3618 16.9415L17.3228 16.9844H15.0165L15.3166 16.7489C15.5535 16.5628 15.7824 16.3596 15.9975 16.1446C17.4086 14.7341 18.1858 12.8579 18.1858 10.8622C18.1858 10.0712 18.0644 9.29738 17.8249 8.55652L11.8663 17.4831V14.616L11.8888 14.583L17.0524 6.90129C16.7542 6.42564 16.3992 5.98165 15.9975 5.57922C14.7823 4.36468 13.1858 3.60469 11.4877 3.43052L11.483 18.0584L10.7224 19.1971L9.96239 18.0584L9.96107 15.6181L9.95711 3.43052C8.259 3.60469 6.66248 4.36468 5.44728 5.57922C5.04552 5.98165 4.69059 6.4263 4.3924 6.90129L9.57843 14.616V17.4831L3.61987 8.55652C3.38039 9.29738 3.25966 10.0712 3.25966 10.8622C3.25966 12.8579 4.03681 14.7341 5.44728 16.1446C5.66235 16.359 5.89127 16.5622 6.12811 16.7489L6.42828 16.9844H4.12191L4.08299 16.9415C3.38765 16.1828 2.83151 15.3173 2.4304 14.3686C1.96068 13.2577 1.72252 12.0781 1.72252 10.8622C1.72252 9.64637 1.96068 8.4668 2.4304 7.35584C2.47922 7.23973 2.53199 7.12296 2.58609 7.00817L1.5378 5.43672V16.4632L0.00263887 17.5227L0 0.367462L3.46945 5.52842C3.73796 5.16426 4.03681 4.81659 4.36073 4.49267C5.18801 3.66538 6.1512 3.01622 7.2239 2.56234C8.09539 2.19356 9.01437 1.96661 9.95645 1.88679V1.55495C8.01556 1.64335 6.12481 2.07151 4.3383 2.82754C3.80591 3.05251 3.28011 3.30848 2.77675 3.58688L2.67053 3.64559L1.81224 2.36574L1.93627 2.29581C2.51748 1.96925 3.12376 1.67172 3.73994 1.41179C5.95395 0.474996 8.3032 0 10.7224 0C13.1416 0 15.4908 0.474996 17.7048 1.41179C18.321 1.67172 18.9273 1.96925 19.5085 2.29581L19.6332 2.36574L18.7742 3.64559L18.668 3.58688C18.1646 3.30848 17.6389 3.05251 17.1065 2.82754C15.3213 2.07217 13.4312 1.64401 11.4883 1.55495V1.88679C12.431 1.96661 13.3494 2.19356 14.2215 2.56234C15.2936 3.01622 16.2567 3.66538 17.084 4.49267C17.408 4.81593 17.7068 5.16426 17.9753 5.52842L21.4448 0.367462Z" fill="white" fill-opacity="0.26" style="mix-blend-mode:lighten"/>
<path d="M21.4448 0.367462L21.4421 17.5227L19.9076 16.4632V5.43672L18.8587 7.00817C18.9134 7.12362 18.9655 7.24039 19.0144 7.35584C19.4841 8.4668 19.7222 9.64637 19.7222 10.8622C19.7222 12.0781 19.4841 13.2577 19.0144 14.3686C18.6133 15.3173 18.0571 16.1828 17.3618 16.9415L17.3228 16.9844H15.0165L15.3166 16.7489C15.5535 16.5628 15.7824 16.3596 15.9975 16.1446C17.4086 14.7341 18.1858 12.8579 18.1858 10.8622C18.1858 10.0712 18.0644 9.29738 17.8249 8.55652L11.8663 17.4831V14.616L11.8888 14.583L17.0524 6.90129C16.7542 6.42564 16.3992 5.98165 15.9975 5.57922C14.7823 4.36468 13.1858 3.60469 11.4877 3.43052L11.483 18.0584L10.7224 19.1971L9.96239 18.0584L9.96107 15.6181L9.95711 3.43052C8.259 3.60469 6.66248 4.36468 5.44728 5.57922C5.04552 5.98165 4.69059 6.4263 4.3924 6.90129L9.57843 14.616V17.4831L3.61987 8.55652C3.38039 9.29738 3.25966 10.0712 3.25966 10.8622C3.25966 12.8579 4.03681 14.7341 5.44728 16.1446C5.66235 16.359 5.89127 16.5622 6.12811 16.7489L6.42828 16.9844H4.12191L4.08299 16.9415C3.38765 16.1828 2.83151 15.3173 2.4304 14.3686C1.96068 13.2577 1.72252 12.0781 1.72252 10.8622C1.72252 9.64637 1.96068 8.4668 2.4304 7.35584C2.47922 7.23973 2.53199 7.12296 2.58609 7.00817L1.5378 5.43672V16.4632L0.00263887 17.5227L0 0.367462L3.46945 5.52842C3.73796 5.16426 4.03681 4.81659 4.36073 4.49267C5.18801 3.66538 6.1512 3.01622 7.2239 2.56234C8.09539 2.19356 9.01437 1.96661 9.95645 1.88679V1.55495C8.01556 1.64335 6.12481 2.07151 4.3383 2.82754C3.80591 3.05251 3.28011 3.30848 2.77675 3.58688L2.67053 3.64559L1.81224 2.36574L1.93627 2.29581C2.51748 1.96925 3.12376 1.67172 3.73994 1.41179C5.95395 0.474996 8.3032 0 10.7224 0C13.1416 0 15.4908 0.474996 17.7048 1.41179C18.321 1.67172 18.9273 1.96925 19.5085 2.29581L19.6332 2.36574L18.7742 3.64559L18.668 3.58688C18.1646 3.30848 17.6389 3.05251 17.1065 2.82754C15.3213 2.07217 13.4312 1.64401 11.4883 1.55495V1.88679C12.431 1.96661 13.3494 2.19356 14.2215 2.56234C15.2936 3.01622 16.2567 3.66538 17.084 4.49267C17.408 4.81593 17.7068 5.16426 17.9753 5.52842L21.4448 0.367462Z" fill="#8C8C8C" style="mix-blend-mode:color-dodge"/>
</g>
<path d="M34.7161 3.11786C34.4387 2.57326 34.0429 2.15043 33.5321 1.85276C33.0214 1.55509 32.4159 1.40625 31.7157 1.40625C31.0155 1.40625 30.4134 1.55509 29.8992 1.84937C29.385 2.14705 28.9893 2.56649 28.7085 3.11448C28.4278 3.66247 28.2891 4.31193 28.2891 5.06626V5.07641C28.2891 5.83073 28.4278 6.4802 28.7085 7.02819C28.9859 7.57617 29.3817 7.999 29.8958 8.29667C30.41 8.59435 31.0155 8.74318 31.7157 8.74318C32.4159 8.74318 33.0281 8.59435 33.5355 8.29667C34.0429 7.999 34.4387 7.57617 34.7161 7.02819C34.9934 6.4802 35.1355 5.83073 35.1355 5.07641V5.06626C35.1355 4.31193 34.9968 3.66247 34.7161 3.11786ZM33.6167 5.07641C33.6167 5.56351 33.5389 5.98972 33.3867 6.34828C33.2311 6.71022 33.0146 6.9876 32.7305 7.18717C32.4463 7.38675 32.1081 7.48484 31.7157 7.48484C31.3233 7.48484 30.9884 7.38675 30.7043 7.19055C30.4201 6.99436 30.2003 6.71698 30.0447 6.35504C29.889 5.9931 29.8112 5.57027 29.8112 5.07641V5.06626C29.8112 4.57239 29.889 4.14618 30.0447 3.78762C30.2003 3.42906 30.4235 3.15169 30.7076 2.9555C30.9952 2.76269 31.33 2.66459 31.7191 2.66459C32.1081 2.66459 32.4429 2.76269 32.7271 2.9555C33.0112 3.15169 33.2311 3.42906 33.3867 3.78762C33.5423 4.14957 33.6201 4.57239 33.6201 5.06626V5.07641H33.6167Z" fill="white" fill-opacity="0.26" style="mix-blend-mode:lighten"/>
<path d="M34.7161 3.11786C34.4387 2.57326 34.0429 2.15043 33.5321 1.85276C33.0214 1.55509 32.4159 1.40625 31.7157 1.40625C31.0155 1.40625 30.4134 1.55509 29.8992 1.84937C29.385 2.14705 28.9893 2.56649 28.7085 3.11448C28.4278 3.66247 28.2891 4.31193 28.2891 5.06626V5.07641C28.2891 5.83073 28.4278 6.4802 28.7085 7.02819C28.9859 7.57617 29.3817 7.999 29.8958 8.29667C30.41 8.59435 31.0155 8.74318 31.7157 8.74318C32.4159 8.74318 33.0281 8.59435 33.5355 8.29667C34.0429 7.999 34.4387 7.57617 34.7161 7.02819C34.9934 6.4802 35.1355 5.83073 35.1355 5.07641V5.06626C35.1355 4.31193 34.9968 3.66247 34.7161 3.11786ZM33.6167 5.07641C33.6167 5.56351 33.5389 5.98972 33.3867 6.34828C33.2311 6.71022 33.0146 6.9876 32.7305 7.18717C32.4463 7.38675 32.1081 7.48484 31.7157 7.48484C31.3233 7.48484 30.9884 7.38675 30.7043 7.19055C30.4201 6.99436 30.2003 6.71698 30.0447 6.35504C29.889 5.9931 29.8112 5.57027 29.8112 5.07641V5.06626C29.8112 4.57239 29.889 4.14618 30.0447 3.78762C30.2003 3.42906 30.4235 3.15169 30.7076 2.9555C30.9952 2.76269 31.33 2.66459 31.7191 2.66459C32.1081 2.66459 32.4429 2.76269 32.7271 2.9555C33.0112 3.15169 33.2311 3.42906 33.3867 3.78762C33.5423 4.14957 33.6201 4.57239 33.6201 5.06626V5.07641H33.6167Z" fill="#8C8C8C" style="mix-blend-mode:color-dodge"/>
<path d="M41.5254 1.5293V6.13983H41.4916L38.2916 1.5293H36.9961V8.6193H38.4743V3.97832H38.5047L41.7182 8.6193H43.0036V1.5293H41.5254Z" fill="white" fill-opacity="0.26" style="mix-blend-mode:lighten"/>
<path d="M41.5254 1.5293V6.13983H41.4916L38.2916 1.5293H36.9961V8.6193H38.4743V3.97832H38.5047L41.7182 8.6193H43.0036V1.5293H41.5254Z" fill="#8C8C8C" style="mix-blend-mode:color-dodge"/>
<path d="M47.6289 1.52877V2.75329H49.6822V8.61877H51.1671V2.7499H53.2204V1.52539H47.6289V1.52877Z" fill="white" fill-opacity="0.26" style="mix-blend-mode:lighten"/>
<path d="M47.6289 1.52877V2.75329H49.6822V8.61877H51.1671V2.7499H53.2204V1.52539H47.6289V1.52877Z" fill="#8C8C8C" style="mix-blend-mode:color-dodge"/>
<path d="M59.6274 1.5293V4.40792H56.4342V1.5293H54.9492V8.6193H56.4342V5.63581H59.6274V8.6193H61.1124V1.5293H59.6274Z" fill="white" fill-opacity="0.26" style="mix-blend-mode:lighten"/>
<path d="M59.6274 1.5293V4.40792H56.4342V1.5293H54.9492V8.6193H56.4342V5.63581H59.6274V8.6193H61.1124V1.5293H59.6274Z" fill="#8C8C8C" style="mix-blend-mode:color-dodge"/>
<path d="M67.8938 2.7499V1.52539H63.1953V8.61877H67.8938V7.39426H64.6803V5.61499H67.7111V4.45137H64.6803V2.7499H67.8938Z" fill="white" fill-opacity="0.26" style="mix-blend-mode:lighten"/>
<path d="M67.8938 2.7499V1.52539H63.1953V8.61877H67.8938V7.39426H64.6803V5.61499H67.7111V4.45137H64.6803V2.7499H67.8938Z" fill="#8C8C8C" style="mix-blend-mode:color-dodge"/>
<path d="M78.5325 1.5293L76.5232 6.62692H76.4928L74.4767 1.5293H72.7617V8.6193H74.0843V3.8261H74.1283L76.0429 8.6193H76.9765L78.8877 3.8261H78.9249V8.6193H80.2509V1.5293H78.5291H78.5325Z" fill="white" fill-opacity="0.26" style="mix-blend-mode:lighten"/>
<path d="M78.5325 1.5293L76.5232 6.62692H76.4928L74.4767 1.5293H72.7617V8.6193H74.0843V3.8261H74.1283L76.0429 8.6193H76.9765L78.8877 3.8261H78.9249V8.6193H80.2509V1.5293H78.5291H78.5325Z" fill="#8C8C8C" style="mix-blend-mode:color-dodge"/>
<path d="M88.5403 3.11786C88.2629 2.57326 87.8671 2.15043 87.3564 1.85276C86.8456 1.55509 86.2401 1.40625 85.5399 1.40625C84.8397 1.40625 84.2376 1.55509 83.7234 1.84937C83.2093 2.14705 82.8135 2.56649 82.5327 3.11448C82.252 3.66247 82.1133 4.31193 82.1133 5.06626V5.07641C82.1133 5.83073 82.252 6.4802 82.5327 7.02819C82.8101 7.57617 83.2059 7.999 83.72 8.29667C84.2342 8.59435 84.8397 8.74318 85.5399 8.74318C86.2401 8.74318 86.849 8.59435 87.3597 8.29667C87.8705 7.999 88.2629 7.57617 88.5403 7.02819C88.8177 6.4802 88.9597 5.83073 88.9597 5.07641V5.06626C88.9597 4.31193 88.821 3.66247 88.5403 3.11786ZM87.4375 5.07641C87.4375 5.56351 87.3597 5.98972 87.2075 6.34828C87.0553 6.71022 86.8354 6.9876 86.5513 7.18717C86.2672 7.38675 85.9289 7.48484 85.5365 7.48484C85.1441 7.48484 84.8092 7.38675 84.5251 7.19055C84.241 6.99436 84.0177 6.71698 83.8655 6.35504C83.7099 5.9931 83.6321 5.57027 83.6321 5.07641V5.06626C83.6321 4.57239 83.7099 4.14618 83.8655 3.78762C84.0211 3.42906 84.241 3.15169 84.5285 2.9555C84.816 2.76269 85.1509 2.66459 85.5399 2.66459C85.9289 2.66459 86.2638 2.76269 86.5479 2.9555C86.832 3.15169 87.0553 3.42906 87.2075 3.78762C87.3631 4.14957 87.4409 4.57239 87.4409 5.06626V5.07641H87.4375Z" fill="white" fill-opacity="0.26" style="mix-blend-mode:lighten"/>
<path d="M88.5403 3.11786C88.2629 2.57326 87.8671 2.15043 87.3564 1.85276C86.8456 1.55509 86.2401 1.40625 85.5399 1.40625C84.8397 1.40625 84.2376 1.55509 83.7234 1.84937C83.2093 2.14705 82.8135 2.56649 82.5327 3.11448C82.252 3.66247 82.1133 4.31193 82.1133 5.06626V5.07641C82.1133 5.83073 82.252 6.4802 82.5327 7.02819C82.8101 7.57617 83.2059 7.999 83.72 8.29667C84.2342 8.59435 84.8397 8.74318 85.5399 8.74318C86.2401 8.74318 86.849 8.59435 87.3597 8.29667C87.8705 7.999 88.2629 7.57617 88.5403 7.02819C88.8177 6.4802 88.9597 5.83073 88.9597 5.07641V5.06626C88.9597 4.31193 88.821 3.66247 88.5403 3.11786ZM87.4375 5.07641C87.4375 5.56351 87.3597 5.98972 87.2075 6.34828C87.0553 6.71022 86.8354 6.9876 86.5513 7.18717C86.2672 7.38675 85.9289 7.48484 85.5365 7.48484C85.1441 7.48484 84.8092 7.38675 84.5251 7.19055C84.241 6.99436 84.0177 6.71698 83.8655 6.35504C83.7099 5.9931 83.6321 5.57027 83.6321 5.07641V5.06626C83.6321 4.57239 83.7099 4.14618 83.8655 3.78762C84.0211 3.42906 84.241 3.15169 84.5285 2.9555C84.816 2.76269 85.1509 2.66459 85.5399 2.66459C85.9289 2.66459 86.2638 2.76269 86.5479 2.9555C86.832 3.15169 87.0553 3.42906 87.2075 3.78762C87.3631 4.14957 87.4409 4.57239 87.4409 5.06626V5.07641H87.4375Z" fill="#8C8C8C" style="mix-blend-mode:color-dodge"/>
<path d="M95.0288 1.5293L93.4119 7.10049H93.3814L91.7578 1.5293H90.1172L92.485 8.6193H94.2981L96.6727 1.5293H95.0254H95.0288Z" fill="white" fill-opacity="0.26" style="mix-blend-mode:lighten"/>
<path d="M95.0288 1.5293L93.4119 7.10049H93.3814L91.7578 1.5293H90.1172L92.485 8.6193H94.2981L96.6727 1.5293H95.0254H95.0288Z" fill="#8C8C8C" style="mix-blend-mode:color-dodge"/>
<path d="M102.999 2.7499V1.52539H98.3008V8.61877H102.999V7.39426H99.7858V5.61499H102.817V4.45137H99.7858V2.7499H102.999Z" fill="white" fill-opacity="0.26" style="mix-blend-mode:lighten"/>
<path d="M102.999 2.7499V1.52539H98.3008V8.61877H102.999V7.39426H99.7858V5.61499H102.817V4.45137H99.7858V2.7499H102.999Z" fill="#8C8C8C" style="mix-blend-mode:color-dodge"/>
<g opacity="0.8">
<path d="M34.7842 9.73633H33.1368C33.1909 9.82428 33.2383 9.91561 33.2823 10.0171C33.4379 10.379 33.5157 10.8019 33.5157 11.2957V11.3059C33.5157 11.793 33.4379 12.2192 33.2857 12.5777C33.1301 12.9397 32.9136 13.2171 32.6294 13.4166C32.3453 13.6162 32.007 13.7143 31.6146 13.7143C31.2222 13.7143 30.8874 13.6162 30.6032 13.42C30.3191 13.2238 30.0992 12.9464 29.9436 12.5845C29.788 12.2226 29.7102 11.7997 29.7102 11.3059V11.2957C29.7102 10.8019 29.788 10.3723 29.9436 10.0171C29.9876 9.91899 30.0349 9.82766 30.0891 9.73971H28.4417C28.276 10.1964 28.1914 10.7173 28.1914 11.2957V11.3059C28.1914 12.0602 28.3301 12.7097 28.6109 13.261C28.8882 13.809 29.284 14.2318 29.7982 14.5295C30.3123 14.8272 30.9178 14.9726 31.618 14.9726C32.3182 14.9726 32.9305 14.8238 33.4379 14.5261C33.9453 14.2285 34.341 13.8056 34.6184 13.2576C34.8958 12.7097 35.0379 12.0602 35.0379 11.3059V11.2957C35.0379 10.7139 34.9567 10.1964 34.7875 9.73971L34.7842 9.73633Z" fill="white" fill-opacity="0.26" style="mix-blend-mode:lighten"/>
<path d="M34.7842 9.73633H33.1368C33.1909 9.82428 33.2383 9.91561 33.2823 10.0171C33.4379 10.379 33.5157 10.8019 33.5157 11.2957V11.3059C33.5157 11.793 33.4379 12.2192 33.2857 12.5777C33.1301 12.9397 32.9136 13.2171 32.6294 13.4166C32.3453 13.6162 32.007 13.7143 31.6146 13.7143C31.2222 13.7143 30.8874 13.6162 30.6032 13.42C30.3191 13.2238 30.0992 12.9464 29.9436 12.5845C29.788 12.2226 29.7102 11.7997 29.7102 11.3059V11.2957C29.7102 10.8019 29.788 10.3723 29.9436 10.0171C29.9876 9.91899 30.0349 9.82766 30.0891 9.73971H28.4417C28.276 10.1964 28.1914 10.7173 28.1914 11.2957V11.3059C28.1914 12.0602 28.3301 12.7097 28.6109 13.261C28.8882 13.809 29.284 14.2318 29.7982 14.5295C30.3123 14.8272 30.9178 14.9726 31.618 14.9726C32.3182 14.9726 32.9305 14.8238 33.4379 14.5261C33.9453 14.2285 34.341 13.8056 34.6184 13.2576C34.8958 12.7097 35.0379 12.0602 35.0379 11.3059V11.2957C35.0379 10.7139 34.9567 10.1964 34.7875 9.73971L34.7842 9.73633Z" fill="#8C8C8C" style="mix-blend-mode:color-dodge"/>
<path d="M41.4194 9.73633V12.3646H41.3856L39.559 9.73633H36.8867V14.8475H38.3649V10.2065H38.3954L41.6089 14.8475H42.8943V9.73633H41.4161H41.4194Z" fill="white" fill-opacity="0.26" style="mix-blend-mode:lighten"/>
<path d="M41.4194 9.73633V12.3646H41.3856L39.559 9.73633H36.8867V14.8475H38.3649V10.2065H38.3954L41.6089 14.8475H42.8943V9.73633H41.4161H41.4194Z" fill="#8C8C8C" style="mix-blend-mode:color-dodge"/>
<path d="M49.5781 9.73633V14.8475H51.0631V9.73633H49.5781Z" fill="white" fill-opacity="0.26" style="mix-blend-mode:lighten"/>
<path d="M49.5781 9.73633V14.8475H51.0631V9.73633H49.5781Z" fill="#8C8C8C" style="mix-blend-mode:color-dodge"/>
<path d="M59.5219 9.73633V10.6361H56.3287V9.73633H54.8438V14.8475H56.3287V11.864H59.5219V14.8475H61.0069V9.73633H59.5219Z" fill="white" fill-opacity="0.26" style="mix-blend-mode:lighten"/>
<path d="M59.5219 9.73633V10.6361H56.3287V9.73633H54.8438V14.8475H56.3287V11.864H59.5219V14.8475H61.0069V9.73633H59.5219Z" fill="#8C8C8C" style="mix-blend-mode:color-dodge"/>
<path d="M64.5748 13.623V11.8437H67.6057V10.6801H64.5748V9.73633H63.0898V14.8475H67.7883V13.623H64.5748Z" fill="white" fill-opacity="0.26" style="mix-blend-mode:lighten"/>
<path d="M64.5748 13.623V11.8437H67.6057V10.6801H64.5748V9.73633H63.0898V14.8475H67.7883V13.623H64.5748Z" fill="#8C8C8C" style="mix-blend-mode:color-dodge"/>
<path d="M77.6495 9.73633L76.4216 12.8517H76.3912L75.1599 9.73633H72.6602V14.8475H73.9828V10.0543H74.0267L75.9379 14.8475H76.8715L78.7827 10.0543H78.8199V14.8475H80.1459V9.73633H77.6462H77.6495Z" fill="white" fill-opacity="0.26" style="mix-blend-mode:lighten"/>
<path d="M77.6495 9.73633L76.4216 12.8517H76.3912L75.1599 9.73633H72.6602V14.8475H73.9828V10.0543H74.0267L75.9379 14.8475H76.8715L78.7827 10.0543H78.8199V14.8475H80.1459V9.73633H77.6462H77.6495Z" fill="#8C8C8C" style="mix-blend-mode:color-dodge"/>
<path d="M88.6112 9.73633H86.9639C87.018 9.82428 87.0654 9.91561 87.1093 10.0171C87.2649 10.379 87.3427 10.8019 87.3427 11.2957V11.3059C87.3427 11.793 87.2649 12.2192 87.1127 12.5777C86.9605 12.9397 86.7406 13.2171 86.4565 13.4166C86.1724 13.6162 85.8341 13.7143 85.4417 13.7143C85.0493 13.7143 84.7144 13.6162 84.4269 13.42C84.1428 13.2238 83.9229 12.9464 83.7673 12.5845C83.6117 12.2226 83.5339 11.7997 83.5339 11.3059V11.2957C83.5339 10.8019 83.6117 10.3723 83.7673 10.0171C83.8079 9.91899 83.8586 9.82766 83.9094 9.73971H82.262C82.0963 10.1964 82.0117 10.7173 82.0117 11.2957V11.3059C82.0117 12.0602 82.1504 12.7097 82.4312 13.261C82.7085 13.809 83.1043 14.2318 83.6185 14.5295C84.1326 14.8272 84.7381 14.9726 85.4383 14.9726C86.1385 14.9726 86.7474 14.8238 87.2582 14.5261C87.769 14.2285 88.1614 13.8056 88.4387 13.2576C88.7161 12.7097 88.8582 12.0602 88.8582 11.3059V11.2957C88.8582 10.7139 88.777 10.1964 88.6079 9.73971L88.6112 9.73633Z" fill="white" fill-opacity="0.26" style="mix-blend-mode:lighten"/>
<path d="M88.6112 9.73633H86.9639C87.018 9.82428 87.0654 9.91561 87.1093 10.0171C87.2649 10.379 87.3427 10.8019 87.3427 11.2957V11.3059C87.3427 11.793 87.2649 12.2192 87.1127 12.5777C86.9605 12.9397 86.7406 13.2171 86.4565 13.4166C86.1724 13.6162 85.8341 13.7143 85.4417 13.7143C85.0493 13.7143 84.7144 13.6162 84.4269 13.42C84.1428 13.2238 83.9229 12.9464 83.7673 12.5845C83.6117 12.2226 83.5339 11.7997 83.5339 11.3059V11.2957C83.5339 10.8019 83.6117 10.3723 83.7673 10.0171C83.8079 9.91899 83.8586 9.82766 83.9094 9.73971H82.262C82.0963 10.1964 82.0117 10.7173 82.0117 11.2957V11.3059C82.0117 12.0602 82.1504 12.7097 82.4312 13.261C82.7085 13.809 83.1043 14.2318 83.6185 14.5295C84.1326 14.8272 84.7381 14.9726 85.4383 14.9726C86.1385 14.9726 86.7474 14.8238 87.2582 14.5261C87.769 14.2285 88.1614 13.8056 88.4387 13.2576C88.7161 12.7097 88.8582 12.0602 88.8582 11.3059V11.2957C88.8582 10.7139 88.777 10.1964 88.6079 9.73971L88.6112 9.73633Z" fill="#8C8C8C" style="mix-blend-mode:color-dodge"/>
<path d="M94.3532 9.73633L93.3114 13.3287H93.2809L92.2357 9.73633H90.6797L92.3879 14.8475H94.201L95.9126 9.73633H94.3532Z" fill="white" fill-opacity="0.26" style="mix-blend-mode:lighten"/>
<path d="M94.3532 9.73633L93.3114 13.3287H93.2809L92.2357 9.73633H90.6797L92.3879 14.8475H94.201L95.9126 9.73633H94.3532Z" fill="#8C8C8C" style="mix-blend-mode:color-dodge"/>
<path d="M99.6842 13.623V11.8437H102.715V10.6801H99.6842V9.73633H98.1992V14.8475H102.898V13.623H99.6842Z" fill="white" fill-opacity="0.26" style="mix-blend-mode:lighten"/>
<path d="M99.6842 13.623V11.8437H102.715V10.6801H99.6842V9.73633H98.1992V14.8475H102.898V13.623H99.6842Z" fill="#8C8C8C" style="mix-blend-mode:color-dodge"/>
</g>
<g opacity="0.6">
<path d="M33.145 15.4941C32.9927 15.8087 32.7898 16.0523 32.5327 16.2349C32.2486 16.4345 31.9103 16.5326 31.5179 16.5326C31.1255 16.5326 30.7906 16.4345 30.5065 16.2383C30.246 16.059 30.0397 15.8121 29.8875 15.4975H28.2773C28.3382 15.7039 28.416 15.8967 28.5107 16.0793C28.7881 16.6273 29.1839 17.0502 29.698 17.3478C30.2122 17.6455 30.8177 17.7909 31.5179 17.7909C32.2181 17.7909 32.8304 17.6421 33.3378 17.3444C33.8452 17.0468 34.2409 16.6239 34.5183 16.076C34.6096 15.8933 34.6874 15.7005 34.7483 15.4975H33.1416L33.145 15.4941Z" fill="white" fill-opacity="0.26" style="mix-blend-mode:lighten"/>
<path d="M33.145 15.4941C32.9927 15.8087 32.7898 16.0523 32.5327 16.2349C32.2486 16.4345 31.9103 16.5326 31.5179 16.5326C31.1255 16.5326 30.7906 16.4345 30.5065 16.2383C30.246 16.059 30.0397 15.8121 29.8875 15.4975H28.2773C28.3382 15.7039 28.416 15.8967 28.5107 16.0793C28.7881 16.6273 29.1839 17.0502 29.698 17.3478C30.2122 17.6455 30.8177 17.7909 31.5179 17.7909C32.2181 17.7909 32.8304 17.6421 33.3378 17.3444C33.8452 17.0468 34.2409 16.6239 34.5183 16.076C34.6096 15.8933 34.6874 15.7005 34.7483 15.4975H33.1416L33.145 15.4941Z" fill="#8C8C8C" style="mix-blend-mode:color-dodge"/>
<path d="M36.8008 15.4941V17.6658H38.279V15.4941H36.8008ZM40.021 15.4941L41.5263 17.6658H42.8117V15.4941H40.021Z" fill="white" fill-opacity="0.26" style="mix-blend-mode:lighten"/>
<path d="M36.8008 15.4941V17.6658H38.279V15.4941H36.8008ZM40.021 15.4941L41.5263 17.6658H42.8117V15.4941H40.021Z" fill="#8C8C8C" style="mix-blend-mode:color-dodge"/>
<path d="M49.4844 15.4941V17.6658H50.9694V15.4941H49.4844Z" fill="white" fill-opacity="0.26" style="mix-blend-mode:lighten"/>
<path d="M49.4844 15.4941V17.6658H50.9694V15.4941H49.4844Z" fill="#8C8C8C" style="mix-blend-mode:color-dodge"/>
<path d="M54.75 15.4941V17.6658H56.235V15.4941H54.75ZM59.4282 15.4941V17.6658H60.9132V15.4941H59.4282Z" fill="white" fill-opacity="0.26" style="mix-blend-mode:lighten"/>
<path d="M54.75 15.4941V17.6658H56.235V15.4941H54.75ZM59.4282 15.4941V17.6658H60.9132V15.4941H59.4282Z" fill="#8C8C8C" style="mix-blend-mode:color-dodge"/>
<path d="M64.485 16.4413V15.4941H63V17.6658H67.6985V16.4413H64.485Z" fill="white" fill-opacity="0.26" style="mix-blend-mode:lighten"/>
<path d="M64.485 16.4413V15.4941H63V17.6658H67.6985V16.4413H64.485Z" fill="#8C8C8C" style="mix-blend-mode:color-dodge"/>
<path d="M72.5703 15.4941V17.6658H73.8929V15.4941H72.5703ZM76.3995 15.4941L76.3284 15.67H76.298L76.2269 15.4941H74.9787L75.8447 17.6658H76.7783L77.6443 15.4941H76.3961H76.3995ZM78.7335 15.4941V17.6658H80.0595V15.4941H78.7335Z" fill="white" fill-opacity="0.26" style="mix-blend-mode:lighten"/>
<path d="M72.5703 15.4941V17.6658H73.8929V15.4941H72.5703ZM76.3995 15.4941L76.3284 15.67H76.298L76.2269 15.4941H74.9787L75.8447 17.6658H76.7783L77.6443 15.4941H76.3961H76.3995ZM78.7335 15.4941V17.6658H80.0595V15.4941H78.7335Z" fill="#8C8C8C" style="mix-blend-mode:color-dodge"/>
<path d="M86.9692 15.4941C86.8203 15.8087 86.614 16.0523 86.3569 16.2349C86.0728 16.4345 85.7345 16.5326 85.3421 16.5326C84.9497 16.5326 84.6149 16.4345 84.3273 16.2383C84.0669 16.059 83.8605 15.8121 83.7117 15.4975H82.1016C82.1624 15.7039 82.2403 15.8967 82.335 16.0793C82.6123 16.6273 83.0081 17.0502 83.5223 17.3478C84.0364 17.6455 84.6419 17.7909 85.3421 17.7909C86.0423 17.7909 86.6512 17.6421 87.162 17.3444C87.6728 17.0468 88.0651 16.6239 88.3425 16.076C88.4339 15.8933 88.5117 15.7005 88.5725 15.4975H86.9658L86.9692 15.4941Z" fill="white" fill-opacity="0.26" style="mix-blend-mode:lighten"/>
<path d="M86.9692 15.4941C86.8203 15.8087 86.614 16.0523 86.3569 16.2349C86.0728 16.4345 85.7345 16.5326 85.3421 16.5326C84.9497 16.5326 84.6149 16.4345 84.3273 16.2383C84.0669 16.059 83.8605 15.8121 83.7117 15.4975H82.1016C82.1624 15.7039 82.2403 15.8967 82.335 16.0793C82.6123 16.6273 83.0081 17.0502 83.5223 17.3478C84.0364 17.6455 84.6419 17.7909 85.3421 17.7909C86.0423 17.7909 86.6512 17.6421 87.162 17.3444C87.6728 17.0468 88.0651 16.6239 88.3425 16.076C88.4339 15.8933 88.5117 15.7005 88.5725 15.4975H86.9658L86.9692 15.4941Z" fill="#8C8C8C" style="mix-blend-mode:color-dodge"/>
<path d="M93.4066 15.4941L93.2171 16.147H93.1867L92.9973 15.4941H91.5664L92.2903 17.6658H94.1034L94.8306 15.4941H93.4032H93.4066Z" fill="white" fill-opacity="0.26" style="mix-blend-mode:lighten"/>
<path d="M93.4066 15.4941L93.2171 16.147H93.1867L92.9973 15.4941H91.5664L92.2903 17.6658H94.1034L94.8306 15.4941H93.4032H93.4066Z" fill="#8C8C8C" style="mix-blend-mode:color-dodge"/>
<path d="M99.5943 16.4413V15.4941H98.1094V17.6658H102.808V16.4413H99.5943Z" fill="white" fill-opacity="0.26" style="mix-blend-mode:lighten"/>
<path d="M99.5943 16.4413V15.4941H98.1094V17.6658H102.808V16.4413H99.5943Z" fill="#8C8C8C" style="mix-blend-mode:color-dodge"/>
</g>
<defs>
<clipPath id="clip0_7540_12204">
<rect width="21.4448" height="19.1971" fill="white"/>
</clipPath>
</defs>
</svg>
