<svg width="355" height="66" viewBox="0 0 355 66" fill="none" xmlns="http://www.w3.org/2000/svg">
<g clip-path="url(#clip0_3264_5025)">
<path d="M73.7276 1.26334L73.7185 60.2435L68.4429 56.6009V18.6916L64.8365 24.0942C65.0248 24.4912 65.204 24.8926 65.3718 25.2895C66.9867 29.109 67.8055 33.1644 67.8055 37.3446C67.8055 41.5247 66.9867 45.5801 65.3718 49.3996C63.9928 52.6612 62.0808 55.637 59.6902 58.2453L59.5563 58.3927H51.627L52.659 57.583C53.4732 56.9434 54.2603 56.2448 54.9997 55.5054C59.8512 50.6562 62.5231 44.2056 62.5231 37.3446C62.5231 34.6251 62.1057 31.9646 61.2824 29.4175L40.7967 60.1074V50.2502L40.8738 50.1368L58.6264 23.7268C57.6012 22.0915 56.381 20.565 54.9997 19.1815C50.8218 15.0059 45.333 12.393 39.4948 11.7942L39.4789 62.0852L36.8638 66L34.2509 62.0852L34.2464 53.6955L34.2328 11.7942C28.3946 12.393 22.9058 15.0059 18.7279 19.1815C17.3466 20.565 16.1263 22.0938 15.1012 23.7268L32.9309 50.2502V60.1074L12.4452 29.4175C11.6219 31.9646 11.2068 34.6251 11.2068 37.3446C11.2068 44.2056 13.8786 50.6562 18.7279 55.5054C19.4673 56.2426 20.2543 56.9411 21.0686 57.583L22.1006 58.3927H14.1712L14.0374 58.2453C11.6468 55.637 9.73478 52.6612 8.35576 49.3996C6.74086 45.5801 5.92207 41.5247 5.92207 37.3446C5.92207 33.1644 6.74086 29.109 8.35576 25.2895C8.5236 24.8903 8.70505 24.4889 8.89104 24.0942L5.28699 18.6916V56.6009L0.00907249 60.2435L0 1.26334L11.9281 19.0068C12.8512 17.7548 13.8786 16.5595 14.9923 15.4459C17.8365 12.6017 21.148 10.3698 24.8359 8.80938C27.8321 7.5415 30.9916 6.76126 34.2305 6.48682V5.34596C27.5577 5.64989 21.0572 7.12189 14.9152 9.72116C13.0848 10.4946 11.2771 11.3746 9.54653 12.3318L9.18136 12.5336L6.23053 8.13348L6.65694 7.89305C8.65515 6.77034 10.7396 5.74741 12.858 4.85378C20.4698 1.63305 28.5466 0 36.8638 0C45.181 0 53.2578 1.63305 60.8696 4.85378C62.988 5.74741 65.0724 6.77034 67.0706 7.89305L67.4993 8.13348L64.5462 12.5336L64.1811 12.3318C62.4505 11.3746 60.6428 10.4946 58.8124 9.72116C52.6749 7.12416 46.1767 5.65215 39.4971 5.34596V6.48682C42.7382 6.76126 45.8955 7.5415 48.8939 8.80938C52.5796 10.3698 55.8911 12.6017 58.7353 15.4459C59.8489 16.5573 60.8764 17.7548 61.7995 19.0068L73.7276 1.26334Z" fill="#1F1F1F"/>
</g>
<path d="M119.35 10.7244C118.396 8.85205 117.036 7.39835 115.28 6.37495C113.524 5.35155 111.442 4.83984 109.035 4.83984C106.627 4.83984 104.557 5.35154 102.79 6.36332C101.022 7.38672 99.6612 8.82879 98.696 10.7128C97.7307 12.5968 97.2539 14.8296 97.2539 17.423V17.4579C97.2539 20.0513 97.7307 22.2842 98.696 24.1682C99.6496 26.0522 101.01 27.5059 102.778 28.5293C104.546 29.5527 106.627 30.0644 109.035 30.0644C111.442 30.0644 113.547 29.5527 115.291 28.5293C117.036 27.5059 118.396 26.0522 119.35 24.1682C120.304 22.2842 120.792 20.0513 120.792 17.4579V17.423C120.792 14.8296 120.315 12.5968 119.35 10.7244ZM115.57 17.4579C115.57 19.1326 115.303 20.5979 114.78 21.8306C114.245 23.075 113.5 24.0286 112.524 24.7148C111.547 25.4009 110.384 25.7382 109.035 25.7382C107.686 25.7382 106.534 25.4009 105.557 24.7264C104.581 24.0519 103.825 23.0983 103.29 21.8539C102.755 20.6095 102.487 19.1558 102.487 17.4579V17.423C102.487 15.7251 102.755 14.2598 103.29 13.0271C103.825 11.7943 104.592 10.8407 105.569 10.1662C106.558 9.5033 107.709 9.16604 109.046 9.16604C110.384 9.16604 111.535 9.5033 112.512 10.1662C113.489 10.8407 114.245 11.7943 114.78 13.0271C115.315 14.2714 115.582 15.7251 115.582 17.423V17.4579H115.57Z" fill="#1F1F1F"/>
<path d="M142.759 5.25781V21.1089H142.643L131.642 5.25781H127.188V29.6334H132.27V13.6776H132.374L143.422 29.6334H147.842V5.25781H142.759Z" fill="#1F1F1F"/>
<path d="M163.742 5.25772V9.46763H170.801V29.6333H175.907V9.456H182.966V5.24609H163.742V5.25772Z" fill="#1F1F1F"/>
<path d="M204.99 5.25781V15.1546H194.012V5.25781H188.906V29.6334H194.012V19.3761H204.99V29.6334H210.095V5.25781H204.99Z" fill="#1F1F1F"/>
<path d="M233.411 9.456V5.24609H217.258V29.6333H233.411V25.4234H222.363V19.3062H232.783V15.3057H222.363V9.456H233.411Z" fill="#1F1F1F"/>
<path d="M270 5.25781L263.092 22.7836H262.988L256.056 5.25781H250.16V29.6334H254.707V13.1543H254.859L261.441 29.6334H264.651L271.221 13.1543H271.349V29.6334H275.908V5.25781H269.989H270Z" fill="#1F1F1F"/>
<path d="M304.401 10.7244C303.447 8.85205 302.087 7.39835 300.331 6.37495C298.574 5.35155 296.493 4.83984 294.085 4.83984C291.678 4.83984 289.608 5.35154 287.84 6.36332C286.073 7.38672 284.712 8.82879 283.747 10.7128C282.781 12.5968 282.305 14.8296 282.305 17.423V17.4579C282.305 20.0513 282.781 22.2842 283.747 24.1682C284.7 26.0522 286.061 27.5059 287.829 28.5293C289.596 29.5527 291.678 30.0644 294.085 30.0644C296.493 30.0644 298.586 29.5527 300.342 28.5293C302.098 27.5059 303.447 26.0522 304.401 24.1682C305.354 22.2842 305.843 20.0513 305.843 17.4579V17.423C305.843 14.8296 305.366 12.5968 304.401 10.7244ZM300.61 17.4579C300.61 19.1326 300.342 20.5979 299.819 21.8306C299.295 23.075 298.54 24.0286 297.563 24.7148C296.586 25.4009 295.423 25.7382 294.074 25.7382C292.725 25.7382 291.573 25.4009 290.597 24.7264C289.62 24.0519 288.852 23.0983 288.329 21.8539C287.794 20.6095 287.526 19.1558 287.526 17.4579V17.423C287.526 15.7251 287.794 14.2598 288.329 13.0271C288.864 11.7943 289.62 10.8407 290.608 10.1662C291.597 9.5033 292.748 9.16604 294.085 9.16604C295.423 9.16604 296.574 9.5033 297.551 10.1662C298.528 10.8407 299.295 11.7943 299.819 13.0271C300.354 14.2714 300.621 15.7251 300.621 17.423V17.4579H300.61Z" fill="#1F1F1F"/>
<path d="M326.706 5.25781L321.148 24.4117H321.043L315.461 5.25781H309.82L317.961 29.6334H324.194L332.358 5.25781H326.695H326.706Z" fill="#1F1F1F"/>
<path d="M354.118 9.456V5.24609H337.965V29.6333H354.118V25.4234H343.07V19.3062H353.49V15.3057H343.07V9.456H354.118Z" fill="#1F1F1F"/>
<g opacity="0.8">
<path d="M119.584 33.4727H113.92C114.106 33.775 114.269 34.089 114.42 34.4379C114.955 35.6823 115.223 37.136 115.223 38.8339V38.8688C115.223 40.5434 114.955 42.0088 114.432 43.2415C113.897 44.4859 113.153 45.4395 112.176 46.1256C111.199 46.8118 110.036 47.149 108.687 47.149C107.338 47.149 106.187 46.8118 105.21 46.1373C104.233 45.4627 103.477 44.5091 102.942 43.2648C102.407 42.0204 102.14 40.5667 102.14 38.8688V38.8339C102.14 37.136 102.407 35.659 102.942 34.4379C103.093 34.1007 103.256 33.7867 103.442 33.4843H97.7786C97.2087 35.0543 96.918 36.8452 96.918 38.8339V38.8688C96.918 41.4622 97.3948 43.6951 98.36 45.5907C99.3137 47.4747 100.674 48.9284 102.442 49.9518C104.21 50.9752 106.291 51.4752 108.699 51.4752C111.106 51.4752 113.211 50.9635 114.955 49.9401C116.7 48.9167 118.061 47.463 119.014 45.579C119.968 43.695 120.456 41.4622 120.456 38.8688V38.8339C120.456 36.8336 120.177 35.0543 119.596 33.4843L119.584 33.4727Z" fill="#1F1F1F"/>
<path d="M142.4 33.4727V42.5088H142.284L136.004 33.4727H126.816V51.0449H131.899V35.0892H132.003L143.051 51.0449H147.471V33.4727H142.388H142.4Z" fill="#1F1F1F"/>
<path d="M170.441 33.4727V51.0449H175.547V33.4727H170.441Z" fill="#1F1F1F"/>
<path d="M204.631 33.4727V36.5661H193.652V33.4727H188.547V51.0449H193.652V40.7877H204.631V51.0449H209.736V33.4727H204.631Z" fill="#1F1F1F"/>
<path d="M222.004 46.835V40.7179H232.424V36.7173H222.004V33.4727H216.898V51.0449H233.052V46.835H222.004Z" fill="#1F1F1F"/>
<path d="M266.954 33.4727L262.733 44.1835H262.628L258.395 33.4727H249.801V51.0449H254.348V34.5658H254.499L261.07 51.0449H264.28L270.85 34.5658H270.978V51.0449H275.537V33.4727H266.943H266.954Z" fill="#1F1F1F"/>
<path d="M304.635 33.4727H298.971C299.157 33.775 299.32 34.089 299.471 34.4379C300.006 35.6823 300.274 37.136 300.274 38.8339V38.8688C300.274 40.5434 300.006 42.0088 299.483 43.2415C298.959 44.4859 298.203 45.4395 297.227 46.1256C296.25 46.8118 295.087 47.149 293.738 47.149C292.389 47.149 291.237 46.8118 290.249 46.1373C289.272 45.4627 288.516 44.5091 287.981 43.2648C287.446 42.0204 287.179 40.5667 287.179 38.8688V38.8339C287.179 37.136 287.446 35.659 287.981 34.4379C288.121 34.1007 288.295 33.7867 288.47 33.4843H282.806C282.236 35.0543 281.945 36.8452 281.945 38.8339V38.8688C281.945 41.4622 282.422 43.6951 283.387 45.5907C284.341 47.4747 285.702 48.9284 287.469 49.9518C289.237 50.9752 291.319 51.4752 293.726 51.4752C296.133 51.4752 298.227 50.9635 299.983 49.9401C301.739 48.9167 303.088 47.463 304.042 45.579C304.995 43.695 305.484 41.4622 305.484 38.8688V38.8339C305.484 36.8336 305.204 35.0543 304.623 33.4843L304.635 33.4727Z" fill="#1F1F1F"/>
<path d="M324.38 33.4727L320.798 45.8233H320.693L317.1 33.4727H311.75L317.623 51.0449H323.856L329.741 33.4727H324.38Z" fill="#1F1F1F"/>
<path d="M342.719 46.835V40.7179H353.139V36.7173H342.719V33.4727H337.613V51.0449H353.767V46.835H342.719Z" fill="#1F1F1F"/>
</g>
<g opacity="0.6">
<path d="M113.946 53.2637C113.423 54.3452 112.725 55.1826 111.841 55.8106C110.864 56.4967 109.701 56.834 108.352 56.834C107.003 56.834 105.852 56.4967 104.875 55.8222C103.979 55.2058 103.27 54.3569 102.747 53.2753H97.2109C97.4203 53.9847 97.6877 54.6476 98.0134 55.2756C98.967 57.1596 100.328 58.6133 102.095 59.6367C103.863 60.6601 105.945 61.1602 108.352 61.1602C110.759 61.1602 112.864 60.6485 114.609 59.625C116.353 58.6016 117.714 57.148 118.667 55.264C118.981 54.636 119.249 53.9731 119.458 53.2753H113.934L113.946 53.2637Z" fill="#1F1F1F"/>
<path d="M126.516 53.2637V60.7299H131.598V53.2637H126.516ZM137.587 53.2637L142.762 60.7299H147.181V53.2637H137.587Z" fill="#1F1F1F"/>
<path d="M170.129 53.2637V60.7299H175.234V53.2637H170.129Z" fill="#1F1F1F"/>
<path d="M188.223 53.2637V60.7299H193.328V53.2637H188.223ZM204.306 53.2637V60.7299H209.412V53.2637H204.306Z" fill="#1F1F1F"/>
<path d="M221.695 56.52V53.2637H216.59V60.7299H232.743V56.52H221.695Z" fill="#1F1F1F"/>
<path d="M249.488 53.2637V60.7299H254.035V53.2637H249.488ZM262.653 53.2637L262.409 53.8684H262.304L262.06 53.2637H257.769L260.746 60.7299H263.955L266.933 53.2637H262.641H262.653ZM270.677 53.2637V60.7299H275.236V53.2637H270.677Z" fill="#1F1F1F"/>
<path d="M298.997 53.2637C298.485 54.3452 297.776 55.1826 296.892 55.8106C295.915 56.4967 294.752 56.834 293.403 56.834C292.054 56.834 290.902 56.4967 289.914 55.8222C289.019 55.2058 288.309 54.3569 287.797 53.2753H282.262C282.471 53.9847 282.739 54.6476 283.064 55.2756C284.018 57.1596 285.378 58.6133 287.146 59.6367C288.914 60.6601 290.996 61.1602 293.403 61.1602C295.81 61.1602 297.903 60.6485 299.66 59.625C301.416 58.6016 302.765 57.148 303.718 55.264C304.032 54.636 304.3 53.9731 304.509 53.2753H298.985L298.997 53.2637Z" fill="#1F1F1F"/>
<path d="M321.127 53.2637L320.476 55.5082H320.371L319.72 53.2637H314.801L317.289 60.7299H323.523L326.023 53.2637H321.116H321.127Z" fill="#1F1F1F"/>
<path d="M342.398 56.52V53.2637H337.293V60.7299H353.446V56.52H342.398Z" fill="#1F1F1F"/>
</g>
<defs>
<clipPath id="clip0_3264_5025">
<rect width="73.7276" height="66" fill="white"/>
</clipPath>
</defs>
</svg>
