<svg width="178" height="33" viewBox="0 0 178 33" fill="none" xmlns="http://www.w3.org/2000/svg">
<g clip-path="url(#clip0_3083_4991)">
<path d="M36.8635 0.631671L36.859 30.1218L34.2212 28.3005V9.34579L32.418 12.0471C32.5121 12.2456 32.6017 12.4463 32.6857 12.6448C33.4931 14.5545 33.9025 16.5822 33.9025 18.6723C33.9025 20.7624 33.4931 22.7901 32.6857 24.6998C31.9962 26.3306 31.0401 27.8185 29.8448 29.1227L29.7779 29.1964H25.8132L26.3292 28.7915C26.7364 28.4717 27.1299 28.1224 27.4996 27.7527C29.9254 25.3281 31.2613 22.1028 31.2613 18.6723C31.2613 17.3126 31.0526 15.9823 30.6409 14.7088L20.3981 30.0537V25.1251L20.4367 25.0684L29.313 11.8634C28.8004 11.0457 28.1902 10.2825 27.4996 9.59074C25.4107 7.50294 22.6662 6.1965 19.7472 5.89711L19.7392 31.0426L18.4316 33L17.1252 31.0426L17.1229 26.8477L17.1161 5.89711C14.1971 6.1965 11.4526 7.50294 9.3637 9.59074C8.67305 10.2825 8.06293 11.0469 7.55033 11.8634L16.4652 25.1251V30.0537L6.22235 14.7088C5.81068 15.9823 5.60315 17.3126 5.60315 18.6723C5.60315 22.1028 6.93907 25.3281 9.3637 27.7527C9.7334 28.1213 10.1269 28.4706 10.534 28.7915L11.05 29.1964H7.08537L7.01846 29.1227C5.82316 27.8185 4.86715 26.3306 4.17764 24.6998C3.37018 22.7901 2.96079 20.7624 2.96079 18.6723C2.96079 16.5822 3.37018 14.5545 4.17764 12.6448C4.26156 12.4452 4.35228 12.2444 4.44527 12.0471L2.64325 9.34579V28.3005L0.0042921 30.1218L-0.000244141 0.631671L5.96378 9.50342C6.42534 8.87742 6.93907 8.27977 7.4959 7.72295C8.91801 6.30084 10.5737 5.18492 12.4177 4.40469C13.9158 3.77075 15.4956 3.38063 17.115 3.24341V2.67298C13.7786 2.82494 10.5284 3.56095 7.45734 4.86058C6.54215 5.24729 5.63831 5.68731 4.77302 6.16588L4.59043 6.26681L3.11502 4.06674L3.32822 3.94653C4.32733 3.38517 5.36953 2.87371 6.42875 2.42689C10.2347 0.816523 14.273 0 18.4316 0C22.5902 0 26.6286 0.816523 30.4345 2.42689C31.4938 2.87371 32.536 3.38517 33.5351 3.94653L33.7494 4.06674L32.2729 6.26681L32.0903 6.16588C31.225 5.68731 30.3211 5.24729 29.406 4.86058C26.3372 3.56208 23.0881 2.82608 19.7483 2.67298V3.24341C21.3689 3.38063 22.9475 3.77075 24.4467 4.40469C26.2896 5.18492 27.9453 6.30084 29.3674 7.72295C29.9242 8.27864 30.438 8.87742 30.8995 9.50342L36.8635 0.631671Z" fill="white" fill-opacity="0.26" style="mix-blend-mode:lighten"/>
<path d="M36.8635 0.631671L36.859 30.1218L34.2212 28.3005V9.34579L32.418 12.0471C32.5121 12.2456 32.6017 12.4463 32.6857 12.6448C33.4931 14.5545 33.9025 16.5822 33.9025 18.6723C33.9025 20.7624 33.4931 22.7901 32.6857 24.6998C31.9962 26.3306 31.0401 27.8185 29.8448 29.1227L29.7779 29.1964H25.8132L26.3292 28.7915C26.7364 28.4717 27.1299 28.1224 27.4996 27.7527C29.9254 25.3281 31.2613 22.1028 31.2613 18.6723C31.2613 17.3126 31.0526 15.9823 30.6409 14.7088L20.3981 30.0537V25.1251L20.4367 25.0684L29.313 11.8634C28.8004 11.0457 28.1902 10.2825 27.4996 9.59074C25.4107 7.50294 22.6662 6.1965 19.7472 5.89711L19.7392 31.0426L18.4316 33L17.1252 31.0426L17.1229 26.8477L17.1161 5.89711C14.1971 6.1965 11.4526 7.50294 9.3637 9.59074C8.67305 10.2825 8.06293 11.0469 7.55033 11.8634L16.4652 25.1251V30.0537L6.22235 14.7088C5.81068 15.9823 5.60315 17.3126 5.60315 18.6723C5.60315 22.1028 6.93907 25.3281 9.3637 27.7527C9.7334 28.1213 10.1269 28.4706 10.534 28.7915L11.05 29.1964H7.08537L7.01846 29.1227C5.82316 27.8185 4.86715 26.3306 4.17764 24.6998C3.37018 22.7901 2.96079 20.7624 2.96079 18.6723C2.96079 16.5822 3.37018 14.5545 4.17764 12.6448C4.26156 12.4452 4.35228 12.2444 4.44527 12.0471L2.64325 9.34579V28.3005L0.0042921 30.1218L-0.000244141 0.631671L5.96378 9.50342C6.42534 8.87742 6.93907 8.27977 7.4959 7.72295C8.91801 6.30084 10.5737 5.18492 12.4177 4.40469C13.9158 3.77075 15.4956 3.38063 17.115 3.24341V2.67298C13.7786 2.82494 10.5284 3.56095 7.45734 4.86058C6.54215 5.24729 5.63831 5.68731 4.77302 6.16588L4.59043 6.26681L3.11502 4.06674L3.32822 3.94653C4.32733 3.38517 5.36953 2.87371 6.42875 2.42689C10.2347 0.816523 14.273 0 18.4316 0C22.5902 0 26.6286 0.816523 30.4345 2.42689C31.4938 2.87371 32.536 3.38517 33.5351 3.94653L33.7494 4.06674L32.2729 6.26681L32.0903 6.16588C31.225 5.68731 30.3211 5.24729 29.406 4.86058C26.3372 3.56208 23.0881 2.82608 19.7483 2.67298V3.24341C21.3689 3.38063 22.9475 3.77075 24.4467 4.40469C26.2896 5.18492 27.9453 6.30084 29.3674 7.72295C29.9242 8.27864 30.438 8.87742 30.8995 9.50342L36.8635 0.631671Z" fill="#8C8C8C" style="mix-blend-mode:color-dodge"/>
</g>
<path d="M59.6752 5.36123C59.1984 4.42505 58.518 3.6982 57.64 3.1865C56.762 2.6748 55.7211 2.41895 54.5175 2.41895C53.3138 2.41895 52.2788 2.6748 51.3949 3.18068C50.5111 3.69238 49.8307 4.41342 49.3481 5.35541C48.8655 6.29741 48.6271 7.41385 48.6271 8.71054V8.72799C48.6271 10.0247 48.8655 11.1411 49.3481 12.0831C49.8249 13.0251 50.5053 13.752 51.3891 14.2637C52.2729 14.7754 53.3138 15.0312 54.5175 15.0312C55.7211 15.0312 56.7736 14.7754 57.6458 14.2637C58.518 13.752 59.1984 13.0251 59.6752 12.0831C60.152 11.1411 60.3962 10.0247 60.3962 8.72799V8.71054C60.3962 7.41385 60.1578 6.29741 59.6752 5.36123ZM57.7854 8.72799C57.7854 9.56532 57.6516 10.298 57.39 10.9143C57.1225 11.5365 56.7503 12.0133 56.2619 12.3564C55.7734 12.6995 55.192 12.8681 54.5175 12.8681C53.8429 12.8681 53.2673 12.6995 52.7788 12.3622C52.2904 12.025 51.9124 11.5482 51.645 10.926C51.3775 10.3038 51.2437 9.57695 51.2437 8.72799V8.71054C51.2437 7.86158 51.3775 7.12892 51.645 6.51255C51.9124 5.89619 52.2962 5.41937 52.7846 5.08212C53.2789 4.75067 53.8546 4.58205 54.5233 4.58205C55.192 4.58205 55.7676 4.75067 56.2561 5.08212C56.7445 5.41937 57.1225 5.89619 57.39 6.51255C57.6574 7.13474 57.7912 7.86158 57.7912 8.71054V8.72799H57.7854Z" fill="white" fill-opacity="0.26" style="mix-blend-mode:lighten"/>
<path d="M59.6752 5.36123C59.1984 4.42505 58.518 3.6982 57.64 3.1865C56.762 2.6748 55.7211 2.41895 54.5175 2.41895C53.3138 2.41895 52.2788 2.6748 51.3949 3.18068C50.5111 3.69238 49.8307 4.41342 49.3481 5.35541C48.8655 6.29741 48.6271 7.41385 48.6271 8.71054V8.72799C48.6271 10.0247 48.8655 11.1411 49.3481 12.0831C49.8249 13.0251 50.5053 13.752 51.3891 14.2637C52.2729 14.7754 53.3138 15.0312 54.5175 15.0312C55.7211 15.0312 56.7736 14.7754 57.6458 14.2637C58.518 13.752 59.1984 13.0251 59.6752 12.0831C60.152 11.1411 60.3962 10.0247 60.3962 8.72799V8.71054C60.3962 7.41385 60.1578 6.29741 59.6752 5.36123ZM57.7854 8.72799C57.7854 9.56532 57.6516 10.298 57.39 10.9143C57.1225 11.5365 56.7503 12.0133 56.2619 12.3564C55.7734 12.6995 55.192 12.8681 54.5175 12.8681C53.8429 12.8681 53.2673 12.6995 52.7788 12.3622C52.2904 12.025 51.9124 11.5482 51.645 10.926C51.3775 10.3038 51.2437 9.57695 51.2437 8.72799V8.71054C51.2437 7.86158 51.3775 7.12892 51.645 6.51255C51.9124 5.89619 52.2962 5.41937 52.7846 5.08212C53.2789 4.75067 53.8546 4.58205 54.5233 4.58205C55.192 4.58205 55.7676 4.75067 56.2561 5.08212C56.7445 5.41937 57.1225 5.89619 57.39 6.51255C57.6574 7.13474 57.7912 7.86158 57.7912 8.71054V8.72799H57.7854Z" fill="#8C8C8C" style="mix-blend-mode:color-dodge"/>
<path d="M71.3806 2.62793V10.5535H71.3225L65.8217 2.62793H63.5946V14.8157H66.1357V6.83783H66.188L71.712 14.8157H73.9217V2.62793H71.3806Z" fill="white" fill-opacity="0.26" style="mix-blend-mode:lighten"/>
<path d="M71.3806 2.62793V10.5535H71.3225L65.8217 2.62793H63.5946V14.8157H66.1357V6.83783H66.188L71.712 14.8157H73.9217V2.62793H71.3806Z" fill="#8C8C8C" style="mix-blend-mode:color-dodge"/>
<path d="M81.8702 2.62789V4.73284H85.3998V14.8157H87.9525V4.72702H91.4821V2.62207H81.8702V2.62789Z" fill="white" fill-opacity="0.26" style="mix-blend-mode:lighten"/>
<path d="M81.8702 2.62789V4.73284H85.3998V14.8157H87.9525V4.72702H91.4821V2.62207H81.8702V2.62789Z" fill="#8C8C8C" style="mix-blend-mode:color-dodge"/>
<path d="M102.495 2.62793V7.57631H97.0059V2.62793H94.4532V14.8157H97.0059V9.68708H102.495V14.8157H105.048V2.62793H102.495Z" fill="white" fill-opacity="0.26" style="mix-blend-mode:lighten"/>
<path d="M102.495 2.62793V7.57631H97.0059V2.62793H94.4532V14.8157H97.0059V9.68708H102.495V14.8157H105.048V2.62793H102.495Z" fill="#8C8C8C" style="mix-blend-mode:color-dodge"/>
<path d="M116.706 4.72702V2.62207H108.63V14.8157H116.706V12.7107H111.182V9.65215H116.393V7.65186H111.182V4.72702H116.706Z" fill="white" fill-opacity="0.26" style="mix-blend-mode:lighten"/>
<path d="M116.706 4.72702V2.62207H108.63V14.8157H116.706V12.7107H111.182V9.65215H116.393V7.65186H111.182V4.72702H116.706Z" fill="#8C8C8C" style="mix-blend-mode:color-dodge"/>
<path d="M135 2.62793L131.546 11.3908H131.494L128.028 2.62793H125.08V14.8157H127.353V6.57617H127.429L130.72 14.8157H132.325L135.61 6.57617H135.674V14.8157H137.954V2.62793H134.994H135Z" fill="white" fill-opacity="0.26" style="mix-blend-mode:lighten"/>
<path d="M135 2.62793L131.546 11.3908H131.494L128.028 2.62793H125.08V14.8157H127.353V6.57617H127.429L130.72 14.8157H132.325L135.61 6.57617H135.674V14.8157H137.954V2.62793H134.994H135Z" fill="#8C8C8C" style="mix-blend-mode:color-dodge"/>
<path d="M152.2 5.36123C151.723 4.42505 151.043 3.6982 150.165 3.1865C149.287 2.6748 148.246 2.41895 147.042 2.41895C145.839 2.41895 144.804 2.6748 143.92 3.18068C143.036 3.69238 142.356 4.41342 141.873 5.35541C141.39 6.29741 141.152 7.41385 141.152 8.71054V8.72799C141.152 10.0247 141.39 11.1411 141.873 12.0831C142.35 13.0251 143.03 13.752 143.914 14.2637C144.798 14.7754 145.839 15.0312 147.042 15.0312C148.246 15.0312 149.293 14.7754 150.171 14.2637C151.049 13.752 151.723 13.0251 152.2 12.0831C152.677 11.1411 152.921 10.0247 152.921 8.72799V8.71054C152.921 7.41385 152.683 6.29741 152.2 5.36123ZM150.304 8.72799C150.304 9.56532 150.171 10.298 149.909 10.9143C149.647 11.5365 149.269 12.0133 148.781 12.3564C148.293 12.6995 147.711 12.8681 147.037 12.8681C146.362 12.8681 145.786 12.6995 145.298 12.3622C144.809 12.025 144.426 11.5482 144.164 10.926C143.897 10.3038 143.763 9.57695 143.763 8.72799V8.71054C143.763 7.86158 143.897 7.12892 144.164 6.51255C144.432 5.89619 144.809 5.41937 145.304 5.08212C145.798 4.75067 146.374 4.58205 147.042 4.58205C147.711 4.58205 148.287 4.75067 148.775 5.08212C149.264 5.41937 149.647 5.89619 149.909 6.51255C150.177 7.13474 150.31 7.86158 150.31 8.71054V8.72799H150.304Z" fill="white" fill-opacity="0.26" style="mix-blend-mode:lighten"/>
<path d="M152.2 5.36123C151.723 4.42505 151.043 3.6982 150.165 3.1865C149.287 2.6748 148.246 2.41895 147.042 2.41895C145.839 2.41895 144.804 2.6748 143.92 3.18068C143.036 3.69238 142.356 4.41342 141.873 5.35541C141.39 6.29741 141.152 7.41385 141.152 8.71054V8.72799C141.152 10.0247 141.39 11.1411 141.873 12.0831C142.35 13.0251 143.03 13.752 143.914 14.2637C144.798 14.7754 145.839 15.0312 147.042 15.0312C148.246 15.0312 149.293 14.7754 150.171 14.2637C151.049 13.752 151.723 13.0251 152.2 12.0831C152.677 11.1411 152.921 10.0247 152.921 8.72799V8.71054C152.921 7.41385 152.683 6.29741 152.2 5.36123ZM150.304 8.72799C150.304 9.56532 150.171 10.298 149.909 10.9143C149.647 11.5365 149.269 12.0133 148.781 12.3564C148.293 12.6995 147.711 12.8681 147.037 12.8681C146.362 12.8681 145.786 12.6995 145.298 12.3622C144.809 12.025 144.426 11.5482 144.164 10.926C143.897 10.3038 143.763 9.57695 143.763 8.72799V8.71054C143.763 7.86158 143.897 7.12892 144.164 6.51255C144.432 5.89619 144.809 5.41937 145.304 5.08212C145.798 4.75067 146.374 4.58205 147.042 4.58205C147.711 4.58205 148.287 4.75067 148.775 5.08212C149.264 5.41937 149.647 5.89619 149.909 6.51255C150.177 7.13474 150.31 7.86158 150.31 8.71054V8.72799H150.304Z" fill="#8C8C8C" style="mix-blend-mode:color-dodge"/>
<path d="M163.353 2.62793L160.573 12.2049H160.521L157.73 2.62793H154.91L158.98 14.8157H162.097L166.179 2.62793H163.347H163.353Z" fill="white" fill-opacity="0.26" style="mix-blend-mode:lighten"/>
<path d="M163.353 2.62793L160.573 12.2049H160.521L157.73 2.62793H154.91L158.98 14.8157H162.097L166.179 2.62793H163.347H163.353Z" fill="#8C8C8C" style="mix-blend-mode:color-dodge"/>
<path d="M177.058 4.72702V2.62207H168.982V14.8157H177.058V12.7107H171.534V9.65215H176.744V7.65186H171.534V4.72702H177.058Z" fill="white" fill-opacity="0.26" style="mix-blend-mode:lighten"/>
<path d="M177.058 4.72702V2.62207H168.982V14.8157H177.058V12.7107H171.534V9.65215H176.744V7.65186H171.534V4.72702H177.058Z" fill="#8C8C8C" style="mix-blend-mode:color-dodge"/>
<g opacity="0.8">
<path d="M59.7914 16.7373H56.9596C57.0526 16.8885 57.134 17.0455 57.2096 17.2199C57.4771 17.8421 57.6108 18.569 57.6108 19.4179V19.4354C57.6108 20.2727 57.4771 21.0054 57.2154 21.6217C56.948 22.2439 56.5758 22.7207 56.0874 23.0638C55.5989 23.4069 55.0174 23.5755 54.3429 23.5755C53.6684 23.5755 53.0928 23.4069 52.6043 23.0696C52.1159 22.7323 51.7379 22.2555 51.4704 21.6334C51.2029 21.0112 51.0692 20.2843 51.0692 19.4354V19.4179C51.0692 18.569 51.2029 17.8305 51.4704 17.2199C51.546 17.0513 51.6274 16.8943 51.7205 16.7431H48.8887C48.6037 17.5281 48.4584 18.4236 48.4584 19.4179V19.4354C48.4584 20.7321 48.6968 21.8485 49.1794 22.7963C49.6562 23.7383 50.3365 24.4652 51.2204 24.9769C52.1042 25.4886 53.1451 25.7386 54.3488 25.7386C55.5524 25.7386 56.6049 25.4827 57.4771 24.971C58.3493 24.4593 59.0297 23.7325 59.5065 22.7905C59.9833 21.8485 60.2275 20.7321 60.2275 19.4354V19.4179C60.2275 18.4178 60.0879 17.5281 59.7972 16.7431L59.7914 16.7373Z" fill="white" fill-opacity="0.26" style="mix-blend-mode:lighten"/>
<path d="M59.7914 16.7373H56.9596C57.0526 16.8885 57.134 17.0455 57.2096 17.2199C57.4771 17.8421 57.6108 18.569 57.6108 19.4179V19.4354C57.6108 20.2727 57.4771 21.0054 57.2154 21.6217C56.948 22.2439 56.5758 22.7207 56.0874 23.0638C55.5989 23.4069 55.0174 23.5755 54.3429 23.5755C53.6684 23.5755 53.0928 23.4069 52.6043 23.0696C52.1159 22.7323 51.7379 22.2555 51.4704 21.6334C51.2029 21.0112 51.0692 20.2843 51.0692 19.4354V19.4179C51.0692 18.569 51.2029 17.8305 51.4704 17.2199C51.546 17.0513 51.6274 16.8943 51.7205 16.7431H48.8887C48.6037 17.5281 48.4584 18.4236 48.4584 19.4179V19.4354C48.4584 20.7321 48.6968 21.8485 49.1794 22.7963C49.6562 23.7383 50.3365 24.4652 51.2204 24.9769C52.1042 25.4886 53.1451 25.7386 54.3488 25.7386C55.5524 25.7386 56.6049 25.4827 57.4771 24.971C58.3493 24.4593 59.0297 23.7325 59.5065 22.7905C59.9833 21.8485 60.2275 20.7321 60.2275 19.4354V19.4179C60.2275 18.4178 60.0879 17.5281 59.7972 16.7431L59.7914 16.7373Z" fill="#8C8C8C" style="mix-blend-mode:color-dodge"/>
<path d="M71.2 16.7373V21.2554H71.1419L68.0019 16.7373H63.4082V25.5234H65.9493V17.5456H66.0016L71.5256 25.5234H73.7353V16.7373H71.1942H71.2Z" fill="white" fill-opacity="0.26" style="mix-blend-mode:lighten"/>
<path d="M71.2 16.7373V21.2554H71.1419L68.0019 16.7373H63.4082V25.5234H65.9493V17.5456H66.0016L71.5256 25.5234H73.7353V16.7373H71.1942H71.2Z" fill="#8C8C8C" style="mix-blend-mode:color-dodge"/>
<path d="M85.2196 16.7373V25.5234H87.7723V16.7373H85.2196Z" fill="white" fill-opacity="0.26" style="mix-blend-mode:lighten"/>
<path d="M85.2196 16.7373V25.5234H87.7723V16.7373H85.2196Z" fill="#8C8C8C" style="mix-blend-mode:color-dodge"/>
<path d="M102.315 16.7373V18.284H96.8259V16.7373H94.2732V25.5234H96.8259V20.3948H102.315V25.5234H104.868V16.7373H102.315Z" fill="white" fill-opacity="0.26" style="mix-blend-mode:lighten"/>
<path d="M102.315 16.7373V18.284H96.8259V16.7373H94.2732V25.5234H96.8259V20.3948H102.315V25.5234H104.868V16.7373H102.315Z" fill="#8C8C8C" style="mix-blend-mode:color-dodge"/>
<path d="M111.002 23.4185V20.3599H116.212V18.3596H111.002V16.7373H108.45V25.5234H116.526V23.4185H111.002Z" fill="white" fill-opacity="0.26" style="mix-blend-mode:lighten"/>
<path d="M111.002 23.4185V20.3599H116.212V18.3596H111.002V16.7373H108.45V25.5234H116.526V23.4185H111.002Z" fill="#8C8C8C" style="mix-blend-mode:color-dodge"/>
<path d="M133.476 16.7373L131.365 22.0927H131.313L129.197 16.7373H124.899V25.5234H127.173V17.2839H127.249L130.534 25.5234H132.139L135.424 17.2839H135.488V25.5234H137.768V16.7373H133.47H133.476Z" fill="white" fill-opacity="0.26" style="mix-blend-mode:lighten"/>
<path d="M133.476 16.7373L131.365 22.0927H131.313L129.197 16.7373H124.899V25.5234H127.173V17.2839H127.249L130.534 25.5234H132.139L135.424 17.2839H135.488V25.5234H137.768V16.7373H133.47H133.476Z" fill="#8C8C8C" style="mix-blend-mode:color-dodge"/>
<path d="M152.316 16.7373H149.485C149.578 16.8885 149.659 17.0455 149.735 17.2199C150.002 17.8421 150.136 18.569 150.136 19.4179V19.4354C150.136 20.2727 150.002 21.0054 149.74 21.6217C149.479 22.2439 149.101 22.7207 148.612 23.0638C148.124 23.4069 147.543 23.5755 146.868 23.5755C146.193 23.5755 145.618 23.4069 145.124 23.0696C144.635 22.7323 144.257 22.2555 143.99 21.6334C143.722 21.0112 143.588 20.2843 143.588 19.4354V19.4179C143.588 18.569 143.722 17.8305 143.99 17.2199C144.059 17.0513 144.147 16.8943 144.234 16.7431H141.402C141.117 17.5281 140.972 18.4236 140.972 19.4179V19.4354C140.972 20.7321 141.21 21.8485 141.693 22.7963C142.17 23.7383 142.85 24.4652 143.734 24.9769C144.618 25.4886 145.659 25.7386 146.862 25.7386C148.066 25.7386 149.112 25.4827 149.991 24.971C150.869 24.4593 151.543 23.7325 152.02 22.7905C152.497 21.8485 152.741 20.7321 152.741 19.4354V19.4179C152.741 18.4178 152.601 17.5281 152.311 16.7431L152.316 16.7373Z" fill="white" fill-opacity="0.26" style="mix-blend-mode:lighten"/>
<path d="M152.316 16.7373H149.485C149.578 16.8885 149.659 17.0455 149.735 17.2199C150.002 17.8421 150.136 18.569 150.136 19.4179V19.4354C150.136 20.2727 150.002 21.0054 149.74 21.6217C149.479 22.2439 149.101 22.7207 148.612 23.0638C148.124 23.4069 147.543 23.5755 146.868 23.5755C146.193 23.5755 145.618 23.4069 145.124 23.0696C144.635 22.7323 144.257 22.2555 143.99 21.6334C143.722 21.0112 143.588 20.2843 143.588 19.4354V19.4179C143.588 18.569 143.722 17.8305 143.99 17.2199C144.059 17.0513 144.147 16.8943 144.234 16.7431H141.402C141.117 17.5281 140.972 18.4236 140.972 19.4179V19.4354C140.972 20.7321 141.21 21.8485 141.693 22.7963C142.17 23.7383 142.85 24.4652 143.734 24.9769C144.618 25.4886 145.659 25.7386 146.862 25.7386C148.066 25.7386 149.112 25.4827 149.991 24.971C150.869 24.4593 151.543 23.7325 152.02 22.7905C152.497 21.8485 152.741 20.7321 152.741 19.4354V19.4179C152.741 18.4178 152.601 17.5281 152.311 16.7431L152.316 16.7373Z" fill="#8C8C8C" style="mix-blend-mode:color-dodge"/>
<path d="M162.19 16.7373L160.399 22.9126H160.347L158.55 16.7373H155.875L158.811 25.5234H161.928L164.87 16.7373H162.19Z" fill="white" fill-opacity="0.26" style="mix-blend-mode:lighten"/>
<path d="M162.19 16.7373L160.399 22.9126H160.347L158.55 16.7373H155.875L158.811 25.5234H161.928L164.87 16.7373H162.19Z" fill="#8C8C8C" style="mix-blend-mode:color-dodge"/>
<path d="M171.36 23.4185V20.3599H176.57V18.3596H171.36V16.7373H168.807V25.5234H176.884V23.4185H171.36Z" fill="white" fill-opacity="0.26" style="mix-blend-mode:lighten"/>
<path d="M171.36 23.4185V20.3599H176.57V18.3596H171.36V16.7373H168.807V25.5234H176.884V23.4185H171.36Z" fill="#8C8C8C" style="mix-blend-mode:color-dodge"/>
</g>
<g opacity="0.6">
<path d="M56.9712 26.6328C56.7096 27.1736 56.3607 27.5923 55.9188 27.9063C55.4303 28.2493 54.8488 28.418 54.1743 28.418C53.4998 28.418 52.9241 28.2493 52.4357 27.9121C51.988 27.6039 51.6333 27.1794 51.3716 26.6386H48.6038C48.7084 26.9933 48.8422 27.3248 49.005 27.6388C49.4818 28.5808 50.1621 29.3076 51.046 29.8193C51.9298 30.331 52.9707 30.5811 54.1743 30.5811C55.378 30.5811 56.4305 30.3252 57.3027 29.8135C58.1749 29.3018 58.8552 28.575 59.332 27.633C59.489 27.319 59.6228 26.9875 59.7274 26.6386H56.9654L56.9712 26.6328Z" fill="white" fill-opacity="0.26" style="mix-blend-mode:lighten"/>
<path d="M56.9712 26.6328C56.7096 27.1736 56.3607 27.5923 55.9188 27.9063C55.4303 28.2493 54.8488 28.418 54.1743 28.418C53.4998 28.418 52.9241 28.2493 52.4357 27.9121C51.988 27.6039 51.6333 27.1794 51.3716 26.6386H48.6038C48.7084 26.9933 48.8422 27.3248 49.005 27.6388C49.4818 28.5808 50.1621 29.3076 51.046 29.8193C51.9298 30.331 52.9707 30.5811 54.1743 30.5811C55.378 30.5811 56.4305 30.3252 57.3027 29.8135C58.1749 29.3018 58.8552 28.575 59.332 27.633C59.489 27.319 59.6228 26.9875 59.7274 26.6386H56.9654L56.9712 26.6328Z" fill="#8C8C8C" style="mix-blend-mode:color-dodge"/>
<path d="M63.2572 26.6328V30.3659H65.7983V26.6328H63.2572ZM68.7929 26.6328L71.3805 30.3659H73.5901V26.6328H68.7929Z" fill="white" fill-opacity="0.26" style="mix-blend-mode:lighten"/>
<path d="M63.2572 26.6328V30.3659H65.7983V26.6328H63.2572ZM68.7929 26.6328L71.3805 30.3659H73.5901V26.6328H68.7929Z" fill="#8C8C8C" style="mix-blend-mode:color-dodge"/>
<path d="M85.0625 26.6328V30.3659H87.6152V26.6328H85.0625Z" fill="white" fill-opacity="0.26" style="mix-blend-mode:lighten"/>
<path d="M85.0625 26.6328V30.3659H87.6152V26.6328H85.0625Z" fill="#8C8C8C" style="mix-blend-mode:color-dodge"/>
<path d="M94.1101 26.6328V30.3659H96.6628V26.6328H94.1101ZM102.152 26.6328V30.3659H104.705V26.6328H102.152Z" fill="white" fill-opacity="0.26" style="mix-blend-mode:lighten"/>
<path d="M94.1101 26.6328V30.3659H96.6628V26.6328H94.1101ZM102.152 26.6328V30.3659H104.705V26.6328H102.152Z" fill="#8C8C8C" style="mix-blend-mode:color-dodge"/>
<path d="M110.845 28.261V26.6328H108.292V30.3659H116.369V28.261H110.845Z" fill="white" fill-opacity="0.26" style="mix-blend-mode:lighten"/>
<path d="M110.845 28.261V26.6328H108.292V30.3659H116.369V28.261H110.845Z" fill="#8C8C8C" style="mix-blend-mode:color-dodge"/>
<path d="M124.743 26.6328V30.3659H127.016V26.6328H124.743ZM131.325 26.6328L131.203 26.9352H131.15L131.028 26.6328H128.883L130.371 30.3659H131.976L133.465 26.6328H131.319H131.325ZM135.337 26.6328V30.3659H137.616V26.6328H135.337Z" fill="white" fill-opacity="0.26" style="mix-blend-mode:lighten"/>
<path d="M124.743 26.6328V30.3659H127.016V26.6328H124.743ZM131.325 26.6328L131.203 26.9352H131.15L131.028 26.6328H128.883L130.371 30.3659H131.976L133.465 26.6328H131.319H131.325ZM135.337 26.6328V30.3659H137.616V26.6328H135.337Z" fill="#8C8C8C" style="mix-blend-mode:color-dodge"/>
<path d="M149.496 26.6328C149.24 27.1736 148.886 27.5923 148.444 27.9063C147.955 28.2493 147.374 28.418 146.699 28.418C146.025 28.418 145.449 28.2493 144.955 27.9121C144.507 27.6039 144.152 27.1794 143.896 26.6386H141.129C141.233 26.9933 141.367 27.3248 141.53 27.6388C142.007 28.5808 142.687 29.3076 143.571 29.8193C144.455 30.331 145.496 30.5811 146.699 30.5811C147.903 30.5811 148.95 30.3252 149.828 29.8135C150.706 29.3018 151.38 28.575 151.857 27.633C152.014 27.319 152.148 26.9875 152.252 26.6386H149.49L149.496 26.6328Z" fill="white" fill-opacity="0.26" style="mix-blend-mode:lighten"/>
<path d="M149.496 26.6328C149.24 27.1736 148.886 27.5923 148.444 27.9063C147.955 28.2493 147.374 28.418 146.699 28.418C146.025 28.418 145.449 28.2493 144.955 27.9121C144.507 27.6039 144.152 27.1794 143.896 26.6386H141.129C141.233 26.9933 141.367 27.3248 141.53 27.6388C142.007 28.5808 142.687 29.3076 143.571 29.8193C144.455 30.331 145.496 30.5811 146.699 30.5811C147.903 30.5811 148.95 30.3252 149.828 29.8135C150.706 29.3018 151.38 28.575 151.857 27.633C152.014 27.319 152.148 26.9875 152.252 26.6386H149.49L149.496 26.6328Z" fill="#8C8C8C" style="mix-blend-mode:color-dodge"/>
<path d="M160.562 26.6328L160.236 27.7551H160.184L159.858 26.6328H157.399L158.643 30.3659H161.76L163.01 26.6328H160.556H160.562Z" fill="white" fill-opacity="0.26" style="mix-blend-mode:lighten"/>
<path d="M160.562 26.6328L160.236 27.7551H160.184L159.858 26.6328H157.399L158.643 30.3659H161.76L163.01 26.6328H160.556H160.562Z" fill="#8C8C8C" style="mix-blend-mode:color-dodge"/>
<path d="M171.197 28.261V26.6328H168.644V30.3659H176.721V28.261H171.197Z" fill="white" fill-opacity="0.26" style="mix-blend-mode:lighten"/>
<path d="M171.197 28.261V26.6328H168.644V30.3659H176.721V28.261H171.197Z" fill="#8C8C8C" style="mix-blend-mode:color-dodge"/>
</g>
<defs>
<clipPath id="clip0_3083_4991">
<rect width="36.8638" height="33" fill="white"/>
</clipPath>
</defs>
</svg>
