<svg width="45" height="35" viewBox="0 0 45 35" fill="none" xmlns="http://www.w3.org/2000/svg">
<path d="M17.0776 15.4816C15.6628 16.324 11.9534 18.0441 14.2127 20.1966C15.3163 21.248 16.5455 22 18.0909 22H26.9091C28.4545 22 29.6837 21.248 30.7873 20.1966C33.0466 18.0441 29.3372 16.324 27.9224 15.4816C24.6048 13.5061 20.3952 13.5061 17.0776 15.4816Z" stroke="#929292" stroke-width="1.5" stroke-linecap="round" stroke-linejoin="round"/>
<path d="M27 6.5C27 8.98528 24.9853 11 22.5 11C20.0147 11 18 8.98528 18 6.5C18 4.01472 20.0147 2 22.5 2C24.9853 2 27 4.01472 27 6.5Z" stroke="#929292" stroke-width="1.5"/>
<path d="M9.21911 33V26.4545H11.5522C12.0614 26.4545 12.4833 26.5472 12.8178 26.7326C13.1523 26.918 13.4027 27.1715 13.5689 27.4933C13.7351 27.8129 13.8182 28.1729 13.8182 28.5735C13.8182 28.9762 13.734 29.3384 13.5657 29.6602C13.3995 29.9798 13.1481 30.2333 12.8114 30.4208C12.4769 30.6062 12.0561 30.6989 11.549 30.6989H9.9446V29.8615H11.4595C11.7813 29.8615 12.0423 29.8061 12.2425 29.6953C12.4428 29.5824 12.5898 29.429 12.6836 29.2351C12.7773 29.0412 12.8242 28.8207 12.8242 28.5735C12.8242 28.3263 12.7773 28.1069 12.6836 27.9151C12.5898 27.7234 12.4418 27.5732 12.2393 27.4645C12.0391 27.3558 11.7749 27.3015 11.4467 27.3015H10.2067V33H9.21911ZM14.8992 33V28.0909H15.8229V28.8707H15.874C15.9635 28.6065 16.1212 28.3988 16.347 28.2475C16.575 28.0941 16.8328 28.0174 17.1205 28.0174C17.1801 28.0174 17.2504 28.0195 17.3314 28.0238C17.4145 28.0281 17.4795 28.0334 17.5264 28.0398V28.9538C17.488 28.9432 17.4198 28.9315 17.3218 28.9187C17.2238 28.9038 17.1258 28.8963 17.0278 28.8963C16.8019 28.8963 16.6006 28.9442 16.4237 29.0401C16.249 29.1339 16.1105 29.2649 16.0083 29.4332C15.906 29.5994 15.8548 29.7891 15.8548 30.0021V33H14.8992ZM20.2454 33.0991C19.7852 33.0991 19.3835 32.9936 19.0405 32.7827C18.6974 32.5717 18.4311 32.2766 18.2415 31.8974C18.0518 31.5181 17.957 31.0749 17.957 30.5678C17.957 30.0586 18.0518 29.6133 18.2415 29.2319C18.4311 28.8505 18.6974 28.5543 19.0405 28.3434C19.3835 28.1325 19.7852 28.027 20.2454 28.027C20.7056 28.027 21.1072 28.1325 21.4503 28.3434C21.7933 28.5543 22.0597 28.8505 22.2493 29.2319C22.4389 29.6133 22.5337 30.0586 22.5337 30.5678C22.5337 31.0749 22.4389 31.5181 22.2493 31.8974C22.0597 32.2766 21.7933 32.5717 21.4503 32.7827C21.1072 32.9936 20.7056 33.0991 20.2454 33.0991ZM20.2486 32.2969C20.5469 32.2969 20.794 32.218 20.9901 32.0604C21.1861 31.9027 21.331 31.6928 21.4247 31.4308C21.5206 31.1687 21.5685 30.88 21.5685 30.5646C21.5685 30.2514 21.5206 29.9638 21.4247 29.7017C21.331 29.4375 21.1861 29.2255 20.9901 29.0657C20.794 28.9059 20.5469 28.826 20.2486 28.826C19.9482 28.826 19.6989 28.9059 19.5007 29.0657C19.3047 29.2255 19.1587 29.4375 19.0629 29.7017C18.9691 29.9638 18.9222 30.2514 18.9222 30.5646C18.9222 30.88 18.9691 31.1687 19.0629 31.4308C19.1587 31.6928 19.3047 31.9027 19.5007 32.0604C19.6989 32.218 19.9482 32.2969 20.2486 32.2969ZM25.9367 28.0909V28.858H23.1626V28.0909H25.9367ZM23.9232 33V27.522C23.9232 27.2152 23.9903 26.9606 24.1246 26.7582C24.2588 26.5536 24.4367 26.4013 24.6583 26.3011C24.8799 26.1989 25.1206 26.1477 25.3806 26.1477C25.5724 26.1477 25.7364 26.1637 25.8728 26.1957C26.0091 26.2255 26.1104 26.2532 26.1764 26.2788L25.9527 27.0522C25.9079 27.0394 25.8504 27.0245 25.7801 27.0075C25.7098 26.9883 25.6246 26.9787 25.5244 26.9787C25.2922 26.9787 25.126 27.0362 25.0258 27.1513C24.9278 27.2663 24.8788 27.4325 24.8788 27.6499V33H23.9232ZM26.9227 33V28.0909H27.8783V33H26.9227ZM27.4053 27.3335C27.2391 27.3335 27.0963 27.2781 26.977 27.1673C26.8598 27.0543 26.8012 26.9201 26.8012 26.7646C26.8012 26.6069 26.8598 26.4727 26.977 26.3619C27.0963 26.2489 27.2391 26.1925 27.4053 26.1925C27.5715 26.1925 27.7132 26.2489 27.8303 26.3619C27.9497 26.4727 28.0093 26.6069 28.0093 26.7646C28.0093 26.9201 27.9497 27.0543 27.8303 27.1673C27.7132 27.2781 27.5715 27.3335 27.4053 27.3335ZM30.1195 26.4545V33H29.1639V26.4545H30.1195ZM33.5209 33.0991C33.0372 33.0991 32.6206 32.9957 32.2712 32.7891C31.9239 32.5803 31.6555 32.2873 31.4658 31.9102C31.2783 31.5309 31.1846 31.0866 31.1846 30.5774C31.1846 30.0746 31.2783 29.6314 31.4658 29.2479C31.6555 28.8643 31.9197 28.565 32.2584 28.3498C32.5993 28.1346 32.9978 28.027 33.4537 28.027C33.7307 28.027 33.9992 28.0728 34.2591 28.1644C34.5191 28.256 34.7524 28.3999 34.9591 28.5959C35.1657 28.7919 35.3287 29.0465 35.4481 29.3597C35.5674 29.6708 35.627 30.049 35.627 30.4943V30.8331H31.7247V30.1172H34.6906C34.6906 29.8658 34.6395 29.6431 34.5372 29.4492C34.4349 29.2532 34.2911 29.0987 34.1057 28.9858C33.9225 28.8729 33.7073 28.8164 33.4601 28.8164C33.1917 28.8164 32.9573 28.8825 32.757 29.0146C32.5589 29.1445 32.4055 29.315 32.2968 29.5259C32.1903 29.7347 32.137 29.9616 32.137 30.2067V30.766C32.137 31.0941 32.1945 31.3732 32.3096 31.6033C32.4268 31.8335 32.5898 32.0092 32.7986 32.1307C33.0074 32.25 33.2513 32.3097 33.5305 32.3097C33.7116 32.3097 33.8767 32.2841 34.0258 32.233C34.175 32.1797 34.3039 32.1009 34.4126 31.9964C34.5212 31.892 34.6043 31.7631 34.6618 31.6097L35.5663 31.7727C35.4939 32.0391 35.3639 32.2724 35.1764 32.4727C34.991 32.6708 34.7577 32.8253 34.4765 32.9361C34.1974 33.0447 33.8788 33.0991 33.5209 33.0991Z" fill="#929292"/>
</svg>
