<svg width="45" height="35" viewBox="0 0 45 35" fill="none" xmlns="http://www.w3.org/2000/svg">
<path d="M17.0776 15.4816C15.6628 16.324 11.9534 18.0441 14.2127 20.1966C15.3163 21.248 16.5455 22 18.0909 22H26.9091C28.4545 22 29.6837 21.248 30.7873 20.1966C33.0466 18.0441 29.3372 16.324 27.9224 15.4816C24.6048 13.5061 20.3952 13.5061 17.0776 15.4816Z" stroke="#DDF988" stroke-width="1.8" stroke-linecap="round" stroke-linejoin="round"/>
<path d="M27 6.5C27 8.98528 24.9853 11 22.5 11C20.0147 11 18 8.98528 18 6.5C18 4.01472 20.0147 2 22.5 2C24.9853 2 27 4.01472 27 6.5Z" stroke="#DDF988" stroke-width="1.8"/>
<path d="M8.6456 33V26.4545H11.1001C11.603 26.4545 12.0249 26.5483 12.3658 26.7358C12.7088 26.9233 12.9677 27.1811 13.1424 27.5092C13.3192 27.8352 13.4077 28.206 13.4077 28.6214C13.4077 29.0412 13.3192 29.4141 13.1424 29.7401C12.9656 30.0661 12.7045 30.3228 12.3594 30.5103C12.0142 30.6957 11.5891 30.7884 11.0842 30.7884H9.45739V29.8136H10.9244C11.2184 29.8136 11.4592 29.7624 11.6467 29.6602C11.8342 29.5579 11.9727 29.4173 12.0621 29.2383C12.1538 29.0593 12.1996 28.8537 12.1996 28.6214C12.1996 28.3892 12.1538 28.1847 12.0621 28.0078C11.9727 27.831 11.8331 27.6935 11.6435 27.5955C11.456 27.4954 11.2141 27.4453 10.918 27.4453H9.83132V33H8.6456ZM14.3865 33V28.0909H15.5083V28.9091H15.5594C15.6489 28.6257 15.8023 28.4073 16.0196 28.2539C16.2391 28.0984 16.4894 28.0206 16.7707 28.0206C16.8346 28.0206 16.906 28.0238 16.9848 28.0302C17.0658 28.0344 17.1329 28.0419 17.1862 28.0526V29.1168C17.1372 29.0998 17.0594 29.0849 16.9529 29.0721C16.8485 29.0572 16.7472 29.0497 16.6492 29.0497C16.4383 29.0497 16.2487 29.0955 16.0803 29.1871C15.9142 29.2766 15.7831 29.4013 15.6872 29.5611C15.5914 29.7209 15.5434 29.9052 15.5434 30.114V33H14.3865ZM19.894 33.0959C19.4146 33.0959 18.9991 32.9904 18.6475 32.7795C18.296 32.5685 18.0233 32.2734 17.8294 31.8942C17.6376 31.5149 17.5417 31.0717 17.5417 30.5646C17.5417 30.0575 17.6376 29.6133 17.8294 29.2319C18.0233 28.8505 18.296 28.5543 18.6475 28.3434C18.9991 28.1325 19.4146 28.027 19.894 28.027C20.3734 28.027 20.7889 28.1325 21.1404 28.3434C21.492 28.5543 21.7637 28.8505 21.9554 29.2319C22.1493 29.6133 22.2463 30.0575 22.2463 30.5646C22.2463 31.0717 22.1493 31.5149 21.9554 31.8942C21.7637 32.2734 21.492 32.5685 21.1404 32.7795C20.7889 32.9904 20.3734 33.0959 19.894 33.0959ZM19.9004 32.169C20.1603 32.169 20.3777 32.0977 20.5524 31.9549C20.7271 31.81 20.8571 31.6161 20.9423 31.3732C21.0297 31.1303 21.0733 30.8597 21.0733 30.5614C21.0733 30.261 21.0297 29.9893 20.9423 29.7464C20.8571 29.5014 20.7271 29.3065 20.5524 29.1616C20.3777 29.0167 20.1603 28.9442 19.9004 28.9442C19.6341 28.9442 19.4125 29.0167 19.2356 29.1616C19.0609 29.3065 18.9299 29.5014 18.8425 29.7464C18.7573 29.9893 18.7147 30.261 18.7147 30.5614C18.7147 30.8597 18.7573 31.1303 18.8425 31.3732C18.9299 31.6161 19.0609 31.81 19.2356 31.9549C19.4125 32.0977 19.6341 32.169 19.9004 32.169ZM25.7148 28.0909V28.9858H22.8128V28.0909H25.7148ZM23.5383 33V27.6275C23.5383 27.2972 23.6064 27.0224 23.7428 26.8029C23.8813 26.5835 24.0667 26.4194 24.2989 26.3107C24.5312 26.2021 24.789 26.1477 25.0724 26.1477C25.2726 26.1477 25.4506 26.1637 25.6061 26.1957C25.7616 26.2276 25.8767 26.2564 25.9513 26.282L25.7211 27.1768C25.6721 27.1619 25.6104 27.147 25.5358 27.1321C25.4612 27.1151 25.3781 27.1065 25.2865 27.1065C25.0713 27.1065 24.9189 27.1587 24.8295 27.2631C24.7421 27.3654 24.6984 27.5124 24.6984 27.7042V33H23.5383ZM26.6208 33V28.0909H27.7778V33H26.6208ZM27.2025 27.3942C27.0193 27.3942 26.8616 27.3335 26.7295 27.212C26.5974 27.0884 26.5313 26.9403 26.5313 26.7678C26.5313 26.593 26.5974 26.445 26.7295 26.3235C26.8616 26.1999 27.0193 26.1381 27.2025 26.1381C27.3879 26.1381 27.5455 26.1999 27.6755 26.3235C27.8076 26.445 27.8737 26.593 27.8737 26.7678C27.8737 26.9403 27.8076 27.0884 27.6755 27.212C27.5455 27.3335 27.3879 27.3942 27.2025 27.3942ZM30.1245 26.4545V33H28.9675V26.4545H30.1245ZM33.4875 33.0959C32.9953 33.0959 32.5702 32.9936 32.2123 32.7891C31.8564 32.5824 31.5827 32.2905 31.3909 31.9134C31.1991 31.5341 31.1032 31.0877 31.1032 30.5742C31.1032 30.0692 31.1991 29.6261 31.3909 29.2447C31.5848 28.8612 31.8554 28.5629 32.2027 28.3498C32.55 28.1346 32.958 28.027 33.4268 28.027C33.7293 28.027 34.0148 28.076 34.2833 28.174C34.5539 28.2699 34.7925 28.419 34.9992 28.6214C35.208 28.8239 35.3721 29.0817 35.4914 29.3949C35.6107 29.706 35.6704 30.0767 35.6704 30.5071V30.8619H31.6466V30.082H34.5613C34.5592 29.8604 34.5113 29.6634 34.4175 29.4908C34.3238 29.3161 34.1927 29.1786 34.0244 29.0785C33.8582 28.9783 33.6643 28.9283 33.4427 28.9283C33.2062 28.9283 32.9985 28.9858 32.8195 29.1009C32.6405 29.2138 32.501 29.3629 32.4008 29.5483C32.3028 29.7315 32.2528 29.9329 32.2506 30.1523V30.8331C32.2506 31.1186 32.3028 31.3636 32.4072 31.5682C32.5116 31.7706 32.6576 31.9261 32.8451 32.0348C33.0326 32.1413 33.252 32.1946 33.5035 32.1946C33.6718 32.1946 33.8241 32.1712 33.9605 32.1243C34.0969 32.0753 34.2151 32.0039 34.3153 31.9102C34.4154 31.8164 34.491 31.7003 34.5422 31.5618L35.6224 31.6832C35.5542 31.9687 35.4243 32.218 35.2325 32.4311C35.0429 32.642 34.8 32.8061 34.5038 32.9233C34.2077 33.0384 33.8689 33.0959 33.4875 33.0959Z" fill="#DDF988"/>
</svg>
