<svg width="283" height="268" viewBox="0 0 283 268" fill="none" xmlns="http://www.w3.org/2000/svg">
<path d="M148.891 21.8264C147.697 21.8264 146.729 22.7943 146.729 23.9883C146.729 25.1822 147.697 26.1501 148.891 26.1501C150.085 26.1501 151.052 25.1822 151.052 23.9883C151.052 22.7943 150.085 21.8264 148.891 21.8264ZM148.485 23.9883L148.485 26.7041L149.296 26.7041L149.296 23.9883L148.485 23.9883ZM148.485 32.1358L148.485 37.5675L149.296 37.5675L149.296 32.1358L148.485 32.1358ZM148.485 42.9991L148.485 48.4308L149.296 48.4308L149.296 42.9991L148.485 42.9991ZM148.485 53.8625L148.485 59.2942L149.296 59.2942L149.296 53.8625L148.485 53.8625ZM148.485 64.7259L148.485 70.1575L149.296 70.1575L149.296 64.7259L148.485 64.7259ZM148.485 75.5892L148.485 81.0209L149.296 81.0209L149.296 75.5892L148.485 75.5892ZM148.485 86.4526L148.485 91.8843L149.296 91.8843L149.296 86.4526L148.485 86.4526ZM148.485 97.3159L148.485 102.748L149.296 102.748L149.296 97.3159L148.485 97.3159ZM148.485 108.179L148.485 113.611L149.296 113.611L149.296 108.179L148.485 108.179ZM148.485 119.043L148.485 124.474L149.296 124.474L149.296 119.043L148.485 119.043ZM148.485 129.906L148.485 132.622L149.296 132.622L149.296 129.906L148.485 129.906Z" fill="#D6B6F0"/>
<path d="M266.038 106.39C265.666 105.255 264.444 104.638 263.31 105.011C262.175 105.383 261.558 106.605 261.93 107.739C262.303 108.873 263.525 109.491 264.659 109.118C265.793 108.746 266.411 107.524 266.038 106.39ZM263.858 106.679L261.278 107.527L261.531 108.297L264.111 107.45L263.858 106.679ZM256.117 109.222L250.957 110.917L251.21 111.687L256.37 109.992L256.117 109.222ZM245.797 112.612L240.636 114.308L240.889 115.078L246.05 113.383L245.797 112.612ZM235.476 116.003L230.315 117.698L230.568 118.468L235.729 116.773L235.476 116.003ZM225.155 119.393L219.995 121.088L220.248 121.858L225.408 120.163L225.155 119.393ZM214.834 122.783L209.674 124.479L209.927 125.249L215.087 123.554L214.834 122.783ZM204.513 126.174L199.353 127.869L199.606 128.639L204.766 126.944L204.513 126.174ZM194.193 129.564L189.032 131.259L189.285 132.029L194.446 130.334L194.193 129.564ZM183.872 132.954L178.712 134.649L178.965 135.42L184.125 133.725L183.872 132.954ZM173.551 136.345L168.391 138.04L168.644 138.81L173.804 137.115L173.551 136.345ZM163.23 139.735L160.65 140.583L160.903 141.353L163.483 140.505L163.23 139.735Z" fill="#7CDCF6"/>
<path d="M35.3043 108.54C35.6714 107.404 35.048 106.186 33.9119 105.818C32.7758 105.451 31.5572 106.075 31.19 107.211C30.8229 108.347 31.4462 109.565 32.5824 109.933C33.7185 110.3 34.9371 109.676 35.3043 108.54ZM136.742 140.895L134.158 140.059L133.908 140.831L136.493 141.666L136.742 140.895ZM128.989 138.389L123.821 136.719L123.571 137.49L128.74 139.161L128.989 138.389ZM118.652 135.049L113.484 133.378L113.234 134.15L118.403 135.82L118.652 135.049ZM108.315 131.708L103.147 130.038L102.897 130.809L108.066 132.48L108.315 131.708ZM97.9781 128.368L92.8096 126.698L92.5603 127.469L97.7288 129.139L97.9781 128.368ZM87.641 125.027L82.4725 123.357L82.2233 124.128L87.3918 125.799L87.641 125.027ZM77.304 121.687L72.1355 120.017L71.8862 120.788L77.0548 122.458L77.304 121.687ZM66.967 118.346L61.7985 116.676L61.5492 117.448L66.7177 119.118L66.967 118.346ZM56.63 115.006L51.4615 113.336L51.2122 114.107L56.3807 115.777L56.63 115.006ZM46.293 111.665L41.1245 109.995L40.8752 110.767L46.0437 112.437L46.293 111.665ZM35.956 108.325L33.3718 107.49L33.1225 108.261L35.7067 109.096L35.956 108.325Z" fill="#FA5757"/>
<path d="M74.2949 251.136C75.2743 251.819 76.6219 251.578 77.3047 250.599C77.9875 249.619 77.747 248.272 76.7676 247.589C75.7882 246.906 74.4406 247.147 73.7578 248.126C73.075 249.105 73.3155 250.453 74.2949 251.136ZM75.8638 249.594L77.4169 247.366L76.7519 246.903L75.1987 249.13L75.8638 249.594ZM80.5231 242.911L83.6294 238.455L82.9644 237.991L79.8581 242.447L80.5231 242.911ZM86.7357 234L89.8419 229.544L89.1769 229.08L86.0706 233.536L86.7357 234ZM92.9482 225.088L96.0544 220.633L95.3894 220.169L92.2831 224.625L92.9482 225.088ZM99.1607 216.177L102.267 211.722L101.602 211.258L98.4956 215.713L99.1607 216.177ZM105.373 207.266L108.479 202.81L107.814 202.347L104.708 206.802L105.373 207.266ZM111.586 198.355L114.692 193.899L114.027 193.435L110.921 197.891L111.586 198.355ZM117.798 189.444L120.904 184.988L120.239 184.524L117.133 188.98L117.798 189.444ZM124.011 180.532L127.117 176.077L126.452 175.613L123.346 180.069L124.011 180.532ZM130.223 171.621L133.329 167.165L132.664 166.702L129.558 171.157L130.223 171.621ZM136.436 162.71L137.989 160.482L137.324 160.018L135.771 162.246L136.436 162.71Z" fill="#F5C563"/>
<path d="M224.885 251.272C225.855 250.576 226.078 249.225 225.382 248.255C224.686 247.285 223.335 247.062 222.365 247.758C221.395 248.454 221.172 249.804 221.868 250.774C222.564 251.745 223.915 251.967 224.885 251.272ZM223.954 249.278L222.372 247.071L221.713 247.544L223.296 249.751L223.954 249.278ZM219.207 242.657L216.041 238.243L215.383 238.716L218.548 243.13L219.207 242.657ZM212.876 233.829L209.711 229.415L209.052 229.887L212.217 234.301L212.876 233.829ZM206.546 225.001L203.38 220.587L202.722 221.059L205.887 225.473L206.546 225.001ZM200.215 216.173L197.05 211.758L196.391 212.231L199.556 216.645L200.215 216.173ZM193.885 207.344L190.72 202.93L190.061 203.403L193.226 207.817L193.885 207.344ZM187.554 198.516L184.389 194.102L183.73 194.574L186.895 198.988L187.554 198.516ZM181.224 189.688L178.059 185.274L177.4 185.746L180.565 190.16L181.224 189.688ZM174.893 180.86L171.728 176.445L171.069 176.918L174.235 181.332L174.893 180.86ZM168.563 172.031L165.398 167.617L164.739 168.09L167.904 172.504L168.563 172.031ZM162.232 163.203L160.65 160.996L159.991 161.468L161.574 163.675L162.232 163.203Z" fill="#DDF988"/>
<path d="M112.216 11.2891C111.646 11.2891 111.296 10.9325 111.296 10.3335V1.95435C111.296 1.35533 111.646 0.998769 112.216 0.998769H117.229C117.736 0.998769 118.071 1.29828 118.071 1.77607C118.071 2.25386 117.736 2.55337 117.229 2.55337H113.136V5.33453H117.015C117.486 5.33453 117.807 5.61264 117.807 6.06191C117.807 6.51117 117.493 6.79642 117.015 6.79642H113.136V9.73447H117.229C117.736 9.73447 118.071 10.034 118.071 10.5118C118.071 10.9896 117.736 11.2891 117.229 11.2891H112.216ZM120.552 11.4317C120.032 11.4317 119.668 11.0965 119.668 10.4975V4.47878C119.668 3.92968 119.989 3.58026 120.517 3.58026C121.037 3.58026 121.394 3.92968 121.394 4.47878V5.00649H121.429C121.836 4.10796 122.62 3.58739 123.783 3.58739C125.451 3.58739 126.4 4.65706 126.4 6.4042V10.4975C126.4 11.0965 126.036 11.4317 125.516 11.4317C124.995 11.4317 124.624 11.0965 124.624 10.4975V6.76076C124.624 5.69109 124.125 5.09207 123.112 5.09207C122.093 5.09207 121.444 5.82658 121.444 6.91052V10.4975C121.444 11.0965 121.073 11.4317 120.552 11.4317ZM130.942 11.4103C129.038 11.4103 127.804 9.90561 127.804 7.50241C127.804 5.11346 129.038 3.60165 130.942 3.60165C132.026 3.60165 132.882 4.16501 133.281 4.99936H133.324V1.79033C133.324 1.19131 133.688 0.856145 134.208 0.856145C134.729 0.856145 135.1 1.19131 135.1 1.79033V10.5403C135.1 11.1108 134.736 11.4317 134.222 11.4317C133.709 11.4317 133.324 11.1179 133.324 10.5403V9.9484H133.288C132.925 10.8184 132.112 11.4103 130.942 11.4103ZM131.477 9.95553C132.597 9.95553 133.331 9.00708 133.331 7.50954C133.331 6.02625 132.597 5.06354 131.477 5.06354C130.336 5.06354 129.623 6.01199 129.623 7.50954C129.623 9.01422 130.329 9.95553 131.477 9.95553ZM139.528 11.4246C137.888 11.4246 136.846 10.362 136.846 8.61487V4.51444C136.846 3.92255 137.21 3.58026 137.731 3.58026C138.251 3.58026 138.622 3.92255 138.622 4.52157V8.25831C138.622 9.34225 139.15 9.92701 140.148 9.92701C141.175 9.92701 141.81 9.19963 141.81 8.10142V4.51444C141.81 3.92255 142.181 3.58026 142.701 3.58026C143.215 3.58026 143.585 3.92255 143.585 4.52157V10.5332C143.585 11.1037 143.243 11.4317 142.737 11.4317C142.223 11.4317 141.874 11.1037 141.874 10.5332V9.97693H141.838C141.439 10.8968 140.676 11.4246 139.528 11.4246ZM146.217 11.4317C145.682 11.4317 145.332 11.0823 145.332 10.4975V4.47878C145.332 3.92255 145.675 3.58026 146.181 3.58026C146.673 3.58026 147.022 3.92255 147.022 4.47878V5.05641H147.058C147.265 4.17214 147.921 3.60165 148.677 3.60165C148.955 3.60165 149.169 3.67296 149.304 3.79419C149.468 3.92968 149.554 4.14362 149.554 4.436C149.554 4.71411 149.468 4.92092 149.29 5.06354C149.119 5.2133 148.855 5.29174 148.506 5.29887C147.493 5.306 147.108 5.94068 147.108 6.8606V10.4975C147.108 11.0823 146.751 11.4317 146.217 11.4317ZM152.691 11.4103C151.229 11.4103 150.167 10.4904 150.167 9.12831C150.167 7.78765 151.201 6.98183 153.041 6.86773L155.045 6.75363V6.21166C155.045 5.4201 154.51 4.96371 153.633 4.96371C152.941 4.96371 152.492 5.19903 152.05 5.84797C151.864 6.09043 151.629 6.20453 151.329 6.20453C150.894 6.20453 150.581 5.91928 150.581 5.49141C150.581 5.3274 150.623 5.17051 150.702 5.00649C151.087 4.12936 152.256 3.57312 153.704 3.57312C155.579 3.57312 156.799 4.56436 156.799 6.0833V10.5403C156.799 11.1108 156.435 11.4317 155.936 11.4317C155.451 11.4317 155.116 11.1393 155.087 10.6116V10.0839H155.052C154.617 10.904 153.668 11.4103 152.691 11.4103ZM153.233 10.0696C154.232 10.0696 155.045 9.3993 155.045 8.48651V7.90888L153.29 8.01585C152.435 8.0729 151.943 8.45798 151.943 9.057C151.943 9.67742 152.463 10.0696 153.233 10.0696ZM159.409 11.4317C158.888 11.4317 158.524 11.0965 158.524 10.4975V4.47878C158.524 3.92968 158.845 3.58026 159.373 3.58026C159.894 3.58026 160.25 3.92968 160.25 4.47878V5.00649H160.286C160.692 4.10796 161.477 3.58739 162.639 3.58739C164.308 3.58739 165.256 4.65706 165.256 6.4042V10.4975C165.256 11.0965 164.893 11.4317 164.372 11.4317C163.851 11.4317 163.481 11.0965 163.481 10.4975V6.76076C163.481 5.69109 162.981 5.09207 161.969 5.09207C160.949 5.09207 160.3 5.82658 160.3 6.91052V10.4975C160.3 11.0965 159.929 11.4317 159.409 11.4317ZM170.298 11.4388C168.087 11.4388 166.661 9.94127 166.661 7.51667C166.661 5.10633 168.08 3.57312 170.283 3.57312C171.767 3.57312 173.029 4.33616 173.393 5.39871C173.45 5.54846 173.485 5.69822 173.485 5.82658C173.485 6.26871 173.15 6.5397 172.722 6.5397C172.366 6.5397 172.152 6.38994 171.945 6.03338C171.567 5.34166 171.068 5.01362 170.333 5.01362C169.192 5.01362 168.465 5.96207 168.465 7.50954C168.465 9.0784 169.199 10.0054 170.326 10.0054C171.111 10.0054 171.596 9.64176 171.938 9.03561C172.18 8.63626 172.373 8.48651 172.758 8.48651C173.179 8.48651 173.507 8.77176 173.507 9.21389C173.507 9.34938 173.471 9.49914 173.4 9.67028C172.979 10.7043 171.724 11.4388 170.298 11.4388ZM178.356 11.4388C176.045 11.4388 174.683 9.99119 174.683 7.53806C174.683 5.12772 176.074 3.57312 178.256 3.57312C180.324 3.57312 181.736 5.04215 181.736 7.09593C181.736 7.62364 181.436 7.93741 180.909 7.93741H176.452V7.99446C176.452 9.25668 177.186 10.0696 178.341 10.0696C179.14 10.0696 179.661 9.79151 180.231 9.06413C180.417 8.85733 180.581 8.77889 180.83 8.77889C181.229 8.77889 181.543 9.03561 181.543 9.46348C181.543 9.59897 181.5 9.75586 181.422 9.91274C180.923 10.8755 179.796 11.4388 178.356 11.4388ZM176.466 6.76789H179.996C179.96 5.66969 179.261 4.94944 178.263 4.94944C177.265 4.94944 176.537 5.68395 176.466 6.76789Z" fill="#D6B6F0"/>
<path d="M259.755 98.965C259.185 98.965 258.835 98.6156 258.835 98.0094V89.509C258.835 88.91 259.185 88.5535 259.755 88.5535H262.836C264.883 88.5535 266.302 89.944 266.302 91.9978C266.302 94.0516 264.84 95.4422 262.757 95.4422H260.675V98.0094C260.675 98.6156 260.333 98.965 259.755 98.965ZM260.675 93.9589H262.344C263.663 93.9589 264.433 93.2458 264.433 91.9978C264.433 90.7641 263.67 90.0581 262.351 90.0581H260.675V93.9589ZM270.409 98.9792C268.769 98.9792 267.728 97.9167 267.728 96.1696V92.0691C267.728 91.4772 268.091 91.1349 268.612 91.1349C269.132 91.1349 269.503 91.4772 269.503 92.0763V95.813C269.503 96.8969 270.031 97.4817 271.029 97.4817C272.056 97.4817 272.691 96.7543 272.691 95.6561V92.0691C272.691 91.4772 273.062 91.1349 273.582 91.1349C274.096 91.1349 274.467 91.4772 274.467 92.0763V98.0878C274.467 98.6583 274.124 98.9864 273.618 98.9864C273.105 98.9864 272.755 98.6583 272.755 98.0878V97.5316H272.719C272.32 98.4515 271.557 98.9792 270.409 98.9792ZM277.155 98.9864C276.634 98.9864 276.263 98.6512 276.263 98.0522V89.345C276.263 88.746 276.634 88.4108 277.155 88.4108C277.675 88.4108 278.039 88.746 278.039 89.345V98.0522C278.039 98.6512 277.675 98.9864 277.155 98.9864ZM280.784 98.9864C280.264 98.9864 279.893 98.6512 279.893 98.0522V89.345C279.893 88.746 280.264 88.4108 280.784 88.4108C281.305 88.4108 281.669 88.746 281.669 89.345V98.0522C281.669 98.6512 281.305 98.9864 280.784 98.9864Z" fill="#7CDCF6"/>
<path d="M217.06 265.208C215.006 265.208 213.637 264.353 213.237 263.183C213.173 263.012 213.137 262.826 213.137 262.655C213.137 262.142 213.465 261.814 213.95 261.814C214.357 261.814 214.614 261.978 214.813 262.391C215.134 263.283 216.018 263.682 217.117 263.682C218.357 263.682 219.227 263.069 219.227 262.213C219.227 261.472 218.714 261.015 217.373 260.737L216.268 260.509C214.207 260.088 213.244 259.118 213.244 257.614C213.244 255.802 214.835 254.576 217.067 254.576C218.885 254.576 220.297 255.389 220.718 256.751C220.761 256.865 220.782 257 220.782 257.171C220.782 257.621 220.461 257.927 219.983 257.927C219.555 257.927 219.292 257.742 219.099 257.343C218.75 256.473 218.015 256.102 217.052 256.102C215.911 256.102 215.098 256.644 215.098 257.507C215.098 258.205 215.612 258.655 216.896 258.926L218.001 259.154C220.169 259.603 221.082 260.473 221.082 261.999C221.082 263.967 219.534 265.208 217.06 265.208ZM225.374 265.158C223.477 265.158 222.265 263.654 222.265 261.25C222.265 258.854 223.484 257.35 225.41 257.35C226.508 257.35 227.357 257.92 227.785 258.783H227.82V258.241C227.82 257.685 228.148 257.328 228.69 257.328C229.232 257.328 229.56 257.685 229.56 258.241V266.791C229.56 267.39 229.189 267.726 228.669 267.726C228.148 267.726 227.785 267.39 227.785 266.791V263.761H227.742C227.35 264.602 226.465 265.158 225.374 265.158ZM225.916 263.704C227.036 263.704 227.785 262.748 227.785 261.258C227.785 259.774 227.036 258.812 225.916 258.812C224.782 258.812 224.083 259.746 224.083 261.258C224.083 262.769 224.782 263.704 225.916 263.704ZM233.946 265.173C232.305 265.173 231.264 264.11 231.264 262.363V258.262C231.264 257.671 231.628 257.328 232.149 257.328C232.669 257.328 233.04 257.671 233.04 258.27V262.006C233.04 263.09 233.568 263.675 234.566 263.675C235.593 263.675 236.228 262.948 236.228 261.849V258.262C236.228 257.671 236.598 257.328 237.119 257.328C237.632 257.328 238.003 257.671 238.003 258.27V264.281C238.003 264.852 237.661 265.18 237.155 265.18C236.641 265.18 236.292 264.852 236.292 264.281V263.725H236.256C235.857 264.645 235.094 265.173 233.946 265.173ZM241.968 265.158C240.506 265.158 239.443 264.238 239.443 262.876C239.443 261.536 240.477 260.73 242.317 260.616L244.321 260.502V259.96C244.321 259.168 243.786 258.712 242.909 258.712C242.217 258.712 241.768 258.947 241.326 259.596C241.141 259.838 240.905 259.953 240.606 259.953C240.171 259.953 239.857 259.667 239.857 259.239C239.857 259.075 239.9 258.919 239.978 258.755C240.363 257.877 241.533 257.321 242.981 257.321C244.856 257.321 246.075 258.312 246.075 259.831V264.288C246.075 264.859 245.712 265.18 245.213 265.18C244.728 265.18 244.393 264.887 244.364 264.36V263.832H244.328C243.893 264.652 242.945 265.158 241.968 265.158ZM242.51 263.818C243.508 263.818 244.321 263.147 244.321 262.235V261.657L242.567 261.764C241.711 261.821 241.219 262.206 241.219 262.805C241.219 263.425 241.74 263.818 242.51 263.818ZM248.293 263.169V258.847H247.815C247.373 258.847 247.102 258.583 247.102 258.156C247.102 257.735 247.373 257.478 247.815 257.478H248.293V256.473C248.293 255.902 248.635 255.546 249.184 255.546C249.726 255.546 250.069 255.902 250.069 256.473V257.478H250.889C251.331 257.478 251.602 257.735 251.602 258.156C251.602 258.583 251.331 258.847 250.889 258.847H250.069V262.784C250.069 263.354 250.268 263.604 250.782 263.647L250.91 263.661C251.381 263.704 251.623 263.903 251.623 264.317C251.623 264.837 251.167 265.116 250.354 265.116H250.283C248.963 265.116 248.293 264.459 248.293 263.169Z" fill="#DDF988"/>
<path d="M59.0033 265.208C56.0296 265.208 54.1969 263.19 54.1969 259.888C54.1969 256.608 56.0581 254.576 58.9676 254.576C60.8716 254.576 62.3763 255.467 63.0538 256.972C63.1679 257.207 63.2249 257.45 63.2249 257.663C63.2249 258.156 62.904 258.469 62.412 258.469C61.9912 258.469 61.7131 258.27 61.5134 257.82C61.0357 256.715 60.1015 256.137 58.9819 256.137C57.2133 256.137 56.0795 257.592 56.0795 259.888C56.0795 262.199 57.2062 263.647 58.989 263.647C60.1657 263.647 61.0713 263.133 61.542 262.049C61.7274 261.628 61.9627 261.457 62.3621 261.457C62.8684 261.457 63.2178 261.792 63.2178 262.277C63.2178 262.513 63.1608 262.727 63.0467 262.969C62.3906 264.367 60.9287 265.208 59.0033 265.208ZM68.2735 265.187C66.0557 265.187 64.6152 263.711 64.6152 261.258C64.6152 258.819 66.07 257.321 68.2735 257.321C70.4771 257.321 71.9318 258.812 71.9318 261.258C71.9318 263.711 70.4913 265.187 68.2735 265.187ZM68.2735 263.782C69.4002 263.782 70.1276 262.869 70.1276 261.258C70.1276 259.653 69.4002 258.733 68.2735 258.733C67.1539 258.733 66.4194 259.653 66.4194 261.258C66.4194 262.869 67.1468 263.782 68.2735 263.782ZM74.2492 265.18C73.7143 265.18 73.3649 264.83 73.3649 264.246V258.227C73.3649 257.671 73.7072 257.328 74.2135 257.328C74.7056 257.328 75.055 257.671 75.055 258.227V258.804H75.0906C75.2975 257.92 75.9535 257.35 76.7094 257.35C76.9875 257.35 77.2015 257.421 77.337 257.542C77.501 257.678 77.5866 257.892 77.5866 258.184C77.5866 258.462 77.501 258.669 77.3227 258.812C77.1516 258.961 76.8877 259.04 76.5383 259.047C75.5256 259.054 75.1406 259.689 75.1406 260.609V264.246C75.1406 264.83 74.784 265.18 74.2492 265.18ZM81.7509 265.187C79.4404 265.187 78.0783 263.739 78.0783 261.286C78.0783 258.876 79.4689 257.321 81.651 257.321C83.7191 257.321 85.1311 258.79 85.1311 260.844C85.1311 261.372 84.8316 261.685 84.3038 261.685H79.8469V261.743C79.8469 263.005 80.5814 263.818 81.7366 263.818C82.5353 263.818 83.0559 263.54 83.6264 262.812C83.8118 262.605 83.9758 262.527 84.2254 262.527C84.6247 262.527 84.9385 262.784 84.9385 263.212C84.9385 263.347 84.8957 263.504 84.8173 263.661C84.3181 264.624 83.1914 265.187 81.7509 265.187ZM79.8611 260.516H83.3911C83.3554 259.418 82.6565 258.697 81.6582 258.697C80.6598 258.697 79.9324 259.432 79.8611 260.516Z" fill="#F5C563"/>
<path d="M2.77089 98.965C2.2004 98.965 1.85097 98.6156 1.85097 98.0094V89.509C1.85097 88.91 2.2004 88.5535 2.77089 88.5535H5.85156C7.89821 88.5535 9.31732 89.944 9.31732 91.9978C9.31732 94.0516 7.85543 95.4422 5.77312 95.4422H3.69082V98.0094C3.69082 98.6156 3.34852 98.965 2.77089 98.965ZM3.69082 93.9589H5.35951C6.67878 93.9589 7.44895 93.2458 7.44895 91.9978C7.44895 90.7641 6.68591 90.0581 5.36664 90.0581H3.69082V93.9589ZM13.4246 98.9792C11.7844 98.9792 10.7433 97.9167 10.7433 96.1696V92.0691C10.7433 91.4772 11.107 91.1349 11.6275 91.1349C12.1481 91.1349 12.5189 91.4772 12.5189 92.0763V95.813C12.5189 96.8969 13.0466 97.4817 14.045 97.4817C15.0719 97.4817 15.7066 96.7543 15.7066 95.6561V92.0691C15.7066 91.4772 16.0774 91.1349 16.598 91.1349C17.1114 91.1349 17.4822 91.4772 17.4822 92.0763V98.0878C17.4822 98.6583 17.1399 98.9864 16.6336 98.9864C16.1202 98.9864 15.7708 98.6583 15.7708 98.0878V97.5316H15.7351C15.3358 98.4515 14.5727 98.9792 13.4246 98.9792ZM22.1457 98.9935C20.5484 98.9935 19.4288 98.3802 19.0651 97.4746C19.0152 97.3462 18.9938 97.2321 18.9938 97.1251C18.9938 96.6973 19.3075 96.4263 19.7354 96.4263C20.0278 96.4263 20.2774 96.5618 20.5056 96.8613C20.9049 97.4389 21.3613 97.6956 22.2099 97.6956C23.0371 97.6956 23.5862 97.3462 23.5862 96.7757C23.5862 96.3193 23.301 96.0697 22.5237 95.8914L21.2971 95.6133C19.821 95.2782 19.0936 94.5508 19.0936 93.4526C19.0936 92.0477 20.3059 91.1278 22.1743 91.1278C23.629 91.1278 24.7558 91.8409 24.9911 92.7109C25.0125 92.8036 25.0267 92.8892 25.0267 92.9748C25.0267 93.3456 24.7914 93.6095 24.3421 93.6095C24.0854 93.6095 23.8287 93.5168 23.6647 93.2814C23.3153 92.7609 22.8803 92.4328 22.1315 92.4328C21.3542 92.4328 20.8193 92.8108 20.8193 93.3527C20.8193 93.7949 21.1474 94.0944 21.9318 94.2727L23.137 94.5365C24.7344 94.9002 25.369 95.4778 25.369 96.5974C25.369 98.0451 24.0712 98.9935 22.1457 98.9935ZM27.722 98.9864C27.2015 98.9864 26.8306 98.6512 26.8306 98.0522V89.3236C26.8306 88.7603 27.1658 88.4108 27.7078 88.4108C28.2569 88.4108 28.5849 88.7603 28.5849 89.3236V92.5826H28.6206C29.027 91.6627 29.8614 91.1421 31.0095 91.1421C32.6782 91.1421 33.6552 92.2403 33.6552 93.9732V98.0522C33.6552 98.6512 33.2844 98.9864 32.7638 98.9864C32.2432 98.9864 31.8795 98.6512 31.8795 98.0522V94.3368C31.8795 93.2814 31.3518 92.6468 30.3249 92.6468C29.2552 92.6468 28.6063 93.3884 28.6063 94.5009V98.0522C28.6063 98.6512 28.2426 98.9864 27.722 98.9864Z" fill="#FA5757"/>
</svg>
