<svg width="108" height="24" viewBox="0 0 108 24" fill="none" xmlns="http://www.w3.org/2000/svg">
<g id="Group">
<g id="Group_2">
<path id="Vector" d="M9.41995 2.47097C9.01952 1.68475 8.44817 1.07434 7.71078 0.644601C6.9734 0.214867 6.09928 0 5.08843 0C4.07758 0 3.20834 0.214867 2.46607 0.639718C1.72381 1.06945 1.15246 1.67499 0.747139 2.46609C0.341821 3.25719 0.141602 4.19479 0.141602 5.28378V5.29843C0.141602 6.38741 0.341821 7.32501 0.747139 8.11611C1.14757 8.90722 1.71892 9.51763 2.46119 9.94737C3.20346 10.3771 4.07758 10.592 5.08843 10.592C6.09928 10.592 6.98316 10.3771 7.71567 9.94737C8.44817 9.51763 9.01952 8.90722 9.41995 8.11611C9.82039 7.32501 10.0255 6.38741 10.0255 5.29843V5.28378C10.0255 4.19479 9.82527 3.25719 9.41995 2.47097ZM7.83287 5.29843C7.83287 6.00163 7.72055 6.61693 7.5008 7.13456C7.27616 7.65708 6.96363 8.05751 6.55343 8.34563C6.14323 8.63375 5.6549 8.77537 5.08843 8.77537C4.52196 8.77537 4.03851 8.63375 3.62831 8.35052C3.21811 8.06728 2.90069 7.66685 2.67606 7.14433C2.45142 6.62181 2.33911 6.01139 2.33911 5.29843V5.28378C2.33911 4.57081 2.45142 3.95551 2.67606 3.43787C2.90069 2.92024 3.22299 2.5198 3.63319 2.23657C4.04828 1.95822 4.53173 1.8166 5.09331 1.8166C5.65489 1.8166 6.13835 1.95822 6.54855 2.23657C6.95875 2.5198 7.27616 2.92024 7.5008 3.43787C7.72543 3.96039 7.83775 4.57081 7.83775 5.28378V5.29843H7.83287Z" fill="#FA5757"/>
<path id="Vector_2" d="M19.2502 0.175537V6.83153H19.2014L14.5817 0.175537H12.7114V10.411H14.8454V3.71108H14.8894L19.5286 10.411H21.3842V0.175537H19.2502Z" fill="#FA5757"/>
<path id="Vector_3" d="M28.0596 0.175782V1.94355H31.0238V10.4113H33.1675V1.93867H36.1317V0.170898H28.0596V0.175782Z" fill="#FA5757"/>
<path id="Vector_4" d="M45.3811 0.175537V4.33126H40.7712V0.175537H38.6274V10.411H40.7712V6.10391H45.3811V10.411H47.5249V0.175537H45.3811Z" fill="#FA5757"/>
<path id="Vector_5" d="M57.3157 1.93867V0.170898H50.5327V10.4113H57.3157V8.6435H52.6765V6.07486H57.052V4.39499H52.6765V1.93867H57.3157Z" fill="#FA5757"/>
<path id="Vector_6" d="M72.6786 0.175537L69.7779 7.53473H69.734L66.8235 0.175537H64.3477V10.411H66.257V3.49133H66.3205L69.0845 10.411H70.4323L73.1914 3.49133H73.2451V10.411H75.1594V0.175537H72.6738H72.6786Z" fill="#FA5757"/>
<path id="Vector_7" d="M87.1236 2.47073C86.7231 1.68451 86.1518 1.07409 85.4144 0.644357C84.677 0.214623 83.8029 -0.000244141 82.792 -0.000244141C81.7812 -0.000244141 80.912 0.214623 80.1697 0.639474C79.4274 1.06921 78.8561 1.67474 78.4507 2.46584C78.0454 3.25695 77.8452 4.19455 77.8452 5.28353V5.29818C77.8452 6.38717 78.0454 7.32477 78.4507 8.11587C78.8512 8.90697 79.4225 9.51739 80.1648 9.94712C80.9071 10.3769 81.7812 10.5917 82.792 10.5917C83.8029 10.5917 84.6819 10.3769 85.4193 9.94712C86.1567 9.51739 86.7231 8.90697 87.1236 8.11587C87.524 7.32477 87.7291 6.38717 87.7291 5.29818V5.28353C87.7291 4.19455 87.5289 3.25695 87.1236 2.47073ZM85.5316 5.29818C85.5316 6.00138 85.4193 6.61668 85.1995 7.13432C84.9798 7.65684 84.6624 8.05727 84.2522 8.34539C83.842 8.6335 83.3536 8.77512 82.7872 8.77512C82.2207 8.77512 81.7372 8.6335 81.327 8.35027C80.9168 8.06704 80.5945 7.6666 80.3748 7.14408C80.1501 6.62157 80.0378 6.01115 80.0378 5.29818V5.28353C80.0378 4.57056 80.1501 3.95526 80.3748 3.43763C80.5994 2.91999 80.9168 2.51956 81.3319 2.23633C81.747 1.95798 82.2305 1.81636 82.792 1.81636C83.3536 1.81636 83.8371 1.95798 84.2473 2.23633C84.6575 2.51956 84.9798 2.91999 85.1995 3.43763C85.4242 3.96015 85.5365 4.57056 85.5365 5.28353V5.29818H85.5316Z" fill="#FA5757"/>
<path id="Vector_8" d="M96.49 0.175537L94.1558 8.2184H94.1118L91.7678 0.175537H89.3994L92.8178 10.411H95.4352L98.8633 0.175537H96.4851H96.49Z" fill="#FA5757"/>
<path id="Vector_9" d="M108 1.93867V0.170898H101.217V10.4113H108V8.6435H103.361V6.07486H107.736V4.39499H103.361V1.93867H108Z" fill="#FA5757"/>
</g>
<g id="Group_3" opacity="0.8">
<path id="Vector_10" d="M9.51763 12.0227H7.13944C7.21758 12.1497 7.28594 12.2815 7.34943 12.428C7.57406 12.9505 7.68638 13.561 7.68638 14.2739V14.2886C7.68638 14.9918 7.57406 15.6071 7.35431 16.1247C7.12968 16.6472 6.81714 17.0477 6.40694 17.3358C5.99674 17.6239 5.50841 17.7655 4.94194 17.7655C4.37547 17.7655 3.89202 17.6239 3.48182 17.3407C3.07162 17.0574 2.7542 16.657 2.52957 16.1345C2.30493 15.612 2.19262 15.0015 2.19262 14.2886V14.2739C2.19262 13.561 2.30493 12.9408 2.52957 12.428C2.59305 12.2864 2.66142 12.1546 2.73955 12.0276H0.361366C0.122083 12.6868 0 13.4389 0 14.2739V14.2886C0 15.3776 0.200216 16.3152 0.605533 17.1111C1.00597 17.9022 1.57732 18.5127 2.31959 18.9424C3.06186 19.3721 3.93597 19.5821 4.94682 19.5821C5.95768 19.5821 6.84156 19.3672 7.57406 18.9375C8.30656 18.5078 8.87792 17.8974 9.27835 17.1063C9.67878 16.3152 9.88388 15.3776 9.88388 14.2886V14.2739C9.88388 13.434 9.76668 12.6868 9.52252 12.0276L9.51763 12.0227Z" fill="#FA5757"/>
<path id="Vector_11" d="M19.0989 12.0227V15.8171H19.05L16.413 12.0227H12.5552V19.4014H14.6892V12.7015H14.7331L19.3723 19.4014H21.228V12.0227H19.094H19.0989Z" fill="#FA5757"/>
<path id="Vector_12" d="M30.8726 12.0227V19.4014H33.0163V12.0227H30.8726Z" fill="#FA5757"/>
<path id="Vector_13" d="M45.2292 12.0227V13.3217H40.6194V12.0227H38.4756V19.4014H40.6194V15.0943H45.2292V19.4014H47.373V12.0227H45.2292Z" fill="#FA5757"/>
<path id="Vector_14" d="M52.5251 17.6337V15.065H56.9006V13.3852H52.5251V12.0227H50.3813V19.4014H57.1643V17.6337H52.5251Z" fill="#FA5757"/>
<path id="Vector_15" d="M71.3992 12.0227L69.6266 16.5203H69.5826L67.8051 12.0227H64.1963V19.4014H66.1057V12.4817H66.1692L68.9282 19.4014H70.2761L73.0351 12.4817H73.0889V19.4014H75.0031V12.0227H71.3943H71.3992Z" fill="#FA5757"/>
<path id="Vector_16" d="M87.2212 12.0227H84.8431C84.9212 12.1497 84.9896 12.2815 85.053 12.428C85.2777 12.9505 85.39 13.561 85.39 14.2739V14.2886C85.39 14.9918 85.2777 15.6071 85.0579 16.1247C84.8382 16.6472 84.5208 17.0477 84.1106 17.3358C83.7004 17.6239 83.212 17.7655 82.6456 17.7655C82.0791 17.7655 81.5956 17.6239 81.1806 17.3407C80.7704 17.0574 80.4529 16.657 80.2283 16.1345C80.0037 15.612 79.8914 15.0015 79.8914 14.2886V14.2739C79.8914 13.561 80.0037 12.9408 80.2283 12.428C80.2869 12.2864 80.3602 12.1546 80.4334 12.0276H78.0552C77.8159 12.6868 77.6938 13.4389 77.6938 14.2739V14.2886C77.6938 15.3776 77.8941 16.3152 78.2994 17.1111C78.6998 17.9022 79.2712 18.5127 80.0134 18.9424C80.7557 19.3721 81.6298 19.5821 82.6407 19.5821C83.6515 19.5821 84.5305 19.3672 85.2679 18.9375C86.0053 18.5078 86.5718 17.8974 86.9722 17.1063C87.3726 16.3152 87.5777 15.3776 87.5777 14.2886V14.2739C87.5777 13.434 87.4605 12.6868 87.2164 12.0276L87.2212 12.0227Z" fill="#FA5757"/>
<path id="Vector_17" d="M95.5133 12.0227L94.0092 17.2088H93.9652L92.4563 12.0227H90.21L92.676 19.4014H95.2935L97.7645 12.0227H95.5133Z" fill="#FA5757"/>
<path id="Vector_18" d="M103.214 17.6337V15.065H107.59V13.3852H103.214V12.0227H101.07V19.4014H107.853V17.6337H103.214Z" fill="#FA5757"/>
</g>
<g id="Group_4" opacity="0.6">
<path id="Vector_19" d="M7.1492 20.3342C6.92945 20.7884 6.63645 21.14 6.26531 21.4037C5.85511 21.6918 5.36678 21.8334 4.80031 21.8334C4.23384 21.8334 3.75039 21.6918 3.34019 21.4086C2.96417 21.1497 2.66629 20.7933 2.44654 20.3391H0.12207C0.20997 20.637 0.322285 20.9153 0.459018 21.179C0.859452 21.9701 1.4308 22.5806 2.17307 23.0103C2.91534 23.44 3.78946 23.65 4.80031 23.65C5.81116 23.65 6.69505 23.4352 7.42755 23.0054C8.16005 22.5757 8.7314 21.9653 9.13183 21.1742C9.26369 20.9105 9.376 20.6321 9.4639 20.3391H7.14431L7.1492 20.3342Z" fill="#FA5757"/>
<path id="Vector_20" d="M12.4282 20.3342V23.4693H14.5622V20.3342H12.4282ZM17.0772 20.3342L19.2503 23.4693H21.1059V20.3342H17.0772Z" fill="#FA5757"/>
<path id="Vector_21" d="M30.7407 20.3342V23.4693H32.8845V20.3342H30.7407Z" fill="#FA5757"/>
<path id="Vector_22" d="M38.3394 20.3342V23.4693H40.4831V20.3342H38.3394ZM45.093 20.3342V23.4693H47.2368V20.3342H45.093Z" fill="#FA5757"/>
<path id="Vector_23" d="M52.3933 21.7016V20.3342H50.2495V23.4693H57.0325V21.7016H52.3933Z" fill="#FA5757"/>
<path id="Vector_24" d="M64.0645 20.3342V23.4693H65.9738V20.3342H64.0645ZM69.5924 20.3342L69.4898 20.5882H69.4459L69.3433 20.3342H67.5414L68.7915 23.4693H70.1393L71.3895 20.3342H69.5875H69.5924ZM72.9619 20.3342V23.4693H74.8762V20.3342H72.9619Z" fill="#FA5757"/>
<path id="Vector_25" d="M84.8528 20.3342C84.638 20.7884 84.3401 21.14 83.9689 21.4037C83.5587 21.6918 83.0704 21.8334 82.5039 21.8334C81.9375 21.8334 81.454 21.6918 81.0389 21.4086C80.6629 21.1497 80.365 20.7933 80.1502 20.3391H77.8257C77.9136 20.637 78.0259 20.9153 78.1626 21.179C78.5631 21.9701 79.1344 22.5806 79.8767 23.0103C80.619 23.44 81.4931 23.65 82.5039 23.65C83.5148 23.65 84.3938 23.4352 85.1312 23.0054C85.8685 22.5757 86.435 21.9653 86.8355 21.1742C86.9673 20.9105 87.0796 20.6321 87.1675 20.3391H84.8479L84.8528 20.3342Z" fill="#FA5757"/>
<path id="Vector_26" d="M94.1463 20.3342L93.8728 21.2767H93.8289L93.5554 20.3342H91.4897L92.5348 23.4693H95.1523L96.2022 20.3342H94.1414H94.1463Z" fill="#FA5757"/>
<path id="Vector_27" d="M103.078 21.7016V20.3342H100.934V23.4693H107.717V21.7016H103.078Z" fill="#FA5757"/>
</g>
</g>
</svg>
