<svg width="28" height="28" viewBox="0 0 28 28" fill="none" xmlns="http://www.w3.org/2000/svg">
<path d="M10.6657 2.91797C7.56584 2.98884 5.75524 3.28495 4.51814 4.52205C3.28105 5.75914 2.98494 7.56975 2.91406 10.6696M17.3291 2.91797C20.429 2.98884 22.2396 3.28495 23.4766 4.52205C24.7137 5.75914 25.0099 7.56975 25.0807 10.6696M17.3291 25.0846C20.429 25.0138 22.2396 24.7177 23.4766 23.4806C24.7137 22.2435 25.0099 20.4329 25.0807 17.333M10.6657 25.0846C7.56584 25.0138 5.75524 24.7177 4.51814 23.4806C3.28105 22.2435 2.98494 20.4329 2.91406 17.333" stroke="#7E87EF" stroke-width="1.75" stroke-linecap="round" stroke-linejoin="round"/>
<path d="M9.33181 9.33398H9.34229" stroke="#7E87EF" stroke-width="2.33333" stroke-linecap="round" stroke-linejoin="round"/>
<path d="M18.6638 18.668H18.6743" stroke="#7E87EF" stroke-width="2.33333" stroke-linecap="round" stroke-linejoin="round"/>
<path d="M9.33203 18.6673L18.6654 9.33398" stroke="#7E87EF" stroke-width="1.75" stroke-linecap="round"/>
</svg>
