<svg width="28" height="29" viewBox="0 0 28 29" fill="none" xmlns="http://www.w3.org/2000/svg">
<path d="M21.4762 16.2108L20.8645 16.8365L20.8645 16.8365L21.4762 16.2108ZM21.1469 21.8905L21.9317 22.2774L21.9317 22.2774L21.1469 21.8905ZM10.8616 17.8081L10.2898 18.4705C10.5489 18.6941 10.9146 18.7461 11.2258 18.6037C11.537 18.4612 11.7366 18.1503 11.7366 17.8081H10.8616ZM8.67733 15.9227L9.24908 15.2603L9.24746 15.2589L8.67733 15.9227ZM6.2213 18.3199L6.91152 17.7821C6.90804 17.7777 6.90452 17.7732 6.90096 17.7688L6.2213 18.3199ZM9.57079 22.6188L10.261 22.081L10.261 22.081L9.57079 22.6188ZM6.21311 16.1548L5.5293 15.6089L5.5293 15.6089L6.21311 16.1548ZM19.1422 26.1654C19.1422 26.6486 19.534 27.0404 20.0172 27.0404C20.5005 27.0404 20.8922 26.6486 20.8922 26.1654H19.1422ZM9.91382 26.1654C9.91382 26.6486 10.3056 27.0404 10.7888 27.0404C11.2721 27.0404 11.6638 26.6486 11.6638 26.1654H9.91382ZM10.6468 24.2966L11.48 24.0297L11.48 24.0297L10.6468 24.2966ZM10.6065 24.1794L11.428 23.878L11.428 23.878L10.6065 24.1794ZM14.6308 13.7443H13.7558C13.7558 13.9829 13.8533 14.2112 14.0256 14.3762C14.1979 14.5413 14.4302 14.6288 14.6686 14.6185L14.6308 13.7443ZM20.8645 16.8365C21.2421 17.2056 21.3875 17.8851 21.2351 18.8743C21.0888 19.8232 20.7004 20.8171 20.362 21.5036L21.9317 22.2774C22.3152 21.4995 22.7816 20.3283 22.9646 19.1409C23.1415 17.9937 23.0906 16.5655 22.0879 15.5851L20.8645 16.8365ZM20.362 21.5036C20.2789 21.6722 20.1738 21.8565 20.0473 22.0763C19.9257 22.2874 19.7857 22.5293 19.6576 22.7781C19.4094 23.2603 19.1422 23.8848 19.1422 24.5608H20.8922C20.8922 24.319 20.9946 24.0043 21.2136 23.579C21.3191 23.3739 21.4371 23.1698 21.5639 22.9494C21.6858 22.7377 21.8195 22.5049 21.9317 22.2774L20.362 21.5036ZM11.4333 17.1457L9.24908 15.2603L8.10559 16.5851L10.2898 18.4705L11.4333 17.1457ZM5.53108 18.8577L8.88057 23.1566L10.261 22.081L6.91152 17.7821L5.53108 18.8577ZM5.5293 15.6089C4.76689 16.5639 4.77201 17.9218 5.54164 18.871L6.90096 17.7688C6.64912 17.4582 6.64743 17.0132 6.89693 16.7007L5.5293 15.6089ZM9.24746 15.2589C8.13215 14.301 6.4464 14.4601 5.5293 15.6089L6.89693 16.7007C7.19607 16.326 7.74429 16.2747 8.10721 16.5865L9.24746 15.2589ZM19.1422 24.5608V26.1654H20.8922V24.5608H19.1422ZM11.6638 26.1654C11.6638 25.2697 11.6735 24.6334 11.48 24.0297L9.81346 24.5635C9.90419 24.8468 9.91382 25.1607 9.91382 26.1654H11.6638ZM8.88057 23.1566C9.49757 23.9485 9.68265 24.2017 9.78503 24.4807L11.428 23.878C11.2096 23.2827 10.8111 22.787 10.261 22.081L8.88057 23.1566ZM11.48 24.0297C11.4637 23.9788 11.4464 23.9282 11.428 23.878L9.78503 24.4807C9.79508 24.5081 9.80456 24.5357 9.81346 24.5635L11.48 24.0297ZM9.98658 8.21665V17.8081H11.7366V8.21665H9.98658ZM13.7558 8.21665V13.7443H15.5058V8.21665H13.7558ZM14.6686 14.6185C16.2798 14.5489 18.9264 14.9418 20.8645 16.8365L22.0879 15.5851C19.674 13.2254 16.4694 12.7891 14.593 12.8701L14.6686 14.6185ZM11.7366 8.21665C11.7366 7.65905 12.1886 7.20703 12.7462 7.20703V5.45703C11.2221 5.45703 9.98658 6.69255 9.98658 8.21665H11.7366ZM12.7462 7.20703C13.3038 7.20703 13.7558 7.65905 13.7558 8.21665H15.5058C15.5058 6.69255 14.2703 5.45703 12.7462 5.45703V7.20703Z" fill="#7E87EF"/>
<path d="M7.29297 7.4987C7.29297 7.98195 7.68472 8.3737 8.16797 8.3737C8.65122 8.3737 9.04297 7.98195 9.04297 7.4987H7.29297ZM16.6263 7.4987C16.6263 7.98195 17.0181 8.3737 17.5013 8.3737C17.9846 8.3737 18.3763 7.98195 18.3763 7.4987H16.6263ZM9.04297 7.4987C9.04297 5.40462 10.7406 3.70703 12.8346 3.70703V1.95703C9.77406 1.95703 7.29297 4.43812 7.29297 7.4987H9.04297ZM12.8346 3.70703C14.9287 3.70703 16.6263 5.40462 16.6263 7.4987H18.3763C18.3763 4.43812 15.8952 1.95703 12.8346 1.95703V3.70703Z" fill="#7E87EF"/>
</svg>
