<svg width="28" height="28" viewBox="0 0 28 28" fill="none" xmlns="http://www.w3.org/2000/svg">
<path d="M21.7175 23.332H22.2894C23.6309 23.332 24.6979 22.7208 25.6559 21.8662C28.0897 19.695 22.3685 17.4987 20.4154 17.4987M18.082 5.91226C18.3469 5.85971 18.622 5.83203 18.9043 5.83203C21.0275 5.83203 22.7487 7.39903 22.7487 9.33203C22.7487 11.265 21.0275 12.832 18.9043 12.832C18.622 12.832 18.3469 12.8043 18.082 12.7518" stroke="#7E87EF" stroke-width="1.75" stroke-linecap="round"/>
<path d="M5.2282 18.7951C3.85273 19.5322 0.246327 21.0373 2.44287 22.9207C3.51586 23.8407 4.71089 24.4987 6.21334 24.4987H14.7867C16.2891 24.4987 17.4841 23.8407 18.5571 22.9207C20.7537 21.0373 17.1473 19.5322 15.7718 18.7951C12.5463 17.0666 8.45365 17.0666 5.2282 18.7951Z" stroke="#7E87EF" stroke-width="1.75"/>
<path d="M15.1667 8.7487C15.1667 11.326 13.0773 13.4154 10.5 13.4154C7.92267 13.4154 5.83333 11.326 5.83333 8.7487C5.83333 6.17137 7.92267 4.08203 10.5 4.08203C13.0773 4.08203 15.1667 6.17137 15.1667 8.7487Z" stroke="#7E87EF" stroke-width="1.75"/>
</svg>
