<svg width="10" height="11" viewBox="0 0 10 11" fill="none" xmlns="http://www.w3.org/2000/svg">
<g clip-path="url(#clip0_6320_7187)">
<path d="M5.50275 2.07574L6.19718 3.47606C6.29187 3.67099 6.54439 3.85797 6.75745 3.89377L8.01609 4.10461C8.82099 4.23987 9.01038 4.82865 8.43038 5.40946L7.45187 6.39605C7.28616 6.56314 7.19541 6.88537 7.2467 7.11611L7.52684 8.33741C7.74779 9.30411 7.23881 9.67806 6.39051 9.17283L5.21078 8.46869C4.99772 8.34139 4.64656 8.34139 4.42955 8.46869L3.24982 9.17283C2.40547 9.67806 1.89254 9.30014 2.11349 8.33741L2.39363 7.11611C2.44492 6.88537 2.35417 6.56314 2.18846 6.39605L1.20995 5.40946C0.633898 4.82865 0.819341 4.23987 1.62424 4.10461L2.88288 3.89377C3.092 3.85797 3.34452 3.67099 3.43921 3.47606L4.13363 2.07574C4.51241 1.3159 5.12792 1.3159 5.50275 2.07574Z" fill="#F5C563" stroke="#F5C563" stroke-width="0.591904" stroke-linecap="round" stroke-linejoin="round"/>
</g>
<defs>
<clipPath id="clip0_6320_7187">
<rect width="9.47046" height="9.47046" fill="white" transform="translate(0.0859375 0.716797)"/>
</clipPath>
</defs>
</svg>
