<svg width="28" height="28" viewBox="0 0 28 28" fill="none" xmlns="http://www.w3.org/2000/svg">
<path d="M18.668 16.334C18.668 17.3005 19.4515 18.084 20.418 18.084C21.3845 18.084 22.168 17.3005 22.168 16.334C22.168 15.3675 21.3845 14.584 20.418 14.584C19.4515 14.584 18.668 15.3675 18.668 16.334Z" stroke="#7E87EF" stroke-width="1.75"/>
<path d="M11.6693 8.16667H18.6693C21.9691 8.16667 23.619 8.16667 24.6441 9.19179C25.6693 10.2169 25.6693 11.8668 25.6693 15.1667V17.5C25.6693 20.7998 25.6693 22.4497 24.6441 23.4749C23.619 24.5 21.9691 24.5 18.6693 24.5H11.6693C7.2695 24.5 5.06961 24.5 3.70277 23.1332C2.33594 21.7663 2.33594 19.5664 2.33594 15.1667V12.8333C2.33594 8.43356 2.33594 6.23367 3.70277 4.86684C5.06961 3.5 7.2695 3.5 11.6693 3.5H16.3359C17.4209 3.5 17.9634 3.5 18.4085 3.61926C19.6163 3.94289 20.5597 4.88631 20.8833 6.09413C21.0026 6.53922 21.0026 7.0817 21.0026 8.16667" stroke="#7E87EF" stroke-width="1.75" stroke-linecap="round"/>
</svg>
