<svg width="330" height="270" viewBox="0 0 330 270" fill="none" xmlns="http://www.w3.org/2000/svg">

<path fill-rule="evenodd" clip-rule="evenodd" d="M136 105.5C100.637 107.783 98.7834 109.652 96.5 145C94.2166 109.637 92.3483 107.783 57 105.5C92.3632 103.217 94.2166 101.348 96.5 66C98.7834 101.363 100.652 103.217 136 105.5Z" fill="#F8F8F8" fill-opacity="0.8" style="mix-blend-mode:plus-lighter"/>
<path fill-rule="evenodd" clip-rule="evenodd" d="M258 185C239.199 186.214 238.214 187.207 237 206C235.786 187.199 234.793 186.214 216 185C234.801 183.786 235.786 182.793 237 164C238.214 182.801 239.207 183.786 258 185Z" fill="#F8F8F8" fill-opacity="0.8" style="mix-blend-mode:plus-lighter"/>
<g filter="url(#filter0_f_7097_10046)">
<path fill-rule="evenodd" clip-rule="evenodd" d="M232 224.5C217.228 225.454 216.454 226.234 215.5 241C214.546 226.228 213.766 225.454 199 224.5C213.772 223.546 214.546 222.766 215.5 208C216.454 222.772 217.234 223.546 232 224.5Z" fill="#DEDEDE" fill-opacity="0.5" style="mix-blend-mode:plus-lighter"/>
</g>
<g filter="url(#filter1_f_7097_10046)">
<path fill-rule="evenodd" clip-rule="evenodd" d="M119.5 214.75C103.609 215.776 102.776 216.616 101.75 232.5C100.724 216.609 99.8844 215.776 84 214.75C99.891 213.724 100.724 212.884 101.75 197C102.776 212.891 103.616 213.724 119.5 214.75Z" fill="#DEDEDE" fill-opacity="0.5" style="mix-blend-mode:plus-lighter"/>
</g>
<g filter="url(#filter2_f_7097_10046)">
<path fill-rule="evenodd" clip-rule="evenodd" d="M278.5 131.25C250.523 133.056 249.056 134.535 247.25 162.5C245.444 134.523 243.965 133.056 216 131.25C243.977 129.444 245.444 127.965 247.25 100C249.056 127.977 250.535 129.444 278.5 131.25Z" fill="#DEDEDE" fill-opacity="0.5" style="mix-blend-mode:plus-lighter"/>
</g>
<g filter="url(#filter3_f_7097_10046)">
<path fill-rule="evenodd" clip-rule="evenodd" d="M243 72C196.446 75.006 194.006 77.4655 191 124C187.994 77.4459 185.535 75.006 139 72C185.554 68.994 187.994 66.5345 191 20C194.006 66.5541 196.465 68.994 243 72Z" fill="#DEDEDE" fill-opacity="0.5" style="mix-blend-mode:plus-lighter"/>
</g>
<g filter="url(#filter4_d_7097_10046)">
<path fill-rule="evenodd" clip-rule="evenodd" d="M198.828 102.774C199.762 100.906 199.005 98.6347 197.137 97.7008C195.27 96.7669 192.998 97.524 192.064 99.3918L182.283 118.954C180.181 117.888 177.825 117.273 175.324 117.258C170.085 104.09 150.21 104.094 144.98 117.271C135.317 117.39 127.456 126.584 128.837 136.211C123.806 138.244 120.021 142.708 118.902 148.143C118.769 148.169 118.637 148.196 118.506 148.224C116.734 148.612 114.903 149.332 113.458 150.762C110.384 153.804 110.687 158.235 111.721 162.404C113.718 170.45 117.607 175.531 122.121 179.745C123.996 181.495 126.014 183.126 127.969 184.706L127.973 184.709C128.294 184.969 128.614 185.228 128.931 185.485C131.046 187.201 133.119 188.927 135.137 190.903C135.101 191.009 135.054 191.138 134.992 191.291C134.877 191.578 134.743 191.881 134.577 192.253L134.555 192.303L134.555 192.304L134.554 192.304L134.554 192.304C134.403 192.642 134.223 193.047 134.059 193.453C133.744 194.23 133.283 195.482 133.282 196.868C133.28 198.664 133.715 200.348 134.696 201.781C135.668 203.201 136.979 204.086 138.25 204.633C140.617 205.65 143.365 205.697 145.103 205.697H175.206C176.944 205.697 179.692 205.65 182.059 204.633C183.331 204.086 184.642 203.201 185.613 201.781C186.594 200.348 187.029 198.664 187.028 196.868C187.027 195.449 186.547 194.186 186.217 193.401C186.046 192.994 185.859 192.59 185.705 192.257L185.681 192.206C185.51 191.838 185.375 191.545 185.26 191.267C185.207 191.141 185.166 191.033 185.133 190.942C187.163 188.95 189.25 187.212 191.378 185.485C191.695 185.228 192.013 184.971 192.334 184.711L192.338 184.708L192.34 184.706L192.341 184.706C194.295 183.126 196.313 181.495 198.188 179.745C202.703 175.531 206.591 170.45 208.588 162.404C209.623 158.235 209.926 153.804 206.852 150.762C205.407 149.332 203.576 148.612 201.803 148.224C201.671 148.195 201.537 148.168 201.401 148.142C200.472 143.729 197.751 140.073 194.174 137.758L218.518 108.545C219.855 106.941 219.638 104.557 218.034 103.22C216.429 101.883 214.045 102.1 212.708 103.704L191.025 129.724C190.44 127.597 189.439 125.597 188.111 123.848C188.36 123.585 188.575 123.281 188.745 122.941L198.828 102.774ZM126.955 147.718H193.307C191.296 143.637 186.198 141.41 181.844 143.325C179.933 144.166 177.701 143.298 176.86 141.387C176.019 139.475 176.887 137.244 178.799 136.403C180.499 135.655 182.245 135.234 183.98 135.103C184.746 129.373 179.347 123.708 173.38 125.028C172.373 125.251 171.32 125.053 170.462 124.48C169.605 123.908 169.019 123.01 168.839 121.995C167.37 113.699 156.253 112.727 152.524 119.08C154.744 120.229 156.663 121.87 158.144 123.854C159.393 125.528 159.048 127.897 157.374 129.146C155.701 130.395 153.331 130.051 152.083 128.377C150.828 126.696 149.009 125.488 146.93 125.028C140.304 123.562 134.122 130.925 136.968 137.36C137.455 138.46 137.389 139.726 136.791 140.77C136.193 141.813 135.134 142.51 133.939 142.647C130.852 142.999 128.231 144.973 126.955 147.718ZM119.061 160.582C118.604 158.742 118.514 157.567 118.58 156.848C118.611 156.511 118.671 156.331 118.705 156.251C118.735 156.182 118.757 156.157 118.777 156.137C118.83 156.085 119.129 155.829 120.121 155.613C121.114 155.396 122.501 155.281 124.417 155.281H195.893C197.808 155.281 199.196 155.396 200.188 155.613C201.181 155.829 201.479 156.085 201.532 156.137C201.553 156.157 201.575 156.182 201.604 156.251C201.639 156.331 201.699 156.511 201.73 156.848C201.795 157.567 201.705 158.742 201.248 160.582C199.689 166.866 196.764 170.73 193.028 174.217C191.366 175.768 189.584 177.21 187.618 178.799L187.617 178.8C187.288 179.066 186.953 179.337 186.613 179.613C184.287 181.5 181.782 183.581 179.306 186.07C177.955 187.429 177.421 189.082 177.449 190.682C177.474 192.091 177.932 193.341 178.277 194.17C178.459 194.609 178.657 195.037 178.819 195.386L178.819 195.386L178.821 195.389C178.995 195.764 179.129 196.054 179.245 196.328C179.397 196.69 179.446 196.873 179.461 196.928L179.461 196.929L179.461 196.929L179.465 196.941C179.46 197.189 179.429 197.34 179.408 197.417C179.396 197.46 179.386 197.484 179.38 197.495C179.378 197.501 179.376 197.505 179.375 197.507L179.374 197.508L179.373 197.509L179.373 197.509L179.371 197.511C179.37 197.513 179.366 197.516 179.361 197.521L179.353 197.528C179.349 197.531 179.345 197.534 179.34 197.538C179.302 197.567 179.221 197.621 179.071 197.685C178.751 197.823 178.255 197.951 177.539 198.033C176.833 198.114 176.054 198.135 175.206 198.135H145.103C144.255 198.135 143.477 198.114 142.771 198.033C142.054 197.951 141.558 197.823 141.238 197.685C141.089 197.621 141.007 197.567 140.969 197.538C140.959 197.53 140.952 197.524 140.947 197.52C140.944 197.517 140.942 197.515 140.941 197.514C140.94 197.513 140.939 197.512 140.938 197.511L140.936 197.509L140.936 197.509L140.936 197.508L140.935 197.507C140.934 197.505 140.932 197.501 140.929 197.495C140.924 197.484 140.914 197.46 140.902 197.417C140.88 197.34 140.849 197.188 140.845 196.937L140.849 196.92C140.865 196.86 140.916 196.669 141.069 196.291C141.183 196.009 141.315 195.712 141.484 195.333L141.484 195.332C141.643 194.977 141.835 194.547 142.011 194.106C142.568 192.717 143.934 189.017 141.003 186.07C138.527 183.581 136.022 181.5 133.697 179.613C133.358 179.338 133.025 179.069 132.697 178.804L132.692 178.8L132.692 178.799L132.692 178.799C130.726 177.209 128.943 175.768 127.281 174.217C123.546 170.73 120.621 166.866 119.061 160.582Z" fill="url(#paint0_radial_7097_10046)"/>
</g>
<defs>
<filter id="filter0_f_7097_10046" x="194.5" y="203.5" width="42" height="42" filterUnits="userSpaceOnUse" color-interpolation-filters="sRGB">
<feFlood flood-opacity="0" result="BackgroundImageFix"/>
<feBlend mode="normal" in="SourceGraphic" in2="BackgroundImageFix" result="shape"/>
<feGaussianBlur stdDeviation="2.25" result="effect1_foregroundBlur_7097_10046"/>
</filter>
<filter id="filter1_f_7097_10046" x="80.7727" y="193.773" width="41.9545" height="41.9545" filterUnits="userSpaceOnUse" color-interpolation-filters="sRGB">
<feFlood flood-opacity="0" result="BackgroundImageFix"/>
<feBlend mode="normal" in="SourceGraphic" in2="BackgroundImageFix" result="shape"/>
<feGaussianBlur stdDeviation="1.61364" result="effect1_foregroundBlur_7097_10046"/>
</filter>
<filter id="filter2_f_7097_10046" x="210.318" y="94.3182" width="73.8636" height="73.8636" filterUnits="userSpaceOnUse" color-interpolation-filters="sRGB">
<feFlood flood-opacity="0" result="BackgroundImageFix"/>
<feBlend mode="normal" in="SourceGraphic" in2="BackgroundImageFix" result="shape"/>
<feGaussianBlur stdDeviation="2.84091" result="effect1_foregroundBlur_7097_10046"/>
</filter>
<filter id="filter3_f_7097_10046" x="119.55" y="0.549999" width="142.9" height="142.9" filterUnits="userSpaceOnUse" color-interpolation-filters="sRGB">
<feFlood flood-opacity="0" result="BackgroundImageFix"/>
<feBlend mode="normal" in="SourceGraphic" in2="BackgroundImageFix" result="shape"/>
<feGaussianBlur stdDeviation="9.725" result="effect1_foregroundBlur_7097_10046"/>
</filter>
<filter id="filter4_d_7097_10046" x="111" y="97.3008" width="110.395" height="110.896" filterUnits="userSpaceOnUse" color-interpolation-filters="sRGB">
<feFlood flood-opacity="0" result="BackgroundImageFix"/>
<feColorMatrix in="SourceAlpha" type="matrix" values="0 0 0 0 0 0 0 0 0 0 0 0 0 0 0 0 0 0 127 0" result="hardAlpha"/>
<feOffset dx="2" dy="2.5"/>
<feComposite in2="hardAlpha" operator="out"/>
<feColorMatrix type="matrix" values="0 0 0 0 0.0392928 0 0 0 0 0.127311 0 0 0 0 0.024623 0 0 0 1 0"/>
<feBlend mode="normal" in2="BackgroundImageFix" result="effect1_dropShadow_7097_10046"/>
<feBlend mode="normal" in="SourceGraphic" in2="effect1_dropShadow_7097_10046" result="shape"/>
</filter>
<radialGradient id="paint0_radial_7097_10046" cx="0" cy="0" r="1" gradientUnits="userSpaceOnUse" gradientTransform="translate(165.375 97.3008) rotate(90.0937) scale(108.397 108.396)">
<stop stop-color="#97EBAD"/>
<stop offset="1" stop-color="#439258"/>
</radialGradient>
</defs>
</svg>
