<svg width="21" height="21" viewBox="0 0 21 21" fill="none" xmlns="http://www.w3.org/2000/svg">
<g id="search-02">
<g id="elements">
<path id="Vector" d="M11.8984 11.9004L13.6484 13.6504" stroke="#7E87EF" stroke-width="1.3" stroke-linejoin="round"/>
<path id="Rectangle 2244" d="M13.6041 15.0674C13.1997 14.6631 13.1997 14.0074 13.6041 13.6031C14.0084 13.1987 14.664 13.1987 15.0684 13.6031L17.1975 15.7322C17.6019 16.1365 17.6019 16.7922 17.1975 17.1965C16.7931 17.6009 16.1375 17.6009 15.7332 17.1965L13.6041 15.0674Z" stroke="#7E87EF" stroke-width="1.3" stroke-linecap="round"/>
<path id="Vector_2" d="M13.3 8.4C13.3 5.6938 11.1062 3.5 8.4 3.5C5.6938 3.5 3.5 5.6938 3.5 8.4C3.5 11.1062 5.6938 13.3 8.4 13.3C11.1062 13.3 13.3 11.1062 13.3 8.4Z" stroke="#7E87EF" stroke-width="1.3" stroke-linejoin="round"/>
</g>
</g>
</svg>
