<svg width="36" height="35" viewBox="0 0 36 35" fill="none" xmlns="http://www.w3.org/2000/svg">
<g clip-path="url(#clip0_5971_6170)">
<path fill-rule="evenodd" clip-rule="evenodd" d="M7.89914 4.76349C9.08984 4.80734 11.5817 4.96329 12.0268 5.23944C11.9829 4.94055 11.8514 4.27453 11.6662 4.0065C10.6915 3.99838 8.67562 3.99513 8.41408 4.05036C8.24677 4.18032 7.91051 4.50358 7.90077 4.76349H7.89914ZM31.1365 11.5796C29.7281 11.4447 26.5069 11.2547 24.8825 11.5796C24.0426 12.3105 22.2184 14.1137 21.6336 15.4782L24.4764 15.8031C23.3929 15.9931 21.0976 16.4366 20.5778 16.6965C19.928 17.0214 16.1106 19.9453 15.8669 20.4327C15.672 20.8225 15.0823 23.3566 14.8111 24.5749L14.3237 20.7575C13.5391 20.3514 11.9033 19.458 11.6434 19.1331C11.3835 18.8082 9.36924 13.6913 8.39459 11.1735L9.36924 9.87391L8.88192 9.0617L9.61291 9.46781L10.1815 8.73682L8.88192 7.43728L10.8312 8.57438L11.0749 7.27484L9.36924 6.21897L11.481 7.1124L11.6434 5.48798C10.6964 5.2167 8.5083 4.7245 7.33872 4.91943C6.55412 6.38141 4.96706 9.61401 4.90209 10.8486C4.82086 12.3918 6.1204 25.1435 6.36406 25.7932C6.60773 26.443 10.2627 30.6665 11.0749 30.6665C11.7247 30.6665 13.5115 29.6919 14.3237 29.2045L13.2679 30.6665C14.7575 30.8013 17.8162 31.0564 18.1411 30.9914C18.5472 30.9102 25.9383 25.712 26.2632 25.1435C26.5231 24.6886 27.0218 21.5974 27.2379 20.1078C27.4279 20.9476 27.8064 22.6744 27.8064 22.8693C27.8064 23.1129 30.5679 20.92 30.7304 20.7575C30.8928 20.5951 31.3802 12.3105 31.1365 11.5796Z" fill="white"/>
<path fill-rule="evenodd" clip-rule="evenodd" d="M24.4909 12.0169C20.6166 12.2671 20.4136 12.4717 20.1634 16.3444C19.9132 12.4701 19.7086 12.2671 15.8359 12.0169C19.7102 11.7668 19.9132 11.5621 20.1634 7.68945C20.4136 11.5637 20.6182 11.7668 24.4909 12.0169Z" fill="white"/>
<path fill-rule="evenodd" clip-rule="evenodd" d="M25.097 9.57779C23.1607 9.70287 23.0583 9.80521 22.9333 11.7415C22.8082 9.80521 22.7058 9.70287 20.7695 9.57779C22.7058 9.45271 22.8082 9.35037 22.9333 7.41406C23.0583 9.35037 23.1607 9.45271 25.097 9.57779Z" fill="white"/>
</g>
<defs>
<clipPath id="clip0_5971_6170">
<rect width="26.3043" height="27.0011" fill="white" transform="translate(4.89844 4.00195)"/>
</clipPath>
</defs>
</svg>
