<svg width="28" height="27" viewBox="0 0 28 27" fill="none" xmlns="http://www.w3.org/2000/svg">
<path fill-rule="evenodd" clip-rule="evenodd" d="M3.89914 0.763485C5.08984 0.807345 7.58171 0.963289 8.0268 1.23944C7.98294 0.940547 7.85136 0.274534 7.66618 0.00650484C6.69152 -0.00161727 4.67562 -0.00486611 4.41408 0.0503642C4.24677 0.180318 3.91051 0.503578 3.90077 0.763485H3.89914ZM27.1365 7.57956C25.7281 7.44473 22.5069 7.25467 20.8825 7.57956C20.0426 8.31055 18.2184 10.1137 17.6336 11.4782L20.4764 11.8031C19.3929 11.9931 17.0976 12.4366 16.5778 12.6965C15.928 13.0214 12.1106 15.9453 11.8669 16.4327C11.672 16.8225 11.0823 19.3566 10.8111 20.5749L10.3237 16.7575C9.53913 16.3514 7.90334 15.458 7.64343 15.1331C7.38353 14.8082 5.36924 9.69131 4.39459 7.17345L5.36924 5.87391L4.88192 5.0617L5.61291 5.46781L6.18146 4.73682L4.88192 3.43728L6.83122 4.57438L7.07489 3.27484L5.36924 2.21897L7.48099 3.1124L7.64343 1.48798C6.6964 1.2167 4.5083 0.724499 3.33872 0.91943C2.55412 2.38141 0.967062 5.61401 0.902085 6.84857C0.820864 8.39177 2.1204 21.1435 2.36406 21.7932C2.60773 22.443 6.26268 26.6665 7.07489 26.6665C7.72466 26.6665 9.51152 25.6919 10.3237 25.2045L9.26786 26.6665C10.7575 26.8013 13.8162 27.0564 14.1411 26.9914C14.5472 26.9102 21.9383 21.712 22.2632 21.1435C22.5231 20.6886 23.0218 17.5974 23.2379 16.1078C23.4279 16.9476 23.8064 18.6744 23.8064 18.8693C23.8064 19.1129 26.5679 16.92 26.7304 16.7575C26.8928 16.5951 27.3802 8.31055 27.1365 7.57956Z" fill="white"/>
</svg>
