<svg width="35" height="35" viewBox="0 0 35 35" fill="none" xmlns="http://www.w3.org/2000/svg">
<path id="Union" fill-rule="evenodd" clip-rule="evenodd" d="M13.0238 19.3549C11.1238 19.7306 8.67155 19.9321 5.4871 20.1393C5.84096 17.4363 6.70406 17.222 10.6061 16.97C5.86041 16.6635 5.60959 16.4146 5.30303 11.667C4.99647 16.4126 4.74765 16.6635 0 16.97C4.74566 17.2766 4.99647 17.5254 5.30303 22.2731C5.3569 21.4391 5.40899 20.744 5.48401 20.163C18.597 21.0162 19.2968 21.767 20.1512 34.9997C21.0096 21.7119 21.7063 21.0096 34.9997 20.1512C23.5113 19.4091 21.4306 18.7878 20.523 10.0421C21.2435 9.97916 22.0382 9.92354 22.9154 9.86689C22.0237 9.80929 21.2172 9.75278 20.4874 9.68863C20.3616 8.40392 20.2576 6.95004 20.1512 5.30273C20.0465 6.92314 19.9443 8.35639 19.8213 9.62558C13.9599 9.02608 13.5432 7.66088 13.0485 0C12.4781 8.82983 12.0152 9.29651 3.18164 9.86689C11.8835 10.429 12.4629 10.8868 13.0238 19.3549ZM13.074 19.3449C17.8742 18.383 19.1239 16.2876 19.7721 10.1133C14.0549 10.7057 13.5577 12.0498 13.074 19.3449Z" fill="url(#paint0_linear_1797_1852)"/>
<defs>
<linearGradient id="paint0_linear_1797_1852" x1="17.4998" y1="0" x2="17.4998" y2="34.9997" gradientUnits="userSpaceOnUse">
<stop stop-color="#FFEEB1"/>
<stop offset="1" stop-color="#5B4A10"/>
</linearGradient>
</defs>
</svg>
