<svg width="139" height="78" viewBox="0 0 139 78" fill="none" xmlns="http://www.w3.org/2000/svg">
<g opacity="0.13">
<path fill-rule="evenodd" clip-rule="evenodd" d="M171.386 39C171.386 86.1572 133.157 124.386 86 124.386C38.8428 124.386 0.614286 86.1572 0.614286 39C0.614286 -8.15723 38.8428 -46.3857 86 -46.3857C133.157 -46.3857 171.386 -8.15723 171.386 39ZM172 39C172 86.4965 133.496 125 86 125C38.5035 125 0 86.4965 0 39C0 -8.49649 38.5035 -47 86 -47C133.496 -47 172 -8.49649 172 39ZM85.9917 113.738C127.268 113.738 160.73 80.2766 160.73 38.9999C160.73 -2.27684 127.268 -35.7382 85.9917 -35.7382C44.715 -35.7382 11.2536 -2.27684 11.2536 38.9999C11.2536 80.2766 44.715 113.738 85.9917 113.738ZM85.9917 114.762C127.834 114.762 161.754 80.842 161.754 38.9999C161.754 -2.84228 127.834 -36.762 85.9917 -36.762C44.1496 -36.762 10.2298 -2.84228 10.2298 38.9999C10.2298 80.842 44.1496 114.762 85.9917 114.762ZM86.0046 104.524C122.192 104.524 151.528 75.1884 151.528 39.0006C151.528 2.81278 122.192 -26.5232 86.0046 -26.5232C49.8168 -26.5232 20.4808 2.81278 20.4808 39.0006C20.4808 75.1884 49.8168 104.524 86.0046 104.524ZM86.0046 106.572C123.323 106.572 153.576 76.3192 153.576 39.0006C153.576 1.68191 123.323 -28.5708 86.0046 -28.5708C48.686 -28.5708 18.4332 1.68191 18.4332 39.0006C18.4332 76.3192 48.686 106.572 86.0046 106.572ZM87.0321 90.9637C115.165 90.9637 137.972 68.1572 137.972 40.0239C137.972 11.8907 115.165 -10.9158 87.0321 -10.9158C58.8988 -10.9158 36.0923 11.8907 36.0923 40.0239C36.0923 68.1572 58.8988 90.9637 87.0321 90.9637ZM87.0321 94.2858C117 94.2858 141.294 69.992 141.294 40.0239C141.294 10.0559 117 -14.238 87.0321 -14.238C57.064 -14.238 32.7702 10.0559 32.7702 40.0239C32.7702 69.992 57.064 94.2858 87.0321 94.2858ZM120.811 40.024C120.811 58.6833 105.685 73.8097 87.0254 73.8097C68.366 73.8097 53.2396 58.6833 53.2396 40.024C53.2396 21.3647 68.366 6.23829 87.0254 6.23829C105.685 6.23829 120.811 21.3647 120.811 40.024ZM124.906 40.024C124.906 60.9451 107.946 77.905 87.0254 77.905C66.1043 77.905 49.1444 60.9451 49.1444 40.024C49.1444 19.1029 66.1043 2.14305 87.0254 2.14305C107.946 2.14305 124.906 19.1029 124.906 40.024Z" fill="white" fill-opacity="0.23" style="mix-blend-mode:lighten"/>
<path fill-rule="evenodd" clip-rule="evenodd" d="M171.386 39C171.386 86.1572 133.157 124.386 86 124.386C38.8428 124.386 0.614286 86.1572 0.614286 39C0.614286 -8.15723 38.8428 -46.3857 86 -46.3857C133.157 -46.3857 171.386 -8.15723 171.386 39ZM172 39C172 86.4965 133.496 125 86 125C38.5035 125 0 86.4965 0 39C0 -8.49649 38.5035 -47 86 -47C133.496 -47 172 -8.49649 172 39ZM85.9917 113.738C127.268 113.738 160.73 80.2766 160.73 38.9999C160.73 -2.27684 127.268 -35.7382 85.9917 -35.7382C44.715 -35.7382 11.2536 -2.27684 11.2536 38.9999C11.2536 80.2766 44.715 113.738 85.9917 113.738ZM85.9917 114.762C127.834 114.762 161.754 80.842 161.754 38.9999C161.754 -2.84228 127.834 -36.762 85.9917 -36.762C44.1496 -36.762 10.2298 -2.84228 10.2298 38.9999C10.2298 80.842 44.1496 114.762 85.9917 114.762ZM86.0046 104.524C122.192 104.524 151.528 75.1884 151.528 39.0006C151.528 2.81278 122.192 -26.5232 86.0046 -26.5232C49.8168 -26.5232 20.4808 2.81278 20.4808 39.0006C20.4808 75.1884 49.8168 104.524 86.0046 104.524ZM86.0046 106.572C123.323 106.572 153.576 76.3192 153.576 39.0006C153.576 1.68191 123.323 -28.5708 86.0046 -28.5708C48.686 -28.5708 18.4332 1.68191 18.4332 39.0006C18.4332 76.3192 48.686 106.572 86.0046 106.572ZM87.0321 90.9637C115.165 90.9637 137.972 68.1572 137.972 40.0239C137.972 11.8907 115.165 -10.9158 87.0321 -10.9158C58.8988 -10.9158 36.0923 11.8907 36.0923 40.0239C36.0923 68.1572 58.8988 90.9637 87.0321 90.9637ZM87.0321 94.2858C117 94.2858 141.294 69.992 141.294 40.0239C141.294 10.0559 117 -14.238 87.0321 -14.238C57.064 -14.238 32.7702 10.0559 32.7702 40.0239C32.7702 69.992 57.064 94.2858 87.0321 94.2858ZM120.811 40.024C120.811 58.6833 105.685 73.8097 87.0254 73.8097C68.366 73.8097 53.2396 58.6833 53.2396 40.024C53.2396 21.3647 68.366 6.23829 87.0254 6.23829C105.685 6.23829 120.811 21.3647 120.811 40.024ZM124.906 40.024C124.906 60.9451 107.946 77.905 87.0254 77.905C66.1043 77.905 49.1444 60.9451 49.1444 40.024C49.1444 19.1029 66.1043 2.14305 87.0254 2.14305C107.946 2.14305 124.906 19.1029 124.906 40.024Z" fill="#545454" style="mix-blend-mode:color-dodge"/>
</g>
</svg>
