<svg xmlns="http://www.w3.org/2000/svg" width="90" height="12" viewBox="0 0 90 12" fill="none">
  <mask id="path-1-outside-1_2079_8103" maskUnits="userSpaceOnUse" x="-0.09375" y="-0.25" width="90" height="12" fill="black">
    <rect fill="white" x="-0.09375" y="-0.25" width="90" height="12"/>
    <path d="M5.65485 1.50051C5.86743 1.07533 5.97373 0.862743 6.11757 0.794524C6.24274 0.735158 6.38796 0.735159 6.51313 0.794525C6.65696 0.862744 6.76326 1.07533 6.97585 1.50051L7.98183 3.51248C8.04747 3.64376 8.08029 3.7094 8.12831 3.75966C8.17081 3.80414 8.22178 3.83968 8.27821 3.86419C8.34197 3.89187 8.41491 3.89997 8.56078 3.91618L10.713 4.15531C11.2226 4.21193 11.4774 4.24024 11.5925 4.35772C11.6926 4.45982 11.7397 4.60252 11.7201 4.74412C11.6975 4.90707 11.5096 5.08151 11.1339 5.4304L9.43906 7.00418C9.31081 7.12327 9.24669 7.18282 9.20963 7.25498C9.17687 7.31876 9.15942 7.38929 9.15867 7.46099C9.15782 7.5421 9.18679 7.62467 9.24474 7.78982L10.0194 9.99763C10.2082 10.5356 10.3026 10.8046 10.2399 10.9642C10.1855 11.1027 10.0677 11.2065 9.92352 11.243C9.75725 11.2851 9.50229 11.1576 8.99234 10.9026L6.6456 9.72925C6.52451 9.6687 6.46396 9.63843 6.40045 9.62651C6.34421 9.61596 6.28649 9.61596 6.23024 9.62651C6.16673 9.63843 6.10619 9.6687 5.9851 9.72925L3.63834 10.9026C3.1284 11.1576 2.87343 11.2851 2.70717 11.243C2.56295 11.2065 2.44518 11.1027 2.39081 10.9642C2.32813 10.8046 2.42252 10.5356 2.61128 9.99763L3.38595 7.78982C3.44389 7.62467 3.47287 7.5421 3.47202 7.46099C3.47126 7.38929 3.45382 7.31876 3.42106 7.25498C3.384 7.18282 3.31987 7.12327 3.19162 7.00418L1.49678 5.4304C1.12105 5.08151 0.933192 4.90707 0.91062 4.74412C0.891004 4.60252 0.938113 4.45982 1.03818 4.35772C1.15333 4.24024 1.40812 4.21193 1.91771 4.15531L4.0699 3.91618C4.21578 3.89997 4.28872 3.89187 4.35247 3.86419C4.40891 3.83968 4.45988 3.80414 4.50238 3.75966C4.5504 3.7094 4.58322 3.64376 4.64885 3.51249L5.65485 1.50051Z"/>
    <path d="M16.1142 8.15382V6.93507H18.3642C18.9071 6.93507 19.329 6.79639 19.6298 6.51905C19.9306 6.2378 20.081 5.84327 20.081 5.33546V5.32374C20.081 4.81202 19.9306 4.41749 19.6298 4.14014C19.329 3.8628 18.9071 3.72413 18.3642 3.72413H16.1142V2.49366H18.7333C19.3075 2.49366 19.8095 2.61085 20.2392 2.84522C20.6689 3.0796 21.0048 3.40967 21.247 3.83546C21.4892 4.25733 21.6103 4.75147 21.6103 5.31788V5.3296C21.6103 5.8921 21.4892 6.38624 21.247 6.81202C21.0048 7.23389 20.6689 7.56397 20.2392 7.80225C19.8095 8.03663 19.3075 8.15382 18.7333 8.15382H16.1142ZM15.3583 10.9487V2.49366H16.87V10.9487H15.3583Z"/>
    <path d="M25.3342 11.0776C24.6975 11.0776 24.1507 10.9429 23.6936 10.6733C23.2405 10.4038 22.8909 10.021 22.6448 9.52491C22.3987 9.02882 22.2757 8.44093 22.2757 7.76124V7.75538C22.2757 7.0835 22.3967 6.49757 22.6389 5.99757C22.885 5.49757 23.2327 5.11085 23.6819 4.83741C24.1311 4.56007 24.6585 4.42139 25.2639 4.42139C25.8733 4.42139 26.3967 4.55616 26.8342 4.82569C27.2757 5.09132 27.6155 5.46436 27.8538 5.94483C28.0921 6.4253 28.2112 6.9878 28.2112 7.63233V8.1128H23.0081V7.13428H27.4964L27 7.5L26.805 7.46827C26.805 7.04249 26.7405 6.68897 26.6116 6.40772C26.4827 6.12647 26.303 5.91553 26.0725 5.77491C25.846 5.63428 25.5823 5.56397 25.2815 5.56397C24.9807 5.56397 24.7132 5.63819 24.4788 5.78663C24.2483 5.93116 24.0647 6.146 23.928 6.43116C23.7952 6.71241 23.7288 7.05811 23.7288 7.46827V8.05421C23.7288 8.44874 23.7952 8.78663 23.928 9.06788C24.0608 9.34522 24.2483 9.56007 24.4905 9.71241C24.7366 9.86085 25.0276 9.93507 25.3635 9.93507C25.6253 9.93507 25.8499 9.89796 26.0374 9.82374C26.2288 9.74561 26.3831 9.65382 26.5003 9.54835C26.6175 9.43897 26.6995 9.33546 26.7464 9.2378L26.7639 9.19678H28.1467L28.135 9.24952C28.0842 9.45655 27.9905 9.66749 27.8538 9.88233C27.721 10.0933 27.5393 10.2905 27.3089 10.4741C27.0823 10.6538 26.805 10.8003 26.4768 10.9136C26.1487 11.023 25.7678 11.0776 25.3342 11.0776Z"/>
    <path d="M29.3102 10.9487V4.54444H30.7692V5.52882H30.8688C30.9782 5.18507 31.1735 4.91749 31.4547 4.72608C31.7399 4.53467 32.0934 4.43897 32.5153 4.43897C32.6246 4.43897 32.7321 4.44678 32.8375 4.46241C32.9469 4.47413 33.0368 4.48975 33.1071 4.50928V5.81593C32.9899 5.78858 32.8707 5.76905 32.7496 5.75733C32.6325 5.74171 32.5094 5.73389 32.3805 5.73389C32.0563 5.73389 31.7731 5.79444 31.5309 5.91553C31.2887 6.03663 31.1012 6.21046 30.9684 6.43702C30.8356 6.65968 30.7692 6.92335 30.7692 7.22803V10.9487H29.3102Z"/>
    <path d="M34.6924 10.9487V5.6753H33.6435V4.54444H34.6924V3.91163C34.6924 3.48194 34.7646 3.12647 34.9092 2.84522C35.0576 2.56397 35.2861 2.35499 35.5947 2.21827C35.9033 2.07764 36.2939 2.00733 36.7666 2.00733C36.9228 2.00733 37.0674 2.01319 37.2002 2.02491C37.333 2.03272 37.456 2.04639 37.5693 2.06593V3.08546C37.5146 3.07764 37.4443 3.07178 37.3584 3.06788C37.2725 3.06007 37.1787 3.05616 37.0771 3.05616C36.7334 3.05616 36.4893 3.13624 36.3447 3.29639C36.2002 3.45264 36.1279 3.68507 36.1279 3.99366V4.54444H37.5166V5.6753H36.1514V10.9487H34.6924Z"/>
    <path d="M41.0707 11.0776C40.4339 11.0776 39.8871 10.9429 39.43 10.6733C38.9769 10.4038 38.6273 10.021 38.3812 9.52491C38.1351 9.02882 38.0121 8.44093 38.0121 7.76124V7.75538C38.0121 7.0835 38.1332 6.49757 38.3753 5.99757C38.6214 5.49757 38.9691 5.11085 39.4183 4.83741C39.8675 4.56007 40.3949 4.42139 41.0003 4.42139C41.6097 4.42139 42.1332 4.55616 42.5707 4.82569C43.0121 5.09132 43.3519 5.46436 43.5902 5.94483C43.8285 6.4253 43.9476 6.9878 43.9476 7.63233V8.1128H38.7445V7.13428H43.2328L42.5414 7.86978V7.46827C42.5414 7.04249 42.4769 6.68897 42.348 6.40772C42.2191 6.12647 42.0394 5.91553 41.8089 5.77491C41.5824 5.63428 41.3187 5.56397 41.0179 5.56397C40.7171 5.56397 40.4496 5.63819 40.2152 5.78663C39.9847 5.93116 39.8011 6.146 39.6644 6.43116C39.5316 6.71241 39.4652 7.05811 39.4652 7.46827V8.05421C39.4652 8.44874 39.5316 8.78663 39.6644 9.06788C39.7972 9.34522 39.9847 9.56007 40.2269 9.71241C40.473 9.86085 40.764 9.93507 41.1 9.93507C41.3617 9.93507 41.5863 9.89796 41.7738 9.82374C41.9652 9.74561 42.1195 9.65382 42.2367 9.54835C42.3539 9.43897 42.4359 9.33546 42.4828 9.2378L42.5003 9.19678H43.8832L43.8714 9.24952C43.8207 9.45655 43.7269 9.66749 43.5902 9.88233C43.4574 10.0933 43.2757 10.2905 43.0453 10.4741C42.8187 10.6538 42.5414 10.8003 42.2132 10.9136C41.8851 11.023 41.5042 11.0776 41.0707 11.0776Z"/>
    <path d="M47.7946 11.0776C47.1501 11.0776 46.5993 10.9448 46.1423 10.6792C45.6853 10.4136 45.3357 10.0308 45.0935 9.53077C44.8513 9.03077 44.7302 8.43311 44.7302 7.7378V7.72608C44.7302 7.03468 44.8513 6.44288 45.0935 5.95069C45.3357 5.4585 45.6853 5.08155 46.1423 4.81983C46.5993 4.55421 47.1482 4.42139 47.7888 4.42139C48.3396 4.42139 48.8122 4.5171 49.2067 4.7085C49.6052 4.896 49.9196 5.15772 50.1501 5.49366C50.3845 5.82569 50.529 6.21436 50.5837 6.65968V6.68311H49.2067L49.2009 6.66553C49.1345 6.35303 48.9821 6.09718 48.7439 5.89796C48.5095 5.69874 48.1931 5.59913 47.7946 5.59913C47.4626 5.59913 47.1775 5.68311 46.9392 5.85108C46.7048 6.01905 46.5251 6.26124 46.4001 6.57764C46.2751 6.89405 46.2126 7.27686 46.2126 7.72608V7.7378C46.2126 8.19093 46.2751 8.5796 46.4001 8.90382C46.529 9.22413 46.7107 9.47022 46.945 9.6421C47.1794 9.81007 47.4626 9.89405 47.7946 9.89405C48.1735 9.89405 48.4782 9.80811 48.7087 9.63624C48.9431 9.46436 49.1052 9.21046 49.195 8.87452L49.2067 8.85108L50.5778 8.84522L50.572 8.89796C50.5017 9.33155 50.3493 9.71241 50.115 10.0405C49.8845 10.3687 49.5759 10.6245 49.1892 10.8081C48.8025 10.9878 48.3376 11.0776 47.7946 11.0776Z"/>
    <path d="M54.2139 10.978C53.4796 10.978 52.9503 10.8433 52.626 10.5737C52.3018 10.3042 52.1397 9.8628 52.1397 9.24952V5.6753H51.1436V4.54444H52.1397V2.97413H53.6221V4.54444H54.9698V5.6753H53.6221V8.90382C53.6221 9.22022 53.6885 9.45264 53.8214 9.60108C53.9581 9.74561 54.1768 9.81788 54.4776 9.81788C54.5831 9.81788 54.669 9.81592 54.7354 9.81202C54.8057 9.80421 54.8839 9.79639 54.9698 9.78858V10.9136C54.8682 10.9331 54.751 10.9487 54.6182 10.9605C54.4893 10.9722 54.3546 10.978 54.2139 10.978Z"/>
    <path d="M60.8006 10.9487L58.533 2.49366H60.1033L61.5564 8.83936H61.6385L63.3084 2.49366H64.6502L66.3377 8.83936H66.4197L67.867 2.49366H69.4256L67.1639 10.9487H65.7459L64.0232 4.896H63.9353L62.2244 10.9487H60.8006Z"/>
    <path d="M72.5636 11.0776C71.9269 11.0776 71.38 10.9429 70.923 10.6733C70.4699 10.4038 70.1203 10.021 69.8742 9.52491C69.6281 9.02882 69.505 8.44093 69.505 7.76124V7.75538C69.505 7.0835 69.6261 6.49757 69.8683 5.99757C70.1144 5.49757 70.4621 5.11085 70.9113 4.83741C71.3605 4.56007 71.8878 4.42139 72.4933 4.42139C73.1027 4.42139 73.6261 4.55616 74.0636 4.82569C74.505 5.09132 74.8449 5.46436 75.0832 5.94483C75.3214 6.4253 75.4406 6.9878 75.4406 7.63233V8.1128H70.2374V7.13428H74.7257L74.0343 7.84515V7.46827C74.0343 7.04249 73.9699 6.68897 73.841 6.40772C73.7121 6.12647 73.5324 5.91553 73.3019 5.77491C73.0753 5.63428 72.8117 5.56397 72.5109 5.56397C72.2101 5.56397 71.9425 5.63819 71.7082 5.78663C71.4777 5.93116 71.2941 6.146 71.1574 6.43116C71.0246 6.71241 70.9582 7.05811 70.9582 7.46827V8.05421C70.9582 8.44874 71.0246 8.78663 71.1574 9.06788C71.2902 9.34522 71.4777 9.56007 71.7199 9.71241C71.966 9.86085 72.257 9.93507 72.5929 9.93507C72.8546 9.93507 73.0792 9.89796 73.2667 9.82374C73.4582 9.74561 73.6124 9.65382 73.7296 9.54835C73.8468 9.43897 73.9289 9.33546 73.9757 9.2378L73.9933 9.19678H75.3761L75.3644 9.24952C75.3136 9.45655 75.2199 9.66749 75.0832 9.88233C74.9503 10.0933 74.7687 10.2905 74.5382 10.4741C74.3117 10.6538 74.0343 10.8003 73.7062 10.9136C73.3781 11.023 72.9972 11.0776 72.5636 11.0776Z"/>
    <path d="M79.2818 11.0776C78.645 11.0776 78.0982 10.9429 77.6411 10.6733C77.188 10.4038 76.8384 10.021 76.5923 9.52491C76.3462 9.02882 76.2232 8.44093 76.2232 7.76124V7.75538C76.2232 7.0835 76.3443 6.49757 76.5864 5.99757C76.8325 5.49757 77.1802 5.11085 77.6294 4.83741C78.0786 4.56007 78.606 4.42139 79.2114 4.42139C79.8208 4.42139 80.3443 4.55616 80.7818 4.82569C81.2232 5.09132 81.563 5.46436 81.8013 5.94483C82.0396 6.4253 82.1587 6.9878 82.1587 7.63233V8.1128H76.9556V7.13428H81.4439L80.7525 7.88954V7.46827C80.7525 7.04249 80.688 6.68897 80.5591 6.40772C80.4302 6.12647 80.2505 5.91553 80.02 5.77491C79.7935 5.63428 79.5298 5.56397 79.229 5.56397C78.9282 5.56397 78.6607 5.63819 78.4263 5.78663C78.1958 5.93116 78.0122 6.146 77.8755 6.43116C77.7427 6.71241 77.6763 7.05811 77.6763 7.46827V8.05421C77.6763 8.44874 77.7427 8.78663 77.8755 9.06788C78.0083 9.34522 78.1958 9.56007 78.438 9.71241C78.6841 9.86085 78.9751 9.93507 79.3111 9.93507C79.5728 9.93507 79.7974 9.89796 79.9849 9.82374C80.1763 9.74561 80.3306 9.65382 80.4478 9.54835C80.565 9.43897 80.647 9.33546 80.6939 9.2378L80.7114 9.19678H82.0943L82.0825 9.24952C82.0318 9.45655 81.938 9.66749 81.8013 9.88233C81.6685 10.0933 81.4868 10.2905 81.2564 10.4741C81.0298 10.6538 80.7525 10.8003 80.4243 10.9136C80.0962 11.023 79.7153 11.0776 79.2818 11.0776Z"/>
    <path d="M83.3163 10.9487V2.06593H84.7753V10.9487H83.3163ZM87.3417 10.9487L85.1854 8.04249L86.2694 7.15186L89.0936 10.9487H87.3417ZM84.6522 8.82764L84.5995 7.1753H84.8749L87.2362 4.54444H88.9237L86.1405 7.46827L85.4725 7.98975L84.6522 8.82764Z"/>
  </mask>
  <g filter="url(#filter0_ii_2079_8103)">
    <path d="M5.65485 1.50051C5.86743 1.07533 5.97373 0.862743 6.11757 0.794524C6.24274 0.735158 6.38796 0.735159 6.51313 0.794525C6.65696 0.862744 6.76326 1.07533 6.97585 1.50051L7.98183 3.51248C8.04747 3.64376 8.08029 3.7094 8.12831 3.75966C8.17081 3.80414 8.22178 3.83968 8.27821 3.86419C8.34197 3.89187 8.41491 3.89997 8.56078 3.91618L10.713 4.15531C11.2226 4.21193 11.4774 4.24024 11.5925 4.35772C11.6926 4.45982 11.7397 4.60252 11.7201 4.74412C11.6975 4.90707 11.5096 5.08151 11.1339 5.4304L9.43906 7.00418C9.31081 7.12327 9.24669 7.18282 9.20963 7.25498C9.17687 7.31876 9.15942 7.38929 9.15867 7.46099C9.15782 7.5421 9.18679 7.62467 9.24474 7.78982L10.0194 9.99763C10.2082 10.5356 10.3026 10.8046 10.2399 10.9642C10.1855 11.1027 10.0677 11.2065 9.92352 11.243C9.75725 11.2851 9.50229 11.1576 8.99234 10.9026L6.6456 9.72925C6.52451 9.6687 6.46396 9.63843 6.40045 9.62651C6.34421 9.61596 6.28649 9.61596 6.23024 9.62651C6.16673 9.63843 6.10619 9.6687 5.9851 9.72925L3.63834 10.9026C3.1284 11.1576 2.87343 11.2851 2.70717 11.243C2.56295 11.2065 2.44518 11.1027 2.39081 10.9642C2.32813 10.8046 2.42252 10.5356 2.61128 9.99763L3.38595 7.78982C3.44389 7.62467 3.47287 7.5421 3.47202 7.46099C3.47126 7.38929 3.45382 7.31876 3.42106 7.25498C3.384 7.18282 3.31987 7.12327 3.19162 7.00418L1.49678 5.4304C1.12105 5.08151 0.933192 4.90707 0.91062 4.74412C0.891004 4.60252 0.938113 4.45982 1.03818 4.35772C1.15333 4.24024 1.40812 4.21193 1.91771 4.15531L4.0699 3.91618C4.21578 3.89997 4.28872 3.89187 4.35247 3.86419C4.40891 3.83968 4.45988 3.80414 4.50238 3.75966C4.5504 3.7094 4.58322 3.64376 4.64885 3.51249L5.65485 1.50051Z" fill="#604D1C"/>
    <path d="M16.1142 8.15382V6.93507H18.3642C18.9071 6.93507 19.329 6.79639 19.6298 6.51905C19.9306 6.2378 20.081 5.84327 20.081 5.33546V5.32374C20.081 4.81202 19.9306 4.41749 19.6298 4.14014C19.329 3.8628 18.9071 3.72413 18.3642 3.72413H16.1142V2.49366H18.7333C19.3075 2.49366 19.8095 2.61085 20.2392 2.84522C20.6689 3.0796 21.0048 3.40967 21.247 3.83546C21.4892 4.25733 21.6103 4.75147 21.6103 5.31788V5.3296C21.6103 5.8921 21.4892 6.38624 21.247 6.81202C21.0048 7.23389 20.6689 7.56397 20.2392 7.80225C19.8095 8.03663 19.3075 8.15382 18.7333 8.15382H16.1142ZM15.3583 10.9487V2.49366H16.87V10.9487H15.3583Z" fill="#604D1C"/>
    <path d="M25.3342 11.0776C24.6975 11.0776 24.1507 10.9429 23.6936 10.6733C23.2405 10.4038 22.8909 10.021 22.6448 9.52491C22.3987 9.02882 22.2757 8.44093 22.2757 7.76124V7.75538C22.2757 7.0835 22.3967 6.49757 22.6389 5.99757C22.885 5.49757 23.2327 5.11085 23.6819 4.83741C24.1311 4.56007 24.6585 4.42139 25.2639 4.42139C25.8733 4.42139 26.3967 4.55616 26.8342 4.82569C27.2757 5.09132 27.6155 5.46436 27.8538 5.94483C28.0921 6.4253 28.2112 6.9878 28.2112 7.63233V8.1128H23.0081V7.13428H27.4964L27 7.5L26.805 7.46827C26.805 7.04249 26.7405 6.68897 26.6116 6.40772C26.4827 6.12647 26.303 5.91553 26.0725 5.77491C25.846 5.63428 25.5823 5.56397 25.2815 5.56397C24.9807 5.56397 24.7132 5.63819 24.4788 5.78663C24.2483 5.93116 24.0647 6.146 23.928 6.43116C23.7952 6.71241 23.7288 7.05811 23.7288 7.46827V8.05421C23.7288 8.44874 23.7952 8.78663 23.928 9.06788C24.0608 9.34522 24.2483 9.56007 24.4905 9.71241C24.7366 9.86085 25.0276 9.93507 25.3635 9.93507C25.6253 9.93507 25.8499 9.89796 26.0374 9.82374C26.2288 9.74561 26.3831 9.65382 26.5003 9.54835C26.6175 9.43897 26.6995 9.33546 26.7464 9.2378L26.7639 9.19678H28.1467L28.135 9.24952C28.0842 9.45655 27.9905 9.66749 27.8538 9.88233C27.721 10.0933 27.5393 10.2905 27.3089 10.4741C27.0823 10.6538 26.805 10.8003 26.4768 10.9136C26.1487 11.023 25.7678 11.0776 25.3342 11.0776Z" fill="#604D1C"/>
    <path d="M29.3102 10.9487V4.54444H30.7692V5.52882H30.8688C30.9782 5.18507 31.1735 4.91749 31.4547 4.72608C31.7399 4.53467 32.0934 4.43897 32.5153 4.43897C32.6246 4.43897 32.7321 4.44678 32.8375 4.46241C32.9469 4.47413 33.0368 4.48975 33.1071 4.50928V5.81593C32.9899 5.78858 32.8707 5.76905 32.7496 5.75733C32.6325 5.74171 32.5094 5.73389 32.3805 5.73389C32.0563 5.73389 31.7731 5.79444 31.5309 5.91553C31.2887 6.03663 31.1012 6.21046 30.9684 6.43702C30.8356 6.65968 30.7692 6.92335 30.7692 7.22803V10.9487H29.3102Z" fill="#604D1C"/>
    <path d="M34.6924 10.9487V5.6753H33.6435V4.54444H34.6924V3.91163C34.6924 3.48194 34.7646 3.12647 34.9092 2.84522C35.0576 2.56397 35.2861 2.35499 35.5947 2.21827C35.9033 2.07764 36.2939 2.00733 36.7666 2.00733C36.9228 2.00733 37.0674 2.01319 37.2002 2.02491C37.333 2.03272 37.456 2.04639 37.5693 2.06593V3.08546C37.5146 3.07764 37.4443 3.07178 37.3584 3.06788C37.2725 3.06007 37.1787 3.05616 37.0771 3.05616C36.7334 3.05616 36.4893 3.13624 36.3447 3.29639C36.2002 3.45264 36.1279 3.68507 36.1279 3.99366V4.54444H37.5166V5.6753H36.1514V10.9487H34.6924Z" fill="#604D1C"/>
    <path d="M41.0707 11.0776C40.4339 11.0776 39.8871 10.9429 39.43 10.6733C38.9769 10.4038 38.6273 10.021 38.3812 9.52491C38.1351 9.02882 38.0121 8.44093 38.0121 7.76124V7.75538C38.0121 7.0835 38.1332 6.49757 38.3753 5.99757C38.6214 5.49757 38.9691 5.11085 39.4183 4.83741C39.8675 4.56007 40.3949 4.42139 41.0003 4.42139C41.6097 4.42139 42.1332 4.55616 42.5707 4.82569C43.0121 5.09132 43.3519 5.46436 43.5902 5.94483C43.8285 6.4253 43.9476 6.9878 43.9476 7.63233V8.1128H38.7445V7.13428H43.2328L42.5414 7.86978V7.46827C42.5414 7.04249 42.4769 6.68897 42.348 6.40772C42.2191 6.12647 42.0394 5.91553 41.8089 5.77491C41.5824 5.63428 41.3187 5.56397 41.0179 5.56397C40.7171 5.56397 40.4496 5.63819 40.2152 5.78663C39.9847 5.93116 39.8011 6.146 39.6644 6.43116C39.5316 6.71241 39.4652 7.05811 39.4652 7.46827V8.05421C39.4652 8.44874 39.5316 8.78663 39.6644 9.06788C39.7972 9.34522 39.9847 9.56007 40.2269 9.71241C40.473 9.86085 40.764 9.93507 41.1 9.93507C41.3617 9.93507 41.5863 9.89796 41.7738 9.82374C41.9652 9.74561 42.1195 9.65382 42.2367 9.54835C42.3539 9.43897 42.4359 9.33546 42.4828 9.2378L42.5003 9.19678H43.8832L43.8714 9.24952C43.8207 9.45655 43.7269 9.66749 43.5902 9.88233C43.4574 10.0933 43.2757 10.2905 43.0453 10.4741C42.8187 10.6538 42.5414 10.8003 42.2132 10.9136C41.8851 11.023 41.5042 11.0776 41.0707 11.0776Z" fill="#604D1C"/>
    <path d="M47.7946 11.0776C47.1501 11.0776 46.5993 10.9448 46.1423 10.6792C45.6853 10.4136 45.3357 10.0308 45.0935 9.53077C44.8513 9.03077 44.7302 8.43311 44.7302 7.7378V7.72608C44.7302 7.03468 44.8513 6.44288 45.0935 5.95069C45.3357 5.4585 45.6853 5.08155 46.1423 4.81983C46.5993 4.55421 47.1482 4.42139 47.7888 4.42139C48.3396 4.42139 48.8122 4.5171 49.2067 4.7085C49.6052 4.896 49.9196 5.15772 50.1501 5.49366C50.3845 5.82569 50.529 6.21436 50.5837 6.65968V6.68311H49.2067L49.2009 6.66553C49.1345 6.35303 48.9821 6.09718 48.7439 5.89796C48.5095 5.69874 48.1931 5.59913 47.7946 5.59913C47.4626 5.59913 47.1775 5.68311 46.9392 5.85108C46.7048 6.01905 46.5251 6.26124 46.4001 6.57764C46.2751 6.89405 46.2126 7.27686 46.2126 7.72608V7.7378C46.2126 8.19093 46.2751 8.5796 46.4001 8.90382C46.529 9.22413 46.7107 9.47022 46.945 9.6421C47.1794 9.81007 47.4626 9.89405 47.7946 9.89405C48.1735 9.89405 48.4782 9.80811 48.7087 9.63624C48.9431 9.46436 49.1052 9.21046 49.195 8.87452L49.2067 8.85108L50.5778 8.84522L50.572 8.89796C50.5017 9.33155 50.3493 9.71241 50.115 10.0405C49.8845 10.3687 49.5759 10.6245 49.1892 10.8081C48.8025 10.9878 48.3376 11.0776 47.7946 11.0776Z" fill="#604D1C"/>
    <path d="M54.2139 10.978C53.4796 10.978 52.9503 10.8433 52.626 10.5737C52.3018 10.3042 52.1397 9.8628 52.1397 9.24952V5.6753H51.1436V4.54444H52.1397V2.97413H53.6221V4.54444H54.9698V5.6753H53.6221V8.90382C53.6221 9.22022 53.6885 9.45264 53.8214 9.60108C53.9581 9.74561 54.1768 9.81788 54.4776 9.81788C54.5831 9.81788 54.669 9.81592 54.7354 9.81202C54.8057 9.80421 54.8839 9.79639 54.9698 9.78858V10.9136C54.8682 10.9331 54.751 10.9487 54.6182 10.9605C54.4893 10.9722 54.3546 10.978 54.2139 10.978Z" fill="#604D1C"/>
    <path d="M60.8006 10.9487L58.533 2.49366H60.1033L61.5564 8.83936H61.6385L63.3084 2.49366H64.6502L66.3377 8.83936H66.4197L67.867 2.49366H69.4256L67.1639 10.9487H65.7459L64.0232 4.896H63.9353L62.2244 10.9487H60.8006Z" fill="#604D1C"/>
    <path d="M72.5636 11.0776C71.9269 11.0776 71.38 10.9429 70.923 10.6733C70.4699 10.4038 70.1203 10.021 69.8742 9.52491C69.6281 9.02882 69.505 8.44093 69.505 7.76124V7.75538C69.505 7.0835 69.6261 6.49757 69.8683 5.99757C70.1144 5.49757 70.4621 5.11085 70.9113 4.83741C71.3605 4.56007 71.8878 4.42139 72.4933 4.42139C73.1027 4.42139 73.6261 4.55616 74.0636 4.82569C74.505 5.09132 74.8449 5.46436 75.0832 5.94483C75.3214 6.4253 75.4406 6.9878 75.4406 7.63233V8.1128H70.2374V7.13428H74.7257L74.0343 7.84515V7.46827C74.0343 7.04249 73.9699 6.68897 73.841 6.40772C73.7121 6.12647 73.5324 5.91553 73.3019 5.77491C73.0753 5.63428 72.8117 5.56397 72.5109 5.56397C72.2101 5.56397 71.9425 5.63819 71.7082 5.78663C71.4777 5.93116 71.2941 6.146 71.1574 6.43116C71.0246 6.71241 70.9582 7.05811 70.9582 7.46827V8.05421C70.9582 8.44874 71.0246 8.78663 71.1574 9.06788C71.2902 9.34522 71.4777 9.56007 71.7199 9.71241C71.966 9.86085 72.257 9.93507 72.5929 9.93507C72.8546 9.93507 73.0792 9.89796 73.2667 9.82374C73.4582 9.74561 73.6124 9.65382 73.7296 9.54835C73.8468 9.43897 73.9289 9.33546 73.9757 9.2378L73.9933 9.19678H75.3761L75.3644 9.24952C75.3136 9.45655 75.2199 9.66749 75.0832 9.88233C74.9503 10.0933 74.7687 10.2905 74.5382 10.4741C74.3117 10.6538 74.0343 10.8003 73.7062 10.9136C73.3781 11.023 72.9972 11.0776 72.5636 11.0776Z" fill="#604D1C"/>
    <path d="M79.2818 11.0776C78.645 11.0776 78.0982 10.9429 77.6411 10.6733C77.188 10.4038 76.8384 10.021 76.5923 9.52491C76.3462 9.02882 76.2232 8.44093 76.2232 7.76124V7.75538C76.2232 7.0835 76.3443 6.49757 76.5864 5.99757C76.8325 5.49757 77.1802 5.11085 77.6294 4.83741C78.0786 4.56007 78.606 4.42139 79.2114 4.42139C79.8208 4.42139 80.3443 4.55616 80.7818 4.82569C81.2232 5.09132 81.563 5.46436 81.8013 5.94483C82.0396 6.4253 82.1587 6.9878 82.1587 7.63233V8.1128H76.9556V7.13428H81.4439L80.7525 7.88954V7.46827C80.7525 7.04249 80.688 6.68897 80.5591 6.40772C80.4302 6.12647 80.2505 5.91553 80.02 5.77491C79.7935 5.63428 79.5298 5.56397 79.229 5.56397C78.9282 5.56397 78.6607 5.63819 78.4263 5.78663C78.1958 5.93116 78.0122 6.146 77.8755 6.43116C77.7427 6.71241 77.6763 7.05811 77.6763 7.46827V8.05421C77.6763 8.44874 77.7427 8.78663 77.8755 9.06788C78.0083 9.34522 78.1958 9.56007 78.438 9.71241C78.6841 9.86085 78.9751 9.93507 79.3111 9.93507C79.5728 9.93507 79.7974 9.89796 79.9849 9.82374C80.1763 9.74561 80.3306 9.65382 80.4478 9.54835C80.565 9.43897 80.647 9.33546 80.6939 9.2378L80.7114 9.19678H82.0943L82.0825 9.24952C82.0318 9.45655 81.938 9.66749 81.8013 9.88233C81.6685 10.0933 81.4868 10.2905 81.2564 10.4741C81.0298 10.6538 80.7525 10.8003 80.4243 10.9136C80.0962 11.023 79.7153 11.0776 79.2818 11.0776Z" fill="#604D1C"/>
    <path d="M83.3163 10.9487V2.06593H84.7753V10.9487H83.3163ZM87.3417 10.9487L85.1854 8.04249L86.2694 7.15186L89.0936 10.9487H87.3417ZM84.6522 8.82764L84.5995 7.1753H84.8749L87.2362 4.54444H88.9237L86.1405 7.46827L85.4725 7.98975L84.6522 8.82764Z" fill="#604D1C"/>
  </g>
  <path d="M4.0699 3.91618L4.05886 3.81679L4.0699 3.91618ZM4.35247 3.86419L4.3923 3.95591L4.35247 3.86419ZM4.64885 3.51249L4.7383 3.55721L4.64885 3.51249ZM4.50238 3.75966L4.57469 3.82874L4.50238 3.75966ZM1.49678 5.4304L1.56482 5.35712L1.49678 5.4304ZM0.91062 4.74412L1.00967 4.7304L0.91062 4.74412ZM1.91771 4.15531L1.92876 4.2547L1.91771 4.15531ZM1.03818 4.35772L0.966764 4.28773L1.03818 4.35772ZM3.38595 7.78982L3.29159 7.75671L3.38595 7.78982ZM3.47202 7.46099L3.57201 7.45994L3.47202 7.46099ZM3.19162 7.00418L3.12358 7.07746L3.19162 7.00418ZM3.42106 7.25498L3.33211 7.30066L3.42106 7.25498ZM3.63834 10.9026L3.59362 10.8132L3.63834 10.9026ZM2.70717 11.243L2.73171 11.146L2.70717 11.243ZM2.61128 9.99763L2.70564 10.0307L2.61128 9.99763ZM2.39081 10.9642L2.29773 11.0008L2.39081 10.9642ZM6.6456 9.72925L6.69032 9.6398L6.6456 9.72925ZM6.40045 9.62651L6.41889 9.52823L6.40045 9.62651ZM5.9851 9.72925L6.02982 9.81869L5.9851 9.72925ZM6.23024 9.62651L6.24868 9.7248L6.23024 9.62651ZM10.0194 9.99763L10.1138 9.96452L10.0194 9.99763ZM10.2399 10.9642L10.1468 10.9277L10.2399 10.9642ZM8.99234 10.9026L8.94762 10.9921L8.99234 10.9026ZM9.92352 11.243L9.94806 11.3399L9.92352 11.243ZM9.43906 7.00418L9.37102 6.9309L9.43906 7.00418ZM9.20963 7.25498L9.29858 7.30066L9.20963 7.25498ZM9.24474 7.78982L9.15038 7.82293L9.24474 7.78982ZM9.15867 7.46099L9.25867 7.46204L9.15867 7.46099ZM10.713 4.15531L10.7019 4.2547L10.713 4.15531ZM11.5925 4.35772L11.6639 4.28773L11.5925 4.35772ZM11.1339 5.4304L11.202 5.50368L11.1339 5.4304ZM11.7201 4.74412L11.621 4.7304L11.7201 4.74412ZM7.98183 3.51248L7.89239 3.55721L7.98183 3.51248ZM8.12831 3.75966L8.056 3.82874L8.12831 3.75966ZM8.56078 3.91618L8.57183 3.81679L8.56078 3.91618ZM8.27821 3.86419L8.31804 3.77246L8.27821 3.86419ZM6.97585 1.50051L7.06529 1.45579L6.97585 1.50051ZM6.51313 0.794525L6.47027 0.884878L6.51313 0.794525ZM5.65485 1.50051L5.74429 1.54523L5.65485 1.50051ZM6.11757 0.794524L6.07471 0.704171L6.11757 0.794524ZM16.1142 8.15382H16.0142V8.25382H16.1142V8.15382ZM16.1142 6.93507V6.83507H16.0142V6.93507H16.1142ZM19.6298 6.51905L19.6976 6.59257L19.6981 6.59209L19.6298 6.51905ZM16.1142 3.72413H16.0142V3.82413H16.1142V3.72413ZM16.1142 2.49366V2.39366H16.0142V2.49366H16.1142ZM21.247 3.83546L21.1601 3.8849L21.1603 3.88524L21.247 3.83546ZM21.247 6.81202L21.3337 6.86181L21.3339 6.86146L21.247 6.81202ZM20.2392 7.80225L20.2871 7.89005L20.2877 7.88971L20.2392 7.80225ZM15.3583 10.9487H15.2583V11.0487H15.3583V10.9487ZM15.3583 2.49366V2.39366H15.2583V2.49366H15.3583ZM16.87 2.49366H16.97V2.39366H16.87V2.49366ZM16.87 10.9487V11.0487H16.97V10.9487H16.87ZM23.6936 10.6733L23.6425 10.7593L23.6428 10.7595L23.6936 10.6733ZM22.6389 5.99757L22.5492 5.95341L22.5489 5.95397L22.6389 5.99757ZM23.6819 4.83741L23.7339 4.92283L23.7344 4.9225L23.6819 4.83741ZM26.8342 4.82569L26.7818 4.91084L26.7827 4.91137L26.8342 4.82569ZM28.2112 8.1128V8.2128H28.3112V8.1128H28.2112ZM23.0081 8.1128H22.9081V8.2128H23.0081V8.1128ZM23.0081 7.13428V7.03428H22.9081V7.13428H23.0081ZM27.4964 7.13428L27.5557 7.21479L27.8007 7.03428H27.4964V7.13428ZM27 7.5L26.9839 7.5987L27.0255 7.60546L27.0593 7.58051L27 7.5ZM26.805 7.46827H26.705V7.55332L26.7889 7.56697L26.805 7.46827ZM26.0725 5.77491L26.0198 5.85988L26.0204 5.86027L26.0725 5.77491ZM24.4788 5.78663L24.5319 5.87135L24.5323 5.87111L24.4788 5.78663ZM23.928 6.43116L23.8378 6.38793L23.8376 6.38846L23.928 6.43116ZM23.928 9.06788L23.8376 9.11058L23.8378 9.11107L23.928 9.06788ZM24.4905 9.71241L24.4372 9.79707L24.4389 9.79804L24.4905 9.71241ZM26.0374 9.82374L26.0742 9.91672L26.0752 9.91632L26.0374 9.82374ZM26.5003 9.54835L26.5672 9.62269L26.5685 9.62145L26.5003 9.54835ZM26.7464 9.2378L26.8366 9.28111L26.8383 9.27719L26.7464 9.2378ZM26.7639 9.19678V9.09678H26.698L26.672 9.15739L26.7639 9.19678ZM28.1467 9.19678L28.2444 9.21848L28.2714 9.09678H28.1467V9.19678ZM28.135 9.24952L28.2322 9.27335L28.2326 9.27121L28.135 9.24952ZM27.8538 9.88233L27.7694 9.82864L27.7692 9.82905L27.8538 9.88233ZM27.3089 10.4741L27.371 10.5525L27.3712 10.5523L27.3089 10.4741ZM26.4768 10.9136L26.5085 11.0085L26.5095 11.0081L26.4768 10.9136ZM29.3102 10.9487H29.2102V11.0487H29.3102V10.9487ZM29.3102 4.54444V4.44444H29.2102V4.54444H29.3102ZM30.7692 4.54444H30.8692V4.44444H30.7692V4.54444ZM30.7692 5.52882H30.6692V5.62882H30.7692V5.52882ZM30.8688 5.52882V5.62882H30.9419L30.9641 5.55914L30.8688 5.52882ZM31.4547 4.72608L31.399 4.64305L31.3985 4.64341L31.4547 4.72608ZM32.8375 4.46241L32.8229 4.56141L32.8269 4.56184L32.8375 4.46241ZM33.1071 4.50928H33.2071V4.43328L33.1338 4.41293L33.1071 4.50928ZM33.1071 5.81593L33.0843 5.91331L33.2071 5.94194V5.81593H33.1071ZM32.7496 5.75733L32.7364 5.85652L32.74 5.85687L32.7496 5.75733ZM30.9684 6.43702L31.0543 6.48825L31.0547 6.48759L30.9684 6.43702ZM30.7692 10.9487V11.0487H30.8692V10.9487H30.7692ZM34.6924 10.9487H34.5924V11.0487H34.6924V10.9487ZM34.6924 5.6753H34.7924V5.5753H34.6924V5.6753ZM33.6435 5.6753H33.5435V5.7753H33.6435V5.6753ZM33.6435 4.54444V4.44444H33.5435V4.54444H33.6435ZM34.6924 4.54444V4.64444H34.7924V4.54444H34.6924ZM34.9092 2.84522L34.8207 2.79854L34.8202 2.79951L34.9092 2.84522ZM35.5947 2.21827L35.6352 2.3097L35.6362 2.30927L35.5947 2.21827ZM37.2002 2.02491L37.1914 2.12457L37.1943 2.12474L37.2002 2.02491ZM37.5693 2.06593H37.6693V1.98169L37.5863 1.96738L37.5693 2.06593ZM37.5693 3.08546L37.5552 3.18445L37.6693 3.20076V3.08546H37.5693ZM37.3584 3.06788L37.3493 3.16757L37.3539 3.16777L37.3584 3.06788ZM36.3447 3.29639L36.4181 3.3643L36.419 3.36339L36.3447 3.29639ZM36.1279 4.54444H36.0279V4.64444H36.1279V4.54444ZM37.5166 4.54444H37.6166V4.44444H37.5166V4.54444ZM37.5166 5.6753V5.7753H37.6166V5.6753H37.5166ZM36.1514 5.6753V5.5753H36.0514V5.6753H36.1514ZM36.1514 10.9487V11.0487H36.2514V10.9487H36.1514ZM39.43 10.6733L39.3789 10.7593L39.3792 10.7595L39.43 10.6733ZM38.3753 5.99757L38.2856 5.95341L38.2853 5.95397L38.3753 5.99757ZM39.4183 4.83741L39.4703 4.92283L39.4708 4.9225L39.4183 4.83741ZM42.5707 4.82569L42.5182 4.91084L42.5191 4.91137L42.5707 4.82569ZM43.9476 8.1128V8.2128H44.0476V8.1128H43.9476ZM38.7445 8.1128H38.6445V8.2128H38.7445V8.1128ZM38.7445 7.13428V7.03428H38.6445V7.13428H38.7445ZM43.2328 7.13428L43.3056 7.20278L43.464 7.03428H43.2328V7.13428ZM42.5414 7.86978H42.4414V8.12216L42.6142 7.93828L42.5414 7.86978ZM41.8089 5.77491L41.7562 5.85988L41.7569 5.86027L41.8089 5.77491ZM40.2152 5.78663L40.2683 5.87135L40.2687 5.87111L40.2152 5.78663ZM39.6644 6.43116L39.5742 6.38793L39.574 6.38846L39.6644 6.43116ZM39.6644 9.06788L39.574 9.11058L39.5742 9.11107L39.6644 9.06788ZM40.2269 9.71241L40.1737 9.79707L40.1753 9.79804L40.2269 9.71241ZM41.7738 9.82374L41.8106 9.91672L41.8116 9.91632L41.7738 9.82374ZM42.2367 9.54835L42.3036 9.62269L42.3049 9.62145L42.2367 9.54835ZM42.4828 9.2378L42.573 9.28111L42.5747 9.27719L42.4828 9.2378ZM42.5003 9.19678V9.09678H42.4344L42.4084 9.15739L42.5003 9.19678ZM43.8832 9.19678L43.9808 9.21848L44.0078 9.09678H43.8832V9.19678ZM43.8714 9.24952L43.9686 9.27335L43.9691 9.27121L43.8714 9.24952ZM43.5902 9.88233L43.5058 9.82864L43.5056 9.82905L43.5902 9.88233ZM43.0453 10.4741L43.1074 10.5525L43.1076 10.5523L43.0453 10.4741ZM42.2132 10.9136L42.2449 11.0085L42.2459 11.0081L42.2132 10.9136ZM46.1423 4.81983L46.192 4.90661L46.1925 4.90629L46.1423 4.81983ZM49.2067 4.7085L49.1631 4.79848L49.1642 4.79899L49.2067 4.7085ZM50.1501 5.49366L50.0676 5.55024L50.0684 5.55133L50.1501 5.49366ZM50.5837 6.65968H50.6845L50.683 6.64749L50.5837 6.65968ZM50.5837 6.68311V6.78311H50.6837V6.68311H50.5837ZM49.2067 6.68311L49.1119 6.71474L49.1347 6.78311H49.2067V6.68311ZM49.2009 6.66553L49.1025 6.68645L49.106 6.69716L49.2009 6.66553ZM48.7439 5.89796L48.6791 5.97415L48.6797 5.97468L48.7439 5.89796ZM46.9392 5.85108L46.8816 5.76934L46.8809 5.7698L46.9392 5.85108ZM46.4001 8.90382L46.3068 8.93979L46.3073 8.94115L46.4001 8.90382ZM46.945 9.6421L46.8859 9.72274L46.8868 9.72338L46.945 9.6421ZM48.7087 9.63624L48.6496 9.55559L48.6489 9.55607L48.7087 9.63624ZM49.195 8.87452L49.1056 8.8298L49.101 8.83888L49.0984 8.84868L49.195 8.87452ZM49.2067 8.85108L49.2063 8.75108L49.1448 8.75134L49.1173 8.80636L49.2067 8.85108ZM50.5778 8.84522L50.6772 8.85627L50.6896 8.74474L50.5774 8.74522L50.5778 8.84522ZM50.572 8.89796L50.6708 8.91398L50.6714 8.909L50.572 8.89796ZM50.115 10.0405L50.0336 9.98241L50.0331 9.98306L50.115 10.0405ZM49.1892 10.8081L49.2313 10.8988L49.2321 10.8984L49.1892 10.8081ZM52.1397 5.6753H52.2397V5.5753H52.1397V5.6753ZM51.1436 5.6753H51.0436V5.7753H51.1436V5.6753ZM51.1436 4.54444V4.44444H51.0436V4.54444H51.1436ZM52.1397 4.54444V4.64444H52.2397V4.54444H52.1397ZM52.1397 2.97413V2.87413H52.0397V2.97413H52.1397ZM53.6221 2.97413H53.7221V2.87413H53.6221V2.97413ZM53.6221 4.54444H53.5221V4.64444H53.6221V4.54444ZM54.9698 4.54444H55.0698V4.44444H54.9698V4.54444ZM54.9698 5.6753V5.7753H55.0698V5.6753H54.9698ZM53.6221 5.6753V5.5753H53.5221V5.6753H53.6221ZM53.8214 9.60108L53.7468 9.66779L53.7487 9.6698L53.8214 9.60108ZM54.7354 9.81202L54.7413 9.91198L54.7465 9.91141L54.7354 9.81202ZM54.9698 9.78858H55.0698V9.67908L54.9607 9.68899L54.9698 9.78858ZM54.9698 10.9136L54.9887 11.0118L55.0698 10.9962V10.9136H54.9698ZM54.6182 10.9605L54.6094 10.8608L54.6092 10.8609L54.6182 10.9605ZM60.8006 10.9487L60.704 10.9746L60.7239 11.0487H60.8006V10.9487ZM58.533 2.49366V2.39366H58.4026L58.4364 2.51956L58.533 2.49366ZM60.1033 2.49366L60.2008 2.47134L60.183 2.39366H60.1033V2.49366ZM61.5564 8.83936L61.459 8.86168L61.4767 8.93936H61.5564V8.83936ZM61.6385 8.83936V8.93936H61.7156L61.7352 8.86481L61.6385 8.83936ZM63.3084 2.49366V2.39366H63.2313L63.2117 2.46821L63.3084 2.49366ZM64.6502 2.49366L64.7468 2.46796L64.7271 2.39366H64.6502V2.49366ZM66.3377 8.83936L66.241 8.86506L66.2608 8.93936H66.3377V8.83936ZM66.4197 8.83936V8.93936H66.4995L66.5172 8.8616L66.4197 8.83936ZM67.867 2.49366V2.39366H67.7872L67.7695 2.47142L67.867 2.49366ZM69.4256 2.49366L69.5222 2.5195L69.5558 2.39366H69.4256V2.49366ZM67.1639 10.9487V11.0487H67.2406L67.2605 10.9746L67.1639 10.9487ZM65.7459 10.9487L65.6497 10.9761L65.6704 11.0487H65.7459V10.9487ZM64.0232 4.896L64.1194 4.86863L64.0987 4.796H64.0232V4.896ZM63.9353 4.896V4.796H63.8597L63.8391 4.8688L63.9353 4.896ZM62.2244 10.9487V11.0487H62.3001L62.3206 10.9759L62.2244 10.9487ZM70.923 10.6733L70.8719 10.7593L70.8722 10.7595L70.923 10.6733ZM69.8683 5.99757L69.7786 5.95341L69.7783 5.95397L69.8683 5.99757ZM70.9113 4.83741L70.9633 4.92283L70.9638 4.9225L70.9113 4.83741ZM74.0636 4.82569L74.0112 4.91084L74.0121 4.91137L74.0636 4.82569ZM75.4406 8.1128V8.2128H75.5406V8.1128H75.4406ZM70.2374 8.1128H70.1375V8.2128H70.2374V8.1128ZM70.2374 7.13428V7.03428H70.1375V7.13428H70.2374ZM74.7257 7.13428L74.7974 7.20401L74.9625 7.03428H74.7257V7.13428ZM74.0343 7.84515H73.9343V8.09139L74.106 7.91487L74.0343 7.84515ZM73.3019 5.77491L73.2492 5.85988L73.2498 5.86027L73.3019 5.77491ZM71.7082 5.78663L71.7613 5.87135L71.7617 5.87111L71.7082 5.78663ZM71.1574 6.43116L71.0672 6.38793L71.0669 6.38846L71.1574 6.43116ZM71.1574 9.06788L71.0669 9.11058L71.0672 9.11107L71.1574 9.06788ZM71.7199 9.71241L71.6666 9.79707L71.6682 9.79804L71.7199 9.71241ZM73.2667 9.82374L73.3036 9.91672L73.3045 9.91632L73.2667 9.82374ZM73.7296 9.54835L73.7965 9.62269L73.7979 9.62145L73.7296 9.54835ZM73.9757 9.2378L74.066 9.28111L74.0676 9.27719L73.9757 9.2378ZM73.9933 9.19678V9.09678H73.9274L73.9014 9.15739L73.9933 9.19678ZM75.3761 9.19678L75.4737 9.21848L75.5008 9.09678H75.3761V9.19678ZM75.3644 9.24952L75.4615 9.27335L75.462 9.27121L75.3644 9.24952ZM75.0832 9.88233L74.9988 9.82864L74.9985 9.82905L75.0832 9.88233ZM74.5382 10.4741L74.6004 10.5525L74.6005 10.5523L74.5382 10.4741ZM73.7062 10.9136L73.7378 11.0085L73.7388 11.0081L73.7062 10.9136ZM77.6411 10.6733L77.59 10.7593L77.5903 10.7595L77.6411 10.6733ZM76.5864 5.99757L76.4967 5.95341L76.4964 5.95397L76.5864 5.99757ZM77.6294 4.83741L77.6814 4.92283L77.6819 4.9225L77.6294 4.83741ZM80.7818 4.82569L80.7293 4.91084L80.7302 4.91137L80.7818 4.82569ZM82.1587 8.1128V8.2128H82.2587V8.1128H82.1587ZM76.9556 8.1128H76.8556V8.2128H76.9556V8.1128ZM76.9556 7.13428V7.03428H76.8556V7.13428H76.9556ZM81.4439 7.13428L81.5176 7.20181L81.671 7.03428H81.4439V7.13428ZM80.7525 7.88954H80.6525V8.14688L80.8262 7.95707L80.7525 7.88954ZM80.02 5.77491L79.9673 5.85988L79.9679 5.86027L80.02 5.77491ZM78.4263 5.78663L78.4794 5.87135L78.4798 5.87111L78.4263 5.78663ZM77.8755 6.43116L77.7853 6.38793L77.7851 6.38846L77.8755 6.43116ZM77.8755 9.06788L77.7851 9.11058L77.7853 9.11107L77.8755 9.06788ZM78.438 9.71241L78.3848 9.79707L78.3864 9.79804L78.438 9.71241ZM79.9849 9.82374L80.0217 9.91672L80.0227 9.91632L79.9849 9.82374ZM80.4478 9.54835L80.5147 9.62269L80.516 9.62145L80.4478 9.54835ZM80.6939 9.2378L80.7841 9.28111L80.7858 9.27719L80.6939 9.2378ZM80.7114 9.19678V9.09678H80.6455L80.6195 9.15739L80.7114 9.19678ZM82.0943 9.19678L82.1919 9.21848L82.2189 9.09678H82.0943V9.19678ZM82.0825 9.24952L82.1797 9.27335L82.1802 9.27121L82.0825 9.24952ZM81.8013 9.88233L81.7169 9.82864L81.7167 9.82905L81.8013 9.88233ZM81.2564 10.4741L81.3185 10.5525L81.3187 10.5523L81.2564 10.4741ZM80.4243 10.9136L80.456 11.0085L80.457 11.0081L80.4243 10.9136ZM83.3163 10.9487H83.2163V11.0487H83.3163V10.9487ZM83.3163 2.06593V1.96592H83.2163V2.06593H83.3163ZM84.7753 2.06593H84.8753V1.96592H84.7753V2.06593ZM84.7753 10.9487V11.0487H84.8753V10.9487H84.7753ZM87.3417 10.9487L87.2614 11.0083L87.2914 11.0487H87.3417V10.9487ZM85.1854 8.04249L85.1219 7.96522L85.0484 8.02564L85.1051 8.10207L85.1854 8.04249ZM86.2694 7.15186L86.3496 7.09218L86.287 7.00798L86.2059 7.0746L86.2694 7.15186ZM89.0936 10.9487V11.0487H89.2926L89.1739 10.8891L89.0936 10.9487ZM84.6522 8.82764L84.5523 8.83083L84.5597 9.06504L84.7237 8.8976L84.6522 8.82764ZM84.5995 7.1753V7.0753H84.4962L84.4995 7.17849L84.5995 7.1753ZM84.8749 7.1753V7.2753H84.9195L84.9493 7.2421L84.8749 7.1753ZM87.2362 4.54444V4.44444H87.1916L87.1618 4.47764L87.2362 4.54444ZM88.9237 4.54444L88.9961 4.61339L89.157 4.44444H88.9237V4.54444ZM86.1405 7.46827L86.202 7.54709L86.2078 7.54256L86.2129 7.53722L86.1405 7.46827ZM85.4725 7.98975L85.4104 7.91023L85.4011 7.9198L85.4725 7.98975ZM6.8864 1.54523L7.89239 3.55721L8.07128 3.46776L7.06529 1.45579L6.8864 1.54523ZM8.54974 4.01557L10.7019 4.2547L10.724 4.05592L8.57183 3.81679L8.54974 4.01557ZM11.0659 5.35712L9.37102 6.9309L9.50711 7.07746L11.202 5.50368L11.0659 5.35712ZM9.15038 7.82293L9.92505 10.0307L10.1138 9.96452L9.3391 7.75671L9.15038 7.82293ZM9.03707 10.8132L6.69032 9.6398L6.60087 9.81869L8.94762 10.9921L9.03707 10.8132ZM5.94038 9.6398L3.59362 10.8132L3.68306 10.9921L6.02982 9.81869L5.94038 9.6398ZM2.70564 10.0307L3.48031 7.82293L3.29159 7.75671L2.51692 9.96452L2.70564 10.0307ZM3.25967 6.9309L1.56482 5.35712L1.42873 5.50368L3.12358 7.07746L3.25967 6.9309ZM1.92876 4.2547L4.08095 4.01557L4.05886 3.81679L1.90667 4.05592L1.92876 4.2547ZM4.7383 3.55721L5.74429 1.54523L5.5654 1.45578L4.55941 3.46776L4.7383 3.55721ZM4.08095 4.01557C4.22053 4.00006 4.31146 3.99101 4.3923 3.95591L4.31265 3.77246C4.26597 3.79272 4.21103 3.79988 4.05886 3.81679L4.08095 4.01557ZM4.55941 3.46776C4.49094 3.60471 4.46523 3.65378 4.43008 3.69058L4.57469 3.82874C4.63556 3.76502 4.67549 3.68282 4.7383 3.55721L4.55941 3.46776ZM4.3923 3.95591C4.46096 3.9261 4.52297 3.88286 4.57469 3.82874L4.43008 3.69058C4.39678 3.72543 4.35686 3.75326 4.31265 3.77246L4.3923 3.95591ZM1.56482 5.35712C1.3755 5.18132 1.23863 5.05409 1.14562 4.95067C1.05109 4.84554 1.01659 4.78032 1.00967 4.7304L0.811566 4.75785C0.827223 4.87087 0.897942 4.97435 0.99691 5.0844C1.09741 5.19615 1.24233 5.33059 1.42873 5.50368L1.56482 5.35712ZM1.90667 4.05592C1.65386 4.08401 1.45737 4.10575 1.3101 4.1357C1.16506 4.1652 1.04664 4.20624 0.966764 4.28773L1.1096 4.42772C1.14487 4.39173 1.21142 4.35987 1.34996 4.33169C1.48627 4.30396 1.67198 4.28323 1.92876 4.2547L1.90667 4.05592ZM1.00967 4.7304C0.994308 4.61948 1.03121 4.5077 1.1096 4.42772L0.966764 4.28773C0.845016 4.41194 0.7877 4.58556 0.811566 4.75785L1.00967 4.7304ZM3.48031 7.82293C3.5357 7.66506 3.57309 7.56284 3.57201 7.45994L3.37202 7.46204C3.37264 7.52136 3.35209 7.58429 3.29159 7.75671L3.48031 7.82293ZM3.12358 7.07746C3.25748 7.2018 3.305 7.24789 3.33211 7.30066L3.51001 7.20929C3.463 7.11775 3.38227 7.04475 3.25967 6.9309L3.12358 7.07746ZM3.57201 7.45994C3.57109 7.37271 3.54987 7.28689 3.51001 7.20929L3.33211 7.30066C3.35776 7.35063 3.37143 7.40588 3.37202 7.46204L3.57201 7.45994ZM3.59362 10.8132C3.33689 10.9415 3.15036 11.0347 3.00718 11.0912C2.86071 11.149 2.78168 11.1587 2.73171 11.146L2.68263 11.3399C2.79892 11.3694 2.93051 11.3364 3.08057 11.2772C3.23393 11.2167 3.42986 11.1187 3.68306 10.9921L3.59362 10.8132ZM2.51692 9.96452C2.42319 10.2316 2.35056 10.4384 2.30985 10.5981C2.27002 10.7544 2.25389 10.8891 2.29773 11.0008L2.48389 10.9277C2.46506 10.8797 2.46478 10.8001 2.50366 10.6475C2.54166 10.4984 2.6106 10.3016 2.70564 10.0307L2.51692 9.96452ZM2.73171 11.146C2.61874 11.1175 2.52648 11.0362 2.48389 10.9277L2.29773 11.0008C2.36387 11.1693 2.50717 11.2955 2.68263 11.3399L2.73171 11.146ZM6.69032 9.6398C6.57441 9.58185 6.49939 9.54333 6.41889 9.52823L6.38201 9.7248C6.42853 9.73353 6.4746 9.75555 6.60087 9.81869L6.69032 9.6398ZM6.02982 9.81869C6.15609 9.75555 6.20217 9.73353 6.24868 9.7248L6.2118 9.52823C6.1313 9.54333 6.05628 9.58185 5.94038 9.6398L6.02982 9.81869ZM6.41889 9.52823C6.35046 9.51539 6.28023 9.51539 6.2118 9.52823L6.24868 9.7248C6.29274 9.71653 6.33795 9.71653 6.38201 9.7248L6.41889 9.52823ZM9.92505 10.0307C10.0201 10.3016 10.089 10.4984 10.127 10.6475C10.1659 10.8001 10.1656 10.8797 10.1468 10.9277L10.333 11.0008C10.3768 10.8891 10.3607 10.7544 10.3208 10.5981C10.2801 10.4384 10.2075 10.2316 10.1138 9.96452L9.92505 10.0307ZM8.94762 10.9921C9.20083 11.1187 9.39676 11.2167 9.55012 11.2772C9.70018 11.3364 9.83177 11.3694 9.94806 11.3399L9.89898 11.146C9.849 11.1587 9.76998 11.149 9.6235 11.0912C9.48033 11.0347 9.2938 10.9415 9.03707 10.8132L8.94762 10.9921ZM10.1468 10.9277C10.1042 11.0362 10.0119 11.1175 9.89898 11.146L9.94806 11.3399C10.1235 11.2955 10.2668 11.1693 10.333 11.0008L10.1468 10.9277ZM9.37102 6.9309C9.24842 7.04475 9.16769 7.11775 9.12067 7.20929L9.29858 7.30066C9.32568 7.24789 9.37321 7.2018 9.50711 7.07746L9.37102 6.9309ZM9.3391 7.75671C9.2786 7.58429 9.25804 7.52136 9.25867 7.46204L9.05868 7.45994C9.0576 7.56284 9.09498 7.66506 9.15038 7.82293L9.3391 7.75671ZM9.12067 7.20929C9.08082 7.28689 9.05959 7.37271 9.05868 7.45994L9.25867 7.46204C9.25926 7.40588 9.27292 7.35063 9.29858 7.30066L9.12067 7.20929ZM10.7019 4.2547C10.9587 4.28323 11.1444 4.30396 11.2807 4.33169C11.4193 4.35987 11.4858 4.39173 11.5211 4.42772L11.6639 4.28773C11.5841 4.20624 11.4656 4.1652 11.3206 4.1357C11.1733 4.10575 10.9768 4.08401 10.724 4.05592L10.7019 4.2547ZM11.202 5.50368C11.3884 5.33059 11.5333 5.19615 11.6338 5.0844C11.7327 4.97435 11.8035 4.87087 11.8191 4.75785L11.621 4.7304C11.6141 4.78032 11.5796 4.84554 11.4851 4.95067C11.3921 5.05409 11.2552 5.18132 11.0659 5.35712L11.202 5.50368ZM11.5211 4.42772C11.5995 4.5077 11.6364 4.61948 11.621 4.7304L11.8191 4.75785C11.843 4.58556 11.7857 4.41194 11.6639 4.28773L11.5211 4.42772ZM7.89239 3.55721C7.9552 3.68282 7.99512 3.76502 8.056 3.82874L8.20061 3.69058C8.16546 3.65378 8.13975 3.60471 8.07128 3.46776L7.89239 3.55721ZM8.57183 3.81679C8.41965 3.79988 8.36472 3.79272 8.31804 3.77246L8.23839 3.95591C8.31922 3.99101 8.41016 4.00006 8.54974 4.01557L8.57183 3.81679ZM8.056 3.82874C8.10771 3.88286 8.16972 3.9261 8.23839 3.95591L8.31804 3.77246C8.27383 3.75326 8.2339 3.72543 8.20061 3.69058L8.056 3.82874ZM7.06529 1.45579C6.95989 1.24498 6.87782 1.08062 6.80372 0.960997C6.73042 0.842667 6.65519 0.751224 6.55598 0.704172L6.47027 0.884878C6.5149 0.906045 6.56474 0.955006 6.63369 1.06632C6.70184 1.17633 6.77922 1.33086 6.8864 1.54523L7.06529 1.45579ZM5.74429 1.54523C5.85147 1.33086 5.92885 1.17633 5.997 1.06632C6.06595 0.955005 6.11579 0.906045 6.16042 0.884878L6.07471 0.704171C5.97551 0.751223 5.90028 0.842666 5.82698 0.960996C5.75287 1.08062 5.67081 1.24498 5.5654 1.45578L5.74429 1.54523ZM6.55598 0.704172C6.40369 0.631943 6.22701 0.631943 6.07471 0.704171L6.16042 0.884878C6.25847 0.838374 6.37222 0.838374 6.47027 0.884878L6.55598 0.704172ZM16.2142 8.15382V6.93507H16.0142V8.15382H16.2142ZM16.1142 7.03507H18.3642V6.83507H16.1142V7.03507ZM18.3642 7.03507C18.9239 7.03507 19.373 6.89189 19.6976 6.59257L19.562 6.44553C19.2851 6.7009 18.8904 6.83507 18.3642 6.83507V7.03507ZM19.6981 6.59209C20.0237 6.28767 20.181 5.86403 20.181 5.33546H19.981C19.981 5.82251 19.8375 6.18793 19.5615 6.44601L19.6981 6.59209ZM20.181 5.33546V5.32374H19.981V5.33546H20.181ZM20.181 5.32374C20.181 4.79158 20.0238 4.36745 19.6976 4.06663L19.562 4.21366C19.8373 4.46753 19.981 4.83246 19.981 5.32374H20.181ZM19.6976 4.06663C19.373 3.76731 18.9239 3.62413 18.3642 3.62413V3.82413C18.8904 3.82413 19.2851 3.95829 19.562 4.21366L19.6976 4.06663ZM18.3642 3.62413H16.1142V3.82413H18.3642V3.62413ZM16.2142 3.72413V2.49366H16.0142V3.72413H16.2142ZM16.1142 2.59366H18.7333V2.39366H16.1142V2.59366ZM18.7333 2.59366C19.2937 2.59366 19.7786 2.70793 20.1913 2.93301L20.2871 2.75743C19.8403 2.51376 19.3214 2.39366 18.7333 2.39366V2.59366ZM20.1913 2.93301C20.6046 3.15847 20.9271 3.47527 21.1601 3.8849L21.3339 3.78601C21.0825 3.34408 20.7331 3.00072 20.2871 2.75743L20.1913 2.93301ZM21.1603 3.88524C21.3924 4.28964 21.5103 4.76604 21.5103 5.31788H21.7103C21.7103 4.7369 21.5859 4.22503 21.3337 3.78567L21.1603 3.88524ZM21.5103 5.31788V5.3296H21.7103V5.31788H21.5103ZM21.5103 5.3296C21.5103 5.87737 21.3925 6.35398 21.1601 6.76258L21.3339 6.86146C21.5859 6.4185 21.7103 5.90683 21.7103 5.3296H21.5103ZM21.1603 6.76223C20.9272 7.16814 20.6046 7.48526 20.1907 7.7148L20.2877 7.88971C20.7331 7.64268 21.0824 7.29965 21.3337 6.86181L21.1603 6.76223ZM20.1913 7.71446C19.7786 7.93954 19.2937 8.05382 18.7333 8.05382V8.25382C19.3214 8.25382 19.8403 8.13372 20.2871 7.89004L20.1913 7.71446ZM18.7333 8.05382H16.1142V8.25382H18.7333V8.05382ZM15.4583 10.9487V2.49366H15.2583V10.9487H15.4583ZM15.3583 2.59366H16.87V2.39366H15.3583V2.59366ZM16.77 2.49366V10.9487H16.97V2.49366H16.77ZM16.87 10.8487H15.3583V11.0487H16.87V10.8487ZM25.3342 10.9776C24.7118 10.9776 24.1832 10.846 23.7444 10.5872L23.6428 10.7595C24.1181 11.0398 24.6832 11.1776 25.3342 11.1776V10.9776ZM23.7447 10.5874C23.309 10.3282 22.9724 9.96023 22.7344 9.48047L22.5552 9.56935C22.8094 10.0818 23.172 10.4794 23.6425 10.7593L23.7447 10.5874ZM22.7344 9.48047C22.4965 9.00097 22.3757 8.42895 22.3757 7.76124H22.1757C22.1757 8.4529 22.3009 9.05666 22.5552 9.56935L22.7344 9.48047ZM22.3757 7.76124V7.75538H22.1757V7.76124H22.3757ZM22.3757 7.75538C22.3757 7.09549 22.4946 6.52502 22.7289 6.04116L22.5489 5.95397C22.2989 6.47011 22.1757 7.07152 22.1757 7.75538H22.3757ZM22.7287 6.04173C22.9669 5.55772 23.3019 5.18578 23.7339 4.92283L23.6299 4.75199C23.1635 5.03591 22.8032 5.43741 22.5492 5.95341L22.7287 6.04173ZM23.7344 4.9225C24.1657 4.65627 24.6742 4.52139 25.2639 4.52139V4.32139C24.6427 4.32139 24.0966 4.46386 23.6294 4.75232L23.7344 4.9225ZM25.2639 4.52139C25.8583 4.52139 26.3628 4.65269 26.7818 4.91083L26.8867 4.74055C26.4307 4.45963 25.8884 4.32139 25.2639 4.32139V4.52139ZM26.7827 4.91137C27.2071 5.16674 27.534 5.52515 27.7642 5.98926L27.9434 5.9004C27.697 5.40357 27.3443 5.01589 26.8858 4.74001L26.7827 4.91137ZM27.7642 5.98926C27.9944 6.45341 28.1112 7.00014 28.1112 7.63233H28.3112C28.3112 6.97546 28.1897 6.39719 27.9434 5.9004L27.7642 5.98926ZM28.1112 7.63233V8.1128H28.3112V7.63233H28.1112ZM28.2112 8.0128H23.0081V8.2128H28.2112V8.0128ZM23.1081 8.1128V7.13428H22.9081V8.1128H23.1081ZM23.0081 7.23428H27.4964V7.03428H23.0081V7.23428ZM27.437 7.05378L26.9407 7.41949L27.0593 7.58051L27.5557 7.21479L27.437 7.05378ZM27.0161 7.4013L26.821 7.36957L26.7889 7.56697L26.9839 7.5987L27.0161 7.4013ZM26.905 7.46827C26.905 7.03319 26.8392 6.66432 26.7025 6.36606L26.5207 6.44939C26.6418 6.71362 26.705 7.05178 26.705 7.46827H26.905ZM26.7025 6.36606C26.5665 6.06942 26.3745 5.842 26.1246 5.68955L26.0204 5.86027C26.2315 5.98907 26.3988 6.18352 26.5207 6.44939L26.7025 6.36606ZM26.1253 5.68995C25.8809 5.53828 25.5985 5.46397 25.2815 5.46397V5.66397C25.5661 5.66397 25.811 5.73029 26.0198 5.85987L26.1253 5.68995ZM25.2815 5.46397C24.9634 5.46397 24.677 5.54272 24.4253 5.70215L24.5323 5.87111C24.7493 5.73366 24.998 5.66397 25.2815 5.66397V5.46397ZM24.4257 5.70191C24.1767 5.85803 23.9814 6.08854 23.8378 6.38793L24.0182 6.47439C24.1481 6.20347 24.3199 6.00429 24.5319 5.87135L24.4257 5.70191ZM23.8376 6.38846C23.6968 6.68661 23.6288 7.04785 23.6288 7.46827H23.8288C23.8288 7.06838 23.8936 6.73821 24.0184 6.47386L23.8376 6.38846ZM23.6288 7.46827V8.05421H23.8288V7.46827H23.6288ZM23.6288 8.05421C23.6288 8.45966 23.697 8.81289 23.8376 9.11058L24.0184 9.02518C23.8934 8.76036 23.8288 8.43781 23.8288 8.05421H23.6288ZM23.8378 9.11107C23.9781 9.40411 24.1779 9.6339 24.4373 9.79706L24.5437 9.62776C24.3187 9.48623 24.1435 9.28633 24.0182 9.02469L23.8378 9.11107ZM24.4389 9.79804C24.703 9.95737 25.0125 10.0351 25.3635 10.0351V9.83506C25.0427 9.83506 24.7702 9.76433 24.5421 9.62678L24.4389 9.79804ZM25.3635 10.0351C25.6343 10.0351 25.872 9.99673 26.0742 9.91672L26.0006 9.73076C25.8277 9.79918 25.6162 9.83506 25.3635 9.83506V10.0351ZM26.0752 9.91632C26.2741 9.83512 26.4392 9.73785 26.5672 9.62268L26.4334 9.47402C26.327 9.56978 26.1834 9.65611 25.9996 9.73115L26.0752 9.91632ZM26.5685 9.62145C26.6908 9.50728 26.7823 9.39397 26.8365 9.28107L26.6562 9.19453C26.6166 9.27694 26.5441 9.37066 26.432 9.47524L26.5685 9.62145ZM26.8383 9.27719L26.8559 9.23618L26.672 9.15739L26.6544 9.19841L26.8383 9.27719ZM26.7639 9.29678H28.1467V9.09678H26.7639V9.29678ZM28.0491 9.17509L28.0374 9.22783L28.2326 9.27121L28.2444 9.21848L28.0491 9.17509ZM28.0379 9.2257C27.9902 9.42031 27.9014 9.62126 27.7694 9.82864L27.9381 9.93602C28.0796 9.71372 28.1783 9.49279 28.2322 9.27334L28.0379 9.2257ZM27.7692 9.82905C27.6433 10.0289 27.4698 10.2181 27.2466 10.3959L27.3712 10.5523C27.6089 10.363 27.7986 10.1576 27.9384 9.93561L27.7692 9.82905ZM27.2467 10.3958C27.0306 10.5672 26.7637 10.7087 26.4442 10.8191L26.5095 11.0081C26.8462 10.8919 27.134 10.7404 27.371 10.5525L27.2467 10.3958ZM26.4452 10.8187C26.1295 10.924 25.7597 10.9776 25.3342 10.9776V11.1776C25.776 11.1776 26.1679 11.122 26.5084 11.0084L26.4452 10.8187ZM29.4102 10.9487V4.54444H29.2102V10.9487H29.4102ZM29.3102 4.64444H30.7692V4.44444H29.3102V4.64444ZM30.6692 4.54444V5.52882H30.8692V4.54444H30.6692ZM30.7692 5.62882H30.8688V5.42882H30.7692V5.62882ZM30.9641 5.55914C31.0671 5.23533 31.2494 4.98678 31.511 4.80875L31.3985 4.64341C31.0975 4.8482 30.8892 5.1348 30.7735 5.4985L30.9641 5.55914ZM31.5105 4.80911C31.7757 4.63107 32.1087 4.53897 32.5153 4.53897V4.33897C32.0781 4.33897 31.704 4.43828 31.399 4.64305L31.5105 4.80911ZM32.5153 4.53897C32.6199 4.53897 32.7224 4.54644 32.8229 4.56133L32.8522 4.36349C32.7417 4.34713 32.6294 4.33897 32.5153 4.33897V4.53897ZM32.8269 4.56184C32.9332 4.57324 33.0172 4.58811 33.0803 4.60564L33.1338 4.41293C33.0563 4.3914 32.9606 4.37502 32.8482 4.36298L32.8269 4.56184ZM33.0071 4.50928V5.81593H33.2071V4.50928H33.0071ZM33.1298 5.71854C33.0082 5.69018 32.8847 5.66994 32.7593 5.6578L32.74 5.85687C32.8567 5.86816 32.9715 5.88698 33.0843 5.91331L33.1298 5.71854ZM32.7629 5.65821C32.6409 5.64195 32.5134 5.63389 32.3805 5.63389V5.83389C32.5054 5.83389 32.624 5.84146 32.7364 5.85645L32.7629 5.65821ZM32.3805 5.63389C32.0438 5.63389 31.7447 5.69681 31.4862 5.82609L31.5756 6.00498C31.8014 5.89207 32.0688 5.83389 32.3805 5.83389V5.63389ZM31.4862 5.82609C31.2272 5.95556 31.025 6.14264 30.8821 6.38645L31.0547 6.48759C31.1774 6.27828 31.3502 6.11769 31.5756 6.00498L31.4862 5.82609ZM30.8825 6.38579C30.7389 6.62647 30.6692 6.9085 30.6692 7.22803H30.8692C30.8692 6.93819 30.9322 6.69288 31.0543 6.48825L30.8825 6.38579ZM30.6692 7.22803V10.9487H30.8692V7.22803H30.6692ZM30.7692 10.8487H29.3102V11.0487H30.7692V10.8487ZM34.7924 10.9487V5.6753H34.5924V10.9487H34.7924ZM34.6924 5.5753H33.6435V5.7753H34.6924V5.5753ZM33.7435 5.6753V4.54444H33.5435V5.6753H33.7435ZM33.6435 4.64444H34.6924V4.44444H33.6435V4.64444ZM34.7924 4.54444V3.91163H34.5924V4.54444H34.7924ZM34.7924 3.91163C34.7924 3.49241 34.863 3.15389 34.9981 2.89093L34.8202 2.79951C34.6663 3.09905 34.5924 3.47147 34.5924 3.91163H34.7924ZM34.9976 2.8919C35.1349 2.6318 35.3458 2.43791 35.6352 2.3097L35.5542 2.12684C35.2264 2.27207 34.9803 2.49614 34.8207 2.79855L34.9976 2.8919ZM35.6362 2.30927C35.9277 2.17643 36.303 2.10733 36.7666 2.10733V1.90733C36.2849 1.90733 35.8789 1.97886 35.5533 2.12727L35.6362 2.30927ZM36.7666 2.10733C36.9204 2.10733 37.062 2.1131 37.1914 2.12452L37.209 1.9253C37.0728 1.91328 36.9253 1.90733 36.7666 1.90733V2.10733ZM37.1943 2.12474C37.324 2.13236 37.4433 2.14566 37.5523 2.16447L37.5863 1.96738C37.4688 1.94712 37.342 1.93308 37.2061 1.92508L37.1943 2.12474ZM37.4693 2.06593V3.08546H37.6693V2.06593H37.4693ZM37.5835 2.98646C37.5244 2.97802 37.4505 2.97196 37.3629 2.96798L37.3539 3.16777C37.4381 3.17161 37.5049 3.17727 37.5552 3.18445L37.5835 2.98646ZM37.3674 2.96829C37.278 2.96016 37.1812 2.95616 37.0771 2.95616V3.15616C37.1762 3.15616 37.2669 3.15997 37.3493 3.16747L37.3674 2.96829ZM37.0771 2.95616C36.7215 2.95616 36.4427 3.03852 36.2705 3.2294L36.419 3.36339C36.5358 3.23396 36.7452 3.15616 37.0771 3.15616V2.95616ZM36.2713 3.22849C36.1033 3.41007 36.0279 3.6711 36.0279 3.99366H36.2279C36.2279 3.69903 36.297 3.49522 36.4181 3.3643L36.2713 3.22849ZM36.0279 3.99366V4.54444H36.2279V3.99366H36.0279ZM36.1279 4.64444H37.5166V4.44444H36.1279V4.64444ZM37.4166 4.54444V5.6753H37.6166V4.54444H37.4166ZM37.5166 5.5753H36.1514V5.7753H37.5166V5.5753ZM36.0514 5.6753V10.9487H36.2514V5.6753H36.0514ZM36.1514 10.8487H34.6924V11.0487H36.1514V10.8487ZM41.0707 10.9776C40.4482 10.9776 39.9197 10.846 39.4808 10.5872L39.3792 10.7595C39.8545 11.0398 40.4197 11.1776 41.0707 11.1776V10.9776ZM39.4812 10.5874C39.0454 10.3282 38.7088 9.96023 38.4708 9.48047L38.2916 9.56935C38.5458 10.0818 38.9084 10.4794 39.3789 10.7593L39.4812 10.5874ZM38.4708 9.48047C38.2329 9.00097 38.1121 8.42895 38.1121 7.76124H37.9121C37.9121 8.4529 38.0373 9.05666 38.2916 9.56935L38.4708 9.48047ZM38.1121 7.76124V7.75538H37.9121V7.76124H38.1121ZM38.1121 7.75538C38.1121 7.09549 38.231 6.52502 38.4653 6.04116L38.2853 5.95397C38.0353 6.47011 37.9121 7.07152 37.9121 7.75538H38.1121ZM38.4651 6.04173C38.7033 5.55772 39.0383 5.18578 39.4703 4.92283L39.3663 4.75199C38.8999 5.03591 38.5396 5.43741 38.2856 5.95341L38.4651 6.04173ZM39.4708 4.9225C39.9021 4.65627 40.4106 4.52139 41.0003 4.52139V4.32139C40.3791 4.32139 39.833 4.46386 39.3658 4.75232L39.4708 4.9225ZM41.0003 4.52139C41.5947 4.52139 42.0992 4.65269 42.5182 4.91083L42.6231 4.74055C42.1671 4.45963 41.6248 4.32139 41.0003 4.32139V4.52139ZM42.5191 4.91137C42.9435 5.16674 43.2704 5.52515 43.5006 5.98926L43.6798 5.9004C43.4334 5.40357 43.0807 5.01589 42.6222 4.74001L42.5191 4.91137ZM43.5006 5.98926C43.7308 6.45341 43.8476 7.00014 43.8476 7.63233H44.0476C44.0476 6.97546 43.9262 6.39719 43.6798 5.9004L43.5006 5.98926ZM43.8476 7.63233V8.1128H44.0476V7.63233H43.8476ZM43.9476 8.0128H38.7445V8.2128H43.9476V8.0128ZM38.8445 8.1128V7.13428H38.6445V8.1128H38.8445ZM38.7445 7.23428H43.2328V7.03428H38.7445V7.23428ZM43.1599 7.06579L42.4685 7.80129L42.6142 7.93828L43.3056 7.20278L43.1599 7.06579ZM42.6414 7.86978V7.46827H42.4414V7.86978H42.6414ZM42.6414 7.46827C42.6414 7.03319 42.5756 6.66432 42.4389 6.36606L42.2571 6.44939C42.3782 6.71362 42.4414 7.05178 42.4414 7.46827H42.6414ZM42.4389 6.36606C42.3029 6.06942 42.1109 5.842 41.861 5.68955L41.7569 5.86027C41.9679 5.98907 42.1352 6.18352 42.2571 6.44939L42.4389 6.36606ZM41.8617 5.68995C41.6173 5.53828 41.3349 5.46397 41.0179 5.46397V5.66397C41.3025 5.66397 41.5474 5.73029 41.7562 5.85987L41.8617 5.68995ZM41.0179 5.46397C40.6999 5.46397 40.4134 5.54272 40.1617 5.70215L40.2687 5.87111C40.4857 5.73366 40.7344 5.66397 41.0179 5.66397V5.46397ZM40.1621 5.70191C39.9131 5.85803 39.7178 6.08854 39.5742 6.38793L39.7546 6.47439C39.8845 6.20347 40.0563 6.00429 40.2683 5.87135L40.1621 5.70191ZM39.574 6.38846C39.4332 6.68661 39.3652 7.04785 39.3652 7.46827H39.5652C39.5652 7.06838 39.63 6.73821 39.7548 6.47386L39.574 6.38846ZM39.3652 7.46827V8.05421H39.5652V7.46827H39.3652ZM39.3652 8.05421C39.3652 8.45966 39.4334 8.81289 39.574 9.11058L39.7548 9.02518C39.6298 8.76036 39.5652 8.43781 39.5652 8.05421H39.3652ZM39.5742 9.11107C39.7145 9.40411 39.9143 9.6339 40.1737 9.79706L40.2802 9.62776C40.0551 9.48623 39.8799 9.28633 39.7546 9.02469L39.5742 9.11107ZM40.1753 9.79804C40.4394 9.95737 40.7489 10.0351 41.1 10.0351V9.83506C40.7791 9.83506 40.5066 9.76433 40.2786 9.62678L40.1753 9.79804ZM41.1 10.0351C41.3707 10.0351 41.6085 9.99673 41.8106 9.91672L41.737 9.73076C41.5641 9.79918 41.3526 9.83506 41.1 9.83506V10.0351ZM41.8116 9.91632C42.0105 9.83512 42.1756 9.73785 42.3036 9.62268L42.1698 9.47402C42.0634 9.56978 41.9199 9.65611 41.736 9.73115L41.8116 9.91632ZM42.3049 9.62145C42.4272 9.50728 42.5187 9.39397 42.5729 9.28107L42.3926 9.19453C42.3531 9.27694 42.2805 9.37066 42.1684 9.47524L42.3049 9.62145ZM42.5747 9.27719L42.5923 9.23618L42.4084 9.15739L42.3909 9.19841L42.5747 9.27719ZM42.5003 9.29678H43.8832V9.09678H42.5003V9.29678ZM43.7855 9.17509L43.7738 9.22783L43.9691 9.27121L43.9808 9.21848L43.7855 9.17509ZM43.7743 9.2257C43.7266 9.42031 43.6378 9.62126 43.5058 9.82864L43.6746 9.93602C43.816 9.71372 43.9147 9.49279 43.9686 9.27334L43.7743 9.2257ZM43.5056 9.82905C43.3797 10.0289 43.2062 10.2181 42.983 10.3959L43.1076 10.5523C43.3453 10.363 43.535 10.1576 43.6748 9.93561L43.5056 9.82905ZM42.9831 10.3958C42.767 10.5672 42.5001 10.7087 42.1806 10.8191L42.2459 11.0081C42.5826 10.8919 42.8704 10.7404 43.1074 10.5525L42.9831 10.3958ZM42.1816 10.8187C41.8659 10.924 41.4961 10.9776 41.0707 10.9776V11.1776C41.5124 11.1776 41.9043 11.122 42.2449 11.0084L42.1816 10.8187ZM47.7946 10.9776C47.1639 10.9776 46.6313 10.8477 46.1925 10.5927L46.092 10.7657C46.5674 11.0419 47.1363 11.1776 47.7946 11.1776V10.9776ZM46.1925 10.5927C45.7536 10.3377 45.4174 9.97021 45.1835 9.48718L45.0035 9.57436C45.2539 10.0913 45.6169 10.4895 46.092 10.7657L46.1925 10.5927ZM45.1835 9.48718C44.9493 9.00374 44.8302 8.42171 44.8302 7.7378H44.6302C44.6302 8.44451 44.7533 9.05779 45.0035 9.57436L45.1835 9.48718ZM44.8302 7.7378V7.72608H44.6302V7.7378H44.8302ZM44.8302 7.72608C44.8302 7.0461 44.9493 6.47019 45.1832 5.99484L45.0037 5.90654C44.7533 6.41557 44.6302 7.02325 44.6302 7.72608H44.8302ZM45.1832 5.99484C45.417 5.51975 45.753 5.158 46.192 4.90661L46.0926 4.73305C45.6175 5.0051 45.2543 5.39726 45.0037 5.90654L45.1832 5.99484ZM46.1925 4.90629C46.6314 4.65124 47.1621 4.52139 47.7888 4.52139V4.32139C47.1342 4.32139 46.5673 4.45717 46.092 4.73337L46.1925 4.90629ZM47.7888 4.52139C48.3282 4.52139 48.7852 4.61514 49.1631 4.79847L49.2504 4.61853C48.8392 4.41906 48.3509 4.32139 47.7888 4.32139V4.52139ZM49.1642 4.79899C49.5479 4.97956 49.848 5.23012 50.0676 5.55023L50.2326 5.43709C49.9912 5.08533 49.6625 4.81245 49.2493 4.61802L49.1642 4.79899ZM50.0684 5.55133C50.2923 5.86852 50.4316 6.24119 50.4844 6.67186L50.683 6.64749C50.6265 6.18753 50.4767 5.78286 50.2318 5.43599L50.0684 5.55133ZM50.4837 6.65968V6.68311H50.6837V6.65968H50.4837ZM50.5837 6.58311H49.2067V6.78311H50.5837V6.58311ZM49.3016 6.65149L49.2958 6.63391L49.106 6.69716L49.1119 6.71474L49.3016 6.65149ZM49.2987 6.64475C49.2278 6.31104 49.064 6.03525 48.808 5.82124L48.6797 5.97468C48.9003 6.1591 49.0412 6.39503 49.1031 6.68632L49.2987 6.64475ZM48.8086 5.82176C48.5514 5.60311 48.2097 5.49913 47.7946 5.49913V5.69913C48.1765 5.69913 48.4676 5.79437 48.6791 5.97415L48.8086 5.82176ZM47.7946 5.49913C47.445 5.49913 47.139 5.58789 46.8816 5.76935L46.9968 5.93282C47.2159 5.77834 47.4803 5.69913 47.7946 5.69913V5.49913ZM46.8809 5.7698C46.6283 5.95085 46.4379 6.20989 46.3071 6.5409L46.4931 6.61439C46.6123 6.31259 46.7813 6.08725 46.9974 5.93236L46.8809 5.7698ZM46.3071 6.5409C46.1763 6.87209 46.1126 7.2681 46.1126 7.72608H46.3126C46.3126 7.28563 46.374 6.91601 46.4931 6.61439L46.3071 6.5409ZM46.1126 7.72608V7.7378H46.3126V7.72608H46.1126ZM46.1126 7.7378C46.1126 8.19968 46.1763 8.60119 46.3068 8.93979L46.4934 8.86784C46.374 8.558 46.3126 8.18217 46.3126 7.7378H46.1126ZM46.3073 8.94115C46.4419 9.27546 46.6339 9.53792 46.8859 9.72274L47.0042 9.56146C46.7874 9.40252 46.6161 9.17279 46.4929 8.86648L46.3073 8.94115ZM46.8868 9.72338C47.1406 9.9053 47.445 9.99405 47.7946 9.99405V9.79405C47.4802 9.79405 47.2182 9.71483 47.0033 9.56081L46.8868 9.72338ZM47.7946 9.99405C48.1883 9.99405 48.516 9.90471 48.7685 9.7164L48.6489 9.55607C48.4405 9.71151 48.1588 9.79405 47.7946 9.79405V9.99405ZM48.7678 9.71688C49.024 9.52902 49.1971 9.25381 49.2916 8.90035L49.0984 8.84868C49.0133 9.16711 48.8621 9.3997 48.6496 9.5556L48.7678 9.71688ZM49.2845 8.91924L49.2962 8.8958L49.1173 8.80636L49.1056 8.8298L49.2845 8.91924ZM49.2072 8.95108L50.5783 8.94522L50.5774 8.74522L49.2063 8.75108L49.2072 8.95108ZM50.4785 8.83418L50.4726 8.88691L50.6714 8.909L50.6772 8.85627L50.4785 8.83418ZM50.4733 8.88195C50.4052 9.30174 50.2582 9.66789 50.0336 9.98241L50.1963 10.0987C50.4404 9.75692 50.5981 9.36136 50.6707 8.91396L50.4733 8.88195ZM50.0331 9.98306C49.8133 10.2961 49.5185 10.5411 49.1463 10.7178L49.2321 10.8984C49.6333 10.708 49.9557 10.4412 50.1968 10.098L50.0331 9.98306ZM49.147 10.7174C48.7766 10.8895 48.3269 10.9776 47.7946 10.9776V11.1776C48.3483 11.1776 48.8283 11.0861 49.2313 10.8988L49.147 10.7174ZM54.2139 10.878C53.4873 10.878 52.9871 10.7438 52.69 10.4968L52.5621 10.6506C52.9135 10.9427 53.4719 11.078 54.2139 11.078V10.878ZM52.69 10.4968C52.3975 10.2537 52.2397 9.847 52.2397 9.24952H52.0397C52.0397 9.87859 52.2062 10.3547 52.5621 10.6506L52.69 10.4968ZM52.2397 9.24952V5.6753H52.0397V9.24952H52.2397ZM52.1397 5.5753H51.1436V5.7753H52.1397V5.5753ZM51.2436 5.6753V4.54444H51.0436V5.6753H51.2436ZM51.1436 4.64444H52.1397V4.44444H51.1436V4.64444ZM52.2397 4.54444V2.97413H52.0397V4.54444H52.2397ZM52.1397 3.07413H53.6221V2.87413H52.1397V3.07413ZM53.5221 2.97413V4.54444H53.7221V2.97413H53.5221ZM53.6221 4.64444H54.9698V4.44444H53.6221V4.64444ZM54.8698 4.54444V5.6753H55.0698V4.54444H54.8698ZM54.9698 5.5753H53.6221V5.7753H54.9698V5.5753ZM53.5221 5.6753V8.90382H53.7221V5.6753H53.5221ZM53.5221 8.90382C53.5221 9.23107 53.5903 9.49283 53.7468 9.66776L53.8959 9.5344C53.7868 9.41246 53.7221 9.20937 53.7221 8.90382H53.5221ZM53.7487 9.6698C53.9122 9.84258 54.1633 9.91788 54.4776 9.91788V9.71788C54.1903 9.71788 54.004 9.64864 53.894 9.53236L53.7487 9.6698ZM54.4776 9.91788C54.584 9.91788 54.6721 9.91591 54.7413 9.91185L54.7295 9.71219C54.6659 9.71594 54.5821 9.71788 54.4776 9.71788V9.91788ZM54.7465 9.91141C54.816 9.90368 54.8934 9.89594 54.9788 9.88817L54.9607 9.68899C54.8743 9.69685 54.7955 9.70473 54.7244 9.71263L54.7465 9.91141ZM54.8698 9.78858V10.9136H55.0698V9.78858H54.8698ZM54.9509 10.8154C54.8535 10.8341 54.7398 10.8493 54.6094 10.8608L54.627 11.0601C54.7623 11.0481 54.883 11.0321 54.9887 11.0118L54.9509 10.8154ZM54.6092 10.8609C54.4835 10.8723 54.3518 10.878 54.2139 10.878V11.078C54.3573 11.078 54.4951 11.0721 54.6273 11.06L54.6092 10.8609ZM60.8972 10.9228L58.6296 2.46776L58.4364 2.51956L60.704 10.9746L60.8972 10.9228ZM58.533 2.59366H60.1033V2.39366H58.533V2.59366ZM60.0058 2.51598L61.459 8.86168L61.6539 8.81704L60.2008 2.47134L60.0058 2.51598ZM61.5564 8.93936H61.6385V8.73936H61.5564V8.93936ZM61.7352 8.86481L63.4051 2.51911L63.2117 2.46821L61.5418 8.81391L61.7352 8.86481ZM63.3084 2.59366H64.6502V2.39366H63.3084V2.59366ZM64.5535 2.51936L66.241 8.86506L66.4343 8.81366L64.7468 2.46796L64.5535 2.51936ZM66.3377 8.93936H66.4197V8.73936H66.3377V8.93936ZM66.5172 8.8616L67.9645 2.5159L67.7695 2.47142L66.3222 8.81713L66.5172 8.8616ZM67.867 2.59366H69.4256V2.39366H67.867V2.59366ZM69.329 2.46782L67.0673 10.9229L67.2605 10.9746L69.5222 2.5195L69.329 2.46782ZM67.1639 10.8487H65.7459V11.0487H67.1639V10.8487ZM65.8421 10.9214L64.1194 4.86863L63.9271 4.92338L65.6497 10.9761L65.8421 10.9214ZM64.0232 4.796H63.9353V4.996H64.0232V4.796ZM63.8391 4.8688L62.1282 10.9215L62.3206 10.9759L64.0316 4.9232L63.8391 4.8688ZM62.2244 10.8487H60.8006V11.0487H62.2244V10.8487ZM72.5636 10.9776C71.9412 10.9776 71.4126 10.846 70.9738 10.5872L70.8722 10.7595C71.3474 11.0398 71.9126 11.1776 72.5636 11.1776V10.9776ZM70.9741 10.5874C70.5384 10.3282 70.2017 9.96023 69.9638 9.48047L69.7846 9.56935C70.0388 10.0818 70.4013 10.4794 70.8719 10.7593L70.9741 10.5874ZM69.9638 9.48047C69.7259 9.00097 69.605 8.42895 69.605 7.76124H69.405C69.405 8.4529 69.5303 9.05666 69.7846 9.56935L69.9638 9.48047ZM69.605 7.76124V7.75538H69.405V7.76124H69.605ZM69.605 7.75538C69.605 7.09549 69.7239 6.52502 69.9583 6.04116L69.7783 5.95397C69.5283 6.47011 69.405 7.07152 69.405 7.75538H69.605ZM69.958 6.04173C70.1963 5.55772 70.5313 5.18578 70.9633 4.92283L70.8593 4.75199C70.3928 5.03591 70.0326 5.43741 69.7786 5.95341L69.958 6.04173ZM70.9638 4.9225C71.395 4.65627 71.9036 4.52139 72.4933 4.52139V4.32139C71.8721 4.32139 71.326 4.46386 70.8587 4.75232L70.9638 4.9225ZM72.4933 4.52139C73.0876 4.52139 73.5922 4.65269 74.0112 4.91083L74.1161 4.74055C73.6601 4.45963 73.1177 4.32139 72.4933 4.32139V4.52139ZM74.0121 4.91137C74.4364 5.16674 74.7634 5.52515 74.9936 5.98926L75.1727 5.9004C74.9263 5.40357 74.5736 5.01589 74.1152 4.74001L74.0121 4.91137ZM74.9936 5.98926C75.2237 6.45341 75.3406 7.00014 75.3406 7.63233H75.5406C75.5406 6.97546 75.4191 6.39719 75.1727 5.9004L74.9936 5.98926ZM75.3406 7.63233V8.1128H75.5406V7.63233H75.3406ZM75.4406 8.0128H70.2374V8.2128H75.4406V8.0128ZM70.3374 8.1128V7.13428H70.1375V8.1128H70.3374ZM70.2374 7.23428H74.7257V7.03428H70.2374V7.23428ZM74.654 7.06456L73.9626 7.77543L74.106 7.91487L74.7974 7.20401L74.654 7.06456ZM74.1343 7.84515V7.46827H73.9343V7.84515H74.1343ZM74.1343 7.46827C74.1343 7.03319 74.0686 6.66432 73.9319 6.36606L73.7501 6.44939C73.8712 6.71362 73.9343 7.05178 73.9343 7.46827H74.1343ZM73.9319 6.36606C73.7959 6.06942 73.6039 5.842 73.354 5.68955L73.2498 5.86027C73.4609 5.98907 73.6282 6.18352 73.7501 6.44939L73.9319 6.36606ZM73.3546 5.68995C73.1103 5.53828 72.8279 5.46397 72.5109 5.46397V5.66397C72.7955 5.66397 73.0404 5.73029 73.2492 5.85987L73.3546 5.68995ZM72.5109 5.46397C72.1928 5.46397 71.9064 5.54272 71.6546 5.70215L71.7617 5.87111C71.9787 5.73366 72.2274 5.66397 72.5109 5.66397V5.46397ZM71.655 5.70191C71.4061 5.85803 71.2107 6.08854 71.0672 6.38793L71.2475 6.47439C71.3774 6.20347 71.5493 6.00429 71.7613 5.87135L71.655 5.70191ZM71.0669 6.38846C70.9262 6.68661 70.8582 7.04785 70.8582 7.46827H71.0582C71.0582 7.06838 71.123 6.73821 71.2478 6.47386L71.0669 6.38846ZM70.8582 7.46827V8.05421H71.0582V7.46827H70.8582ZM70.8582 8.05421C70.8582 8.45966 70.9264 8.81289 71.0669 9.11058L71.2478 9.02518C71.1227 8.76036 71.0582 8.43781 71.0582 8.05421H70.8582ZM71.0672 9.11107C71.2075 9.40411 71.4073 9.6339 71.6666 9.79706L71.7731 9.62776C71.5481 9.48623 71.3729 9.28633 71.2476 9.02469L71.0672 9.11107ZM71.6682 9.79804C71.9324 9.95737 72.2419 10.0351 72.5929 10.0351V9.83506C72.2721 9.83506 71.9996 9.76433 71.7715 9.62678L71.6682 9.79804ZM72.5929 10.0351C72.8637 10.0351 73.1014 9.99673 73.3036 9.91672L73.2299 9.73076C73.0571 9.79918 72.8456 9.83506 72.5929 9.83506V10.0351ZM73.3045 9.91632C73.5035 9.83512 73.6686 9.73785 73.7965 9.62268L73.6627 9.47402C73.5563 9.56978 73.4128 9.65611 73.229 9.73115L73.3045 9.91632ZM73.7979 9.62145C73.9202 9.50728 74.0117 9.39397 74.0659 9.28107L73.8856 9.19453C73.846 9.27694 73.7735 9.37066 73.6614 9.47524L73.7979 9.62145ZM74.0676 9.27719L74.0852 9.23618L73.9014 9.15739L73.8838 9.19841L74.0676 9.27719ZM73.9933 9.29678H75.3761V9.09678H73.9933V9.29678ZM75.2785 9.17509L75.2668 9.22783L75.462 9.27121L75.4737 9.21848L75.2785 9.17509ZM75.2673 9.2257C75.2195 9.42031 75.1308 9.62126 74.9988 9.82864L75.1675 9.93602C75.309 9.71372 75.4077 9.49279 75.4615 9.27334L75.2673 9.2257ZM74.9985 9.82905C74.8727 10.0289 74.6992 10.2181 74.4759 10.3959L74.6005 10.5523C74.8382 10.363 75.028 10.1576 75.1678 9.93561L74.9985 9.82905ZM74.4761 10.3958C74.2599 10.5672 73.9931 10.7087 73.6736 10.8191L73.7388 11.0081C74.0756 10.8919 74.3634 10.7404 74.6004 10.5525L74.4761 10.3958ZM73.6746 10.8187C73.3589 10.924 72.9891 10.9776 72.5636 10.9776V11.1776C73.0054 11.1776 73.3973 11.122 73.7378 11.0084L73.6746 10.8187ZM79.2818 10.9776C78.6593 10.9776 78.1308 10.846 77.6919 10.5872L77.5903 10.7595C78.0656 11.0398 78.6308 11.1776 79.2818 11.1776V10.9776ZM77.6923 10.5874C77.2565 10.3282 76.9199 9.96023 76.6819 9.48047L76.5027 9.56935C76.7569 10.0818 77.1195 10.4794 77.59 10.7593L77.6923 10.5874ZM76.6819 9.48047C76.444 9.00097 76.3232 8.42895 76.3232 7.76124H76.1232C76.1232 8.4529 76.2484 9.05666 76.5027 9.56935L76.6819 9.48047ZM76.3232 7.76124V7.75538H76.1232V7.76124H76.3232ZM76.3232 7.75538C76.3232 7.09549 76.4421 6.52502 76.6764 6.04116L76.4964 5.95397C76.2464 6.47011 76.1232 7.07152 76.1232 7.75538H76.3232ZM76.6762 6.04173C76.9144 5.55772 77.2494 5.18578 77.6814 4.92283L77.5774 4.75199C77.111 5.03591 76.7507 5.43741 76.4967 5.95341L76.6762 6.04173ZM77.6819 4.9225C78.1132 4.65627 78.6217 4.52139 79.2114 4.52139V4.32139C78.5902 4.32139 78.0441 4.46386 77.5769 4.75232L77.6819 4.9225ZM79.2114 4.52139C79.8058 4.52139 80.3103 4.65269 80.7293 4.91083L80.8342 4.74055C80.3782 4.45963 79.8359 4.32139 79.2114 4.32139V4.52139ZM80.7302 4.91137C81.1546 5.16674 81.4815 5.52515 81.7117 5.98926L81.8909 5.9004C81.6445 5.40357 81.2918 5.01589 80.8333 4.74001L80.7302 4.91137ZM81.7117 5.98926C81.9419 6.45341 82.0587 7.00014 82.0587 7.63233H82.2587C82.2587 6.97546 82.1373 6.39719 81.8909 5.9004L81.7117 5.98926ZM82.0587 7.63233V8.1128H82.2587V7.63233H82.0587ZM82.1587 8.0128H76.9556V8.2128H82.1587V8.0128ZM77.0556 8.1128V7.13428H76.8556V8.1128H77.0556ZM76.9556 7.23428H81.4439V7.03428H76.9556V7.23428ZM81.3701 7.06676L80.6787 7.82202L80.8262 7.95707L81.5176 7.20181L81.3701 7.06676ZM80.8525 7.88954V7.46827H80.6525V7.88954H80.8525ZM80.8525 7.46827C80.8525 7.03319 80.7867 6.66432 80.65 6.36606L80.4682 6.44939C80.5893 6.71362 80.6525 7.05178 80.6525 7.46827H80.8525ZM80.65 6.36606C80.514 6.06942 80.322 5.842 80.0721 5.68955L79.9679 5.86027C80.179 5.98907 80.3463 6.18352 80.4682 6.44939L80.65 6.36606ZM80.0728 5.68995C79.8284 5.53828 79.546 5.46397 79.229 5.46397V5.66397C79.5136 5.66397 79.7585 5.73029 79.9673 5.85987L80.0728 5.68995ZM79.229 5.46397C78.9109 5.46397 78.6245 5.54272 78.3728 5.70215L78.4798 5.87111C78.6968 5.73366 78.9455 5.66397 79.229 5.66397V5.46397ZM78.3732 5.70191C78.1242 5.85803 77.9289 6.08854 77.7853 6.38793L77.9657 6.47439C78.0956 6.20347 78.2674 6.00429 78.4794 5.87135L78.3732 5.70191ZM77.7851 6.38846C77.6443 6.68661 77.5763 7.04785 77.5763 7.46827H77.7763C77.7763 7.06838 77.8411 6.73821 77.9659 6.47386L77.7851 6.38846ZM77.5763 7.46827V8.05421H77.7763V7.46827H77.5763ZM77.5763 8.05421C77.5763 8.45966 77.6445 8.81289 77.7851 9.11058L77.9659 9.02518C77.8409 8.76036 77.7763 8.43781 77.7763 8.05421H77.5763ZM77.7853 9.11107C77.9256 9.40411 78.1254 9.6339 78.3848 9.79706L78.4912 9.62776C78.2662 9.48623 78.091 9.28633 77.9657 9.02469L77.7853 9.11107ZM78.3864 9.79804C78.6505 9.95737 78.96 10.0351 79.3111 10.0351V9.83506C78.9902 9.83506 78.7177 9.76433 78.4897 9.62678L78.3864 9.79804ZM79.3111 10.0351C79.5818 10.0351 79.8195 9.99673 80.0217 9.91672L79.9481 9.73076C79.7752 9.79918 79.5637 9.83506 79.3111 9.83506V10.0351ZM80.0227 9.91632C80.2216 9.83512 80.3867 9.73785 80.5147 9.62268L80.3809 9.47402C80.2745 9.56978 80.131 9.65611 79.9471 9.73115L80.0227 9.91632ZM80.516 9.62145C80.6383 9.50728 80.7298 9.39397 80.784 9.28107L80.6037 9.19453C80.5642 9.27694 80.4916 9.37066 80.3795 9.47524L80.516 9.62145ZM80.7858 9.27719L80.8034 9.23618L80.6195 9.15739L80.602 9.19841L80.7858 9.27719ZM80.7114 9.29678H82.0943V9.09678H80.7114V9.29678ZM81.9966 9.17509L81.9849 9.22783L82.1802 9.27121L82.1919 9.21848L81.9966 9.17509ZM81.9854 9.2257C81.9377 9.42031 81.8489 9.62126 81.7169 9.82864L81.8857 9.93602C82.0271 9.71372 82.1258 9.49279 82.1797 9.27334L81.9854 9.2257ZM81.7167 9.82905C81.5908 10.0289 81.4173 10.2181 81.1941 10.3959L81.3187 10.5523C81.5564 10.363 81.7461 10.1576 81.8859 9.93561L81.7167 9.82905ZM81.1942 10.3958C80.9781 10.5672 80.7112 10.7087 80.3917 10.8191L80.457 11.0081C80.7937 10.8919 81.0815 10.7404 81.3185 10.5525L81.1942 10.3958ZM80.3927 10.8187C80.077 10.924 79.7072 10.9776 79.2818 10.9776V11.1776C79.7235 11.1776 80.1154 11.122 80.456 11.0084L80.3927 10.8187ZM83.4163 10.9487V2.06593H83.2163V10.9487H83.4163ZM83.3163 2.16593H84.7753V1.96592H83.3163V2.16593ZM84.6753 2.06593V10.9487H84.8753V2.06593H84.6753ZM84.7753 10.8487H83.3163V11.0487H84.7753V10.8487ZM87.422 10.8892L85.2657 7.9829L85.1051 8.10207L87.2614 11.0083L87.422 10.8892ZM85.2489 8.11975L86.3329 7.22913L86.2059 7.0746L85.1219 7.96522L85.2489 8.11975ZM86.1892 7.21154L89.0134 11.0084L89.1739 10.8891L86.3496 7.09218L86.1892 7.21154ZM89.0936 10.8487H87.3417V11.0487H89.0936V10.8487ZM84.7522 8.82445L84.6994 7.17211L84.4995 7.17849L84.5523 8.83083L84.7522 8.82445ZM84.5995 7.2753H84.8749V7.0753H84.5995V7.2753ZM84.9493 7.2421L87.3106 4.61124L87.1618 4.47764L84.8005 7.1085L84.9493 7.2421ZM87.2362 4.64444H88.9237V4.44444H87.2362V4.64444ZM88.8513 4.47549L86.0681 7.39932L86.2129 7.53722L88.9961 4.61339L88.8513 4.47549ZM86.079 7.38945L85.411 7.91093L85.5341 8.06858L86.202 7.54709L86.079 7.38945ZM85.4011 7.9198L84.5808 8.75769L84.7237 8.8976L85.544 8.05971L85.4011 7.9198Z" fill="url(#paint0_linear_2079_8103)" mask="url(#path-1-outside-1_2079_8103)"/>
  <defs>
    <filter id="filter0_ii_2079_8103" x="0.806641" y="0.650391" width="88.4863" height="14.7002" filterUnits="userSpaceOnUse" color-interpolation-filters="sRGB">
      <feFlood flood-opacity="0" result="BackgroundImageFix"/>
      <feBlend mode="normal" in="SourceGraphic" in2="BackgroundImageFix" result="shape"/>
      <feColorMatrix in="SourceAlpha" type="matrix" values="0 0 0 0 0 0 0 0 0 0 0 0 0 0 0 0 0 0 127 0" result="hardAlpha"/>
      <feOffset dy="4"/>
      <feGaussianBlur stdDeviation="2"/>
      <feComposite in2="hardAlpha" operator="arithmetic" k2="-1" k3="1"/>
      <feColorMatrix type="matrix" values="0 0 0 0 0 0 0 0 0 0 0 0 0 0 0 0 0 0 0.45 0"/>
      <feBlend mode="normal" in2="shape" result="effect1_innerShadow_2079_8103"/>
      <feColorMatrix in="SourceAlpha" type="matrix" values="0 0 0 0 0 0 0 0 0 0 0 0 0 0 0 0 0 0 127 0" result="hardAlpha"/>
      <feOffset dx="0.3" dy="0.3"/>
      <feComposite in2="hardAlpha" operator="arithmetic" k2="-1" k3="1"/>
      <feColorMatrix type="matrix" values="0 0 0 0 0 0 0 0 0 0 0 0 0 0 0 0 0 0 0.25 0"/>
      <feBlend mode="normal" in2="effect1_innerShadow_2079_8103" result="effect2_innerShadow_2079_8103"/>
    </filter>
    <linearGradient id="paint0_linear_2079_8103" x1="25" y1="-1.50001" x2="73" y2="16.5" gradientUnits="userSpaceOnUse">
      <stop stop-color="#F1E7AC"/>
      <stop offset="1" stop-color="#564A2B"/>
    </linearGradient>
  </defs>
</svg>