<svg width="28" height="29" viewBox="0 0 28 29" fill="none" xmlns="http://www.w3.org/2000/svg">
<path d="M4.66797 13.332V17.9987C4.66797 21.8485 4.66797 23.7734 5.86395 24.9694C7.05993 26.1654 8.98483 26.1654 12.8346 26.1654H15.168C19.0178 26.1654 20.9427 26.1654 22.1387 24.9694C23.3346 23.7734 23.3346 21.8485 23.3346 17.9987V13.332" stroke="#5ECC7B" stroke-width="1.75" stroke-linecap="round" stroke-linejoin="round"/>
<path d="M3.5 10.9993C3.5 10.127 3.5 9.69089 3.73446 9.36602C3.88805 9.15319 4.10897 8.97646 4.375 8.85358C4.78109 8.66602 5.32628 8.66602 6.41667 8.66602H21.5833C22.6737 8.66602 23.2189 8.66602 23.625 8.85358C23.891 8.97646 24.1119 9.15319 24.2655 9.36602C24.5 9.69089 24.5 10.127 24.5 10.9993C24.5 11.8717 24.5 12.3078 24.2655 12.6327C24.1119 12.8455 23.891 13.0222 23.625 13.1451C23.2189 13.3327 22.6737 13.3327 21.5833 13.3327H6.41667C5.32628 13.3327 4.78109 13.3327 4.375 13.1451C4.10897 13.0222 3.88805 12.8455 3.73446 12.6327C3.5 12.3078 3.5 11.8717 3.5 10.9993Z" stroke="#5ECC7B" stroke-width="1.75" stroke-linejoin="round"/>
<path d="M7 4.91536C7 3.76477 7.93274 2.83203 9.08333 2.83203H9.5C11.9853 2.83203 14 4.84675 14 7.33203V8.66536H10.75C8.67893 8.66536 7 6.98643 7 4.91536Z" stroke="#5ECC7B" stroke-width="1.75" stroke-linejoin="round"/>
<path d="M21 4.91536C21 3.76477 20.0673 2.83203 18.9167 2.83203H18.5C16.0147 2.83203 14 4.84675 14 7.33203V8.66536H17.25C19.3211 8.66536 21 6.98643 21 4.91536Z" stroke="#5ECC7B" stroke-width="1.75" stroke-linejoin="round"/>
<path d="M14 13.332L14 26.1654" stroke="#5ECC7B" stroke-width="1.75" stroke-linecap="round" stroke-linejoin="round"/>
</svg>
