<svg width="232" height="24" viewBox="0 0 232 24" fill="none" xmlns="http://www.w3.org/2000/svg">
<path fill-rule="evenodd" clip-rule="evenodd" d="M16.9414 20.1694V22.8594H19.7539V19.8761C21.7738 19.6667 23.7947 19.4599 25.8164 19.2558V22.8594H28.5352V18.9831C30.5971 18.7776 32.66 18.5749 34.7237 18.3752C34.7768 21.267 36.9347 23.1719 40.1289 23.1719C42.3008 23.1719 44.2539 22 45.207 20.2188H45.2695V22.8594H47.9883V17.1348C49.1391 17.031 50.2902 16.9282 51.4414 16.8264V22.8594H54.1602V16.588C56.8156 16.357 59.4719 16.1315 62.1289 15.9118V22.8594H64.8477V15.6889C66.9715 15.5165 69.0957 15.3477 71.2203 15.1828C71.6332 15.3384 72.087 15.475 72.582 15.5938L75.1602 16.2188C77.0039 16.6719 77.6133 17.3281 77.6133 18.5V18.5156C77.6133 19.9844 76.3008 20.9062 74.0977 20.9062C71.8789 20.9062 70.6758 19.9531 70.3477 18.3281L70.3164 18.1719H67.5977L67.6133 18.3125C67.9414 21.2188 70.2539 23.1719 74.082 23.1719C77.707 23.1719 80.3945 21.1719 80.3945 18.3281V18.3125C80.3945 16.617 79.7562 15.4675 78.1223 14.6607C80.1139 14.514 82.1057 14.3708 84.0977 14.2312V22.8594H86.8164V14.0429C88.0825 13.9563 89.3487 13.8711 90.6149 13.7874C90.5931 14.0854 90.582 14.3907 90.582 14.7031V14.7344C90.582 19.9062 93.5977 23.1719 98.1133 23.1719C102.598 23.1719 105.629 19.9219 105.629 14.7344V14.7031C105.629 14.0626 105.582 13.4521 105.493 12.874C106.455 12.8196 107.417 12.7661 108.379 12.7135V22.8594H111.098V12.8281C111.098 12.7398 111.099 12.6528 111.103 12.567C113.487 12.441 115.871 12.3208 118.254 12.2065V22.8594H120.973V12.6719C120.973 12.4688 120.985 12.2702 121.01 12.077C123.345 11.9695 125.68 11.8677 128.015 11.7719C128.018 11.8367 128.02 11.9024 128.02 11.9688V22.8594H130.738V12.5312C130.738 12.2285 130.766 11.9371 130.821 11.6596C133.12 11.5699 135.419 11.486 137.718 11.408C137.762 11.6765 137.785 11.9627 137.785 12.2656V22.8594H140.504V11.6406C140.504 11.5313 140.502 11.4233 140.497 11.3167C141.643 11.2802 142.788 11.2452 143.934 11.2118L143.926 11.2969H146.551L146.582 11.1562C146.583 11.1498 146.585 11.1434 146.586 11.137C148.25 11.0918 149.914 11.0499 151.578 11.0112C152.304 10.9968 153.031 10.9827 153.758 10.9689C153.828 11.2534 153.863 11.5612 153.863 11.8906V13.25L149.207 13.5156C145.473 13.7344 143.316 15.4688 143.316 18.2344V18.2656C143.316 21.2188 145.488 23.1719 148.723 23.1719C150.895 23.1719 152.848 22 153.801 20.2188H153.863V22.8594H156.582V11.625C156.582 11.3826 156.569 11.1467 156.542 10.9177C157.982 10.892 159.422 10.8677 160.863 10.8448V18.7188C160.863 21.8281 162.332 23.1719 165.316 23.1719C165.848 23.1719 166.426 23.1094 166.77 23.0625V20.8594C166.693 20.8645 166.608 20.8729 166.517 20.882C166.329 20.9006 166.115 20.9219 165.895 20.9219C164.441 20.9219 163.676 20.4375 163.676 18.7031V10.8023C165.737 10.7725 167.799 10.7461 169.863 10.7236V22.8594H172.582V10.6962C173.8 10.685 175.019 10.6752 176.238 10.6669C175.752 11.8217 175.488 13.1782 175.488 14.7031V14.7344C175.488 19.9062 178.504 23.1719 183.02 23.1719C187.504 23.1719 190.535 19.9219 190.535 14.7344V14.7031C190.535 13.1666 190.268 11.8028 189.775 10.6441C190.945 10.6486 192.115 10.6549 193.285 10.663V22.8594H196.004V13.2969C196.004 12.2898 196.226 11.4071 196.631 10.6916C198.973 10.7154 201.314 10.7471 203.654 10.7875C203.867 11.3508 203.973 12.0228 203.973 12.7969V22.8594H206.691V12.3125C206.691 11.7945 206.651 11.3037 206.572 10.8426C214.803 11.011 223.018 11.2919 231.195 11.7195C222.893 10.8388 214.575 10.1449 206.245 9.61742C205.458 7.52226 203.66 6.29688 201.066 6.29688C198.598 6.29688 196.941 7.40625 196.066 8.92188H196.004V6.60938H193.285V8.92838C191.729 8.86108 190.173 8.79921 188.616 8.74261C187.288 7.1711 185.341 6.29688 183.004 6.29688C180.829 6.29688 178.997 7.05735 177.685 8.43043C175.985 8.39483 174.283 8.36516 172.582 8.34125V6.60938H169.863V8.3079C168.832 8.29709 167.801 8.28836 166.77 8.28167V6.60938H163.676V2.21875H160.863V6.60938H158.488V8.27106C157.473 8.27495 156.457 8.28072 155.442 8.28833C154.374 7.0231 152.604 6.29688 150.332 6.29688C147.936 6.29688 146.127 7.14168 145.052 8.42895C143.265 8.46369 141.477 8.50374 139.69 8.54891C138.8 7.12883 137.228 6.29688 135.207 6.29688C133.168 6.29688 131.428 7.23344 130.434 8.82747C130.227 8.83471 130.019 8.84201 129.811 8.84938C129.012 7.21973 127.484 6.29688 125.488 6.29688C123.395 6.29688 121.77 7.375 121.035 8.98438H120.973V6.60938H118.254V9.3232C116.298 9.41393 114.343 9.50983 112.388 9.61063C112.963 9.14167 113.71 8.89062 114.582 8.89062C115.238 8.89062 115.816 8.96875 116.035 9.04688V6.40625C115.999 6.40104 115.957 6.39453 115.911 6.3873C115.679 6.35113 115.332 6.29688 114.941 6.29688C113.113 6.29688 111.707 7.48438 111.16 9.35938H111.098V6.60938H108.379V9.82414C107.113 9.89372 105.847 9.96527 104.581 10.0387C103.323 7.65885 101.015 6.29688 98.0977 6.29688C94.8452 6.29688 92.3571 7.9983 91.2356 10.9063C89.7635 11.0129 88.2904 11.123 86.8164 11.2366V8.85938H90.1289V6.60938H86.7852V4.625C86.7852 3.01562 87.5352 2.25 89.0352 2.25C89.457 2.25 89.8789 2.26562 90.207 2.3125V0.109375C89.8008 0.046875 89.1602 0 88.5508 0C85.5508 0 84.0977 1.48438 84.0977 4.60938V6.60938H81.832V8.85938H84.0977V11.4503C79.9339 11.7835 75.7645 12.145 71.5941 12.5345C71.0553 12.1225 70.8164 11.6015 70.8164 10.9688V10.9531C70.8164 9.51562 72.0352 8.5625 74.0039 8.5625C76.0195 8.5625 77.2227 9.60938 77.4414 11.1875L77.457 11.2969H80.0508L80.0352 11.0938C79.832 8.375 77.5664 6.29688 74.0039 6.29688C70.4883 6.29688 68.0352 8.28125 68.0352 11.0781V11.0938C68.0352 11.7454 68.1499 12.3258 68.3814 12.84C67.2034 12.954 66.0255 13.0703 64.8477 13.1887V12.3125C64.8477 8.60938 62.7852 6.29688 59.2227 6.29688C56.7539 6.29688 55.0977 7.40625 54.2227 8.92188H54.1602V6.60938H51.4414V14.6333C50.2898 14.7657 49.1387 14.9001 47.9883 15.0367V11.625C47.9883 8.375 45.582 6.29688 41.7383 6.29688C37.9102 6.29688 35.582 8.45312 35.3477 11.125L35.332 11.2969H37.957L37.9883 11.1562C38.3008 9.70312 39.6133 8.70312 41.707 8.70312C43.9727 8.70312 45.2695 9.90625 45.2695 11.8906V13.25L40.6133 13.5156C37.6422 13.6897 35.6701 14.823 34.988 16.6719C32.8332 16.9583 30.682 17.252 28.5352 17.5529V12.8281C28.5352 10.3594 29.9102 8.89062 32.0195 8.89062C32.6758 8.89062 33.2539 8.96875 33.4727 9.04688V6.40625C33.4362 6.40104 33.3945 6.39453 33.3482 6.3873C33.1168 6.35113 32.7695 6.29688 32.3789 6.29688C30.5508 6.29688 29.1445 7.48438 28.5977 9.35938H28.5352V6.60938H25.8164V17.9381C24.3662 18.1458 22.9182 18.3567 21.4724 18.571C20.9683 18.6504 20.3883 18.7417 19.7539 18.8414V2.84375H26.8633V0.3125H9.83203V2.84375H16.9414V19.283C16.8788 19.2928 16.8161 19.3027 16.7532 19.3126C13.3476 19.8471 9.45805 20.4576 7.15136 20.8254L2.9466e-06 22.0074C5.6383 21.3762 11.286 20.7627 16.9414 20.1694ZM37.5069 18.1077C37.5049 18.1495 37.5039 18.1917 37.5039 18.2344V18.2656C37.5039 19.8281 38.7852 20.8125 40.7383 20.8125C43.0403 20.8125 44.8632 19.3876 45.21 17.3873C42.6412 17.6226 40.0734 17.8628 37.5069 18.1077ZM45.2695 15.3634C43.0933 15.6281 40.9196 15.9002 38.7492 16.1797C39.3062 15.8677 40.0392 15.676 40.9258 15.625L45.2695 15.3594V15.3634ZM54.1602 14.3247C56.8144 14.0274 59.4711 13.7411 62.1289 13.4661V12.7969C62.1289 10.1562 60.8945 8.70312 58.3945 8.70312C55.832 8.70312 54.1602 10.5312 54.1602 13.2969V14.3247ZM93.4203 13.6044C93.3826 13.9541 93.3633 14.3205 93.3633 14.7031V14.7344C93.3633 18.5625 95.2539 20.7656 98.1289 20.7656C100.988 20.7656 102.848 18.5469 102.848 14.7344V14.7031C102.848 14.1061 102.802 13.549 102.713 13.0339C99.6156 13.2148 96.5179 13.4051 93.4203 13.6044ZM101.508 10.2209C101.269 10.2353 101.031 10.2497 100.793 10.2643C98.6571 10.3966 96.518 10.5367 94.3764 10.6844C95.2087 9.39966 96.5075 8.70312 98.0977 8.70312C99.5103 8.70312 100.682 9.23128 101.508 10.2209ZM122.97 9.11458C124.041 9.06958 125.112 9.02618 126.182 8.98444C125.747 8.80123 125.246 8.70312 124.691 8.70312C124.058 8.70312 123.477 8.8499 122.97 9.11458ZM198.218 9.16007C199.697 9.2351 201.176 9.31516 202.655 9.40036C202.055 8.94141 201.251 8.70312 200.238 8.70312C199.48 8.70312 198.8 8.86312 198.218 9.16007ZM179.306 10.6495C181.777 10.6381 184.25 10.6335 186.722 10.6365C187.385 11.6392 187.754 13.0111 187.754 14.7031V14.7344C187.754 18.5469 185.895 20.7656 183.035 20.7656C180.16 20.7656 178.27 18.5625 178.27 14.7344V14.7031C178.27 13.0217 178.643 11.6529 179.306 10.6495ZM149.332 20.8125C147.379 20.8125 146.098 19.8281 146.098 18.2656V18.2344C146.098 16.7188 147.348 15.75 149.52 15.625L153.863 15.3594V16.6875C153.863 19.0469 151.895 20.8125 149.332 20.8125ZM169.52 2.15625C169.52 3.09375 170.285 3.85938 171.223 3.85938C172.176 3.85938 172.926 3.09375 172.926 2.15625C172.926 1.20312 172.176 0.453125 171.223 0.453125C170.285 0.453125 169.52 1.20312 169.52 2.15625Z" fill="#DEDEDE" fill-opacity="0.5" style="mix-blend-mode:plus-lighter"/>
</svg>
