<svg width="102" height="90" viewBox="0 0 102 90" fill="none" xmlns="http://www.w3.org/2000/svg">
<g id="Frame 99">
<path id="Vector" d="M81.7481 79.2574L81.64 79.3764H71.6616L72.4995 78.719L72.4997 78.7189C73.6179 77.8405 74.6986 76.8812 75.7139 75.866C82.3765 69.2065 86.0462 60.3467 86.0462 50.9244C86.0462 47.1903 85.4731 43.5364 84.3423 40.0379L84.1833 39.5462L83.8965 39.976L56.4194 81.1398V68.5999L56.4813 68.5089L56.4821 68.5078L80.6901 32.4942L80.7807 32.3595L80.6944 32.2219C79.2863 29.9757 77.6105 27.8795 75.714 25.9799L75.7138 25.9797C69.9763 20.2453 62.4382 16.6567 54.4196 15.8343L54.1442 15.8061L54.1441 16.0829L54.1225 84.5858L50.8064 89.5498L47.4933 84.5858L47.4872 73.2209L47.4686 16.0829L47.4685 15.8061L47.1931 15.8343C39.1745 16.6567 31.6364 20.2453 25.8989 25.9797L25.8987 25.9799C24.0021 27.8796 22.3264 29.9788 20.9183 32.2218L20.832 32.3594L20.9226 32.4942L45.1933 68.5992V81.1398L17.7162 39.976L17.4293 39.5462L17.2704 40.0379C16.1395 43.5365 15.5696 47.1904 15.5696 50.9244C15.5696 60.3467 19.2393 69.2065 25.8988 75.866L25.8991 75.8662C26.9142 76.8782 27.9947 77.8373 29.1127 78.7186L29.1131 78.719L29.9511 79.3764H19.9727L19.8646 79.2574L19.8638 79.2565C16.6232 75.7207 14.0314 71.687 12.1621 67.2658C9.97306 62.0884 8.86313 56.5914 8.86313 50.9244C8.86313 45.2574 9.97306 39.7605 12.1621 34.5831L12.1623 34.5826C12.3894 34.0423 12.6354 33.4982 12.8879 32.9623L12.9481 32.8346L12.8697 32.717L7.9551 25.3498L7.49713 24.6632V25.4885V77.0518L0.799896 81.674L0.787724 2.54292L16.5956 26.0579L16.7937 26.3525L17.0043 26.0668C18.2557 24.3696 19.6486 22.7491 21.1584 21.2394C25.0142 17.3836 29.5029 14.3583 34.5022 12.243L34.4047 12.0128L34.5022 12.243C38.5636 10.5244 42.8462 9.46679 47.2366 9.09477L47.4655 9.07538V8.84566V7.28994V7.0283L47.2041 7.0402C38.0753 7.45599 29.1819 9.46986 20.779 13.0259C18.275 14.084 15.8021 15.2879 13.4346 16.5972C13.4346 16.5973 13.4346 16.5973 13.4346 16.5973L13.1375 16.7615L9.39185 11.1762L9.73769 10.9812C12.4544 9.45478 15.2883 8.06404 18.1684 6.84913L18.1686 6.84902C28.5173 2.47024 39.498 0.25 50.8063 0.25C62.1147 0.25 73.0954 2.47024 83.4441 6.84902L83.4443 6.84913C86.3243 8.06404 89.1583 9.45478 91.875 10.9812L91.8752 10.9813L92.2235 11.1767L88.4753 16.7616L88.1781 16.5972C85.8107 15.2879 83.3377 14.084 80.8337 13.0259C72.4369 9.47295 63.5467 7.4591 54.4086 7.0402L54.1472 7.02822V7.28994V8.84566V9.07539L54.3761 9.09477C58.7695 9.46679 63.0491 10.5244 67.1136 12.243C72.1098 14.3583 76.5985 17.3836 80.4543 21.2394L80.4545 21.2395C81.964 22.746 83.3569 24.3695 84.6084 26.0668L84.819 26.3525L85.0171 26.0579L100.825 2.54292L100.813 81.6739L94.1187 77.0519V25.4885V24.6637L93.6607 25.3497L88.743 32.717L88.6643 32.8349L88.7251 32.9629C88.9801 33.5007 89.223 34.0449 89.4506 34.5831C91.6396 39.7605 92.7496 45.2574 92.7496 50.9244C92.7496 56.5914 91.6396 62.0884 89.4506 67.2658C87.5813 71.687 84.9895 75.7207 81.7489 79.2565L81.7481 79.2574Z" stroke="#262626" stroke-width="0.5"/>
</g>
</svg>
