<svg width="35" height="35" viewBox="0 0 35 35" fill="none" xmlns="http://www.w3.org/2000/svg">
<path fill-rule="evenodd" clip-rule="evenodd" d="M14.0516 9.39912C14.721 7.52583 16.8728 6.31633 19.118 6.7855C21.257 7.23247 22.5868 9.01255 22.4584 10.8612C21.4017 10.9799 20.4055 11.3032 19.511 11.7908C18.0309 10.4697 16.1389 9.60034 14.0516 9.39912ZM12.2767 9.39077C12.2791 9.37909 12.2817 9.36739 12.2845 9.35571C13.0352 6.2826 16.2868 4.44967 19.4672 5.11428C22.3119 5.70872 24.3013 8.13771 24.1713 10.8502C28.0009 11.2297 31.0418 14.2887 31.4268 18.13C31.6675 18.1646 31.9001 18.2357 32.1126 18.3566C32.4518 18.5498 32.6841 18.8389 32.8106 19.1725C33.0412 19.7809 32.8935 20.4507 32.7137 20.944C32.5201 21.4753 32.2149 22.0036 31.8903 22.4352C31.5839 22.8427 31.1816 23.2696 30.7517 23.4847L27.3087 25.2076C26.9258 25.3993 26.873 25.433 26.8331 25.4683C26.3999 25.851 26.1203 26.3554 25.7558 27.0131L25.7558 27.0132L25.7558 27.0132C25.6972 27.1188 25.6365 27.2284 25.5725 27.3421C25.1446 28.1031 24.5812 29.0147 23.5387 29.573C23.0817 29.8179 22.6072 29.9231 22.0786 29.9725C21.5764 30.0193 20.9702 30.0193 20.2397 30.0193H20.2009H14.7825H14.7438C14.0132 30.0193 13.407 30.0193 12.9048 29.9725C12.3762 29.9231 11.9018 29.8179 11.4447 29.573C10.4023 29.0147 9.83882 28.1031 9.41089 27.3421C9.34695 27.2284 9.2862 27.1188 9.22764 27.0131C8.86309 26.3554 8.58357 25.851 8.15032 25.4683C8.1104 25.433 8.05765 25.3993 7.67472 25.2076L4.23174 23.4847C3.80188 23.2696 3.3995 22.8427 3.09311 22.4352C2.76849 22.0036 2.46328 21.4753 2.26969 20.944C2.08994 20.4507 1.94222 19.7809 2.17285 19.1725C2.29932 18.8389 2.5316 18.5498 2.87084 18.3566C3.08145 18.2367 3.31168 18.1659 3.5501 18.1309C3.94584 13.4917 7.63955 9.79352 12.2767 9.39077ZM13.1186 11.0617C9.04629 11.0617 5.69396 14.1445 5.26799 18.1036H9.3956C9.36465 18.0153 9.34783 17.9203 9.34783 17.8214C9.34783 15.6469 10.9535 13.727 13.1182 13.727C15.2828 13.727 16.8885 15.6469 16.8885 17.8214V18.1036H20.9693C20.5433 14.1445 17.191 11.0617 13.1186 11.0617ZM15.1812 18.1036H11.0074C11.0383 18.0153 11.0551 17.9203 11.0551 17.8214C11.0551 16.4162 12.0612 15.4343 13.1182 15.4343C14.1751 15.4343 15.1812 16.4162 15.1812 17.8214V18.1036ZM4.40447 19.811H15.1812V20.4139C15.1812 20.8854 15.5634 21.2676 16.0348 21.2676C16.5063 21.2676 16.8885 20.8854 16.8885 20.4139V19.811H21.8328C21.8447 19.8114 21.8566 19.8117 21.8686 19.8117C21.8806 19.8117 21.8926 19.8114 21.9045 19.811H31.0419C31.1279 19.811 31.1852 19.8188 31.2207 19.8264C31.222 19.8509 31.2218 19.8853 31.2172 19.9313C31.2061 20.0423 31.1725 20.1869 31.1096 20.3595C30.9831 20.7067 30.7672 21.0881 30.5258 21.4091C30.2662 21.7543 30.0576 21.9229 29.9876 21.9579L26.5447 23.6808L26.4828 23.7117C26.2 23.8528 25.9313 23.9868 25.7027 24.1888C25.0292 24.7838 24.593 25.5796 24.2417 26.2206L24.2415 26.2209L24.2413 26.2213C24.1872 26.3201 24.135 26.4152 24.0844 26.5053C23.6708 27.2408 23.3083 27.7596 22.7326 28.068C22.5454 28.1683 22.3159 28.2356 21.92 28.2725C21.5064 28.3111 20.98 28.312 20.2009 28.312H14.7825C14.0034 28.312 13.477 28.3111 13.0635 28.2725C12.6675 28.2356 12.4381 28.1683 12.2508 28.068C11.6751 27.7596 11.3126 27.2408 10.8991 26.5053C10.8486 26.4155 10.7966 26.3207 10.7426 26.2222L10.7425 26.222L10.742 26.2211L10.7418 26.2207L10.7417 26.2206C10.3904 25.5796 9.95422 24.7838 9.28075 24.1888C9.05212 23.9868 8.7834 23.8528 8.50063 23.7117L8.43876 23.6808L4.99578 21.9579C4.92583 21.9229 4.71726 21.7543 4.45763 21.4091C4.21623 21.0881 4.00034 20.7067 3.87382 20.3595C3.81095 20.1869 3.77732 20.0423 3.7662 19.9313C3.76159 19.8853 3.76141 19.8509 3.76275 19.8264C3.79823 19.8188 3.85554 19.811 3.94153 19.811H4.33282C4.3447 19.8114 4.35664 19.8117 4.36864 19.8117C4.38064 19.8117 4.39259 19.8114 4.40447 19.811ZM20.7232 13.092C21.8132 14.503 22.5193 16.2257 22.6848 18.1036H29.7051C29.2908 14.9473 26.6068 12.5179 23.3664 12.5179C22.4228 12.5179 21.5283 12.7233 20.7232 13.092Z" fill="#F8F8F8" fill-opacity="0.8" style="mix-blend-mode:plus-lighter"/>
</svg>
