<svg width="35" height="35" viewBox="0 0 35 35" fill="none" xmlns="http://www.w3.org/2000/svg">
<path d="M26.2565 17.4954C26.2565 15.4819 24.6242 13.8496 22.6107 13.8496C20.5971 13.8496 18.9648 15.4819 18.9648 17.4954" stroke="#F8F8F8" stroke-opacity="0.8" stroke-width="1.70732" stroke-linecap="round" style="mix-blend-mode:plus-lighter"/>
<path d="M8.75 4.3724V17.4974M12.3958 3.64323V10.9349M16.0417 2.91406V10.9349" stroke="#F8F8F8" stroke-opacity="0.8" stroke-width="1.70732" stroke-linecap="round" stroke-linejoin="round" style="mix-blend-mode:plus-lighter"/>
<path d="M5.83984 6.5599L8.75651 6.10417M29.1732 2.91406L19.694 4.39518M5.83984 10.2057L8.75651 10.0234M29.1732 8.7474L19.694 9.33984" stroke="#F8F8F8" stroke-opacity="0.8" stroke-width="1.70732" stroke-linecap="round" stroke-linejoin="round" style="mix-blend-mode:plus-lighter"/>
<path d="M7.16643 17.4961H27.8414C30.1789 17.4961 31.0353 18.0367 30.452 20.3867C29.4232 24.5319 26.5105 25.5615 23.8191 28.2672C23.165 28.9249 24.1828 29.8966 24.1833 30.62C24.1844 31.9818 22.8893 32.0794 21.8576 32.0794H13.1502C12.1185 32.0794 10.8234 31.9818 10.8245 30.62C10.825 29.9118 11.8123 28.8942 11.1887 28.2672C8.49735 25.5615 5.58457 24.5319 4.55578 20.3867C3.97255 18.0367 4.8289 17.4961 7.16643 17.4961Z" stroke="#F8F8F8" stroke-opacity="0.8" stroke-width="1.70732" stroke-linejoin="round" style="mix-blend-mode:plus-lighter"/>
</svg>
