<svg width="35" height="35" viewBox="0 0 35 35" fill="none" xmlns="http://www.w3.org/2000/svg">
<path d="M17.578 32.0807C24.745 32.0807 30.7115 26.9673 31.9917 20.2078C32.3679 18.2217 31.4834 18.3266 29.6124 17.9988C28.2845 17.7663 27.0453 16.8655 26.5837 15.4383C26.2694 14.4664 26.1525 14.4272 25.1281 14.3846C23.0149 14.2968 21.3216 12.0562 22.1649 10.2437C22.4795 9.56751 22.4693 9.48957 21.8798 9.03101C20.8483 8.22866 20.3673 6.72994 20.5527 5.28536C20.7525 3.72941 20.8691 3.16883 19.2223 2.99361C10.8677 2.1047 2.91016 8.77598 2.91016 17.4897C2.91016 25.5481 9.47715 32.0807 17.578 32.0807Z" stroke="#F8F8F8" stroke-opacity="0.8" stroke-width="1.70732" style="mix-blend-mode:plus-lighter"/>
<path d="M16.043 17.4961L16.0299 17.4961" stroke="#F8F8F8" stroke-opacity="0.8" stroke-width="1.70732" stroke-linecap="round" stroke-linejoin="round" style="mix-blend-mode:plus-lighter"/>
<path d="M8.75 14.5801L8.7369 14.5801" stroke="#F8F8F8" stroke-opacity="0.8" stroke-width="1.70732" stroke-linecap="round" stroke-linejoin="round" style="mix-blend-mode:plus-lighter"/>
<path d="M17.5039 26.2461L17.4908 26.2461" stroke="#F8F8F8" stroke-opacity="0.8" stroke-width="1.70732" stroke-linecap="round" stroke-linejoin="round" style="mix-blend-mode:plus-lighter"/>
<path d="M14.5755 8.74609L13.1172 10.2044" stroke="#F8F8F8" stroke-opacity="0.8" stroke-width="1.70732" stroke-linecap="round" stroke-linejoin="round" style="mix-blend-mode:plus-lighter"/>
<path d="M24.7865 20.4121L23.3281 21.8704" stroke="#F8F8F8" stroke-opacity="0.8" stroke-width="1.70732" stroke-linecap="round" stroke-linejoin="round" style="mix-blend-mode:plus-lighter"/>
<path d="M10.2057 21.873L11.6641 23.3314" stroke="#F8F8F8" stroke-opacity="0.8" stroke-width="1.70732" stroke-linecap="round" stroke-linejoin="round" style="mix-blend-mode:plus-lighter"/>
</svg>
