<svg width="18" height="10" viewBox="0 0 18 10" fill="none" xmlns="http://www.w3.org/2000/svg">
<path d="M9.20419 -3.80379e-07C8.86987 -3.94993e-07 8.58472 0.127827 8.32906 0.393313L0.826604 8.06293C0.610283 8.26942 0.502121 8.54474 0.502121 8.85939C0.502121 9.49852 0.993763 10 1.64273 10C1.95738 10 2.24253 9.87217 2.45886 9.65585L9.20419 2.74336L15.9495 9.65585C16.1757 9.87217 16.4608 10 16.7755 10C17.4146 10 17.9062 9.49853 17.9062 8.85939C17.9062 8.54474 17.7981 8.26942 17.5818 8.06293L10.0793 0.393313C9.82365 0.127827 9.5385 0.00983248 9.20419 -3.80379e-07Z" fill="#929292"/>
</svg>
