<svg width="16" height="17" viewBox="0 0 16 17" fill="none" xmlns="http://www.w3.org/2000/svg">
<path d="M5.7573 8.94905H5.45133C4.46217 8.94905 3.9676 8.94905 3.75678 8.62296C3.54597 8.29686 3.74683 7.84253 4.14857 6.93388L5.35633 4.20215C5.72159 3.376 5.90422 2.96292 6.25852 2.73146C6.61282 2.5 7.0625 2.5 7.96185 2.5H9.3548C10.4473 2.5 10.9936 2.5 11.1996 2.8569C11.4057 3.2138 11.1346 3.69058 10.5926 4.64415L9.87801 5.90125C9.60854 6.3753 9.47381 6.61232 9.47569 6.80635C9.47813 7.0585 9.61223 7.29079 9.8288 7.41803C9.99545 7.51593 10.267 7.51593 10.8102 7.51593C11.4968 7.51593 11.8401 7.51593 12.0189 7.63478C12.2512 7.78919 12.3727 8.06546 12.3301 8.34212C12.2973 8.55506 12.0664 8.81042 11.6045 9.32113L7.91445 13.4016C7.18967 14.203 6.82728 14.6037 6.58392 14.4769C6.34056 14.3501 6.45743 13.8214 6.69116 12.7641L7.14899 10.6931C7.32696 9.88798 7.41595 9.48543 7.20194 9.21724C6.98793 8.94905 6.57772 8.94905 5.7573 8.94905Z" fill="#F5C563"/>
</svg>
