<svg width="60" height="61" viewBox="0 0 60 61" fill="none" xmlns="http://www.w3.org/2000/svg">
<rect width="60" height="60.5092" rx="12.3901" fill="url(#paint0_linear_6564_11843)"/>
<g clip-path="url(#clip0_6564_11843)">
<path d="M21.1667 42.0236C21.4444 42.0236 21.7083 41.9751 21.9583 41.8779C22.2083 41.7807 22.4722 41.6487 22.75 41.4821L38.9445 32.1209C39.5278 31.7783 39.9329 31.4751 40.1598 31.2112C40.3866 30.9473 40.5 30.6302 40.5 30.2598C40.5 29.8894 40.3866 29.5723 40.1598 29.3084C39.9329 29.0445 39.5278 28.7459 38.9445 28.4126L22.75 19.0375C22.4722 18.8801 22.2083 18.7528 21.9583 18.6556C21.7083 18.5584 21.4444 18.5098 21.1667 18.5098C20.6574 18.5098 20.2523 18.6903 19.9514 19.0514C19.6505 19.4125 19.5 19.894 19.5 20.4959V40.0237C19.5 40.6255 19.6505 41.1093 19.9514 41.4751C20.2523 41.8408 20.6574 42.0236 21.1667 42.0236Z" fill="#1C1C1E"/>
</g>
<defs>
<linearGradient id="paint0_linear_6564_11843" x1="30" y1="0" x2="30" y2="60.5092" gradientUnits="userSpaceOnUse">
<stop stop-color="#DDF988"/>
<stop offset="1" stop-color="#D1FA54"/>
</linearGradient>
<clipPath id="clip0_6564_11843">
<rect width="21" height="23.5417" fill="white" transform="translate(19.5 18.4844)"/>
</clipPath>
</defs>
</svg>
