<svg width="12" height="12" viewBox="0 0 12 12" fill="none" xmlns="http://www.w3.org/2000/svg">
<path d="M4.31382 6.33602H4.08438C3.34263 6.33602 2.97176 6.33602 2.81367 6.09149C2.65558 5.84696 2.80621 5.50626 3.10746 4.82488L4.01314 2.77641C4.28704 2.15689 4.42399 1.84714 4.68968 1.67357C4.95536 1.5 5.29256 1.5 5.96697 1.5H7.01152C7.83079 1.5 8.24042 1.5 8.39493 1.76763C8.54943 2.03527 8.34619 2.3928 7.93972 3.10786L7.40386 4.05053C7.20179 4.40601 7.10076 4.58375 7.10217 4.72925C7.104 4.91833 7.20456 5.09253 7.36696 5.18794C7.49193 5.26135 7.69557 5.26135 8.10286 5.26135C8.61773 5.26135 8.87516 5.26135 9.00924 5.35047C9.18344 5.46626 9.27461 5.67343 9.24266 5.88089C9.21807 6.04058 9.0449 6.23206 8.69856 6.61504L5.93143 9.67487C5.38793 10.2759 5.11618 10.5764 4.93369 10.4813C4.7512 10.3862 4.83883 9.98973 5.01411 9.19686L5.35742 7.64382C5.49088 7.0401 5.55761 6.73824 5.39713 6.53713C5.23665 6.33602 4.92904 6.33602 4.31382 6.33602Z" stroke="#DDF988" stroke-width="0.749881" stroke-linejoin="round"/>
</svg>
