<svg width="169" height="63" viewBox="0 0 169 63" fill="none" xmlns="http://www.w3.org/2000/svg">
<path fill-rule="evenodd" clip-rule="evenodd" d="M62.7031 12.8438V22.5469H65.5156V12.8438L73.5156 0H70.3125L64.1562 10.125H64.0625L57.9062 0H54.7031L62.7031 12.8438ZM71.9062 14.4219C71.9062 19.5938 74.9219 22.8594 79.4375 22.8594C83.9219 22.8594 86.9531 19.6094 86.9531 14.4219V14.3906C86.9531 9.20312 83.9062 5.98438 79.4219 5.98438C74.9375 5.98438 71.9062 9.21875 71.9062 14.3906V14.4219ZM84.1719 14.4219C84.1719 18.2344 82.3125 20.4531 79.4531 20.4531C76.5781 20.4531 74.6875 18.25 74.6875 14.4219V14.3906C74.6875 10.5938 76.5938 8.39062 79.4219 8.39062C82.2969 8.39062 84.1719 10.5781 84.1719 14.3906V14.4219ZM89.625 16.8438C89.625 20.5469 91.6875 22.8594 95.25 22.8594C97.7188 22.8594 99.375 21.75 100.25 20.2344H100.312V22.5469H103.031V6.29688H100.312V15.8594C100.312 18.625 98.6406 20.4531 96.0781 20.4531C93.5781 20.4531 92.3438 19 92.3438 16.3594V6.29688H89.625V16.8438ZM109.297 6.29688H106.578V22.5469H109.297V12.5156C109.297 10.0469 110.672 8.57812 112.781 8.57812C113.438 8.57812 114.016 8.65625 114.234 8.73438V6.09375C114.198 6.08854 114.156 6.08203 114.11 6.0748C113.878 6.03863 113.531 5.98438 113.141 5.98438C111.312 5.98438 109.906 7.17188 109.359 9.04688H109.297V6.29688ZM38.5625 56.047V62.5469H41.375V55.7696C45.967 55.3228 50.5545 54.9053 55.1279 54.5057C55.1582 54.5031 55.1885 54.5006 55.2188 54.4981V62.5469H57.9375V54.2744C59.447 54.1525 60.9575 54.0345 62.4688 53.9201V58.4062C62.4688 61.5156 63.9375 62.8594 66.9219 62.8594C67.4531 62.8594 68.0312 62.7969 68.375 62.75V60.5469C68.2985 60.552 68.2136 60.5604 68.1226 60.5695C67.9348 60.5881 67.721 60.6094 67.5 60.6094C66.0469 60.6094 65.2812 60.125 65.2812 58.3906V53.7115C67.2851 53.5659 69.2904 53.4268 71.2969 53.2938V62.5469H74.0156V53.1175C76.67 52.949 79.3264 52.7913 81.9844 52.6438V62.5469H84.7031V52.4965C85.6548 52.4462 86.6067 52.3972 87.5588 52.3494C87.4377 53.0174 87.375 53.7259 87.375 54.4688V54.4844C87.375 59.5938 90.1875 62.8594 94.8594 62.8594C98.4062 62.8594 101.062 60.7344 101.594 58.0469L101.625 57.8906H98.9531L98.9062 58.0312C98.4375 59.4219 96.9844 60.4531 94.9219 60.4531C92.0312 60.4531 90.1875 58.5 90.125 55.1562H101.828V54.1562C101.828 53.2975 101.744 52.4877 101.582 51.7362C102.511 51.7014 103.44 51.6677 104.37 51.635C104.702 53.4772 106.173 54.6407 108.844 55.2812L111.422 55.9062C113.266 56.3594 113.875 57.0156 113.875 58.1875V58.2031C113.875 59.6719 112.562 60.5938 110.359 60.5938C108.141 60.5938 106.938 59.6406 106.609 58.0156L106.578 57.8594H103.859L103.875 58C104.203 60.9062 106.516 62.8594 110.344 62.8594C113.969 62.8594 116.656 60.8594 116.656 58.0156V58C116.656 55.6875 115.469 54.3906 112.188 53.5938L109.609 52.9688C108.335 52.6584 107.595 52.1829 107.272 51.5367C111.254 51.4066 115.238 51.2963 119.22 51.2042C119.392 53.2977 120.876 54.5921 123.75 55.2812L126.328 55.9062C128.172 56.3594 128.781 57.0156 128.781 58.1875V58.2031C128.781 59.6719 127.469 60.5938 125.266 60.5938C123.047 60.5938 121.844 59.6406 121.516 58.0156L121.484 57.8594H118.766L118.781 58C119.109 60.9062 121.422 62.8594 125.25 62.8594C128.875 62.8594 131.562 60.8594 131.562 58.0156V58C131.562 55.6875 130.375 54.3906 127.094 53.5938L124.516 52.9688C122.994 52.5983 122.234 51.9926 122.037 51.1421C125.012 51.0797 127.987 51.0274 130.961 50.9844H131.219L131.218 50.9807C141.164 50.8387 151.098 50.8017 161 50.8466L155.956 50.5595C154.329 50.4763 151.588 50.3426 149.187 50.2255C147.909 50.1632 146.727 50.1056 145.862 50.0628C140.93 49.8647 135.965 49.7237 130.986 49.6394C130.313 47.5017 128.216 45.9844 125.172 45.9844C122.193 45.9844 119.977 47.4091 119.37 49.5457C118.264 49.5465 117.158 49.5501 116.053 49.5564C115.352 47.4625 113.27 45.9844 110.266 45.9844C107.204 45.9844 104.948 47.4894 104.417 49.7254C103.256 49.7525 102.096 49.7827 100.937 49.8158C99.8 47.4274 97.6233 45.9844 94.6875 45.9844C91.6227 45.9844 89.3032 47.6316 88.1615 50.3082C86.9665 50.3661 85.7715 50.4264 84.5765 50.4893C84.0779 47.6787 82.1275 45.9844 79.0781 45.9844C76.6094 45.9844 74.9531 47.0938 74.0781 48.6094H74.0156V46.2969H71.2969V51.2995C69.2912 51.4397 67.2859 51.5883 65.2812 51.7461V48.5469H68.375V46.2969H65.2812V41.9062H62.4688V46.2969H60.0938V48.5469H62.4688V51.9734C60.9579 52.0988 59.4474 52.2295 57.9375 52.3657V46.2969H55.2188V52.6171C50.598 53.0548 45.9825 53.5459 41.375 54.0973V52.7812H51.3594V50.2812H41.375V42.5312H52.25V40H38.5625V54.4416C25.6206 56.0614 12.7463 58.1694 0 60.9216C12.733 58.8771 25.658 57.3371 38.5625 56.047ZM74.3187 51.0946C76.7872 50.9324 79.2561 50.7826 81.725 50.6442C81.2434 49.1771 80.0892 48.3906 78.25 48.3906C76.3301 48.3906 74.9102 49.4168 74.3187 51.0946ZM90.2954 52.2157C90.2412 52.4749 90.1997 52.7468 90.1719 53.0312H99.0625C99.0265 52.604 98.9634 52.2073 98.8752 51.8409C96.0142 51.9549 93.1541 52.0796 90.2954 52.2157ZM97.9918 49.9068C95.7046 49.9825 93.4222 50.0702 91.1462 50.1697C91.9673 48.9982 93.2223 48.3906 94.6719 48.3906C96.0412 48.3906 97.2027 48.884 97.9918 49.9068ZM107.297 49.6645C109.271 49.6271 111.247 49.5985 113.223 49.5787C112.663 48.7496 111.658 48.25 110.266 48.25C108.787 48.25 107.731 48.7877 107.297 49.6645ZM122.265 49.5499C124.225 49.557 126.184 49.5729 128.142 49.5975C127.584 48.7571 126.575 48.25 125.172 48.25C123.759 48.25 122.732 48.7411 122.265 49.5499ZM54.875 41.8438C54.875 42.7812 55.6406 43.5469 56.5781 43.5469C57.5312 43.5469 58.2812 42.7812 58.2812 41.8438C58.2812 40.8906 57.5312 40.1406 56.5781 40.1406C55.6406 40.1406 54.875 40.8906 54.875 41.8438Z" fill="#DEDEDE" fill-opacity="0.5" style="mix-blend-mode:plus-lighter"/>
</svg>
