<svg width="108" height="17" viewBox="0 0 108 17" fill="none" xmlns="http://www.w3.org/2000/svg">
<path d="M11.3307 8.5013C11.3307 10.3423 9.83835 11.8346 7.9974 11.8346C6.15645 11.8346 4.66406 10.3423 4.66406 8.5013C4.66406 6.66035 6.15645 5.16797 7.9974 5.16797C9.83835 5.16797 11.3307 6.66035 11.3307 8.5013Z" fill="#929292" stroke="#929292"/>
<path d="M7.9987 1.83398V2.83398M7.9987 14.1673V15.1673M12.7126 13.2148L12.0055 12.5077M3.99154 4.49349L3.28443 3.78638M14.6654 8.50065H13.6654M2.33203 8.50065H1.33203M12.7129 3.78646L12.0058 4.49357M3.99186 12.5078L3.28476 13.2149" stroke="#929292" stroke-linecap="round"/>
<path d="M20.9092 13V3.13574H22.6797L25.8721 11.0107H25.9131L29.1123 3.13574H30.876V13H29.4814V5.71973H29.4336L26.46 13H25.3252L22.3516 5.71973H22.3037V13H20.9092ZM35.6064 13.1436C33.542 13.1436 32.1953 11.7148 32.1953 9.4043V9.39062C32.1953 7.09375 33.5557 5.67188 35.5996 5.67188C37.6504 5.67188 39.0176 7.08691 39.0176 9.39062V9.4043C39.0176 11.7217 37.6641 13.1436 35.6064 13.1436ZM35.6133 11.9062C36.7686 11.9062 37.5068 10.9902 37.5068 9.4043V9.39062C37.5068 7.81836 36.7549 6.90918 35.5996 6.90918C34.4648 6.90918 33.7061 7.81836 33.7061 9.39062V9.4043C33.7061 10.9971 34.458 11.9062 35.6133 11.9062ZM40.1592 13V5.80859H41.6357V7.03906H41.6699C41.9023 6.19824 42.5039 5.67188 43.3242 5.67188C43.5361 5.67188 43.7207 5.70605 43.8369 5.72656V7.10059C43.7207 7.05273 43.4609 7.01855 43.1738 7.01855C42.2236 7.01855 41.6357 7.64062 41.6357 8.71387V13H40.1592ZM44.7529 13V5.80859H46.2295V6.89551H46.2637C46.6396 6.16406 47.3779 5.67188 48.4648 5.67188C50.0439 5.67188 50.9531 6.69043 50.9531 8.34473V13H49.4697V8.625C49.4697 7.54492 48.9639 6.93652 47.9385 6.93652C46.8994 6.93652 46.2295 7.68848 46.2295 8.80957V13H44.7529ZM53.1816 4.70117C52.7031 4.70117 52.3203 4.31836 52.3203 3.85352C52.3203 3.38184 52.7031 2.99902 53.1816 2.99902C53.667 2.99902 54.043 3.38184 54.043 3.85352C54.043 4.31836 53.667 4.70117 53.1816 4.70117ZM52.4434 13V5.80859H53.9199V13H52.4434ZM55.4443 13V5.80859H56.9209V6.89551H56.9551C57.3311 6.16406 58.0693 5.67188 59.1562 5.67188C60.7354 5.67188 61.6445 6.69043 61.6445 8.34473V13H60.1611V8.625C60.1611 7.54492 59.6553 6.93652 58.6299 6.93652C57.5908 6.93652 56.9209 7.68848 56.9209 8.80957V13H55.4443ZM66.2246 15.5361C64.3789 15.5361 63.21 14.6816 62.9912 13.5811L62.9844 13.5195H64.4473L64.4746 13.5742C64.6729 14.0322 65.2949 14.3467 66.2178 14.3467C67.3936 14.3467 68.043 13.7178 68.043 12.7129V11.7285H68.0088C67.5986 12.5078 66.7783 13.0068 65.7461 13.0068C63.9414 13.0068 62.752 11.5918 62.752 9.34961V9.34277C62.752 7.08691 63.9551 5.67188 65.7803 5.67188C66.792 5.67188 67.585 6.21875 68.0088 7.03223H68.043V5.80859H69.5264V12.8018C69.5264 14.4424 68.2549 15.5361 66.2246 15.5361ZM66.1631 11.8037C67.291 11.8037 68.043 10.8535 68.043 9.37012V9.36328C68.043 7.88672 67.2842 6.93652 66.1631 6.93652C64.9941 6.93652 64.2627 7.87988 64.2627 9.36328V9.37012C64.2627 10.874 64.9941 11.8037 66.1631 11.8037ZM78.2285 13.1641C75.4326 13.1641 73.6553 11.1953 73.6553 8.06445V8.05762C73.6553 4.92676 75.4326 2.97168 78.2285 2.97168C80.4023 2.97168 82.0361 4.31152 82.3438 6.25977L82.3574 6.32129H80.8398L80.7988 6.18457C80.4707 5.0293 79.5547 4.3252 78.2285 4.3252C76.3965 4.3252 75.2207 5.77441 75.2207 8.05762V8.06445C75.2207 10.3477 76.4033 11.8105 78.2285 11.8105C79.541 11.8105 80.4502 11.127 80.8193 9.87598L80.8398 9.81445H82.3574L82.3506 9.88281C82.043 11.8447 80.4092 13.1641 78.2285 13.1641ZM84.3672 4.70117C83.8887 4.70117 83.5059 4.31836 83.5059 3.85352C83.5059 3.38184 83.8887 2.99902 84.3672 2.99902C84.8525 2.99902 85.2285 3.38184 85.2285 3.85352C85.2285 4.31836 84.8525 4.70117 84.3672 4.70117ZM83.6289 13V5.80859H85.1055V13H83.6289ZM86.6299 13V5.80859H88.1064V7.03906H88.1406C88.373 6.19824 88.9746 5.67188 89.7949 5.67188C90.0068 5.67188 90.1914 5.70605 90.3076 5.72656V7.10059C90.1914 7.05273 89.9316 7.01855 89.6445 7.01855C88.6943 7.01855 88.1064 7.64062 88.1064 8.71387V13H86.6299ZM93.999 13.1436C91.9004 13.1436 90.5879 11.7012 90.5879 9.39746V9.39062C90.5879 7.11426 91.9277 5.67188 93.9785 5.67188C95.8311 5.67188 96.9521 6.86133 97.0752 8.21484L97.082 8.2627H95.6738L95.6602 8.20801C95.5029 7.50391 94.9561 6.90918 93.9922 6.90918C92.8438 6.90918 92.0986 7.86621 92.0986 9.4043V9.41113C92.0986 10.9834 92.8574 11.9062 93.999 11.9062C94.9082 11.9062 95.4893 11.3799 95.667 10.6006L95.6738 10.5459H97.0957L97.0889 10.5938C96.9316 12.0361 95.7285 13.1436 93.999 13.1436ZM98.1963 13V3.13574H99.6729V13H98.1963ZM104.26 13.1436C102.147 13.1436 100.869 11.7012 100.869 9.43164V9.4248C100.869 7.17578 102.168 5.67188 104.185 5.67188C106.201 5.67188 107.438 7.12109 107.438 9.28125V9.78027H102.346C102.373 11.1406 103.118 11.9336 104.294 11.9336C105.169 11.9336 105.75 11.4824 105.935 10.9424L105.955 10.8877H107.356L107.343 10.9629C107.11 12.1045 106.003 13.1436 104.26 13.1436ZM104.191 6.88184C103.234 6.88184 102.496 7.53125 102.366 8.73438H105.976C105.853 7.49023 105.155 6.88184 104.191 6.88184Z" fill="#929292"/>
</svg>
